M48
;Layer_Color=9474304
;FILE_FORMAT=2:5
INCH,LZ
;TYPE=PLATED
T1F00S00C0.00787
T2F00S00C0.03937
T3F00S00C0.10236
%
T01
X0020669Y0
X0023819
X0026969
X0030118
X0033268
X0036417
X0039567
X0042717
X0030311Y001
X00185
X0014193Y0028543
X00185Y0033622
X00255Y00475
X0026047Y0070276
X0031728Y0079921
X0049213
X0046378Y0087126
X0046122Y0052756
X0042122Y0033622
X0053933
X0065744
Y0021811
Y001
X0053933Y0021811
X0046122Y0022441
X0004193Y0028543
X0006689Y0033622
X-0005122
X-0005807Y0028543
X-0015807
X-0029472Y0033622
X-0040555
Y0021811
X-0029472
Y001
X-0040555
X-0020276Y0
X-0005122Y001
X0006689
X-0023622Y0050433
X-0016429Y0072835
X-0011429
Y0090551
X-0019685
X-0018504Y0105315
Y0113189
X-0019685Y0127953
X-0006221Y0123543
X0003622
X0009843Y0127756
X003315Y0123543
X0042992
X0039787Y0127953
T02
X-001437Y0153543
X-0004528
X0005315
X0015157
X0025
X0034843
X0044685
T03
X-003248Y0176378
X0062795
M30
