G04*
G04 #@! TF.GenerationSoftware,Altium Limited,Altium Designer,22.1.2 (22)*
G04*
G04 Layer_Color=255*
%FSLAX25Y25*%
%MOIN*%
G70*
G04*
G04 #@! TF.SameCoordinates,3B7FE2DD-F4B8-4A7D-B534-A0F5109E0913*
G04*
G04*
G04 #@! TF.FilePolarity,Positive*
G04*
G01*
G75*
%ADD16R,0.01850X0.02047*%
%ADD26R,0.02362X0.09055*%
%ADD28C,0.05315*%
%ADD29R,0.05315X0.05315*%
%ADD30R,0.20866X0.20866*%
%ADD32R,0.13583X0.13583*%
%ADD33R,0.00984X0.02756*%
%ADD34R,0.02756X0.00984*%
%ADD35R,0.03937X0.01575*%
%ADD36R,0.05512X0.02756*%
%ADD37R,0.02756X0.02362*%
%ADD38R,0.02047X0.01850*%
D16*
X-27835Y126969D02*
D03*
X-31220D02*
D03*
X8150Y142717D02*
D03*
X11535D02*
D03*
X8150Y134843D02*
D03*
X11535D02*
D03*
X17992D02*
D03*
X21378D02*
D03*
X27835D02*
D03*
X31220D02*
D03*
X-31220Y130905D02*
D03*
X-27835D02*
D03*
X-21378D02*
D03*
X-17992D02*
D03*
X-11535Y134843D02*
D03*
X-8150D02*
D03*
X-21378D02*
D03*
X-17992D02*
D03*
X-11535Y130905D02*
D03*
X-8150D02*
D03*
X17992Y57087D02*
D03*
X21378D02*
D03*
X-17992D02*
D03*
X-21378D02*
D03*
X-17992Y49213D02*
D03*
X-21378D02*
D03*
X-31220Y134843D02*
D03*
X-27835D02*
D03*
X31220Y138779D02*
D03*
X27835D02*
D03*
X27835Y130905D02*
D03*
X31220D02*
D03*
X17992Y126969D02*
D03*
X21378D02*
D03*
X-21378Y41339D02*
D03*
X-17992D02*
D03*
X-24724Y103347D02*
D03*
X-21339D02*
D03*
X27835Y126969D02*
D03*
X31220D02*
D03*
X17992Y130905D02*
D03*
X21378D02*
D03*
X-24724Y75787D02*
D03*
X-21339D02*
D03*
X-24724Y79724D02*
D03*
X-21339D02*
D03*
X11535Y138779D02*
D03*
X8150D02*
D03*
X21378D02*
D03*
X17992D02*
D03*
X8150Y126969D02*
D03*
X11535D02*
D03*
X8150Y130905D02*
D03*
X11535D02*
D03*
X25905Y83661D02*
D03*
X22520D02*
D03*
X25905Y91535D02*
D03*
X22520D02*
D03*
Y87598D02*
D03*
X25905D02*
D03*
X-24724Y99409D02*
D03*
X-21339D02*
D03*
X25905Y75787D02*
D03*
X22520D02*
D03*
X-21339Y83661D02*
D03*
X-24724D02*
D03*
X22520Y99409D02*
D03*
X25905D02*
D03*
X-17992Y53150D02*
D03*
X-21378D02*
D03*
X22520Y107283D02*
D03*
X25905D02*
D03*
X-24724Y95472D02*
D03*
X-21339D02*
D03*
X25905Y79724D02*
D03*
X22520D02*
D03*
X25905Y103347D02*
D03*
X22520D02*
D03*
X25905Y95472D02*
D03*
X22520D02*
D03*
X-24724Y87598D02*
D03*
X-21339D02*
D03*
X-8150Y126969D02*
D03*
X-11535D02*
D03*
X-21378D02*
D03*
X-17992D02*
D03*
X-21378Y45276D02*
D03*
X-17992D02*
D03*
X-21339Y107283D02*
D03*
X-24724D02*
D03*
X11535Y146653D02*
D03*
X8150D02*
D03*
X21378D02*
D03*
X17992D02*
D03*
X31220D02*
D03*
X27835D02*
D03*
X27835Y142717D02*
D03*
X31220D02*
D03*
X17992D02*
D03*
X21378D02*
D03*
D26*
X-44882Y5512D02*
D03*
X-41732D02*
D03*
X-38583D02*
D03*
X-35433D02*
D03*
X-32283D02*
D03*
X-29134D02*
D03*
X-25984D02*
D03*
X-22835D02*
D03*
X-7087D02*
D03*
X-3937D02*
D03*
X-787D02*
D03*
X2362D02*
D03*
X5512D02*
D03*
X8661D02*
D03*
X11811D02*
D03*
X14961D02*
D03*
X18110D02*
D03*
X21260D02*
D03*
X24409D02*
D03*
X27559D02*
D03*
X30709D02*
D03*
X33858D02*
D03*
X37008D02*
D03*
X40157D02*
D03*
X43307D02*
D03*
X46457D02*
D03*
D28*
X-29528Y166339D02*
D03*
X-19685D02*
D03*
X-9843D02*
D03*
X0D02*
D03*
X9843D02*
D03*
X19685D02*
D03*
D29*
X29528D02*
D03*
D30*
X-47638Y189173D02*
D03*
X47638D02*
D03*
D32*
X0Y99410D02*
D03*
D33*
X-6890Y108858D02*
D03*
X-4921D02*
D03*
X-2953D02*
D03*
X-984D02*
D03*
X984D02*
D03*
X2953D02*
D03*
X4921D02*
D03*
X6890D02*
D03*
Y89961D02*
D03*
X4921D02*
D03*
X2953D02*
D03*
X984D02*
D03*
X-984D02*
D03*
X-2953D02*
D03*
X-4921D02*
D03*
X-6890D02*
D03*
D34*
X9449Y106299D02*
D03*
Y104331D02*
D03*
Y102362D02*
D03*
Y100394D02*
D03*
Y98425D02*
D03*
Y96457D02*
D03*
Y94488D02*
D03*
Y92520D02*
D03*
X-9449D02*
D03*
Y94488D02*
D03*
Y96457D02*
D03*
Y98425D02*
D03*
Y100394D02*
D03*
Y102362D02*
D03*
Y104331D02*
D03*
Y106299D02*
D03*
D35*
X-11024Y50463D02*
D03*
Y52965D02*
D03*
Y55465D02*
D03*
Y47961D02*
D03*
Y45461D02*
D03*
Y42961D02*
D03*
Y40461D02*
D03*
Y57965D02*
D03*
X11024Y50463D02*
D03*
Y52965D02*
D03*
Y55465D02*
D03*
Y47961D02*
D03*
Y45461D02*
D03*
Y42961D02*
D03*
Y40461D02*
D03*
Y57965D02*
D03*
D36*
X-9843Y139035D02*
D03*
Y146398D02*
D03*
X-29528Y139035D02*
D03*
Y146398D02*
D03*
X-19685Y139035D02*
D03*
Y146398D02*
D03*
D37*
X2756Y75590D02*
D03*
X-2756D02*
D03*
Y79921D02*
D03*
X2756D02*
D03*
D38*
X6496Y79449D02*
D03*
Y76063D02*
D03*
X-6496D02*
D03*
Y79449D02*
D03*
M02*
