G04*
G04 #@! TF.GenerationSoftware,Altium Limited,Altium Designer,22.1.2 (22)*
G04*
G04 Layer_Physical_Order=3*
G04 Layer_Color=16440176*
%FSLAX25Y25*%
%MOIN*%
G70*
G04*
G04 #@! TF.SameCoordinates,D9C7AC14-A0B2-4E4F-895A-178DC6869FF5*
G04*
G04*
G04 #@! TF.FilePolarity,Positive*
G04*
G01*
G75*
%ADD38C,0.01181*%
%ADD41C,0.05315*%
%ADD42C,0.01968*%
%ADD43C,0.01575*%
G36*
X35500Y118000D02*
X25500Y108000D01*
X14738D01*
X14231Y108339D01*
X13386Y108507D01*
X12541Y108339D01*
X12034Y108000D01*
X-25500D01*
X-27769Y110269D01*
X-27613Y110819D01*
X-27382Y110874D01*
X-27124Y110702D01*
X-26587Y110595D01*
X-26049Y110702D01*
X-25593Y111006D01*
X-25289Y111462D01*
X-25182Y112000D01*
X-25289Y112538D01*
X-25593Y112994D01*
X-26049Y113298D01*
X-26587Y113405D01*
X-27124Y113298D01*
X-27565Y113004D01*
X-29378D01*
X-29762Y112927D01*
X-30088Y112710D01*
X-30210Y112710D01*
X-35500Y118000D01*
Y139000D01*
X-8000D01*
X-3000Y144000D01*
X-3000Y169500D01*
X-2000Y170500D01*
X35500Y170500D01*
X35500Y118000D01*
D02*
G37*
G36*
X-31061Y111858D02*
X-31061Y111858D01*
X-31345Y111452D01*
X-33710Y109088D01*
X-33927Y108762D01*
X-34003Y108378D01*
Y95874D01*
X-33927Y95490D01*
X-33710Y95164D01*
X-30039Y91494D01*
Y91261D01*
X-29830Y90755D01*
X-29442Y90367D01*
X-28936Y90158D01*
X-28387D01*
X-27881Y90367D01*
X-27493Y90755D01*
X-27283Y91261D01*
Y91809D01*
X-27396Y92080D01*
X-26972Y92364D01*
X-25728Y91120D01*
Y82638D01*
X-25893Y82473D01*
X-26102Y81967D01*
Y81419D01*
X-25893Y80912D01*
X-25505Y80525D01*
X-24998Y80315D01*
X-24450D01*
X-23944Y80525D01*
X-23556Y80912D01*
X-23347Y81419D01*
Y81967D01*
X-23556Y82473D01*
X-23721Y82638D01*
Y91535D01*
X-23797Y91919D01*
X-24015Y92245D01*
X-27283Y95514D01*
Y95746D01*
X-27493Y96253D01*
X-27881Y96641D01*
X-28387Y96850D01*
X-28620D01*
X-30422Y98652D01*
Y104857D01*
X-29373Y105905D01*
X-29254D01*
X-28747Y106115D01*
X-28359Y106503D01*
X-28150Y107009D01*
Y107557D01*
X-28359Y108064D01*
X-28747Y108452D01*
X-29254Y108661D01*
X-29802D01*
X-30308Y108452D01*
X-30696Y108064D01*
X-30906Y107557D01*
Y107212D01*
X-31534Y106582D01*
X-31997Y106774D01*
Y107962D01*
X-29435Y110523D01*
X-29421Y110521D01*
X-28971Y110280D01*
X-28974Y110269D01*
X-28960Y110200D01*
X-28966Y110131D01*
X-28914Y109972D01*
X-28882Y109808D01*
X-28843Y109750D01*
X-28822Y109683D01*
X-28714Y109556D01*
X-28621Y109418D01*
X-26352Y107149D01*
X-25961Y106887D01*
X-25500Y106796D01*
X-25500Y106796D01*
X946D01*
Y85065D01*
X787Y84683D01*
Y83821D01*
X1117Y83025D01*
X1726Y82416D01*
X2522Y82087D01*
X3384D01*
X4179Y82416D01*
X4789Y83025D01*
X5118Y83821D01*
Y84683D01*
X4960Y85065D01*
Y106796D01*
X12034D01*
X12150Y106819D01*
X12269D01*
X12378Y106864D01*
X12494Y106887D01*
X12593Y106953D01*
X12703Y106999D01*
X13011Y107204D01*
X13386Y107279D01*
X13761Y107204D01*
X14069Y106999D01*
X14178Y106953D01*
X14277Y106887D01*
X14393Y106864D01*
X14503Y106819D01*
X14622D01*
X14738Y106796D01*
X25500D01*
X25961Y106887D01*
X26351Y107149D01*
X35038Y115835D01*
X35500Y115644D01*
Y49000D01*
X8649D01*
X8596Y49053D01*
X8306Y49173D01*
X7993D01*
X7704Y49053D01*
X7650Y49000D01*
X-35500D01*
Y115644D01*
X-35038Y115835D01*
X-31061Y111858D01*
D02*
G37*
%LPC*%
G36*
X29528Y169416D02*
X28731Y169311D01*
X27989Y169004D01*
X27351Y168515D01*
X26862Y167877D01*
X26555Y167135D01*
X26450Y166339D01*
X26555Y165542D01*
X26862Y164800D01*
X27351Y164163D01*
X27989Y163673D01*
X28731Y163366D01*
X29528Y163261D01*
X30324Y163366D01*
X31066Y163673D01*
X31704Y164163D01*
X32193Y164800D01*
X32500Y165542D01*
X32605Y166339D01*
X32500Y167135D01*
X32193Y167877D01*
X31704Y168515D01*
X31066Y169004D01*
X30324Y169311D01*
X29528Y169416D01*
D02*
G37*
G36*
X19685D02*
X18889Y169311D01*
X18146Y169004D01*
X17509Y168515D01*
X17020Y167877D01*
X16712Y167135D01*
X16608Y166339D01*
X16712Y165542D01*
X17020Y164800D01*
X17509Y164163D01*
X18146Y163673D01*
X18889Y163366D01*
X19685Y163261D01*
X20482Y163366D01*
X21224Y163673D01*
X21861Y164163D01*
X22350Y164800D01*
X22658Y165542D01*
X22762Y166339D01*
X22658Y167135D01*
X22350Y167877D01*
X21861Y168515D01*
X21224Y169004D01*
X20482Y169311D01*
X19685Y169416D01*
D02*
G37*
G36*
X9843D02*
X9046Y169311D01*
X8304Y169004D01*
X7666Y168515D01*
X7177Y167877D01*
X6870Y167135D01*
X6765Y166339D01*
X6870Y165542D01*
X7177Y164800D01*
X7666Y164163D01*
X8304Y163673D01*
X9046Y163366D01*
X9843Y163261D01*
X10639Y163366D01*
X11381Y163673D01*
X12019Y164163D01*
X12508Y164800D01*
X12815Y165542D01*
X12920Y166339D01*
X12815Y167135D01*
X12508Y167877D01*
X12019Y168515D01*
X11381Y169004D01*
X10639Y169311D01*
X9843Y169416D01*
D02*
G37*
G36*
X25905Y114006D02*
X25598Y113945D01*
X25338Y113771D01*
X25164Y113511D01*
X25103Y113204D01*
X25164Y112896D01*
X25338Y112636D01*
X25598Y112462D01*
X25905Y112401D01*
X26213Y112462D01*
X26473Y112636D01*
X26647Y112896D01*
X26708Y113204D01*
X26647Y113511D01*
X26473Y113771D01*
X26213Y113945D01*
X25905Y114006D01*
D02*
G37*
G36*
X26062Y94291D02*
X25749D01*
X25460Y94172D01*
X25238Y93950D01*
X25118Y93661D01*
Y93347D01*
X25238Y93058D01*
X25460Y92836D01*
X25749Y92716D01*
X26062D01*
X26351Y92836D01*
X26573Y93058D01*
X26693Y93347D01*
Y93661D01*
X26573Y93950D01*
X26351Y94172D01*
X26062Y94291D01*
D02*
G37*
G36*
X26062Y72693D02*
X25749D01*
X25460Y72573D01*
X25238Y72351D01*
X25118Y72062D01*
Y71749D01*
X25238Y71460D01*
X25460Y71238D01*
X25749Y71118D01*
X26062D01*
X26351Y71238D01*
X26573Y71460D01*
X26693Y71749D01*
Y72062D01*
X26573Y72351D01*
X26351Y72573D01*
X26062Y72693D01*
D02*
G37*
G36*
X-33623Y59764D02*
X-33936D01*
X-34225Y59644D01*
X-34447Y59422D01*
X-34567Y59133D01*
Y58820D01*
X-34447Y58530D01*
X-34225Y58309D01*
X-33936Y58189D01*
X-33623D01*
X-33334Y58309D01*
X-33112Y58530D01*
X-32992Y58820D01*
Y59133D01*
X-33112Y59422D01*
X-33334Y59644D01*
X-33623Y59764D01*
D02*
G37*
G36*
X-9568Y87992D02*
X-10117D01*
X-10623Y87782D01*
X-11011Y87395D01*
X-11220Y86888D01*
Y86340D01*
X-11011Y85834D01*
X-10846Y85669D01*
Y67000D01*
X-10770Y66616D01*
X-10552Y66290D01*
X-3477Y59216D01*
X-3152Y58998D01*
X-2768Y58922D01*
X17932D01*
X20496Y56357D01*
Y53192D01*
X20573Y52808D01*
X20790Y52482D01*
X21982Y51290D01*
X22308Y51073D01*
X22692Y50997D01*
X26744D01*
X27128Y51073D01*
X27454Y51290D01*
X28722Y52559D01*
X28955D01*
X29462Y52769D01*
X29849Y53157D01*
X30059Y53663D01*
Y54211D01*
X29849Y54718D01*
X29462Y55105D01*
X28955Y55315D01*
X28407D01*
X27900Y55105D01*
X27513Y54718D01*
X27303Y54211D01*
Y53978D01*
X26328Y53004D01*
X25314D01*
X24980Y53504D01*
X25059Y53694D01*
Y54243D01*
X24849Y54749D01*
X24685Y54914D01*
Y56819D01*
X24608Y57203D01*
X24391Y57529D01*
X19710Y62210D01*
X19384Y62427D01*
X19000Y62503D01*
X-1700D01*
X-5886Y66690D01*
Y83307D01*
X-5722Y83471D01*
X-5512Y83978D01*
Y84526D01*
X-5722Y85032D01*
X-6109Y85420D01*
X-6616Y85630D01*
X-7164D01*
X-7670Y85420D01*
X-8058Y85032D01*
X-8268Y84526D01*
Y83978D01*
X-8058Y83471D01*
X-7893Y83307D01*
Y67123D01*
X-8355Y66932D01*
X-8839Y67416D01*
Y85669D01*
X-8674Y85834D01*
X-8465Y86340D01*
Y86888D01*
X-8674Y87395D01*
X-9062Y87782D01*
X-9568Y87992D01*
D02*
G37*
%LPD*%
D38*
X-29378Y112000D02*
X-26587D01*
X-33000Y95874D02*
Y108378D01*
X-29378Y112000D01*
X-31425Y98236D02*
X-24724Y91535D01*
X-33000Y95874D02*
X-28661Y91535D01*
X-31425Y98236D02*
Y105273D01*
X-29528Y107170D01*
Y107283D01*
X-24724Y81693D02*
Y91535D01*
X22692Y52000D02*
X26744D01*
X28681Y53937D01*
X-2115Y61500D02*
X19000D01*
X18348Y59925D02*
X21500Y56773D01*
X23681Y53969D02*
Y56819D01*
X19000Y61500D02*
X23681Y56819D01*
X-2768Y59925D02*
X18348D01*
X21500Y53192D02*
Y56773D01*
X-9843Y67000D02*
Y86614D01*
X-6890Y66274D02*
X-2115Y61500D01*
X-9843Y67000D02*
X-2768Y59925D01*
X-6890Y66274D02*
Y84252D01*
X21500Y53192D02*
X22692Y52000D01*
X-2362Y38411D02*
X3652Y44425D01*
X23595Y42520D02*
X23681D01*
X21689Y44425D02*
X23595Y42520D01*
X25201Y46000D02*
X28681Y42520D01*
X3000Y46000D02*
X25201D01*
X-3937Y39063D02*
X3000Y46000D01*
X3652Y44425D02*
X21689D01*
X-3937Y12910D02*
Y39063D01*
X-2362Y17500D02*
Y38411D01*
X-787Y12910D02*
Y15925D01*
X-2362Y17500D02*
X-787Y15925D01*
D41*
X0Y166339D02*
D03*
D42*
X-4500Y137500D02*
D03*
X-14000D02*
D03*
X-34000Y112500D02*
D03*
X-30710Y122049D02*
D03*
X-26587Y112000D02*
D03*
X-28661Y95472D02*
D03*
X-28532Y101378D02*
D03*
X-24724Y81693D02*
D03*
X23500Y67500D02*
D03*
X34000Y53500D02*
D03*
Y67500D02*
D03*
X500Y53500D02*
D03*
Y67500D02*
D03*
X-13500Y53500D02*
D03*
Y67500D02*
D03*
X-23500Y53500D02*
D03*
X-21339Y67500D02*
D03*
X23681Y53969D02*
D03*
X-13000Y76063D02*
D03*
X28681Y53937D02*
D03*
Y42520D02*
D03*
X23681D02*
D03*
X-787Y12910D02*
D03*
X-3937D02*
D03*
X34252Y76063D02*
D03*
Y89000D02*
D03*
Y98000D02*
D03*
Y112000D02*
D03*
X-18500Y76063D02*
D03*
X-28661Y77756D02*
D03*
Y85630D02*
D03*
X-18500D02*
D03*
Y97500D02*
D03*
X20000Y89500D02*
D03*
X18500Y93500D02*
D03*
X16500Y98000D02*
D03*
X17000Y82500D02*
D03*
X10500Y89000D02*
D03*
X9500Y79449D02*
D03*
X-4000Y86500D02*
D03*
X-13000Y90000D02*
D03*
X-16500Y103347D02*
D03*
X27835Y116000D02*
D03*
X17500Y116500D02*
D03*
X34252Y123500D02*
D03*
Y142717D02*
D03*
Y130905D02*
D03*
X4921Y146276D02*
D03*
Y137795D02*
D03*
Y130905D02*
D03*
X24606D02*
D03*
Y142717D02*
D03*
X14764D02*
D03*
Y130905D02*
D03*
Y123500D02*
D03*
X24606D02*
D03*
X17992Y110236D02*
D03*
X11535D02*
D03*
X-4921Y130905D02*
D03*
X-984Y120079D02*
D03*
X-11535Y112000D02*
D03*
X-21378D02*
D03*
X-24500Y137795D02*
D03*
X-34000D02*
D03*
X-14000Y130905D02*
D03*
X-24000D02*
D03*
X-34000D02*
D03*
X-21378Y120079D02*
D03*
X-11535D02*
D03*
X-6890Y84252D02*
D03*
X-9843Y86614D02*
D03*
X-29528Y107283D02*
D03*
X-28661Y91535D02*
D03*
X13386Y106299D02*
D03*
X2953Y84252D02*
D03*
D43*
X-984Y120079D02*
X2953Y116142D01*
Y84252D02*
Y116142D01*
M02*
