G04*
G04 #@! TF.GenerationSoftware,Altium Limited,Altium Designer,22.1.2 (22)*
G04*
G04 Layer_Color=128*
%FSLAX25Y25*%
%MOIN*%
G70*
G04*
G04 #@! TF.SameCoordinates,B1E273F1-CA0D-4A37-822C-2AC157981796*
G04*
G04*
G04 #@! TF.FilePolarity,Positive*
G04*
G01*
G75*
%ADD10C,0.00394*%
%ADD12C,0.00197*%
%ADD15C,0.00039*%
%ADD16C,0.00079*%
%ADD57C,0.00200*%
D10*
X53740Y12598D02*
G03*
X50591Y9449I0J-3150D01*
G01*
X-50591D02*
G03*
X-53740Y12598I-3150J0D01*
G01*
X-12205Y12795D02*
G03*
X-18110Y12795I-2953J0D01*
G01*
X53740Y12598D02*
G03*
X50591Y9449I0J-3150D01*
G01*
X-50591D02*
G03*
X-53740Y12598I-3150J0D01*
G01*
X-12205Y12795D02*
G03*
X-18110Y12795I-2953J0D01*
G01*
X-50591Y0D02*
X-18110D01*
X50591D02*
Y9449D01*
X53740Y12598D02*
X59055D01*
X-59055D02*
X-53740D01*
X-12205Y0D02*
Y12795D01*
X-18110Y0D02*
Y12795D01*
X-50591Y0D02*
Y9449D01*
X-12205Y0D02*
X50591D01*
X-59055Y200591D02*
X59055D01*
X-50591Y0D02*
Y9449D01*
X59055Y12598D02*
Y200591D01*
X-18110Y0D02*
Y12795D01*
X50591Y0D02*
Y9449D01*
X-12205Y0D02*
Y12795D01*
X-50591Y0D02*
X-18110D01*
X-12205D02*
X50591D01*
X53740Y12598D02*
X59055D01*
X-59055D02*
X-53740D01*
X-59055D02*
Y200591D01*
D12*
X11600Y87809D02*
Y111009D01*
X-11600Y87809D02*
Y111009D01*
X11600D01*
X-11600Y87809D02*
X11600D01*
X-11600D02*
Y111009D01*
Y87809D02*
X11600D01*
Y111009D01*
X-11600D02*
X11600D01*
X-1181Y99410D02*
X1181D01*
X0Y98228D02*
Y100591D01*
D15*
X35039Y141535D02*
Y147835D01*
X24016D02*
X35039D01*
X24016Y141535D02*
X35039D01*
X24016D02*
Y147835D01*
X-8063Y92520D02*
X-5110D01*
X-8063Y86614D02*
Y92520D01*
X-5110Y86614D02*
Y92520D01*
X-8063Y86614D02*
X-5110D01*
X-28063D02*
X-25110D01*
Y92520D01*
X-28063Y86614D02*
Y92520D01*
X-25110D01*
X-18063D02*
X-15110D01*
X-18063Y86614D02*
Y92520D01*
X-15110Y86614D02*
Y92520D01*
X-18063Y86614D02*
X-15110D01*
X1937Y92520D02*
X4890D01*
X1937Y86614D02*
Y92520D01*
X4890Y86614D02*
Y92520D01*
X1937Y86614D02*
X4890D01*
X-35740Y93504D02*
X7567D01*
X-35740Y125000D02*
X7567D01*
X-35740Y93504D02*
Y125000D01*
X7567Y93504D02*
Y125000D01*
X16339Y32480D02*
Y63976D01*
X36024Y32480D02*
Y63976D01*
X16339Y32480D02*
X36024D01*
X16339Y63976D02*
X36024D01*
X17634Y97933D02*
X23539D01*
X17634Y94980D02*
X23539D01*
Y97933D01*
X17634Y94980D02*
Y97933D01*
X31413Y94980D02*
Y97933D01*
X25508D02*
X31413D01*
X25508Y94980D02*
X31413D01*
X25508D02*
Y97933D01*
X-27559Y23228D02*
Y73228D01*
X5118D01*
Y23228D02*
Y73228D01*
X-27559Y23228D02*
X5118D01*
X43307Y154528D02*
Y203740D01*
X-43307Y154528D02*
Y203740D01*
Y154528D02*
X43307D01*
X-43307Y203740D02*
X43307D01*
X26575Y137303D02*
Y140256D01*
X32480Y137303D02*
Y140256D01*
X26575Y137303D02*
X32480D01*
X26575Y140256D02*
X32480D01*
X-5512Y141535D02*
Y147835D01*
Y141535D02*
X5512D01*
X-5512Y147835D02*
X5512D01*
Y141535D02*
Y147835D01*
X-2953Y137303D02*
Y140256D01*
X2953Y137303D02*
Y140256D01*
X-2953Y137303D02*
X2953D01*
X-2953Y140256D02*
X2953D01*
X-35039Y141535D02*
Y147835D01*
Y141535D02*
X-24016D01*
X-35039Y147835D02*
X-24016D01*
Y141535D02*
Y147835D01*
X-32480Y137303D02*
Y140256D01*
X-26575Y137303D02*
Y140256D01*
X-32480Y137303D02*
X-26575D01*
X-32480Y140256D02*
X-26575D01*
X17634Y114862D02*
Y117815D01*
X23539Y114862D02*
Y117815D01*
X17634Y114862D02*
X23539D01*
X17634Y117815D02*
X23539D01*
X31413Y114862D02*
Y117815D01*
X25508D02*
X31413D01*
X25508Y114862D02*
X31413D01*
X25508D02*
Y117815D01*
X-22835Y148228D02*
X-16535D01*
Y137205D02*
Y148228D01*
X-22835Y137205D02*
Y148228D01*
Y137205D02*
X-16535D01*
X-12992Y148228D02*
X-6693D01*
Y137205D02*
Y148228D01*
X-12992Y137205D02*
Y148228D01*
Y137205D02*
X-6693D01*
X-32677Y148228D02*
X-26378D01*
Y137205D02*
Y148228D01*
X-32677Y137205D02*
Y148228D01*
Y137205D02*
X-26378D01*
X-32480Y125492D02*
Y128445D01*
X-26575D01*
X-32480Y125492D02*
X-26575D01*
Y128445D01*
X22638Y141240D02*
Y144193D01*
X16732Y141240D02*
X22638D01*
X16732Y144193D02*
X22638D01*
X16732Y141240D02*
Y144193D01*
X32480Y141240D02*
Y144193D01*
X26575Y141240D02*
X32480D01*
X26575Y144193D02*
X32480D01*
X26575Y141240D02*
Y144193D01*
X6890Y145177D02*
Y148130D01*
X12795D01*
X6890Y145177D02*
X12795D01*
Y148130D01*
X26575Y145177D02*
Y148130D01*
X32480D01*
X26575Y145177D02*
X32480D01*
Y148130D01*
X16732Y145177D02*
Y148130D01*
X22638D01*
X16732Y145177D02*
X22638D01*
Y148130D01*
X-16732Y125492D02*
Y128445D01*
X-22638Y125492D02*
X-16732D01*
X-22638Y128445D02*
X-16732D01*
X-22638Y125492D02*
Y128445D01*
X-20079Y90059D02*
Y93012D01*
X-25984Y90059D02*
X-20079D01*
X-25984Y93012D02*
X-20079D01*
X-25984Y90059D02*
Y93012D01*
Y105807D02*
Y108760D01*
X-20079D01*
X-25984Y105807D02*
X-20079D01*
Y108760D01*
X21260Y74311D02*
Y77264D01*
X27165D01*
X21260Y74311D02*
X27165D01*
Y77264D01*
X21260Y82185D02*
Y85138D01*
X27165D01*
X21260Y82185D02*
X27165D01*
Y85138D01*
X21260Y78248D02*
Y81201D01*
X27165D01*
X21260Y78248D02*
X27165D01*
Y81201D01*
X4724Y73819D02*
Y81693D01*
X-4724Y73819D02*
Y81693D01*
Y73819D02*
X4724D01*
X-4724Y81693D02*
X4724D01*
X27165Y90059D02*
Y93012D01*
X21260Y90059D02*
X27165D01*
X21260Y93012D02*
X27165D01*
X21260Y90059D02*
Y93012D01*
Y86122D02*
Y89075D01*
X27165D01*
X21260Y86122D02*
X27165D01*
Y89075D01*
X-25984Y82185D02*
Y85138D01*
X-20079D01*
X-25984Y82185D02*
X-20079D01*
Y85138D01*
Y86122D02*
Y89075D01*
X-25984Y86122D02*
X-20079D01*
X-25984Y89075D02*
X-20079D01*
X-25984Y86122D02*
Y89075D01*
X-20079Y97933D02*
Y100886D01*
X-25984Y97933D02*
X-20079D01*
X-25984Y100886D02*
X-20079D01*
X-25984Y97933D02*
Y100886D01*
X-20079Y93996D02*
Y96949D01*
X-25984Y93996D02*
X-20079D01*
X-25984Y96949D02*
X-20079D01*
X-25984Y93996D02*
Y96949D01*
X27165Y109744D02*
Y112697D01*
X21260Y109744D02*
X27165D01*
X21260Y112697D02*
X27165D01*
X21260Y109744D02*
Y112697D01*
X21260Y97933D02*
Y100886D01*
X27165D01*
X21260Y97933D02*
X27165D01*
Y100886D01*
X21260Y93996D02*
Y96949D01*
X27165D01*
X21260Y93996D02*
X27165D01*
Y96949D01*
Y101870D02*
Y104823D01*
X21260Y101870D02*
X27165D01*
X21260Y104823D02*
X27165D01*
X21260Y101870D02*
Y104823D01*
Y105807D02*
Y108760D01*
X27165D01*
X21260Y105807D02*
X27165D01*
Y108760D01*
X-12795Y125492D02*
Y128445D01*
X-6890D01*
X-12795Y125492D02*
X-6890D01*
Y128445D01*
X32480Y133366D02*
Y136319D01*
X26575Y133366D02*
X32480D01*
X26575Y136319D02*
X32480D01*
X26575Y133366D02*
Y136319D01*
X22638Y133366D02*
Y136319D01*
X16732Y133366D02*
X22638D01*
X16732Y136319D02*
X22638D01*
X16732Y133366D02*
Y136319D01*
X12795Y133366D02*
Y136319D01*
X6890Y133366D02*
X12795D01*
X6890Y136319D02*
X12795D01*
X6890Y133366D02*
Y136319D01*
X12795Y141240D02*
Y144193D01*
X6890Y141240D02*
X12795D01*
X6890Y144193D02*
X12795D01*
X6890Y141240D02*
Y144193D01*
X35039Y141535D02*
Y147835D01*
X24016Y141535D02*
Y147835D01*
X35039D01*
X24016Y141535D02*
X35039D01*
X28543Y144685D02*
X30512D01*
X29528Y143701D02*
Y145669D01*
X-7571Y89567D02*
X-5602D01*
X-6587Y88583D02*
Y90551D01*
X-8063Y86614D02*
Y92520D01*
X-5110Y86614D02*
Y92520D01*
X-8063D02*
X-5110D01*
X-8063Y86614D02*
X-5110D01*
X-28063D02*
X-25110D01*
X-28063Y92520D02*
X-25110D01*
Y86614D02*
Y92520D01*
X-28063Y86614D02*
Y92520D01*
X-26587Y88583D02*
Y90551D01*
X-27571Y89567D02*
X-25602D01*
X-17571D02*
X-15602D01*
X-16587Y88583D02*
Y90551D01*
X-18063Y86614D02*
Y92520D01*
X-15110Y86614D02*
Y92520D01*
X-18063D02*
X-15110D01*
X-18063Y86614D02*
X-15110D01*
X2429Y89567D02*
X4398D01*
X3413Y88583D02*
Y90551D01*
X1937Y86614D02*
Y92520D01*
X4890Y86614D02*
Y92520D01*
X1937D02*
X4890D01*
X1937Y86614D02*
X4890D01*
X-35740Y125000D02*
X7567D01*
X-35740Y93504D02*
Y125000D01*
X7567Y93504D02*
Y125000D01*
X-35740Y93504D02*
X7567D01*
X-15071Y109252D02*
X-13102D01*
X-14087Y108268D02*
Y110236D01*
X26181Y47244D02*
Y49213D01*
X25197Y48228D02*
X27165D01*
X16339Y63976D02*
X36024D01*
X16339Y32480D02*
Y63976D01*
X36024Y32480D02*
Y63976D01*
X16339Y32480D02*
X36024D01*
X19602Y96457D02*
X21571D01*
X20587Y95472D02*
Y97441D01*
X23539Y94980D02*
Y97933D01*
X17634Y94980D02*
Y97933D01*
X23539D01*
X17634Y94980D02*
X23539D01*
X31413D02*
Y97933D01*
X25508Y94980D02*
Y97933D01*
X31413D01*
X25508Y94980D02*
X31413D01*
X27476Y96457D02*
X29445D01*
X28461Y95472D02*
Y97441D01*
X6102Y66260D02*
X13780D01*
X-36220Y30197D02*
X-28543D01*
X13780D02*
Y66260D01*
X-36220Y30197D02*
Y66220D01*
X6102Y30197D02*
X13780D01*
X-36220Y66220D02*
X-28543D01*
Y74213D01*
X6102Y22244D02*
Y30197D01*
X-28543Y22244D02*
X6102D01*
X-28543Y74213D02*
X6102D01*
Y66260D02*
Y74213D01*
X-28543Y22244D02*
Y30197D01*
X-12205Y48228D02*
X-10236D01*
X-11220Y47244D02*
Y49213D01*
X-43307Y154528D02*
X43307D01*
X-43307D02*
Y203740D01*
X43307D01*
Y154528D02*
Y203740D01*
X0Y165354D02*
Y167323D01*
X-984Y166339D02*
X984D01*
X26575Y137303D02*
X32480D01*
X26575Y140256D02*
X32480D01*
X26575Y137303D02*
Y140256D01*
X32480Y137303D02*
Y140256D01*
X29528Y137795D02*
Y139764D01*
X28543Y138779D02*
X30512D01*
X0Y143701D02*
Y145669D01*
X-984Y144685D02*
X984D01*
X-5512Y141535D02*
X5512D01*
X-5512Y147835D02*
X5512D01*
X-5512Y141535D02*
Y147835D01*
X5512Y141535D02*
Y147835D01*
X-2953Y137303D02*
X2953D01*
X-2953Y140256D02*
X2953D01*
X-2953Y137303D02*
Y140256D01*
X2953Y137303D02*
Y140256D01*
X0Y137795D02*
Y139764D01*
X-984Y138779D02*
X984D01*
X-29528Y143701D02*
Y145669D01*
X-30512Y144685D02*
X-28543D01*
X-35039Y141535D02*
X-24016D01*
X-35039Y147835D02*
X-24016D01*
X-35039Y141535D02*
Y147835D01*
X-24016Y141535D02*
Y147835D01*
X-32480Y137303D02*
X-26575D01*
X-32480Y140256D02*
X-26575D01*
X-32480Y137303D02*
Y140256D01*
X-26575Y137303D02*
Y140256D01*
X-29528Y137795D02*
Y139764D01*
X-30512Y138779D02*
X-28543D01*
X17634Y114862D02*
X23539D01*
X17634Y117815D02*
X23539D01*
X17634Y114862D02*
Y117815D01*
X23539Y114862D02*
Y117815D01*
X20587Y115354D02*
Y117323D01*
X19602Y116339D02*
X21571D01*
X31413Y114862D02*
Y117815D01*
X25508Y114862D02*
Y117815D01*
X31413D01*
X25508Y114862D02*
X31413D01*
X27476Y116339D02*
X29445D01*
X28461Y115354D02*
Y117323D01*
X-20669Y142717D02*
X-18701D01*
X-19685Y141732D02*
Y143701D01*
X-16535Y137205D02*
Y148228D01*
X-22835Y137205D02*
Y148228D01*
X-16535D01*
X-22835Y137205D02*
X-16535D01*
X-10827Y142717D02*
X-8858D01*
X-9843Y141732D02*
Y143701D01*
X-6693Y137205D02*
Y148228D01*
X-12992Y137205D02*
Y148228D01*
X-6693D01*
X-12992Y137205D02*
X-6693D01*
X-30512Y142717D02*
X-28543D01*
X-29528Y141732D02*
Y143701D01*
X-26378Y137205D02*
Y148228D01*
X-32677Y137205D02*
Y148228D01*
X-26378D01*
X-32677Y137205D02*
X-26378D01*
X-32480Y125492D02*
Y128445D01*
X-26575Y125492D02*
Y128445D01*
X-32480D02*
X-26575D01*
X-32480Y125492D02*
X-26575D01*
X-30512Y126969D02*
X-28543D01*
X-29528Y125984D02*
Y127953D01*
X22638Y141240D02*
Y144193D01*
X16732Y141240D02*
Y144193D01*
Y141240D02*
X22638D01*
X16732Y144193D02*
X22638D01*
X18701Y142717D02*
X20669D01*
X19685Y141732D02*
Y143701D01*
X32480Y141240D02*
Y144193D01*
X26575Y141240D02*
Y144193D01*
Y141240D02*
X32480D01*
X26575Y144193D02*
X32480D01*
X28543Y142717D02*
X30512D01*
X29528Y141732D02*
Y143701D01*
X6890Y145177D02*
Y148130D01*
X12795Y145177D02*
Y148130D01*
X6890D02*
X12795D01*
X6890Y145177D02*
X12795D01*
X8858Y146653D02*
X10827D01*
X9843Y145669D02*
Y147638D01*
X26575Y145177D02*
Y148130D01*
X32480Y145177D02*
Y148130D01*
X26575D02*
X32480D01*
X26575Y145177D02*
X32480D01*
X28543Y146653D02*
X30512D01*
X29528Y145669D02*
Y147638D01*
X16732Y145177D02*
Y148130D01*
X22638Y145177D02*
Y148130D01*
X16732D02*
X22638D01*
X16732Y145177D02*
X22638D01*
X18701Y146653D02*
X20669D01*
X19685Y145669D02*
Y147638D01*
X-19685Y125984D02*
Y127953D01*
X-20669Y126969D02*
X-18701D01*
X-22638Y125492D02*
X-16732D01*
X-22638Y128445D02*
X-16732D01*
Y125492D02*
Y128445D01*
X-22638Y125492D02*
Y128445D01*
X-23031Y90551D02*
Y92520D01*
X-24016Y91535D02*
X-22047D01*
X-25984Y90059D02*
X-20079D01*
X-25984Y93012D02*
X-20079D01*
Y90059D02*
Y93012D01*
X-25984Y90059D02*
Y93012D01*
Y105807D02*
Y108760D01*
X-20079Y105807D02*
Y108760D01*
X-25984D02*
X-20079D01*
X-25984Y105807D02*
X-20079D01*
X-24016Y107283D02*
X-22047D01*
X-23031Y106299D02*
Y108268D01*
X24213Y74803D02*
Y76772D01*
X23228Y75787D02*
X25197D01*
X21260Y77264D02*
X27165D01*
X21260Y74311D02*
X27165D01*
X21260D02*
Y77264D01*
X27165Y74311D02*
Y77264D01*
X24213Y82677D02*
Y84646D01*
X23228Y83661D02*
X25197D01*
X21260Y85138D02*
X27165D01*
X21260Y82185D02*
X27165D01*
X21260D02*
Y85138D01*
X27165Y82185D02*
Y85138D01*
X24213Y78740D02*
Y80709D01*
X23228Y79724D02*
X25197D01*
X21260Y81201D02*
X27165D01*
X21260Y78248D02*
X27165D01*
X21260D02*
Y81201D01*
X27165Y78248D02*
Y81201D01*
X-4724Y73819D02*
Y81693D01*
X4724Y73819D02*
Y81693D01*
X-4724D02*
X4724D01*
X-4724Y73819D02*
X4724D01*
X0Y76772D02*
Y78740D01*
X-984Y77756D02*
X984D01*
X24213Y90551D02*
Y92520D01*
X23228Y91535D02*
X25197D01*
X21260Y90059D02*
X27165D01*
X21260Y93012D02*
X27165D01*
Y90059D02*
Y93012D01*
X21260Y90059D02*
Y93012D01*
X24213Y86614D02*
Y88583D01*
X23228Y87598D02*
X25197D01*
X21260Y89075D02*
X27165D01*
X21260Y86122D02*
X27165D01*
X21260D02*
Y89075D01*
X27165Y86122D02*
Y89075D01*
X-23031Y82677D02*
Y84646D01*
X-24016Y83661D02*
X-22047D01*
X-25984Y85138D02*
X-20079D01*
X-25984Y82185D02*
X-20079D01*
X-25984D02*
Y85138D01*
X-20079Y82185D02*
Y85138D01*
X-23031Y86614D02*
Y88583D01*
X-24016Y87598D02*
X-22047D01*
X-25984Y86122D02*
X-20079D01*
X-25984Y89075D02*
X-20079D01*
Y86122D02*
Y89075D01*
X-25984Y86122D02*
Y89075D01*
X-23031Y98425D02*
Y100394D01*
X-24016Y99409D02*
X-22047D01*
X-25984Y97933D02*
X-20079D01*
X-25984Y100886D02*
X-20079D01*
Y97933D02*
Y100886D01*
X-25984Y97933D02*
Y100886D01*
X-23031Y94488D02*
Y96457D01*
X-24016Y95472D02*
X-22047D01*
X-25984Y93996D02*
X-20079D01*
X-25984Y96949D02*
X-20079D01*
Y93996D02*
Y96949D01*
X-25984Y93996D02*
Y96949D01*
X24213Y110236D02*
Y112205D01*
X23228Y111221D02*
X25197D01*
X21260Y109744D02*
X27165D01*
X21260Y112697D02*
X27165D01*
Y109744D02*
Y112697D01*
X21260Y109744D02*
Y112697D01*
X24213Y98425D02*
Y100394D01*
X23228Y99410D02*
X25197D01*
X21260Y100886D02*
X27165D01*
X21260Y97933D02*
X27165D01*
X21260D02*
Y100886D01*
X27165Y97933D02*
Y100886D01*
X24213Y94488D02*
Y96457D01*
X23228Y95472D02*
X25197D01*
X21260Y96949D02*
X27165D01*
X21260Y93996D02*
X27165D01*
X21260D02*
Y96949D01*
X27165Y93996D02*
Y96949D01*
X24213Y102362D02*
Y104331D01*
X23228Y103347D02*
X25197D01*
X21260Y101870D02*
X27165D01*
X21260Y104823D02*
X27165D01*
Y101870D02*
Y104823D01*
X21260Y101870D02*
Y104823D01*
X24213Y106299D02*
Y108268D01*
X23228Y107283D02*
X25197D01*
X21260Y108760D02*
X27165D01*
X21260Y105807D02*
X27165D01*
X21260D02*
Y108760D01*
X27165Y105807D02*
Y108760D01*
X-12795Y125492D02*
Y128445D01*
X-6890Y125492D02*
Y128445D01*
X-12795D02*
X-6890D01*
X-12795Y125492D02*
X-6890D01*
X-10827Y126969D02*
X-8858D01*
X-9843Y125984D02*
Y127953D01*
X32480Y133366D02*
Y136319D01*
X26575Y133366D02*
Y136319D01*
Y133366D02*
X32480D01*
X26575Y136319D02*
X32480D01*
X28543Y134843D02*
X30512D01*
X29528Y133858D02*
Y135827D01*
X22638Y133366D02*
Y136319D01*
X16732Y133366D02*
Y136319D01*
Y133366D02*
X22638D01*
X16732Y136319D02*
X22638D01*
X18701Y134843D02*
X20669D01*
X19685Y133858D02*
Y135827D01*
X12795Y133366D02*
Y136319D01*
X6890Y133366D02*
Y136319D01*
Y133366D02*
X12795D01*
X6890Y136319D02*
X12795D01*
X8858Y134843D02*
X10827D01*
X9843Y133858D02*
Y135827D01*
X12795Y141240D02*
Y144193D01*
X6890Y141240D02*
Y144193D01*
Y141240D02*
X12795D01*
X6890Y144193D02*
X12795D01*
X8858Y142717D02*
X10827D01*
X9843Y141732D02*
Y143701D01*
D16*
X-23063Y86614D02*
X-20110D01*
X-23063Y92520D02*
X-20110D01*
X-23063Y86614D02*
Y92520D01*
X-20110Y86614D02*
Y92520D01*
X-13063Y86614D02*
X-10110D01*
X-13063Y92520D02*
X-10110D01*
X-13063Y86614D02*
Y92520D01*
X-10110Y86614D02*
Y92520D01*
X-30110Y86614D02*
Y92520D01*
X-33063Y86614D02*
Y92520D01*
X-30110D01*
X-33063Y86614D02*
X-30110D01*
X-3063D02*
X-110D01*
X-3063Y92520D02*
X-110D01*
X-3063Y86614D02*
Y92520D01*
X-110Y86614D02*
Y92520D01*
X23327Y62697D02*
Y65650D01*
X17421Y62697D02*
Y65650D01*
Y62697D02*
X23327D01*
X17421Y65650D02*
X23327D01*
Y30807D02*
Y33760D01*
X17421Y30807D02*
Y33760D01*
Y30807D02*
X23327D01*
X17421Y33760D02*
X23327D01*
X6890Y53642D02*
X12795D01*
X6890Y50689D02*
X12795D01*
X6890D02*
Y53642D01*
X12795Y50689D02*
Y53642D01*
X6890Y57579D02*
X12795D01*
X6890Y54626D02*
X12795D01*
X6890D02*
Y57579D01*
X12795Y54626D02*
Y57579D01*
X-35039Y53642D02*
X-29134D01*
X-35039Y50689D02*
X-29134D01*
X-35039D02*
Y53642D01*
X-29134Y50689D02*
Y53642D01*
X-35039Y57579D02*
X-29134D01*
X-35039Y54626D02*
X-29134D01*
X-35039D02*
Y57579D01*
X-29134Y54626D02*
Y57579D01*
X7972Y74803D02*
Y80709D01*
X5020Y74803D02*
Y80709D01*
Y74803D02*
X7972D01*
X5020Y80709D02*
X7972D01*
X-7972Y74803D02*
Y80709D01*
X-5020Y74803D02*
Y80709D01*
X-7972D02*
X-5020D01*
X-7972Y74803D02*
X-5020D01*
X-20079Y78248D02*
Y81201D01*
X-25984Y78248D02*
Y81201D01*
X-20079D01*
X-25984Y78248D02*
X-20079D01*
Y74311D02*
Y77264D01*
X-25984Y74311D02*
Y77264D01*
X-20079D01*
X-25984Y74311D02*
X-20079D01*
X-25984Y104823D02*
X-20079D01*
X-25984Y101870D02*
X-20079D01*
Y104823D01*
X-25984Y101870D02*
Y104823D01*
X6890Y128445D02*
X12795D01*
X6890Y125492D02*
X12795D01*
Y128445D01*
X6890Y125492D02*
Y128445D01*
X16732D02*
X22638D01*
X16732Y125492D02*
X22638D01*
Y128445D01*
X16732Y125492D02*
Y128445D01*
X26575D02*
X32480D01*
X26575Y125492D02*
X32480D01*
Y128445D01*
X26575Y125492D02*
Y128445D01*
X6890Y132382D02*
X12795D01*
X6890Y129429D02*
X12795D01*
Y132382D01*
X6890Y129429D02*
Y132382D01*
X16732D02*
X22638D01*
X16732Y129429D02*
X22638D01*
Y132382D01*
X16732Y129429D02*
Y132382D01*
X26575D02*
X32480D01*
X26575Y129429D02*
X32480D01*
Y132382D01*
X26575Y129429D02*
Y132382D01*
X6890Y137303D02*
X12795D01*
X6890Y140256D02*
X12795D01*
X6890Y137303D02*
Y140256D01*
X12795Y137303D02*
Y140256D01*
X16732Y137303D02*
X22638D01*
X16732Y140256D02*
X22638D01*
X16732Y137303D02*
Y140256D01*
X22638Y137303D02*
Y140256D01*
X26575Y137303D02*
X32480D01*
X26575Y140256D02*
X32480D01*
X26575Y137303D02*
Y140256D01*
X32480Y137303D02*
Y140256D01*
X-32480Y136319D02*
X-26575D01*
X-32480Y133366D02*
X-26575D01*
Y136319D01*
X-32480Y133366D02*
Y136319D01*
X-22638D02*
X-16732D01*
X-22638Y133366D02*
X-16732D01*
Y136319D01*
X-22638Y133366D02*
Y136319D01*
X-12795D02*
X-6890D01*
X-12795Y133366D02*
X-6890D01*
Y136319D01*
X-12795Y133366D02*
Y136319D01*
X-32480Y132382D02*
X-26575D01*
X-32480Y129429D02*
X-26575D01*
Y132382D01*
X-32480Y129429D02*
Y132382D01*
X-22638D02*
X-16732D01*
X-22638Y129429D02*
X-16732D01*
Y132382D01*
X-22638Y129429D02*
Y132382D01*
X-12795D02*
X-6890D01*
X-12795Y129429D02*
X-6890D01*
Y132382D01*
X-12795Y129429D02*
Y132382D01*
X-23063Y86614D02*
X-20110D01*
X-23063D02*
Y92520D01*
X-20110Y86614D02*
Y92520D01*
X-21587Y88583D02*
Y90551D01*
X-22571Y89567D02*
X-20602D01*
X-23063Y92520D02*
X-20110D01*
X-13063Y86614D02*
X-10110D01*
X-13063D02*
Y92520D01*
X-10110Y86614D02*
Y92520D01*
X-11587Y88583D02*
Y90551D01*
X-12571Y89567D02*
X-10602D01*
X-13063Y92520D02*
X-10110D01*
X-33063D02*
X-30110D01*
X-32571Y89567D02*
X-30602D01*
X-31587Y88583D02*
Y90551D01*
X-30110Y86614D02*
Y92520D01*
X-33063Y86614D02*
Y92520D01*
Y86614D02*
X-30110D01*
X-3063D02*
X-110D01*
X-3063D02*
Y92520D01*
X-110Y86614D02*
Y92520D01*
X-1587Y88583D02*
Y90551D01*
X-2571Y89567D02*
X-602D01*
X-3063Y92520D02*
X-110D01*
X23327Y62697D02*
Y65650D01*
X17421Y62697D02*
X23327D01*
X17421Y65650D02*
X23327D01*
X19390Y64173D02*
X21358D01*
X20374Y63189D02*
Y65158D01*
X17421Y62697D02*
Y65650D01*
X23327Y30807D02*
Y33760D01*
X17421Y30807D02*
X23327D01*
X17421Y33760D02*
X23327D01*
X19390Y32283D02*
X21358D01*
X20374Y31299D02*
Y33268D01*
X17421Y30807D02*
Y33760D01*
X6890Y50689D02*
Y53642D01*
X9843Y51181D02*
Y53150D01*
X8858Y52165D02*
X10827D01*
X6890Y53642D02*
X12795D01*
X6890Y50689D02*
X12795D01*
Y53642D01*
X6890Y54626D02*
Y57579D01*
X9843Y55118D02*
Y57087D01*
X8858Y56102D02*
X10827D01*
X6890Y57579D02*
X12795D01*
X6890Y54626D02*
X12795D01*
Y57579D01*
X-35039Y50689D02*
Y53642D01*
X-32087Y51181D02*
Y53150D01*
X-33071Y52165D02*
X-31102D01*
X-35039Y53642D02*
X-29134D01*
X-35039Y50689D02*
X-29134D01*
Y53642D01*
X-35039Y54626D02*
Y57579D01*
X-32087Y55118D02*
Y57087D01*
X-33071Y56102D02*
X-31102D01*
X-35039Y57579D02*
X-29134D01*
X-35039Y54626D02*
X-29134D01*
Y57579D01*
X5020Y74803D02*
X7972D01*
X5512Y77756D02*
X7480D01*
X6496Y76772D02*
Y78740D01*
X7972Y74803D02*
Y80709D01*
X5020Y74803D02*
Y80709D01*
X7972D01*
X-7972D02*
X-5020D01*
X-7480Y77756D02*
X-5512D01*
X-6496Y76772D02*
Y78740D01*
X-7972Y74803D02*
Y80709D01*
X-5020Y74803D02*
Y80709D01*
X-7972Y74803D02*
X-5020D01*
X-20079Y78248D02*
Y81201D01*
X-25984D02*
X-20079D01*
X-25984Y78248D02*
X-20079D01*
X-24016Y79724D02*
X-22047D01*
X-23031Y78740D02*
Y80709D01*
X-25984Y78248D02*
Y81201D01*
X-20079Y74311D02*
Y77264D01*
X-25984D02*
X-20079D01*
X-25984Y74311D02*
X-20079D01*
X-24016Y75787D02*
X-22047D01*
X-23031Y74803D02*
Y76772D01*
X-25984Y74311D02*
Y77264D01*
X-20079Y101870D02*
Y104823D01*
X-23031Y102362D02*
Y104331D01*
X-24016Y103347D02*
X-22047D01*
X-25984Y104823D02*
X-20079D01*
X-25984Y101870D02*
X-20079D01*
X-25984D02*
Y104823D01*
X12795Y125492D02*
Y128445D01*
X9843Y125984D02*
Y127953D01*
X8858Y126969D02*
X10827D01*
X6890Y128445D02*
X12795D01*
X6890Y125492D02*
X12795D01*
X6890D02*
Y128445D01*
X22638Y125492D02*
Y128445D01*
X19685Y125984D02*
Y127953D01*
X18701Y126969D02*
X20669D01*
X16732Y128445D02*
X22638D01*
X16732Y125492D02*
X22638D01*
X16732D02*
Y128445D01*
X32480Y125492D02*
Y128445D01*
X29528Y125984D02*
Y127953D01*
X28543Y126969D02*
X30512D01*
X26575Y128445D02*
X32480D01*
X26575Y125492D02*
X32480D01*
X26575D02*
Y128445D01*
X12795Y129429D02*
Y132382D01*
X9843Y129921D02*
Y131890D01*
X8858Y130905D02*
X10827D01*
X6890Y132382D02*
X12795D01*
X6890Y129429D02*
X12795D01*
X6890D02*
Y132382D01*
X22638Y129429D02*
Y132382D01*
X19685Y129921D02*
Y131890D01*
X18701Y130905D02*
X20669D01*
X16732Y132382D02*
X22638D01*
X16732Y129429D02*
X22638D01*
X16732D02*
Y132382D01*
X32480Y129429D02*
Y132382D01*
X29528Y129921D02*
Y131890D01*
X28543Y130905D02*
X30512D01*
X26575Y132382D02*
X32480D01*
X26575Y129429D02*
X32480D01*
X26575D02*
Y132382D01*
X6890Y137303D02*
Y140256D01*
X9843Y137795D02*
Y139764D01*
X8858Y138779D02*
X10827D01*
X6890Y137303D02*
X12795D01*
X6890Y140256D02*
X12795D01*
Y137303D02*
Y140256D01*
X16732Y137303D02*
Y140256D01*
X19685Y137795D02*
Y139764D01*
X18701Y138779D02*
X20669D01*
X16732Y137303D02*
X22638D01*
X16732Y140256D02*
X22638D01*
Y137303D02*
Y140256D01*
X26575Y137303D02*
Y140256D01*
X29528Y137795D02*
Y139764D01*
X28543Y138779D02*
X30512D01*
X26575Y137303D02*
X32480D01*
X26575Y140256D02*
X32480D01*
Y137303D02*
Y140256D01*
X-26575Y133366D02*
Y136319D01*
X-29528Y133858D02*
Y135827D01*
X-30512Y134843D02*
X-28543D01*
X-32480Y136319D02*
X-26575D01*
X-32480Y133366D02*
X-26575D01*
X-32480D02*
Y136319D01*
X-16732Y133366D02*
Y136319D01*
X-19685Y133858D02*
Y135827D01*
X-20669Y134843D02*
X-18701D01*
X-22638Y136319D02*
X-16732D01*
X-22638Y133366D02*
X-16732D01*
X-22638D02*
Y136319D01*
X-6890Y133366D02*
Y136319D01*
X-9843Y133858D02*
Y135827D01*
X-10827Y134843D02*
X-8858D01*
X-12795Y136319D02*
X-6890D01*
X-12795Y133366D02*
X-6890D01*
X-12795D02*
Y136319D01*
X-26575Y129429D02*
Y132382D01*
X-29528Y129921D02*
Y131890D01*
X-30512Y130905D02*
X-28543D01*
X-32480Y132382D02*
X-26575D01*
X-32480Y129429D02*
X-26575D01*
X-32480D02*
Y132382D01*
X-16732Y129429D02*
Y132382D01*
X-19685Y129921D02*
Y131890D01*
X-20669Y130905D02*
X-18701D01*
X-22638Y132382D02*
X-16732D01*
X-22638Y129429D02*
X-16732D01*
X-22638D02*
Y132382D01*
X-6890Y129429D02*
Y132382D01*
X-9843Y129921D02*
Y131890D01*
X-10827Y130905D02*
X-8858D01*
X-12795Y132382D02*
X-6890D01*
X-12795Y129429D02*
X-6890D01*
X-12795D02*
Y132382D01*
D57*
X-52756Y189173D02*
X-42520D01*
X-47638Y184055D02*
Y194291D01*
X27559Y166339D02*
X31496D01*
X29528Y164370D02*
Y168307D01*
X17717Y166339D02*
X21654D01*
X19685Y164370D02*
Y168307D01*
X7874Y166339D02*
X11811D01*
X9843Y164370D02*
Y168307D01*
X-1969Y166339D02*
X1969D01*
X0Y164370D02*
Y168307D01*
X-11811Y166339D02*
X-7874D01*
X-9843Y164370D02*
Y168307D01*
X-21654Y166339D02*
X-17717D01*
X-19685Y164370D02*
Y168307D01*
X-31496Y166339D02*
X-27559D01*
X-29528Y164370D02*
Y168307D01*
X42520Y189173D02*
X52756D01*
X47638Y184055D02*
Y194291D01*
X48106Y104500D02*
X48894D01*
X48500Y104106D02*
Y104894D01*
X-48894Y104500D02*
X-48106D01*
X-48500Y104106D02*
Y104894D01*
X47606Y132500D02*
X48394D01*
X48000Y132106D02*
Y132894D01*
X-48894Y132500D02*
X-48106D01*
X-48500Y132106D02*
Y132894D01*
X50787Y51181D02*
X51575D01*
X51181Y50787D02*
Y51575D01*
X50787Y35433D02*
X51575D01*
X51181Y35039D02*
Y35827D01*
X50787Y19685D02*
X51575D01*
X51181Y19291D02*
Y20079D01*
X-51575Y51181D02*
X-50787D01*
X-51181Y50787D02*
Y51575D01*
X-51575Y35433D02*
X-50787D01*
X-51181Y35039D02*
Y35827D01*
X-51575Y19685D02*
X-50787D01*
X-51181Y19291D02*
Y20079D01*
X-34394Y112500D02*
X-33606D01*
X-34000Y112106D02*
Y112894D01*
X-26980Y112000D02*
X-26193D01*
X-26587Y111606D02*
Y112394D01*
X25512Y71905D02*
X26299D01*
X25905Y71512D02*
Y72299D01*
X25512Y113204D02*
X26299D01*
X25905Y112810D02*
Y113597D01*
X1969Y12910D02*
X2756D01*
X2362Y12516D02*
Y13303D01*
X-34173Y58976D02*
X-33386D01*
X-33779Y58583D02*
Y59370D01*
X23106Y67500D02*
X23894D01*
X23500Y67106D02*
Y67894D01*
X33606Y53500D02*
X34394D01*
X34000Y53106D02*
Y53894D01*
X33606Y67500D02*
X34394D01*
X34000Y67106D02*
Y67894D01*
X106Y53500D02*
X894D01*
X500Y53106D02*
Y53894D01*
X106Y67500D02*
X894D01*
X500Y67106D02*
Y67894D01*
X-13894Y53500D02*
X-13106D01*
X-13500Y53106D02*
Y53894D01*
X-13894Y67500D02*
X-13106D01*
X-13500Y67106D02*
Y67894D01*
X-23894Y53500D02*
X-23106D01*
X-23500Y53106D02*
Y53894D01*
X-21732Y67500D02*
X-20945D01*
X-21339Y67106D02*
Y67894D01*
X23287Y53969D02*
X24075D01*
X23681Y53575D02*
Y54362D01*
X28287Y53937D02*
X29075D01*
X28681Y53543D02*
Y54331D01*
X28287Y42520D02*
X29075D01*
X28681Y42126D02*
Y42913D01*
X23287Y42520D02*
X24075D01*
X23681Y42126D02*
Y42913D01*
X7756Y48386D02*
X8543D01*
X8150Y47992D02*
Y48779D01*
X14567Y12910D02*
X15354D01*
X14961Y12516D02*
Y13303D01*
X11417Y12910D02*
X12205D01*
X11811Y12516D02*
Y13303D01*
X8268Y12910D02*
X9055D01*
X8661Y12516D02*
Y13303D01*
X5118Y12910D02*
X5906D01*
X5512Y12516D02*
Y13303D01*
X-1181Y12910D02*
X-394D01*
X-787Y12516D02*
Y13303D01*
X-4331Y12910D02*
X-3543D01*
X-3937Y12516D02*
Y13303D01*
X-37402Y12910D02*
X-36614D01*
X-37008Y12516D02*
Y13303D01*
X33858Y112000D02*
X34646D01*
X34252Y111606D02*
Y112394D01*
M02*
