G04*
G04 #@! TF.GenerationSoftware,Altium Limited,Altium Designer,22.1.2 (22)*
G04*
G04 Layer_Color=2752767*
%FSLAX25Y25*%
%MOIN*%
G70*
G04*
G04 #@! TF.SameCoordinates,D9C7AC14-A0B2-4E4F-895A-178DC6869FF5*
G04*
G04*
G04 #@! TF.FilePolarity,Positive*
G04*
G01*
G75*
%ADD57C,0.00200*%
D57*
X-4500Y136700D02*
X-5300Y138300D01*
X-3700D01*
X-4500Y136700D01*
X-14000D02*
X-14800Y138300D01*
X-13200D01*
X-14000Y136700D01*
X-30710Y121249D02*
X-31510Y122849D01*
X-29910D01*
X-30710Y121249D01*
X-28661Y94672D02*
X-29461Y96272D01*
X-27861D01*
X-28661Y94672D01*
X-28532Y100578D02*
X-29331Y102178D01*
X-27731D01*
X-28532Y100578D01*
X-24724Y80893D02*
X-25524Y82493D01*
X-23924D01*
X-24724Y80893D01*
X25905Y92704D02*
X25106Y94304D01*
X26706D01*
X25905Y92704D01*
X-13000Y75263D02*
X-13800Y76863D01*
X-12200D01*
X-13000Y75263D01*
X34252D02*
X33452Y76863D01*
X35052D01*
X34252Y75263D01*
Y88200D02*
X33452Y89800D01*
X35052D01*
X34252Y88200D01*
Y97200D02*
X33452Y98800D01*
X35052D01*
X34252Y97200D01*
X-18500Y75263D02*
X-19300Y76863D01*
X-17700D01*
X-18500Y75263D01*
X-28661Y76956D02*
X-29461Y78556D01*
X-27861D01*
X-28661Y76956D01*
Y84830D02*
X-29461Y86430D01*
X-27861D01*
X-28661Y84830D01*
X-18500D02*
X-19300Y86430D01*
X-17700D01*
X-18500Y84830D01*
Y96700D02*
X-19300Y98300D01*
X-17700D01*
X-18500Y96700D01*
X20000Y88700D02*
X19200Y90300D01*
X20800D01*
X20000Y88700D01*
X18500Y92700D02*
X17700Y94300D01*
X19300D01*
X18500Y92700D01*
X16500Y97200D02*
X15700Y98800D01*
X17300D01*
X16500Y97200D01*
X17000Y81700D02*
X16200Y83300D01*
X17800D01*
X17000Y81700D01*
X10500Y88200D02*
X9700Y89800D01*
X11300D01*
X10500Y88200D01*
X9500Y78649D02*
X8700Y80249D01*
X10300D01*
X9500Y78649D01*
X-4000Y85700D02*
X-4800Y87300D01*
X-3200D01*
X-4000Y85700D01*
X-13000Y89200D02*
X-13800Y90800D01*
X-12200D01*
X-13000Y89200D01*
X-16500Y102547D02*
X-17300Y104147D01*
X-15700D01*
X-16500Y102547D01*
X27835Y115200D02*
X27035Y116800D01*
X28635D01*
X27835Y115200D01*
X17500Y115700D02*
X16700Y117300D01*
X18300D01*
X17500Y115700D01*
X34252Y122700D02*
X33452Y124300D01*
X35052D01*
X34252Y122700D01*
Y141917D02*
X33452Y143517D01*
X35052D01*
X34252Y141917D01*
Y130105D02*
X33452Y131705D01*
X35052D01*
X34252Y130105D01*
X4921Y145476D02*
X4121Y147076D01*
X5721D01*
X4921Y145476D01*
Y136995D02*
X4121Y138595D01*
X5721D01*
X4921Y136995D01*
Y130105D02*
X4121Y131705D01*
X5721D01*
X4921Y130105D01*
X24606D02*
X23806Y131705D01*
X25406D01*
X24606Y130105D01*
Y141917D02*
X23806Y143517D01*
X25406D01*
X24606Y141917D01*
X14764D02*
X13964Y143517D01*
X15564D01*
X14764Y141917D01*
Y130105D02*
X13964Y131705D01*
X15564D01*
X14764Y130105D01*
Y122700D02*
X13964Y124300D01*
X15564D01*
X14764Y122700D01*
X24606D02*
X23806Y124300D01*
X25406D01*
X24606Y122700D01*
X17992Y109436D02*
X17192Y111036D01*
X18792D01*
X17992Y109436D01*
X11535D02*
X10735Y111036D01*
X12335D01*
X11535Y109436D01*
X-4921Y130105D02*
X-5721Y131705D01*
X-4121D01*
X-4921Y130105D01*
X-984Y119279D02*
X-1784Y120879D01*
X-184D01*
X-984Y119279D01*
X-11535Y111200D02*
X-12335Y112800D01*
X-10735D01*
X-11535Y111200D01*
X-21378D02*
X-22178Y112800D01*
X-20578D01*
X-21378Y111200D01*
X-24500Y136995D02*
X-25300Y138595D01*
X-23700D01*
X-24500Y136995D01*
X-34000D02*
X-34800Y138595D01*
X-33200D01*
X-34000Y136995D01*
X-14000Y130105D02*
X-14800Y131705D01*
X-13200D01*
X-14000Y130105D01*
X-24000D02*
X-24800Y131705D01*
X-23200D01*
X-24000Y130105D01*
X-34000D02*
X-34800Y131705D01*
X-33200D01*
X-34000Y130105D01*
X-21378Y119279D02*
X-22178Y120879D01*
X-20578D01*
X-21378Y119279D01*
X-11535D02*
X-12335Y120879D01*
X-10735D01*
X-11535Y119279D01*
X-6890Y83452D02*
X-7690Y85052D01*
X-6090D01*
X-6890Y83452D01*
X-9843Y85814D02*
X-10643Y87414D01*
X-9042D01*
X-9843Y85814D01*
X-29528Y106483D02*
X-30328Y108083D01*
X-28728D01*
X-29528Y106483D01*
X-28661Y90735D02*
X-29461Y92335D01*
X-27861D01*
X-28661Y90735D01*
X13386Y105499D02*
X12586Y107099D01*
X14186D01*
X13386Y105499D01*
X2953Y83452D02*
X2153Y85052D01*
X3753D01*
X2953Y83452D01*
M02*
