G04*
G04 #@! TF.GenerationSoftware,Altium Limited,Altium Designer,22.1.2 (22)*
G04*
G04 Layer_Color=8388736*
%FSLAX25Y25*%
%MOIN*%
G70*
G04*
G04 #@! TF.SameCoordinates,D9C7AC14-A0B2-4E4F-895A-178DC6869FF5*
G04*
G04*
G04 #@! TF.FilePolarity,Positive*
G04*
G01*
G75*
%ADD10C,0.00394*%
D10*
X53740Y12598D02*
G03*
X50591Y9449I0J-3150D01*
G01*
X-50591D02*
G03*
X-53740Y12598I-3150J0D01*
G01*
X-12205Y12795D02*
G03*
X-18110Y12795I-2953J0D01*
G01*
X53740Y12598D02*
G03*
X50591Y9449I0J-3150D01*
G01*
X-50591D02*
G03*
X-53740Y12598I-3150J0D01*
G01*
X-12205Y12795D02*
G03*
X-18110Y12795I-2953J0D01*
G01*
X-50591Y0D02*
X-18110D01*
X50591D02*
Y9449D01*
X53740Y12598D02*
X59055D01*
X-59055D02*
X-53740D01*
X-12205Y0D02*
Y12795D01*
X-18110Y0D02*
Y12795D01*
X-50591Y0D02*
Y9449D01*
X-12205Y0D02*
X50591D01*
X-59055Y200591D02*
X59055D01*
X-50591Y0D02*
Y9449D01*
X59055Y12598D02*
Y200591D01*
X-18110Y0D02*
Y12795D01*
X50591Y0D02*
Y9449D01*
X-12205Y0D02*
Y12795D01*
X-50591Y0D02*
X-18110D01*
X-12205D02*
X50591D01*
X53740Y12598D02*
X59055D01*
X-59055D02*
X-53740D01*
X-59055D02*
Y200591D01*
M02*
