G04*
G04 #@! TF.GenerationSoftware,Altium Limited,Altium Designer,22.1.2 (22)*
G04*
G04 Layer_Color=32896*
%FSLAX25Y25*%
%MOIN*%
G70*
G04*
G04 #@! TF.SameCoordinates,889227B3-B2BC-4796-8B66-3F322000AF8E*
G04*
G04*
G04 #@! TF.FilePolarity,Positive*
G04*
G01*
G75*
%ADD48C,0.00039*%
%ADD49C,0.00079*%
D48*
X17323Y70197D02*
X25000D01*
X-25000Y34134D02*
X-17323D01*
X25000D02*
Y70197D01*
X-25000Y34134D02*
Y70157D01*
X17323Y34134D02*
X25000D01*
X-25000Y70157D02*
X-17323D01*
Y78150D01*
X17323Y26181D02*
Y34134D01*
X-17323Y26181D02*
X17323D01*
X-17323Y78150D02*
X17323D01*
Y70197D02*
Y78150D01*
X-17323Y26181D02*
Y34134D01*
X-984Y52165D02*
X984D01*
X0Y51181D02*
Y53150D01*
X-984Y166339D02*
X984D01*
X0Y165354D02*
Y167323D01*
X43307Y154528D02*
Y203740D01*
X-43307D02*
X43307D01*
X-43307Y154528D02*
Y203740D01*
Y154528D02*
X43307D01*
D49*
X23622Y58417D02*
Y61370D01*
X17717Y58417D02*
X23622D01*
X17717Y61370D02*
X23622D01*
X19685Y59894D02*
X21654D01*
X20669Y58909D02*
Y60878D01*
X17717Y58417D02*
Y61370D01*
X-17913Y57579D02*
Y60532D01*
X-23819Y57579D02*
X-17913D01*
X-23819Y60532D02*
X-17913D01*
X-21850Y59055D02*
X-19882D01*
X-20866Y58071D02*
Y60039D01*
X-23819Y57579D02*
Y60532D01*
X23622Y54480D02*
Y57433D01*
X17717Y54480D02*
X23622D01*
X17717Y57433D02*
X23622D01*
X19685Y55957D02*
X21654D01*
X20669Y54972D02*
Y56941D01*
X17717Y54480D02*
Y57433D01*
X-17913Y53642D02*
Y56595D01*
X-23819Y53642D02*
X-17913D01*
X-23819Y56595D02*
X-17913D01*
X-21850Y55118D02*
X-19882D01*
X-20866Y54134D02*
Y56102D01*
X-23819Y53642D02*
Y56595D01*
M02*
