G04*
G04 #@! TF.GenerationSoftware,Altium Limited,Altium Designer,22.1.2 (22)*
G04*
G04 Layer_Color=16711935*
%FSLAX25Y25*%
%MOIN*%
G70*
G04*
G04 #@! TF.SameCoordinates,3B7FE2DD-F4B8-4A7D-B534-A0F5109E0913*
G04*
G04*
G04 #@! TF.FilePolarity,Negative*
G04*
G01*
G75*
%ADD18R,1.03150X0.11516*%
%ADD19R,1.18110X0.10630*%
%ADD21R,0.02441X0.09134*%
%ADD22R,0.01929X0.02126*%
%ADD23C,0.05915*%
%ADD24R,0.05915X0.05915*%
%ADD25R,0.20945X0.20945*%
%ADD41R,0.13661X0.13661*%
%ADD42R,0.01063X0.02835*%
%ADD43R,0.02835X0.01063*%
%ADD44R,0.04016X0.01654*%
%ADD45R,0.05591X0.02835*%
%ADD46R,0.02835X0.02441*%
%ADD47R,0.02126X0.01929*%
G36*
X46858Y125619D02*
X48141D01*
Y127710D01*
X48588D01*
Y125619D01*
X49741D01*
Y127852D01*
X50188D01*
Y125116D01*
X46410D01*
Y127939D01*
X46858D01*
Y125619D01*
D02*
G37*
G36*
X48337Y122768D02*
X47890D01*
Y123882D01*
X47180D01*
X47125Y123817D01*
X47076Y123740D01*
X47032Y123658D01*
X46994Y123582D01*
X46961Y123516D01*
X46934Y123456D01*
X46923Y123435D01*
X46918Y123424D01*
X46912Y123413D01*
Y123407D01*
X46874Y123293D01*
X46841Y123178D01*
X46819Y123074D01*
X46809Y122976D01*
X46798Y122894D01*
Y122861D01*
X46792Y122828D01*
Y122774D01*
X46798Y122637D01*
X46819Y122506D01*
X46847Y122386D01*
X46874Y122277D01*
X46907Y122190D01*
X46918Y122152D01*
X46929Y122124D01*
X46940Y122097D01*
X46951Y122081D01*
X46956Y122070D01*
Y122064D01*
X47027Y121950D01*
X47103Y121846D01*
X47185Y121758D01*
X47267Y121687D01*
X47344Y121627D01*
X47404Y121589D01*
X47425Y121573D01*
X47442Y121567D01*
X47453Y121556D01*
X47458D01*
X47595Y121502D01*
X47737Y121458D01*
X47879Y121431D01*
X48015Y121409D01*
X48075Y121404D01*
X48130Y121398D01*
X48184Y121393D01*
X48228D01*
X48261Y121387D01*
X48288D01*
X48305D01*
X48310D01*
X48463Y121393D01*
X48599Y121409D01*
X48730Y121431D01*
X48845Y121458D01*
X48894Y121469D01*
X48938Y121485D01*
X48976Y121496D01*
X49009Y121507D01*
X49036Y121518D01*
X49053Y121524D01*
X49064Y121529D01*
X49069D01*
X49145Y121567D01*
X49216Y121606D01*
X49282Y121644D01*
X49336Y121682D01*
X49380Y121715D01*
X49418Y121742D01*
X49440Y121764D01*
X49446Y121769D01*
X49506Y121829D01*
X49560Y121895D01*
X49604Y121966D01*
X49648Y122031D01*
X49675Y122086D01*
X49702Y122130D01*
X49713Y122162D01*
X49719Y122173D01*
X49757Y122272D01*
X49784Y122370D01*
X49801Y122474D01*
X49817Y122566D01*
X49823Y122648D01*
Y122681D01*
X49828Y122708D01*
Y122768D01*
X49823Y122872D01*
X49812Y122970D01*
X49795Y123058D01*
X49779Y123134D01*
X49757Y123200D01*
X49741Y123249D01*
X49730Y123276D01*
X49724Y123287D01*
X49686Y123369D01*
X49642Y123440D01*
X49599Y123506D01*
X49555Y123555D01*
X49517Y123593D01*
X49489Y123626D01*
X49468Y123642D01*
X49462Y123647D01*
X49397Y123697D01*
X49320Y123735D01*
X49249Y123773D01*
X49173Y123806D01*
X49107Y123828D01*
X49058Y123844D01*
X49036Y123849D01*
X49020Y123855D01*
X49014Y123861D01*
X49009D01*
X49129Y124314D01*
X49266Y124275D01*
X49386Y124226D01*
X49495Y124177D01*
X49582Y124134D01*
X49653Y124090D01*
X49702Y124057D01*
X49735Y124035D01*
X49746Y124024D01*
X49833Y123948D01*
X49904Y123866D01*
X49970Y123779D01*
X50024Y123697D01*
X50063Y123620D01*
X50095Y123560D01*
X50106Y123538D01*
X50112Y123522D01*
X50117Y123511D01*
Y123506D01*
X50161Y123380D01*
X50194Y123249D01*
X50221Y123129D01*
X50237Y123014D01*
X50248Y122910D01*
Y122867D01*
X50254Y122834D01*
Y122659D01*
X50243Y122561D01*
X50216Y122370D01*
X50199Y122283D01*
X50177Y122201D01*
X50161Y122124D01*
X50139Y122053D01*
X50117Y121988D01*
X50095Y121933D01*
X50074Y121884D01*
X50057Y121840D01*
X50041Y121808D01*
X50030Y121786D01*
X50024Y121769D01*
X50019Y121764D01*
X49970Y121687D01*
X49921Y121611D01*
X49806Y121480D01*
X49691Y121365D01*
X49571Y121272D01*
X49468Y121196D01*
X49424Y121169D01*
X49380Y121147D01*
X49347Y121125D01*
X49326Y121114D01*
X49309Y121109D01*
X49304Y121103D01*
X49124Y121027D01*
X48943Y120972D01*
X48769Y120928D01*
X48687Y120917D01*
X48610Y120901D01*
X48539Y120896D01*
X48479Y120885D01*
X48419Y120879D01*
X48370D01*
X48332Y120874D01*
X48305D01*
X48283D01*
X48277D01*
X48075Y120885D01*
X47884Y120912D01*
X47797Y120928D01*
X47715Y120945D01*
X47633Y120967D01*
X47562Y120989D01*
X47497Y121010D01*
X47442Y121032D01*
X47387Y121049D01*
X47349Y121065D01*
X47311Y121081D01*
X47289Y121092D01*
X47273Y121103D01*
X47267D01*
X47109Y121201D01*
X46972Y121311D01*
X46852Y121425D01*
X46754Y121535D01*
X46678Y121638D01*
X46650Y121677D01*
X46623Y121715D01*
X46606Y121747D01*
X46590Y121769D01*
X46585Y121786D01*
X46579Y121791D01*
X46536Y121879D01*
X46503Y121966D01*
X46443Y122141D01*
X46404Y122310D01*
X46372Y122468D01*
X46366Y122539D01*
X46355Y122605D01*
X46350Y122665D01*
Y122714D01*
X46345Y122752D01*
Y122807D01*
X46350Y122960D01*
X46366Y123107D01*
X46394Y123243D01*
X46421Y123364D01*
X46432Y123413D01*
X46443Y123462D01*
X46459Y123506D01*
X46470Y123544D01*
X46481Y123571D01*
X46486Y123593D01*
X46492Y123604D01*
Y123609D01*
X46552Y123757D01*
X46623Y123893D01*
X46699Y124024D01*
X46770Y124139D01*
X46803Y124188D01*
X46836Y124237D01*
X46863Y124275D01*
X46885Y124308D01*
X46907Y124336D01*
X46923Y124357D01*
X46929Y124368D01*
X46934Y124374D01*
X48337D01*
Y122768D01*
D02*
G37*
G36*
X50188Y119056D02*
Y118510D01*
X46410Y117068D01*
Y117598D01*
X47557Y118007D01*
Y119591D01*
X46410Y120033D01*
Y120601D01*
X50188Y119056D01*
D02*
G37*
G36*
Y113972D02*
X49741D01*
Y115217D01*
X46410D01*
Y115720D01*
X49741D01*
Y116964D01*
X50188D01*
Y113972D01*
D02*
G37*
G36*
X46858Y111799D02*
X50188D01*
Y111297D01*
X46410D01*
Y113661D01*
X46858D01*
Y111799D01*
D02*
G37*
G36*
X48496Y110664D02*
X48687Y110642D01*
X48774Y110625D01*
X48862Y110604D01*
X48938Y110582D01*
X49009Y110565D01*
X49075Y110544D01*
X49134Y110522D01*
X49184Y110505D01*
X49227Y110484D01*
X49260Y110473D01*
X49282Y110462D01*
X49298Y110451D01*
X49304D01*
X49462Y110363D01*
X49604Y110260D01*
X49724Y110150D01*
X49823Y110052D01*
X49899Y109959D01*
X49932Y109916D01*
X49959Y109883D01*
X49975Y109850D01*
X49992Y109828D01*
X49997Y109817D01*
X50003Y109812D01*
X50046Y109730D01*
X50085Y109648D01*
X50150Y109490D01*
X50194Y109326D01*
X50221Y109184D01*
X50232Y109118D01*
X50243Y109053D01*
X50248Y109004D01*
Y108955D01*
X50254Y108916D01*
Y108867D01*
X50248Y108720D01*
X50232Y108583D01*
X50205Y108452D01*
X50172Y108327D01*
X50128Y108212D01*
X50085Y108103D01*
X50035Y108005D01*
X49986Y107917D01*
X49937Y107835D01*
X49888Y107764D01*
X49844Y107704D01*
X49801Y107655D01*
X49768Y107617D01*
X49741Y107584D01*
X49724Y107568D01*
X49719Y107562D01*
X49615Y107475D01*
X49506Y107399D01*
X49386Y107328D01*
X49266Y107273D01*
X49140Y107224D01*
X49020Y107180D01*
X48900Y107147D01*
X48785Y107126D01*
X48676Y107104D01*
X48572Y107087D01*
X48479Y107076D01*
X48403Y107065D01*
X48337D01*
X48288Y107060D01*
X48256D01*
X48250D01*
X48245D01*
X48059Y107071D01*
X47890Y107093D01*
X47726Y107126D01*
X47655Y107147D01*
X47584Y107169D01*
X47524Y107186D01*
X47469Y107208D01*
X47420Y107224D01*
X47376Y107240D01*
X47344Y107251D01*
X47322Y107262D01*
X47305Y107273D01*
X47300D01*
X47142Y107366D01*
X47005Y107464D01*
X46885Y107573D01*
X46787Y107677D01*
X46705Y107770D01*
X46672Y107808D01*
X46650Y107841D01*
X46628Y107874D01*
X46612Y107895D01*
X46606Y107906D01*
X46601Y107912D01*
X46557Y107994D01*
X46519Y108076D01*
X46454Y108239D01*
X46410Y108398D01*
X46377Y108545D01*
X46366Y108616D01*
X46361Y108676D01*
X46350Y108731D01*
Y108780D01*
X46345Y108813D01*
Y108867D01*
X46355Y109047D01*
X46383Y109217D01*
X46415Y109375D01*
X46437Y109446D01*
X46459Y109512D01*
X46481Y109572D01*
X46503Y109626D01*
X46519Y109670D01*
X46536Y109708D01*
X46552Y109741D01*
X46563Y109768D01*
X46574Y109779D01*
Y109785D01*
X46672Y109938D01*
X46781Y110069D01*
X46896Y110178D01*
X47005Y110271D01*
X47109Y110347D01*
X47147Y110374D01*
X47185Y110396D01*
X47218Y110418D01*
X47240Y110429D01*
X47256Y110440D01*
X47262D01*
X47349Y110484D01*
X47436Y110516D01*
X47611Y110576D01*
X47786Y110620D01*
X47944Y110647D01*
X48015Y110653D01*
X48081Y110664D01*
X48141Y110669D01*
X48190D01*
X48234Y110675D01*
X48261D01*
X48283D01*
X48288D01*
X48496Y110664D01*
D02*
G37*
G36*
X50188Y106252D02*
X47442Y105226D01*
X47327Y105182D01*
X47218Y105144D01*
X47114Y105111D01*
X47021Y105084D01*
X46940Y105056D01*
X46880Y105040D01*
X46858Y105034D01*
X46841Y105029D01*
X46830Y105024D01*
X46825D01*
X47043Y104958D01*
X47147Y104925D01*
X47240Y104892D01*
X47322Y104865D01*
X47355Y104854D01*
X47387Y104849D01*
X47409Y104838D01*
X47425Y104832D01*
X47436Y104827D01*
X47442D01*
X50188Y103844D01*
Y103298D01*
X46410Y104761D01*
Y105286D01*
X50188Y106760D01*
Y106252D01*
D02*
G37*
G36*
Y100885D02*
X48638D01*
Y98930D01*
X50188D01*
Y98428D01*
X46410D01*
Y98930D01*
X48190D01*
Y100885D01*
X46410D01*
Y101387D01*
X50188D01*
Y100885D01*
D02*
G37*
G36*
X48337Y96069D02*
X47890D01*
Y97183D01*
X47180D01*
X47125Y97117D01*
X47076Y97041D01*
X47032Y96959D01*
X46994Y96883D01*
X46961Y96817D01*
X46934Y96757D01*
X46923Y96735D01*
X46918Y96724D01*
X46912Y96713D01*
Y96708D01*
X46874Y96593D01*
X46841Y96479D01*
X46819Y96375D01*
X46809Y96276D01*
X46798Y96195D01*
Y96162D01*
X46792Y96129D01*
Y96074D01*
X46798Y95938D01*
X46819Y95807D01*
X46847Y95687D01*
X46874Y95578D01*
X46907Y95490D01*
X46918Y95452D01*
X46929Y95425D01*
X46940Y95398D01*
X46951Y95381D01*
X46956Y95370D01*
Y95365D01*
X47027Y95250D01*
X47103Y95146D01*
X47185Y95059D01*
X47267Y94988D01*
X47344Y94928D01*
X47404Y94890D01*
X47425Y94873D01*
X47442Y94868D01*
X47453Y94857D01*
X47458D01*
X47595Y94802D01*
X47737Y94759D01*
X47879Y94731D01*
X48015Y94709D01*
X48075Y94704D01*
X48130Y94699D01*
X48184Y94693D01*
X48228D01*
X48261Y94688D01*
X48288D01*
X48305D01*
X48310D01*
X48463Y94693D01*
X48599Y94709D01*
X48730Y94731D01*
X48845Y94759D01*
X48894Y94770D01*
X48938Y94786D01*
X48976Y94797D01*
X49009Y94808D01*
X49036Y94819D01*
X49053Y94824D01*
X49064Y94830D01*
X49069D01*
X49145Y94868D01*
X49216Y94906D01*
X49282Y94944D01*
X49336Y94982D01*
X49380Y95015D01*
X49418Y95043D01*
X49440Y95064D01*
X49446Y95070D01*
X49506Y95130D01*
X49560Y95196D01*
X49604Y95266D01*
X49648Y95332D01*
X49675Y95387D01*
X49702Y95430D01*
X49713Y95463D01*
X49719Y95474D01*
X49757Y95572D01*
X49784Y95670D01*
X49801Y95774D01*
X49817Y95867D01*
X49823Y95949D01*
Y95982D01*
X49828Y96009D01*
Y96069D01*
X49823Y96173D01*
X49812Y96271D01*
X49795Y96358D01*
X49779Y96435D01*
X49757Y96500D01*
X49741Y96549D01*
X49730Y96577D01*
X49724Y96588D01*
X49686Y96670D01*
X49642Y96741D01*
X49599Y96806D01*
X49555Y96855D01*
X49517Y96894D01*
X49489Y96926D01*
X49468Y96943D01*
X49462Y96948D01*
X49397Y96997D01*
X49320Y97035D01*
X49249Y97074D01*
X49173Y97106D01*
X49107Y97128D01*
X49058Y97145D01*
X49036Y97150D01*
X49020Y97156D01*
X49014Y97161D01*
X49009D01*
X49129Y97614D01*
X49266Y97576D01*
X49386Y97527D01*
X49495Y97478D01*
X49582Y97434D01*
X49653Y97390D01*
X49702Y97358D01*
X49735Y97336D01*
X49746Y97325D01*
X49833Y97248D01*
X49904Y97167D01*
X49970Y97079D01*
X50024Y96997D01*
X50063Y96921D01*
X50095Y96861D01*
X50106Y96839D01*
X50112Y96823D01*
X50117Y96812D01*
Y96806D01*
X50161Y96681D01*
X50194Y96549D01*
X50221Y96429D01*
X50237Y96315D01*
X50248Y96211D01*
Y96167D01*
X50254Y96135D01*
Y95960D01*
X50243Y95862D01*
X50216Y95670D01*
X50199Y95583D01*
X50177Y95501D01*
X50161Y95425D01*
X50139Y95354D01*
X50117Y95288D01*
X50095Y95234D01*
X50074Y95184D01*
X50057Y95141D01*
X50041Y95108D01*
X50030Y95086D01*
X50024Y95070D01*
X50019Y95064D01*
X49970Y94988D01*
X49921Y94911D01*
X49806Y94780D01*
X49691Y94666D01*
X49571Y94573D01*
X49468Y94497D01*
X49424Y94469D01*
X49380Y94447D01*
X49347Y94426D01*
X49326Y94415D01*
X49309Y94409D01*
X49304Y94404D01*
X49124Y94327D01*
X48943Y94273D01*
X48769Y94229D01*
X48687Y94218D01*
X48610Y94202D01*
X48539Y94196D01*
X48479Y94185D01*
X48419Y94180D01*
X48370D01*
X48332Y94174D01*
X48305D01*
X48283D01*
X48277D01*
X48075Y94185D01*
X47884Y94213D01*
X47797Y94229D01*
X47715Y94245D01*
X47633Y94267D01*
X47562Y94289D01*
X47497Y94311D01*
X47442Y94333D01*
X47387Y94349D01*
X47349Y94366D01*
X47311Y94382D01*
X47289Y94393D01*
X47273Y94404D01*
X47267D01*
X47109Y94502D01*
X46972Y94611D01*
X46852Y94726D01*
X46754Y94835D01*
X46678Y94939D01*
X46650Y94977D01*
X46623Y95015D01*
X46606Y95048D01*
X46590Y95070D01*
X46585Y95086D01*
X46579Y95092D01*
X46536Y95179D01*
X46503Y95266D01*
X46443Y95441D01*
X46404Y95610D01*
X46372Y95769D01*
X46366Y95840D01*
X46355Y95905D01*
X46350Y95965D01*
Y96014D01*
X46345Y96053D01*
Y96107D01*
X46350Y96260D01*
X46366Y96408D01*
X46394Y96544D01*
X46421Y96664D01*
X46432Y96713D01*
X46443Y96763D01*
X46459Y96806D01*
X46470Y96844D01*
X46481Y96872D01*
X46486Y96894D01*
X46492Y96904D01*
Y96910D01*
X46552Y97057D01*
X46623Y97194D01*
X46699Y97325D01*
X46770Y97439D01*
X46803Y97489D01*
X46836Y97538D01*
X46863Y97576D01*
X46885Y97609D01*
X46907Y97636D01*
X46923Y97658D01*
X46929Y97669D01*
X46934Y97674D01*
X48337D01*
Y96069D01*
D02*
G37*
G36*
X50188Y92919D02*
X46410D01*
Y93421D01*
X50188D01*
Y92919D01*
D02*
G37*
G36*
Y91499D02*
X48638D01*
Y89544D01*
X50188D01*
Y89042D01*
X46410D01*
Y89544D01*
X48190D01*
Y91499D01*
X46410D01*
Y92001D01*
X50188D01*
Y91499D01*
D02*
G37*
G36*
X47436Y86421D02*
X47546Y86345D01*
X47644Y86274D01*
X47726Y86203D01*
X47802Y86143D01*
X47857Y86088D01*
X47901Y86045D01*
X47928Y86017D01*
X47939Y86006D01*
X47971Y85963D01*
X48010Y85913D01*
X48070Y85815D01*
X48092Y85772D01*
X48114Y85739D01*
X48124Y85717D01*
X48130Y85706D01*
X48146Y85804D01*
X48163Y85897D01*
X48190Y85979D01*
X48212Y86061D01*
X48239Y86132D01*
X48272Y86197D01*
X48299Y86257D01*
X48326Y86312D01*
X48359Y86356D01*
X48386Y86399D01*
X48408Y86432D01*
X48430Y86459D01*
X48447Y86481D01*
X48463Y86498D01*
X48468Y86503D01*
X48474Y86509D01*
X48529Y86552D01*
X48583Y86596D01*
X48698Y86661D01*
X48812Y86705D01*
X48922Y86738D01*
X49014Y86760D01*
X49053Y86765D01*
X49091D01*
X49118Y86771D01*
X49140D01*
X49151D01*
X49156D01*
X49271Y86765D01*
X49375Y86749D01*
X49473Y86721D01*
X49555Y86694D01*
X49626Y86661D01*
X49681Y86640D01*
X49713Y86618D01*
X49719Y86612D01*
X49724D01*
X49812Y86547D01*
X49888Y86481D01*
X49953Y86410D01*
X50003Y86345D01*
X50041Y86285D01*
X50063Y86236D01*
X50079Y86203D01*
X50085Y86197D01*
Y86192D01*
X50101Y86143D01*
X50117Y86083D01*
X50145Y85963D01*
X50161Y85832D01*
X50177Y85711D01*
X50183Y85597D01*
Y85548D01*
X50188Y85504D01*
Y83751D01*
X46410D01*
Y84254D01*
X48086D01*
Y84898D01*
X48081Y84958D01*
Y85002D01*
X48075Y85040D01*
X48070Y85067D01*
Y85089D01*
X48064Y85100D01*
Y85105D01*
X48037Y85193D01*
X48021Y85231D01*
X48004Y85264D01*
X47988Y85296D01*
X47977Y85318D01*
X47971Y85329D01*
X47966Y85335D01*
X47933Y85378D01*
X47895Y85422D01*
X47813Y85504D01*
X47775Y85542D01*
X47742Y85570D01*
X47720Y85586D01*
X47715Y85591D01*
X47638Y85646D01*
X47557Y85706D01*
X47469Y85766D01*
X47387Y85826D01*
X47311Y85875D01*
X47251Y85913D01*
X47229Y85930D01*
X47213Y85941D01*
X47202Y85952D01*
X47196D01*
X46410Y86449D01*
Y87071D01*
X47436Y86421D01*
D02*
G37*
G36*
X46858Y80732D02*
X48141D01*
Y82823D01*
X48588D01*
Y80732D01*
X49741D01*
Y82965D01*
X50188D01*
Y80230D01*
X46410D01*
Y83052D01*
X46858D01*
Y80732D01*
D02*
G37*
G36*
X48337Y77882D02*
X47890D01*
Y78996D01*
X47180D01*
X47125Y78930D01*
X47076Y78854D01*
X47032Y78772D01*
X46994Y78695D01*
X46961Y78630D01*
X46934Y78570D01*
X46923Y78548D01*
X46918Y78537D01*
X46912Y78526D01*
Y78521D01*
X46874Y78406D01*
X46841Y78291D01*
X46819Y78188D01*
X46809Y78089D01*
X46798Y78007D01*
Y77975D01*
X46792Y77942D01*
Y77887D01*
X46798Y77751D01*
X46819Y77620D01*
X46847Y77500D01*
X46874Y77390D01*
X46907Y77303D01*
X46918Y77265D01*
X46929Y77237D01*
X46940Y77210D01*
X46951Y77194D01*
X46956Y77183D01*
Y77178D01*
X47027Y77063D01*
X47103Y76959D01*
X47185Y76872D01*
X47267Y76801D01*
X47344Y76741D01*
X47404Y76702D01*
X47425Y76686D01*
X47442Y76681D01*
X47453Y76670D01*
X47458D01*
X47595Y76615D01*
X47737Y76571D01*
X47879Y76544D01*
X48015Y76522D01*
X48075Y76517D01*
X48130Y76511D01*
X48184Y76506D01*
X48228D01*
X48261Y76500D01*
X48288D01*
X48305D01*
X48310D01*
X48463Y76506D01*
X48599Y76522D01*
X48730Y76544D01*
X48845Y76571D01*
X48894Y76582D01*
X48938Y76599D01*
X48976Y76610D01*
X49009Y76621D01*
X49036Y76631D01*
X49053Y76637D01*
X49064Y76642D01*
X49069D01*
X49145Y76681D01*
X49216Y76719D01*
X49282Y76757D01*
X49336Y76795D01*
X49380Y76828D01*
X49418Y76855D01*
X49440Y76877D01*
X49446Y76883D01*
X49506Y76943D01*
X49560Y77008D01*
X49604Y77079D01*
X49648Y77145D01*
X49675Y77199D01*
X49702Y77243D01*
X49713Y77276D01*
X49719Y77287D01*
X49757Y77385D01*
X49784Y77483D01*
X49801Y77587D01*
X49817Y77680D01*
X49823Y77762D01*
Y77794D01*
X49828Y77822D01*
Y77882D01*
X49823Y77986D01*
X49812Y78084D01*
X49795Y78171D01*
X49779Y78248D01*
X49757Y78313D01*
X49741Y78362D01*
X49730Y78390D01*
X49724Y78400D01*
X49686Y78482D01*
X49642Y78553D01*
X49599Y78619D01*
X49555Y78668D01*
X49517Y78706D01*
X49489Y78739D01*
X49468Y78755D01*
X49462Y78761D01*
X49397Y78810D01*
X49320Y78848D01*
X49249Y78886D01*
X49173Y78919D01*
X49107Y78941D01*
X49058Y78957D01*
X49036Y78963D01*
X49020Y78968D01*
X49014Y78974D01*
X49009D01*
X49129Y79427D01*
X49266Y79389D01*
X49386Y79340D01*
X49495Y79290D01*
X49582Y79247D01*
X49653Y79203D01*
X49702Y79170D01*
X49735Y79149D01*
X49746Y79138D01*
X49833Y79061D01*
X49904Y78979D01*
X49970Y78892D01*
X50024Y78810D01*
X50063Y78734D01*
X50095Y78673D01*
X50106Y78652D01*
X50112Y78635D01*
X50117Y78624D01*
Y78619D01*
X50161Y78493D01*
X50194Y78362D01*
X50221Y78242D01*
X50237Y78127D01*
X50248Y78024D01*
Y77980D01*
X50254Y77947D01*
Y77773D01*
X50243Y77674D01*
X50216Y77483D01*
X50199Y77396D01*
X50177Y77314D01*
X50161Y77237D01*
X50139Y77166D01*
X50117Y77101D01*
X50095Y77046D01*
X50074Y76997D01*
X50057Y76954D01*
X50041Y76921D01*
X50030Y76899D01*
X50024Y76883D01*
X50019Y76877D01*
X49970Y76801D01*
X49921Y76724D01*
X49806Y76593D01*
X49691Y76479D01*
X49571Y76386D01*
X49468Y76309D01*
X49424Y76282D01*
X49380Y76260D01*
X49347Y76238D01*
X49326Y76227D01*
X49309Y76222D01*
X49304Y76217D01*
X49124Y76140D01*
X48943Y76086D01*
X48769Y76042D01*
X48687Y76031D01*
X48610Y76015D01*
X48539Y76009D01*
X48479Y75998D01*
X48419Y75993D01*
X48370D01*
X48332Y75987D01*
X48305D01*
X48283D01*
X48277D01*
X48075Y75998D01*
X47884Y76025D01*
X47797Y76042D01*
X47715Y76058D01*
X47633Y76080D01*
X47562Y76102D01*
X47497Y76124D01*
X47442Y76145D01*
X47387Y76162D01*
X47349Y76178D01*
X47311Y76195D01*
X47289Y76206D01*
X47273Y76217D01*
X47267D01*
X47109Y76315D01*
X46972Y76424D01*
X46852Y76539D01*
X46754Y76648D01*
X46678Y76752D01*
X46650Y76790D01*
X46623Y76828D01*
X46606Y76861D01*
X46590Y76883D01*
X46585Y76899D01*
X46579Y76904D01*
X46536Y76992D01*
X46503Y77079D01*
X46443Y77254D01*
X46404Y77423D01*
X46372Y77582D01*
X46366Y77653D01*
X46355Y77718D01*
X46350Y77778D01*
Y77827D01*
X46345Y77865D01*
Y77920D01*
X46350Y78073D01*
X46366Y78220D01*
X46394Y78357D01*
X46421Y78477D01*
X46432Y78526D01*
X46443Y78575D01*
X46459Y78619D01*
X46470Y78657D01*
X46481Y78684D01*
X46486Y78706D01*
X46492Y78717D01*
Y78723D01*
X46552Y78870D01*
X46623Y79007D01*
X46699Y79138D01*
X46770Y79252D01*
X46803Y79301D01*
X46836Y79351D01*
X46863Y79389D01*
X46885Y79422D01*
X46907Y79449D01*
X46923Y79471D01*
X46929Y79482D01*
X46934Y79487D01*
X48337D01*
Y77882D01*
D02*
G37*
G36*
X50188Y74797D02*
X47218D01*
X50188Y72815D01*
Y72302D01*
X46410D01*
Y72782D01*
X49375D01*
X46410Y74759D01*
Y75277D01*
X50188D01*
Y74797D01*
D02*
G37*
G36*
Y70358D02*
Y69812D01*
X46410Y68370D01*
Y68900D01*
X47557Y69310D01*
Y70893D01*
X46410Y71335D01*
Y71903D01*
X50188Y70358D01*
D02*
G37*
G36*
X48501Y68092D02*
X48670Y68076D01*
X48823Y68048D01*
X48894Y68037D01*
X48954Y68021D01*
X49014Y68005D01*
X49064Y67994D01*
X49107Y67983D01*
X49145Y67966D01*
X49178Y67961D01*
X49200Y67950D01*
X49211Y67945D01*
X49216D01*
X49358Y67884D01*
X49484Y67814D01*
X49593Y67737D01*
X49686Y67666D01*
X49762Y67601D01*
X49817Y67546D01*
X49833Y67524D01*
X49850Y67508D01*
X49855Y67502D01*
X49861Y67497D01*
X49932Y67409D01*
X49986Y67317D01*
X50035Y67224D01*
X50074Y67137D01*
X50101Y67060D01*
X50117Y67000D01*
X50128Y66978D01*
Y66962D01*
X50134Y66951D01*
Y66945D01*
X50150Y66853D01*
X50166Y66743D01*
X50177Y66634D01*
X50183Y66525D01*
X50188Y66427D01*
Y64974D01*
X46410D01*
Y66334D01*
X46415Y66460D01*
X46421Y66574D01*
X46432Y66678D01*
X46443Y66765D01*
X46454Y66842D01*
X46459Y66896D01*
X46465Y66913D01*
X46470Y66929D01*
Y66940D01*
X46497Y67038D01*
X46530Y67126D01*
X46557Y67202D01*
X46590Y67268D01*
X46617Y67322D01*
X46639Y67360D01*
X46656Y67382D01*
X46661Y67393D01*
X46710Y67464D01*
X46770Y67524D01*
X46825Y67584D01*
X46880Y67633D01*
X46929Y67677D01*
X46967Y67710D01*
X46994Y67732D01*
X47005Y67737D01*
X47093Y67792D01*
X47185Y67846D01*
X47273Y67890D01*
X47360Y67923D01*
X47436Y67955D01*
X47497Y67977D01*
X47518Y67983D01*
X47535Y67988D01*
X47546Y67994D01*
X47551D01*
X47682Y68027D01*
X47813Y68054D01*
X47939Y68070D01*
X48059Y68087D01*
X48163Y68092D01*
X48206D01*
X48245Y68098D01*
X48272D01*
X48299D01*
X48310D01*
X48316D01*
X48501Y68092D01*
D02*
G37*
G36*
X-46410Y126579D02*
X-46415Y126454D01*
X-46421Y126339D01*
X-46432Y126235D01*
X-46443Y126148D01*
X-46454Y126072D01*
X-46459Y126017D01*
X-46465Y126001D01*
X-46470Y125984D01*
Y125973D01*
X-46497Y125875D01*
X-46530Y125788D01*
X-46557Y125711D01*
X-46590Y125646D01*
X-46617Y125591D01*
X-46639Y125553D01*
X-46656Y125531D01*
X-46661Y125520D01*
X-46710Y125449D01*
X-46770Y125389D01*
X-46825Y125329D01*
X-46880Y125280D01*
X-46929Y125236D01*
X-46967Y125204D01*
X-46994Y125182D01*
X-47005Y125176D01*
X-47093Y125122D01*
X-47185Y125067D01*
X-47273Y125023D01*
X-47360Y124991D01*
X-47436Y124958D01*
X-47497Y124936D01*
X-47518Y124931D01*
X-47535Y124925D01*
X-47546Y124920D01*
X-47551D01*
X-47682Y124887D01*
X-47813Y124860D01*
X-47939Y124843D01*
X-48059Y124827D01*
X-48163Y124821D01*
X-48206D01*
X-48245Y124816D01*
X-48272D01*
X-48299D01*
X-48310D01*
X-48316D01*
X-48501Y124821D01*
X-48670Y124838D01*
X-48823Y124865D01*
X-48894Y124876D01*
X-48954Y124892D01*
X-49014Y124909D01*
X-49064Y124920D01*
X-49107Y124931D01*
X-49145Y124947D01*
X-49178Y124952D01*
X-49200Y124963D01*
X-49211Y124969D01*
X-49216D01*
X-49358Y125029D01*
X-49484Y125100D01*
X-49593Y125176D01*
X-49686Y125247D01*
X-49762Y125313D01*
X-49817Y125367D01*
X-49833Y125389D01*
X-49850Y125406D01*
X-49855Y125411D01*
X-49861Y125417D01*
X-49932Y125504D01*
X-49986Y125597D01*
X-50035Y125689D01*
X-50074Y125777D01*
X-50101Y125853D01*
X-50117Y125913D01*
X-50128Y125935D01*
Y125952D01*
X-50134Y125962D01*
Y125968D01*
X-50150Y126061D01*
X-50166Y126170D01*
X-50177Y126279D01*
X-50183Y126388D01*
X-50188Y126487D01*
Y127939D01*
X-46410D01*
Y126579D01*
D02*
G37*
G36*
Y124013D02*
X-47557Y123604D01*
Y122020D01*
X-46410Y121578D01*
Y121010D01*
X-50188Y122555D01*
Y123101D01*
X-46410Y124543D01*
Y124013D01*
D02*
G37*
G36*
Y120131D02*
X-49375D01*
X-46410Y118155D01*
Y117636D01*
X-50188D01*
Y118116D01*
X-47218D01*
X-50188Y120098D01*
Y120612D01*
X-46410D01*
Y120131D01*
D02*
G37*
G36*
X-48075Y116915D02*
X-47884Y116888D01*
X-47797Y116872D01*
X-47715Y116855D01*
X-47633Y116833D01*
X-47562Y116812D01*
X-47497Y116790D01*
X-47442Y116768D01*
X-47387Y116752D01*
X-47349Y116735D01*
X-47311Y116719D01*
X-47289Y116708D01*
X-47273Y116697D01*
X-47267D01*
X-47109Y116599D01*
X-46972Y116489D01*
X-46852Y116375D01*
X-46754Y116266D01*
X-46678Y116162D01*
X-46650Y116124D01*
X-46623Y116085D01*
X-46606Y116053D01*
X-46590Y116031D01*
X-46585Y116014D01*
X-46579Y116009D01*
X-46536Y115922D01*
X-46503Y115834D01*
X-46443Y115659D01*
X-46404Y115490D01*
X-46372Y115332D01*
X-46366Y115261D01*
X-46355Y115195D01*
X-46350Y115135D01*
Y115086D01*
X-46344Y115048D01*
Y114993D01*
X-46350Y114840D01*
X-46366Y114693D01*
X-46394Y114557D01*
X-46421Y114436D01*
X-46432Y114387D01*
X-46443Y114338D01*
X-46459Y114295D01*
X-46470Y114256D01*
X-46481Y114229D01*
X-46486Y114207D01*
X-46492Y114196D01*
Y114191D01*
X-46552Y114043D01*
X-46623Y113907D01*
X-46699Y113776D01*
X-46770Y113661D01*
X-46803Y113612D01*
X-46836Y113563D01*
X-46863Y113525D01*
X-46885Y113492D01*
X-46907Y113465D01*
X-46923Y113443D01*
X-46929Y113432D01*
X-46934Y113426D01*
X-48337D01*
Y115032D01*
X-47890D01*
Y113918D01*
X-47180D01*
X-47125Y113983D01*
X-47076Y114060D01*
X-47032Y114142D01*
X-46994Y114218D01*
X-46961Y114284D01*
X-46934Y114344D01*
X-46923Y114365D01*
X-46918Y114376D01*
X-46912Y114387D01*
Y114393D01*
X-46874Y114507D01*
X-46841Y114622D01*
X-46819Y114726D01*
X-46808Y114824D01*
X-46798Y114906D01*
Y114939D01*
X-46792Y114972D01*
Y115026D01*
X-46798Y115163D01*
X-46819Y115294D01*
X-46847Y115414D01*
X-46874Y115523D01*
X-46907Y115610D01*
X-46918Y115649D01*
X-46929Y115676D01*
X-46940Y115703D01*
X-46951Y115720D01*
X-46956Y115731D01*
Y115736D01*
X-47027Y115851D01*
X-47103Y115954D01*
X-47185Y116042D01*
X-47267Y116113D01*
X-47344Y116173D01*
X-47404Y116211D01*
X-47425Y116227D01*
X-47442Y116233D01*
X-47453Y116244D01*
X-47458D01*
X-47595Y116298D01*
X-47737Y116342D01*
X-47879Y116369D01*
X-48015Y116391D01*
X-48075Y116397D01*
X-48130Y116402D01*
X-48184Y116408D01*
X-48228D01*
X-48261Y116413D01*
X-48288D01*
X-48305D01*
X-48310D01*
X-48463Y116408D01*
X-48599Y116391D01*
X-48730Y116369D01*
X-48845Y116342D01*
X-48894Y116331D01*
X-48938Y116315D01*
X-48976Y116304D01*
X-49009Y116293D01*
X-49036Y116282D01*
X-49053Y116277D01*
X-49064Y116271D01*
X-49069D01*
X-49145Y116233D01*
X-49216Y116195D01*
X-49282Y116156D01*
X-49336Y116118D01*
X-49380Y116085D01*
X-49418Y116058D01*
X-49440Y116036D01*
X-49446Y116031D01*
X-49506Y115971D01*
X-49560Y115905D01*
X-49604Y115834D01*
X-49648Y115769D01*
X-49675Y115714D01*
X-49702Y115670D01*
X-49713Y115638D01*
X-49719Y115627D01*
X-49757Y115529D01*
X-49784Y115430D01*
X-49801Y115326D01*
X-49817Y115234D01*
X-49823Y115152D01*
Y115119D01*
X-49828Y115092D01*
Y115032D01*
X-49823Y114928D01*
X-49812Y114830D01*
X-49795Y114742D01*
X-49779Y114666D01*
X-49757Y114600D01*
X-49741Y114551D01*
X-49730Y114524D01*
X-49724Y114513D01*
X-49686Y114431D01*
X-49642Y114360D01*
X-49599Y114295D01*
X-49555Y114245D01*
X-49517Y114207D01*
X-49489Y114174D01*
X-49468Y114158D01*
X-49462Y114153D01*
X-49397Y114103D01*
X-49320Y114065D01*
X-49249Y114027D01*
X-49173Y113994D01*
X-49107Y113972D01*
X-49058Y113956D01*
X-49036Y113951D01*
X-49020Y113945D01*
X-49014Y113940D01*
X-49009D01*
X-49129Y113486D01*
X-49266Y113525D01*
X-49386Y113574D01*
X-49495Y113623D01*
X-49582Y113667D01*
X-49653Y113710D01*
X-49702Y113743D01*
X-49735Y113765D01*
X-49746Y113776D01*
X-49833Y113852D01*
X-49904Y113934D01*
X-49970Y114022D01*
X-50024Y114103D01*
X-50063Y114180D01*
X-50095Y114240D01*
X-50106Y114262D01*
X-50112Y114278D01*
X-50117Y114289D01*
Y114295D01*
X-50161Y114420D01*
X-50194Y114551D01*
X-50221Y114671D01*
X-50237Y114786D01*
X-50248Y114890D01*
Y114933D01*
X-50254Y114966D01*
Y115141D01*
X-50243Y115239D01*
X-50216Y115430D01*
X-50199Y115518D01*
X-50177Y115600D01*
X-50161Y115676D01*
X-50139Y115747D01*
X-50117Y115812D01*
X-50095Y115867D01*
X-50074Y115916D01*
X-50057Y115960D01*
X-50041Y115993D01*
X-50030Y116014D01*
X-50024Y116031D01*
X-50019Y116036D01*
X-49970Y116113D01*
X-49921Y116189D01*
X-49806Y116320D01*
X-49691Y116435D01*
X-49571Y116528D01*
X-49468Y116604D01*
X-49424Y116631D01*
X-49380Y116653D01*
X-49347Y116675D01*
X-49326Y116686D01*
X-49309Y116692D01*
X-49304Y116697D01*
X-49124Y116773D01*
X-48943Y116828D01*
X-48769Y116872D01*
X-48687Y116883D01*
X-48610Y116899D01*
X-48539Y116904D01*
X-48479Y116915D01*
X-48419Y116921D01*
X-48370D01*
X-48332Y116926D01*
X-48305D01*
X-48283D01*
X-48277D01*
X-48075Y116915D01*
D02*
G37*
G36*
X-46410Y109861D02*
X-46858D01*
Y112181D01*
X-48141D01*
Y110090D01*
X-48588D01*
Y112181D01*
X-49741D01*
Y109948D01*
X-50188D01*
Y112684D01*
X-46410D01*
Y109861D01*
D02*
G37*
G36*
Y108660D02*
X-48086D01*
Y108016D01*
X-48081Y107955D01*
Y107912D01*
X-48075Y107874D01*
X-48070Y107846D01*
Y107824D01*
X-48064Y107814D01*
Y107808D01*
X-48037Y107721D01*
X-48021Y107682D01*
X-48004Y107650D01*
X-47988Y107617D01*
X-47977Y107595D01*
X-47971Y107584D01*
X-47966Y107579D01*
X-47933Y107535D01*
X-47895Y107491D01*
X-47813Y107409D01*
X-47775Y107371D01*
X-47742Y107344D01*
X-47720Y107327D01*
X-47715Y107322D01*
X-47638Y107267D01*
X-47557Y107207D01*
X-47469Y107147D01*
X-47387Y107087D01*
X-47311Y107038D01*
X-47251Y107000D01*
X-47229Y106984D01*
X-47213Y106973D01*
X-47202Y106962D01*
X-47196D01*
X-46410Y106465D01*
Y105842D01*
X-47436Y106492D01*
X-47546Y106569D01*
X-47644Y106640D01*
X-47726Y106711D01*
X-47802Y106771D01*
X-47857Y106825D01*
X-47901Y106869D01*
X-47928Y106896D01*
X-47939Y106907D01*
X-47971Y106951D01*
X-48010Y107000D01*
X-48070Y107098D01*
X-48092Y107142D01*
X-48114Y107175D01*
X-48124Y107196D01*
X-48130Y107207D01*
X-48146Y107109D01*
X-48163Y107016D01*
X-48190Y106934D01*
X-48212Y106852D01*
X-48239Y106781D01*
X-48272Y106716D01*
X-48299Y106656D01*
X-48326Y106601D01*
X-48359Y106558D01*
X-48386Y106514D01*
X-48408Y106481D01*
X-48430Y106454D01*
X-48447Y106432D01*
X-48463Y106416D01*
X-48468Y106410D01*
X-48474Y106405D01*
X-48528Y106361D01*
X-48583Y106317D01*
X-48698Y106252D01*
X-48812Y106208D01*
X-48922Y106175D01*
X-49014Y106154D01*
X-49053Y106148D01*
X-49091D01*
X-49118Y106143D01*
X-49140D01*
X-49151D01*
X-49156D01*
X-49271Y106148D01*
X-49375Y106165D01*
X-49473Y106192D01*
X-49555Y106219D01*
X-49626Y106252D01*
X-49681Y106274D01*
X-49713Y106296D01*
X-49719Y106301D01*
X-49724D01*
X-49812Y106367D01*
X-49888Y106432D01*
X-49953Y106503D01*
X-50003Y106569D01*
X-50041Y106629D01*
X-50063Y106678D01*
X-50079Y106711D01*
X-50085Y106716D01*
Y106721D01*
X-50101Y106771D01*
X-50117Y106831D01*
X-50145Y106951D01*
X-50161Y107082D01*
X-50177Y107202D01*
X-50183Y107317D01*
Y107366D01*
X-50188Y107409D01*
Y109162D01*
X-46410D01*
Y108660D01*
D02*
G37*
G36*
Y103369D02*
X-48190D01*
Y101414D01*
X-46410D01*
Y100912D01*
X-50188D01*
Y101414D01*
X-48638D01*
Y103369D01*
X-50188D01*
Y103871D01*
X-46410D01*
Y103369D01*
D02*
G37*
G36*
Y99492D02*
X-50188D01*
Y99995D01*
X-46410D01*
Y99492D01*
D02*
G37*
G36*
X-48075Y98728D02*
X-47884Y98701D01*
X-47797Y98684D01*
X-47715Y98668D01*
X-47633Y98646D01*
X-47562Y98624D01*
X-47497Y98602D01*
X-47442Y98581D01*
X-47387Y98564D01*
X-47349Y98548D01*
X-47311Y98532D01*
X-47289Y98521D01*
X-47273Y98510D01*
X-47267D01*
X-47109Y98411D01*
X-46972Y98302D01*
X-46852Y98188D01*
X-46754Y98078D01*
X-46678Y97975D01*
X-46650Y97936D01*
X-46623Y97898D01*
X-46606Y97865D01*
X-46590Y97843D01*
X-46585Y97827D01*
X-46579Y97822D01*
X-46536Y97734D01*
X-46503Y97647D01*
X-46443Y97472D01*
X-46404Y97303D01*
X-46372Y97145D01*
X-46366Y97074D01*
X-46355Y97008D01*
X-46350Y96948D01*
Y96899D01*
X-46344Y96861D01*
Y96806D01*
X-46350Y96653D01*
X-46366Y96506D01*
X-46394Y96369D01*
X-46421Y96249D01*
X-46432Y96200D01*
X-46443Y96151D01*
X-46459Y96107D01*
X-46470Y96069D01*
X-46481Y96042D01*
X-46486Y96020D01*
X-46492Y96009D01*
Y96004D01*
X-46552Y95856D01*
X-46623Y95720D01*
X-46699Y95588D01*
X-46770Y95474D01*
X-46803Y95425D01*
X-46836Y95376D01*
X-46863Y95337D01*
X-46885Y95305D01*
X-46907Y95277D01*
X-46923Y95256D01*
X-46929Y95245D01*
X-46934Y95239D01*
X-48337D01*
Y96844D01*
X-47890D01*
Y95731D01*
X-47180D01*
X-47125Y95796D01*
X-47076Y95872D01*
X-47032Y95954D01*
X-46994Y96031D01*
X-46961Y96096D01*
X-46934Y96156D01*
X-46923Y96178D01*
X-46918Y96189D01*
X-46912Y96200D01*
Y96206D01*
X-46874Y96320D01*
X-46841Y96435D01*
X-46819Y96539D01*
X-46808Y96637D01*
X-46798Y96719D01*
Y96751D01*
X-46792Y96784D01*
Y96839D01*
X-46798Y96975D01*
X-46819Y97106D01*
X-46847Y97227D01*
X-46874Y97336D01*
X-46907Y97423D01*
X-46918Y97461D01*
X-46929Y97489D01*
X-46940Y97516D01*
X-46951Y97532D01*
X-46956Y97543D01*
Y97549D01*
X-47027Y97663D01*
X-47103Y97767D01*
X-47185Y97854D01*
X-47267Y97925D01*
X-47344Y97986D01*
X-47404Y98024D01*
X-47425Y98040D01*
X-47442Y98046D01*
X-47453Y98057D01*
X-47458D01*
X-47595Y98111D01*
X-47737Y98155D01*
X-47879Y98182D01*
X-48015Y98204D01*
X-48075Y98209D01*
X-48130Y98215D01*
X-48184Y98220D01*
X-48228D01*
X-48261Y98226D01*
X-48288D01*
X-48305D01*
X-48310D01*
X-48463Y98220D01*
X-48599Y98204D01*
X-48730Y98182D01*
X-48845Y98155D01*
X-48894Y98144D01*
X-48938Y98127D01*
X-48976Y98116D01*
X-49009Y98106D01*
X-49036Y98095D01*
X-49053Y98089D01*
X-49064Y98084D01*
X-49069D01*
X-49145Y98046D01*
X-49216Y98007D01*
X-49282Y97969D01*
X-49336Y97931D01*
X-49380Y97898D01*
X-49418Y97871D01*
X-49440Y97849D01*
X-49446Y97843D01*
X-49506Y97783D01*
X-49560Y97718D01*
X-49604Y97647D01*
X-49648Y97581D01*
X-49675Y97527D01*
X-49702Y97483D01*
X-49713Y97450D01*
X-49719Y97439D01*
X-49757Y97341D01*
X-49784Y97243D01*
X-49801Y97139D01*
X-49817Y97046D01*
X-49823Y96965D01*
Y96932D01*
X-49828Y96904D01*
Y96844D01*
X-49823Y96741D01*
X-49812Y96642D01*
X-49795Y96555D01*
X-49779Y96478D01*
X-49757Y96413D01*
X-49741Y96364D01*
X-49730Y96337D01*
X-49724Y96326D01*
X-49686Y96244D01*
X-49642Y96173D01*
X-49599Y96107D01*
X-49555Y96058D01*
X-49517Y96020D01*
X-49489Y95987D01*
X-49468Y95971D01*
X-49462Y95965D01*
X-49397Y95916D01*
X-49320Y95878D01*
X-49249Y95840D01*
X-49173Y95807D01*
X-49107Y95785D01*
X-49058Y95769D01*
X-49036Y95763D01*
X-49020Y95758D01*
X-49014Y95752D01*
X-49009D01*
X-49129Y95299D01*
X-49266Y95337D01*
X-49386Y95386D01*
X-49495Y95436D01*
X-49582Y95479D01*
X-49653Y95523D01*
X-49702Y95556D01*
X-49735Y95578D01*
X-49746Y95588D01*
X-49833Y95665D01*
X-49904Y95747D01*
X-49970Y95834D01*
X-50024Y95916D01*
X-50063Y95993D01*
X-50095Y96053D01*
X-50106Y96074D01*
X-50112Y96091D01*
X-50117Y96102D01*
Y96107D01*
X-50161Y96233D01*
X-50194Y96364D01*
X-50221Y96484D01*
X-50237Y96599D01*
X-50248Y96702D01*
Y96746D01*
X-50254Y96779D01*
Y96953D01*
X-50243Y97052D01*
X-50216Y97243D01*
X-50199Y97330D01*
X-50177Y97412D01*
X-50161Y97489D01*
X-50139Y97560D01*
X-50117Y97625D01*
X-50095Y97680D01*
X-50074Y97729D01*
X-50057Y97773D01*
X-50041Y97805D01*
X-50030Y97827D01*
X-50024Y97843D01*
X-50019Y97849D01*
X-49970Y97925D01*
X-49921Y98002D01*
X-49806Y98133D01*
X-49691Y98248D01*
X-49571Y98340D01*
X-49468Y98417D01*
X-49424Y98444D01*
X-49380Y98466D01*
X-49347Y98488D01*
X-49326Y98499D01*
X-49309Y98504D01*
X-49304Y98510D01*
X-49124Y98586D01*
X-48943Y98641D01*
X-48769Y98684D01*
X-48687Y98695D01*
X-48610Y98712D01*
X-48539Y98717D01*
X-48479Y98728D01*
X-48419Y98734D01*
X-48370D01*
X-48332Y98739D01*
X-48305D01*
X-48283D01*
X-48277D01*
X-48075Y98728D01*
D02*
G37*
G36*
X-46410Y93983D02*
X-48190D01*
Y92029D01*
X-46410D01*
Y91526D01*
X-50188D01*
Y92029D01*
X-48638D01*
Y93983D01*
X-50188D01*
Y94486D01*
X-46410D01*
Y93983D01*
D02*
G37*
G36*
Y88152D02*
Y87628D01*
X-50188Y86154D01*
Y86661D01*
X-47442Y87688D01*
X-47327Y87732D01*
X-47218Y87770D01*
X-47114Y87803D01*
X-47021Y87830D01*
X-46940Y87857D01*
X-46880Y87874D01*
X-46858Y87879D01*
X-46841Y87884D01*
X-46830Y87890D01*
X-46825D01*
X-47043Y87955D01*
X-47147Y87988D01*
X-47240Y88021D01*
X-47322Y88048D01*
X-47355Y88059D01*
X-47387Y88065D01*
X-47409Y88076D01*
X-47425Y88081D01*
X-47436Y88086D01*
X-47442D01*
X-50188Y89069D01*
Y89615D01*
X-46410Y88152D01*
D02*
G37*
G36*
X-48059Y85842D02*
X-47890Y85821D01*
X-47726Y85788D01*
X-47655Y85766D01*
X-47584Y85744D01*
X-47524Y85728D01*
X-47469Y85706D01*
X-47420Y85690D01*
X-47376Y85673D01*
X-47344Y85662D01*
X-47322Y85651D01*
X-47305Y85640D01*
X-47300D01*
X-47142Y85548D01*
X-47005Y85449D01*
X-46885Y85340D01*
X-46787Y85236D01*
X-46705Y85144D01*
X-46672Y85105D01*
X-46650Y85073D01*
X-46628Y85040D01*
X-46612Y85018D01*
X-46606Y85007D01*
X-46601Y85002D01*
X-46557Y84920D01*
X-46519Y84838D01*
X-46454Y84674D01*
X-46410Y84516D01*
X-46377Y84368D01*
X-46366Y84297D01*
X-46361Y84237D01*
X-46350Y84183D01*
Y84133D01*
X-46344Y84101D01*
Y84046D01*
X-46355Y83866D01*
X-46383Y83697D01*
X-46415Y83538D01*
X-46437Y83467D01*
X-46459Y83402D01*
X-46481Y83342D01*
X-46503Y83287D01*
X-46519Y83244D01*
X-46536Y83205D01*
X-46552Y83173D01*
X-46563Y83145D01*
X-46574Y83134D01*
Y83129D01*
X-46672Y82976D01*
X-46781Y82845D01*
X-46896Y82736D01*
X-47005Y82643D01*
X-47109Y82566D01*
X-47147Y82539D01*
X-47185Y82517D01*
X-47218Y82495D01*
X-47240Y82485D01*
X-47256Y82474D01*
X-47262D01*
X-47349Y82430D01*
X-47436Y82397D01*
X-47611Y82337D01*
X-47786Y82293D01*
X-47944Y82266D01*
X-48015Y82261D01*
X-48081Y82250D01*
X-48141Y82244D01*
X-48190D01*
X-48234Y82239D01*
X-48261D01*
X-48283D01*
X-48288D01*
X-48496Y82250D01*
X-48687Y82272D01*
X-48774Y82288D01*
X-48862Y82310D01*
X-48938Y82332D01*
X-49009Y82348D01*
X-49074Y82370D01*
X-49134Y82392D01*
X-49184Y82408D01*
X-49227Y82430D01*
X-49260Y82441D01*
X-49282Y82452D01*
X-49298Y82463D01*
X-49304D01*
X-49462Y82550D01*
X-49604Y82654D01*
X-49724Y82763D01*
X-49823Y82861D01*
X-49899Y82954D01*
X-49932Y82998D01*
X-49959Y83031D01*
X-49975Y83063D01*
X-49992Y83085D01*
X-49997Y83096D01*
X-50003Y83101D01*
X-50046Y83183D01*
X-50085Y83265D01*
X-50150Y83424D01*
X-50194Y83587D01*
X-50221Y83729D01*
X-50232Y83795D01*
X-50243Y83860D01*
X-50248Y83910D01*
Y83959D01*
X-50254Y83997D01*
Y84046D01*
X-50248Y84193D01*
X-50232Y84330D01*
X-50205Y84461D01*
X-50172Y84587D01*
X-50128Y84701D01*
X-50085Y84811D01*
X-50035Y84909D01*
X-49986Y84996D01*
X-49937Y85078D01*
X-49888Y85149D01*
X-49844Y85209D01*
X-49801Y85258D01*
X-49768Y85296D01*
X-49741Y85329D01*
X-49724Y85346D01*
X-49719Y85351D01*
X-49615Y85438D01*
X-49506Y85515D01*
X-49386Y85586D01*
X-49266Y85640D01*
X-49140Y85690D01*
X-49020Y85733D01*
X-48900Y85766D01*
X-48785Y85788D01*
X-48676Y85810D01*
X-48572Y85826D01*
X-48479Y85837D01*
X-48403Y85848D01*
X-48337D01*
X-48288Y85853D01*
X-48255D01*
X-48250D01*
X-48245D01*
X-48059Y85842D01*
D02*
G37*
G36*
X-46410Y79252D02*
X-46858D01*
Y81114D01*
X-50188D01*
Y81616D01*
X-46410D01*
Y79252D01*
D02*
G37*
G36*
X-49741Y77696D02*
X-46410D01*
Y77194D01*
X-49741D01*
Y75949D01*
X-50188D01*
Y78941D01*
X-49741D01*
Y77696D01*
D02*
G37*
G36*
X-46410Y75316D02*
X-47557Y74906D01*
Y73323D01*
X-46410Y72880D01*
Y72313D01*
X-50188Y73858D01*
Y74404D01*
X-46410Y75845D01*
Y75316D01*
D02*
G37*
G36*
X-48075Y72029D02*
X-47884Y72001D01*
X-47797Y71985D01*
X-47715Y71969D01*
X-47633Y71947D01*
X-47562Y71925D01*
X-47497Y71903D01*
X-47442Y71881D01*
X-47387Y71865D01*
X-47349Y71848D01*
X-47311Y71832D01*
X-47289Y71821D01*
X-47273Y71810D01*
X-47267D01*
X-47109Y71712D01*
X-46972Y71603D01*
X-46852Y71488D01*
X-46754Y71379D01*
X-46678Y71275D01*
X-46650Y71237D01*
X-46623Y71199D01*
X-46606Y71166D01*
X-46590Y71144D01*
X-46585Y71128D01*
X-46579Y71122D01*
X-46536Y71035D01*
X-46503Y70948D01*
X-46443Y70773D01*
X-46404Y70604D01*
X-46372Y70445D01*
X-46366Y70374D01*
X-46355Y70309D01*
X-46350Y70249D01*
Y70200D01*
X-46344Y70161D01*
Y70107D01*
X-46350Y69954D01*
X-46366Y69806D01*
X-46394Y69670D01*
X-46421Y69550D01*
X-46432Y69501D01*
X-46443Y69451D01*
X-46459Y69408D01*
X-46470Y69370D01*
X-46481Y69342D01*
X-46486Y69320D01*
X-46492Y69310D01*
Y69304D01*
X-46552Y69157D01*
X-46623Y69020D01*
X-46699Y68889D01*
X-46770Y68774D01*
X-46803Y68725D01*
X-46836Y68676D01*
X-46863Y68638D01*
X-46885Y68605D01*
X-46907Y68578D01*
X-46923Y68556D01*
X-46929Y68545D01*
X-46934Y68540D01*
X-48337D01*
Y70145D01*
X-47890D01*
Y69031D01*
X-47180D01*
X-47125Y69097D01*
X-47076Y69173D01*
X-47032Y69255D01*
X-46994Y69331D01*
X-46961Y69397D01*
X-46934Y69457D01*
X-46923Y69479D01*
X-46918Y69490D01*
X-46912Y69501D01*
Y69506D01*
X-46874Y69621D01*
X-46841Y69735D01*
X-46819Y69839D01*
X-46808Y69937D01*
X-46798Y70019D01*
Y70052D01*
X-46792Y70085D01*
Y70139D01*
X-46798Y70276D01*
X-46819Y70407D01*
X-46847Y70527D01*
X-46874Y70636D01*
X-46907Y70724D01*
X-46918Y70762D01*
X-46929Y70789D01*
X-46940Y70816D01*
X-46951Y70833D01*
X-46956Y70844D01*
Y70849D01*
X-47027Y70964D01*
X-47103Y71068D01*
X-47185Y71155D01*
X-47267Y71226D01*
X-47344Y71286D01*
X-47404Y71324D01*
X-47425Y71341D01*
X-47442Y71346D01*
X-47453Y71357D01*
X-47458D01*
X-47595Y71412D01*
X-47737Y71455D01*
X-47879Y71483D01*
X-48015Y71504D01*
X-48075Y71510D01*
X-48130Y71515D01*
X-48184Y71521D01*
X-48228D01*
X-48261Y71526D01*
X-48288D01*
X-48305D01*
X-48310D01*
X-48463Y71521D01*
X-48599Y71504D01*
X-48730Y71483D01*
X-48845Y71455D01*
X-48894Y71444D01*
X-48938Y71428D01*
X-48976Y71417D01*
X-49009Y71406D01*
X-49036Y71395D01*
X-49053Y71390D01*
X-49064Y71384D01*
X-49069D01*
X-49145Y71346D01*
X-49216Y71308D01*
X-49282Y71270D01*
X-49336Y71232D01*
X-49380Y71199D01*
X-49418Y71171D01*
X-49440Y71150D01*
X-49446Y71144D01*
X-49506Y71084D01*
X-49560Y71019D01*
X-49604Y70948D01*
X-49648Y70882D01*
X-49675Y70827D01*
X-49702Y70784D01*
X-49713Y70751D01*
X-49719Y70740D01*
X-49757Y70642D01*
X-49784Y70543D01*
X-49801Y70440D01*
X-49817Y70347D01*
X-49823Y70265D01*
Y70232D01*
X-49828Y70205D01*
Y70145D01*
X-49823Y70041D01*
X-49812Y69943D01*
X-49795Y69856D01*
X-49779Y69779D01*
X-49757Y69714D01*
X-49741Y69665D01*
X-49730Y69637D01*
X-49724Y69626D01*
X-49686Y69544D01*
X-49642Y69473D01*
X-49599Y69408D01*
X-49555Y69359D01*
X-49517Y69320D01*
X-49489Y69288D01*
X-49468Y69271D01*
X-49462Y69266D01*
X-49397Y69217D01*
X-49320Y69178D01*
X-49249Y69140D01*
X-49173Y69108D01*
X-49107Y69086D01*
X-49058Y69069D01*
X-49036Y69064D01*
X-49020Y69058D01*
X-49014Y69053D01*
X-49009D01*
X-49129Y68600D01*
X-49266Y68638D01*
X-49386Y68687D01*
X-49495Y68736D01*
X-49582Y68780D01*
X-49653Y68824D01*
X-49702Y68856D01*
X-49735Y68878D01*
X-49746Y68889D01*
X-49833Y68966D01*
X-49904Y69047D01*
X-49970Y69135D01*
X-50024Y69217D01*
X-50063Y69293D01*
X-50095Y69353D01*
X-50106Y69375D01*
X-50112Y69392D01*
X-50117Y69402D01*
Y69408D01*
X-50161Y69533D01*
X-50194Y69665D01*
X-50221Y69785D01*
X-50237Y69899D01*
X-50248Y70003D01*
Y70047D01*
X-50254Y70079D01*
Y70254D01*
X-50243Y70352D01*
X-50216Y70543D01*
X-50199Y70631D01*
X-50177Y70713D01*
X-50161Y70789D01*
X-50139Y70860D01*
X-50117Y70926D01*
X-50095Y70980D01*
X-50074Y71030D01*
X-50057Y71073D01*
X-50041Y71106D01*
X-50030Y71128D01*
X-50024Y71144D01*
X-50019Y71150D01*
X-49970Y71226D01*
X-49921Y71302D01*
X-49806Y71434D01*
X-49691Y71548D01*
X-49571Y71641D01*
X-49468Y71717D01*
X-49424Y71745D01*
X-49380Y71767D01*
X-49347Y71788D01*
X-49326Y71799D01*
X-49309Y71805D01*
X-49304Y71810D01*
X-49124Y71887D01*
X-48943Y71941D01*
X-48769Y71985D01*
X-48687Y71996D01*
X-48610Y72012D01*
X-48539Y72018D01*
X-48479Y72029D01*
X-48419Y72034D01*
X-48370D01*
X-48332Y72040D01*
X-48305D01*
X-48283D01*
X-48277D01*
X-48075Y72029D01*
D02*
G37*
G36*
X-46410Y64974D02*
X-46858D01*
Y67295D01*
X-48141D01*
Y65204D01*
X-48588D01*
Y67295D01*
X-49741D01*
Y65062D01*
X-50188D01*
Y67797D01*
X-46410D01*
Y64974D01*
D02*
G37*
%LPC*%
G36*
X47966Y119432D02*
Y118155D01*
X49069Y118564D01*
X49205Y118613D01*
X49336Y118652D01*
X49457Y118690D01*
X49566Y118717D01*
X49659Y118739D01*
X49697Y118750D01*
X49735Y118755D01*
X49757Y118766D01*
X49779D01*
X49790Y118772D01*
X49795D01*
X49670Y118810D01*
X49539Y118854D01*
X49408Y118897D01*
X49282Y118941D01*
X49227Y118963D01*
X49173Y118979D01*
X49124Y118996D01*
X49085Y119012D01*
X49053Y119023D01*
X49025Y119034D01*
X49009Y119039D01*
X49003D01*
X47966Y119432D01*
D02*
G37*
G36*
X48370Y110161D02*
X48337D01*
X48316D01*
X48299D01*
X48294D01*
X48163Y110156D01*
X48037Y110145D01*
X47917Y110129D01*
X47808Y110107D01*
X47710Y110074D01*
X47617Y110047D01*
X47529Y110014D01*
X47453Y109981D01*
X47387Y109943D01*
X47327Y109910D01*
X47278Y109883D01*
X47240Y109856D01*
X47207Y109828D01*
X47180Y109812D01*
X47169Y109801D01*
X47164Y109795D01*
X47093Y109724D01*
X47032Y109648D01*
X46983Y109572D01*
X46934Y109495D01*
X46896Y109419D01*
X46869Y109337D01*
X46841Y109266D01*
X46819Y109189D01*
X46803Y109124D01*
X46792Y109058D01*
X46781Y109004D01*
X46776Y108955D01*
Y108916D01*
X46770Y108889D01*
Y108862D01*
X46776Y108758D01*
X46787Y108660D01*
X46809Y108572D01*
X46830Y108485D01*
X46863Y108403D01*
X46896Y108327D01*
X46929Y108256D01*
X46967Y108190D01*
X47005Y108136D01*
X47038Y108087D01*
X47071Y108043D01*
X47103Y108005D01*
X47125Y107977D01*
X47147Y107956D01*
X47158Y107945D01*
X47164Y107939D01*
X47240Y107874D01*
X47322Y107819D01*
X47409Y107770D01*
X47497Y107726D01*
X47589Y107693D01*
X47677Y107661D01*
X47851Y107617D01*
X47928Y107606D01*
X48004Y107595D01*
X48070Y107584D01*
X48124Y107579D01*
X48174Y107573D01*
X48212D01*
X48234D01*
X48239D01*
X48392Y107579D01*
X48534Y107590D01*
X48670Y107606D01*
X48790Y107633D01*
X48900Y107661D01*
X48998Y107693D01*
X49091Y107732D01*
X49167Y107764D01*
X49238Y107803D01*
X49298Y107835D01*
X49347Y107868D01*
X49386Y107895D01*
X49418Y107923D01*
X49440Y107939D01*
X49451Y107950D01*
X49457Y107956D01*
X49522Y108027D01*
X49577Y108103D01*
X49626Y108179D01*
X49670Y108261D01*
X49702Y108338D01*
X49735Y108414D01*
X49779Y108556D01*
X49790Y108622D01*
X49801Y108682D01*
X49812Y108731D01*
X49817Y108780D01*
X49823Y108818D01*
Y108867D01*
X49817Y109004D01*
X49795Y109135D01*
X49762Y109249D01*
X49730Y109348D01*
X49691Y109430D01*
X49675Y109462D01*
X49664Y109490D01*
X49648Y109517D01*
X49642Y109533D01*
X49631Y109539D01*
Y109544D01*
X49555Y109648D01*
X49468Y109741D01*
X49380Y109823D01*
X49293Y109888D01*
X49216Y109938D01*
X49151Y109976D01*
X49129Y109987D01*
X49113Y109997D01*
X49102Y110003D01*
X49096D01*
X48965Y110058D01*
X48823Y110096D01*
X48692Y110123D01*
X48567Y110140D01*
X48507Y110150D01*
X48458Y110156D01*
X48408D01*
X48370Y110161D01*
D02*
G37*
G36*
X49162Y86257D02*
X49156D01*
X49151D01*
X49085Y86252D01*
X49020Y86241D01*
X48965Y86225D01*
X48916Y86208D01*
X48872Y86186D01*
X48840Y86170D01*
X48818Y86159D01*
X48812Y86154D01*
X48758Y86115D01*
X48709Y86066D01*
X48670Y86017D01*
X48638Y85968D01*
X48616Y85924D01*
X48599Y85892D01*
X48588Y85870D01*
X48583Y85859D01*
X48561Y85782D01*
X48545Y85695D01*
X48534Y85608D01*
X48529Y85520D01*
X48523Y85444D01*
X48518Y85378D01*
Y84254D01*
X49768D01*
Y85444D01*
X49762Y85591D01*
X49741Y85717D01*
X49713Y85826D01*
X49681Y85908D01*
X49648Y85979D01*
X49621Y86023D01*
X49599Y86050D01*
X49593Y86061D01*
X49522Y86126D01*
X49451Y86176D01*
X49375Y86208D01*
X49309Y86236D01*
X49244Y86247D01*
X49195Y86252D01*
X49162Y86257D01*
D02*
G37*
G36*
X47966Y70735D02*
Y69457D01*
X49069Y69867D01*
X49205Y69916D01*
X49336Y69954D01*
X49457Y69992D01*
X49566Y70019D01*
X49659Y70041D01*
X49697Y70052D01*
X49735Y70058D01*
X49757Y70069D01*
X49779D01*
X49790Y70074D01*
X49795D01*
X49670Y70112D01*
X49539Y70156D01*
X49408Y70200D01*
X49282Y70243D01*
X49227Y70265D01*
X49173Y70281D01*
X49124Y70298D01*
X49085Y70314D01*
X49053Y70325D01*
X49025Y70336D01*
X49009Y70341D01*
X49003D01*
X47966Y70735D01*
D02*
G37*
G36*
X48381Y67584D02*
X48354D01*
X48332D01*
X48326D01*
X48174Y67579D01*
X48032Y67568D01*
X47906Y67551D01*
X47797Y67535D01*
X47753Y67524D01*
X47715Y67513D01*
X47677Y67502D01*
X47649Y67497D01*
X47628Y67491D01*
X47611Y67486D01*
X47600Y67480D01*
X47595D01*
X47491Y67442D01*
X47398Y67399D01*
X47316Y67349D01*
X47245Y67306D01*
X47191Y67268D01*
X47153Y67235D01*
X47131Y67213D01*
X47120Y67207D01*
X47076Y67153D01*
X47038Y67098D01*
X47005Y67044D01*
X46972Y66989D01*
X46951Y66940D01*
X46934Y66902D01*
X46929Y66874D01*
X46923Y66864D01*
X46901Y66782D01*
X46885Y66683D01*
X46874Y66585D01*
X46869Y66492D01*
X46863Y66410D01*
X46858Y66372D01*
Y65477D01*
X49741D01*
Y66350D01*
X49735Y66421D01*
Y66492D01*
X49730Y66558D01*
X49713Y66667D01*
X49702Y66754D01*
X49686Y66825D01*
X49670Y66874D01*
X49664Y66902D01*
X49659Y66913D01*
X49610Y67011D01*
X49549Y67104D01*
X49479Y67186D01*
X49408Y67257D01*
X49342Y67311D01*
X49287Y67355D01*
X49266Y67366D01*
X49249Y67377D01*
X49238Y67388D01*
X49233D01*
X49173Y67420D01*
X49102Y67453D01*
X48960Y67502D01*
X48807Y67535D01*
X48660Y67562D01*
X48594Y67568D01*
X48529Y67573D01*
X48474Y67579D01*
X48425D01*
X48381Y67584D01*
D02*
G37*
G36*
X-46858Y127437D02*
X-49741D01*
Y126563D01*
X-49735Y126492D01*
Y126421D01*
X-49730Y126356D01*
X-49713Y126247D01*
X-49702Y126159D01*
X-49686Y126088D01*
X-49670Y126039D01*
X-49664Y126012D01*
X-49659Y126001D01*
X-49610Y125902D01*
X-49549Y125810D01*
X-49479Y125728D01*
X-49408Y125657D01*
X-49342Y125602D01*
X-49287Y125558D01*
X-49266Y125548D01*
X-49249Y125537D01*
X-49238Y125526D01*
X-49233D01*
X-49173Y125493D01*
X-49102Y125460D01*
X-48960Y125411D01*
X-48807Y125378D01*
X-48660Y125351D01*
X-48594Y125346D01*
X-48528Y125340D01*
X-48474Y125335D01*
X-48425D01*
X-48381Y125329D01*
X-48354D01*
X-48332D01*
X-48326D01*
X-48173Y125335D01*
X-48032Y125346D01*
X-47906Y125362D01*
X-47797Y125378D01*
X-47753Y125389D01*
X-47715Y125400D01*
X-47677Y125411D01*
X-47649Y125417D01*
X-47627Y125422D01*
X-47611Y125427D01*
X-47600Y125433D01*
X-47595D01*
X-47491Y125471D01*
X-47398Y125515D01*
X-47316Y125564D01*
X-47245Y125608D01*
X-47191Y125646D01*
X-47153Y125679D01*
X-47131Y125700D01*
X-47120Y125706D01*
X-47076Y125760D01*
X-47038Y125815D01*
X-47005Y125870D01*
X-46972Y125924D01*
X-46951Y125973D01*
X-46934Y126012D01*
X-46929Y126039D01*
X-46923Y126050D01*
X-46901Y126132D01*
X-46885Y126230D01*
X-46874Y126328D01*
X-46869Y126421D01*
X-46863Y126503D01*
X-46858Y126541D01*
Y127437D01*
D02*
G37*
G36*
X-47966Y123456D02*
X-49069Y123047D01*
X-49205Y122998D01*
X-49336Y122959D01*
X-49457Y122921D01*
X-49566Y122894D01*
X-49659Y122872D01*
X-49697Y122861D01*
X-49735Y122856D01*
X-49757Y122845D01*
X-49779D01*
X-49790Y122839D01*
X-49795D01*
X-49670Y122801D01*
X-49538Y122757D01*
X-49408Y122714D01*
X-49282Y122670D01*
X-49227Y122648D01*
X-49173Y122632D01*
X-49124Y122616D01*
X-49085Y122599D01*
X-49053Y122588D01*
X-49025Y122577D01*
X-49009Y122572D01*
X-49003D01*
X-47966Y122179D01*
Y123456D01*
D02*
G37*
G36*
X-48518Y108660D02*
X-49768D01*
Y107469D01*
X-49762Y107322D01*
X-49741Y107196D01*
X-49713Y107087D01*
X-49681Y107005D01*
X-49648Y106934D01*
X-49620Y106891D01*
X-49599Y106863D01*
X-49593Y106852D01*
X-49522Y106787D01*
X-49451Y106738D01*
X-49375Y106705D01*
X-49309Y106678D01*
X-49244Y106667D01*
X-49195Y106661D01*
X-49162Y106656D01*
X-49156D01*
X-49151D01*
X-49085Y106661D01*
X-49020Y106672D01*
X-48965Y106689D01*
X-48916Y106705D01*
X-48872Y106727D01*
X-48840Y106743D01*
X-48818Y106754D01*
X-48812Y106760D01*
X-48758Y106798D01*
X-48709Y106847D01*
X-48670Y106896D01*
X-48638Y106945D01*
X-48616Y106989D01*
X-48599Y107022D01*
X-48588Y107044D01*
X-48583Y107054D01*
X-48561Y107131D01*
X-48545Y107218D01*
X-48534Y107306D01*
X-48528Y107393D01*
X-48523Y107469D01*
X-48518Y107535D01*
Y108660D01*
D02*
G37*
G36*
X-48173Y85340D02*
X-48212D01*
X-48234D01*
X-48239D01*
X-48392Y85335D01*
X-48534Y85324D01*
X-48670Y85307D01*
X-48790Y85280D01*
X-48900Y85253D01*
X-48998Y85220D01*
X-49091Y85182D01*
X-49167Y85149D01*
X-49238Y85111D01*
X-49298Y85078D01*
X-49347Y85045D01*
X-49386Y85018D01*
X-49418Y84991D01*
X-49440Y84974D01*
X-49451Y84963D01*
X-49457Y84958D01*
X-49522Y84887D01*
X-49577Y84811D01*
X-49626Y84734D01*
X-49670Y84652D01*
X-49702Y84576D01*
X-49735Y84499D01*
X-49779Y84357D01*
X-49790Y84292D01*
X-49801Y84232D01*
X-49812Y84183D01*
X-49817Y84133D01*
X-49823Y84095D01*
Y84046D01*
X-49817Y83910D01*
X-49795Y83779D01*
X-49762Y83664D01*
X-49730Y83566D01*
X-49691Y83484D01*
X-49675Y83451D01*
X-49664Y83424D01*
X-49648Y83396D01*
X-49642Y83380D01*
X-49631Y83375D01*
Y83369D01*
X-49555Y83265D01*
X-49468Y83173D01*
X-49380Y83091D01*
X-49293Y83025D01*
X-49216Y82976D01*
X-49151Y82938D01*
X-49129Y82927D01*
X-49113Y82916D01*
X-49102Y82910D01*
X-49096D01*
X-48965Y82856D01*
X-48823Y82818D01*
X-48692Y82790D01*
X-48567Y82774D01*
X-48507Y82763D01*
X-48458Y82758D01*
X-48408D01*
X-48370Y82752D01*
X-48337D01*
X-48316D01*
X-48299D01*
X-48294D01*
X-48163Y82758D01*
X-48037Y82768D01*
X-47917Y82785D01*
X-47808Y82807D01*
X-47709Y82839D01*
X-47617Y82867D01*
X-47529Y82899D01*
X-47453Y82932D01*
X-47387Y82970D01*
X-47327Y83003D01*
X-47278Y83031D01*
X-47240Y83058D01*
X-47207Y83085D01*
X-47180Y83101D01*
X-47169Y83113D01*
X-47163Y83118D01*
X-47093Y83189D01*
X-47032Y83265D01*
X-46983Y83342D01*
X-46934Y83418D01*
X-46896Y83495D01*
X-46869Y83577D01*
X-46841Y83648D01*
X-46819Y83724D01*
X-46803Y83789D01*
X-46792Y83855D01*
X-46781Y83910D01*
X-46776Y83959D01*
Y83997D01*
X-46770Y84024D01*
Y84052D01*
X-46776Y84155D01*
X-46787Y84254D01*
X-46808Y84341D01*
X-46830Y84428D01*
X-46863Y84510D01*
X-46896Y84587D01*
X-46929Y84658D01*
X-46967Y84723D01*
X-47005Y84778D01*
X-47038Y84827D01*
X-47071Y84871D01*
X-47103Y84909D01*
X-47125Y84936D01*
X-47147Y84958D01*
X-47158Y84969D01*
X-47163Y84974D01*
X-47240Y85040D01*
X-47322Y85094D01*
X-47409Y85144D01*
X-47497Y85187D01*
X-47589Y85220D01*
X-47677Y85253D01*
X-47851Y85296D01*
X-47928Y85307D01*
X-48004Y85318D01*
X-48070Y85329D01*
X-48124Y85335D01*
X-48173Y85340D01*
D02*
G37*
G36*
X-47966Y74759D02*
X-49069Y74349D01*
X-49205Y74300D01*
X-49336Y74262D01*
X-49457Y74224D01*
X-49566Y74196D01*
X-49659Y74174D01*
X-49697Y74164D01*
X-49735Y74158D01*
X-49757Y74147D01*
X-49779D01*
X-49790Y74142D01*
X-49795D01*
X-49670Y74103D01*
X-49538Y74060D01*
X-49408Y74016D01*
X-49282Y73972D01*
X-49227Y73951D01*
X-49173Y73934D01*
X-49124Y73918D01*
X-49085Y73901D01*
X-49053Y73891D01*
X-49025Y73880D01*
X-49009Y73874D01*
X-49003D01*
X-47966Y73481D01*
Y74759D01*
D02*
G37*
%LPD*%
D18*
X0Y4774D02*
D03*
D19*
X-0Y5315D02*
D03*
D21*
X-44882Y5512D02*
D03*
X-41732D02*
D03*
X-38583D02*
D03*
X-35433D02*
D03*
X-32283D02*
D03*
X-29134D02*
D03*
X-25984D02*
D03*
X-22835D02*
D03*
X-7087D02*
D03*
X-3937D02*
D03*
X-787D02*
D03*
X2362D02*
D03*
X5512D02*
D03*
X8661D02*
D03*
X11811D02*
D03*
X14961D02*
D03*
X18110D02*
D03*
X21260D02*
D03*
X24409D02*
D03*
X27559D02*
D03*
X30709D02*
D03*
X33858D02*
D03*
X37008D02*
D03*
X40157D02*
D03*
X43307D02*
D03*
X46457D02*
D03*
D22*
X-27835Y126969D02*
D03*
X-31220D02*
D03*
X8150Y142717D02*
D03*
X11535D02*
D03*
X8150Y134843D02*
D03*
X11535D02*
D03*
X17992D02*
D03*
X21378D02*
D03*
X27835D02*
D03*
X31220D02*
D03*
X-31220Y130905D02*
D03*
X-27835D02*
D03*
X-21378D02*
D03*
X-17992D02*
D03*
X-11535Y134843D02*
D03*
X-8150D02*
D03*
X-21378D02*
D03*
X-17992D02*
D03*
X-11535Y130905D02*
D03*
X-8150D02*
D03*
X17992Y57087D02*
D03*
X21378D02*
D03*
X-17992D02*
D03*
X-21378D02*
D03*
X-17992Y49213D02*
D03*
X-21378D02*
D03*
X-31220Y134843D02*
D03*
X-27835D02*
D03*
X31220Y138779D02*
D03*
X27835D02*
D03*
X27835Y130905D02*
D03*
X31220D02*
D03*
X17992Y126969D02*
D03*
X21378D02*
D03*
X-21378Y41339D02*
D03*
X-17992D02*
D03*
X-24724Y103347D02*
D03*
X-21339D02*
D03*
X27835Y126969D02*
D03*
X31220D02*
D03*
X17992Y130905D02*
D03*
X21378D02*
D03*
X-24724Y75787D02*
D03*
X-21339D02*
D03*
X-24724Y79724D02*
D03*
X-21339D02*
D03*
X11535Y138779D02*
D03*
X8150D02*
D03*
X21378D02*
D03*
X17992D02*
D03*
X8150Y126969D02*
D03*
X11535D02*
D03*
X8150Y130905D02*
D03*
X11535D02*
D03*
X25905Y83661D02*
D03*
X22520D02*
D03*
X25905Y91535D02*
D03*
X22520D02*
D03*
Y87598D02*
D03*
X25905D02*
D03*
X-24724Y99409D02*
D03*
X-21339D02*
D03*
X25905Y75787D02*
D03*
X22520D02*
D03*
X-21339Y83661D02*
D03*
X-24724D02*
D03*
X22520Y99409D02*
D03*
X25905D02*
D03*
X-17992Y53150D02*
D03*
X-21378D02*
D03*
X22520Y107283D02*
D03*
X25905D02*
D03*
X-24724Y95472D02*
D03*
X-21339D02*
D03*
X25905Y79724D02*
D03*
X22520D02*
D03*
X25905Y103347D02*
D03*
X22520D02*
D03*
X25905Y95472D02*
D03*
X22520D02*
D03*
X-24724Y87598D02*
D03*
X-21339D02*
D03*
X-8150Y126969D02*
D03*
X-11535D02*
D03*
X-21378D02*
D03*
X-17992D02*
D03*
X-21378Y45276D02*
D03*
X-17992D02*
D03*
X-21339Y107283D02*
D03*
X-24724D02*
D03*
X11535Y146653D02*
D03*
X8150D02*
D03*
X21378D02*
D03*
X17992D02*
D03*
X31220D02*
D03*
X27835D02*
D03*
X27835Y142717D02*
D03*
X31220D02*
D03*
X17992D02*
D03*
X21378D02*
D03*
D23*
X-29528Y166339D02*
D03*
X-19685D02*
D03*
X-9843D02*
D03*
X0D02*
D03*
X9843D02*
D03*
X19685D02*
D03*
D24*
X29528D02*
D03*
D25*
X-47638Y189173D02*
D03*
X47638D02*
D03*
D41*
X0Y99410D02*
D03*
D42*
X-6890Y108858D02*
D03*
X-4921D02*
D03*
X-2953D02*
D03*
X-984D02*
D03*
X984D02*
D03*
X2953D02*
D03*
X4921D02*
D03*
X6890D02*
D03*
Y89961D02*
D03*
X4921D02*
D03*
X2953D02*
D03*
X984D02*
D03*
X-984D02*
D03*
X-2953D02*
D03*
X-4921D02*
D03*
X-6890D02*
D03*
D43*
X9449Y106299D02*
D03*
Y104331D02*
D03*
Y102362D02*
D03*
Y100394D02*
D03*
Y98425D02*
D03*
Y96457D02*
D03*
Y94488D02*
D03*
Y92520D02*
D03*
X-9449D02*
D03*
Y94488D02*
D03*
Y96457D02*
D03*
Y98425D02*
D03*
Y100394D02*
D03*
Y102362D02*
D03*
Y104331D02*
D03*
Y106299D02*
D03*
D44*
X-11024Y50463D02*
D03*
Y52965D02*
D03*
Y55465D02*
D03*
Y47961D02*
D03*
Y45461D02*
D03*
Y42961D02*
D03*
Y40461D02*
D03*
Y57965D02*
D03*
X11024Y50463D02*
D03*
Y52965D02*
D03*
Y55465D02*
D03*
Y47961D02*
D03*
Y45461D02*
D03*
Y42961D02*
D03*
Y40461D02*
D03*
Y57965D02*
D03*
D45*
X-9843Y139035D02*
D03*
Y146398D02*
D03*
X-29528Y139035D02*
D03*
Y146398D02*
D03*
X-19685Y139035D02*
D03*
Y146398D02*
D03*
D46*
X2756Y75590D02*
D03*
X-2756D02*
D03*
Y79921D02*
D03*
X2756D02*
D03*
D47*
X6496Y79449D02*
D03*
Y76063D02*
D03*
X-6496D02*
D03*
Y79449D02*
D03*
M02*
