G04*
G04 #@! TF.GenerationSoftware,Altium Limited,Altium Designer,22.1.2 (22)*
G04*
G04 Layer_Color=8388736*
%FSLAX25Y25*%
%MOIN*%
G70*
G04*
G04 #@! TF.SameCoordinates,D9C7AC14-A0B2-4E4F-895A-178DC6869FF5*
G04*
G04*
G04 #@! TF.FilePolarity,Positive*
G04*
G01*
G75*
%ADD55C,0.00039*%
%ADD56C,0.00079*%
D55*
X35039Y141535D02*
Y147835D01*
X24016D02*
X35039D01*
X24016Y141535D02*
X35039D01*
X24016D02*
Y147835D01*
X-8063Y92520D02*
X-5110D01*
X-8063Y86614D02*
Y92520D01*
X-5110Y86614D02*
Y92520D01*
X-8063Y86614D02*
X-5110D01*
X-28063D02*
X-25110D01*
Y92520D01*
X-28063Y86614D02*
Y92520D01*
X-25110D01*
X-18063D02*
X-15110D01*
X-18063Y86614D02*
Y92520D01*
X-15110Y86614D02*
Y92520D01*
X-18063Y86614D02*
X-15110D01*
X1937Y92520D02*
X4890D01*
X1937Y86614D02*
Y92520D01*
X4890Y86614D02*
Y92520D01*
X1937Y86614D02*
X4890D01*
X-35740Y93504D02*
X7567D01*
X-35740Y125000D02*
X7567D01*
X-35740Y93504D02*
Y125000D01*
X7567Y93504D02*
Y125000D01*
X16339Y32480D02*
Y63976D01*
X36024Y32480D02*
Y63976D01*
X16339Y32480D02*
X36024D01*
X16339Y63976D02*
X36024D01*
X17634Y97933D02*
X23539D01*
X17634Y94980D02*
X23539D01*
Y97933D01*
X17634Y94980D02*
Y97933D01*
X31413Y94980D02*
Y97933D01*
X25508D02*
X31413D01*
X25508Y94980D02*
X31413D01*
X25508D02*
Y97933D01*
X-27559Y23228D02*
Y73228D01*
X5118D01*
Y23228D02*
Y73228D01*
X-27559Y23228D02*
X5118D01*
X43307Y154528D02*
Y203740D01*
X-43307Y154528D02*
Y203740D01*
Y154528D02*
X43307D01*
X-43307Y203740D02*
X43307D01*
X26575Y137303D02*
Y140256D01*
X32480Y137303D02*
Y140256D01*
X26575Y137303D02*
X32480D01*
X26575Y140256D02*
X32480D01*
X-5512Y141535D02*
Y147835D01*
Y141535D02*
X5512D01*
X-5512Y147835D02*
X5512D01*
Y141535D02*
Y147835D01*
X-2953Y137303D02*
Y140256D01*
X2953Y137303D02*
Y140256D01*
X-2953Y137303D02*
X2953D01*
X-2953Y140256D02*
X2953D01*
X-35039Y141535D02*
Y147835D01*
Y141535D02*
X-24016D01*
X-35039Y147835D02*
X-24016D01*
Y141535D02*
Y147835D01*
X-32480Y137303D02*
Y140256D01*
X-26575Y137303D02*
Y140256D01*
X-32480Y137303D02*
X-26575D01*
X-32480Y140256D02*
X-26575D01*
X17634Y114862D02*
Y117815D01*
X23539Y114862D02*
Y117815D01*
X17634Y114862D02*
X23539D01*
X17634Y117815D02*
X23539D01*
X31413Y114862D02*
Y117815D01*
X25508D02*
X31413D01*
X25508Y114862D02*
X31413D01*
X25508D02*
Y117815D01*
D56*
X-23063Y86614D02*
X-20110D01*
X-23063Y92520D02*
X-20110D01*
X-23063Y86614D02*
Y92520D01*
X-20110Y86614D02*
Y92520D01*
X-13063Y86614D02*
X-10110D01*
X-13063Y92520D02*
X-10110D01*
X-13063Y86614D02*
Y92520D01*
X-10110Y86614D02*
Y92520D01*
X-30110Y86614D02*
Y92520D01*
X-33063Y86614D02*
Y92520D01*
X-30110D01*
X-33063Y86614D02*
X-30110D01*
X-3063D02*
X-110D01*
X-3063Y92520D02*
X-110D01*
X-3063Y86614D02*
Y92520D01*
X-110Y86614D02*
Y92520D01*
X23327Y62697D02*
Y65650D01*
X17421Y62697D02*
Y65650D01*
Y62697D02*
X23327D01*
X17421Y65650D02*
X23327D01*
Y30807D02*
Y33760D01*
X17421Y30807D02*
Y33760D01*
Y30807D02*
X23327D01*
X17421Y33760D02*
X23327D01*
X6890Y53642D02*
X12795D01*
X6890Y50689D02*
X12795D01*
X6890D02*
Y53642D01*
X12795Y50689D02*
Y53642D01*
X6890Y57579D02*
X12795D01*
X6890Y54626D02*
X12795D01*
X6890D02*
Y57579D01*
X12795Y54626D02*
Y57579D01*
X-35039Y53642D02*
X-29134D01*
X-35039Y50689D02*
X-29134D01*
X-35039D02*
Y53642D01*
X-29134Y50689D02*
Y53642D01*
X-35039Y57579D02*
X-29134D01*
X-35039Y54626D02*
X-29134D01*
X-35039D02*
Y57579D01*
X-29134Y54626D02*
Y57579D01*
M02*
