G04*
G04 #@! TF.GenerationSoftware,Altium Limited,Altium Designer,22.1.2 (22)*
G04*
G04 Layer_Physical_Order=3*
G04 Layer_Color=16440176*
%FSLAX25Y25*%
%MOIN*%
G70*
G04*
G04 #@! TF.SameCoordinates,889227B3-B2BC-4796-8B66-3F322000AF8E*
G04*
G04*
G04 #@! TF.FilePolarity,Positive*
G04*
G01*
G75*
%ADD10C,0.00787*%
%ADD28C,0.05315*%
%ADD31C,0.01968*%
G36*
X35500Y109500D02*
X-35500D01*
Y139000D01*
X-8000D01*
X-3000Y144000D01*
X-3000Y169500D01*
X-2000Y170500D01*
X35500Y170500D01*
X35500Y109500D01*
D02*
G37*
G36*
X3349Y86434D02*
X3358Y86340D01*
X3373Y86251D01*
X3394Y86165D01*
X3420Y86084D01*
X3453Y86008D01*
X3491Y85935D01*
X3535Y85866D01*
X3586Y85802D01*
X3642Y85742D01*
X2264D01*
X2320Y85802D01*
X2370Y85866D01*
X2414Y85935D01*
X2453Y86008D01*
X2485Y86084D01*
X2512Y86165D01*
X2533Y86251D01*
X2547Y86340D01*
X2556Y86434D01*
X2559Y86532D01*
X3347D01*
X3349Y86434D01*
D02*
G37*
G36*
X35433Y39370D02*
X-8154D01*
Y49660D01*
X-7645D01*
X-7608Y49643D01*
X-7524Y49640D01*
X-7458Y49634D01*
X-7399Y49624D01*
X-7345Y49611D01*
X-7297Y49596D01*
X-7253Y49577D01*
X-7214Y49556D01*
X-7177Y49532D01*
X-7156Y49516D01*
X-7139Y49489D01*
X-7059Y49143D01*
X-7045Y49022D01*
X-7127Y48885D01*
X-7271Y48741D01*
X-7480Y48235D01*
Y47686D01*
X-7271Y47180D01*
X-7128Y47037D01*
X-6932Y46711D01*
X-7128Y46384D01*
X-7271Y46241D01*
X-7480Y45735D01*
Y45186D01*
X-7271Y44680D01*
X-6883Y44293D01*
X-6376Y44083D01*
X-5828D01*
X-5322Y44293D01*
X-5165Y44449D01*
X-5091Y44478D01*
X-5050Y44518D01*
X-5022Y44540D01*
X-4990Y44560D01*
X-4955Y44579D01*
X-4914Y44596D01*
X-4867Y44611D01*
X-4813Y44623D01*
X-4752Y44633D01*
X-4685Y44638D01*
X-4598Y44641D01*
X-4560Y44658D01*
X-4539D01*
X-4232Y44719D01*
X-3972Y44893D01*
X-2129Y46735D01*
X-2129Y46735D01*
X-1956Y46996D01*
X-1894Y47303D01*
Y54197D01*
X-1956Y54504D01*
X-2129Y54765D01*
X-2129Y54765D01*
X-4432Y57068D01*
X-4693Y57242D01*
X-5000Y57303D01*
X-8500D01*
X-8807Y57242D01*
X-9068Y57068D01*
X-9068Y57068D01*
X-13068Y53068D01*
X-13242Y52807D01*
X-13303Y52500D01*
Y39370D01*
X-35433D01*
Y108296D01*
X-28525D01*
X-28318Y107796D01*
X-28384Y107729D01*
X-28504Y107440D01*
Y107127D01*
X-28384Y106837D01*
X-28163Y106616D01*
X-27873Y106496D01*
X-27560D01*
X-27270Y106616D01*
X-27049Y106837D01*
X-26929Y107127D01*
Y107440D01*
X-27049Y107729D01*
X-27115Y107796D01*
X-26908Y108296D01*
X1347D01*
Y86505D01*
X1332Y86481D01*
X1117Y86266D01*
X787Y85470D01*
Y84609D01*
X1117Y83813D01*
X1726Y83204D01*
X2522Y82874D01*
X3384D01*
X4179Y83204D01*
X4789Y83813D01*
X5118Y84609D01*
Y85470D01*
X4789Y86266D01*
X4573Y86481D01*
X4558Y86505D01*
Y108296D01*
X35433D01*
Y39370D01*
D02*
G37*
G36*
X-6805Y52276D02*
X-6865Y52332D01*
X-6929Y52382D01*
X-6998Y52426D01*
X-7070Y52465D01*
X-7147Y52497D01*
X-7228Y52524D01*
X-7314Y52544D01*
X-7403Y52559D01*
X-7497Y52568D01*
X-7595Y52571D01*
Y53358D01*
X-7497Y53361D01*
X-7403Y53370D01*
X-7314Y53385D01*
X-7228Y53405D01*
X-7147Y53432D01*
X-7070Y53465D01*
X-6998Y53503D01*
X-6929Y53547D01*
X-6865Y53597D01*
X-6805Y53654D01*
Y52276D01*
D02*
G37*
G36*
Y49774D02*
X-6865Y49830D01*
X-6929Y49880D01*
X-6998Y49924D01*
X-7070Y49963D01*
X-7147Y49995D01*
X-7228Y50022D01*
X-7314Y50042D01*
X-7403Y50057D01*
X-7497Y50066D01*
X-7595Y50069D01*
Y50856D01*
X-7497Y50859D01*
X-7403Y50868D01*
X-7314Y50883D01*
X-7228Y50903D01*
X-7147Y50930D01*
X-7070Y50963D01*
X-6998Y51001D01*
X-6929Y51045D01*
X-6865Y51095D01*
X-6805Y51152D01*
Y49774D01*
D02*
G37*
G36*
X-5331Y48582D02*
X-5270Y48535D01*
X-5205Y48492D01*
X-5135Y48456D01*
X-5059Y48425D01*
X-4979Y48399D01*
X-4894Y48380D01*
X-4804Y48366D01*
X-4710Y48357D01*
X-4610Y48354D01*
Y47567D01*
X-4710Y47564D01*
X-4804Y47556D01*
X-4894Y47542D01*
X-4979Y47522D01*
X-5059Y47497D01*
X-5135Y47466D01*
X-5205Y47429D01*
X-5270Y47387D01*
X-5331Y47339D01*
X-5386Y47285D01*
Y48636D01*
X-5331Y48582D01*
D02*
G37*
G36*
Y46082D02*
X-5270Y46035D01*
X-5205Y45992D01*
X-5135Y45956D01*
X-5059Y45925D01*
X-4979Y45899D01*
X-4894Y45880D01*
X-4804Y45866D01*
X-4710Y45857D01*
X-4610Y45854D01*
Y45067D01*
X-4710Y45064D01*
X-4804Y45056D01*
X-4894Y45042D01*
X-4979Y45022D01*
X-5059Y44997D01*
X-5135Y44966D01*
X-5205Y44929D01*
X-5270Y44887D01*
X-5331Y44839D01*
X-5386Y44785D01*
Y46136D01*
X-5331Y46082D01*
D02*
G37*
G36*
X9058Y14304D02*
X9067Y14210D01*
X9082Y14121D01*
X9102Y14036D01*
X9129Y13954D01*
X9161Y13878D01*
X9200Y13805D01*
X9244Y13736D01*
X9294Y13672D01*
X9350Y13612D01*
X7972D01*
X8028Y13672D01*
X8079Y13736D01*
X8123Y13805D01*
X8161Y13878D01*
X8194Y13954D01*
X8220Y14036D01*
X8241Y14121D01*
X8256Y14210D01*
X8265Y14304D01*
X8268Y14402D01*
X9055D01*
X9058Y14304D01*
D02*
G37*
G36*
X5909D02*
X5917Y14210D01*
X5932Y14121D01*
X5953Y14036D01*
X5979Y13954D01*
X6012Y13878D01*
X6050Y13805D01*
X6095Y13736D01*
X6145Y13672D01*
X6201Y13612D01*
X4823D01*
X4879Y13672D01*
X4929Y13736D01*
X4973Y13805D01*
X5012Y13878D01*
X5044Y13954D01*
X5071Y14036D01*
X5091Y14121D01*
X5106Y14210D01*
X5115Y14304D01*
X5118Y14402D01*
X5906D01*
X5909Y14304D01*
D02*
G37*
G36*
X-391D02*
X-382Y14210D01*
X-367Y14121D01*
X-347Y14036D01*
X-320Y13954D01*
X-287Y13878D01*
X-249Y13805D01*
X-205Y13736D01*
X-155Y13672D01*
X-98Y13612D01*
X-1476D01*
X-1420Y13672D01*
X-1370Y13736D01*
X-1326Y13805D01*
X-1287Y13878D01*
X-1255Y13954D01*
X-1228Y14036D01*
X-1208Y14121D01*
X-1193Y14210D01*
X-1184Y14304D01*
X-1181Y14402D01*
X-394D01*
X-391Y14304D01*
D02*
G37*
G36*
X-3540D02*
X-3531Y14210D01*
X-3517Y14121D01*
X-3496Y14036D01*
X-3469Y13954D01*
X-3437Y13878D01*
X-3399Y13805D01*
X-3354Y13736D01*
X-3304Y13672D01*
X-3248Y13612D01*
X-4626D01*
X-4570Y13672D01*
X-4520Y13736D01*
X-4475Y13805D01*
X-4437Y13878D01*
X-4405Y13954D01*
X-4378Y14036D01*
X-4357Y14121D01*
X-4343Y14210D01*
X-4334Y14304D01*
X-4331Y14402D01*
X-3543D01*
X-3540Y14304D01*
D02*
G37*
%LPC*%
G36*
X29528Y169416D02*
X28731Y169311D01*
X27989Y169004D01*
X27351Y168515D01*
X26862Y167877D01*
X26555Y167135D01*
X26450Y166339D01*
X26555Y165542D01*
X26862Y164800D01*
X27351Y164163D01*
X27989Y163673D01*
X28731Y163366D01*
X29528Y163261D01*
X30324Y163366D01*
X31066Y163673D01*
X31704Y164163D01*
X32193Y164800D01*
X32500Y165542D01*
X32605Y166339D01*
X32500Y167135D01*
X32193Y167877D01*
X31704Y168515D01*
X31066Y169004D01*
X30324Y169311D01*
X29528Y169416D01*
D02*
G37*
G36*
X19685D02*
X18889Y169311D01*
X18146Y169004D01*
X17509Y168515D01*
X17020Y167877D01*
X16712Y167135D01*
X16608Y166339D01*
X16712Y165542D01*
X17020Y164800D01*
X17509Y164163D01*
X18146Y163673D01*
X18889Y163366D01*
X19685Y163261D01*
X20482Y163366D01*
X21224Y163673D01*
X21861Y164163D01*
X22350Y164800D01*
X22658Y165542D01*
X22762Y166339D01*
X22658Y167135D01*
X22350Y167877D01*
X21861Y168515D01*
X21224Y169004D01*
X20482Y169311D01*
X19685Y169416D01*
D02*
G37*
G36*
X9843D02*
X9046Y169311D01*
X8304Y169004D01*
X7666Y168515D01*
X7177Y167877D01*
X6870Y167135D01*
X6765Y166339D01*
X6870Y165542D01*
X7177Y164800D01*
X7666Y164163D01*
X8304Y163673D01*
X9046Y163366D01*
X9843Y163261D01*
X10639Y163366D01*
X11381Y163673D01*
X12019Y164163D01*
X12508Y164800D01*
X12815Y165542D01*
X12920Y166339D01*
X12815Y167135D01*
X12508Y167877D01*
X12019Y168515D01*
X11381Y169004D01*
X10639Y169311D01*
X9843Y169416D01*
D02*
G37*
G36*
X-24568Y94291D02*
X-24881D01*
X-25170Y94172D01*
X-25392Y93950D01*
X-25512Y93661D01*
Y93347D01*
X-25392Y93058D01*
X-25170Y92836D01*
X-24881Y92716D01*
X-24568D01*
X-24278Y92836D01*
X-24057Y93058D01*
X-23937Y93347D01*
Y93661D01*
X-24057Y93950D01*
X-24278Y94172D01*
X-24568Y94291D01*
D02*
G37*
G36*
X26062Y90354D02*
X25749D01*
X25460Y90235D01*
X25238Y90013D01*
X25118Y89724D01*
Y89410D01*
X25238Y89121D01*
X25460Y88899D01*
X25749Y88779D01*
X26062D01*
X26351Y88899D01*
X26573Y89121D01*
X26693Y89410D01*
Y89724D01*
X26573Y90013D01*
X26351Y90235D01*
X26062Y90354D01*
D02*
G37*
G36*
X-21065Y92913D02*
X-21613D01*
X-22119Y92704D01*
X-22507Y92316D01*
X-22716Y91809D01*
Y91261D01*
X-22507Y90755D01*
X-22119Y90367D01*
X-21613Y90158D01*
X-21065D01*
X-20558Y90367D01*
X-20417Y90508D01*
X-20345Y90535D01*
X-20298Y90579D01*
X-20264Y90605D01*
X-20227Y90629D01*
X-20188Y90650D01*
X-20144Y90668D01*
X-20096Y90684D01*
X-20042Y90697D01*
X-19983Y90707D01*
X-19917Y90713D01*
X-19833Y90716D01*
X-19796Y90733D01*
X-4368D01*
X-1803Y88168D01*
Y79965D01*
X-1850Y79498D01*
X-2277Y79484D01*
X-5178D01*
X-6087Y80393D01*
Y83496D01*
X-6070Y83534D01*
X-6068Y83618D01*
X-6061Y83684D01*
X-6052Y83743D01*
X-6039Y83797D01*
X-6023Y83845D01*
X-6004Y83888D01*
X-5983Y83928D01*
X-5960Y83965D01*
X-5933Y83999D01*
X-5890Y84045D01*
X-5862Y84118D01*
X-5722Y84259D01*
X-5512Y84765D01*
Y85313D01*
X-5722Y85820D01*
X-6109Y86207D01*
X-6616Y86417D01*
X-7164D01*
X-7670Y86207D01*
X-7965Y85913D01*
X-8388Y85902D01*
X-8548Y85942D01*
X-8629Y86093D01*
X-8627Y86177D01*
X-8620Y86243D01*
X-8611Y86302D01*
X-8598Y86356D01*
X-8582Y86404D01*
X-8563Y86448D01*
X-8542Y86487D01*
X-8519Y86524D01*
X-8492Y86558D01*
X-8449Y86604D01*
X-8421Y86677D01*
X-8281Y86818D01*
X-8071Y87324D01*
Y87872D01*
X-8281Y88379D01*
X-8668Y88767D01*
X-9175Y88976D01*
X-9723D01*
X-10229Y88767D01*
X-10617Y88379D01*
X-10827Y87872D01*
Y87324D01*
X-10617Y86818D01*
X-10476Y86677D01*
X-10449Y86604D01*
X-10406Y86558D01*
X-10379Y86524D01*
X-10355Y86487D01*
X-10334Y86448D01*
X-10316Y86404D01*
X-10300Y86356D01*
X-10287Y86302D01*
X-10277Y86243D01*
X-10271Y86177D01*
X-10268Y86093D01*
X-10252Y86056D01*
Y80949D01*
X-10191Y80642D01*
X-10017Y80381D01*
X-6568Y76932D01*
X-6307Y76758D01*
X-6000Y76697D01*
X-6000Y76697D01*
X-2673D01*
X-1165Y75189D01*
Y53862D01*
X-1104Y53555D01*
X-930Y53294D01*
X1697Y50668D01*
Y47000D01*
X1758Y46693D01*
X1932Y46432D01*
X3472Y44893D01*
X3732Y44719D01*
X4039Y44658D01*
X4039Y44658D01*
X4560D01*
X4597Y44641D01*
X4681Y44638D01*
X4747Y44632D01*
X4806Y44622D01*
X4860Y44609D01*
X4908Y44594D01*
X4951Y44575D01*
X4991Y44554D01*
X5028Y44530D01*
X5062Y44504D01*
X5108Y44460D01*
X5181Y44433D01*
X5322Y44293D01*
X5828Y44083D01*
X6376D01*
X6883Y44293D01*
X7271Y44680D01*
X7480Y45186D01*
Y45735D01*
X7271Y46241D01*
X7128Y46384D01*
X6932Y46711D01*
X7128Y47037D01*
X7271Y47180D01*
X7480Y47686D01*
Y48235D01*
X7271Y48741D01*
X7127Y48885D01*
X7045Y49022D01*
X7059Y49143D01*
X7139Y49489D01*
X7156Y49516D01*
X7177Y49532D01*
X7214Y49556D01*
X7253Y49577D01*
X7297Y49596D01*
X7345Y49611D01*
X7399Y49624D01*
X7458Y49634D01*
X7524Y49640D01*
X7608Y49643D01*
X7645Y49660D01*
X9463D01*
X9770Y49721D01*
X10030Y49895D01*
X12379Y52243D01*
X12379Y52243D01*
X12553Y52504D01*
X12614Y52811D01*
X12614Y52811D01*
Y84087D01*
X12631Y84124D01*
X12633Y84209D01*
X12639Y84274D01*
X12649Y84334D01*
X12662Y84387D01*
X12678Y84435D01*
X12696Y84479D01*
X12717Y84519D01*
X12741Y84555D01*
X12768Y84590D01*
X12811Y84636D01*
X12839Y84709D01*
X12979Y84849D01*
X13189Y85356D01*
Y85904D01*
X12979Y86410D01*
X12592Y86798D01*
X12085Y87008D01*
X11537D01*
X11030Y86798D01*
X10643Y86410D01*
X10433Y85904D01*
Y85356D01*
X10643Y84849D01*
X10784Y84709D01*
X10811Y84636D01*
X10854Y84590D01*
X10881Y84555D01*
X10905Y84519D01*
X10926Y84479D01*
X10944Y84435D01*
X10960Y84387D01*
X10973Y84333D01*
X10983Y84274D01*
X10989Y84209D01*
X10991Y84124D01*
X11008Y84087D01*
Y53144D01*
X9130Y51265D01*
X7645D01*
X7608Y51282D01*
X7524Y51285D01*
X7458Y51291D01*
X7399Y51301D01*
X7345Y51314D01*
X7297Y51329D01*
X7253Y51348D01*
X7214Y51369D01*
X7177Y51393D01*
X7155Y51410D01*
X7139Y51435D01*
X7059Y51782D01*
X7045Y51903D01*
X7127Y52040D01*
X7272Y52186D01*
X7482Y52692D01*
Y53240D01*
X7272Y53747D01*
X6885Y54135D01*
X6378Y54344D01*
X5830D01*
X5324Y54135D01*
X5183Y53994D01*
X5110Y53966D01*
X5064Y53923D01*
X5029Y53896D01*
X4993Y53873D01*
X4953Y53852D01*
X4910Y53833D01*
X4861Y53817D01*
X4808Y53804D01*
X4748Y53795D01*
X4683Y53789D01*
X4599Y53786D01*
X4561Y53769D01*
X4207D01*
X2803Y55173D01*
Y76500D01*
X2742Y76807D01*
X2568Y77068D01*
X-197Y79833D01*
Y88500D01*
X-197Y88500D01*
X-258Y88807D01*
X-432Y89068D01*
X-432Y89068D01*
X-3468Y92103D01*
X-3728Y92277D01*
X-4035Y92338D01*
X-19796D01*
X-19833Y92355D01*
X-19917Y92358D01*
X-19983Y92364D01*
X-20042Y92374D01*
X-20096Y92387D01*
X-20144Y92402D01*
X-20188Y92421D01*
X-20227Y92442D01*
X-20264Y92466D01*
X-20298Y92492D01*
X-20345Y92536D01*
X-20417Y92563D01*
X-20558Y92704D01*
X-21065Y92913D01*
D02*
G37*
G36*
X-22402Y63779D02*
X-22716D01*
X-23005Y63660D01*
X-23227Y63438D01*
X-23346Y63149D01*
Y62836D01*
X-23227Y62546D01*
X-23005Y62325D01*
X-22716Y62205D01*
X-22402D01*
X-22113Y62325D01*
X-21892Y62546D01*
X-21772Y62836D01*
Y63149D01*
X-21892Y63438D01*
X-22113Y63660D01*
X-22402Y63779D01*
D02*
G37*
G36*
X6259Y58752D02*
X5946D01*
X5656Y58632D01*
X5435Y58411D01*
X5315Y58121D01*
Y57808D01*
X5435Y57519D01*
X5656Y57297D01*
X5946Y57177D01*
X6259D01*
X6548Y57297D01*
X6770Y57519D01*
X6890Y57808D01*
Y58121D01*
X6770Y58411D01*
X6548Y58632D01*
X6259Y58752D01*
D02*
G37*
G36*
X-15139Y57874D02*
X-15452D01*
X-15741Y57754D01*
X-15963Y57533D01*
X-16083Y57243D01*
Y56930D01*
X-15963Y56641D01*
X-15741Y56419D01*
X-15452Y56299D01*
X-15139D01*
X-14849Y56419D01*
X-14628Y56641D01*
X-14508Y56930D01*
Y57243D01*
X-14628Y57533D01*
X-14849Y57754D01*
X-15139Y57874D01*
D02*
G37*
G36*
X19133Y53037D02*
X18820D01*
X18530Y52917D01*
X18309Y52696D01*
X18189Y52407D01*
Y52093D01*
X18309Y51804D01*
X18530Y51582D01*
X18820Y51463D01*
X19133D01*
X19422Y51582D01*
X19644Y51804D01*
X19764Y52093D01*
Y52407D01*
X19644Y52696D01*
X19422Y52917D01*
X19133Y53037D01*
D02*
G37*
%LPD*%
G36*
X-20576Y92168D02*
X-20512Y92118D01*
X-20443Y92074D01*
X-20370Y92035D01*
X-20293Y92003D01*
X-20212Y91976D01*
X-20127Y91956D01*
X-20038Y91941D01*
X-19944Y91932D01*
X-19846Y91929D01*
Y91142D01*
X-19944Y91139D01*
X-20038Y91130D01*
X-20127Y91115D01*
X-20212Y91094D01*
X-20293Y91068D01*
X-20370Y91035D01*
X-20443Y90997D01*
X-20512Y90953D01*
X-20576Y90903D01*
X-20636Y90847D01*
Y92224D01*
X-20576Y92168D01*
D02*
G37*
G36*
X-8816Y86835D02*
X-8866Y86771D01*
X-8910Y86703D01*
X-8949Y86630D01*
X-8981Y86553D01*
X-9008Y86472D01*
X-9029Y86387D01*
X-9043Y86298D01*
X-9052Y86204D01*
X-9055Y86106D01*
X-9843D01*
X-9845Y86204D01*
X-9854Y86298D01*
X-9869Y86387D01*
X-9890Y86472D01*
X-9916Y86553D01*
X-9949Y86630D01*
X-9987Y86703D01*
X-10031Y86771D01*
X-10082Y86835D01*
X-10138Y86896D01*
X-8760D01*
X-8816Y86835D01*
D02*
G37*
G36*
X12444Y84867D02*
X12394Y84803D01*
X12349Y84734D01*
X12311Y84662D01*
X12279Y84585D01*
X12252Y84504D01*
X12231Y84418D01*
X12217Y84329D01*
X12208Y84235D01*
X12205Y84137D01*
X11417D01*
X11414Y84235D01*
X11406Y84329D01*
X11391Y84418D01*
X11370Y84504D01*
X11344Y84585D01*
X11311Y84662D01*
X11273Y84734D01*
X11228Y84803D01*
X11178Y84867D01*
X11122Y84927D01*
X12500D01*
X12444Y84867D01*
D02*
G37*
G36*
X-6257Y84276D02*
X-6307Y84212D01*
X-6351Y84144D01*
X-6390Y84071D01*
X-6422Y83994D01*
X-6449Y83913D01*
X-6470Y83828D01*
X-6484Y83738D01*
X-6493Y83645D01*
X-6496Y83547D01*
X-7283D01*
X-7286Y83645D01*
X-7295Y83738D01*
X-7310Y83828D01*
X-7331Y83913D01*
X-7357Y83994D01*
X-7390Y84071D01*
X-7428Y84144D01*
X-7472Y84212D01*
X-7523Y84276D01*
X-7579Y84337D01*
X-6201D01*
X-6257Y84276D01*
D02*
G37*
G36*
X5401Y52277D02*
X5341Y52333D01*
X5277Y52384D01*
X5209Y52428D01*
X5136Y52466D01*
X5059Y52499D01*
X4978Y52525D01*
X4893Y52546D01*
X4803Y52561D01*
X4709Y52570D01*
X4611Y52573D01*
Y53360D01*
X4709Y53363D01*
X4803Y53372D01*
X4893Y53387D01*
X4978Y53407D01*
X5059Y53434D01*
X5136Y53466D01*
X5209Y53505D01*
X5277Y53549D01*
X5341Y53599D01*
X5401Y53655D01*
Y52277D01*
D02*
G37*
G36*
X6865Y51095D02*
X6929Y51045D01*
X6998Y51001D01*
X7070Y50963D01*
X7147Y50930D01*
X7228Y50903D01*
X7314Y50883D01*
X7403Y50868D01*
X7497Y50859D01*
X7595Y50856D01*
Y50069D01*
X7497Y50066D01*
X7403Y50057D01*
X7314Y50042D01*
X7228Y50022D01*
X7147Y49995D01*
X7070Y49963D01*
X6998Y49924D01*
X6929Y49880D01*
X6865Y49830D01*
X6805Y49774D01*
Y51152D01*
X6865Y51095D01*
D02*
G37*
G36*
X5386Y47285D02*
X5331Y47339D01*
X5270Y47387D01*
X5205Y47429D01*
X5135Y47466D01*
X5059Y47497D01*
X4979Y47522D01*
X4894Y47542D01*
X4804Y47556D01*
X4710Y47564D01*
X4610Y47567D01*
Y48354D01*
X4710Y48357D01*
X4804Y48366D01*
X4894Y48380D01*
X4979Y48399D01*
X5059Y48425D01*
X5135Y48456D01*
X5205Y48492D01*
X5270Y48535D01*
X5331Y48582D01*
X5386Y48636D01*
Y47285D01*
D02*
G37*
G36*
X5399Y44772D02*
X5339Y44828D01*
X5275Y44878D01*
X5207Y44922D01*
X5134Y44961D01*
X5057Y44993D01*
X4976Y45020D01*
X4891Y45040D01*
X4801Y45055D01*
X4708Y45064D01*
X4610Y45067D01*
Y45854D01*
X4708Y45857D01*
X4801Y45866D01*
X4891Y45881D01*
X4976Y45902D01*
X5057Y45928D01*
X5134Y45961D01*
X5207Y45999D01*
X5275Y46043D01*
X5339Y46093D01*
X5399Y46150D01*
Y44772D01*
D02*
G37*
D10*
X-4035Y91535D02*
X-1000Y88500D01*
X-21339Y91535D02*
X-4035D01*
X2000Y54841D02*
X3874Y52966D01*
X6104D01*
X6102Y50463D02*
X9463D01*
X-6102Y45461D02*
X-4539D01*
X-2697Y47303D01*
X-4539Y47961D02*
X-3878Y48622D01*
Y53708D01*
X-6102Y47961D02*
X-4539D01*
X-5000Y56500D02*
X-2697Y54197D01*
Y47303D02*
Y54197D01*
X-5170Y55000D02*
X-3878Y53708D01*
X-8535Y52965D02*
X-6102D01*
X-8495Y50463D02*
X-6102D01*
X-10138Y51362D02*
X-8535Y52965D01*
X-8330Y55000D02*
X-5170D01*
X-8500Y56500D02*
X-5000D01*
X-11319Y52011D02*
X-8330Y55000D01*
X-12500Y52500D02*
X-8500Y56500D01*
X-11319Y24989D02*
X-6511Y20181D01*
X-8957Y25968D02*
X-5532Y22543D01*
X-10138Y25478D02*
Y51362D01*
Y25478D02*
X-6022Y21362D01*
X-8957Y25968D02*
Y50001D01*
X-11319Y24989D02*
Y52011D01*
X-5532Y22543D02*
X2957D01*
X-12500Y24500D02*
Y52500D01*
X-8957Y50001D02*
X-8495Y50463D01*
X-12500Y24500D02*
X-7000Y19000D01*
X-5000D01*
X-6022Y21362D02*
X2468D01*
X-6511Y20181D02*
X-2681D01*
X-5000Y19000D02*
X-3937Y17937D01*
X2468Y21362D02*
X5512Y18318D01*
X2957Y22543D02*
X8661Y16839D01*
X-3937Y12910D02*
Y17937D01*
X-2681Y20181D02*
X-787Y18287D01*
Y12910D02*
Y18287D01*
X8661Y12910D02*
Y16839D01*
X5512Y12910D02*
Y18318D01*
X11811Y52811D02*
Y85630D01*
X9463Y50463D02*
X11811Y52811D01*
X-1000Y79500D02*
Y88500D01*
Y79500D02*
X2000Y76500D01*
X4539Y47961D02*
X6102D01*
X3681Y48819D02*
Y51489D01*
Y48819D02*
X4539Y47961D01*
X2500Y47000D02*
Y51000D01*
X-362Y53862D02*
X2500Y51000D01*
Y47000D02*
X4039Y45461D01*
X819Y54351D02*
X3681Y51489D01*
X4039Y45461D02*
X6102D01*
X-362Y53862D02*
Y75522D01*
X819Y54351D02*
Y76011D01*
X2000Y54841D02*
Y76500D01*
X-2341Y77500D02*
X-362Y75522D01*
X-6000Y77500D02*
X-2341D01*
X-5511Y78681D02*
X-1851D01*
X819Y76011D01*
X-6890Y80060D02*
X-5511Y78681D01*
X-6890Y80060D02*
Y85039D01*
X-9449Y80949D02*
Y87598D01*
Y80949D02*
X-6000Y77500D01*
X2953Y85039D02*
Y120080D01*
X4921Y122049D01*
D28*
X0Y166339D02*
D03*
D31*
X20472Y93504D02*
D03*
X-21339Y91535D02*
D03*
X6102Y55465D02*
D03*
X6104Y52966D02*
D03*
X6102Y50463D02*
D03*
X-31496Y94297D02*
D03*
Y102362D02*
D03*
X-6102Y50463D02*
D03*
Y52965D02*
D03*
Y47961D02*
D03*
Y45461D02*
D03*
X-787Y12910D02*
D03*
X-3937D02*
D03*
X6299Y70866D02*
D03*
X6500Y82500D02*
D03*
X11811Y88532D02*
D03*
Y85630D02*
D03*
X13780Y81693D02*
D03*
X6102Y42961D02*
D03*
Y45461D02*
D03*
Y47961D02*
D03*
X-3500Y85039D02*
D03*
X-9449Y87598D02*
D03*
X-6890Y85039D02*
D03*
X-13000D02*
D03*
X-18898Y78740D02*
D03*
X-17717Y97441D02*
D03*
X-31496Y113192D02*
D03*
X-17717Y102362D02*
D03*
X-31496Y86614D02*
D03*
Y78740D02*
D03*
X-31496Y70866D02*
D03*
X-18898D02*
D03*
X-6299D02*
D03*
X18898D02*
D03*
X19685Y77756D02*
D03*
Y81693D02*
D03*
Y85630D02*
D03*
X19000Y97441D02*
D03*
Y101378D02*
D03*
X31496Y70866D02*
D03*
X31496Y78740D02*
D03*
Y86614D02*
D03*
Y94488D02*
D03*
X2953Y85039D02*
D03*
X14764Y106299D02*
D03*
X34252Y111417D02*
D03*
X31496Y102362D02*
D03*
X24606Y111417D02*
D03*
X14764D02*
D03*
X34252Y145669D02*
D03*
X24606D02*
D03*
X14764D02*
D03*
X4921Y122049D02*
D03*
X-23228Y113192D02*
D03*
X-14961D02*
D03*
X-3937Y137795D02*
D03*
X-14961D02*
D03*
X-31496Y122049D02*
D03*
X8661Y12910D02*
D03*
X5512D02*
D03*
X34252Y122049D02*
D03*
Y137795D02*
D03*
Y130905D02*
D03*
X4921Y145669D02*
D03*
Y137795D02*
D03*
Y130905D02*
D03*
X24606D02*
D03*
Y137795D02*
D03*
X14764D02*
D03*
Y130905D02*
D03*
Y122049D02*
D03*
X24606D02*
D03*
X-3937Y130905D02*
D03*
Y122049D02*
D03*
X-24803Y137795D02*
D03*
X-33858D02*
D03*
X-14961Y130905D02*
D03*
X-24803D02*
D03*
X-33858D02*
D03*
X-23228Y122049D02*
D03*
X-14961D02*
D03*
M02*
