G04*
G04 #@! TF.GenerationSoftware,Altium Limited,Altium Designer,22.1.2 (22)*
G04*
G04 Layer_Color=2752767*
%FSLAX25Y25*%
%MOIN*%
G70*
G04*
G04 #@! TF.SameCoordinates,3B7FE2DD-F4B8-4A7D-B534-A0F5109E0913*
G04*
G04*
G04 #@! TF.FilePolarity,Positive*
G04*
G01*
G75*
%ADD50C,0.00200*%
%ADD51C,0.00267*%
D50*
X-30328Y165539D02*
Y167139D01*
X-28728D01*
Y165539D01*
X-30328D01*
X-20485D02*
Y167139D01*
X-18885D01*
Y165539D01*
X-20485D01*
X-10643D02*
Y167139D01*
X-9042D01*
Y165539D01*
X-10643D01*
X-800D02*
Y167139D01*
X800D01*
Y165539D01*
X-800D01*
X9042D02*
Y167139D01*
X10643D01*
Y165539D01*
X9042D01*
X18885D02*
Y167139D01*
X20485D01*
Y165539D01*
X18885D01*
X28728D02*
Y167139D01*
X30328D01*
Y165539D01*
X28728D01*
X47244Y20854D02*
X46444Y22454D01*
X48044D01*
X47244Y20854D01*
X39370D02*
X38570Y22454D01*
X40170D01*
X39370Y20854D01*
X31496D02*
X30696Y22454D01*
X32296D01*
X31496Y20854D01*
X23622D02*
X22822Y22454D01*
X24422D01*
X23622Y20854D01*
X15748D02*
X14948Y22454D01*
X16548D01*
X15748Y20854D01*
X7874D02*
X7074Y22454D01*
X8674D01*
X7874Y20854D01*
X-15748D02*
X-16548Y22454D01*
X-14948D01*
X-15748Y20854D01*
X-23622D02*
X-24422Y22454D01*
X-22822D01*
X-23622Y20854D01*
X-31496D02*
X-32296Y22454D01*
X-30696D01*
X-31496Y20854D01*
X-39370D02*
X-40170Y22454D01*
X-38570D01*
X-39370Y20854D01*
X-47244D02*
X-48044Y22454D01*
X-46444D01*
X-47244Y20854D01*
X55118Y131090D02*
X54318Y132690D01*
X55918D01*
X55118Y131090D01*
Y123216D02*
X54318Y124816D01*
X55918D01*
X55118Y123216D01*
Y115342D02*
X54318Y116942D01*
X55918D01*
X55118Y115342D01*
Y107468D02*
X54318Y109068D01*
X55918D01*
X55118Y107468D01*
Y99594D02*
X54318Y101194D01*
X55918D01*
X55118Y99594D01*
Y91720D02*
X54318Y93320D01*
X55918D01*
X55118Y91720D01*
Y83846D02*
X54318Y85446D01*
X55918D01*
X55118Y83846D01*
Y75972D02*
X54318Y77572D01*
X55918D01*
X55118Y75972D01*
Y68098D02*
X54318Y69698D01*
X55918D01*
X55118Y68098D01*
Y60224D02*
X54318Y61824D01*
X55918D01*
X55118Y60224D01*
Y52350D02*
X54318Y53950D01*
X55918D01*
X55118Y52350D01*
Y44476D02*
X54318Y46076D01*
X55918D01*
X55118Y44476D01*
Y36602D02*
X54318Y38202D01*
X55918D01*
X55118Y36602D01*
Y28728D02*
X54318Y30328D01*
X55918D01*
X55118Y28728D01*
Y20854D02*
X54318Y22454D01*
X55918D01*
X55118Y20854D01*
X-55118D02*
X-55918Y22454D01*
X-54318D01*
X-55118Y20854D01*
Y28728D02*
X-55918Y30328D01*
X-54318D01*
X-55118Y28728D01*
Y36602D02*
X-55918Y38202D01*
X-54318D01*
X-55118Y36602D01*
Y44476D02*
X-55918Y46076D01*
X-54318D01*
X-55118Y44476D01*
Y52350D02*
X-55918Y53950D01*
X-54318D01*
X-55118Y52350D01*
Y60224D02*
X-55918Y61824D01*
X-54318D01*
X-55118Y60224D01*
Y68098D02*
X-55918Y69698D01*
X-54318D01*
X-55118Y68098D01*
Y75972D02*
X-55918Y77572D01*
X-54318D01*
X-55118Y75972D01*
Y83846D02*
X-55918Y85446D01*
X-54318D01*
X-55118Y83846D01*
Y91720D02*
X-55918Y93320D01*
X-54318D01*
X-55118Y91720D01*
Y99594D02*
X-55918Y101194D01*
X-54318D01*
X-55118Y99594D01*
Y107468D02*
X-55918Y109068D01*
X-54318D01*
X-55118Y107468D01*
Y115342D02*
X-55918Y116942D01*
X-54318D01*
X-55118Y115342D01*
Y123216D02*
X-55918Y124816D01*
X-54318D01*
X-55118Y123216D01*
Y131090D02*
X-55918Y132690D01*
X-54318D01*
X-55118Y131090D01*
X-35433Y12109D02*
X-36233Y13710D01*
X-34633D01*
X-35433Y12109D01*
X-15295Y56287D02*
X-16095Y57887D01*
X-14495D01*
X-15295Y56287D01*
X18976Y51450D02*
X18176Y53050D01*
X19776D01*
X18976Y51450D01*
X20472Y92704D02*
X19672Y94304D01*
X21272D01*
X20472Y92704D01*
X-21339Y90735D02*
X-22139Y92335D01*
X-20539D01*
X-21339Y90735D01*
X-27716Y106483D02*
X-28517Y108083D01*
X-26917D01*
X-27716Y106483D01*
X6102Y54665D02*
X5302Y56265D01*
X6902D01*
X6102Y54665D01*
X6104Y52166D02*
X5304Y53766D01*
X6904D01*
X6104Y52166D01*
X6102Y49663D02*
X5302Y51263D01*
X6902D01*
X6102Y49663D01*
X-22559Y62192D02*
X-23359Y63792D01*
X-21759D01*
X-22559Y62192D01*
X-31496Y93498D02*
X-32296Y95098D01*
X-30696D01*
X-31496Y93498D01*
Y101562D02*
X-32296Y103162D01*
X-30696D01*
X-31496Y101562D01*
X-24724Y92704D02*
X-25524Y94304D01*
X-23924D01*
X-24724Y92704D01*
X-6102Y49663D02*
X-6902Y51263D01*
X-5302D01*
X-6102Y49663D01*
Y52165D02*
X-6902Y53765D01*
X-5302D01*
X-6102Y52165D01*
Y47161D02*
X-6902Y48761D01*
X-5302D01*
X-6102Y47161D01*
Y44661D02*
X-6902Y46261D01*
X-5302D01*
X-6102Y44661D01*
X-787Y12109D02*
X-1587Y13710D01*
X13D01*
X-787Y12109D01*
X-3937D02*
X-4737Y13710D01*
X-3137D01*
X-3937Y12109D01*
X25905Y88767D02*
X25106Y90367D01*
X26706D01*
X25905Y88767D01*
X6299Y70066D02*
X5499Y71666D01*
X7099D01*
X6299Y70066D01*
X6500Y81700D02*
X5700Y83300D01*
X7300D01*
X6500Y81700D01*
X11811Y87731D02*
X11011Y89332D01*
X12611D01*
X11811Y87731D01*
Y84830D02*
X11011Y86430D01*
X12611D01*
X11811Y84830D01*
X13780Y80893D02*
X12979Y82493D01*
X14580D01*
X13780Y80893D01*
X6102Y42161D02*
X5302Y43761D01*
X6902D01*
X6102Y42161D01*
Y57165D02*
X5302Y58765D01*
X6902D01*
X6102Y57165D01*
Y44661D02*
X5302Y46261D01*
X6902D01*
X6102Y44661D01*
Y47161D02*
X5302Y48761D01*
X6902D01*
X6102Y47161D01*
X-3500Y84239D02*
X-4300Y85839D01*
X-2700D01*
X-3500Y84239D01*
X-9449Y86798D02*
X-10249Y88398D01*
X-8649D01*
X-9449Y86798D01*
X-6890Y84239D02*
X-7690Y85839D01*
X-6090D01*
X-6890Y84239D01*
X-13000D02*
X-13800Y85839D01*
X-12200D01*
X-13000Y84239D01*
X-18898Y77940D02*
X-19698Y79540D01*
X-18098D01*
X-18898Y77940D01*
X-17717Y96641D02*
X-18517Y98241D01*
X-16917D01*
X-17717Y96641D01*
X-31496Y112392D02*
X-32296Y113992D01*
X-30696D01*
X-31496Y112392D01*
X-17717Y101562D02*
X-18517Y103162D01*
X-16917D01*
X-17717Y101562D01*
X-31496Y85814D02*
X-32296Y87414D01*
X-30696D01*
X-31496Y85814D01*
Y77940D02*
X-32296Y79540D01*
X-30696D01*
X-31496Y77940D01*
X-31496Y70066D02*
X-32296Y71666D01*
X-30696D01*
X-31496Y70066D01*
X-18898D02*
X-19698Y71666D01*
X-18098D01*
X-18898Y70066D01*
X-6299D02*
X-7099Y71666D01*
X-5499D01*
X-6299Y70066D01*
X18898D02*
X18098Y71666D01*
X19698D01*
X18898Y70066D01*
X19685Y76956D02*
X18885Y78556D01*
X20485D01*
X19685Y76956D01*
Y80893D02*
X18885Y82493D01*
X20485D01*
X19685Y80893D01*
Y84830D02*
X18885Y86430D01*
X20485D01*
X19685Y84830D01*
X19000Y96641D02*
X18200Y98241D01*
X19800D01*
X19000Y96641D01*
Y100578D02*
X18200Y102178D01*
X19800D01*
X19000Y100578D01*
X31496Y70066D02*
X30696Y71666D01*
X32296D01*
X31496Y70066D01*
X31496Y77940D02*
X30696Y79540D01*
X32296D01*
X31496Y77940D01*
Y85814D02*
X30696Y87414D01*
X32296D01*
X31496Y85814D01*
Y93688D02*
X30696Y95288D01*
X32296D01*
X31496Y93688D01*
X2953Y84239D02*
X2153Y85839D01*
X3753D01*
X2953Y84239D01*
X14764Y105499D02*
X13964Y107099D01*
X15564D01*
X14764Y105499D01*
X34252Y110617D02*
X33452Y112217D01*
X35052D01*
X34252Y110617D01*
X31496Y101562D02*
X30696Y103162D01*
X32296D01*
X31496Y101562D01*
X24606Y110617D02*
X23806Y112217D01*
X25406D01*
X24606Y110617D01*
X14764D02*
X13964Y112217D01*
X15564D01*
X14764Y110617D01*
X34252Y144869D02*
X33452Y146469D01*
X35052D01*
X34252Y144869D01*
X24606D02*
X23806Y146469D01*
X25406D01*
X24606Y144869D01*
X14764D02*
X13964Y146469D01*
X15564D01*
X14764Y144869D01*
X4921Y121249D02*
X4121Y122849D01*
X5721D01*
X4921Y121249D01*
X-23228Y112392D02*
X-24028Y113992D01*
X-22428D01*
X-23228Y112392D01*
X-14961D02*
X-15761Y113992D01*
X-14161D01*
X-14961Y112392D01*
X-3937Y136995D02*
X-4737Y138595D01*
X-3137D01*
X-3937Y136995D01*
X-14961D02*
X-15761Y138595D01*
X-14161D01*
X-14961Y136995D01*
X-31496Y121249D02*
X-32296Y122849D01*
X-30696D01*
X-31496Y121249D01*
X2362Y12109D02*
X1562Y13710D01*
X3162D01*
X2362Y12109D01*
X8661D02*
X7861Y13710D01*
X9461D01*
X8661Y12109D01*
X5512D02*
X4712Y13710D01*
X6312D01*
X5512Y12109D01*
X34252Y121249D02*
X33452Y122849D01*
X35052D01*
X34252Y121249D01*
Y136995D02*
X33452Y138595D01*
X35052D01*
X34252Y136995D01*
Y130105D02*
X33452Y131705D01*
X35052D01*
X34252Y130105D01*
X4921Y144869D02*
X4121Y146469D01*
X5721D01*
X4921Y144869D01*
Y136995D02*
X4121Y138595D01*
X5721D01*
X4921Y136995D01*
Y130105D02*
X4121Y131705D01*
X5721D01*
X4921Y130105D01*
X24606D02*
X23806Y131705D01*
X25406D01*
X24606Y130105D01*
Y136995D02*
X23806Y138595D01*
X25406D01*
X24606Y136995D01*
X14764D02*
X13964Y138595D01*
X15564D01*
X14764Y136995D01*
Y130105D02*
X13964Y131705D01*
X15564D01*
X14764Y130105D01*
Y121249D02*
X13964Y122849D01*
X15564D01*
X14764Y121249D01*
X24606D02*
X23806Y122849D01*
X25406D01*
X24606Y121249D01*
X-3937Y130105D02*
X-4737Y131705D01*
X-3137D01*
X-3937Y130105D01*
Y121249D02*
X-4737Y122849D01*
X-3137D01*
X-3937Y121249D01*
X-24803Y136995D02*
X-25603Y138595D01*
X-24003D01*
X-24803Y136995D01*
X-33858D02*
X-34658Y138595D01*
X-33058D01*
X-33858Y136995D01*
X-14961Y130105D02*
X-15761Y131705D01*
X-14161D01*
X-14961Y130105D01*
X-24803D02*
X-25603Y131705D01*
X-24003D01*
X-24803Y130105D01*
X-33858D02*
X-34658Y131705D01*
X-33058D01*
X-33858Y130105D01*
X-23228Y121249D02*
X-24028Y122849D01*
X-22428D01*
X-23228Y121249D01*
X-14961D02*
X-15761Y122849D01*
X-14161D01*
X-14961Y121249D01*
D51*
X-46838Y189173D02*
G03*
X-46838Y189173I-800J0D01*
G01*
X48438D02*
G03*
X48438Y189173I-800J0D01*
G01*
M02*
