G04*
G04 #@! TF.GenerationSoftware,Altium Limited,Altium Designer,22.1.2 (22)*
G04*
G04 Layer_Color=16711935*
%FSLAX25Y25*%
%MOIN*%
G70*
G04*
G04 #@! TF.SameCoordinates,3B7FE2DD-F4B8-4A7D-B534-A0F5109E0913*
G04*
G04*
G04 #@! TF.FilePolarity,Positive*
G04*
G01*
G75*
%ADD13C,0.00197*%
%ADD48C,0.00039*%
%ADD49C,0.00079*%
D13*
X0Y98228D02*
Y100591D01*
X-1181Y99410D02*
X1181D01*
X-11600Y111009D02*
X11600D01*
Y87809D02*
Y111009D01*
X-11600Y87809D02*
X11600D01*
X-11600D02*
Y111009D01*
D48*
X-13780Y39370D02*
X13780D01*
Y59055D01*
X-13780Y39370D02*
Y59055D01*
X13780D01*
X-12992Y137205D02*
X-6693D01*
X-12992Y148228D02*
X-6693D01*
X-12992Y137205D02*
Y148228D01*
X-6693Y137205D02*
Y148228D01*
X-9843Y141732D02*
Y143701D01*
X-10827Y142717D02*
X-8858D01*
X-29528Y125984D02*
Y127953D01*
X-30512Y126969D02*
X-28543D01*
X-32480Y125492D02*
X-26575D01*
X-32480Y128445D02*
X-26575D01*
Y125492D02*
Y128445D01*
X-32480Y125492D02*
Y128445D01*
X-984Y77756D02*
X984D01*
X0Y76772D02*
Y78740D01*
X-4724Y73819D02*
X4724D01*
X-4724Y81693D02*
X4724D01*
Y73819D02*
Y81693D01*
X-4724Y73819D02*
Y81693D01*
X9843Y141732D02*
Y143701D01*
X8858Y142717D02*
X10827D01*
X6890Y144193D02*
X12795D01*
X6890Y141240D02*
X12795D01*
X6890D02*
Y144193D01*
X12795Y141240D02*
Y144193D01*
X9843Y133858D02*
Y135827D01*
X8858Y134843D02*
X10827D01*
X6890Y136319D02*
X12795D01*
X6890Y133366D02*
X12795D01*
X6890D02*
Y136319D01*
X12795Y133366D02*
Y136319D01*
X-32677Y137205D02*
X-26378D01*
X-32677Y148228D02*
X-26378D01*
X-32677Y137205D02*
Y148228D01*
X-26378Y137205D02*
Y148228D01*
X-29528Y141732D02*
Y143701D01*
X-30512Y142717D02*
X-28543D01*
X19685Y133858D02*
Y135827D01*
X18701Y134843D02*
X20669D01*
X16732Y136319D02*
X22638D01*
X16732Y133366D02*
X22638D01*
X16732D02*
Y136319D01*
X22638Y133366D02*
Y136319D01*
X-22835Y137205D02*
X-16535D01*
X-22835Y148228D02*
X-16535D01*
X-22835Y137205D02*
Y148228D01*
X-16535Y137205D02*
Y148228D01*
X-19685Y141732D02*
Y143701D01*
X-20669Y142717D02*
X-18701D01*
X29528Y133858D02*
Y135827D01*
X28543Y134843D02*
X30512D01*
X26575Y136319D02*
X32480D01*
X26575Y133366D02*
X32480D01*
X26575D02*
Y136319D01*
X32480Y133366D02*
Y136319D01*
X27165Y82185D02*
Y85138D01*
X21260Y82185D02*
Y85138D01*
Y82185D02*
X27165D01*
X21260Y85138D02*
X27165D01*
X23228Y83661D02*
X25197D01*
X24213Y82677D02*
Y84646D01*
X27165Y90059D02*
Y93012D01*
X21260Y90059D02*
Y93012D01*
Y90059D02*
X27165D01*
X21260Y93012D02*
X27165D01*
X23228Y91535D02*
X25197D01*
X24213Y90551D02*
Y92520D01*
X21260Y86122D02*
Y89075D01*
X27165Y86122D02*
Y89075D01*
X21260D02*
X27165D01*
X21260Y86122D02*
X27165D01*
X23228Y87598D02*
X25197D01*
X24213Y86614D02*
Y88583D01*
X-25984Y97933D02*
Y100886D01*
X-20079Y97933D02*
Y100886D01*
X-25984D02*
X-20079D01*
X-25984Y97933D02*
X-20079D01*
X-24016Y99409D02*
X-22047D01*
X-23031Y98425D02*
Y100394D01*
X27165Y74311D02*
Y77264D01*
X21260Y74311D02*
Y77264D01*
Y74311D02*
X27165D01*
X21260Y77264D02*
X27165D01*
X23228Y75787D02*
X25197D01*
X24213Y74803D02*
Y76772D01*
X-20079Y82185D02*
Y85138D01*
X-25984Y82185D02*
Y85138D01*
Y82185D02*
X-20079D01*
X-25984Y85138D02*
X-20079D01*
X-24016Y83661D02*
X-22047D01*
X-23031Y82677D02*
Y84646D01*
X21260Y97933D02*
Y100886D01*
X27165Y97933D02*
Y100886D01*
X21260D02*
X27165D01*
X21260Y97933D02*
X27165D01*
X23228Y99409D02*
X25197D01*
X24213Y98425D02*
Y100394D01*
X-19685Y52165D02*
Y54134D01*
X-20669Y53150D02*
X-18701D01*
X-22638Y51673D02*
X-16732D01*
X-22638Y54626D02*
X-16732D01*
Y51673D02*
Y54626D01*
X-22638Y51673D02*
Y54626D01*
X21260Y105807D02*
Y108760D01*
X27165Y105807D02*
Y108760D01*
X21260D02*
X27165D01*
X21260Y105807D02*
X27165D01*
X23228Y107283D02*
X25197D01*
X24213Y106299D02*
Y108268D01*
X-25984Y93996D02*
Y96949D01*
X-20079Y93996D02*
Y96949D01*
X-25984D02*
X-20079D01*
X-25984Y93996D02*
X-20079D01*
X-24016Y95472D02*
X-22047D01*
X-23031Y94488D02*
Y96457D01*
X27165Y78248D02*
Y81201D01*
X21260Y78248D02*
Y81201D01*
Y78248D02*
X27165D01*
X21260Y81201D02*
X27165D01*
X23228Y79724D02*
X25197D01*
X24213Y78740D02*
Y80709D01*
X27165Y101870D02*
Y104823D01*
X21260Y101870D02*
Y104823D01*
Y101870D02*
X27165D01*
X21260Y104823D02*
X27165D01*
X23228Y103347D02*
X25197D01*
X24213Y102362D02*
Y104331D01*
X27165Y93996D02*
Y96949D01*
X21260Y93996D02*
Y96949D01*
Y93996D02*
X27165D01*
X21260Y96949D02*
X27165D01*
X23228Y95472D02*
X25197D01*
X24213Y94488D02*
Y96457D01*
X-25984Y86122D02*
Y89075D01*
X-20079Y86122D02*
Y89075D01*
X-25984D02*
X-20079D01*
X-25984Y86122D02*
X-20079D01*
X-24016Y87598D02*
X-22047D01*
X-23031Y86614D02*
Y88583D01*
X-9843Y125984D02*
Y127953D01*
X-10827Y126969D02*
X-8858D01*
X-12795Y125492D02*
X-6890D01*
X-12795Y128445D02*
X-6890D01*
Y125492D02*
Y128445D01*
X-12795Y125492D02*
Y128445D01*
X-22638Y125492D02*
Y128445D01*
X-16732Y125492D02*
Y128445D01*
X-22638D02*
X-16732D01*
X-22638Y125492D02*
X-16732D01*
X-20669Y126969D02*
X-18701D01*
X-19685Y125984D02*
Y127953D01*
X-22638Y43799D02*
Y46752D01*
X-16732Y43799D02*
Y46752D01*
X-22638D02*
X-16732D01*
X-22638Y43799D02*
X-16732D01*
X-20669Y45276D02*
X-18701D01*
X-19685Y44291D02*
Y46260D01*
X-23031Y106299D02*
Y108268D01*
X-24016Y107283D02*
X-22047D01*
X-25984Y105807D02*
X-20079D01*
X-25984Y108760D02*
X-20079D01*
Y105807D02*
Y108760D01*
X-25984Y105807D02*
Y108760D01*
X9843Y145669D02*
Y147638D01*
X8858Y146653D02*
X10827D01*
X6890Y145177D02*
X12795D01*
X6890Y148130D02*
X12795D01*
Y145177D02*
Y148130D01*
X6890Y145177D02*
Y148130D01*
X19685Y145669D02*
Y147638D01*
X18701Y146653D02*
X20669D01*
X16732Y145177D02*
X22638D01*
X16732Y148130D02*
X22638D01*
Y145177D02*
Y148130D01*
X16732Y145177D02*
Y148130D01*
X29528Y145669D02*
Y147638D01*
X28543Y146653D02*
X30512D01*
X26575Y145177D02*
X32480D01*
X26575Y148130D02*
X32480D01*
Y145177D02*
Y148130D01*
X26575Y145177D02*
Y148130D01*
X29528Y141732D02*
Y143701D01*
X28543Y142717D02*
X30512D01*
X26575Y144193D02*
X32480D01*
X26575Y141240D02*
X32480D01*
X26575D02*
Y144193D01*
X32480Y141240D02*
Y144193D01*
X19685Y141732D02*
Y143701D01*
X18701Y142717D02*
X20669D01*
X16732Y144193D02*
X22638D01*
X16732Y141240D02*
X22638D01*
X16732D02*
Y144193D01*
X22638Y141240D02*
Y144193D01*
D49*
X5020Y80709D02*
X7972D01*
X5020Y74803D02*
Y80709D01*
X7972Y74803D02*
Y80709D01*
X6496Y76772D02*
Y78740D01*
X5512Y77756D02*
X7480D01*
X5020Y74803D02*
X7972D01*
X-32480Y129429D02*
Y132382D01*
Y129429D02*
X-26575D01*
X-32480Y132382D02*
X-26575D01*
X-30512Y130905D02*
X-28543D01*
X-29528Y129921D02*
Y131890D01*
X-26575Y129429D02*
Y132382D01*
X-22638Y129429D02*
Y132382D01*
Y129429D02*
X-16732D01*
X-22638Y132382D02*
X-16732D01*
X-20669Y130905D02*
X-18701D01*
X-19685Y129921D02*
Y131890D01*
X-16732Y129429D02*
Y132382D01*
X-12795Y133366D02*
Y136319D01*
Y133366D02*
X-6890D01*
X-12795Y136319D02*
X-6890D01*
X-10827Y134843D02*
X-8858D01*
X-9843Y133858D02*
Y135827D01*
X-6890Y133366D02*
Y136319D01*
X-22638Y133366D02*
Y136319D01*
Y133366D02*
X-16732D01*
X-22638Y136319D02*
X-16732D01*
X-20669Y134843D02*
X-18701D01*
X-19685Y133858D02*
Y135827D01*
X-16732Y133366D02*
Y136319D01*
X-12795Y129429D02*
Y132382D01*
Y129429D02*
X-6890D01*
X-12795Y132382D02*
X-6890D01*
X-10827Y130905D02*
X-8858D01*
X-9843Y129921D02*
Y131890D01*
X-6890Y129429D02*
Y132382D01*
X16732Y55610D02*
Y58563D01*
X19685Y56102D02*
Y58071D01*
X18701Y57087D02*
X20669D01*
X16732Y55610D02*
X22638D01*
X16732Y58563D02*
X22638D01*
Y55610D02*
Y58563D01*
X-16732Y55610D02*
Y58563D01*
X-19685Y56102D02*
Y58071D01*
X-20669Y57087D02*
X-18701D01*
X-22638Y58563D02*
X-16732D01*
X-22638Y55610D02*
X-16732D01*
X-22638D02*
Y58563D01*
X-16732Y47736D02*
Y50689D01*
X-19685Y48228D02*
Y50197D01*
X-20669Y49213D02*
X-18701D01*
X-22638Y50689D02*
X-16732D01*
X-22638Y47736D02*
X-16732D01*
X-22638D02*
Y50689D01*
X-32480Y133366D02*
Y136319D01*
Y133366D02*
X-26575D01*
X-32480Y136319D02*
X-26575D01*
X-30512Y134843D02*
X-28543D01*
X-29528Y133858D02*
Y135827D01*
X-26575Y133366D02*
Y136319D01*
X32480Y137303D02*
Y140256D01*
X26575D02*
X32480D01*
X26575Y137303D02*
X32480D01*
X28543Y138779D02*
X30512D01*
X29528Y137795D02*
Y139764D01*
X26575Y137303D02*
Y140256D01*
X26575Y129429D02*
Y132382D01*
Y129429D02*
X32480D01*
X26575Y132382D02*
X32480D01*
X28543Y130905D02*
X30512D01*
X29528Y129921D02*
Y131890D01*
X32480Y129429D02*
Y132382D01*
X16732Y125492D02*
Y128445D01*
Y125492D02*
X22638D01*
X16732Y128445D02*
X22638D01*
X18701Y126969D02*
X20669D01*
X19685Y125984D02*
Y127953D01*
X22638Y125492D02*
Y128445D01*
X-22638Y39862D02*
Y42815D01*
Y39862D02*
X-16732D01*
X-22638Y42815D02*
X-16732D01*
X-20669Y41339D02*
X-18701D01*
X-19685Y40354D02*
Y42323D01*
X-16732Y39862D02*
Y42815D01*
X-25984Y101870D02*
Y104823D01*
Y101870D02*
X-20079D01*
X-25984Y104823D02*
X-20079D01*
X-24016Y103347D02*
X-22047D01*
X-23031Y102362D02*
Y104331D01*
X-20079Y101870D02*
Y104823D01*
X26575Y125492D02*
Y128445D01*
Y125492D02*
X32480D01*
X26575Y128445D02*
X32480D01*
X28543Y126969D02*
X30512D01*
X29528Y125984D02*
Y127953D01*
X32480Y125492D02*
Y128445D01*
X16732Y129429D02*
Y132382D01*
Y129429D02*
X22638D01*
X16732Y132382D02*
X22638D01*
X18701Y130905D02*
X20669D01*
X19685Y129921D02*
Y131890D01*
X22638Y129429D02*
Y132382D01*
X-25984Y74311D02*
Y77264D01*
X-23031Y74803D02*
Y76772D01*
X-24016Y75787D02*
X-22047D01*
X-25984Y74311D02*
X-20079D01*
X-25984Y77264D02*
X-20079D01*
Y74311D02*
Y77264D01*
X-25984Y78248D02*
Y81201D01*
X-23031Y78740D02*
Y80709D01*
X-24016Y79724D02*
X-22047D01*
X-25984Y78248D02*
X-20079D01*
X-25984Y81201D02*
X-20079D01*
Y78248D02*
Y81201D01*
X12795Y137303D02*
Y140256D01*
X6890D02*
X12795D01*
X6890Y137303D02*
X12795D01*
X8858Y138779D02*
X10827D01*
X9843Y137795D02*
Y139764D01*
X6890Y137303D02*
Y140256D01*
X22638Y137303D02*
Y140256D01*
X16732D02*
X22638D01*
X16732Y137303D02*
X22638D01*
X18701Y138779D02*
X20669D01*
X19685Y137795D02*
Y139764D01*
X16732Y137303D02*
Y140256D01*
X6890Y125492D02*
Y128445D01*
Y125492D02*
X12795D01*
X6890Y128445D02*
X12795D01*
X8858Y126969D02*
X10827D01*
X9843Y125984D02*
Y127953D01*
X12795Y125492D02*
Y128445D01*
X6890Y129429D02*
Y132382D01*
Y129429D02*
X12795D01*
X6890Y132382D02*
X12795D01*
X8858Y130905D02*
X10827D01*
X9843Y129921D02*
Y131890D01*
X12795Y129429D02*
Y132382D01*
X-7972Y74803D02*
X-5020D01*
Y80709D01*
X-7972Y74803D02*
Y80709D01*
X-6496Y76772D02*
Y78740D01*
X-7480Y77756D02*
X-5512D01*
X-7972Y80709D02*
X-5020D01*
M02*
