G04*
G04 #@! TF.GenerationSoftware,Altium Limited,Altium Designer,22.1.2 (22)*
G04*
G04 Layer_Physical_Order=4*
G04 Layer_Color=16711680*
%FSLAX25Y25*%
%MOIN*%
G70*
G04*
G04 #@! TF.SameCoordinates,B1E273F1-CA0D-4A37-822C-2AC157981796*
G04*
G04*
G04 #@! TF.FilePolarity,Positive*
G04*
G01*
G75*
%ADD10C,0.00394*%
%ADD11C,0.00787*%
%ADD12C,0.00197*%
%ADD15C,0.00039*%
%ADD16C,0.00079*%
%ADD18R,0.02047X0.01850*%
%ADD20R,0.01850X0.02047*%
%ADD38R,0.02362X0.09055*%
%ADD39C,0.01968*%
%ADD40C,0.01181*%
%ADD41R,0.20866X0.20866*%
%ADD42R,0.05315X0.05315*%
%ADD43C,0.05315*%
%ADD44C,0.01968*%
%ADD46R,0.05512X0.02756*%
%ADD47R,0.02756X0.00984*%
%ADD48R,0.00984X0.02756*%
%ADD49R,0.13583X0.13583*%
%ADD50R,0.02756X0.02362*%
%ADD51C,0.00984*%
G36*
X35500Y120000D02*
X27943Y112443D01*
X27321Y112511D01*
X27224Y112638D01*
X27292Y113110D01*
X27310Y113204D01*
X27204Y113741D01*
X26899Y114197D01*
X26443Y114502D01*
X25905Y114609D01*
X25368Y114502D01*
X24912Y114197D01*
X24608Y113741D01*
X24501Y113204D01*
X24519Y113110D01*
X24587Y112638D01*
X24587Y112638D01*
X24587Y112638D01*
Y109803D01*
X24663D01*
X24803Y109303D01*
X24095Y108595D01*
X23839Y108701D01*
Y108701D01*
X21201D01*
Y108086D01*
X20283D01*
X20283Y108086D01*
X19976Y108025D01*
X19716Y107851D01*
X16998Y105133D01*
X15767D01*
X15461Y105633D01*
X15594Y106299D01*
X15426Y107144D01*
X14947Y107860D01*
X14231Y108339D01*
X13386Y108507D01*
X12541Y108339D01*
X11992Y107972D01*
X7776D01*
Y108465D01*
X6890D01*
Y108858D01*
X6496D01*
Y110630D01*
X6004D01*
X5925Y111097D01*
Y113506D01*
X10416Y117997D01*
X27000D01*
X27384Y118073D01*
X27710Y118290D01*
X31930Y122511D01*
X32148Y122836D01*
X32224Y123221D01*
Y125551D01*
X32539D01*
Y128386D01*
X32224D01*
Y129488D01*
X32539D01*
Y132323D01*
X32224D01*
Y133425D01*
X32539D01*
Y136260D01*
X29902D01*
Y133425D01*
X30217D01*
Y132323D01*
X29902D01*
Y129488D01*
X30217D01*
Y128386D01*
X29902D01*
Y125551D01*
X30217D01*
Y123636D01*
X26584Y120003D01*
X20076D01*
X19885Y120466D01*
X22087Y122668D01*
X22305Y122994D01*
X22381Y123378D01*
Y125551D01*
X22697D01*
Y128386D01*
X22381D01*
Y129488D01*
X22697D01*
Y132323D01*
X22381D01*
Y133425D01*
X22697D01*
Y136260D01*
X20059D01*
Y133425D01*
X20374D01*
Y132323D01*
X20059D01*
Y129488D01*
X20374D01*
Y128386D01*
X20059D01*
Y125551D01*
X20374D01*
Y123794D01*
X18159Y121578D01*
X10197D01*
X10005Y122040D01*
X12188Y124223D01*
X12406Y124549D01*
X12482Y124933D01*
Y125551D01*
X12854D01*
Y128386D01*
X12539D01*
Y129488D01*
X12854D01*
Y132323D01*
X12539D01*
Y133425D01*
X12854D01*
Y136260D01*
X10216D01*
Y133425D01*
X10532D01*
Y132323D01*
X10216D01*
Y129488D01*
X10532D01*
Y128386D01*
X10216D01*
Y125551D01*
X10216D01*
X10189Y125063D01*
X275Y115148D01*
X57Y114822D01*
X-19Y114438D01*
Y111097D01*
X-98Y110630D01*
X-519Y110630D01*
X-591D01*
Y108858D01*
X-1378D01*
Y110630D01*
X-1870D01*
X-2050Y111056D01*
Y114350D01*
X-2050Y114350D01*
X-2118Y114696D01*
X-2314Y114989D01*
X-2314Y114989D01*
X-7246Y119921D01*
Y125551D01*
X-6831D01*
Y128386D01*
X-7247D01*
Y129488D01*
X-6831D01*
Y132323D01*
X-7247D01*
Y133425D01*
X-6831D01*
Y136260D01*
X-7247D01*
Y137264D01*
X-6693D01*
Y139114D01*
X-1181D01*
Y149000D01*
X10532D01*
Y148071D01*
X10216D01*
Y145236D01*
X12854D01*
Y148071D01*
X12539D01*
Y149000D01*
X20374D01*
Y148071D01*
X20059D01*
Y145236D01*
X22697D01*
Y148071D01*
X22381D01*
Y149000D01*
X30217D01*
Y148071D01*
X29902D01*
Y145236D01*
X32539D01*
Y148071D01*
X32224D01*
Y149000D01*
X35500D01*
Y120000D01*
D02*
G37*
G36*
X-12992Y137264D02*
X-9053D01*
Y136260D01*
X-9469D01*
Y133425D01*
X-9053D01*
Y132323D01*
X-9469D01*
Y129488D01*
X-9053D01*
Y128386D01*
X-9469D01*
Y125551D01*
X-9053D01*
Y119547D01*
X-8984Y119201D01*
X-8788Y118908D01*
X-8623Y118743D01*
X-8814Y118281D01*
X-16004D01*
X-17089Y119366D01*
Y125551D01*
X-16673D01*
Y128386D01*
X-17089D01*
Y129488D01*
X-16673D01*
Y132323D01*
X-17089D01*
Y133425D01*
X-16673D01*
Y136260D01*
X-17089D01*
Y137264D01*
X-16535D01*
Y139114D01*
X-12992D01*
Y137264D01*
D02*
G37*
G36*
X-22835D02*
X-18895D01*
Y136260D01*
X-19311D01*
Y133425D01*
X-18895D01*
Y132323D01*
X-19311D01*
Y129488D01*
X-18895D01*
Y128386D01*
X-19311D01*
Y125551D01*
X-18895D01*
Y118992D01*
X-18827Y118647D01*
X-18631Y118353D01*
X-17642Y117365D01*
X-17834Y116903D01*
X-26435D01*
X-26932Y117399D01*
Y125551D01*
X-26516D01*
Y128386D01*
X-26932D01*
Y129488D01*
X-26516D01*
Y132323D01*
X-26932D01*
Y133425D01*
X-26516D01*
Y136260D01*
X-26932D01*
Y137264D01*
X-26378D01*
Y139114D01*
X-22835D01*
Y137264D01*
D02*
G37*
G36*
X35500Y117644D02*
Y72000D01*
X27283D01*
Y72180D01*
X27074Y72686D01*
X26909Y72851D01*
Y74370D01*
X27224D01*
Y77205D01*
X26909D01*
Y78307D01*
X27224D01*
Y81142D01*
X26909D01*
Y82244D01*
X27224D01*
Y85079D01*
X26909D01*
Y86181D01*
X27224D01*
Y89016D01*
X26909D01*
Y90118D01*
X27224D01*
Y92953D01*
X27224D01*
X27190Y93004D01*
X27283Y93230D01*
Y93778D01*
X27190Y94004D01*
X27224Y94055D01*
X27224D01*
Y96890D01*
X26909D01*
Y97992D01*
X27224D01*
Y100827D01*
X26909D01*
Y101929D01*
X27224D01*
Y104764D01*
X26909D01*
Y105866D01*
X27224D01*
Y108701D01*
X26909D01*
Y109803D01*
X27224D01*
Y110936D01*
X27597Y111269D01*
X27811Y111246D01*
X27878Y111252D01*
X27943Y111239D01*
X28110Y111272D01*
X28280Y111287D01*
X28339Y111317D01*
X28404Y111330D01*
X28545Y111425D01*
X28696Y111504D01*
X28739Y111554D01*
X28794Y111591D01*
X35038Y117835D01*
X35500Y117644D01*
D02*
G37*
G36*
X-27817Y108614D02*
X-28000Y108151D01*
X-28405Y108109D01*
X-28747Y108452D01*
X-29254Y108661D01*
X-29802D01*
X-30308Y108452D01*
X-30696Y108064D01*
X-30906Y107557D01*
Y107009D01*
X-30696Y106503D01*
X-30308Y106115D01*
X-29802Y105905D01*
X-29254D01*
X-28747Y106115D01*
X-28382Y106481D01*
X-26043D01*
Y105866D01*
X-23405D01*
Y107296D01*
X-22658D01*
Y105866D01*
X-22141D01*
Y104764D01*
X-22658D01*
Y101929D01*
X-20020D01*
Y104764D01*
X-20536D01*
Y105866D01*
X-20020D01*
Y106481D01*
X-15116D01*
X-12398Y103763D01*
X-12161Y103605D01*
X-12128Y103366D01*
X-12124Y103295D01*
X-12149Y103081D01*
X-12376Y102930D01*
X-12376Y102930D01*
X-15093Y100212D01*
X-20020D01*
Y100827D01*
X-22658D01*
Y97992D01*
X-20020D01*
Y98607D01*
X-15682D01*
X-15491Y98145D01*
X-17360Y96275D01*
X-20020D01*
Y96890D01*
X-22658D01*
Y94055D01*
X-20020D01*
Y94670D01*
X-17949D01*
X-17757Y94208D01*
X-19520Y92445D01*
X-20020Y92597D01*
Y92953D01*
X-22658D01*
Y90118D01*
X-20020D01*
Y90733D01*
X-19294D01*
X-18987Y90794D01*
X-18727Y90968D01*
X-18265Y91430D01*
X-17803Y91238D01*
Y89332D01*
X-18734Y88401D01*
X-20020D01*
Y89016D01*
X-22658D01*
Y86181D01*
X-20020D01*
Y86796D01*
X-18402D01*
X-18094Y86857D01*
X-17834Y87031D01*
X-17084Y87781D01*
X-16622Y87590D01*
Y85514D01*
X-17671Y84464D01*
X-20020D01*
Y85079D01*
X-22658D01*
Y82244D01*
X-20020D01*
Y82859D01*
X-17339D01*
X-17031Y82920D01*
X-16771Y83094D01*
X-15251Y84613D01*
X-15251Y84613D01*
X-15077Y84874D01*
X-15016Y85181D01*
X-15016Y85181D01*
Y91338D01*
X-12668Y93685D01*
X-11605D01*
X-11220Y93405D01*
X-11220Y93102D01*
Y91634D01*
X-10252D01*
Y90384D01*
X-10410Y90225D01*
X-10584Y89965D01*
X-10645Y89657D01*
Y87760D01*
X-11011Y87395D01*
X-11220Y86888D01*
Y86340D01*
X-11011Y85834D01*
X-10623Y85446D01*
X-10117Y85236D01*
X-9568D01*
X-9062Y85446D01*
X-8674Y85834D01*
X-8465Y86340D01*
Y86888D01*
X-8674Y87395D01*
X-9040Y87760D01*
Y89325D01*
X-8881Y89483D01*
X-8881Y89483D01*
X-8707Y89744D01*
X-8646Y90051D01*
X-8646Y90051D01*
Y91280D01*
X-8292Y91634D01*
X-7776Y91634D01*
X-7776Y91273D01*
Y88189D01*
X-7693D01*
Y85398D01*
X-8058Y85032D01*
X-8268Y84526D01*
Y83978D01*
X-8058Y83471D01*
X-7670Y83084D01*
X-7164Y82874D01*
X-6616D01*
X-6109Y83084D01*
X-5722Y83471D01*
X-5512Y83978D01*
Y84526D01*
X-5722Y85032D01*
X-6087Y85398D01*
Y87805D01*
X-5807Y88189D01*
X-5504Y88189D01*
X-5315D01*
Y89961D01*
X-4528D01*
Y88189D01*
X-4035D01*
X-3535Y88189D01*
X-3347D01*
Y89961D01*
X-2559D01*
Y88189D01*
X-2067D01*
X-1887Y87763D01*
Y81870D01*
X-2262Y81496D01*
X-4528D01*
Y80588D01*
X-5079D01*
Y80768D01*
X-7913D01*
Y78130D01*
X-5079D01*
Y78782D01*
X-4528D01*
Y78347D01*
X-984D01*
Y78346D01*
X-509Y78286D01*
Y77756D01*
X-441Y77410D01*
X-245Y77117D01*
X984Y75888D01*
Y74016D01*
X4528D01*
Y74924D01*
X5079D01*
Y74744D01*
X7913D01*
Y77382D01*
X5079D01*
Y76730D01*
X4528D01*
Y77165D01*
X2262D01*
X1580Y77846D01*
X1788Y78347D01*
X2362D01*
Y79921D01*
Y81496D01*
X1297D01*
Y82192D01*
X1797Y82387D01*
X2522Y82087D01*
X3384D01*
X4179Y82416D01*
X4789Y83025D01*
X5118Y83821D01*
Y84683D01*
X4789Y85479D01*
X4558Y85709D01*
Y86515D01*
X5020Y86706D01*
X16507Y75220D01*
X16767Y75046D01*
X17074Y74985D01*
X21201D01*
Y74370D01*
X23839D01*
Y77205D01*
X21201D01*
Y76590D01*
X17407D01*
X15538Y78460D01*
X15729Y78922D01*
X21201D01*
Y78307D01*
X23839D01*
Y81142D01*
X21201D01*
Y80527D01*
X15140D01*
X7919Y87748D01*
X7776Y88189D01*
X7776Y88189D01*
X7776D01*
X7776Y88189D01*
Y91273D01*
X7776Y91634D01*
X8136Y91634D01*
X11220D01*
Y91634D01*
X11720Y91632D01*
X20258Y83094D01*
X20258Y83094D01*
X20518Y82920D01*
X20825Y82859D01*
X21201Y82554D01*
Y82244D01*
X23839D01*
Y85079D01*
X21201D01*
Y85079D01*
X20701Y84921D01*
X19289Y86334D01*
X19480Y86796D01*
X21201D01*
Y86181D01*
X23839D01*
Y89016D01*
X21201D01*
Y88401D01*
X18891D01*
X17022Y90271D01*
X17213Y90733D01*
X21201D01*
Y90118D01*
X23839D01*
Y92953D01*
X21201D01*
Y92338D01*
X16625D01*
X14793Y94170D01*
X15000Y94670D01*
X21201D01*
Y94055D01*
X23839D01*
Y96890D01*
X21201D01*
Y96275D01*
X14713D01*
X11996Y98992D01*
X11996Y98994D01*
X12147Y99492D01*
X19372D01*
X20023Y98842D01*
X20283Y98668D01*
X20591Y98607D01*
X20591Y98607D01*
X21201D01*
Y97992D01*
X23839D01*
Y100827D01*
X21201D01*
Y100642D01*
X20701Y100435D01*
X20272Y100863D01*
X20012Y101037D01*
X19705Y101098D01*
X19606D01*
X19557Y101598D01*
X19669Y101620D01*
X19930Y101795D01*
X20581Y102445D01*
X21201D01*
Y101929D01*
X23839D01*
Y104764D01*
X21201D01*
Y104051D01*
X20248D01*
X20248Y104051D01*
X19941Y103990D01*
X19680Y103816D01*
X19030Y103165D01*
X17874D01*
X17752Y103665D01*
X17898Y103763D01*
X20616Y106481D01*
X21201D01*
Y105866D01*
X23839D01*
Y106954D01*
X24132Y107099D01*
X24149Y107095D01*
X24587Y106788D01*
Y105866D01*
X24902D01*
Y104764D01*
X24587D01*
Y101929D01*
X24902D01*
Y100827D01*
X24587D01*
Y97992D01*
X24902D01*
Y96890D01*
X24587D01*
Y94055D01*
X24587D01*
X24621Y94004D01*
X24528Y93778D01*
Y93230D01*
X24621Y93004D01*
X24587Y92953D01*
X24587D01*
Y90118D01*
X24902D01*
Y89016D01*
X24587D01*
Y86181D01*
X24902D01*
Y85079D01*
X24587D01*
Y82244D01*
X24902D01*
Y81142D01*
X24587D01*
Y78307D01*
X24902D01*
Y77205D01*
X24587D01*
Y74370D01*
X24902D01*
Y72851D01*
X24737Y72686D01*
X24528Y72180D01*
Y72000D01*
X-23721D01*
Y74370D01*
X-23405D01*
Y77205D01*
X-23721D01*
Y78307D01*
X-23405D01*
Y81142D01*
X-23405D01*
X-23440Y81193D01*
X-23347Y81419D01*
Y81967D01*
X-23440Y82193D01*
X-23405Y82244D01*
X-23405D01*
Y85079D01*
X-23721D01*
Y86181D01*
X-23405D01*
Y89016D01*
X-26043D01*
Y86181D01*
X-25728D01*
Y85079D01*
X-26043D01*
Y82244D01*
X-26043D01*
X-26009Y82193D01*
X-26102Y81967D01*
Y81419D01*
X-26009Y81193D01*
X-26043Y81142D01*
X-26043D01*
Y78307D01*
X-25728D01*
Y77205D01*
X-26043D01*
Y74370D01*
X-25728D01*
Y72000D01*
X-35500D01*
Y115644D01*
X-35038Y115835D01*
X-27817Y108614D01*
D02*
G37*
G36*
X-32677Y137264D02*
X-28738D01*
Y136260D01*
X-29154D01*
Y133425D01*
X-28738D01*
Y132323D01*
X-29153D01*
Y129488D01*
X-28738D01*
Y128386D01*
X-29153D01*
Y125551D01*
X-28738D01*
Y117025D01*
X-28669Y116680D01*
X-28473Y116386D01*
X-27448Y115361D01*
X-27155Y115166D01*
X-26809Y115097D01*
X-8874D01*
X-7793Y114016D01*
Y108858D01*
X-7776Y108771D01*
Y107546D01*
X-7776Y107185D01*
X-8136Y107185D01*
X-9055D01*
Y106299D01*
X-9449D01*
Y105905D01*
X-11220D01*
Y105563D01*
X-11680Y105315D01*
X-14216Y107851D01*
X-14476Y108025D01*
X-14784Y108086D01*
X-20020D01*
Y108701D01*
X-22658D01*
Y108500D01*
X-23405D01*
Y108701D01*
X-26043D01*
X-26043Y108701D01*
Y108701D01*
X-26155Y108655D01*
X-35500Y118000D01*
Y139114D01*
X-32677D01*
Y137264D01*
D02*
G37*
G36*
X58052Y13602D02*
X53740D01*
X53716Y13597D01*
X53691Y13601D01*
X53382Y13586D01*
X53310Y13567D01*
X53236D01*
X52630Y13447D01*
X52539Y13409D01*
X52442Y13390D01*
X51871Y13154D01*
X51789Y13099D01*
X51698Y13061D01*
X51185Y12718D01*
X51115Y12648D01*
X51033Y12593D01*
X50596Y12156D01*
X50541Y12074D01*
X50471Y12004D01*
X50128Y11491D01*
X50090Y11400D01*
X50035Y11317D01*
X49845Y10859D01*
X15964D01*
Y11931D01*
X16259Y12372D01*
X16366Y12910D01*
X16259Y13447D01*
X15954Y13903D01*
X15498Y14208D01*
X14961Y14314D01*
X14423Y14208D01*
X13967Y13903D01*
X13663Y13447D01*
X13641Y13337D01*
X13131D01*
X13109Y13447D01*
X12804Y13903D01*
X12349Y14208D01*
X11811Y14314D01*
X11273Y14208D01*
X10818Y13903D01*
X10513Y13447D01*
X10491Y13337D01*
X9981D01*
X9959Y13447D01*
X9655Y13903D01*
X9199Y14208D01*
X8661Y14314D01*
X8124Y14208D01*
X7668Y13903D01*
X7363Y13447D01*
X7342Y13337D01*
X6832D01*
X6810Y13447D01*
X6505Y13903D01*
X6050Y14208D01*
X5512Y14314D01*
X4974Y14208D01*
X4518Y13903D01*
X4214Y13447D01*
X4107Y12910D01*
X4214Y12372D01*
X4508Y11931D01*
Y10859D01*
X216D01*
Y11931D01*
X511Y12372D01*
X618Y12910D01*
X511Y13447D01*
X206Y13903D01*
X-250Y14208D01*
X-787Y14314D01*
X-1325Y14208D01*
X-1781Y13903D01*
X-2085Y13447D01*
X-2107Y13337D01*
X-2617D01*
X-2639Y13447D01*
X-2944Y13903D01*
X-3399Y14208D01*
X-3937Y14314D01*
X-4475Y14208D01*
X-4930Y13903D01*
X-5235Y13447D01*
X-5342Y12910D01*
X-5235Y12372D01*
X-4941Y11931D01*
Y10859D01*
X-11201D01*
Y12795D01*
X-11208Y12828D01*
X-11203Y12861D01*
X-11229Y13246D01*
X-11254Y13342D01*
X-11261Y13440D01*
X-11460Y14185D01*
X-11518Y14303D01*
X-11560Y14427D01*
X-11946Y15094D01*
X-12032Y15193D01*
X-12105Y15302D01*
X-12650Y15847D01*
X-12760Y15920D01*
X-12858Y16007D01*
X-13526Y16392D01*
X-13650Y16434D01*
X-13768Y16493D01*
X-14512Y16692D01*
X-14643Y16701D01*
X-14772Y16726D01*
X-15543D01*
X-15672Y16701D01*
X-15803Y16692D01*
X-16547Y16493D01*
X-16665Y16434D01*
X-16789Y16392D01*
X-17457Y16007D01*
X-17555Y15920D01*
X-17665Y15847D01*
X-18210Y15302D01*
X-18283Y15193D01*
X-18369Y15094D01*
X-18755Y14427D01*
X-18797Y14303D01*
X-18855Y14185D01*
X-19054Y13440D01*
X-19061Y13342D01*
X-19086Y13246D01*
X-19112Y12861D01*
X-19107Y12828D01*
X-19114Y12795D01*
Y10859D01*
X-34090D01*
Y11397D01*
X-34197Y11935D01*
X-34502Y12390D01*
X-36014Y13903D01*
X-36470Y14208D01*
X-37008Y14314D01*
X-37545Y14208D01*
X-38001Y13903D01*
X-38306Y13447D01*
X-38413Y12910D01*
X-38306Y12372D01*
X-38001Y11916D01*
X-37407Y11321D01*
X-37598Y10859D01*
X-49845D01*
X-50035Y11317D01*
X-50090Y11400D01*
X-50128Y11491D01*
X-50471Y12004D01*
X-50541Y12074D01*
X-50596Y12156D01*
X-51033Y12593D01*
X-51115Y12648D01*
X-51185Y12718D01*
X-51698Y13061D01*
X-51789Y13099D01*
X-51871Y13154D01*
X-52442Y13390D01*
X-52539Y13409D01*
X-52630Y13447D01*
X-53236Y13567D01*
X-53310D01*
X-53382Y13586D01*
X-53691Y13601D01*
X-53716Y13597D01*
X-53740Y13602D01*
X-58052D01*
Y135827D01*
X-43307D01*
Y47244D01*
X43307D01*
Y135827D01*
X58052D01*
Y13602D01*
D02*
G37*
%LPC*%
G36*
X22697Y144134D02*
X21772D01*
Y143110D01*
X22697D01*
Y144134D01*
D02*
G37*
G36*
X32539D02*
X31614D01*
Y143110D01*
X32539D01*
Y144134D01*
D02*
G37*
G36*
X20984D02*
X20059D01*
Y143110D01*
X20984D01*
Y144134D01*
D02*
G37*
G36*
X30827D02*
X29902D01*
Y143110D01*
X30827D01*
Y144134D01*
D02*
G37*
G36*
X12854Y144134D02*
X11929D01*
Y143110D01*
X12854D01*
Y144134D01*
D02*
G37*
G36*
X11142D02*
X10216D01*
Y143110D01*
X11142D01*
Y144134D01*
D02*
G37*
G36*
X32539Y142323D02*
X31614D01*
Y141299D01*
X32539D01*
Y142323D01*
D02*
G37*
G36*
X30827D02*
X29902D01*
Y141299D01*
X30827D01*
Y142323D01*
D02*
G37*
G36*
X22697D02*
X21772D01*
Y141299D01*
X22697D01*
Y142323D01*
D02*
G37*
G36*
X20984D02*
X20059D01*
Y141299D01*
X20984D01*
Y142323D01*
D02*
G37*
G36*
X12854Y142323D02*
X11929D01*
Y141299D01*
X12854D01*
Y142323D01*
D02*
G37*
G36*
X11142D02*
X10216D01*
Y141299D01*
X11142D01*
Y142323D01*
D02*
G37*
G36*
X12854Y140197D02*
X11929D01*
Y139173D01*
X12854D01*
Y140197D01*
D02*
G37*
G36*
X22697D02*
X21772D01*
Y139173D01*
X22697D01*
Y140197D01*
D02*
G37*
G36*
X32539D02*
X31614D01*
Y139173D01*
X32539D01*
Y140197D01*
D02*
G37*
G36*
X11142D02*
X10216D01*
Y139173D01*
X11142D01*
Y140197D01*
D02*
G37*
G36*
X30827D02*
X29902D01*
Y139173D01*
X30827D01*
Y140197D01*
D02*
G37*
G36*
X20984D02*
X20059D01*
Y139173D01*
X20984D01*
Y140197D01*
D02*
G37*
G36*
X32539Y138386D02*
X31614D01*
Y137362D01*
X32539D01*
Y138386D01*
D02*
G37*
G36*
X30827D02*
X29902D01*
Y137362D01*
X30827D01*
Y138386D01*
D02*
G37*
G36*
X22697D02*
X21772D01*
Y137362D01*
X22697D01*
Y138386D01*
D02*
G37*
G36*
X20984D02*
X20059D01*
Y137362D01*
X20984D01*
Y138386D01*
D02*
G37*
G36*
X12854D02*
X11929D01*
Y137362D01*
X12854D01*
Y138386D01*
D02*
G37*
G36*
X11142D02*
X10216D01*
Y137362D01*
X11142D01*
Y138386D01*
D02*
G37*
G36*
X29153Y148071D02*
X26516D01*
Y145236D01*
X26831D01*
Y144134D01*
X26516D01*
Y141299D01*
X26831D01*
Y140197D01*
X26516D01*
Y137362D01*
X26831D01*
Y136260D01*
X26516D01*
Y133425D01*
X29153D01*
Y136260D01*
X28838D01*
Y137362D01*
X29153D01*
Y140197D01*
X28838D01*
Y141299D01*
X29154D01*
Y144134D01*
X28838D01*
Y145236D01*
X29153D01*
Y148071D01*
D02*
G37*
G36*
X19311D02*
X16673D01*
Y145236D01*
X16989D01*
Y144134D01*
X16673D01*
Y141299D01*
X16989D01*
Y140197D01*
X16673D01*
Y137362D01*
X16989D01*
Y136260D01*
X16673D01*
Y133425D01*
X19311D01*
Y136260D01*
X18996D01*
Y137362D01*
X19311D01*
Y140197D01*
X18996D01*
Y141299D01*
X19311D01*
Y144134D01*
X18996D01*
Y145236D01*
X19311D01*
Y148071D01*
D02*
G37*
G36*
X9469D02*
X6831D01*
Y145236D01*
X7146D01*
Y144134D01*
X6831D01*
Y141299D01*
X7146D01*
Y140197D01*
X6831D01*
Y137362D01*
X7146D01*
Y136260D01*
X6831D01*
Y133425D01*
X9469D01*
Y136260D01*
X9153D01*
Y137362D01*
X9469D01*
Y140197D01*
X9153D01*
Y141299D01*
X9469D01*
Y144134D01*
X9153D01*
Y145236D01*
X9469D01*
Y148071D01*
D02*
G37*
G36*
X29153Y132323D02*
X28228D01*
Y131299D01*
X29153D01*
Y132323D01*
D02*
G37*
G36*
X27441D02*
X26516D01*
Y131299D01*
X27441D01*
Y132323D01*
D02*
G37*
G36*
X19311D02*
X18386D01*
Y131299D01*
X19311D01*
Y132323D01*
D02*
G37*
G36*
X17598D02*
X16673D01*
Y131299D01*
X17598D01*
Y132323D01*
D02*
G37*
G36*
X9469D02*
X8543D01*
Y131299D01*
X9469D01*
Y132323D01*
D02*
G37*
G36*
X7756D02*
X6831D01*
Y131299D01*
X7756D01*
Y132323D01*
D02*
G37*
G36*
X29153Y130512D02*
X28228D01*
Y129488D01*
X29153D01*
Y130512D01*
D02*
G37*
G36*
X27441D02*
X26516D01*
Y129488D01*
X27441D01*
Y130512D01*
D02*
G37*
G36*
X19311D02*
X18386D01*
Y129488D01*
X19311D01*
Y130512D01*
D02*
G37*
G36*
X17598D02*
X16673D01*
Y129488D01*
X17598D01*
Y130512D01*
D02*
G37*
G36*
X9469D02*
X8543D01*
Y129488D01*
X9469D01*
Y130512D01*
D02*
G37*
G36*
X7756D02*
X6831D01*
Y129488D01*
X7756D01*
Y130512D01*
D02*
G37*
G36*
X29153Y128386D02*
X28228D01*
Y127362D01*
X29153D01*
Y128386D01*
D02*
G37*
G36*
X27441D02*
X26516D01*
Y127362D01*
X27441D01*
Y128386D01*
D02*
G37*
G36*
X19311D02*
X18386D01*
Y127362D01*
X19311D01*
Y128386D01*
D02*
G37*
G36*
X17598D02*
X16673D01*
Y127362D01*
X17598D01*
Y128386D01*
D02*
G37*
G36*
X9469D02*
X8543D01*
Y127362D01*
X9469D01*
Y128386D01*
D02*
G37*
G36*
X7756D02*
X6831D01*
Y127362D01*
X7756D01*
Y128386D01*
D02*
G37*
G36*
X29153Y126575D02*
X28228D01*
Y125551D01*
X29153D01*
Y126575D01*
D02*
G37*
G36*
X27441D02*
X26516D01*
Y125551D01*
X27441D01*
Y126575D01*
D02*
G37*
G36*
X19311D02*
X18386D01*
Y125551D01*
X19311D01*
Y126575D01*
D02*
G37*
G36*
X17598D02*
X16673D01*
Y125551D01*
X17598D01*
Y126575D01*
D02*
G37*
G36*
X9469D02*
X8543D01*
Y125551D01*
X9469D01*
Y126575D01*
D02*
G37*
G36*
X7756D02*
X6831D01*
Y125551D01*
X7756D01*
Y126575D01*
D02*
G37*
G36*
X23839Y112638D02*
X22913D01*
Y111614D01*
X23839D01*
Y112638D01*
D02*
G37*
G36*
X22126D02*
X21201D01*
Y111614D01*
X22126D01*
Y112638D01*
D02*
G37*
G36*
X23839Y110827D02*
X22913D01*
Y109803D01*
X23839D01*
Y110827D01*
D02*
G37*
G36*
X22126D02*
X21201D01*
Y109803D01*
X22126D01*
Y110827D01*
D02*
G37*
G36*
X7283Y110630D02*
Y109252D01*
X7776D01*
Y110630D01*
X7283D01*
D02*
G37*
G36*
X-10217Y136260D02*
X-11142D01*
Y135236D01*
X-10217D01*
Y136260D01*
D02*
G37*
G36*
X-11929D02*
X-12854D01*
Y135236D01*
X-11929D01*
Y136260D01*
D02*
G37*
G36*
X-10217Y134449D02*
X-11142D01*
Y133425D01*
X-10217D01*
Y134449D01*
D02*
G37*
G36*
X-11929D02*
X-12854D01*
Y133425D01*
X-11929D01*
Y134449D01*
D02*
G37*
G36*
X-10217Y132323D02*
X-11142D01*
Y131299D01*
X-10217D01*
Y132323D01*
D02*
G37*
G36*
X-11929D02*
X-12854D01*
Y131299D01*
X-11929D01*
Y132323D01*
D02*
G37*
G36*
X-10217Y130512D02*
X-11142D01*
Y129488D01*
X-10217D01*
Y130512D01*
D02*
G37*
G36*
X-11929D02*
X-12854D01*
Y129488D01*
X-11929D01*
Y130512D01*
D02*
G37*
G36*
X-10217Y128386D02*
X-11142D01*
Y127362D01*
X-10217D01*
Y128386D01*
D02*
G37*
G36*
X-11929D02*
X-12854D01*
Y127362D01*
X-11929D01*
Y128386D01*
D02*
G37*
G36*
X-10217Y126575D02*
X-11142D01*
Y125551D01*
X-10217D01*
Y126575D01*
D02*
G37*
G36*
X-11929D02*
X-12854D01*
Y125551D01*
X-11929D01*
Y126575D01*
D02*
G37*
G36*
X-20059Y136260D02*
X-20984D01*
Y135236D01*
X-20059D01*
Y136260D01*
D02*
G37*
G36*
X-21772D02*
X-22697D01*
Y135236D01*
X-21772D01*
Y136260D01*
D02*
G37*
G36*
X-20059Y134449D02*
X-20984D01*
Y133425D01*
X-20059D01*
Y134449D01*
D02*
G37*
G36*
X-21772D02*
X-22697D01*
Y133425D01*
X-21772D01*
Y134449D01*
D02*
G37*
G36*
X-20059Y132323D02*
X-20984D01*
Y131299D01*
X-20059D01*
Y132323D01*
D02*
G37*
G36*
X-21772D02*
X-22697D01*
Y131299D01*
X-21772D01*
Y132323D01*
D02*
G37*
G36*
X-20059Y130512D02*
X-20984D01*
Y129488D01*
X-20059D01*
Y130512D01*
D02*
G37*
G36*
X-21772D02*
X-22697D01*
Y129488D01*
X-21772D01*
Y130512D01*
D02*
G37*
G36*
X-20059Y128386D02*
X-20984D01*
Y127362D01*
X-20059D01*
Y128386D01*
D02*
G37*
G36*
X-21772D02*
X-22697D01*
Y127362D01*
X-21772D01*
Y128386D01*
D02*
G37*
G36*
X-20059Y126575D02*
X-20984D01*
Y125551D01*
X-20059D01*
Y126575D01*
D02*
G37*
G36*
X-21772D02*
X-22697D01*
Y125551D01*
X-21772D01*
Y126575D01*
D02*
G37*
G36*
X-23405Y104764D02*
X-24331D01*
Y103740D01*
X-23405D01*
Y104764D01*
D02*
G37*
G36*
X-25118D02*
X-26043D01*
Y103740D01*
X-25118D01*
Y104764D01*
D02*
G37*
G36*
X-23405Y102953D02*
X-26043D01*
Y101929D01*
X-25527D01*
Y100827D01*
X-26043D01*
Y99803D01*
X-23405D01*
Y100827D01*
X-23922D01*
Y101929D01*
X-23405D01*
Y102953D01*
D02*
G37*
G36*
Y99016D02*
X-24331D01*
Y97992D01*
X-23405D01*
Y99016D01*
D02*
G37*
G36*
X-25118D02*
X-26043D01*
Y97992D01*
X-25118D01*
Y99016D01*
D02*
G37*
G36*
X-23405Y96890D02*
X-26043D01*
Y96275D01*
X-27516D01*
X-27881Y96641D01*
X-28387Y96850D01*
X-28936D01*
X-29442Y96641D01*
X-29830Y96253D01*
X-30039Y95746D01*
Y95198D01*
X-29830Y94692D01*
X-29442Y94304D01*
X-28936Y94095D01*
X-28387D01*
X-27881Y94304D01*
X-27516Y94670D01*
X-26043D01*
Y94055D01*
X-23405D01*
Y96890D01*
D02*
G37*
G36*
Y92953D02*
X-26043D01*
Y92338D01*
X-27516D01*
X-27881Y92704D01*
X-28387Y92913D01*
X-28936D01*
X-29442Y92704D01*
X-29830Y92316D01*
X-30039Y91809D01*
Y91261D01*
X-29830Y90755D01*
X-29442Y90367D01*
X-28936Y90158D01*
X-28387D01*
X-27881Y90367D01*
X-27516Y90733D01*
X-26043D01*
Y90118D01*
X-23405D01*
Y92953D01*
D02*
G37*
G36*
X-20020Y81142D02*
X-20945D01*
Y80118D01*
X-20020D01*
Y81142D01*
D02*
G37*
G36*
X-21732D02*
X-22658D01*
Y80118D01*
X-21732D01*
Y81142D01*
D02*
G37*
G36*
X7913Y80768D02*
X6890D01*
Y79843D01*
X7913D01*
Y80768D01*
D02*
G37*
G36*
Y79055D02*
X6890D01*
Y78130D01*
X7913D01*
Y79055D01*
D02*
G37*
G36*
X4528Y81496D02*
X3150D01*
Y79921D01*
Y78347D01*
X4528D01*
Y78646D01*
X5079D01*
Y78130D01*
X6102D01*
Y79449D01*
Y80768D01*
X5079D01*
Y80252D01*
X4528D01*
Y81496D01*
D02*
G37*
G36*
X-6890Y77382D02*
X-7913D01*
Y76457D01*
X-6890D01*
Y77382D01*
D02*
G37*
G36*
X-20020Y79331D02*
X-21339D01*
X-22658D01*
Y78307D01*
X-22141D01*
Y77205D01*
X-22658D01*
Y76181D01*
X-21339D01*
X-20020D01*
Y77205D01*
X-20536D01*
Y78307D01*
X-20020D01*
Y79331D01*
D02*
G37*
G36*
X-984Y77165D02*
X-2362D01*
Y75984D01*
X-984D01*
Y77165D01*
D02*
G37*
G36*
X-6890Y75669D02*
X-7913D01*
Y74744D01*
X-6890D01*
Y75669D01*
D02*
G37*
G36*
X-20020Y75394D02*
X-20945D01*
Y74370D01*
X-20020D01*
Y75394D01*
D02*
G37*
G36*
X-21732D02*
X-22658D01*
Y74370D01*
X-21732D01*
Y75394D01*
D02*
G37*
G36*
X-984Y75197D02*
X-2362D01*
Y74016D01*
X-984D01*
Y75197D01*
D02*
G37*
G36*
X-5079Y77382D02*
X-6102D01*
Y76063D01*
Y74744D01*
X-5079D01*
Y75260D01*
X-4528D01*
Y74016D01*
X-3150D01*
Y75591D01*
Y77165D01*
X-4528D01*
Y76866D01*
X-5079D01*
Y77382D01*
D02*
G37*
G36*
X-29902Y136260D02*
X-30827D01*
Y135236D01*
X-29902D01*
Y136260D01*
D02*
G37*
G36*
X-31614D02*
X-32539D01*
Y135236D01*
X-31614D01*
Y136260D01*
D02*
G37*
G36*
X-29902Y134449D02*
X-30827D01*
Y133425D01*
X-29902D01*
Y134449D01*
D02*
G37*
G36*
X-31614D02*
X-32539D01*
Y133425D01*
X-31614D01*
Y134449D01*
D02*
G37*
G36*
X-29902Y132323D02*
X-30827D01*
Y131299D01*
X-29902D01*
Y132323D01*
D02*
G37*
G36*
X-31614D02*
X-32539D01*
Y131299D01*
X-31614D01*
Y132323D01*
D02*
G37*
G36*
X-29902Y130512D02*
X-30827D01*
Y129488D01*
X-29902D01*
Y130512D01*
D02*
G37*
G36*
X-31614D02*
X-32539D01*
Y129488D01*
X-31614D01*
Y130512D01*
D02*
G37*
G36*
X-29902Y128386D02*
X-30827D01*
Y127362D01*
X-29902D01*
Y128386D01*
D02*
G37*
G36*
X-31614D02*
X-32539D01*
Y127362D01*
X-31614D01*
Y128386D01*
D02*
G37*
G36*
X-29902Y126575D02*
X-30827D01*
Y125551D01*
X-29902D01*
Y126575D01*
D02*
G37*
G36*
X-31614D02*
X-32539D01*
Y125551D01*
X-31614D01*
Y126575D01*
D02*
G37*
G36*
X-26587Y112803D02*
X-26894Y112742D01*
X-27154Y112568D01*
X-27328Y112307D01*
X-27389Y112000D01*
X-27328Y111693D01*
X-27154Y111432D01*
X-26894Y111258D01*
X-26587Y111197D01*
X-26279Y111258D01*
X-26019Y111432D01*
X-25845Y111693D01*
X-25784Y112000D01*
X-25845Y112307D01*
X-26019Y112568D01*
X-26279Y112742D01*
X-26587Y112803D01*
D02*
G37*
G36*
X-9843Y107185D02*
X-11220D01*
Y106693D01*
X-9843D01*
Y107185D01*
D02*
G37*
G36*
X28681Y43323D02*
X28374Y43261D01*
X28113Y43087D01*
X27939Y42827D01*
X27878Y42520D01*
X27939Y42213D01*
X28113Y41952D01*
X28374Y41778D01*
X28681Y41717D01*
X28988Y41778D01*
X29249Y41952D01*
X29423Y42213D01*
X29484Y42520D01*
X29423Y42827D01*
X29249Y43087D01*
X28988Y43261D01*
X28681Y43323D01*
D02*
G37*
G36*
X23681D02*
X23374Y43261D01*
X23113Y43087D01*
X22939Y42827D01*
X22878Y42520D01*
X22939Y42213D01*
X23113Y41952D01*
X23374Y41778D01*
X23681Y41717D01*
X23988Y41778D01*
X24249Y41952D01*
X24423Y42213D01*
X24484Y42520D01*
X24423Y42827D01*
X24249Y43087D01*
X23988Y43261D01*
X23681Y43323D01*
D02*
G37*
%LPD*%
D10*
X53740Y12598D02*
G03*
X50591Y9449I0J-3150D01*
G01*
X-50591D02*
G03*
X-53740Y12598I-3150J0D01*
G01*
X-12205Y12795D02*
G03*
X-18110Y12795I-2953J0D01*
G01*
X53740Y12598D02*
G03*
X50591Y9449I0J-3150D01*
G01*
X-50591D02*
G03*
X-53740Y12598I-3150J0D01*
G01*
X-12205Y12795D02*
G03*
X-18110Y12795I-2953J0D01*
G01*
X-50591Y0D02*
X-18110D01*
X50591D02*
Y9449D01*
X53740Y12598D02*
X59055D01*
X-59055D02*
X-53740D01*
X-12205Y0D02*
Y12795D01*
X-18110Y0D02*
Y12795D01*
X-50591Y0D02*
Y9449D01*
X-12205Y0D02*
X50591D01*
X-59055Y200591D02*
X59055D01*
X-50591Y0D02*
Y9449D01*
X59055Y12598D02*
Y200591D01*
X-18110Y0D02*
Y12795D01*
X50591Y0D02*
Y9449D01*
X-12205Y0D02*
Y12795D01*
X-50591Y0D02*
X-18110D01*
X-12205D02*
X50591D01*
X53740Y12598D02*
X59055D01*
X-59055D02*
X-53740D01*
X-59055D02*
Y200591D01*
D11*
X-28661Y95472D02*
X-24724D01*
X4921Y87941D02*
Y89961D01*
Y87941D02*
X17074Y75787D01*
X14808Y79724D02*
X22520D01*
X17074Y75787D02*
X22520D01*
X6890Y87642D02*
X14808Y79724D01*
X-9843Y86614D02*
Y89657D01*
X-9449Y90051D01*
Y92520D01*
X-11831Y104331D02*
X-9449D01*
X-21339Y107283D02*
X-14784D01*
X-11831Y104331D01*
X-6890Y84252D02*
Y89961D01*
X-29528Y107283D02*
X-24724D01*
Y99409D02*
Y103347D01*
X-28661Y91535D02*
X-24724D01*
X-21339Y75787D02*
Y79724D01*
X9449Y106299D02*
X13386D01*
X2953Y84252D02*
Y89961D01*
X20283Y107283D02*
X22520D01*
X17331Y104331D02*
X20283Y107283D01*
X9449Y104331D02*
X17331D01*
X9547Y100295D02*
X19705D01*
X20591Y99410D02*
X22520D01*
X19705Y100295D02*
X20591Y99410D01*
X20248Y103248D02*
X22520D01*
X9449Y102362D02*
X19362D01*
X20248Y103248D01*
X9449Y100394D02*
X9547Y100295D01*
X9449Y98425D02*
X11427D01*
X14380Y95472D02*
X22520D01*
X11427Y98425D02*
X14380Y95472D01*
X11393Y96435D02*
X16292Y91535D01*
X9449Y92520D02*
X11967D01*
X18559Y87598D02*
X22520D01*
X20825Y83661D02*
X22520D01*
X9449Y96457D02*
X9471Y96435D01*
X16292Y91535D02*
X22520D01*
X9471Y96435D02*
X11393D01*
X11669Y94488D02*
X18559Y87598D01*
X9449Y94488D02*
X11669D01*
X11967Y92520D02*
X20825Y83661D01*
X6890Y87642D02*
Y89961D01*
X3228Y79449D02*
X6496D01*
X2756Y79921D02*
X3228Y79449D01*
X-3228Y76063D02*
X-2756Y75590D01*
X-6496Y76063D02*
X-3228D01*
X-11808Y102362D02*
X-9449D01*
X-14761Y99409D02*
X-11808Y102362D01*
X-17028Y95472D02*
X-12106Y100394D01*
X-9449D01*
X-21339Y99409D02*
X-14761D01*
X-17000Y89000D02*
Y92159D01*
X-12404Y98425D02*
X-9449D01*
X-19294Y91535D02*
X-12404Y98425D01*
X-12703Y96457D02*
X-9449D01*
X-17000Y92159D02*
X-12703Y96457D01*
X-21339Y91535D02*
X-19294D01*
X-15819Y85181D02*
Y91670D01*
X-21339Y95472D02*
X-17028D01*
X-15819Y91670D02*
X-13001Y94488D01*
X-9449D01*
X-21339Y87598D02*
X-18402D01*
X-17000Y89000D01*
X-17339Y83661D02*
X-15819Y85181D01*
X-21339Y83661D02*
X-17339D01*
X-21339Y103346D02*
Y107283D01*
D12*
X11600Y87809D02*
Y111009D01*
X-11600Y87809D02*
Y111009D01*
X11600D01*
X-11600Y87809D02*
X11600D01*
X-11600D02*
Y111009D01*
Y87809D02*
X11600D01*
Y111009D01*
X-11600D02*
X11600D01*
X-1181Y99410D02*
X1181D01*
X0Y98228D02*
Y100591D01*
D15*
X35039Y141535D02*
Y147835D01*
X24016D02*
X35039D01*
X24016Y141535D02*
X35039D01*
X24016D02*
Y147835D01*
X-8063Y92520D02*
X-5110D01*
X-8063Y86614D02*
Y92520D01*
X-5110Y86614D02*
Y92520D01*
X-8063Y86614D02*
X-5110D01*
X-28063D02*
X-25110D01*
Y92520D01*
X-28063Y86614D02*
Y92520D01*
X-25110D01*
X-18063D02*
X-15110D01*
X-18063Y86614D02*
Y92520D01*
X-15110Y86614D02*
Y92520D01*
X-18063Y86614D02*
X-15110D01*
X1937Y92520D02*
X4890D01*
X1937Y86614D02*
Y92520D01*
X4890Y86614D02*
Y92520D01*
X1937Y86614D02*
X4890D01*
X-35740Y93504D02*
X7567D01*
X-35740Y125000D02*
X7567D01*
X-35740Y93504D02*
Y125000D01*
X7567Y93504D02*
Y125000D01*
X16339Y32480D02*
Y63976D01*
X36024Y32480D02*
Y63976D01*
X16339Y32480D02*
X36024D01*
X16339Y63976D02*
X36024D01*
X17634Y97933D02*
X23539D01*
X17634Y94980D02*
X23539D01*
Y97933D01*
X17634Y94980D02*
Y97933D01*
X31413Y94980D02*
Y97933D01*
X25508D02*
X31413D01*
X25508Y94980D02*
X31413D01*
X25508D02*
Y97933D01*
X-27559Y23228D02*
Y73228D01*
X5118D01*
Y23228D02*
Y73228D01*
X-27559Y23228D02*
X5118D01*
X43307Y154528D02*
Y203740D01*
X-43307Y154528D02*
Y203740D01*
Y154528D02*
X43307D01*
X-43307Y203740D02*
X43307D01*
X26575Y137303D02*
Y140256D01*
X32480Y137303D02*
Y140256D01*
X26575Y137303D02*
X32480D01*
X26575Y140256D02*
X32480D01*
X-5512Y141535D02*
Y147835D01*
Y141535D02*
X5512D01*
X-5512Y147835D02*
X5512D01*
Y141535D02*
Y147835D01*
X-2953Y137303D02*
Y140256D01*
X2953Y137303D02*
Y140256D01*
X-2953Y137303D02*
X2953D01*
X-2953Y140256D02*
X2953D01*
X-35039Y141535D02*
Y147835D01*
Y141535D02*
X-24016D01*
X-35039Y147835D02*
X-24016D01*
Y141535D02*
Y147835D01*
X-32480Y137303D02*
Y140256D01*
X-26575Y137303D02*
Y140256D01*
X-32480Y137303D02*
X-26575D01*
X-32480Y140256D02*
X-26575D01*
X17634Y114862D02*
Y117815D01*
X23539Y114862D02*
Y117815D01*
X17634Y114862D02*
X23539D01*
X17634Y117815D02*
X23539D01*
X31413Y114862D02*
Y117815D01*
X25508D02*
X31413D01*
X25508Y114862D02*
X31413D01*
X25508D02*
Y117815D01*
X-22835Y148228D02*
X-16535D01*
Y137205D02*
Y148228D01*
X-22835Y137205D02*
Y148228D01*
Y137205D02*
X-16535D01*
X-12992Y148228D02*
X-6693D01*
Y137205D02*
Y148228D01*
X-12992Y137205D02*
Y148228D01*
Y137205D02*
X-6693D01*
X-32677Y148228D02*
X-26378D01*
Y137205D02*
Y148228D01*
X-32677Y137205D02*
Y148228D01*
Y137205D02*
X-26378D01*
X-32480Y125492D02*
Y128445D01*
X-26575D01*
X-32480Y125492D02*
X-26575D01*
Y128445D01*
X22638Y141240D02*
Y144193D01*
X16732Y141240D02*
X22638D01*
X16732Y144193D02*
X22638D01*
X16732Y141240D02*
Y144193D01*
X32480Y141240D02*
Y144193D01*
X26575Y141240D02*
X32480D01*
X26575Y144193D02*
X32480D01*
X26575Y141240D02*
Y144193D01*
X6890Y145177D02*
Y148130D01*
X12795D01*
X6890Y145177D02*
X12795D01*
Y148130D01*
X26575Y145177D02*
Y148130D01*
X32480D01*
X26575Y145177D02*
X32480D01*
Y148130D01*
X16732Y145177D02*
Y148130D01*
X22638D01*
X16732Y145177D02*
X22638D01*
Y148130D01*
X-16732Y125492D02*
Y128445D01*
X-22638Y125492D02*
X-16732D01*
X-22638Y128445D02*
X-16732D01*
X-22638Y125492D02*
Y128445D01*
X-20079Y90059D02*
Y93012D01*
X-25984Y90059D02*
X-20079D01*
X-25984Y93012D02*
X-20079D01*
X-25984Y90059D02*
Y93012D01*
Y105807D02*
Y108760D01*
X-20079D01*
X-25984Y105807D02*
X-20079D01*
Y108760D01*
X21260Y74311D02*
Y77264D01*
X27165D01*
X21260Y74311D02*
X27165D01*
Y77264D01*
X21260Y82185D02*
Y85138D01*
X27165D01*
X21260Y82185D02*
X27165D01*
Y85138D01*
X21260Y78248D02*
Y81201D01*
X27165D01*
X21260Y78248D02*
X27165D01*
Y81201D01*
X4724Y73819D02*
Y81693D01*
X-4724Y73819D02*
Y81693D01*
Y73819D02*
X4724D01*
X-4724Y81693D02*
X4724D01*
X27165Y90059D02*
Y93012D01*
X21260Y90059D02*
X27165D01*
X21260Y93012D02*
X27165D01*
X21260Y90059D02*
Y93012D01*
Y86122D02*
Y89075D01*
X27165D01*
X21260Y86122D02*
X27165D01*
Y89075D01*
X-25984Y82185D02*
Y85138D01*
X-20079D01*
X-25984Y82185D02*
X-20079D01*
Y85138D01*
Y86122D02*
Y89075D01*
X-25984Y86122D02*
X-20079D01*
X-25984Y89075D02*
X-20079D01*
X-25984Y86122D02*
Y89075D01*
X-20079Y97933D02*
Y100886D01*
X-25984Y97933D02*
X-20079D01*
X-25984Y100886D02*
X-20079D01*
X-25984Y97933D02*
Y100886D01*
X-20079Y93996D02*
Y96949D01*
X-25984Y93996D02*
X-20079D01*
X-25984Y96949D02*
X-20079D01*
X-25984Y93996D02*
Y96949D01*
X27165Y109744D02*
Y112697D01*
X21260Y109744D02*
X27165D01*
X21260Y112697D02*
X27165D01*
X21260Y109744D02*
Y112697D01*
X21260Y97933D02*
Y100886D01*
X27165D01*
X21260Y97933D02*
X27165D01*
Y100886D01*
X21260Y93996D02*
Y96949D01*
X27165D01*
X21260Y93996D02*
X27165D01*
Y96949D01*
Y101870D02*
Y104823D01*
X21260Y101870D02*
X27165D01*
X21260Y104823D02*
X27165D01*
X21260Y101870D02*
Y104823D01*
Y105807D02*
Y108760D01*
X27165D01*
X21260Y105807D02*
X27165D01*
Y108760D01*
X-12795Y125492D02*
Y128445D01*
X-6890D01*
X-12795Y125492D02*
X-6890D01*
Y128445D01*
X32480Y133366D02*
Y136319D01*
X26575Y133366D02*
X32480D01*
X26575Y136319D02*
X32480D01*
X26575Y133366D02*
Y136319D01*
X22638Y133366D02*
Y136319D01*
X16732Y133366D02*
X22638D01*
X16732Y136319D02*
X22638D01*
X16732Y133366D02*
Y136319D01*
X12795Y133366D02*
Y136319D01*
X6890Y133366D02*
X12795D01*
X6890Y136319D02*
X12795D01*
X6890Y133366D02*
Y136319D01*
X12795Y141240D02*
Y144193D01*
X6890Y141240D02*
X12795D01*
X6890Y144193D02*
X12795D01*
X6890Y141240D02*
Y144193D01*
X35039Y141535D02*
Y147835D01*
X24016Y141535D02*
Y147835D01*
X35039D01*
X24016Y141535D02*
X35039D01*
X28543Y144685D02*
X30512D01*
X29528Y143701D02*
Y145669D01*
X-7571Y89567D02*
X-5602D01*
X-6587Y88583D02*
Y90551D01*
X-8063Y86614D02*
Y92520D01*
X-5110Y86614D02*
Y92520D01*
X-8063D02*
X-5110D01*
X-8063Y86614D02*
X-5110D01*
X-28063D02*
X-25110D01*
X-28063Y92520D02*
X-25110D01*
Y86614D02*
Y92520D01*
X-28063Y86614D02*
Y92520D01*
X-26587Y88583D02*
Y90551D01*
X-27571Y89567D02*
X-25602D01*
X-17571D02*
X-15602D01*
X-16587Y88583D02*
Y90551D01*
X-18063Y86614D02*
Y92520D01*
X-15110Y86614D02*
Y92520D01*
X-18063D02*
X-15110D01*
X-18063Y86614D02*
X-15110D01*
X2429Y89567D02*
X4398D01*
X3413Y88583D02*
Y90551D01*
X1937Y86614D02*
Y92520D01*
X4890Y86614D02*
Y92520D01*
X1937D02*
X4890D01*
X1937Y86614D02*
X4890D01*
X-35740Y125000D02*
X7567D01*
X-35740Y93504D02*
Y125000D01*
X7567Y93504D02*
Y125000D01*
X-35740Y93504D02*
X7567D01*
X-15071Y109252D02*
X-13102D01*
X-14087Y108268D02*
Y110236D01*
X26181Y47244D02*
Y49213D01*
X25197Y48228D02*
X27165D01*
X16339Y63976D02*
X36024D01*
X16339Y32480D02*
Y63976D01*
X36024Y32480D02*
Y63976D01*
X16339Y32480D02*
X36024D01*
X19602Y96457D02*
X21571D01*
X20587Y95472D02*
Y97441D01*
X23539Y94980D02*
Y97933D01*
X17634Y94980D02*
Y97933D01*
X23539D01*
X17634Y94980D02*
X23539D01*
X31413D02*
Y97933D01*
X25508Y94980D02*
Y97933D01*
X31413D01*
X25508Y94980D02*
X31413D01*
X27476Y96457D02*
X29445D01*
X28461Y95472D02*
Y97441D01*
X6102Y66260D02*
X13780D01*
X-36220Y30197D02*
X-28543D01*
X13780D02*
Y66260D01*
X-36220Y30197D02*
Y66220D01*
X6102Y30197D02*
X13780D01*
X-36220Y66220D02*
X-28543D01*
Y74213D01*
X6102Y22244D02*
Y30197D01*
X-28543Y22244D02*
X6102D01*
X-28543Y74213D02*
X6102D01*
Y66260D02*
Y74213D01*
X-28543Y22244D02*
Y30197D01*
X-12205Y48228D02*
X-10236D01*
X-11220Y47244D02*
Y49213D01*
X-43307Y154528D02*
X43307D01*
X-43307D02*
Y203740D01*
X43307D01*
Y154528D02*
Y203740D01*
X0Y165354D02*
Y167323D01*
X-984Y166339D02*
X984D01*
X26575Y137303D02*
X32480D01*
X26575Y140256D02*
X32480D01*
X26575Y137303D02*
Y140256D01*
X32480Y137303D02*
Y140256D01*
X29528Y137795D02*
Y139764D01*
X28543Y138779D02*
X30512D01*
X0Y143701D02*
Y145669D01*
X-984Y144685D02*
X984D01*
X-5512Y141535D02*
X5512D01*
X-5512Y147835D02*
X5512D01*
X-5512Y141535D02*
Y147835D01*
X5512Y141535D02*
Y147835D01*
X-2953Y137303D02*
X2953D01*
X-2953Y140256D02*
X2953D01*
X-2953Y137303D02*
Y140256D01*
X2953Y137303D02*
Y140256D01*
X0Y137795D02*
Y139764D01*
X-984Y138779D02*
X984D01*
X-29528Y143701D02*
Y145669D01*
X-30512Y144685D02*
X-28543D01*
X-35039Y141535D02*
X-24016D01*
X-35039Y147835D02*
X-24016D01*
X-35039Y141535D02*
Y147835D01*
X-24016Y141535D02*
Y147835D01*
X-32480Y137303D02*
X-26575D01*
X-32480Y140256D02*
X-26575D01*
X-32480Y137303D02*
Y140256D01*
X-26575Y137303D02*
Y140256D01*
X-29528Y137795D02*
Y139764D01*
X-30512Y138779D02*
X-28543D01*
X17634Y114862D02*
X23539D01*
X17634Y117815D02*
X23539D01*
X17634Y114862D02*
Y117815D01*
X23539Y114862D02*
Y117815D01*
X20587Y115354D02*
Y117323D01*
X19602Y116339D02*
X21571D01*
X31413Y114862D02*
Y117815D01*
X25508Y114862D02*
Y117815D01*
X31413D01*
X25508Y114862D02*
X31413D01*
X27476Y116339D02*
X29445D01*
X28461Y115354D02*
Y117323D01*
X-20669Y142717D02*
X-18701D01*
X-19685Y141732D02*
Y143701D01*
X-16535Y137205D02*
Y148228D01*
X-22835Y137205D02*
Y148228D01*
X-16535D01*
X-22835Y137205D02*
X-16535D01*
X-10827Y142717D02*
X-8858D01*
X-9843Y141732D02*
Y143701D01*
X-6693Y137205D02*
Y148228D01*
X-12992Y137205D02*
Y148228D01*
X-6693D01*
X-12992Y137205D02*
X-6693D01*
X-30512Y142717D02*
X-28543D01*
X-29528Y141732D02*
Y143701D01*
X-26378Y137205D02*
Y148228D01*
X-32677Y137205D02*
Y148228D01*
X-26378D01*
X-32677Y137205D02*
X-26378D01*
X-32480Y125492D02*
Y128445D01*
X-26575Y125492D02*
Y128445D01*
X-32480D02*
X-26575D01*
X-32480Y125492D02*
X-26575D01*
X-30512Y126969D02*
X-28543D01*
X-29528Y125984D02*
Y127953D01*
X22638Y141240D02*
Y144193D01*
X16732Y141240D02*
Y144193D01*
Y141240D02*
X22638D01*
X16732Y144193D02*
X22638D01*
X18701Y142717D02*
X20669D01*
X19685Y141732D02*
Y143701D01*
X32480Y141240D02*
Y144193D01*
X26575Y141240D02*
Y144193D01*
Y141240D02*
X32480D01*
X26575Y144193D02*
X32480D01*
X28543Y142717D02*
X30512D01*
X29528Y141732D02*
Y143701D01*
X6890Y145177D02*
Y148130D01*
X12795Y145177D02*
Y148130D01*
X6890D02*
X12795D01*
X6890Y145177D02*
X12795D01*
X8858Y146653D02*
X10827D01*
X9843Y145669D02*
Y147638D01*
X26575Y145177D02*
Y148130D01*
X32480Y145177D02*
Y148130D01*
X26575D02*
X32480D01*
X26575Y145177D02*
X32480D01*
X28543Y146653D02*
X30512D01*
X29528Y145669D02*
Y147638D01*
X16732Y145177D02*
Y148130D01*
X22638Y145177D02*
Y148130D01*
X16732D02*
X22638D01*
X16732Y145177D02*
X22638D01*
X18701Y146653D02*
X20669D01*
X19685Y145669D02*
Y147638D01*
X-19685Y125984D02*
Y127953D01*
X-20669Y126969D02*
X-18701D01*
X-22638Y125492D02*
X-16732D01*
X-22638Y128445D02*
X-16732D01*
Y125492D02*
Y128445D01*
X-22638Y125492D02*
Y128445D01*
X-23031Y90551D02*
Y92520D01*
X-24016Y91535D02*
X-22047D01*
X-25984Y90059D02*
X-20079D01*
X-25984Y93012D02*
X-20079D01*
Y90059D02*
Y93012D01*
X-25984Y90059D02*
Y93012D01*
Y105807D02*
Y108760D01*
X-20079Y105807D02*
Y108760D01*
X-25984D02*
X-20079D01*
X-25984Y105807D02*
X-20079D01*
X-24016Y107283D02*
X-22047D01*
X-23031Y106299D02*
Y108268D01*
X24213Y74803D02*
Y76772D01*
X23228Y75787D02*
X25197D01*
X21260Y77264D02*
X27165D01*
X21260Y74311D02*
X27165D01*
X21260D02*
Y77264D01*
X27165Y74311D02*
Y77264D01*
X24213Y82677D02*
Y84646D01*
X23228Y83661D02*
X25197D01*
X21260Y85138D02*
X27165D01*
X21260Y82185D02*
X27165D01*
X21260D02*
Y85138D01*
X27165Y82185D02*
Y85138D01*
X24213Y78740D02*
Y80709D01*
X23228Y79724D02*
X25197D01*
X21260Y81201D02*
X27165D01*
X21260Y78248D02*
X27165D01*
X21260D02*
Y81201D01*
X27165Y78248D02*
Y81201D01*
X-4724Y73819D02*
Y81693D01*
X4724Y73819D02*
Y81693D01*
X-4724D02*
X4724D01*
X-4724Y73819D02*
X4724D01*
X0Y76772D02*
Y78740D01*
X-984Y77756D02*
X984D01*
X24213Y90551D02*
Y92520D01*
X23228Y91535D02*
X25197D01*
X21260Y90059D02*
X27165D01*
X21260Y93012D02*
X27165D01*
Y90059D02*
Y93012D01*
X21260Y90059D02*
Y93012D01*
X24213Y86614D02*
Y88583D01*
X23228Y87598D02*
X25197D01*
X21260Y89075D02*
X27165D01*
X21260Y86122D02*
X27165D01*
X21260D02*
Y89075D01*
X27165Y86122D02*
Y89075D01*
X-23031Y82677D02*
Y84646D01*
X-24016Y83661D02*
X-22047D01*
X-25984Y85138D02*
X-20079D01*
X-25984Y82185D02*
X-20079D01*
X-25984D02*
Y85138D01*
X-20079Y82185D02*
Y85138D01*
X-23031Y86614D02*
Y88583D01*
X-24016Y87598D02*
X-22047D01*
X-25984Y86122D02*
X-20079D01*
X-25984Y89075D02*
X-20079D01*
Y86122D02*
Y89075D01*
X-25984Y86122D02*
Y89075D01*
X-23031Y98425D02*
Y100394D01*
X-24016Y99409D02*
X-22047D01*
X-25984Y97933D02*
X-20079D01*
X-25984Y100886D02*
X-20079D01*
Y97933D02*
Y100886D01*
X-25984Y97933D02*
Y100886D01*
X-23031Y94488D02*
Y96457D01*
X-24016Y95472D02*
X-22047D01*
X-25984Y93996D02*
X-20079D01*
X-25984Y96949D02*
X-20079D01*
Y93996D02*
Y96949D01*
X-25984Y93996D02*
Y96949D01*
X24213Y110236D02*
Y112205D01*
X23228Y111221D02*
X25197D01*
X21260Y109744D02*
X27165D01*
X21260Y112697D02*
X27165D01*
Y109744D02*
Y112697D01*
X21260Y109744D02*
Y112697D01*
X24213Y98425D02*
Y100394D01*
X23228Y99410D02*
X25197D01*
X21260Y100886D02*
X27165D01*
X21260Y97933D02*
X27165D01*
X21260D02*
Y100886D01*
X27165Y97933D02*
Y100886D01*
X24213Y94488D02*
Y96457D01*
X23228Y95472D02*
X25197D01*
X21260Y96949D02*
X27165D01*
X21260Y93996D02*
X27165D01*
X21260D02*
Y96949D01*
X27165Y93996D02*
Y96949D01*
X24213Y102362D02*
Y104331D01*
X23228Y103347D02*
X25197D01*
X21260Y101870D02*
X27165D01*
X21260Y104823D02*
X27165D01*
Y101870D02*
Y104823D01*
X21260Y101870D02*
Y104823D01*
X24213Y106299D02*
Y108268D01*
X23228Y107283D02*
X25197D01*
X21260Y108760D02*
X27165D01*
X21260Y105807D02*
X27165D01*
X21260D02*
Y108760D01*
X27165Y105807D02*
Y108760D01*
X-12795Y125492D02*
Y128445D01*
X-6890Y125492D02*
Y128445D01*
X-12795D02*
X-6890D01*
X-12795Y125492D02*
X-6890D01*
X-10827Y126969D02*
X-8858D01*
X-9843Y125984D02*
Y127953D01*
X32480Y133366D02*
Y136319D01*
X26575Y133366D02*
Y136319D01*
Y133366D02*
X32480D01*
X26575Y136319D02*
X32480D01*
X28543Y134843D02*
X30512D01*
X29528Y133858D02*
Y135827D01*
X22638Y133366D02*
Y136319D01*
X16732Y133366D02*
Y136319D01*
Y133366D02*
X22638D01*
X16732Y136319D02*
X22638D01*
X18701Y134843D02*
X20669D01*
X19685Y133858D02*
Y135827D01*
X12795Y133366D02*
Y136319D01*
X6890Y133366D02*
Y136319D01*
Y133366D02*
X12795D01*
X6890Y136319D02*
X12795D01*
X8858Y134843D02*
X10827D01*
X9843Y133858D02*
Y135827D01*
X12795Y141240D02*
Y144193D01*
X6890Y141240D02*
Y144193D01*
Y141240D02*
X12795D01*
X6890Y144193D02*
X12795D01*
X8858Y142717D02*
X10827D01*
X9843Y141732D02*
Y143701D01*
D16*
X-23063Y86614D02*
X-20110D01*
X-23063Y92520D02*
X-20110D01*
X-23063Y86614D02*
Y92520D01*
X-20110Y86614D02*
Y92520D01*
X-13063Y86614D02*
X-10110D01*
X-13063Y92520D02*
X-10110D01*
X-13063Y86614D02*
Y92520D01*
X-10110Y86614D02*
Y92520D01*
X-30110Y86614D02*
Y92520D01*
X-33063Y86614D02*
Y92520D01*
X-30110D01*
X-33063Y86614D02*
X-30110D01*
X-3063D02*
X-110D01*
X-3063Y92520D02*
X-110D01*
X-3063Y86614D02*
Y92520D01*
X-110Y86614D02*
Y92520D01*
X23327Y62697D02*
Y65650D01*
X17421Y62697D02*
Y65650D01*
Y62697D02*
X23327D01*
X17421Y65650D02*
X23327D01*
Y30807D02*
Y33760D01*
X17421Y30807D02*
Y33760D01*
Y30807D02*
X23327D01*
X17421Y33760D02*
X23327D01*
X6890Y53642D02*
X12795D01*
X6890Y50689D02*
X12795D01*
X6890D02*
Y53642D01*
X12795Y50689D02*
Y53642D01*
X6890Y57579D02*
X12795D01*
X6890Y54626D02*
X12795D01*
X6890D02*
Y57579D01*
X12795Y54626D02*
Y57579D01*
X-35039Y53642D02*
X-29134D01*
X-35039Y50689D02*
X-29134D01*
X-35039D02*
Y53642D01*
X-29134Y50689D02*
Y53642D01*
X-35039Y57579D02*
X-29134D01*
X-35039Y54626D02*
X-29134D01*
X-35039D02*
Y57579D01*
X-29134Y54626D02*
Y57579D01*
X7972Y74803D02*
Y80709D01*
X5020Y74803D02*
Y80709D01*
Y74803D02*
X7972D01*
X5020Y80709D02*
X7972D01*
X-7972Y74803D02*
Y80709D01*
X-5020Y74803D02*
Y80709D01*
X-7972D02*
X-5020D01*
X-7972Y74803D02*
X-5020D01*
X-20079Y78248D02*
Y81201D01*
X-25984Y78248D02*
Y81201D01*
X-20079D01*
X-25984Y78248D02*
X-20079D01*
Y74311D02*
Y77264D01*
X-25984Y74311D02*
Y77264D01*
X-20079D01*
X-25984Y74311D02*
X-20079D01*
X-25984Y104823D02*
X-20079D01*
X-25984Y101870D02*
X-20079D01*
Y104823D01*
X-25984Y101870D02*
Y104823D01*
X6890Y128445D02*
X12795D01*
X6890Y125492D02*
X12795D01*
Y128445D01*
X6890Y125492D02*
Y128445D01*
X16732D02*
X22638D01*
X16732Y125492D02*
X22638D01*
Y128445D01*
X16732Y125492D02*
Y128445D01*
X26575D02*
X32480D01*
X26575Y125492D02*
X32480D01*
Y128445D01*
X26575Y125492D02*
Y128445D01*
X6890Y132382D02*
X12795D01*
X6890Y129429D02*
X12795D01*
Y132382D01*
X6890Y129429D02*
Y132382D01*
X16732D02*
X22638D01*
X16732Y129429D02*
X22638D01*
Y132382D01*
X16732Y129429D02*
Y132382D01*
X26575D02*
X32480D01*
X26575Y129429D02*
X32480D01*
Y132382D01*
X26575Y129429D02*
Y132382D01*
X6890Y137303D02*
X12795D01*
X6890Y140256D02*
X12795D01*
X6890Y137303D02*
Y140256D01*
X12795Y137303D02*
Y140256D01*
X16732Y137303D02*
X22638D01*
X16732Y140256D02*
X22638D01*
X16732Y137303D02*
Y140256D01*
X22638Y137303D02*
Y140256D01*
X26575Y137303D02*
X32480D01*
X26575Y140256D02*
X32480D01*
X26575Y137303D02*
Y140256D01*
X32480Y137303D02*
Y140256D01*
X-32480Y136319D02*
X-26575D01*
X-32480Y133366D02*
X-26575D01*
Y136319D01*
X-32480Y133366D02*
Y136319D01*
X-22638D02*
X-16732D01*
X-22638Y133366D02*
X-16732D01*
Y136319D01*
X-22638Y133366D02*
Y136319D01*
X-12795D02*
X-6890D01*
X-12795Y133366D02*
X-6890D01*
Y136319D01*
X-12795Y133366D02*
Y136319D01*
X-32480Y132382D02*
X-26575D01*
X-32480Y129429D02*
X-26575D01*
Y132382D01*
X-32480Y129429D02*
Y132382D01*
X-22638D02*
X-16732D01*
X-22638Y129429D02*
X-16732D01*
Y132382D01*
X-22638Y129429D02*
Y132382D01*
X-12795D02*
X-6890D01*
X-12795Y129429D02*
X-6890D01*
Y132382D01*
X-12795Y129429D02*
Y132382D01*
X-23063Y86614D02*
X-20110D01*
X-23063D02*
Y92520D01*
X-20110Y86614D02*
Y92520D01*
X-21587Y88583D02*
Y90551D01*
X-22571Y89567D02*
X-20602D01*
X-23063Y92520D02*
X-20110D01*
X-13063Y86614D02*
X-10110D01*
X-13063D02*
Y92520D01*
X-10110Y86614D02*
Y92520D01*
X-11587Y88583D02*
Y90551D01*
X-12571Y89567D02*
X-10602D01*
X-13063Y92520D02*
X-10110D01*
X-33063D02*
X-30110D01*
X-32571Y89567D02*
X-30602D01*
X-31587Y88583D02*
Y90551D01*
X-30110Y86614D02*
Y92520D01*
X-33063Y86614D02*
Y92520D01*
Y86614D02*
X-30110D01*
X-3063D02*
X-110D01*
X-3063D02*
Y92520D01*
X-110Y86614D02*
Y92520D01*
X-1587Y88583D02*
Y90551D01*
X-2571Y89567D02*
X-602D01*
X-3063Y92520D02*
X-110D01*
X23327Y62697D02*
Y65650D01*
X17421Y62697D02*
X23327D01*
X17421Y65650D02*
X23327D01*
X19390Y64173D02*
X21358D01*
X20374Y63189D02*
Y65158D01*
X17421Y62697D02*
Y65650D01*
X23327Y30807D02*
Y33760D01*
X17421Y30807D02*
X23327D01*
X17421Y33760D02*
X23327D01*
X19390Y32283D02*
X21358D01*
X20374Y31299D02*
Y33268D01*
X17421Y30807D02*
Y33760D01*
X6890Y50689D02*
Y53642D01*
X9843Y51181D02*
Y53150D01*
X8858Y52165D02*
X10827D01*
X6890Y53642D02*
X12795D01*
X6890Y50689D02*
X12795D01*
Y53642D01*
X6890Y54626D02*
Y57579D01*
X9843Y55118D02*
Y57087D01*
X8858Y56102D02*
X10827D01*
X6890Y57579D02*
X12795D01*
X6890Y54626D02*
X12795D01*
Y57579D01*
X-35039Y50689D02*
Y53642D01*
X-32087Y51181D02*
Y53150D01*
X-33071Y52165D02*
X-31102D01*
X-35039Y53642D02*
X-29134D01*
X-35039Y50689D02*
X-29134D01*
Y53642D01*
X-35039Y54626D02*
Y57579D01*
X-32087Y55118D02*
Y57087D01*
X-33071Y56102D02*
X-31102D01*
X-35039Y57579D02*
X-29134D01*
X-35039Y54626D02*
X-29134D01*
Y57579D01*
X5020Y74803D02*
X7972D01*
X5512Y77756D02*
X7480D01*
X6496Y76772D02*
Y78740D01*
X7972Y74803D02*
Y80709D01*
X5020Y74803D02*
Y80709D01*
X7972D01*
X-7972D02*
X-5020D01*
X-7480Y77756D02*
X-5512D01*
X-6496Y76772D02*
Y78740D01*
X-7972Y74803D02*
Y80709D01*
X-5020Y74803D02*
Y80709D01*
X-7972Y74803D02*
X-5020D01*
X-20079Y78248D02*
Y81201D01*
X-25984D02*
X-20079D01*
X-25984Y78248D02*
X-20079D01*
X-24016Y79724D02*
X-22047D01*
X-23031Y78740D02*
Y80709D01*
X-25984Y78248D02*
Y81201D01*
X-20079Y74311D02*
Y77264D01*
X-25984D02*
X-20079D01*
X-25984Y74311D02*
X-20079D01*
X-24016Y75787D02*
X-22047D01*
X-23031Y74803D02*
Y76772D01*
X-25984Y74311D02*
Y77264D01*
X-20079Y101870D02*
Y104823D01*
X-23031Y102362D02*
Y104331D01*
X-24016Y103347D02*
X-22047D01*
X-25984Y104823D02*
X-20079D01*
X-25984Y101870D02*
X-20079D01*
X-25984D02*
Y104823D01*
X12795Y125492D02*
Y128445D01*
X9843Y125984D02*
Y127953D01*
X8858Y126969D02*
X10827D01*
X6890Y128445D02*
X12795D01*
X6890Y125492D02*
X12795D01*
X6890D02*
Y128445D01*
X22638Y125492D02*
Y128445D01*
X19685Y125984D02*
Y127953D01*
X18701Y126969D02*
X20669D01*
X16732Y128445D02*
X22638D01*
X16732Y125492D02*
X22638D01*
X16732D02*
Y128445D01*
X32480Y125492D02*
Y128445D01*
X29528Y125984D02*
Y127953D01*
X28543Y126969D02*
X30512D01*
X26575Y128445D02*
X32480D01*
X26575Y125492D02*
X32480D01*
X26575D02*
Y128445D01*
X12795Y129429D02*
Y132382D01*
X9843Y129921D02*
Y131890D01*
X8858Y130905D02*
X10827D01*
X6890Y132382D02*
X12795D01*
X6890Y129429D02*
X12795D01*
X6890D02*
Y132382D01*
X22638Y129429D02*
Y132382D01*
X19685Y129921D02*
Y131890D01*
X18701Y130905D02*
X20669D01*
X16732Y132382D02*
X22638D01*
X16732Y129429D02*
X22638D01*
X16732D02*
Y132382D01*
X32480Y129429D02*
Y132382D01*
X29528Y129921D02*
Y131890D01*
X28543Y130905D02*
X30512D01*
X26575Y132382D02*
X32480D01*
X26575Y129429D02*
X32480D01*
X26575D02*
Y132382D01*
X6890Y137303D02*
Y140256D01*
X9843Y137795D02*
Y139764D01*
X8858Y138779D02*
X10827D01*
X6890Y137303D02*
X12795D01*
X6890Y140256D02*
X12795D01*
Y137303D02*
Y140256D01*
X16732Y137303D02*
Y140256D01*
X19685Y137795D02*
Y139764D01*
X18701Y138779D02*
X20669D01*
X16732Y137303D02*
X22638D01*
X16732Y140256D02*
X22638D01*
Y137303D02*
Y140256D01*
X26575Y137303D02*
Y140256D01*
X29528Y137795D02*
Y139764D01*
X28543Y138779D02*
X30512D01*
X26575Y137303D02*
X32480D01*
X26575Y140256D02*
X32480D01*
Y137303D02*
Y140256D01*
X-26575Y133366D02*
Y136319D01*
X-29528Y133858D02*
Y135827D01*
X-30512Y134843D02*
X-28543D01*
X-32480Y136319D02*
X-26575D01*
X-32480Y133366D02*
X-26575D01*
X-32480D02*
Y136319D01*
X-16732Y133366D02*
Y136319D01*
X-19685Y133858D02*
Y135827D01*
X-20669Y134843D02*
X-18701D01*
X-22638Y136319D02*
X-16732D01*
X-22638Y133366D02*
X-16732D01*
X-22638D02*
Y136319D01*
X-6890Y133366D02*
Y136319D01*
X-9843Y133858D02*
Y135827D01*
X-10827Y134843D02*
X-8858D01*
X-12795Y136319D02*
X-6890D01*
X-12795Y133366D02*
X-6890D01*
X-12795D02*
Y136319D01*
X-26575Y129429D02*
Y132382D01*
X-29528Y129921D02*
Y131890D01*
X-30512Y130905D02*
X-28543D01*
X-32480Y132382D02*
X-26575D01*
X-32480Y129429D02*
X-26575D01*
X-32480D02*
Y132382D01*
X-16732Y129429D02*
Y132382D01*
X-19685Y129921D02*
Y131890D01*
X-20669Y130905D02*
X-18701D01*
X-22638Y132382D02*
X-16732D01*
X-22638Y129429D02*
X-16732D01*
X-22638D02*
Y132382D01*
X-6890Y129429D02*
Y132382D01*
X-9843Y129921D02*
Y131890D01*
X-10827Y130905D02*
X-8858D01*
X-12795Y132382D02*
X-6890D01*
X-12795Y129429D02*
X-6890D01*
X-12795D02*
Y132382D01*
D18*
X6496Y76063D02*
D03*
Y79449D02*
D03*
X-6496D02*
D03*
Y76063D02*
D03*
D20*
X-31220Y126969D02*
D03*
X-27835D02*
D03*
X21378Y142717D02*
D03*
X17992D02*
D03*
X31220D02*
D03*
X27835D02*
D03*
X8150Y146653D02*
D03*
X11535D02*
D03*
X27835D02*
D03*
X31220D02*
D03*
X17992D02*
D03*
X21378D02*
D03*
X-17992Y126969D02*
D03*
X-21378D02*
D03*
X-21339Y91535D02*
D03*
X-24724D02*
D03*
Y107283D02*
D03*
X-21339D02*
D03*
X22520Y75787D02*
D03*
X25905D02*
D03*
X22520Y83661D02*
D03*
X25905D02*
D03*
X22520Y79724D02*
D03*
X25905D02*
D03*
Y91535D02*
D03*
X22520D02*
D03*
Y87598D02*
D03*
X25905D02*
D03*
X-24724Y83661D02*
D03*
X-21339D02*
D03*
Y79724D02*
D03*
X-24724D02*
D03*
X-21339Y75787D02*
D03*
X-24724D02*
D03*
X-21339Y87598D02*
D03*
X-24724D02*
D03*
X-21339Y99409D02*
D03*
X-24724D02*
D03*
X-21339Y95472D02*
D03*
X-24724D02*
D03*
X25905Y111221D02*
D03*
X22520D02*
D03*
X22520Y99410D02*
D03*
X25905D02*
D03*
X22520Y95472D02*
D03*
X25905D02*
D03*
Y103347D02*
D03*
X22520D02*
D03*
Y107283D02*
D03*
X25905D02*
D03*
X-21339Y103347D02*
D03*
X-24724D02*
D03*
X11535Y126969D02*
D03*
X8150D02*
D03*
X21378D02*
D03*
X17992D02*
D03*
X31220D02*
D03*
X27835D02*
D03*
X11535Y130905D02*
D03*
X8150D02*
D03*
X21378D02*
D03*
X17992D02*
D03*
X31220D02*
D03*
X27835D02*
D03*
X8150Y138779D02*
D03*
X11535D02*
D03*
X17992D02*
D03*
X21378D02*
D03*
X27835D02*
D03*
X31220D02*
D03*
X-11535Y126969D02*
D03*
X-8150D02*
D03*
X-27835Y134843D02*
D03*
X-31220D02*
D03*
X-17992D02*
D03*
X-21378D02*
D03*
X-8150D02*
D03*
X-11535D02*
D03*
X-27835Y130905D02*
D03*
X-31220D02*
D03*
X-17992D02*
D03*
X-21378D02*
D03*
X-8150D02*
D03*
X-11535D02*
D03*
X31220Y134843D02*
D03*
X27835D02*
D03*
X21378D02*
D03*
X17992D02*
D03*
X11535D02*
D03*
X8150D02*
D03*
X11535Y142717D02*
D03*
X8150D02*
D03*
D38*
X46457Y5512D02*
D03*
X43307D02*
D03*
X40157D02*
D03*
X37008D02*
D03*
X33858D02*
D03*
X30709D02*
D03*
X27559D02*
D03*
X24409D02*
D03*
X21260D02*
D03*
X18110D02*
D03*
X14961D02*
D03*
X11811D02*
D03*
X8661D02*
D03*
X5512D02*
D03*
X2362D02*
D03*
X-787D02*
D03*
X-3937D02*
D03*
X-7087D02*
D03*
X-22835D02*
D03*
X-25984D02*
D03*
X-29134D02*
D03*
X-32283D02*
D03*
X-35433D02*
D03*
X-38583D02*
D03*
X-41732D02*
D03*
X-44882D02*
D03*
D39*
X-19685Y146398D02*
Y166339D01*
X-19685Y166339D01*
X-19685Y146398D02*
X-19685Y146398D01*
X-35495Y5574D02*
X-35433Y5512D01*
X-37008Y12910D02*
X-35495Y11397D01*
Y5574D02*
Y11397D01*
X-9843Y146398D02*
Y166339D01*
X-29528Y146398D02*
Y166339D01*
X-29528Y146398D02*
X-29528Y146398D01*
Y166339D02*
X-29528Y166339D01*
D40*
X25905Y93504D02*
Y111221D01*
Y113204D01*
X25905Y71905D02*
Y75787D01*
Y70304D02*
Y71905D01*
X24601Y69000D02*
X25905Y70304D01*
X-24724Y69000D02*
X24601D01*
X-24724D02*
Y75787D01*
Y61276D02*
Y69000D01*
X25905Y75787D02*
Y93504D01*
X-27024Y58976D02*
X-24724Y61276D01*
X-33779Y58976D02*
X-27024D01*
X-24724Y81693D02*
Y83661D01*
Y79724D02*
Y81693D01*
X14961Y5512D02*
Y12910D01*
X11811Y5512D02*
Y12910D01*
X8661Y5512D02*
Y12910D01*
X5512Y5512D02*
Y12910D01*
X-787Y5512D02*
Y12910D01*
X-3937Y5512D02*
Y12910D01*
X11479Y126912D02*
X11535Y126969D01*
Y130905D01*
X11479Y124933D02*
Y126912D01*
X984Y114438D02*
X11479Y124933D01*
X2953Y108858D02*
Y114180D01*
X10000Y119000D02*
X27000D01*
X9348Y120575D02*
X18575D01*
X2953Y114180D02*
X9348Y120575D01*
X4921Y108858D02*
Y113921D01*
X10000Y119000D01*
X984Y108858D02*
Y114438D01*
X18575Y120575D02*
X21378Y123378D01*
X27000Y119000D02*
X31220Y123221D01*
Y130905D02*
Y134843D01*
Y126969D02*
Y130905D01*
Y123221D02*
Y126969D01*
X21378Y123378D02*
Y126969D01*
X-24724Y83661D02*
Y87598D01*
Y75787D02*
Y79724D01*
X25905Y75787D02*
X25905Y75787D01*
X27835Y134843D02*
Y138779D01*
Y146276D01*
X17992Y134843D02*
Y138779D01*
Y146276D01*
X21378Y126969D02*
Y130905D01*
Y134843D01*
X11535Y130905D02*
Y134843D01*
X8150Y138779D02*
Y146276D01*
Y134843D02*
Y138779D01*
X29528Y154657D02*
Y166339D01*
Y154657D02*
X31220Y152965D01*
Y146276D02*
Y152965D01*
X19685Y154657D02*
Y166339D01*
Y154657D02*
X21378Y152965D01*
Y146276D02*
Y152965D01*
X11535Y146276D02*
Y152965D01*
X9843Y154657D02*
X11535Y152965D01*
X9843Y154657D02*
Y166339D01*
X46457Y5512D02*
Y12910D01*
X37008Y5512D02*
Y12910D01*
X30709Y5512D02*
Y12910D01*
X2362Y5512D02*
Y12910D01*
X-7087Y5512D02*
Y12910D01*
X-22835Y5512D02*
Y12910D01*
D41*
X-47638Y189173D02*
D03*
X47638D02*
D03*
D42*
X29528Y166339D02*
D03*
D43*
X19685D02*
D03*
X9843D02*
D03*
X0D02*
D03*
X-9843D02*
D03*
X-19685D02*
D03*
X-29528D02*
D03*
D44*
X-4500Y137500D02*
D03*
X-14000D02*
D03*
X48500Y104500D02*
D03*
X-48500D02*
D03*
X48000Y132500D02*
D03*
X-48500D02*
D03*
X51181Y51181D02*
D03*
Y35433D02*
D03*
Y19685D02*
D03*
X-51181Y51181D02*
D03*
Y35433D02*
D03*
Y19685D02*
D03*
X-34000Y112500D02*
D03*
X-30710Y122049D02*
D03*
X-28661Y95472D02*
D03*
X-28532Y101378D02*
D03*
X25905Y71905D02*
D03*
X25905Y113204D02*
D03*
X2362Y12910D02*
D03*
X-33779Y58976D02*
D03*
X-24724Y81693D02*
D03*
X25905Y93504D02*
D03*
X-13000Y76063D02*
D03*
X14961Y12910D02*
D03*
X11811D02*
D03*
X8661D02*
D03*
X5512D02*
D03*
X-787D02*
D03*
X-3937D02*
D03*
X-37008D02*
D03*
X34252Y76063D02*
D03*
Y89000D02*
D03*
Y98000D02*
D03*
Y112000D02*
D03*
X-18500Y76063D02*
D03*
X-28661Y77756D02*
D03*
Y85630D02*
D03*
X-18500D02*
D03*
Y97500D02*
D03*
X20000Y89500D02*
D03*
X18500Y93500D02*
D03*
X16500Y98000D02*
D03*
X17000Y82500D02*
D03*
X10500Y89000D02*
D03*
X9500Y79449D02*
D03*
X-4000Y86500D02*
D03*
X-13000Y90000D02*
D03*
X-16500Y103347D02*
D03*
X27835Y116000D02*
D03*
X17500Y116500D02*
D03*
X34252Y123500D02*
D03*
Y142717D02*
D03*
Y130905D02*
D03*
X4921Y146276D02*
D03*
Y137795D02*
D03*
Y130905D02*
D03*
X24606D02*
D03*
Y142717D02*
D03*
X14764D02*
D03*
Y130905D02*
D03*
Y123500D02*
D03*
X24606D02*
D03*
X17992Y110236D02*
D03*
X11535D02*
D03*
X-4921Y130905D02*
D03*
X-984Y120079D02*
D03*
X-11535Y112000D02*
D03*
X-21378D02*
D03*
X-24500Y137795D02*
D03*
X-34000D02*
D03*
X-14000Y130905D02*
D03*
X-24000D02*
D03*
X-34000D02*
D03*
X-21378Y120079D02*
D03*
X-11535D02*
D03*
X-6890Y84252D02*
D03*
X-9843Y86614D02*
D03*
X-29528Y107283D02*
D03*
X-28661Y91535D02*
D03*
X13386Y106299D02*
D03*
X2953Y84252D02*
D03*
D46*
X-19685Y146398D02*
D03*
Y139035D02*
D03*
X-9843Y146398D02*
D03*
Y139035D02*
D03*
X-29528Y146398D02*
D03*
Y139035D02*
D03*
D47*
X-9449Y106299D02*
D03*
Y104331D02*
D03*
Y102362D02*
D03*
Y100394D02*
D03*
Y98425D02*
D03*
Y96457D02*
D03*
Y94488D02*
D03*
Y92520D02*
D03*
X9449D02*
D03*
Y94488D02*
D03*
Y96457D02*
D03*
Y98425D02*
D03*
Y100394D02*
D03*
Y102362D02*
D03*
Y104331D02*
D03*
Y106299D02*
D03*
D48*
X-6890Y89961D02*
D03*
X-4921D02*
D03*
X-2953D02*
D03*
X-984D02*
D03*
X984D02*
D03*
X2953D02*
D03*
X4921D02*
D03*
X6890D02*
D03*
Y108858D02*
D03*
X4921D02*
D03*
X2953D02*
D03*
X984D02*
D03*
X-984D02*
D03*
X-2953D02*
D03*
X-4921D02*
D03*
X-6890D02*
D03*
D49*
X0Y99410D02*
D03*
D50*
X2756Y79921D02*
D03*
X-2756D02*
D03*
Y75590D02*
D03*
X2756D02*
D03*
D51*
X-26809Y116000D02*
X-8500D01*
X-27835Y117025D02*
X-26809Y116000D01*
X-27835Y117025D02*
Y126969D01*
X-27835Y130905D02*
Y134843D01*
Y126969D02*
Y130905D01*
X-6890Y108858D02*
Y114390D01*
X-7929Y117378D02*
X-4921Y114370D01*
X-8150Y119547D02*
X-2953Y114350D01*
X-4921Y108858D02*
Y114370D01*
X-8500Y116000D02*
X-6890Y114390D01*
X-8150Y119547D02*
Y126969D01*
X-16378Y117378D02*
X-7929D01*
X-2953Y108858D02*
Y114350D01*
X-17992Y118992D02*
X-16378Y117378D01*
X-8150Y130905D02*
Y134843D01*
Y126969D02*
Y130905D01*
X394Y77756D02*
Y86500D01*
X-2559Y79921D02*
X-984Y81496D01*
Y89961D01*
X-2756Y79921D02*
X-2559D01*
X394Y86500D02*
X984Y87090D01*
Y89961D01*
X394Y77756D02*
X2559Y75590D01*
X-17992Y130905D02*
Y134843D01*
Y126969D02*
Y130905D01*
X-17992Y118992D02*
Y126969D01*
X2559Y75590D02*
X2756D01*
X-6260Y79685D02*
X-2992D01*
X-6496Y79449D02*
X-6260Y79685D01*
X-2992D02*
X-2756Y79921D01*
X2992Y75827D02*
X6260D01*
X6496Y76063D01*
X2756Y75590D02*
X2992Y75827D01*
X-8150Y134843D02*
Y138681D01*
X-17992Y134843D02*
Y138681D01*
X-27835Y134843D02*
Y138681D01*
M02*
