G04*
G04 #@! TF.GenerationSoftware,Altium Limited,Altium Designer,22.1.2 (22)*
G04*
G04 Layer_Color=32768*
%FSLAX25Y25*%
%MOIN*%
G70*
G04*
G04 #@! TF.SameCoordinates,889227B3-B2BC-4796-8B66-3F322000AF8E*
G04*
G04*
G04 #@! TF.FilePolarity,Positive*
G04*
G01*
G75*
%ADD13C,0.00197*%
%ADD48C,0.00039*%
%ADD49C,0.00079*%
D13*
X-11600Y87809D02*
X11600D01*
X-11600Y111009D02*
X11600D01*
X-11600Y87809D02*
Y111009D01*
X11600Y87809D02*
Y111009D01*
D48*
X-13780Y39370D02*
X13780D01*
X-13780Y59055D02*
X13780D01*
X-13780Y39370D02*
Y59055D01*
X13780Y39370D02*
Y59055D01*
X-22638Y43799D02*
Y46752D01*
X-16732D01*
X-22638Y43799D02*
X-16732D01*
Y46752D01*
Y51673D02*
Y54626D01*
X-22638Y51673D02*
X-16732D01*
X-22638Y54626D02*
X-16732D01*
X-22638Y51673D02*
Y54626D01*
X-26575Y125492D02*
Y128445D01*
X-32480Y125492D02*
X-26575D01*
X-32480Y128445D02*
X-26575D01*
X-32480Y125492D02*
Y128445D01*
X-4724Y81693D02*
X4724D01*
X-4724Y73819D02*
X4724D01*
X-4724D02*
Y81693D01*
X4724Y73819D02*
Y81693D01*
X6890Y141240D02*
Y144193D01*
X12795D01*
X6890Y141240D02*
X12795D01*
Y144193D01*
X6890Y133366D02*
Y136319D01*
X12795D01*
X6890Y133366D02*
X12795D01*
Y136319D01*
X-32677Y137205D02*
X-26378D01*
X-32677D02*
Y148228D01*
X-26378Y137205D02*
Y148228D01*
X-32677D02*
X-26378D01*
X16732Y133366D02*
Y136319D01*
X22638D01*
X16732Y133366D02*
X22638D01*
Y136319D01*
X-22835Y137205D02*
X-16535D01*
X-22835D02*
Y148228D01*
X-16535Y137205D02*
Y148228D01*
X-22835D02*
X-16535D01*
X26575Y133366D02*
Y136319D01*
X32480D01*
X26575Y133366D02*
X32480D01*
Y136319D01*
X-12992Y137205D02*
X-6693D01*
X-12992D02*
Y148228D01*
X-6693Y137205D02*
Y148228D01*
X-12992D02*
X-6693D01*
X27165Y82185D02*
Y85138D01*
X21260Y82185D02*
X27165D01*
X21260Y85138D02*
X27165D01*
X21260Y82185D02*
Y85138D01*
X27165Y90059D02*
Y93012D01*
X21260Y90059D02*
X27165D01*
X21260Y93012D02*
X27165D01*
X21260Y90059D02*
Y93012D01*
Y86122D02*
Y89075D01*
X27165D01*
X21260Y86122D02*
X27165D01*
Y89075D01*
X-25984Y97933D02*
Y100886D01*
X-20079D01*
X-25984Y97933D02*
X-20079D01*
Y100886D01*
X27165Y74311D02*
Y77264D01*
X21260Y74311D02*
X27165D01*
X21260Y77264D02*
X27165D01*
X21260Y74311D02*
Y77264D01*
X-20079Y82185D02*
Y85138D01*
X-25984Y82185D02*
X-20079D01*
X-25984Y85138D02*
X-20079D01*
X-25984Y82185D02*
Y85138D01*
X21260Y97933D02*
Y100886D01*
X27165D01*
X21260Y97933D02*
X27165D01*
Y100886D01*
X21260Y105807D02*
Y108760D01*
X27165D01*
X21260Y105807D02*
X27165D01*
Y108760D01*
X-25984Y93996D02*
Y96949D01*
X-20079D01*
X-25984Y93996D02*
X-20079D01*
Y96949D01*
X27165Y78248D02*
Y81201D01*
X21260Y78248D02*
X27165D01*
X21260Y81201D02*
X27165D01*
X21260Y78248D02*
Y81201D01*
X27165Y101870D02*
Y104823D01*
X21260Y101870D02*
X27165D01*
X21260Y104823D02*
X27165D01*
X21260Y101870D02*
Y104823D01*
X27165Y93996D02*
Y96949D01*
X21260Y93996D02*
X27165D01*
X21260Y96949D02*
X27165D01*
X21260Y93996D02*
Y96949D01*
X-25984Y86122D02*
Y89075D01*
X-20079D01*
X-25984Y86122D02*
X-20079D01*
Y89075D01*
X-6890Y125492D02*
Y128445D01*
X-12795Y125492D02*
X-6890D01*
X-12795Y128445D02*
X-6890D01*
X-12795Y125492D02*
Y128445D01*
X-22638Y125492D02*
Y128445D01*
X-16732D01*
X-22638Y125492D02*
X-16732D01*
Y128445D01*
X-20079Y105807D02*
Y108760D01*
X-25984Y105807D02*
X-20079D01*
X-25984Y108760D02*
X-20079D01*
X-25984Y105807D02*
Y108760D01*
X12795Y145177D02*
Y148130D01*
X6890Y145177D02*
X12795D01*
X6890Y148130D02*
X12795D01*
X6890Y145177D02*
Y148130D01*
X22638Y145177D02*
Y148130D01*
X16732Y145177D02*
X22638D01*
X16732Y148130D02*
X22638D01*
X16732Y145177D02*
Y148130D01*
X32480Y145177D02*
Y148130D01*
X26575Y145177D02*
X32480D01*
X26575Y148130D02*
X32480D01*
X26575Y145177D02*
Y148130D01*
X26575Y141240D02*
Y144193D01*
X32480D01*
X26575Y141240D02*
X32480D01*
Y144193D01*
X16732Y141240D02*
Y144193D01*
X22638D01*
X16732Y141240D02*
X22638D01*
Y144193D01*
D49*
X16732Y55610D02*
X22638D01*
X16732Y58563D02*
X22638D01*
X16732Y55610D02*
Y58563D01*
X22638Y55610D02*
Y58563D01*
X-22638D02*
X-16732D01*
X-22638Y55610D02*
X-16732D01*
Y58563D01*
X-22638Y55610D02*
Y58563D01*
Y50689D02*
X-16732D01*
X-22638Y47736D02*
X-16732D01*
Y50689D01*
X-22638Y47736D02*
Y50689D01*
Y39862D02*
Y42815D01*
X-16732Y39862D02*
Y42815D01*
X-22638Y39862D02*
X-16732D01*
X-22638Y42815D02*
X-16732D01*
X5020Y80709D02*
X7972D01*
X5020Y74803D02*
X7972D01*
X5020D02*
Y80709D01*
X7972Y74803D02*
Y80709D01*
X-32480Y129429D02*
Y132382D01*
X-26575Y129429D02*
Y132382D01*
X-32480Y129429D02*
X-26575D01*
X-32480Y132382D02*
X-26575D01*
X-22638Y129429D02*
Y132382D01*
X-16732Y129429D02*
Y132382D01*
X-22638Y129429D02*
X-16732D01*
X-22638Y132382D02*
X-16732D01*
X-12795Y133366D02*
Y136319D01*
X-6890Y133366D02*
Y136319D01*
X-12795Y133366D02*
X-6890D01*
X-12795Y136319D02*
X-6890D01*
X-22638Y133366D02*
Y136319D01*
X-16732Y133366D02*
Y136319D01*
X-22638Y133366D02*
X-16732D01*
X-22638Y136319D02*
X-16732D01*
X-12795Y129429D02*
Y132382D01*
X-6890Y129429D02*
Y132382D01*
X-12795Y129429D02*
X-6890D01*
X-12795Y132382D02*
X-6890D01*
X-32480Y133366D02*
Y136319D01*
X-26575Y133366D02*
Y136319D01*
X-32480Y133366D02*
X-26575D01*
X-32480Y136319D02*
X-26575D01*
X32480Y137303D02*
Y140256D01*
X26575Y137303D02*
Y140256D01*
X32480D01*
X26575Y137303D02*
X32480D01*
X26575Y129429D02*
Y132382D01*
X32480Y129429D02*
Y132382D01*
X26575Y129429D02*
X32480D01*
X26575Y132382D02*
X32480D01*
X16732Y125492D02*
Y128445D01*
X22638Y125492D02*
Y128445D01*
X16732Y125492D02*
X22638D01*
X16732Y128445D02*
X22638D01*
X-25984Y101870D02*
Y104823D01*
X-20079Y101870D02*
Y104823D01*
X-25984Y101870D02*
X-20079D01*
X-25984Y104823D02*
X-20079D01*
X26575Y125492D02*
Y128445D01*
X32480Y125492D02*
Y128445D01*
X26575Y125492D02*
X32480D01*
X26575Y128445D02*
X32480D01*
X16732Y129429D02*
Y132382D01*
X22638Y129429D02*
Y132382D01*
X16732Y129429D02*
X22638D01*
X16732Y132382D02*
X22638D01*
X-25984Y74311D02*
X-20079D01*
X-25984Y77264D02*
X-20079D01*
X-25984Y74311D02*
Y77264D01*
X-20079Y74311D02*
Y77264D01*
X-25984Y78248D02*
X-20079D01*
X-25984Y81201D02*
X-20079D01*
X-25984Y78248D02*
Y81201D01*
X-20079Y78248D02*
Y81201D01*
X12795Y137303D02*
Y140256D01*
X6890Y137303D02*
Y140256D01*
X12795D01*
X6890Y137303D02*
X12795D01*
X22638D02*
Y140256D01*
X16732Y137303D02*
Y140256D01*
X22638D01*
X16732Y137303D02*
X22638D01*
X6890Y125492D02*
Y128445D01*
X12795Y125492D02*
Y128445D01*
X6890Y125492D02*
X12795D01*
X6890Y128445D02*
X12795D01*
X6890Y129429D02*
Y132382D01*
X12795Y129429D02*
Y132382D01*
X6890Y129429D02*
X12795D01*
X6890Y132382D02*
X12795D01*
X-7972Y74803D02*
X-5020D01*
X-7972Y80709D02*
X-5020D01*
Y74803D02*
Y80709D01*
X-7972Y74803D02*
Y80709D01*
M02*
