G04*
G04 #@! TF.GenerationSoftware,Altium Limited,Altium Designer,22.1.2 (22)*
G04*
G04 Layer_Color=128*
%FSLAX25Y25*%
%MOIN*%
G70*
G04*
G04 #@! TF.SameCoordinates,D9C7AC14-A0B2-4E4F-895A-178DC6869FF5*
G04*
G04*
G04 #@! TF.FilePolarity,Positive*
G04*
G01*
G75*
%ADD16R,0.02047X0.01850*%
%ADD18R,0.01850X0.02047*%
%ADD44R,0.05512X0.02756*%
%ADD45R,0.02756X0.00984*%
%ADD46R,0.00984X0.02756*%
%ADD47R,0.13583X0.13583*%
%ADD48R,0.02756X0.02362*%
D16*
X6496Y76063D02*
D03*
Y79449D02*
D03*
X-6496D02*
D03*
Y76063D02*
D03*
D18*
X-31220Y126969D02*
D03*
X-27835D02*
D03*
X21378Y142717D02*
D03*
X17992D02*
D03*
X31220D02*
D03*
X27835D02*
D03*
X8150Y146653D02*
D03*
X11535D02*
D03*
X27835D02*
D03*
X31220D02*
D03*
X17992D02*
D03*
X21378D02*
D03*
X-17992Y126969D02*
D03*
X-21378D02*
D03*
X-21339Y91535D02*
D03*
X-24724D02*
D03*
Y107283D02*
D03*
X-21339D02*
D03*
X22520Y75787D02*
D03*
X25905D02*
D03*
X22520Y83661D02*
D03*
X25905D02*
D03*
X22520Y79724D02*
D03*
X25905D02*
D03*
Y91535D02*
D03*
X22520D02*
D03*
Y87598D02*
D03*
X25905D02*
D03*
X-24724Y83661D02*
D03*
X-21339D02*
D03*
Y79724D02*
D03*
X-24724D02*
D03*
X-21339Y75787D02*
D03*
X-24724D02*
D03*
X-21339Y87598D02*
D03*
X-24724D02*
D03*
X-21339Y99409D02*
D03*
X-24724D02*
D03*
X-21339Y95472D02*
D03*
X-24724D02*
D03*
X25905Y111221D02*
D03*
X22520D02*
D03*
X22520Y99410D02*
D03*
X25905D02*
D03*
X22520Y95472D02*
D03*
X25905D02*
D03*
Y103347D02*
D03*
X22520D02*
D03*
Y107283D02*
D03*
X25905D02*
D03*
X-21339Y103347D02*
D03*
X-24724D02*
D03*
X11535Y126969D02*
D03*
X8150D02*
D03*
X21378D02*
D03*
X17992D02*
D03*
X31220D02*
D03*
X27835D02*
D03*
X11535Y130905D02*
D03*
X8150D02*
D03*
X21378D02*
D03*
X17992D02*
D03*
X31220D02*
D03*
X27835D02*
D03*
X8150Y138779D02*
D03*
X11535D02*
D03*
X17992D02*
D03*
X21378D02*
D03*
X27835D02*
D03*
X31220D02*
D03*
X-11535Y126969D02*
D03*
X-8150D02*
D03*
X-27835Y134843D02*
D03*
X-31220D02*
D03*
X-17992D02*
D03*
X-21378D02*
D03*
X-8150D02*
D03*
X-11535D02*
D03*
X-27835Y130905D02*
D03*
X-31220D02*
D03*
X-17992D02*
D03*
X-21378D02*
D03*
X-8150D02*
D03*
X-11535D02*
D03*
X31220Y134843D02*
D03*
X27835D02*
D03*
X21378D02*
D03*
X17992D02*
D03*
X11535D02*
D03*
X8150D02*
D03*
X11535Y142717D02*
D03*
X8150D02*
D03*
D44*
X-19685Y146398D02*
D03*
Y139035D02*
D03*
X-9843Y146398D02*
D03*
Y139035D02*
D03*
X-29528Y146398D02*
D03*
Y139035D02*
D03*
D45*
X-9449Y106299D02*
D03*
Y104331D02*
D03*
Y102362D02*
D03*
Y100394D02*
D03*
Y98425D02*
D03*
Y96457D02*
D03*
Y94488D02*
D03*
Y92520D02*
D03*
X9449D02*
D03*
Y94488D02*
D03*
Y96457D02*
D03*
Y98425D02*
D03*
Y100394D02*
D03*
Y102362D02*
D03*
Y104331D02*
D03*
Y106299D02*
D03*
D46*
X-6890Y89961D02*
D03*
X-4921D02*
D03*
X-2953D02*
D03*
X-984D02*
D03*
X984D02*
D03*
X2953D02*
D03*
X4921D02*
D03*
X6890D02*
D03*
Y108858D02*
D03*
X4921D02*
D03*
X2953D02*
D03*
X984D02*
D03*
X-984D02*
D03*
X-2953D02*
D03*
X-4921D02*
D03*
X-6890D02*
D03*
D47*
X0Y99410D02*
D03*
D48*
X2756Y79921D02*
D03*
X-2756D02*
D03*
Y75590D02*
D03*
X2756D02*
D03*
M02*
