G04*
G04 #@! TF.GenerationSoftware,Altium Limited,Altium Designer,22.1.2 (22)*
G04*
G04 Layer_Physical_Order=2*
G04 Layer_Color=36540*
%FSLAX25Y25*%
%MOIN*%
G70*
G04*
G04 #@! TF.SameCoordinates,B1E273F1-CA0D-4A37-822C-2AC157981796*
G04*
G04*
G04 #@! TF.FilePolarity,Positive*
G04*
G01*
G75*
%ADD10C,0.00394*%
%ADD12C,0.00197*%
%ADD15C,0.00039*%
%ADD16C,0.00079*%
%ADD39C,0.01968*%
%ADD40C,0.01181*%
%ADD43C,0.05315*%
%ADD44C,0.01968*%
G36*
X35500Y49000D02*
X20504D01*
Y93000D01*
X20427Y93384D01*
X20210Y93710D01*
X16753Y97166D01*
X16427Y97384D01*
X16043Y97460D01*
X14839D01*
X14674Y97625D01*
X14168Y97835D01*
X13620D01*
X13113Y97625D01*
X12948Y97460D01*
X-18543D01*
X-18927Y97384D01*
X-19253Y97166D01*
X-24156Y92263D01*
X-28141D01*
X-28306Y92428D01*
X-28813Y92638D01*
X-29361D01*
X-29867Y92428D01*
X-30255Y92040D01*
X-30465Y91534D01*
Y90986D01*
X-30255Y90479D01*
X-29867Y90092D01*
X-29361Y89882D01*
X-28813D01*
X-28306Y90092D01*
X-28141Y90256D01*
X-23740D01*
X-23356Y90333D01*
X-23031Y90550D01*
X-18128Y95453D01*
X12948D01*
X13113Y95288D01*
X13620Y95079D01*
X14168D01*
X14674Y95288D01*
X14839Y95453D01*
X15628D01*
X18496Y92584D01*
Y88349D01*
X18034Y88158D01*
X14223Y91969D01*
X13897Y92187D01*
X13513Y92263D01*
X1859D01*
X1694Y92428D01*
X1187Y92638D01*
X639D01*
X133Y92428D01*
X-255Y92040D01*
X-465Y91534D01*
Y90986D01*
X-449Y90949D01*
X-735Y90365D01*
X-824Y90341D01*
X-959Y90378D01*
X-2550Y91969D01*
X-2876Y92187D01*
X-3260Y92263D01*
X-8141D01*
X-8306Y92428D01*
X-8812Y92638D01*
X-9361D01*
X-9867Y92428D01*
X-10255Y92040D01*
X-10465Y91534D01*
Y90986D01*
X-10255Y90479D01*
X-9867Y90092D01*
X-9361Y89882D01*
X-8812D01*
X-8306Y90092D01*
X-8141Y90256D01*
X-3675D01*
X-2385Y88965D01*
X-2576Y88503D01*
X-9084D01*
X-12550Y91969D01*
X-12876Y92187D01*
X-13260Y92263D01*
X-18141D01*
X-18306Y92428D01*
X-18812Y92638D01*
X-19361D01*
X-19867Y92428D01*
X-20255Y92040D01*
X-20465Y91534D01*
Y90986D01*
X-20255Y90479D01*
X-19867Y90092D01*
X-19361Y89882D01*
X-18812D01*
X-18306Y90092D01*
X-18141Y90256D01*
X-13676D01*
X-10210Y86790D01*
X-9884Y86573D01*
X-9500Y86497D01*
X12403D01*
X13772Y85127D01*
Y49000D01*
X9397D01*
X9371Y49038D01*
X9318Y49166D01*
X9220Y49264D01*
X9143Y49379D01*
X9028Y49456D01*
X8930Y49554D01*
X8802Y49607D01*
X8687Y49684D01*
X8551Y49711D01*
X8424Y49764D01*
X8285D01*
X8150Y49791D01*
X-31622D01*
X-32160Y49684D01*
X-32616Y49379D01*
X-32995Y49000D01*
X-35603D01*
Y95410D01*
X-32024Y98989D01*
X3413D01*
X3549Y99016D01*
X3687D01*
X3815Y99069D01*
X3951Y99096D01*
X4066Y99173D01*
X4194Y99225D01*
X4292Y99323D01*
X4407Y99400D01*
X4484Y99515D01*
X4582Y99613D01*
X4634Y99741D01*
X4711Y99856D01*
X4738Y99992D01*
X4791Y100120D01*
Y100258D01*
X4818Y100394D01*
X35500D01*
Y49000D01*
D02*
G37*
%LPC*%
G36*
X26062Y72693D02*
X25749D01*
X25460Y72573D01*
X25238Y72351D01*
X25118Y72062D01*
Y71749D01*
X25238Y71460D01*
X25460Y71238D01*
X25749Y71118D01*
X26062D01*
X26351Y71238D01*
X26573Y71460D01*
X26693Y71749D01*
Y72062D01*
X26573Y72351D01*
X26351Y72573D01*
X26062Y72693D01*
D02*
G37*
G36*
X-33623Y59764D02*
X-33936D01*
X-34225Y59644D01*
X-34447Y59422D01*
X-34567Y59133D01*
Y58820D01*
X-34447Y58530D01*
X-34225Y58309D01*
X-33936Y58189D01*
X-33623D01*
X-33334Y58309D01*
X-33112Y58530D01*
X-32992Y58820D01*
Y59133D01*
X-33112Y59422D01*
X-33334Y59644D01*
X-33623Y59764D01*
D02*
G37*
G36*
X23838Y54756D02*
X23525D01*
X23235Y54636D01*
X23014Y54414D01*
X22894Y54125D01*
Y53812D01*
X23014Y53522D01*
X23235Y53301D01*
X23525Y53181D01*
X23838D01*
X24127Y53301D01*
X24349Y53522D01*
X24468Y53812D01*
Y54125D01*
X24349Y54414D01*
X24127Y54636D01*
X23838Y54756D01*
D02*
G37*
G36*
X28838Y54724D02*
X28525D01*
X28235Y54605D01*
X28014Y54383D01*
X27894Y54094D01*
Y53780D01*
X28014Y53491D01*
X28235Y53269D01*
X28525Y53150D01*
X28838D01*
X29127Y53269D01*
X29349Y53491D01*
X29469Y53780D01*
Y54094D01*
X29349Y54383D01*
X29127Y54605D01*
X28838Y54724D01*
D02*
G37*
%LPD*%
D10*
X53740Y12598D02*
G03*
X50591Y9449I0J-3150D01*
G01*
X-50591D02*
G03*
X-53740Y12598I-3150J0D01*
G01*
X-12205Y12795D02*
G03*
X-18110Y12795I-2953J0D01*
G01*
X53740Y12598D02*
G03*
X50591Y9449I0J-3150D01*
G01*
X-50591D02*
G03*
X-53740Y12598I-3150J0D01*
G01*
X-12205Y12795D02*
G03*
X-18110Y12795I-2953J0D01*
G01*
X-50591Y0D02*
X-18110D01*
X50591D02*
Y9449D01*
X53740Y12598D02*
X59055D01*
X-59055D02*
X-53740D01*
X-12205Y0D02*
Y12795D01*
X-18110Y0D02*
Y12795D01*
X-50591Y0D02*
Y9449D01*
X-12205Y0D02*
X50591D01*
X-59055Y200591D02*
X59055D01*
X-50591Y0D02*
Y9449D01*
X59055Y12598D02*
Y200591D01*
X-18110Y0D02*
Y12795D01*
X50591Y0D02*
Y9449D01*
X-12205Y0D02*
Y12795D01*
X-50591Y0D02*
X-18110D01*
X-12205D02*
X50591D01*
X53740Y12598D02*
X59055D01*
X-59055D02*
X-53740D01*
X-59055D02*
Y200591D01*
D12*
X11600Y87809D02*
Y111009D01*
X-11600Y87809D02*
Y111009D01*
X11600D01*
X-11600Y87809D02*
X11600D01*
X-11600D02*
Y111009D01*
Y87809D02*
X11600D01*
Y111009D01*
X-11600D02*
X11600D01*
X-1181Y99410D02*
X1181D01*
X0Y98228D02*
Y100591D01*
D15*
X35039Y141535D02*
Y147835D01*
X24016D02*
X35039D01*
X24016Y141535D02*
X35039D01*
X24016D02*
Y147835D01*
X-8063Y92520D02*
X-5110D01*
X-8063Y86614D02*
Y92520D01*
X-5110Y86614D02*
Y92520D01*
X-8063Y86614D02*
X-5110D01*
X-28063D02*
X-25110D01*
Y92520D01*
X-28063Y86614D02*
Y92520D01*
X-25110D01*
X-18063D02*
X-15110D01*
X-18063Y86614D02*
Y92520D01*
X-15110Y86614D02*
Y92520D01*
X-18063Y86614D02*
X-15110D01*
X1937Y92520D02*
X4890D01*
X1937Y86614D02*
Y92520D01*
X4890Y86614D02*
Y92520D01*
X1937Y86614D02*
X4890D01*
X-35740Y93504D02*
X7567D01*
X-35740Y125000D02*
X7567D01*
X-35740Y93504D02*
Y125000D01*
X7567Y93504D02*
Y125000D01*
X16339Y32480D02*
Y63976D01*
X36024Y32480D02*
Y63976D01*
X16339Y32480D02*
X36024D01*
X16339Y63976D02*
X36024D01*
X17634Y97933D02*
X23539D01*
X17634Y94980D02*
X23539D01*
Y97933D01*
X17634Y94980D02*
Y97933D01*
X31413Y94980D02*
Y97933D01*
X25508D02*
X31413D01*
X25508Y94980D02*
X31413D01*
X25508D02*
Y97933D01*
X-27559Y23228D02*
Y73228D01*
X5118D01*
Y23228D02*
Y73228D01*
X-27559Y23228D02*
X5118D01*
X43307Y154528D02*
Y203740D01*
X-43307Y154528D02*
Y203740D01*
Y154528D02*
X43307D01*
X-43307Y203740D02*
X43307D01*
X26575Y137303D02*
Y140256D01*
X32480Y137303D02*
Y140256D01*
X26575Y137303D02*
X32480D01*
X26575Y140256D02*
X32480D01*
X-5512Y141535D02*
Y147835D01*
Y141535D02*
X5512D01*
X-5512Y147835D02*
X5512D01*
Y141535D02*
Y147835D01*
X-2953Y137303D02*
Y140256D01*
X2953Y137303D02*
Y140256D01*
X-2953Y137303D02*
X2953D01*
X-2953Y140256D02*
X2953D01*
X-35039Y141535D02*
Y147835D01*
Y141535D02*
X-24016D01*
X-35039Y147835D02*
X-24016D01*
Y141535D02*
Y147835D01*
X-32480Y137303D02*
Y140256D01*
X-26575Y137303D02*
Y140256D01*
X-32480Y137303D02*
X-26575D01*
X-32480Y140256D02*
X-26575D01*
X17634Y114862D02*
Y117815D01*
X23539Y114862D02*
Y117815D01*
X17634Y114862D02*
X23539D01*
X17634Y117815D02*
X23539D01*
X31413Y114862D02*
Y117815D01*
X25508D02*
X31413D01*
X25508Y114862D02*
X31413D01*
X25508D02*
Y117815D01*
X-22835Y148228D02*
X-16535D01*
Y137205D02*
Y148228D01*
X-22835Y137205D02*
Y148228D01*
Y137205D02*
X-16535D01*
X-12992Y148228D02*
X-6693D01*
Y137205D02*
Y148228D01*
X-12992Y137205D02*
Y148228D01*
Y137205D02*
X-6693D01*
X-32677Y148228D02*
X-26378D01*
Y137205D02*
Y148228D01*
X-32677Y137205D02*
Y148228D01*
Y137205D02*
X-26378D01*
X-32480Y125492D02*
Y128445D01*
X-26575D01*
X-32480Y125492D02*
X-26575D01*
Y128445D01*
X22638Y141240D02*
Y144193D01*
X16732Y141240D02*
X22638D01*
X16732Y144193D02*
X22638D01*
X16732Y141240D02*
Y144193D01*
X32480Y141240D02*
Y144193D01*
X26575Y141240D02*
X32480D01*
X26575Y144193D02*
X32480D01*
X26575Y141240D02*
Y144193D01*
X6890Y145177D02*
Y148130D01*
X12795D01*
X6890Y145177D02*
X12795D01*
Y148130D01*
X26575Y145177D02*
Y148130D01*
X32480D01*
X26575Y145177D02*
X32480D01*
Y148130D01*
X16732Y145177D02*
Y148130D01*
X22638D01*
X16732Y145177D02*
X22638D01*
Y148130D01*
X-16732Y125492D02*
Y128445D01*
X-22638Y125492D02*
X-16732D01*
X-22638Y128445D02*
X-16732D01*
X-22638Y125492D02*
Y128445D01*
X-20079Y90059D02*
Y93012D01*
X-25984Y90059D02*
X-20079D01*
X-25984Y93012D02*
X-20079D01*
X-25984Y90059D02*
Y93012D01*
Y105807D02*
Y108760D01*
X-20079D01*
X-25984Y105807D02*
X-20079D01*
Y108760D01*
X21260Y74311D02*
Y77264D01*
X27165D01*
X21260Y74311D02*
X27165D01*
Y77264D01*
X21260Y82185D02*
Y85138D01*
X27165D01*
X21260Y82185D02*
X27165D01*
Y85138D01*
X21260Y78248D02*
Y81201D01*
X27165D01*
X21260Y78248D02*
X27165D01*
Y81201D01*
X4724Y73819D02*
Y81693D01*
X-4724Y73819D02*
Y81693D01*
Y73819D02*
X4724D01*
X-4724Y81693D02*
X4724D01*
X27165Y90059D02*
Y93012D01*
X21260Y90059D02*
X27165D01*
X21260Y93012D02*
X27165D01*
X21260Y90059D02*
Y93012D01*
Y86122D02*
Y89075D01*
X27165D01*
X21260Y86122D02*
X27165D01*
Y89075D01*
X-25984Y82185D02*
Y85138D01*
X-20079D01*
X-25984Y82185D02*
X-20079D01*
Y85138D01*
Y86122D02*
Y89075D01*
X-25984Y86122D02*
X-20079D01*
X-25984Y89075D02*
X-20079D01*
X-25984Y86122D02*
Y89075D01*
X-20079Y97933D02*
Y100886D01*
X-25984Y97933D02*
X-20079D01*
X-25984Y100886D02*
X-20079D01*
X-25984Y97933D02*
Y100886D01*
X-20079Y93996D02*
Y96949D01*
X-25984Y93996D02*
X-20079D01*
X-25984Y96949D02*
X-20079D01*
X-25984Y93996D02*
Y96949D01*
X27165Y109744D02*
Y112697D01*
X21260Y109744D02*
X27165D01*
X21260Y112697D02*
X27165D01*
X21260Y109744D02*
Y112697D01*
X21260Y97933D02*
Y100886D01*
X27165D01*
X21260Y97933D02*
X27165D01*
Y100886D01*
X21260Y93996D02*
Y96949D01*
X27165D01*
X21260Y93996D02*
X27165D01*
Y96949D01*
Y101870D02*
Y104823D01*
X21260Y101870D02*
X27165D01*
X21260Y104823D02*
X27165D01*
X21260Y101870D02*
Y104823D01*
Y105807D02*
Y108760D01*
X27165D01*
X21260Y105807D02*
X27165D01*
Y108760D01*
X-12795Y125492D02*
Y128445D01*
X-6890D01*
X-12795Y125492D02*
X-6890D01*
Y128445D01*
X32480Y133366D02*
Y136319D01*
X26575Y133366D02*
X32480D01*
X26575Y136319D02*
X32480D01*
X26575Y133366D02*
Y136319D01*
X22638Y133366D02*
Y136319D01*
X16732Y133366D02*
X22638D01*
X16732Y136319D02*
X22638D01*
X16732Y133366D02*
Y136319D01*
X12795Y133366D02*
Y136319D01*
X6890Y133366D02*
X12795D01*
X6890Y136319D02*
X12795D01*
X6890Y133366D02*
Y136319D01*
X12795Y141240D02*
Y144193D01*
X6890Y141240D02*
X12795D01*
X6890Y144193D02*
X12795D01*
X6890Y141240D02*
Y144193D01*
X35039Y141535D02*
Y147835D01*
X24016Y141535D02*
Y147835D01*
X35039D01*
X24016Y141535D02*
X35039D01*
X28543Y144685D02*
X30512D01*
X29528Y143701D02*
Y145669D01*
X-7571Y89567D02*
X-5602D01*
X-6587Y88583D02*
Y90551D01*
X-8063Y86614D02*
Y92520D01*
X-5110Y86614D02*
Y92520D01*
X-8063D02*
X-5110D01*
X-8063Y86614D02*
X-5110D01*
X-28063D02*
X-25110D01*
X-28063Y92520D02*
X-25110D01*
Y86614D02*
Y92520D01*
X-28063Y86614D02*
Y92520D01*
X-26587Y88583D02*
Y90551D01*
X-27571Y89567D02*
X-25602D01*
X-17571D02*
X-15602D01*
X-16587Y88583D02*
Y90551D01*
X-18063Y86614D02*
Y92520D01*
X-15110Y86614D02*
Y92520D01*
X-18063D02*
X-15110D01*
X-18063Y86614D02*
X-15110D01*
X2429Y89567D02*
X4398D01*
X3413Y88583D02*
Y90551D01*
X1937Y86614D02*
Y92520D01*
X4890Y86614D02*
Y92520D01*
X1937D02*
X4890D01*
X1937Y86614D02*
X4890D01*
X-35740Y125000D02*
X7567D01*
X-35740Y93504D02*
Y125000D01*
X7567Y93504D02*
Y125000D01*
X-35740Y93504D02*
X7567D01*
X-15071Y109252D02*
X-13102D01*
X-14087Y108268D02*
Y110236D01*
X26181Y47244D02*
Y49213D01*
X25197Y48228D02*
X27165D01*
X16339Y63976D02*
X36024D01*
X16339Y32480D02*
Y63976D01*
X36024Y32480D02*
Y63976D01*
X16339Y32480D02*
X36024D01*
X19602Y96457D02*
X21571D01*
X20587Y95472D02*
Y97441D01*
X23539Y94980D02*
Y97933D01*
X17634Y94980D02*
Y97933D01*
X23539D01*
X17634Y94980D02*
X23539D01*
X31413D02*
Y97933D01*
X25508Y94980D02*
Y97933D01*
X31413D01*
X25508Y94980D02*
X31413D01*
X27476Y96457D02*
X29445D01*
X28461Y95472D02*
Y97441D01*
X6102Y66260D02*
X13780D01*
X-36220Y30197D02*
X-28543D01*
X13780D02*
Y66260D01*
X-36220Y30197D02*
Y66220D01*
X6102Y30197D02*
X13780D01*
X-36220Y66220D02*
X-28543D01*
Y74213D01*
X6102Y22244D02*
Y30197D01*
X-28543Y22244D02*
X6102D01*
X-28543Y74213D02*
X6102D01*
Y66260D02*
Y74213D01*
X-28543Y22244D02*
Y30197D01*
X-12205Y48228D02*
X-10236D01*
X-11220Y47244D02*
Y49213D01*
X-43307Y154528D02*
X43307D01*
X-43307D02*
Y203740D01*
X43307D01*
Y154528D02*
Y203740D01*
X0Y165354D02*
Y167323D01*
X-984Y166339D02*
X984D01*
X26575Y137303D02*
X32480D01*
X26575Y140256D02*
X32480D01*
X26575Y137303D02*
Y140256D01*
X32480Y137303D02*
Y140256D01*
X29528Y137795D02*
Y139764D01*
X28543Y138779D02*
X30512D01*
X0Y143701D02*
Y145669D01*
X-984Y144685D02*
X984D01*
X-5512Y141535D02*
X5512D01*
X-5512Y147835D02*
X5512D01*
X-5512Y141535D02*
Y147835D01*
X5512Y141535D02*
Y147835D01*
X-2953Y137303D02*
X2953D01*
X-2953Y140256D02*
X2953D01*
X-2953Y137303D02*
Y140256D01*
X2953Y137303D02*
Y140256D01*
X0Y137795D02*
Y139764D01*
X-984Y138779D02*
X984D01*
X-29528Y143701D02*
Y145669D01*
X-30512Y144685D02*
X-28543D01*
X-35039Y141535D02*
X-24016D01*
X-35039Y147835D02*
X-24016D01*
X-35039Y141535D02*
Y147835D01*
X-24016Y141535D02*
Y147835D01*
X-32480Y137303D02*
X-26575D01*
X-32480Y140256D02*
X-26575D01*
X-32480Y137303D02*
Y140256D01*
X-26575Y137303D02*
Y140256D01*
X-29528Y137795D02*
Y139764D01*
X-30512Y138779D02*
X-28543D01*
X17634Y114862D02*
X23539D01*
X17634Y117815D02*
X23539D01*
X17634Y114862D02*
Y117815D01*
X23539Y114862D02*
Y117815D01*
X20587Y115354D02*
Y117323D01*
X19602Y116339D02*
X21571D01*
X31413Y114862D02*
Y117815D01*
X25508Y114862D02*
Y117815D01*
X31413D01*
X25508Y114862D02*
X31413D01*
X27476Y116339D02*
X29445D01*
X28461Y115354D02*
Y117323D01*
X-20669Y142717D02*
X-18701D01*
X-19685Y141732D02*
Y143701D01*
X-16535Y137205D02*
Y148228D01*
X-22835Y137205D02*
Y148228D01*
X-16535D01*
X-22835Y137205D02*
X-16535D01*
X-10827Y142717D02*
X-8858D01*
X-9843Y141732D02*
Y143701D01*
X-6693Y137205D02*
Y148228D01*
X-12992Y137205D02*
Y148228D01*
X-6693D01*
X-12992Y137205D02*
X-6693D01*
X-30512Y142717D02*
X-28543D01*
X-29528Y141732D02*
Y143701D01*
X-26378Y137205D02*
Y148228D01*
X-32677Y137205D02*
Y148228D01*
X-26378D01*
X-32677Y137205D02*
X-26378D01*
X-32480Y125492D02*
Y128445D01*
X-26575Y125492D02*
Y128445D01*
X-32480D02*
X-26575D01*
X-32480Y125492D02*
X-26575D01*
X-30512Y126969D02*
X-28543D01*
X-29528Y125984D02*
Y127953D01*
X22638Y141240D02*
Y144193D01*
X16732Y141240D02*
Y144193D01*
Y141240D02*
X22638D01*
X16732Y144193D02*
X22638D01*
X18701Y142717D02*
X20669D01*
X19685Y141732D02*
Y143701D01*
X32480Y141240D02*
Y144193D01*
X26575Y141240D02*
Y144193D01*
Y141240D02*
X32480D01*
X26575Y144193D02*
X32480D01*
X28543Y142717D02*
X30512D01*
X29528Y141732D02*
Y143701D01*
X6890Y145177D02*
Y148130D01*
X12795Y145177D02*
Y148130D01*
X6890D02*
X12795D01*
X6890Y145177D02*
X12795D01*
X8858Y146653D02*
X10827D01*
X9843Y145669D02*
Y147638D01*
X26575Y145177D02*
Y148130D01*
X32480Y145177D02*
Y148130D01*
X26575D02*
X32480D01*
X26575Y145177D02*
X32480D01*
X28543Y146653D02*
X30512D01*
X29528Y145669D02*
Y147638D01*
X16732Y145177D02*
Y148130D01*
X22638Y145177D02*
Y148130D01*
X16732D02*
X22638D01*
X16732Y145177D02*
X22638D01*
X18701Y146653D02*
X20669D01*
X19685Y145669D02*
Y147638D01*
X-19685Y125984D02*
Y127953D01*
X-20669Y126969D02*
X-18701D01*
X-22638Y125492D02*
X-16732D01*
X-22638Y128445D02*
X-16732D01*
Y125492D02*
Y128445D01*
X-22638Y125492D02*
Y128445D01*
X-23031Y90551D02*
Y92520D01*
X-24016Y91535D02*
X-22047D01*
X-25984Y90059D02*
X-20079D01*
X-25984Y93012D02*
X-20079D01*
Y90059D02*
Y93012D01*
X-25984Y90059D02*
Y93012D01*
Y105807D02*
Y108760D01*
X-20079Y105807D02*
Y108760D01*
X-25984D02*
X-20079D01*
X-25984Y105807D02*
X-20079D01*
X-24016Y107283D02*
X-22047D01*
X-23031Y106299D02*
Y108268D01*
X24213Y74803D02*
Y76772D01*
X23228Y75787D02*
X25197D01*
X21260Y77264D02*
X27165D01*
X21260Y74311D02*
X27165D01*
X21260D02*
Y77264D01*
X27165Y74311D02*
Y77264D01*
X24213Y82677D02*
Y84646D01*
X23228Y83661D02*
X25197D01*
X21260Y85138D02*
X27165D01*
X21260Y82185D02*
X27165D01*
X21260D02*
Y85138D01*
X27165Y82185D02*
Y85138D01*
X24213Y78740D02*
Y80709D01*
X23228Y79724D02*
X25197D01*
X21260Y81201D02*
X27165D01*
X21260Y78248D02*
X27165D01*
X21260D02*
Y81201D01*
X27165Y78248D02*
Y81201D01*
X-4724Y73819D02*
Y81693D01*
X4724Y73819D02*
Y81693D01*
X-4724D02*
X4724D01*
X-4724Y73819D02*
X4724D01*
X0Y76772D02*
Y78740D01*
X-984Y77756D02*
X984D01*
X24213Y90551D02*
Y92520D01*
X23228Y91535D02*
X25197D01*
X21260Y90059D02*
X27165D01*
X21260Y93012D02*
X27165D01*
Y90059D02*
Y93012D01*
X21260Y90059D02*
Y93012D01*
X24213Y86614D02*
Y88583D01*
X23228Y87598D02*
X25197D01*
X21260Y89075D02*
X27165D01*
X21260Y86122D02*
X27165D01*
X21260D02*
Y89075D01*
X27165Y86122D02*
Y89075D01*
X-23031Y82677D02*
Y84646D01*
X-24016Y83661D02*
X-22047D01*
X-25984Y85138D02*
X-20079D01*
X-25984Y82185D02*
X-20079D01*
X-25984D02*
Y85138D01*
X-20079Y82185D02*
Y85138D01*
X-23031Y86614D02*
Y88583D01*
X-24016Y87598D02*
X-22047D01*
X-25984Y86122D02*
X-20079D01*
X-25984Y89075D02*
X-20079D01*
Y86122D02*
Y89075D01*
X-25984Y86122D02*
Y89075D01*
X-23031Y98425D02*
Y100394D01*
X-24016Y99409D02*
X-22047D01*
X-25984Y97933D02*
X-20079D01*
X-25984Y100886D02*
X-20079D01*
Y97933D02*
Y100886D01*
X-25984Y97933D02*
Y100886D01*
X-23031Y94488D02*
Y96457D01*
X-24016Y95472D02*
X-22047D01*
X-25984Y93996D02*
X-20079D01*
X-25984Y96949D02*
X-20079D01*
Y93996D02*
Y96949D01*
X-25984Y93996D02*
Y96949D01*
X24213Y110236D02*
Y112205D01*
X23228Y111221D02*
X25197D01*
X21260Y109744D02*
X27165D01*
X21260Y112697D02*
X27165D01*
Y109744D02*
Y112697D01*
X21260Y109744D02*
Y112697D01*
X24213Y98425D02*
Y100394D01*
X23228Y99410D02*
X25197D01*
X21260Y100886D02*
X27165D01*
X21260Y97933D02*
X27165D01*
X21260D02*
Y100886D01*
X27165Y97933D02*
Y100886D01*
X24213Y94488D02*
Y96457D01*
X23228Y95472D02*
X25197D01*
X21260Y96949D02*
X27165D01*
X21260Y93996D02*
X27165D01*
X21260D02*
Y96949D01*
X27165Y93996D02*
Y96949D01*
X24213Y102362D02*
Y104331D01*
X23228Y103347D02*
X25197D01*
X21260Y101870D02*
X27165D01*
X21260Y104823D02*
X27165D01*
Y101870D02*
Y104823D01*
X21260Y101870D02*
Y104823D01*
X24213Y106299D02*
Y108268D01*
X23228Y107283D02*
X25197D01*
X21260Y108760D02*
X27165D01*
X21260Y105807D02*
X27165D01*
X21260D02*
Y108760D01*
X27165Y105807D02*
Y108760D01*
X-12795Y125492D02*
Y128445D01*
X-6890Y125492D02*
Y128445D01*
X-12795D02*
X-6890D01*
X-12795Y125492D02*
X-6890D01*
X-10827Y126969D02*
X-8858D01*
X-9843Y125984D02*
Y127953D01*
X32480Y133366D02*
Y136319D01*
X26575Y133366D02*
Y136319D01*
Y133366D02*
X32480D01*
X26575Y136319D02*
X32480D01*
X28543Y134843D02*
X30512D01*
X29528Y133858D02*
Y135827D01*
X22638Y133366D02*
Y136319D01*
X16732Y133366D02*
Y136319D01*
Y133366D02*
X22638D01*
X16732Y136319D02*
X22638D01*
X18701Y134843D02*
X20669D01*
X19685Y133858D02*
Y135827D01*
X12795Y133366D02*
Y136319D01*
X6890Y133366D02*
Y136319D01*
Y133366D02*
X12795D01*
X6890Y136319D02*
X12795D01*
X8858Y134843D02*
X10827D01*
X9843Y133858D02*
Y135827D01*
X12795Y141240D02*
Y144193D01*
X6890Y141240D02*
Y144193D01*
Y141240D02*
X12795D01*
X6890Y144193D02*
X12795D01*
X8858Y142717D02*
X10827D01*
X9843Y141732D02*
Y143701D01*
D16*
X-23063Y86614D02*
X-20110D01*
X-23063Y92520D02*
X-20110D01*
X-23063Y86614D02*
Y92520D01*
X-20110Y86614D02*
Y92520D01*
X-13063Y86614D02*
X-10110D01*
X-13063Y92520D02*
X-10110D01*
X-13063Y86614D02*
Y92520D01*
X-10110Y86614D02*
Y92520D01*
X-30110Y86614D02*
Y92520D01*
X-33063Y86614D02*
Y92520D01*
X-30110D01*
X-33063Y86614D02*
X-30110D01*
X-3063D02*
X-110D01*
X-3063Y92520D02*
X-110D01*
X-3063Y86614D02*
Y92520D01*
X-110Y86614D02*
Y92520D01*
X23327Y62697D02*
Y65650D01*
X17421Y62697D02*
Y65650D01*
Y62697D02*
X23327D01*
X17421Y65650D02*
X23327D01*
Y30807D02*
Y33760D01*
X17421Y30807D02*
Y33760D01*
Y30807D02*
X23327D01*
X17421Y33760D02*
X23327D01*
X6890Y53642D02*
X12795D01*
X6890Y50689D02*
X12795D01*
X6890D02*
Y53642D01*
X12795Y50689D02*
Y53642D01*
X6890Y57579D02*
X12795D01*
X6890Y54626D02*
X12795D01*
X6890D02*
Y57579D01*
X12795Y54626D02*
Y57579D01*
X-35039Y53642D02*
X-29134D01*
X-35039Y50689D02*
X-29134D01*
X-35039D02*
Y53642D01*
X-29134Y50689D02*
Y53642D01*
X-35039Y57579D02*
X-29134D01*
X-35039Y54626D02*
X-29134D01*
X-35039D02*
Y57579D01*
X-29134Y54626D02*
Y57579D01*
X7972Y74803D02*
Y80709D01*
X5020Y74803D02*
Y80709D01*
Y74803D02*
X7972D01*
X5020Y80709D02*
X7972D01*
X-7972Y74803D02*
Y80709D01*
X-5020Y74803D02*
Y80709D01*
X-7972D02*
X-5020D01*
X-7972Y74803D02*
X-5020D01*
X-20079Y78248D02*
Y81201D01*
X-25984Y78248D02*
Y81201D01*
X-20079D01*
X-25984Y78248D02*
X-20079D01*
Y74311D02*
Y77264D01*
X-25984Y74311D02*
Y77264D01*
X-20079D01*
X-25984Y74311D02*
X-20079D01*
X-25984Y104823D02*
X-20079D01*
X-25984Y101870D02*
X-20079D01*
Y104823D01*
X-25984Y101870D02*
Y104823D01*
X6890Y128445D02*
X12795D01*
X6890Y125492D02*
X12795D01*
Y128445D01*
X6890Y125492D02*
Y128445D01*
X16732D02*
X22638D01*
X16732Y125492D02*
X22638D01*
Y128445D01*
X16732Y125492D02*
Y128445D01*
X26575D02*
X32480D01*
X26575Y125492D02*
X32480D01*
Y128445D01*
X26575Y125492D02*
Y128445D01*
X6890Y132382D02*
X12795D01*
X6890Y129429D02*
X12795D01*
Y132382D01*
X6890Y129429D02*
Y132382D01*
X16732D02*
X22638D01*
X16732Y129429D02*
X22638D01*
Y132382D01*
X16732Y129429D02*
Y132382D01*
X26575D02*
X32480D01*
X26575Y129429D02*
X32480D01*
Y132382D01*
X26575Y129429D02*
Y132382D01*
X6890Y137303D02*
X12795D01*
X6890Y140256D02*
X12795D01*
X6890Y137303D02*
Y140256D01*
X12795Y137303D02*
Y140256D01*
X16732Y137303D02*
X22638D01*
X16732Y140256D02*
X22638D01*
X16732Y137303D02*
Y140256D01*
X22638Y137303D02*
Y140256D01*
X26575Y137303D02*
X32480D01*
X26575Y140256D02*
X32480D01*
X26575Y137303D02*
Y140256D01*
X32480Y137303D02*
Y140256D01*
X-32480Y136319D02*
X-26575D01*
X-32480Y133366D02*
X-26575D01*
Y136319D01*
X-32480Y133366D02*
Y136319D01*
X-22638D02*
X-16732D01*
X-22638Y133366D02*
X-16732D01*
Y136319D01*
X-22638Y133366D02*
Y136319D01*
X-12795D02*
X-6890D01*
X-12795Y133366D02*
X-6890D01*
Y136319D01*
X-12795Y133366D02*
Y136319D01*
X-32480Y132382D02*
X-26575D01*
X-32480Y129429D02*
X-26575D01*
Y132382D01*
X-32480Y129429D02*
Y132382D01*
X-22638D02*
X-16732D01*
X-22638Y129429D02*
X-16732D01*
Y132382D01*
X-22638Y129429D02*
Y132382D01*
X-12795D02*
X-6890D01*
X-12795Y129429D02*
X-6890D01*
Y132382D01*
X-12795Y129429D02*
Y132382D01*
X-23063Y86614D02*
X-20110D01*
X-23063D02*
Y92520D01*
X-20110Y86614D02*
Y92520D01*
X-21587Y88583D02*
Y90551D01*
X-22571Y89567D02*
X-20602D01*
X-23063Y92520D02*
X-20110D01*
X-13063Y86614D02*
X-10110D01*
X-13063D02*
Y92520D01*
X-10110Y86614D02*
Y92520D01*
X-11587Y88583D02*
Y90551D01*
X-12571Y89567D02*
X-10602D01*
X-13063Y92520D02*
X-10110D01*
X-33063D02*
X-30110D01*
X-32571Y89567D02*
X-30602D01*
X-31587Y88583D02*
Y90551D01*
X-30110Y86614D02*
Y92520D01*
X-33063Y86614D02*
Y92520D01*
Y86614D02*
X-30110D01*
X-3063D02*
X-110D01*
X-3063D02*
Y92520D01*
X-110Y86614D02*
Y92520D01*
X-1587Y88583D02*
Y90551D01*
X-2571Y89567D02*
X-602D01*
X-3063Y92520D02*
X-110D01*
X23327Y62697D02*
Y65650D01*
X17421Y62697D02*
X23327D01*
X17421Y65650D02*
X23327D01*
X19390Y64173D02*
X21358D01*
X20374Y63189D02*
Y65158D01*
X17421Y62697D02*
Y65650D01*
X23327Y30807D02*
Y33760D01*
X17421Y30807D02*
X23327D01*
X17421Y33760D02*
X23327D01*
X19390Y32283D02*
X21358D01*
X20374Y31299D02*
Y33268D01*
X17421Y30807D02*
Y33760D01*
X6890Y50689D02*
Y53642D01*
X9843Y51181D02*
Y53150D01*
X8858Y52165D02*
X10827D01*
X6890Y53642D02*
X12795D01*
X6890Y50689D02*
X12795D01*
Y53642D01*
X6890Y54626D02*
Y57579D01*
X9843Y55118D02*
Y57087D01*
X8858Y56102D02*
X10827D01*
X6890Y57579D02*
X12795D01*
X6890Y54626D02*
X12795D01*
Y57579D01*
X-35039Y50689D02*
Y53642D01*
X-32087Y51181D02*
Y53150D01*
X-33071Y52165D02*
X-31102D01*
X-35039Y53642D02*
X-29134D01*
X-35039Y50689D02*
X-29134D01*
Y53642D01*
X-35039Y54626D02*
Y57579D01*
X-32087Y55118D02*
Y57087D01*
X-33071Y56102D02*
X-31102D01*
X-35039Y57579D02*
X-29134D01*
X-35039Y54626D02*
X-29134D01*
Y57579D01*
X5020Y74803D02*
X7972D01*
X5512Y77756D02*
X7480D01*
X6496Y76772D02*
Y78740D01*
X7972Y74803D02*
Y80709D01*
X5020Y74803D02*
Y80709D01*
X7972D01*
X-7972D02*
X-5020D01*
X-7480Y77756D02*
X-5512D01*
X-6496Y76772D02*
Y78740D01*
X-7972Y74803D02*
Y80709D01*
X-5020Y74803D02*
Y80709D01*
X-7972Y74803D02*
X-5020D01*
X-20079Y78248D02*
Y81201D01*
X-25984D02*
X-20079D01*
X-25984Y78248D02*
X-20079D01*
X-24016Y79724D02*
X-22047D01*
X-23031Y78740D02*
Y80709D01*
X-25984Y78248D02*
Y81201D01*
X-20079Y74311D02*
Y77264D01*
X-25984D02*
X-20079D01*
X-25984Y74311D02*
X-20079D01*
X-24016Y75787D02*
X-22047D01*
X-23031Y74803D02*
Y76772D01*
X-25984Y74311D02*
Y77264D01*
X-20079Y101870D02*
Y104823D01*
X-23031Y102362D02*
Y104331D01*
X-24016Y103347D02*
X-22047D01*
X-25984Y104823D02*
X-20079D01*
X-25984Y101870D02*
X-20079D01*
X-25984D02*
Y104823D01*
X12795Y125492D02*
Y128445D01*
X9843Y125984D02*
Y127953D01*
X8858Y126969D02*
X10827D01*
X6890Y128445D02*
X12795D01*
X6890Y125492D02*
X12795D01*
X6890D02*
Y128445D01*
X22638Y125492D02*
Y128445D01*
X19685Y125984D02*
Y127953D01*
X18701Y126969D02*
X20669D01*
X16732Y128445D02*
X22638D01*
X16732Y125492D02*
X22638D01*
X16732D02*
Y128445D01*
X32480Y125492D02*
Y128445D01*
X29528Y125984D02*
Y127953D01*
X28543Y126969D02*
X30512D01*
X26575Y128445D02*
X32480D01*
X26575Y125492D02*
X32480D01*
X26575D02*
Y128445D01*
X12795Y129429D02*
Y132382D01*
X9843Y129921D02*
Y131890D01*
X8858Y130905D02*
X10827D01*
X6890Y132382D02*
X12795D01*
X6890Y129429D02*
X12795D01*
X6890D02*
Y132382D01*
X22638Y129429D02*
Y132382D01*
X19685Y129921D02*
Y131890D01*
X18701Y130905D02*
X20669D01*
X16732Y132382D02*
X22638D01*
X16732Y129429D02*
X22638D01*
X16732D02*
Y132382D01*
X32480Y129429D02*
Y132382D01*
X29528Y129921D02*
Y131890D01*
X28543Y130905D02*
X30512D01*
X26575Y132382D02*
X32480D01*
X26575Y129429D02*
X32480D01*
X26575D02*
Y132382D01*
X6890Y137303D02*
Y140256D01*
X9843Y137795D02*
Y139764D01*
X8858Y138779D02*
X10827D01*
X6890Y137303D02*
X12795D01*
X6890Y140256D02*
X12795D01*
Y137303D02*
Y140256D01*
X16732Y137303D02*
Y140256D01*
X19685Y137795D02*
Y139764D01*
X18701Y138779D02*
X20669D01*
X16732Y137303D02*
X22638D01*
X16732Y140256D02*
X22638D01*
Y137303D02*
Y140256D01*
X26575Y137303D02*
Y140256D01*
X29528Y137795D02*
Y139764D01*
X28543Y138779D02*
X30512D01*
X26575Y137303D02*
X32480D01*
X26575Y140256D02*
X32480D01*
Y137303D02*
Y140256D01*
X-26575Y133366D02*
Y136319D01*
X-29528Y133858D02*
Y135827D01*
X-30512Y134843D02*
X-28543D01*
X-32480Y136319D02*
X-26575D01*
X-32480Y133366D02*
X-26575D01*
X-32480D02*
Y136319D01*
X-16732Y133366D02*
Y136319D01*
X-19685Y133858D02*
Y135827D01*
X-20669Y134843D02*
X-18701D01*
X-22638Y136319D02*
X-16732D01*
X-22638Y133366D02*
X-16732D01*
X-22638D02*
Y136319D01*
X-6890Y133366D02*
Y136319D01*
X-9843Y133858D02*
Y135827D01*
X-10827Y134843D02*
X-8858D01*
X-12795Y136319D02*
X-6890D01*
X-12795Y133366D02*
X-6890D01*
X-12795D02*
Y136319D01*
X-26575Y129429D02*
Y132382D01*
X-29528Y129921D02*
Y131890D01*
X-30512Y130905D02*
X-28543D01*
X-32480Y132382D02*
X-26575D01*
X-32480Y129429D02*
X-26575D01*
X-32480D02*
Y132382D01*
X-16732Y129429D02*
Y132382D01*
X-19685Y129921D02*
Y131890D01*
X-20669Y130905D02*
X-18701D01*
X-22638Y132382D02*
X-16732D01*
X-22638Y129429D02*
X-16732D01*
X-22638D02*
Y132382D01*
X-6890Y129429D02*
Y132382D01*
X-9843Y129921D02*
Y131890D01*
X-10827Y130905D02*
X-8858D01*
X-12795Y132382D02*
X-6890D01*
X-12795Y129429D02*
X-6890D01*
X-12795D02*
Y132382D01*
D39*
X0Y129500D02*
Y166339D01*
X-1587Y127913D02*
X0Y129500D01*
X-3087Y126413D02*
X-1587Y127913D01*
X-11587Y126413D02*
X-3087D01*
X-15413D02*
X-11587D01*
X-18087Y129087D02*
X-15413Y126413D01*
X-21587Y129087D02*
X-18087D01*
X-37008Y43000D02*
Y95992D01*
Y12910D02*
Y43000D01*
X-31622Y48386D01*
X8150D01*
X-6587Y100394D02*
X3413D01*
X-16587D02*
X-6587D01*
X-26587D02*
X-16587D01*
X-32606D02*
X-26587D01*
X-37008Y95992D02*
X-32606Y100394D01*
D40*
X-18543Y96457D02*
X16043D01*
X19500Y24000D02*
Y93000D01*
X16043Y96457D02*
X19500Y93000D01*
X13471Y89075D02*
X16350Y86195D01*
X14776Y26503D02*
Y85543D01*
X5512Y17239D02*
X14776Y26503D01*
X17925Y24925D02*
Y86848D01*
X11811Y18811D02*
X17925Y24925D01*
X16350Y25850D02*
Y86195D01*
X13513Y91260D02*
X17925Y86848D01*
X14961Y19461D02*
X19500Y24000D01*
X12819Y87500D02*
X14776Y85543D01*
X8661Y18161D02*
X16350Y25850D01*
X-9087Y91260D02*
X-3260D01*
X-1075Y89075D02*
X13471D01*
X-3260Y91260D02*
X-1075Y89075D01*
X-19087Y91260D02*
X-13260D01*
X-9500Y87500D01*
X12819D01*
X-29087Y91260D02*
X-23740D01*
X-18543Y96457D01*
X913Y91260D02*
X13513D01*
X5512Y12910D02*
Y17239D01*
X8661Y12910D02*
Y18161D01*
X11811Y12910D02*
Y18811D01*
X14961Y12910D02*
Y19461D01*
D43*
X0Y166339D02*
D03*
D44*
X-1587Y127913D02*
D03*
X-11587Y126413D02*
D03*
X-21587Y129087D02*
D03*
X23500Y67500D02*
D03*
X34000Y53500D02*
D03*
Y67500D02*
D03*
X500Y53500D02*
D03*
Y67500D02*
D03*
X-13500Y53500D02*
D03*
Y67500D02*
D03*
X-23500Y53500D02*
D03*
X-21339Y67500D02*
D03*
X8150Y48386D02*
D03*
X14961Y12910D02*
D03*
X11811D02*
D03*
X8661D02*
D03*
X5512D02*
D03*
X-37008D02*
D03*
X13894Y96457D02*
D03*
X3413Y100394D02*
D03*
X-6587D02*
D03*
X-16587D02*
D03*
X-26587D02*
D03*
X913Y91260D02*
D03*
X-9087D02*
D03*
X-19087D02*
D03*
X-29087D02*
D03*
M02*
