G04*
G04 #@! TF.GenerationSoftware,Altium Limited,Altium Designer,22.1.2 (22)*
G04*
G04 Layer_Color=128*
%FSLAX25Y25*%
%MOIN*%
G70*
G04*
G04 #@! TF.SameCoordinates,3B7FE2DD-F4B8-4A7D-B534-A0F5109E0913*
G04*
G04*
G04 #@! TF.FilePolarity,Positive*
G04*
G01*
G75*
%ADD50C,0.00200*%
D50*
X-31496Y166339D02*
X-27559D01*
X-29528Y164370D02*
Y168307D01*
X-21654Y166339D02*
X-17717D01*
X-19685Y164370D02*
Y168307D01*
X-11811Y166339D02*
X-7874D01*
X-9843Y164370D02*
Y168307D01*
X-1969Y166339D02*
X1969D01*
X0Y164370D02*
Y168307D01*
X7874Y166339D02*
X11811D01*
X9843Y164370D02*
Y168307D01*
X17717Y166339D02*
X21654D01*
X19685Y164370D02*
Y168307D01*
X27559Y166339D02*
X31496D01*
X29528Y164370D02*
Y168307D01*
X-52756Y189173D02*
X-42520D01*
X-47638Y184055D02*
Y194291D01*
X42520Y189173D02*
X52756D01*
X47638Y184055D02*
Y194291D01*
X46850Y21654D02*
X47638D01*
X47244Y21260D02*
Y22047D01*
X38976Y21654D02*
X39764D01*
X39370Y21260D02*
Y22047D01*
X31102Y21654D02*
X31890D01*
X31496Y21260D02*
Y22047D01*
X23228Y21654D02*
X24016D01*
X23622Y21260D02*
Y22047D01*
X15354Y21654D02*
X16142D01*
X15748Y21260D02*
Y22047D01*
X7480Y21654D02*
X8268D01*
X7874Y21260D02*
Y22047D01*
X-16142Y21654D02*
X-15354D01*
X-15748Y21260D02*
Y22047D01*
X-24016Y21654D02*
X-23228D01*
X-23622Y21260D02*
Y22047D01*
X-31890Y21654D02*
X-31102D01*
X-31496Y21260D02*
Y22047D01*
X-39764Y21654D02*
X-38976D01*
X-39370Y21260D02*
Y22047D01*
X-47638Y21654D02*
X-46850D01*
X-47244Y21260D02*
Y22047D01*
X54724Y131890D02*
X55512D01*
X55118Y131496D02*
Y132283D01*
X54724Y124016D02*
X55512D01*
X55118Y123622D02*
Y124409D01*
X54724Y116142D02*
X55512D01*
X55118Y115748D02*
Y116535D01*
X54724Y108268D02*
X55512D01*
X55118Y107874D02*
Y108661D01*
X54724Y100394D02*
X55512D01*
X55118Y100000D02*
Y100787D01*
X54724Y92520D02*
X55512D01*
X55118Y92126D02*
Y92913D01*
X54724Y84646D02*
X55512D01*
X55118Y84252D02*
Y85039D01*
X54724Y76772D02*
X55512D01*
X55118Y76378D02*
Y77165D01*
X54724Y68898D02*
X55512D01*
X55118Y68504D02*
Y69291D01*
X54724Y61024D02*
X55512D01*
X55118Y60630D02*
Y61417D01*
X54724Y53150D02*
X55512D01*
X55118Y52756D02*
Y53543D01*
X54724Y45276D02*
X55512D01*
X55118Y44882D02*
Y45669D01*
X54724Y37402D02*
X55512D01*
X55118Y37008D02*
Y37795D01*
X54724Y29528D02*
X55512D01*
X55118Y29134D02*
Y29921D01*
X54724Y21654D02*
X55512D01*
X55118Y21260D02*
Y22047D01*
X-55512Y21654D02*
X-54724D01*
X-55118Y21260D02*
Y22047D01*
X-55512Y29528D02*
X-54724D01*
X-55118Y29134D02*
Y29921D01*
X-55512Y37402D02*
X-54724D01*
X-55118Y37008D02*
Y37795D01*
X-55512Y45276D02*
X-54724D01*
X-55118Y44882D02*
Y45669D01*
X-55512Y53150D02*
X-54724D01*
X-55118Y52756D02*
Y53543D01*
X-55512Y61024D02*
X-54724D01*
X-55118Y60630D02*
Y61417D01*
X-55512Y68898D02*
X-54724D01*
X-55118Y68504D02*
Y69291D01*
X-55512Y76772D02*
X-54724D01*
X-55118Y76378D02*
Y77165D01*
X-55512Y84646D02*
X-54724D01*
X-55118Y84252D02*
Y85039D01*
X-55512Y92520D02*
X-54724D01*
X-55118Y92126D02*
Y92913D01*
X-55512Y100394D02*
X-54724D01*
X-55118Y100000D02*
Y100787D01*
X-55512Y108268D02*
X-54724D01*
X-55118Y107874D02*
Y108661D01*
X-55512Y116142D02*
X-54724D01*
X-55118Y115748D02*
Y116535D01*
X-55512Y124016D02*
X-54724D01*
X-55118Y123622D02*
Y124409D01*
X-55512Y131890D02*
X-54724D01*
X-55118Y131496D02*
Y132283D01*
X-35827Y12910D02*
X-35039D01*
X-35433Y12516D02*
Y13303D01*
X-15689Y57087D02*
X-14902D01*
X-15295Y56693D02*
Y57480D01*
X18583Y52250D02*
X19370D01*
X18976Y51856D02*
Y52644D01*
X20079Y93504D02*
X20866D01*
X20472Y93110D02*
Y93898D01*
X-21732Y91535D02*
X-20945D01*
X-21339Y91142D02*
Y91929D01*
X-28110Y107283D02*
X-27323D01*
X-27716Y106890D02*
Y107677D01*
X5709Y55465D02*
X6496D01*
X6102Y55071D02*
Y55858D01*
X5710Y52966D02*
X6498D01*
X6104Y52573D02*
Y53360D01*
X5709Y50463D02*
X6496D01*
X6102Y50069D02*
Y50856D01*
X-22953Y62992D02*
X-22165D01*
X-22559Y62598D02*
Y63386D01*
X-31890Y94297D02*
X-31102D01*
X-31496Y93904D02*
Y94691D01*
X-31890Y102362D02*
X-31102D01*
X-31496Y101969D02*
Y102756D01*
X-25118Y93504D02*
X-24331D01*
X-24724Y93110D02*
Y93898D01*
X-6496Y50463D02*
X-5709D01*
X-6102Y50069D02*
Y50856D01*
X-6496Y52965D02*
X-5709D01*
X-6102Y52571D02*
Y53358D01*
X-6496Y47961D02*
X-5709D01*
X-6102Y47567D02*
Y48354D01*
X-6496Y45461D02*
X-5709D01*
X-6102Y45067D02*
Y45854D01*
X-1181Y12910D02*
X-394D01*
X-787Y12516D02*
Y13303D01*
X-4331Y12910D02*
X-3543D01*
X-3937Y12516D02*
Y13303D01*
X25512Y89567D02*
X26299D01*
X25905Y89173D02*
Y89961D01*
X5906Y70866D02*
X6693D01*
X6299Y70473D02*
Y71260D01*
X6106Y82500D02*
X6894D01*
X6500Y82106D02*
Y82894D01*
X11417Y88532D02*
X12205D01*
X11811Y88138D02*
Y88925D01*
X11417Y85630D02*
X12205D01*
X11811Y85236D02*
Y86024D01*
X13386Y81693D02*
X14173D01*
X13780Y81299D02*
Y82087D01*
X5709Y42961D02*
X6496D01*
X6102Y42567D02*
Y43354D01*
X5709Y57965D02*
X6496D01*
X6102Y57571D02*
Y58358D01*
X5709Y45461D02*
X6496D01*
X6102Y45067D02*
Y45854D01*
X5709Y47961D02*
X6496D01*
X6102Y47567D02*
Y48354D01*
X-3894Y85039D02*
X-3106D01*
X-3500Y84646D02*
Y85433D01*
X-9843Y87598D02*
X-9055D01*
X-9449Y87205D02*
Y87992D01*
X-7283Y85039D02*
X-6496D01*
X-6890Y84646D02*
Y85433D01*
X-13394Y85039D02*
X-12606D01*
X-13000Y84646D02*
Y85433D01*
X-19291Y78740D02*
X-18504D01*
X-18898Y78347D02*
Y79134D01*
X-18110Y97441D02*
X-17323D01*
X-17717Y97047D02*
Y97835D01*
X-31890Y113192D02*
X-31102D01*
X-31496Y112799D02*
Y113586D01*
X-18110Y102362D02*
X-17323D01*
X-17717Y101969D02*
Y102756D01*
X-31890Y86614D02*
X-31102D01*
X-31496Y86221D02*
Y87008D01*
X-31890Y78740D02*
X-31102D01*
X-31496Y78347D02*
Y79134D01*
X-31890Y70866D02*
X-31102D01*
X-31496Y70473D02*
Y71260D01*
X-19291Y70866D02*
X-18504D01*
X-18898Y70473D02*
Y71260D01*
X-6693Y70866D02*
X-5906D01*
X-6299Y70473D02*
Y71260D01*
X18504Y70866D02*
X19291D01*
X18898Y70473D02*
Y71260D01*
X19291Y77756D02*
X20079D01*
X19685Y77362D02*
Y78150D01*
X19291Y81693D02*
X20079D01*
X19685Y81299D02*
Y82087D01*
X19291Y85630D02*
X20079D01*
X19685Y85236D02*
Y86024D01*
X18606Y97441D02*
X19394D01*
X19000Y97047D02*
Y97835D01*
X18606Y101378D02*
X19394D01*
X19000Y100984D02*
Y101772D01*
X31102Y70866D02*
X31890D01*
X31496Y70473D02*
Y71260D01*
X31102Y78740D02*
X31890D01*
X31496Y78347D02*
Y79134D01*
X31102Y86614D02*
X31890D01*
X31496Y86221D02*
Y87008D01*
X31102Y94488D02*
X31890D01*
X31496Y94095D02*
Y94882D01*
X2559Y85039D02*
X3347D01*
X2953Y84646D02*
Y85433D01*
X14370Y106299D02*
X15157D01*
X14764Y105905D02*
Y106693D01*
X33858Y111417D02*
X34646D01*
X34252Y111024D02*
Y111811D01*
X31102Y102362D02*
X31890D01*
X31496Y101969D02*
Y102756D01*
X24213Y111417D02*
X25000D01*
X24606Y111024D02*
Y111811D01*
X14370Y111417D02*
X15157D01*
X14764Y111024D02*
Y111811D01*
X33858Y145669D02*
X34646D01*
X34252Y145276D02*
Y146063D01*
X24213Y145669D02*
X25000D01*
X24606Y145276D02*
Y146063D01*
X14370Y145669D02*
X15157D01*
X14764Y145276D02*
Y146063D01*
X4528Y122049D02*
X5315D01*
X4921Y121655D02*
Y122443D01*
X-23622Y113192D02*
X-22835D01*
X-23228Y112799D02*
Y113586D01*
X-15354Y113192D02*
X-14567D01*
X-14961Y112799D02*
Y113586D01*
X-4331Y137795D02*
X-3543D01*
X-3937Y137402D02*
Y138189D01*
X-15354Y137795D02*
X-14567D01*
X-14961Y137402D02*
Y138189D01*
X-31890Y122049D02*
X-31102D01*
X-31496Y121655D02*
Y122443D01*
X1969Y12910D02*
X2756D01*
X2362Y12516D02*
Y13303D01*
X8268Y12910D02*
X9055D01*
X8661Y12516D02*
Y13303D01*
X5118Y12910D02*
X5906D01*
X5512Y12516D02*
Y13303D01*
X33858Y122049D02*
X34646D01*
X34252Y121655D02*
Y122443D01*
X33858Y137795D02*
X34646D01*
X34252Y137402D02*
Y138189D01*
X33858Y130905D02*
X34646D01*
X34252Y130512D02*
Y131299D01*
X4528Y145669D02*
X5315D01*
X4921Y145276D02*
Y146063D01*
X4528Y137795D02*
X5315D01*
X4921Y137402D02*
Y138189D01*
X4528Y130905D02*
X5315D01*
X4921Y130512D02*
Y131299D01*
X24213Y130905D02*
X25000D01*
X24606Y130512D02*
Y131299D01*
X24213Y137795D02*
X25000D01*
X24606Y137402D02*
Y138189D01*
X14370Y137795D02*
X15157D01*
X14764Y137402D02*
Y138189D01*
X14370Y130905D02*
X15157D01*
X14764Y130512D02*
Y131299D01*
X14370Y122049D02*
X15157D01*
X14764Y121655D02*
Y122443D01*
X24213Y122049D02*
X25000D01*
X24606Y121655D02*
Y122443D01*
X-4331Y130905D02*
X-3543D01*
X-3937Y130512D02*
Y131299D01*
X-4331Y122049D02*
X-3543D01*
X-3937Y121655D02*
Y122443D01*
X-25197Y137795D02*
X-24409D01*
X-24803Y137402D02*
Y138189D01*
X-34252Y137795D02*
X-33465D01*
X-33858Y137402D02*
Y138189D01*
X-15354Y130905D02*
X-14567D01*
X-14961Y130512D02*
Y131299D01*
X-25197Y130905D02*
X-24409D01*
X-24803Y130512D02*
Y131299D01*
X-34252Y130905D02*
X-33465D01*
X-33858Y130512D02*
Y131299D01*
X-23622Y122049D02*
X-22835D01*
X-23228Y121655D02*
Y122443D01*
X-15354Y122049D02*
X-14567D01*
X-14961Y121655D02*
Y122443D01*
M02*
