G04*
G04 #@! TF.GenerationSoftware,Altium Limited,Altium Designer,22.1.2 (22)*
G04*
G04 Layer_Color=255*
%FSLAX25Y25*%
%MOIN*%
G70*
G04*
G04 #@! TF.SameCoordinates,D9C7AC14-A0B2-4E4F-895A-178DC6869FF5*
G04*
G04*
G04 #@! TF.FilePolarity,Positive*
G04*
G01*
G75*
%ADD15R,0.02756X0.05512*%
%ADD16R,0.02047X0.01850*%
%ADD17R,0.02756X0.03937*%
%ADD18R,0.01850X0.02047*%
%ADD19R,0.02362X0.05118*%
%ADD20R,0.01968X0.02362*%
%ADD21R,0.05906X0.03937*%
%ADD36R,0.02362X0.09055*%
%ADD39R,0.20866X0.20866*%
%ADD40R,0.05315X0.05315*%
%ADD41C,0.05315*%
D15*
X33209Y144685D02*
D03*
X25846D02*
D03*
X-3681Y144685D02*
D03*
X3681D02*
D03*
X-33209Y144685D02*
D03*
X-25846D02*
D03*
D16*
X-6587Y91260D02*
D03*
Y87874D02*
D03*
X-21587D02*
D03*
Y91260D02*
D03*
X-11587Y87874D02*
D03*
Y91260D02*
D03*
X-26587Y87874D02*
D03*
Y91260D02*
D03*
X-16587D02*
D03*
Y87874D02*
D03*
X-31587Y91260D02*
D03*
Y87874D02*
D03*
X-1587D02*
D03*
Y91260D02*
D03*
X3413D02*
D03*
Y87874D02*
D03*
D17*
X-6587Y95472D02*
D03*
X-11587D02*
D03*
X-16587D02*
D03*
X-21587D02*
D03*
Y123031D02*
D03*
X-16587D02*
D03*
X-11587D02*
D03*
X-6587D02*
D03*
X-1587D02*
D03*
X-26587D02*
D03*
Y95472D02*
D03*
X-1587D02*
D03*
X3413Y123031D02*
D03*
Y95472D02*
D03*
X-31587Y123031D02*
D03*
Y95472D02*
D03*
D18*
X22067Y64173D02*
D03*
X18681D02*
D03*
X22067Y32283D02*
D03*
X18681D02*
D03*
X30154Y96457D02*
D03*
X26768D02*
D03*
X8150Y52165D02*
D03*
X11535D02*
D03*
X8150Y56102D02*
D03*
X11535D02*
D03*
X-33779Y52165D02*
D03*
X-30394D02*
D03*
X-33779Y56102D02*
D03*
X-30394D02*
D03*
X30154Y116339D02*
D03*
X26768D02*
D03*
D19*
X18681Y37598D02*
D03*
X23681D02*
D03*
X28681D02*
D03*
X33681D02*
D03*
Y58858D02*
D03*
X28681D02*
D03*
X23681D02*
D03*
X18681D02*
D03*
D20*
X22358Y96457D02*
D03*
X18815D02*
D03*
X27756Y138779D02*
D03*
X31299D02*
D03*
X-1772Y138779D02*
D03*
X1772D02*
D03*
X-31299Y138779D02*
D03*
X-27756D02*
D03*
X18815Y116339D02*
D03*
X22358D02*
D03*
D21*
X-32087Y33228D02*
D03*
Y63228D02*
D03*
X9646D02*
D03*
Y43228D02*
D03*
Y33228D02*
D03*
D36*
X44882Y5512D02*
D03*
X41732D02*
D03*
X38583D02*
D03*
X35433D02*
D03*
X32283D02*
D03*
X29134D02*
D03*
X25984D02*
D03*
X22835D02*
D03*
X19685D02*
D03*
X16535D02*
D03*
X13386D02*
D03*
X10236D02*
D03*
X7087D02*
D03*
X3937D02*
D03*
X787D02*
D03*
X-2362D02*
D03*
X-5512D02*
D03*
X-8661D02*
D03*
X-24409D02*
D03*
X-27559D02*
D03*
X-30709D02*
D03*
X-33858D02*
D03*
X-37008D02*
D03*
X-40157D02*
D03*
X-43307D02*
D03*
X-46457D02*
D03*
D39*
X-47638Y189173D02*
D03*
X47638D02*
D03*
D40*
X29528Y166339D02*
D03*
D41*
X19685D02*
D03*
X9843D02*
D03*
X0D02*
D03*
X-9843D02*
D03*
X-19685D02*
D03*
X-29528D02*
D03*
M02*
