G04*
G04 #@! TF.GenerationSoftware,Altium Limited,Altium Designer,22.1.2 (22)*
G04*
G04 Layer_Color=2752767*
%FSLAX25Y25*%
%MOIN*%
G70*
G04*
G04 #@! TF.SameCoordinates,D9C7AC14-A0B2-4E4F-895A-178DC6869FF5*
G04*
G04*
G04 #@! TF.FilePolarity,Positive*
G04*
G01*
G75*
%ADD57C,0.00200*%
D57*
X-1587Y127113D02*
X-2387Y128713D01*
X-787D01*
X-1587Y127113D01*
X-11587Y125613D02*
X-12387Y127213D01*
X-10787D01*
X-11587Y125613D01*
X-21587Y128287D02*
X-22387Y129887D01*
X-20787D01*
X-21587Y128287D01*
X13894Y95657D02*
X13094Y97257D01*
X14694D01*
X13894Y95657D01*
X3413Y99594D02*
X2613Y101194D01*
X4213D01*
X3413Y99594D01*
X-6587D02*
X-7387Y101194D01*
X-5787D01*
X-6587Y99594D01*
X-16587D02*
X-17387Y101194D01*
X-15787D01*
X-16587Y99594D01*
X-26587D02*
X-27387Y101194D01*
X-25787D01*
X-26587Y99594D01*
X913Y90460D02*
X113Y92060D01*
X1713D01*
X913Y90460D01*
X-9087D02*
X-9887Y92060D01*
X-8287D01*
X-9087Y90460D01*
X-19087D02*
X-19887Y92060D01*
X-18287D01*
X-19087Y90460D01*
X-29087D02*
X-29887Y92060D01*
X-28287D01*
X-29087Y90460D01*
M02*
