G04*
G04 #@! TF.GenerationSoftware,Altium Limited,Altium Designer,22.1.2 (22)*
G04*
G04 Layer_Color=255*
%FSLAX25Y25*%
%MOIN*%
G70*
G04*
G04 #@! TF.SameCoordinates,889227B3-B2BC-4796-8B66-3F322000AF8E*
G04*
G04*
G04 #@! TF.FilePolarity,Positive*
G04*
G01*
G75*
%ADD15R,0.05906X0.03937*%
%ADD16R,0.01850X0.02047*%
%ADD26R,0.02362X0.09055*%
%ADD28C,0.05315*%
%ADD29R,0.05315X0.05315*%
%ADD30R,0.20866X0.20866*%
D15*
X-20866Y37165D02*
D03*
Y67165D02*
D03*
X20866D02*
D03*
Y47165D02*
D03*
Y37165D02*
D03*
D16*
X22362Y59894D02*
D03*
X18976D02*
D03*
X-19173Y59055D02*
D03*
X-22559D02*
D03*
X22362Y55957D02*
D03*
X18976D02*
D03*
X-19173Y55118D02*
D03*
X-22559D02*
D03*
D26*
X-46457Y5512D02*
D03*
X-43307D02*
D03*
X-40157D02*
D03*
X-37008D02*
D03*
X-33858D02*
D03*
X-30709D02*
D03*
X-27559D02*
D03*
X-24409D02*
D03*
X-8661D02*
D03*
X-5512D02*
D03*
X-2362D02*
D03*
X787D02*
D03*
X3937D02*
D03*
X7087D02*
D03*
X10236D02*
D03*
X13386D02*
D03*
X16535D02*
D03*
X19685D02*
D03*
X22835D02*
D03*
X25984D02*
D03*
X29134D02*
D03*
X32283D02*
D03*
X35433D02*
D03*
X38583D02*
D03*
X41732D02*
D03*
X44882D02*
D03*
D28*
X-29528Y166339D02*
D03*
X-19685D02*
D03*
X-9843D02*
D03*
X0D02*
D03*
X9843D02*
D03*
X19685D02*
D03*
D29*
X29528D02*
D03*
D30*
X-47638Y189173D02*
D03*
X47638D02*
D03*
M02*
