G04*
G04 #@! TF.GenerationSoftware,Altium Limited,Altium Designer,22.1.2 (22)*
G04*
G04 Layer_Physical_Order=2*
G04 Layer_Color=36540*
%FSLAX25Y25*%
%MOIN*%
G70*
G04*
G04 #@! TF.SameCoordinates,D9C7AC14-A0B2-4E4F-895A-178DC6869FF5*
G04*
G04*
G04 #@! TF.FilePolarity,Positive*
G04*
G01*
G75*
%ADD37C,0.01968*%
%ADD38C,0.01181*%
%ADD41C,0.05315*%
%ADD42C,0.01968*%
G36*
X35500Y49000D02*
X20504D01*
Y93000D01*
X20427Y93384D01*
X20210Y93710D01*
X16753Y97166D01*
X16427Y97384D01*
X16043Y97460D01*
X14839D01*
X14674Y97625D01*
X14168Y97835D01*
X13620D01*
X13113Y97625D01*
X12948Y97460D01*
X-18543D01*
X-18927Y97384D01*
X-19253Y97166D01*
X-24156Y92263D01*
X-28141D01*
X-28306Y92428D01*
X-28813Y92638D01*
X-29361D01*
X-29867Y92428D01*
X-30255Y92040D01*
X-30465Y91534D01*
Y90986D01*
X-30255Y90479D01*
X-29867Y90092D01*
X-29361Y89882D01*
X-28813D01*
X-28306Y90092D01*
X-28141Y90256D01*
X-23740D01*
X-23356Y90333D01*
X-23031Y90550D01*
X-18128Y95453D01*
X12948D01*
X13113Y95288D01*
X13620Y95079D01*
X14168D01*
X14674Y95288D01*
X14839Y95453D01*
X15628D01*
X18496Y92584D01*
Y88349D01*
X18034Y88158D01*
X14223Y91969D01*
X13897Y92187D01*
X13513Y92263D01*
X1859D01*
X1694Y92428D01*
X1187Y92638D01*
X639D01*
X133Y92428D01*
X-255Y92040D01*
X-465Y91534D01*
Y90986D01*
X-449Y90949D01*
X-735Y90365D01*
X-824Y90341D01*
X-959Y90378D01*
X-2550Y91969D01*
X-2876Y92187D01*
X-3260Y92263D01*
X-8141D01*
X-8306Y92428D01*
X-8812Y92638D01*
X-9361D01*
X-9867Y92428D01*
X-10255Y92040D01*
X-10465Y91534D01*
Y90986D01*
X-10255Y90479D01*
X-9867Y90092D01*
X-9361Y89882D01*
X-8812D01*
X-8306Y90092D01*
X-8141Y90256D01*
X-3675D01*
X-2385Y88965D01*
X-2576Y88503D01*
X-9084D01*
X-12550Y91969D01*
X-12876Y92187D01*
X-13260Y92263D01*
X-18141D01*
X-18306Y92428D01*
X-18812Y92638D01*
X-19361D01*
X-19867Y92428D01*
X-20255Y92040D01*
X-20465Y91534D01*
Y90986D01*
X-20255Y90479D01*
X-19867Y90092D01*
X-19361Y89882D01*
X-18812D01*
X-18306Y90092D01*
X-18141Y90256D01*
X-13676D01*
X-10210Y86790D01*
X-9884Y86573D01*
X-9500Y86497D01*
X12403D01*
X13772Y85127D01*
Y49000D01*
X9397D01*
X9371Y49038D01*
X9318Y49166D01*
X9220Y49264D01*
X9143Y49379D01*
X9028Y49456D01*
X8930Y49554D01*
X8802Y49607D01*
X8687Y49684D01*
X8551Y49711D01*
X8424Y49764D01*
X8285D01*
X8150Y49791D01*
X-31622D01*
X-32160Y49684D01*
X-32616Y49379D01*
X-32995Y49000D01*
X-35603D01*
Y95410D01*
X-32024Y98989D01*
X3413D01*
X3549Y99016D01*
X3687D01*
X3815Y99069D01*
X3951Y99096D01*
X4066Y99173D01*
X4194Y99225D01*
X4292Y99323D01*
X4407Y99400D01*
X4484Y99515D01*
X4582Y99613D01*
X4634Y99741D01*
X4711Y99856D01*
X4738Y99992D01*
X4791Y100120D01*
Y100258D01*
X4818Y100394D01*
X35500D01*
Y49000D01*
D02*
G37*
%LPC*%
G36*
X26062Y72693D02*
X25749D01*
X25460Y72573D01*
X25238Y72351D01*
X25118Y72062D01*
Y71749D01*
X25238Y71460D01*
X25460Y71238D01*
X25749Y71118D01*
X26062D01*
X26351Y71238D01*
X26573Y71460D01*
X26693Y71749D01*
Y72062D01*
X26573Y72351D01*
X26351Y72573D01*
X26062Y72693D01*
D02*
G37*
G36*
X-33623Y59764D02*
X-33936D01*
X-34225Y59644D01*
X-34447Y59422D01*
X-34567Y59133D01*
Y58820D01*
X-34447Y58530D01*
X-34225Y58309D01*
X-33936Y58189D01*
X-33623D01*
X-33334Y58309D01*
X-33112Y58530D01*
X-32992Y58820D01*
Y59133D01*
X-33112Y59422D01*
X-33334Y59644D01*
X-33623Y59764D01*
D02*
G37*
G36*
X23838Y54756D02*
X23525D01*
X23235Y54636D01*
X23014Y54414D01*
X22894Y54125D01*
Y53812D01*
X23014Y53522D01*
X23235Y53301D01*
X23525Y53181D01*
X23838D01*
X24127Y53301D01*
X24349Y53522D01*
X24468Y53812D01*
Y54125D01*
X24349Y54414D01*
X24127Y54636D01*
X23838Y54756D01*
D02*
G37*
G36*
X28838Y54724D02*
X28525D01*
X28235Y54605D01*
X28014Y54383D01*
X27894Y54094D01*
Y53780D01*
X28014Y53491D01*
X28235Y53269D01*
X28525Y53150D01*
X28838D01*
X29127Y53269D01*
X29349Y53491D01*
X29469Y53780D01*
Y54094D01*
X29349Y54383D01*
X29127Y54605D01*
X28838Y54724D01*
D02*
G37*
%LPD*%
D37*
X0Y129500D02*
Y166339D01*
X-1587Y127913D02*
X0Y129500D01*
X-3087Y126413D02*
X-1587Y127913D01*
X-11587Y126413D02*
X-3087D01*
X-15413D02*
X-11587D01*
X-18087Y129087D02*
X-15413Y126413D01*
X-21587Y129087D02*
X-18087D01*
X-37008Y43000D02*
Y95992D01*
Y12910D02*
Y43000D01*
X-31622Y48386D01*
X8150D01*
X-6587Y100394D02*
X3413D01*
X-16587D02*
X-6587D01*
X-26587D02*
X-16587D01*
X-32606D02*
X-26587D01*
X-37008Y95992D02*
X-32606Y100394D01*
D38*
X-18543Y96457D02*
X16043D01*
X19500Y24000D02*
Y93000D01*
X16043Y96457D02*
X19500Y93000D01*
X13471Y89075D02*
X16350Y86195D01*
X14776Y26503D02*
Y85543D01*
X5512Y17239D02*
X14776Y26503D01*
X17925Y24925D02*
Y86848D01*
X11811Y18811D02*
X17925Y24925D01*
X16350Y25850D02*
Y86195D01*
X13513Y91260D02*
X17925Y86848D01*
X14961Y19461D02*
X19500Y24000D01*
X12819Y87500D02*
X14776Y85543D01*
X8661Y18161D02*
X16350Y25850D01*
X-9087Y91260D02*
X-3260D01*
X-1075Y89075D02*
X13471D01*
X-3260Y91260D02*
X-1075Y89075D01*
X-19087Y91260D02*
X-13260D01*
X-9500Y87500D01*
X12819D01*
X-29087Y91260D02*
X-23740D01*
X-18543Y96457D01*
X913Y91260D02*
X13513D01*
X5512Y12910D02*
Y17239D01*
X8661Y12910D02*
Y18161D01*
X11811Y12910D02*
Y18811D01*
X14961Y12910D02*
Y19461D01*
D41*
X0Y166339D02*
D03*
D42*
X-1587Y127913D02*
D03*
X-11587Y126413D02*
D03*
X-21587Y129087D02*
D03*
X23500Y67500D02*
D03*
X34000Y53500D02*
D03*
Y67500D02*
D03*
X500Y53500D02*
D03*
Y67500D02*
D03*
X-13500Y53500D02*
D03*
Y67500D02*
D03*
X-23500Y53500D02*
D03*
X-21339Y67500D02*
D03*
X8150Y48386D02*
D03*
X14961Y12910D02*
D03*
X11811D02*
D03*
X8661D02*
D03*
X5512D02*
D03*
X-37008D02*
D03*
X13894Y96457D02*
D03*
X3413Y100394D02*
D03*
X-6587D02*
D03*
X-16587D02*
D03*
X-26587D02*
D03*
X913Y91260D02*
D03*
X-9087D02*
D03*
X-19087D02*
D03*
X-29087D02*
D03*
M02*
