G04*
G04 #@! TF.GenerationSoftware,Altium Limited,Altium Designer,22.1.2 (22)*
G04*
G04 Layer_Color=2752767*
%FSLAX25Y25*%
%MOIN*%
G70*
G04*
G04 #@! TF.SameCoordinates,DC6CBC75-D83B-4164-BAAA-666503FEC379*
G04*
G04*
G04 #@! TF.FilePolarity,Positive*
G04*
G01*
G75*
%ADD56C,0.00200*%
%ADD57C,0.00267*%
D56*
X43885Y152743D02*
Y154343D01*
X45485D01*
Y152743D01*
X43885D01*
X34043D02*
Y154343D01*
X35642D01*
Y152743D01*
X34043D01*
X24200D02*
Y154343D01*
X25800D01*
Y152743D01*
X24200D01*
X14357D02*
Y154343D01*
X15958D01*
Y152743D01*
X14357D01*
X4515D02*
Y154343D01*
X6115D01*
Y152743D01*
X4515D01*
X-5328D02*
Y154343D01*
X-3728D01*
Y152743D01*
X-5328D01*
X-15170D02*
Y154343D01*
X-13570D01*
Y152743D01*
X-15170D01*
X42992Y122743D02*
X42192Y124343D01*
X43792D01*
X42992Y122743D01*
X33150D02*
X32350Y124343D01*
X33950D01*
X33150Y122743D01*
X3622Y122743D02*
X2822Y124343D01*
X4422D01*
X3622Y122743D01*
X-6221D02*
X-7021Y124343D01*
X-5421D01*
X-6221Y122743D01*
X39787Y127153D02*
X38987Y128753D01*
X40587D01*
X39787Y127153D01*
X9843Y126956D02*
X9042Y128556D01*
X10643D01*
X9843Y126956D01*
X-19685Y127153D02*
X-20485Y128753D01*
X-18885D01*
X-19685Y127153D01*
X-20276Y-800D02*
X-21076Y800D01*
X-19476D01*
X-20276Y-800D01*
X65744Y32822D02*
X64944Y34422D01*
X66544D01*
X65744Y32822D01*
Y21011D02*
X64944Y22611D01*
X66544D01*
X65744Y21011D01*
Y9200D02*
X64944Y10800D01*
X66544D01*
X65744Y9200D01*
X53933Y32822D02*
X53133Y34422D01*
X54733D01*
X53933Y32822D01*
Y21011D02*
X53133Y22611D01*
X54733D01*
X53933Y21011D01*
X42122Y32822D02*
X41322Y34422D01*
X42922D01*
X42122Y32822D01*
X30311Y9200D02*
X29511Y10800D01*
X31111D01*
X30311Y9200D01*
X18500Y32822D02*
X17700Y34422D01*
X19300D01*
X18500Y32822D01*
Y9200D02*
X17700Y10800D01*
X19300D01*
X18500Y9200D01*
X6689Y32822D02*
X5889Y34422D01*
X7489D01*
X6689Y32822D01*
Y9200D02*
X5889Y10800D01*
X7489D01*
X6689Y9200D01*
X-5122Y32822D02*
X-5922Y34422D01*
X-4322D01*
X-5122Y32822D01*
Y9200D02*
X-5922Y10800D01*
X-4322D01*
X-5122Y9200D01*
X-29472Y32822D02*
X-30272Y34422D01*
X-28672D01*
X-29472Y32822D01*
Y21011D02*
X-30272Y22611D01*
X-28672D01*
X-29472Y21011D01*
Y9200D02*
X-30272Y10800D01*
X-28672D01*
X-29472Y9200D01*
X-40555Y32822D02*
X-41355Y34422D01*
X-39755D01*
X-40555Y32822D01*
Y21011D02*
X-41355Y22611D01*
X-39755D01*
X-40555Y21011D01*
Y9200D02*
X-41355Y10800D01*
X-39755D01*
X-40555Y9200D01*
X46122Y51956D02*
X45322Y53556D01*
X46922D01*
X46122Y51956D01*
X-16429Y72035D02*
X-17229Y73635D01*
X-15629D01*
X-16429Y72035D01*
X-15807Y27743D02*
X-16607Y29343D01*
X-15007D01*
X-15807Y27743D01*
X-11429Y89751D02*
X-12229Y91351D01*
X-10629D01*
X-11429Y89751D01*
X31728Y79121D02*
X30928Y80721D01*
X32528D01*
X31728Y79121D01*
X49213D02*
X48413Y80721D01*
X50013D01*
X49213Y79121D01*
X25500Y46700D02*
X24700Y48300D01*
X26300D01*
X25500Y46700D01*
X-23622Y49633D02*
X-24422Y51233D01*
X-22822D01*
X-23622Y49633D01*
X20669Y-800D02*
X19869Y800D01*
X21469D01*
X20669Y-800D01*
X36417D02*
X35617Y800D01*
X37217D01*
X36417Y-800D01*
X42717D02*
X41916Y800D01*
X43516D01*
X42717Y-800D01*
X39567D02*
X38767Y800D01*
X40367D01*
X39567Y-800D01*
X-19685Y89751D02*
X-20485Y91351D01*
X-18885D01*
X-19685Y89751D01*
X-11429Y72035D02*
X-12229Y73635D01*
X-10629D01*
X-11429Y72035D01*
X46378Y86326D02*
X45578Y87926D01*
X47178D01*
X46378Y86326D01*
X26047Y69476D02*
X25247Y71076D01*
X26847D01*
X26047Y69476D01*
X33268Y-800D02*
X32468Y800D01*
X34068D01*
X33268Y-800D01*
X30118D02*
X29318Y800D01*
X30918D01*
X30118Y-800D01*
X26969D02*
X26169Y800D01*
X27768D01*
X26969Y-800D01*
X23819D02*
X23019Y800D01*
X24619D01*
X23819Y-800D01*
X46122Y21641D02*
X45322Y23241D01*
X46922D01*
X46122Y21641D01*
X-18504Y104515D02*
X-19304Y106115D01*
X-17704D01*
X-18504Y104515D01*
Y112389D02*
X-19304Y113989D01*
X-17704D01*
X-18504Y112389D01*
D57*
X63595Y176378D02*
G03*
X63595Y176378I-800J0D01*
G01*
X-31680D02*
G03*
X-31680Y176378I-800J0D01*
G01*
M02*
