G04*
G04 #@! TF.GenerationSoftware,Altium Limited,Altium Designer,22.1.2 (22)*
G04*
G04 Layer_Physical_Order=3*
G04 Layer_Color=16440176*
%FSLAX25Y25*%
%MOIN*%
G70*
G04*
G04 #@! TF.SameCoordinates,DC6CBC75-D83B-4164-BAAA-666503FEC379*
G04*
G04*
G04 #@! TF.FilePolarity,Positive*
G04*
G01*
G75*
%ADD11C,0.00787*%
%ADD34C,0.01181*%
%ADD38C,0.05315*%
%ADD40C,0.01968*%
%ADD41C,0.03937*%
G36*
X54500Y43307D02*
X-24500D01*
Y118110D01*
X54500D01*
Y43307D01*
D02*
G37*
G36*
X55000Y122000D02*
X-24500D01*
Y138000D01*
X55000D01*
Y122000D01*
D02*
G37*
%LPC*%
G36*
X40432Y106693D02*
X39884D01*
X39378Y106483D01*
X39012Y106117D01*
X35815D01*
X35815Y106117D01*
X35507Y106056D01*
X35247Y105882D01*
X35247Y105882D01*
X31432Y102068D01*
X31258Y101807D01*
X31197Y101500D01*
Y88332D01*
X20751Y77887D01*
X20577Y77626D01*
X20516Y77319D01*
Y64151D01*
X15947Y59582D01*
X10339D01*
X9973Y59948D01*
X9467Y60158D01*
X8919D01*
X8412Y59948D01*
X8025Y59560D01*
X7815Y59054D01*
Y58505D01*
X8025Y57999D01*
X8412Y57611D01*
X8919Y57402D01*
X9467D01*
X9973Y57611D01*
X10339Y57977D01*
X16280D01*
X16587Y58038D01*
X16847Y58212D01*
X17315Y58680D01*
X17815Y58505D01*
X18025Y57999D01*
X18412Y57611D01*
X18919Y57402D01*
X19467D01*
X19974Y57611D01*
X20361Y57999D01*
X20571Y58505D01*
Y59022D01*
X23068Y61519D01*
X23242Y61779D01*
X23303Y62087D01*
X23303Y62087D01*
Y75514D01*
X25741Y77952D01*
X26258D01*
X26764Y78162D01*
X27152Y78549D01*
X27362Y79056D01*
Y79604D01*
X27152Y80111D01*
X26764Y80498D01*
X26465Y80622D01*
X26305Y81170D01*
X32568Y87432D01*
X32568Y87432D01*
X32742Y87693D01*
X32803Y88000D01*
X32803Y88000D01*
Y101167D01*
X36147Y104512D01*
X39012D01*
X39378Y104147D01*
X39884Y103937D01*
X40432D01*
X40939Y104147D01*
X41326Y104534D01*
X41536Y105041D01*
Y105589D01*
X41326Y106095D01*
X40939Y106483D01*
X40432Y106693D01*
D02*
G37*
G36*
X-6000Y113303D02*
X-11500D01*
X-11807Y113242D01*
X-12068Y113068D01*
X-12068Y113068D01*
X-14568Y110568D01*
X-14742Y110307D01*
X-14803Y110000D01*
Y91500D01*
X-14742Y91193D01*
X-14568Y90932D01*
X-13619Y89983D01*
X-13619Y89983D01*
X-13358Y89810D01*
X-13051Y89748D01*
X-12575D01*
X-12210Y89383D01*
X-11703Y89173D01*
X-11155D01*
X-10649Y89383D01*
X-10261Y89771D01*
X-10051Y90277D01*
Y90825D01*
X-10261Y91332D01*
X-10649Y91719D01*
X-11155Y91929D01*
X-11703D01*
X-12210Y91719D01*
X-12323Y91606D01*
X-12971D01*
X-13197Y91833D01*
Y109668D01*
X-11168Y111697D01*
X-6333D01*
X-1351Y106716D01*
X-1351Y106716D01*
X-1090Y106541D01*
X-783Y106480D01*
X626D01*
X991Y106115D01*
X1498Y105905D01*
X2046D01*
X2552Y106115D01*
X2940Y106503D01*
X3150Y107009D01*
Y107557D01*
X2940Y108064D01*
X2552Y108451D01*
X2046Y108661D01*
X1498D01*
X991Y108451D01*
X626Y108086D01*
X-451D01*
X-5432Y113068D01*
X-5693Y113242D01*
X-6000Y113303D01*
D02*
G37*
G36*
X-9568Y106693D02*
X-10117D01*
X-10623Y106483D01*
X-11011Y106096D01*
X-11220Y105589D01*
Y105041D01*
X-11011Y104534D01*
X-10623Y104147D01*
X-10117Y103937D01*
X-9600D01*
X-5803Y100140D01*
Y99180D01*
X-6303Y98973D01*
X-8465Y101135D01*
Y101652D01*
X-8674Y102158D01*
X-9062Y102546D01*
X-9568Y102756D01*
X-10117D01*
X-10623Y102546D01*
X-11011Y102158D01*
X-11220Y101652D01*
Y101103D01*
X-11011Y100597D01*
X-10623Y100209D01*
X-10117Y100000D01*
X-9600D01*
X-7303Y97703D01*
Y61333D01*
X-9053Y59582D01*
X-9661D01*
X-10026Y59948D01*
X-10533Y60158D01*
X-11081D01*
X-11588Y59948D01*
X-11975Y59560D01*
X-12185Y59054D01*
Y58505D01*
X-11975Y57999D01*
X-11588Y57611D01*
X-11081Y57402D01*
X-10533D01*
X-10026Y57611D01*
X-9661Y57977D01*
X-8721D01*
X-8413Y58038D01*
X-8153Y58212D01*
X-6074Y60290D01*
X-5750Y60381D01*
X-5426Y60290D01*
X-3347Y58212D01*
X-3087Y58038D01*
X-2780Y57977D01*
X-2780Y57977D01*
X-1953D01*
X-1588Y57611D01*
X-1081Y57402D01*
X-533D01*
X-27Y57611D01*
X361Y57999D01*
X469Y58259D01*
X969Y58160D01*
Y53864D01*
X1030Y53557D01*
X1204Y53296D01*
X4068Y50432D01*
X4068Y50432D01*
X4328Y50258D01*
X4635Y50197D01*
X4635Y50197D01*
X35000D01*
X35307Y50258D01*
X35568Y50432D01*
X36690Y51554D01*
X36864Y51815D01*
X36925Y52122D01*
X36925Y52122D01*
Y54248D01*
X37290Y54613D01*
X37500Y55120D01*
Y55668D01*
X37290Y56174D01*
X37070Y56394D01*
X37277Y56894D01*
X38486D01*
X39744Y55636D01*
Y55120D01*
X39954Y54613D01*
X40341Y54225D01*
X40848Y54016D01*
X41396D01*
X41903Y54225D01*
X42290Y54613D01*
X42500Y55120D01*
Y55668D01*
X42290Y56174D01*
X41903Y56562D01*
X41396Y56772D01*
X40879D01*
X39386Y58265D01*
X39126Y58439D01*
X38819Y58500D01*
X34833D01*
X34833Y58500D01*
X34525Y58439D01*
X34265Y58265D01*
X34265Y58265D01*
X32932Y56932D01*
X32758Y56672D01*
X32697Y56365D01*
Y53514D01*
X32168Y52984D01*
X5457D01*
X3756Y54685D01*
Y80620D01*
X8835Y85700D01*
X8835Y85700D01*
X9009Y85961D01*
X9071Y86268D01*
Y87830D01*
X9436Y88196D01*
X9646Y88702D01*
Y89250D01*
X9436Y89757D01*
X9048Y90144D01*
X8542Y90354D01*
X7994D01*
X7487Y90144D01*
X7100Y89757D01*
X6890Y89250D01*
Y88702D01*
X7100Y88196D01*
X7465Y87830D01*
Y86600D01*
X3036Y82172D01*
X2575Y82363D01*
Y94326D01*
X2940Y94692D01*
X3150Y95198D01*
Y95746D01*
X2940Y96253D01*
X2552Y96640D01*
X2046Y96850D01*
X1498D01*
X991Y96640D01*
X604Y96253D01*
X394Y95746D01*
Y95198D01*
X604Y94692D01*
X969Y94326D01*
Y59399D01*
X469Y59300D01*
X361Y59560D01*
X-27Y59948D01*
X-533Y60158D01*
X-1081D01*
X-1588Y59948D01*
X-1953Y59582D01*
X-2447D01*
X-4197Y61333D01*
Y100472D01*
X-4197Y100472D01*
X-4258Y100780D01*
X-4432Y101040D01*
X-4432Y101040D01*
X-8465Y105072D01*
Y105589D01*
X-8674Y106096D01*
X-9062Y106483D01*
X-9568Y106693D01*
D02*
G37*
G36*
X-18230Y114567D02*
X-18778D01*
X-19285Y114357D01*
X-19672Y113970D01*
X-19882Y113463D01*
Y112946D01*
X-21568Y111261D01*
X-21742Y111000D01*
X-21803Y110693D01*
Y107811D01*
X-21742Y107504D01*
X-21568Y107243D01*
X-19882Y105558D01*
Y105041D01*
X-19672Y104534D01*
X-19285Y104147D01*
X-18778Y103937D01*
X-18316D01*
X-17803Y103424D01*
Y87521D01*
X-18316Y87008D01*
X-18778D01*
X-19285Y86798D01*
X-19672Y86410D01*
X-19882Y85904D01*
Y85356D01*
X-19871Y85329D01*
X-20568Y84631D01*
X-20742Y84371D01*
X-20803Y84064D01*
Y76406D01*
X-20742Y76098D01*
X-20568Y75838D01*
X-17807Y73077D01*
Y72561D01*
X-17597Y72054D01*
X-17210Y71667D01*
X-16703Y71457D01*
X-16155D01*
X-15649Y71667D01*
X-15261Y72054D01*
X-15051Y72561D01*
Y73109D01*
X-15261Y73615D01*
X-15649Y74003D01*
X-16155Y74213D01*
X-16672D01*
X-19197Y76738D01*
Y83731D01*
X-18676Y84252D01*
X-18230D01*
X-17723Y84462D01*
X-17336Y84849D01*
X-17126Y85356D01*
Y85904D01*
X-17133Y85920D01*
X-16432Y86621D01*
X-16258Y86881D01*
X-16197Y87188D01*
X-16197Y87188D01*
Y103757D01*
X-16197Y103757D01*
X-16258Y104064D01*
X-16432Y104324D01*
X-17133Y105025D01*
X-17126Y105041D01*
Y105589D01*
X-17336Y106096D01*
X-17723Y106483D01*
X-18230Y106693D01*
X-18746D01*
X-20197Y108144D01*
Y110360D01*
X-18746Y111811D01*
X-18230D01*
X-17723Y112021D01*
X-17336Y112408D01*
X-17126Y112915D01*
Y113463D01*
X-17336Y113970D01*
X-17723Y114357D01*
X-18230Y114567D01*
D02*
G37*
G36*
X46652Y88504D02*
X46104D01*
X45597Y88294D01*
X45232Y87929D01*
X36126D01*
X35819Y87868D01*
X35558Y87694D01*
X31161Y83296D01*
X30987Y83036D01*
X30926Y82728D01*
Y81067D01*
X30560Y80702D01*
X30350Y80195D01*
Y79647D01*
X30560Y79141D01*
X30926Y78775D01*
Y74061D01*
X27943Y71078D01*
X27193D01*
X26828Y71444D01*
X26321Y71653D01*
X25773D01*
X25267Y71444D01*
X24879Y71056D01*
X24669Y70550D01*
Y70002D01*
X24879Y69495D01*
X25267Y69107D01*
X25773Y68898D01*
X26321D01*
X26828Y69107D01*
X27193Y69473D01*
X28276D01*
X28583Y69534D01*
X28843Y69708D01*
X32296Y73161D01*
X32470Y73421D01*
X32531Y73728D01*
Y78775D01*
X32897Y79141D01*
X33106Y79647D01*
Y80195D01*
X32897Y80702D01*
X32531Y81067D01*
Y82396D01*
X36459Y86323D01*
X45232D01*
X45447Y86108D01*
Y53968D01*
X45342Y53924D01*
X44954Y53536D01*
X44744Y53030D01*
Y52482D01*
X44954Y51975D01*
X45342Y51588D01*
X45848Y51378D01*
X46396D01*
X46903Y51588D01*
X47290Y51975D01*
X47500Y52482D01*
Y53030D01*
X47290Y53536D01*
X47053Y53774D01*
Y85914D01*
X47159Y85958D01*
X47546Y86345D01*
X47756Y86852D01*
Y87400D01*
X47546Y87906D01*
X47159Y88294D01*
X46652Y88504D01*
D02*
G37*
%LPD*%
D11*
X33500Y56365D02*
X34833Y57697D01*
X38819D02*
X41122Y55394D01*
X34833Y57697D02*
X38819D01*
X33500Y53181D02*
Y56365D01*
X32500Y52181D02*
X33500Y53181D01*
X5125Y52181D02*
X32500D01*
X2953Y54353D02*
X5125Y52181D01*
X-2780Y58780D02*
X-807D01*
X-5000Y61000D02*
X-2780Y58780D01*
X1772Y53864D02*
Y95472D01*
X-5000Y61000D02*
Y100472D01*
X2953Y54353D02*
Y80953D01*
X8268Y86268D01*
Y88976D01*
X1772Y53864D02*
X4635Y51000D01*
X35000D01*
X36122Y52122D02*
Y55394D01*
X35000Y51000D02*
X36122Y52122D01*
X31728Y79921D02*
Y82728D01*
X36126Y87126D02*
X46378D01*
X31728Y82728D02*
X36126Y87126D01*
X-13051Y90551D02*
X-11429D01*
X-14000Y91500D02*
Y110000D01*
Y91500D02*
X-13051Y90551D01*
X-14000Y110000D02*
X-11500Y112500D01*
X-6000D01*
X-783Y107283D01*
X1772D01*
X33268Y0D02*
Y3232D01*
X-6500Y61000D02*
Y98035D01*
X-8721Y58780D02*
X-6500Y61000D01*
X-10807Y58780D02*
X-8721D01*
X-9843Y105315D02*
X-5000Y100472D01*
X-9843Y101378D02*
X-6500Y98035D01*
X32000Y88000D02*
Y101500D01*
X21319Y63819D02*
Y77319D01*
X32000Y88000D01*
X22500Y75846D02*
X25984Y79330D01*
X22500Y62087D02*
Y75846D01*
X9193Y58780D02*
X16280D01*
X21319Y63819D01*
X19193Y58780D02*
X19193D01*
X22500Y62087D01*
X35815Y105315D02*
X40158D01*
X32000Y101500D02*
X35815Y105315D01*
X39000Y25500D02*
X41122Y23378D01*
X-13500Y25500D02*
X39000D01*
X-15819Y21511D02*
X-13011Y24319D01*
X33681D02*
X36122Y21878D01*
X-13011Y24319D02*
X33681D01*
X-17000Y22000D02*
X-13500Y25500D01*
X36122Y19409D02*
Y21878D01*
X-17000Y8500D02*
Y22000D01*
X-15819Y8989D02*
Y21511D01*
Y8989D02*
X-13511Y6681D01*
X-17000Y8500D02*
X-14000Y5500D01*
X11830D01*
X-13511Y6681D02*
X12319D01*
X12000Y-2500D02*
X15500D01*
X11220Y-1720D02*
Y0D01*
Y-1720D02*
X12000Y-2500D01*
X15500D02*
X16500Y-1500D01*
Y2500D01*
X11830Y5500D02*
X14370Y2960D01*
Y0D02*
Y2960D01*
X12319Y6681D02*
X16500Y2500D01*
X41122Y19409D02*
Y23378D01*
X46122Y52756D02*
X46250Y52884D01*
Y86998D02*
X46378Y87126D01*
X46250Y52884D02*
Y86998D01*
X-20000Y76406D02*
X-16429Y72835D01*
X-20000Y84064D02*
X-18504Y85560D01*
Y85630D01*
X-20000Y76406D02*
Y84064D01*
X31728Y73728D02*
Y79921D01*
X28276Y70276D02*
X31728Y73728D01*
X26047Y70276D02*
X28276D01*
X-18504Y85630D02*
Y85684D01*
X-17000Y87188D01*
Y103757D01*
X-18504Y105261D02*
Y105315D01*
Y105261D02*
X-17000Y103757D01*
X-21000Y107811D02*
X-18504Y105315D01*
X-21000Y110693D02*
X-18504Y113189D01*
X-21000Y107811D02*
Y110693D01*
X19193Y17307D02*
Y21457D01*
X10138Y16362D02*
X18467D01*
X17489Y14000D02*
X23819Y7670D01*
X1319Y15181D02*
X17978D01*
X19193Y17307D02*
X33268Y3232D01*
X30118Y0D02*
Y4712D01*
X18467Y16362D02*
X30118Y4712D01*
X23819Y0D02*
Y7670D01*
X26969Y0D02*
Y6191D01*
X-7500Y14000D02*
X17489D01*
X17978Y15181D02*
X26969Y6191D01*
X-10807Y17307D02*
X-7500Y14000D01*
X9193Y17307D02*
X10138Y16362D01*
X-807Y17307D02*
X1319Y15181D01*
X9193Y17307D02*
Y21457D01*
X-10807Y17307D02*
Y21457D01*
X-807Y17307D02*
Y21457D01*
D34*
X4193Y28543D02*
X14193D01*
X46122Y22441D02*
Y24878D01*
X42457Y28543D02*
X46122Y24878D01*
X14193Y28543D02*
X42457D01*
X-20276Y0D02*
Y24075D01*
X-15807Y28543D01*
X-5807D02*
X4193D01*
X-15807D02*
X-5807D01*
D38*
X15157Y153543D02*
D03*
D40*
X42992Y123543D02*
D03*
X33150D02*
D03*
X3622Y123543D02*
D03*
X-6221D02*
D03*
X39787Y127953D02*
D03*
X9843Y127756D02*
D03*
X-19685Y127953D02*
D03*
X-20276Y0D02*
D03*
X46122Y52756D02*
D03*
X-16429Y72835D02*
D03*
X-15807Y28543D02*
D03*
X-11429Y90551D02*
D03*
X31728Y79921D02*
D03*
X49213D02*
D03*
X25500Y47500D02*
D03*
X-23622Y50433D02*
D03*
X14370Y0D02*
D03*
X-807Y58780D02*
D03*
X8268Y88976D02*
D03*
X-19685Y90551D02*
D03*
X-11429Y72835D02*
D03*
X41122Y58780D02*
D03*
X19193Y58780D02*
D03*
X14193Y28543D02*
D03*
X46378Y87126D02*
D03*
X26047Y70276D02*
D03*
X11220Y0D02*
D03*
X33268D02*
D03*
X30118D02*
D03*
X26969D02*
D03*
X23819D02*
D03*
X46122Y22441D02*
D03*
X41122Y19409D02*
D03*
X36122D02*
D03*
X41122Y55394D02*
D03*
X36122D02*
D03*
X31122D02*
D03*
X19193D02*
D03*
X9193Y58780D02*
D03*
Y55394D02*
D03*
X-807D02*
D03*
X-10807D02*
D03*
Y58780D02*
D03*
X-10807Y21457D02*
D03*
X-807D02*
D03*
X19193D02*
D03*
X9193D02*
D03*
X4193Y28543D02*
D03*
X-5807D02*
D03*
X-18504Y85630D02*
D03*
Y105315D02*
D03*
Y113189D02*
D03*
X12205Y88976D02*
D03*
X9055Y70276D02*
D03*
X18110Y79330D02*
D03*
X25984D02*
D03*
X-9843Y85630D02*
D03*
X-18504Y109252D02*
D03*
X1772Y95472D02*
D03*
X40158Y105315D02*
D03*
X-9843Y101378D02*
D03*
Y105315D02*
D03*
X1772Y107283D02*
D03*
X28543Y109252D02*
D03*
D41*
X15157Y135343D02*
Y153543D01*
M02*
