G04*
G04 #@! TF.GenerationSoftware,Altium Limited,Altium Designer,22.1.2 (22)*
G04*
G04 Layer_Color=16711935*
%FSLAX25Y25*%
%MOIN*%
G70*
G04*
G04 #@! TF.SameCoordinates,DC6CBC75-D83B-4164-BAAA-666503FEC379*
G04*
G04*
G04 #@! TF.FilePolarity,Negative*
G04*
G01*
G75*
%ADD21R,1.03150X0.11516*%
%ADD22R,1.18110X0.10630*%
%ADD23R,0.02126X0.01929*%
%ADD24R,0.02835X0.04016*%
%ADD25R,0.01929X0.02126*%
%ADD28R,0.02441X0.09134*%
%ADD30R,0.05915X0.05915*%
%ADD31C,0.05915*%
%ADD32R,0.20945X0.20945*%
%ADD48R,0.05591X0.02835*%
%ADD49R,0.02441X0.05197*%
%ADD50R,0.13661X0.13661*%
%ADD51R,0.01063X0.02835*%
%ADD52R,0.02835X0.01063*%
%ADD53R,0.02835X0.02441*%
G36*
X-2724Y75493D02*
X-2530D01*
Y75444D01*
X-2142D01*
Y75493D01*
X-1657D01*
Y75444D01*
X-1172D01*
Y75396D01*
X-881D01*
Y75347D01*
X-686D01*
Y75299D01*
X-638D01*
Y75250D01*
X-541D01*
Y75201D01*
X-444D01*
Y75153D01*
X-396D01*
Y75104D01*
X-347D01*
Y75056D01*
X-298D01*
Y75007D01*
X-250D01*
Y74959D01*
X-201D01*
Y74910D01*
X-153D01*
Y74862D01*
Y74813D01*
X-201D01*
Y74765D01*
Y74717D01*
X-153D01*
Y74765D01*
X-104D01*
Y74813D01*
X-56D01*
Y74765D01*
Y74717D01*
X-7D01*
Y74668D01*
Y74619D01*
X90D01*
Y74571D01*
X41D01*
Y74522D01*
X138D01*
Y74474D01*
X187D01*
Y74425D01*
Y74377D01*
Y74328D01*
X235D01*
Y74280D01*
X284D01*
Y74231D01*
Y74183D01*
X332D01*
Y74134D01*
Y74086D01*
Y74037D01*
X381D01*
Y73989D01*
Y73940D01*
X429D01*
Y73892D01*
Y73843D01*
X478D01*
Y73795D01*
Y73746D01*
X526D01*
Y73698D01*
X575D01*
Y73649D01*
Y73601D01*
X623D01*
Y73552D01*
Y73504D01*
X672D01*
Y73455D01*
X720D01*
Y73407D01*
X672D01*
Y73358D01*
X720D01*
Y73310D01*
X769D01*
Y73261D01*
Y73213D01*
Y73164D01*
X817D01*
Y73116D01*
Y73067D01*
Y73019D01*
X866D01*
Y72970D01*
Y72922D01*
Y72873D01*
Y72825D01*
Y72776D01*
X914D01*
Y72728D01*
Y72679D01*
X1545D01*
Y72631D01*
X1496D01*
Y72582D01*
X1399D01*
Y72534D01*
X1205D01*
Y72485D01*
X1496D01*
Y72437D01*
X1448D01*
Y72388D01*
X1399D01*
Y72437D01*
X1351D01*
Y72388D01*
X1302D01*
Y72339D01*
X963D01*
Y72291D01*
Y72242D01*
Y72194D01*
Y72145D01*
Y72097D01*
Y72048D01*
Y72000D01*
Y71952D01*
Y71903D01*
Y71855D01*
X914D01*
Y71806D01*
Y71757D01*
Y71709D01*
Y71660D01*
X866D01*
Y71612D01*
X817D01*
Y71563D01*
X866D01*
Y71515D01*
X817D01*
Y71466D01*
X769D01*
Y71418D01*
X720D01*
Y71369D01*
X769D01*
Y71321D01*
X720D01*
Y71272D01*
Y71224D01*
X672D01*
Y71272D01*
X623D01*
Y71224D01*
X672D01*
Y71175D01*
Y71127D01*
X623D01*
Y71078D01*
X575D01*
Y71030D01*
Y70981D01*
X526D01*
Y70933D01*
X429D01*
Y70884D01*
Y70836D01*
X332D01*
Y70787D01*
X284D01*
Y70739D01*
X187D01*
Y70690D01*
X41D01*
Y70642D01*
X-201D01*
Y70690D01*
X-347D01*
Y70739D01*
X-444D01*
Y70787D01*
X-493D01*
Y70836D01*
X-541D01*
Y70884D01*
X-589D01*
Y70933D01*
Y70981D01*
Y71030D01*
X-638D01*
Y71078D01*
Y71127D01*
X-686D01*
Y71175D01*
Y71224D01*
Y71272D01*
Y71321D01*
X-638D01*
Y71369D01*
X-589D01*
Y71418D01*
X-638D01*
Y71466D01*
X-589D01*
Y71515D01*
Y71563D01*
X-541D01*
Y71612D01*
X-493D01*
Y71660D01*
X-444D01*
Y71709D01*
X-298D01*
Y71660D01*
X-250D01*
Y71612D01*
Y71563D01*
X-298D01*
Y71515D01*
X-250D01*
Y71466D01*
Y71418D01*
X-298D01*
Y71369D01*
X-347D01*
Y71321D01*
Y71272D01*
Y71224D01*
X-298D01*
Y71175D01*
X-201D01*
Y71127D01*
X-56D01*
Y71175D01*
X41D01*
Y71224D01*
X90D01*
Y71272D01*
X138D01*
Y71321D01*
Y71369D01*
Y71418D01*
X187D01*
Y71466D01*
X235D01*
Y71515D01*
X187D01*
Y71563D01*
X235D01*
Y71612D01*
Y71660D01*
Y71709D01*
Y71757D01*
Y71806D01*
Y71855D01*
Y71903D01*
Y71952D01*
Y72000D01*
Y72048D01*
Y72097D01*
Y72145D01*
X284D01*
Y72194D01*
X235D01*
Y72242D01*
Y72291D01*
X187D01*
Y72339D01*
Y72388D01*
X138D01*
Y72437D01*
Y72485D01*
Y72534D01*
X90D01*
Y72582D01*
Y72631D01*
X41D01*
Y72679D01*
Y72728D01*
X-7D01*
Y72776D01*
X-298D01*
Y72728D01*
X-444D01*
Y72776D01*
X-493D01*
Y72825D01*
X-589D01*
Y72873D01*
X-638D01*
Y72922D01*
X-735D01*
Y72970D01*
X-1075D01*
Y72922D01*
X-1123D01*
Y72873D01*
X-1220D01*
Y72825D01*
Y72776D01*
X-1366D01*
Y72728D01*
Y72679D01*
X-1463D01*
Y72631D01*
X-1560D01*
Y72679D01*
X-1608D01*
Y72631D01*
X-1705D01*
Y72679D01*
X-1802D01*
Y72728D01*
X-1899D01*
Y72776D01*
X-1996D01*
Y72825D01*
Y72873D01*
X-2045D01*
Y72825D01*
X-2093D01*
Y72873D01*
X-2142D01*
Y72922D01*
X-2190D01*
Y72970D01*
Y73019D01*
X-2142D01*
Y73067D01*
X-2239D01*
Y73019D01*
Y72970D01*
X-2287D01*
Y73019D01*
X-2336D01*
Y73067D01*
X-2384D01*
Y73116D01*
X-2433D01*
Y73164D01*
X-2481D01*
Y73213D01*
X-2530D01*
Y73261D01*
X-2578D01*
Y73310D01*
X-2627D01*
Y73358D01*
Y73407D01*
X-2675D01*
Y73455D01*
X-2724D01*
Y73504D01*
X-2772D01*
Y73552D01*
Y73601D01*
X-2821D01*
Y73649D01*
X-2869D01*
Y73698D01*
Y73746D01*
X-2918D01*
Y73698D01*
Y73649D01*
X-2869D01*
Y73601D01*
Y73552D01*
X-2821D01*
Y73504D01*
Y73455D01*
X-2772D01*
Y73407D01*
X-2724D01*
Y73358D01*
X-2675D01*
Y73310D01*
Y73261D01*
X-2627D01*
Y73213D01*
X-2578D01*
Y73164D01*
X-2530D01*
Y73116D01*
X-2481D01*
Y73067D01*
X-2433D01*
Y73019D01*
X-2336D01*
Y72970D01*
X-2287D01*
Y72922D01*
X-2239D01*
Y72873D01*
X-2190D01*
Y72825D01*
X-2093D01*
Y72776D01*
X-2045D01*
Y72728D01*
Y72679D01*
X-1948D01*
Y72631D01*
Y72582D01*
Y72534D01*
Y72485D01*
Y72437D01*
Y72388D01*
Y72339D01*
Y72291D01*
X-1899D01*
Y72242D01*
Y72194D01*
Y72145D01*
Y72097D01*
Y72048D01*
Y72000D01*
Y71952D01*
Y71903D01*
X-1851D01*
Y71855D01*
X-1802D01*
Y71806D01*
Y71757D01*
Y71709D01*
X-1754D01*
Y71660D01*
Y71612D01*
X-1705D01*
Y71563D01*
Y71515D01*
Y71466D01*
Y71418D01*
Y71369D01*
X-1657D01*
Y71321D01*
Y71272D01*
Y71224D01*
X-1608D01*
Y71175D01*
Y71127D01*
X-1657D01*
Y71078D01*
X-1608D01*
Y71030D01*
X-1560D01*
Y70981D01*
Y70933D01*
X-1608D01*
Y70884D01*
X-1560D01*
Y70836D01*
Y70787D01*
X-1511D01*
Y70739D01*
Y70690D01*
Y70642D01*
X-1463D01*
Y70593D01*
Y70545D01*
Y70496D01*
Y70448D01*
X-1414D01*
Y70399D01*
Y70351D01*
Y70302D01*
X-1366D01*
Y70254D01*
X-1414D01*
Y70205D01*
X-1366D01*
Y70157D01*
X-1317D01*
Y70108D01*
Y70060D01*
Y70011D01*
X-1269D01*
Y69963D01*
Y69914D01*
Y69866D01*
X-1220D01*
Y69817D01*
X-1269D01*
Y69769D01*
X-1220D01*
Y69720D01*
Y69672D01*
X-1172D01*
Y69623D01*
X-1220D01*
Y69575D01*
X-1172D01*
Y69526D01*
Y69478D01*
Y69429D01*
Y69380D01*
Y69332D01*
X-1123D01*
Y69283D01*
Y69235D01*
Y69187D01*
X-1075D01*
Y69138D01*
Y69090D01*
X-1026D01*
Y69041D01*
Y68993D01*
X-978D01*
Y68944D01*
Y68896D01*
X-929D01*
Y68847D01*
X-881D01*
Y68798D01*
Y68750D01*
X-832D01*
Y68701D01*
X-783D01*
Y68653D01*
X-735D01*
Y68604D01*
Y68556D01*
X-783D01*
Y68507D01*
X-929D01*
Y68459D01*
X-1366D01*
Y68410D01*
X-1414D01*
Y68459D01*
X-1754D01*
Y68507D01*
Y68556D01*
X-1802D01*
Y68604D01*
Y68653D01*
Y68701D01*
Y68750D01*
X-1754D01*
Y68798D01*
Y68847D01*
X-1705D01*
Y68896D01*
X-1657D01*
Y68944D01*
Y68993D01*
X-1705D01*
Y69041D01*
Y69090D01*
Y69138D01*
X-1754D01*
Y69187D01*
Y69235D01*
Y69283D01*
X-1802D01*
Y69332D01*
Y69380D01*
Y69429D01*
X-1851D01*
Y69478D01*
Y69526D01*
X-1899D01*
Y69575D01*
Y69623D01*
X-1948D01*
Y69672D01*
Y69720D01*
X-1996D01*
Y69769D01*
Y69817D01*
X-2045D01*
Y69866D01*
X-2093D01*
Y69914D01*
Y69963D01*
X-2142D01*
Y70011D01*
X-2093D01*
Y70060D01*
X-2190D01*
Y70108D01*
Y70157D01*
Y70205D01*
X-2287D01*
Y70254D01*
Y70302D01*
X-2336D01*
Y70351D01*
Y70399D01*
X-2384D01*
Y70448D01*
X-2433D01*
Y70496D01*
X-2336D01*
Y70545D01*
X-2481D01*
Y70593D01*
X-2530D01*
Y70642D01*
Y70690D01*
X-2578D01*
Y70739D01*
X-2627D01*
Y70787D01*
X-2675D01*
Y70836D01*
X-2724D01*
Y70884D01*
X-2772D01*
Y70933D01*
X-2821D01*
Y70981D01*
X-2869D01*
Y71030D01*
X-2918D01*
Y71078D01*
X-2966D01*
Y71127D01*
X-3015D01*
Y71175D01*
X-3063D01*
Y71224D01*
Y71272D01*
X-3112D01*
Y71321D01*
X-3160D01*
Y71369D01*
Y71418D01*
X-3209D01*
Y71466D01*
X-3258D01*
Y71515D01*
Y71563D01*
X-3306D01*
Y71612D01*
Y71660D01*
X-3354D01*
Y71709D01*
Y71757D01*
X-3403D01*
Y71709D01*
Y71660D01*
X-3354D01*
Y71612D01*
Y71563D01*
X-3306D01*
Y71515D01*
Y71466D01*
X-3258D01*
Y71418D01*
Y71369D01*
X-3209D01*
Y71321D01*
X-3160D01*
Y71272D01*
Y71224D01*
X-3112D01*
Y71175D01*
X-3063D01*
Y71127D01*
Y71078D01*
X-3015D01*
Y71030D01*
Y70981D01*
Y70933D01*
Y70884D01*
X-3063D01*
Y70836D01*
Y70787D01*
Y70739D01*
X-3112D01*
Y70690D01*
Y70642D01*
Y70593D01*
X-3160D01*
Y70545D01*
Y70496D01*
X-3209D01*
Y70448D01*
Y70399D01*
Y70351D01*
X-3258D01*
Y70302D01*
Y70254D01*
Y70205D01*
X-3306D01*
Y70157D01*
Y70108D01*
Y70060D01*
Y70011D01*
X-3354D01*
Y69963D01*
Y69914D01*
Y69866D01*
Y69817D01*
X-3403D01*
Y69769D01*
Y69720D01*
Y69672D01*
X-3452D01*
Y69623D01*
Y69575D01*
X-3500D01*
Y69526D01*
Y69478D01*
Y69429D01*
X-3548D01*
Y69380D01*
Y69332D01*
X-3597D01*
Y69283D01*
Y69235D01*
Y69187D01*
Y69138D01*
Y69090D01*
X-3646D01*
Y69041D01*
Y68993D01*
X-3597D01*
Y68944D01*
Y68896D01*
Y68847D01*
X-3548D01*
Y68798D01*
X-3500D01*
Y68750D01*
X-3452D01*
Y68701D01*
X-3403D01*
Y68653D01*
X-3354D01*
Y68604D01*
Y68556D01*
X-3306D01*
Y68507D01*
Y68459D01*
Y68410D01*
X-3403D01*
Y68362D01*
X-4034D01*
Y68410D01*
X-4179D01*
Y68362D01*
X-4422D01*
Y68410D01*
X-4470D01*
Y68459D01*
Y68507D01*
Y68556D01*
Y68604D01*
X-4422D01*
Y68653D01*
Y68701D01*
X-4373D01*
Y68750D01*
X-4276D01*
Y68798D01*
Y68847D01*
Y68896D01*
X-4228D01*
Y68944D01*
X-4276D01*
Y68993D01*
Y69041D01*
Y69090D01*
Y69138D01*
Y69187D01*
Y69235D01*
Y69283D01*
Y69332D01*
Y69380D01*
Y69429D01*
Y69478D01*
X-4228D01*
Y69526D01*
Y69575D01*
Y69623D01*
Y69672D01*
Y69720D01*
Y69769D01*
Y69817D01*
Y69866D01*
X-4179D01*
Y69914D01*
Y69963D01*
Y70011D01*
Y70060D01*
Y70108D01*
X-4131D01*
Y70157D01*
Y70205D01*
Y70254D01*
Y70302D01*
Y70351D01*
Y70399D01*
X-4082D01*
Y70448D01*
Y70496D01*
Y70545D01*
Y70593D01*
Y70642D01*
Y70690D01*
Y70739D01*
Y70787D01*
Y70836D01*
Y70884D01*
Y70933D01*
Y70981D01*
X-4034D01*
Y71030D01*
X-4082D01*
Y71078D01*
Y71127D01*
Y71175D01*
Y71224D01*
Y71272D01*
Y71321D01*
Y71369D01*
Y71418D01*
X-4131D01*
Y71466D01*
Y71515D01*
Y71563D01*
X-4228D01*
Y71515D01*
X-4325D01*
Y71466D01*
X-4422D01*
Y71418D01*
X-4519D01*
Y71369D01*
X-4664D01*
Y71321D01*
X-4810D01*
Y71272D01*
X-5052D01*
Y71224D01*
X-5149D01*
Y71272D01*
X-5295D01*
Y71224D01*
X-5634D01*
Y71272D01*
X-5683D01*
Y71224D01*
X-5634D01*
Y71175D01*
X-5731D01*
Y71127D01*
Y71078D01*
X-5780D01*
Y71030D01*
X-5828D01*
Y70981D01*
X-5877D01*
Y70933D01*
X-5925D01*
Y70884D01*
X-5974D01*
Y70836D01*
X-6022D01*
Y70787D01*
X-6071D01*
Y70739D01*
X-6120D01*
Y70690D01*
Y70642D01*
X-6168D01*
Y70593D01*
Y70545D01*
Y70496D01*
X-6216D01*
Y70448D01*
Y70399D01*
X-6265D01*
Y70351D01*
Y70302D01*
Y70254D01*
X-6313D01*
Y70205D01*
Y70157D01*
Y70108D01*
Y70060D01*
X-6265D01*
Y70011D01*
Y69963D01*
Y69914D01*
Y69866D01*
Y69817D01*
Y69769D01*
Y69720D01*
Y69672D01*
Y69623D01*
Y69575D01*
Y69526D01*
Y69478D01*
Y69429D01*
Y69380D01*
Y69332D01*
Y69283D01*
X-6216D01*
Y69235D01*
Y69187D01*
Y69138D01*
X-6168D01*
Y69090D01*
Y69041D01*
X-6120D01*
Y68993D01*
X-6071D01*
Y68944D01*
X-6022D01*
Y68896D01*
X-5974D01*
Y68847D01*
X-5925D01*
Y68798D01*
X-5877D01*
Y68750D01*
X-5828D01*
Y68701D01*
X-5780D01*
Y68653D01*
Y68604D01*
Y68556D01*
X-5828D01*
Y68507D01*
X-6896D01*
Y68556D01*
X-6993D01*
Y68604D01*
Y68653D01*
Y68701D01*
Y68750D01*
Y68798D01*
Y68847D01*
Y68896D01*
Y68944D01*
Y68993D01*
Y69041D01*
Y69090D01*
Y69138D01*
Y69187D01*
Y69235D01*
X-6944D01*
Y69283D01*
Y69332D01*
Y69380D01*
Y69429D01*
Y69478D01*
X-6896D01*
Y69526D01*
Y69575D01*
Y69623D01*
Y69672D01*
Y69720D01*
Y69769D01*
Y69817D01*
Y69866D01*
Y69914D01*
Y69963D01*
Y70011D01*
Y70060D01*
Y70108D01*
Y70157D01*
Y70205D01*
Y70254D01*
X-6944D01*
Y70302D01*
Y70351D01*
Y70399D01*
Y70448D01*
Y70496D01*
Y70545D01*
Y70593D01*
X-6993D01*
Y70642D01*
X-7041D01*
Y70690D01*
X-7090D01*
Y70739D01*
X-7041D01*
Y70787D01*
X-6993D01*
Y70836D01*
X-6944D01*
Y70884D01*
X-6896D01*
Y70933D01*
X-6847D01*
Y70981D01*
Y71030D01*
X-6799D01*
Y71078D01*
X-6702D01*
Y71127D01*
Y71175D01*
Y71224D01*
X-6750D01*
Y71175D01*
X-6799D01*
Y71127D01*
X-6847D01*
Y71078D01*
X-6896D01*
Y71030D01*
Y70981D01*
X-6944D01*
Y70933D01*
X-6993D01*
Y70981D01*
X-7090D01*
Y70933D01*
X-6993D01*
Y70884D01*
X-7041D01*
Y70836D01*
X-7090D01*
Y70787D01*
X-7138D01*
Y70739D01*
Y70690D01*
X-7187D01*
Y70642D01*
X-7235D01*
Y70593D01*
X-7284D01*
Y70545D01*
X-7332D01*
Y70496D01*
Y70448D01*
X-7381D01*
Y70399D01*
X-7429D01*
Y70351D01*
Y70302D01*
X-7478D01*
Y70254D01*
Y70205D01*
X-7575D01*
Y70157D01*
X-7526D01*
Y70108D01*
X-7575D01*
Y70060D01*
X-7623D01*
Y70011D01*
Y69963D01*
Y69914D01*
X-7672D01*
Y69866D01*
Y69817D01*
X-7720D01*
Y69769D01*
Y69720D01*
X-7769D01*
Y69672D01*
X-7720D01*
Y69623D01*
X-7769D01*
Y69575D01*
Y69526D01*
Y69478D01*
Y69429D01*
X-7817D01*
Y69478D01*
X-7866D01*
Y69429D01*
X-7817D01*
Y69380D01*
Y69332D01*
Y69283D01*
Y69235D01*
X-7866D01*
Y69187D01*
Y69138D01*
Y69090D01*
X-7914D01*
Y69041D01*
Y68993D01*
Y68944D01*
X-7963D01*
Y68896D01*
X-7914D01*
Y68847D01*
Y68798D01*
Y68750D01*
X-7866D01*
Y68701D01*
X-7914D01*
Y68750D01*
X-7963D01*
Y68701D01*
X-7914D01*
Y68653D01*
Y68604D01*
Y68556D01*
X-8011D01*
Y68507D01*
X-8060D01*
Y68556D01*
X-8496D01*
Y68604D01*
X-8545D01*
Y68653D01*
X-8593D01*
Y68701D01*
Y68750D01*
X-8642D01*
Y68798D01*
Y68847D01*
Y68896D01*
Y68944D01*
Y68993D01*
Y69041D01*
X-8593D01*
Y69090D01*
Y69138D01*
X-8545D01*
Y69187D01*
X-8496D01*
Y69235D01*
X-8448D01*
Y69283D01*
X-8399D01*
Y69235D01*
X-8351D01*
Y69283D01*
X-8399D01*
Y69332D01*
Y69380D01*
Y69429D01*
Y69478D01*
X-8351D01*
Y69526D01*
Y69575D01*
Y69623D01*
X-8302D01*
Y69672D01*
Y69720D01*
X-8254D01*
Y69769D01*
Y69817D01*
X-8351D01*
Y69769D01*
X-8399D01*
Y69817D01*
Y69866D01*
X-8496D01*
Y69914D01*
Y69963D01*
X-8448D01*
Y70011D01*
Y70060D01*
Y70108D01*
Y70157D01*
Y70205D01*
X-8399D01*
Y70254D01*
Y70302D01*
Y70351D01*
X-8351D01*
Y70399D01*
Y70448D01*
Y70496D01*
Y70545D01*
X-8302D01*
Y70593D01*
Y70642D01*
Y70690D01*
X-8254D01*
Y70739D01*
Y70787D01*
Y70836D01*
X-8205D01*
Y70884D01*
Y70933D01*
Y70981D01*
Y71030D01*
X-8157D01*
Y70981D01*
X-8108D01*
Y70933D01*
Y70884D01*
Y70836D01*
Y70787D01*
X-8157D01*
Y70739D01*
Y70690D01*
Y70642D01*
Y70593D01*
X-8205D01*
Y70545D01*
Y70496D01*
Y70448D01*
X-8254D01*
Y70399D01*
Y70351D01*
Y70302D01*
Y70254D01*
Y70205D01*
Y70157D01*
Y70108D01*
Y70060D01*
Y70011D01*
Y69963D01*
Y69914D01*
X-8302D01*
Y69866D01*
X-8205D01*
Y69914D01*
Y69963D01*
Y70011D01*
X-8157D01*
Y70060D01*
Y70108D01*
Y70157D01*
Y70205D01*
X-8108D01*
Y70254D01*
Y70302D01*
Y70351D01*
Y70399D01*
Y70448D01*
X-8060D01*
Y70496D01*
Y70545D01*
Y70593D01*
Y70642D01*
Y70690D01*
Y70739D01*
Y70787D01*
Y70836D01*
Y70884D01*
Y70933D01*
Y70981D01*
Y71030D01*
X-8108D01*
Y71078D01*
X-8157D01*
Y71127D01*
Y71175D01*
Y71224D01*
X-8108D01*
Y71272D01*
Y71321D01*
Y71369D01*
Y71418D01*
Y71466D01*
Y71515D01*
Y71563D01*
Y71612D01*
X-8060D01*
Y71660D01*
Y71709D01*
Y71757D01*
Y71806D01*
Y71855D01*
Y71903D01*
Y71952D01*
X-8011D01*
Y72000D01*
Y72048D01*
Y72097D01*
Y72145D01*
Y72194D01*
Y72242D01*
Y72291D01*
Y72339D01*
Y72388D01*
Y72437D01*
Y72485D01*
Y72534D01*
Y72582D01*
Y72631D01*
Y72679D01*
Y72728D01*
Y72776D01*
Y72825D01*
Y72873D01*
X-7963D01*
Y72922D01*
Y72970D01*
Y73019D01*
Y73067D01*
Y73116D01*
X-7914D01*
Y73164D01*
Y73213D01*
X-7866D01*
Y73261D01*
Y73310D01*
Y73358D01*
X-7817D01*
Y73407D01*
X-7769D01*
Y73455D01*
Y73504D01*
X-7720D01*
Y73552D01*
Y73601D01*
X-7623D01*
Y73649D01*
Y73698D01*
Y73746D01*
X-7575D01*
Y73795D01*
X-7526D01*
Y73843D01*
X-7429D01*
Y73892D01*
X-7478D01*
Y73940D01*
X-7429D01*
Y73989D01*
X-7381D01*
Y74037D01*
Y74086D01*
X-7332D01*
Y74134D01*
X-7284D01*
Y74183D01*
Y74231D01*
X-7235D01*
Y74280D01*
X-7187D01*
Y74328D01*
X-7138D01*
Y74280D01*
X-7090D01*
Y74328D01*
X-7138D01*
Y74377D01*
Y74425D01*
X-7090D01*
Y74474D01*
X-7041D01*
Y74522D01*
X-6993D01*
Y74571D01*
X-6944D01*
Y74619D01*
X-6799D01*
Y74668D01*
Y74717D01*
X-6750D01*
Y74668D01*
X-6702D01*
Y74717D01*
Y74765D01*
X-6605D01*
Y74813D01*
X-6508D01*
Y74862D01*
X-6313D01*
Y74910D01*
X-6168D01*
Y74862D01*
X-6120D01*
Y74910D01*
X-6168D01*
Y74959D01*
X-5780D01*
Y75007D01*
X-4616D01*
Y75056D01*
X-4373D01*
Y75104D01*
X-4228D01*
Y75153D01*
X-4082D01*
Y75201D01*
X-3937D01*
Y75250D01*
X-3743D01*
Y75299D01*
X-3597D01*
Y75347D01*
X-3403D01*
Y75396D01*
X-3306D01*
Y75444D01*
X-3160D01*
Y75493D01*
X-3112D01*
Y75444D01*
X-3063D01*
Y75493D01*
X-3015D01*
Y75444D01*
X-2966D01*
Y75493D01*
X-3015D01*
Y75541D01*
X-2724D01*
Y75493D01*
D02*
G37*
%LPC*%
G36*
X-2481Y75250D02*
X-2530D01*
Y75201D01*
X-2481D01*
Y75153D01*
X-2433D01*
Y75201D01*
X-2481D01*
Y75250D01*
D02*
G37*
G36*
Y75153D02*
X-2530D01*
Y75104D01*
X-2481D01*
Y75153D01*
D02*
G37*
G36*
X-2530Y75104D02*
X-2578D01*
Y75056D01*
X-2530D01*
Y75104D01*
D02*
G37*
G36*
X-2627D02*
X-2772D01*
Y75056D01*
X-2627D01*
Y75104D01*
D02*
G37*
G36*
X-2772Y75056D02*
X-2918D01*
Y75007D01*
X-3015D01*
Y74959D01*
X-3112D01*
Y74910D01*
X-3160D01*
Y74862D01*
X-3209D01*
Y74813D01*
X-3258D01*
Y74765D01*
Y74717D01*
Y74668D01*
Y74619D01*
Y74571D01*
Y74522D01*
Y74474D01*
Y74425D01*
Y74377D01*
X-3209D01*
Y74328D01*
Y74280D01*
Y74231D01*
Y74183D01*
X-3160D01*
Y74134D01*
Y74086D01*
Y74037D01*
X-3112D01*
Y74086D01*
Y74134D01*
Y74183D01*
X-3160D01*
Y74231D01*
Y74280D01*
Y74328D01*
Y74377D01*
Y74425D01*
X-3209D01*
Y74474D01*
Y74522D01*
Y74571D01*
Y74619D01*
Y74668D01*
Y74717D01*
Y74765D01*
X-3160D01*
Y74813D01*
X-3112D01*
Y74765D01*
X-3063D01*
Y74813D01*
X-3112D01*
Y74862D01*
X-3015D01*
Y74910D01*
X-2966D01*
Y74959D01*
X-2869D01*
Y75007D01*
X-2772D01*
Y75056D01*
D02*
G37*
G36*
X-6799Y74571D02*
X-6847D01*
Y74522D01*
X-6799D01*
Y74571D01*
D02*
G37*
G36*
X-638Y74522D02*
X-686D01*
Y74474D01*
X-638D01*
Y74425D01*
X-493D01*
Y74377D01*
X-444D01*
Y74425D01*
X-396D01*
Y74474D01*
X-638D01*
Y74522D01*
D02*
G37*
G36*
X-444Y74619D02*
X-589D01*
Y74571D01*
X-444D01*
Y74522D01*
X-396D01*
Y74474D01*
X-347D01*
Y74425D01*
Y74377D01*
Y74328D01*
X-298D01*
Y74377D01*
Y74425D01*
Y74474D01*
X-347D01*
Y74522D01*
X-396D01*
Y74571D01*
X-444D01*
Y74619D01*
D02*
G37*
G36*
X-3306Y74425D02*
X-3354D01*
Y74377D01*
Y74328D01*
X-3258D01*
Y74377D01*
X-3306D01*
Y74425D01*
D02*
G37*
G36*
X-3063Y73989D02*
X-3112D01*
Y73940D01*
X-3063D01*
Y73989D01*
D02*
G37*
G36*
X-2918Y73843D02*
X-2966D01*
Y73795D01*
X-2918D01*
Y73843D01*
D02*
G37*
G36*
X-832Y73795D02*
X-881D01*
Y73746D01*
X-832D01*
Y73795D01*
D02*
G37*
G36*
X-783Y73649D02*
X-832D01*
Y73601D01*
Y73552D01*
Y73504D01*
X-783D01*
Y73552D01*
Y73601D01*
Y73649D01*
D02*
G37*
G36*
X-929Y73310D02*
X-978D01*
Y73261D01*
X-929D01*
Y73310D01*
D02*
G37*
G36*
X-832Y73407D02*
X-881D01*
Y73358D01*
Y73310D01*
Y73261D01*
X-832D01*
Y73213D01*
X-783D01*
Y73261D01*
X-832D01*
Y73310D01*
Y73358D01*
Y73407D01*
D02*
G37*
G36*
X-881Y73213D02*
X-929D01*
Y73164D01*
Y73116D01*
X-881D01*
Y73164D01*
Y73213D01*
D02*
G37*
G36*
X-929Y73116D02*
X-978D01*
Y73067D01*
Y73019D01*
X-929D01*
Y73067D01*
Y73116D01*
D02*
G37*
G36*
X-396Y72825D02*
X-444D01*
Y72776D01*
X-396D01*
Y72825D01*
D02*
G37*
G36*
X-2190D02*
X-2239D01*
Y72776D01*
X-2190D01*
Y72825D01*
D02*
G37*
G36*
X-1414Y72776D02*
X-1463D01*
Y72728D01*
X-1414D01*
Y72776D01*
D02*
G37*
G36*
X-6410Y72145D02*
X-6459D01*
Y72097D01*
X-6410D01*
Y72145D01*
D02*
G37*
G36*
X-3452Y72000D02*
X-3500D01*
Y71952D01*
X-3452D01*
Y72000D01*
D02*
G37*
G36*
X-3403Y71855D02*
X-3452D01*
Y71806D01*
X-3403D01*
Y71855D01*
D02*
G37*
G36*
X-6410Y71952D02*
X-6459D01*
Y71903D01*
Y71855D01*
Y71806D01*
X-6410D01*
Y71855D01*
Y71903D01*
Y71952D01*
D02*
G37*
G36*
X-298Y71660D02*
X-396D01*
Y71612D01*
X-298D01*
Y71660D01*
D02*
G37*
G36*
X-6508Y71806D02*
X-6556D01*
Y71757D01*
X-6508D01*
Y71709D01*
Y71660D01*
Y71612D01*
X-6459D01*
Y71660D01*
Y71709D01*
Y71757D01*
X-6508D01*
Y71806D01*
D02*
G37*
G36*
X-298Y71515D02*
X-347D01*
Y71466D01*
X-298D01*
Y71515D01*
D02*
G37*
G36*
X-1705Y71369D02*
X-1754D01*
Y71321D01*
X-1705D01*
Y71369D01*
D02*
G37*
G36*
X-6508Y71612D02*
X-6556D01*
Y71563D01*
Y71515D01*
X-6605D01*
Y71466D01*
Y71418D01*
X-6653D01*
Y71369D01*
Y71321D01*
X-6702D01*
Y71272D01*
Y71224D01*
X-6653D01*
Y71272D01*
X-6605D01*
Y71321D01*
Y71369D01*
X-6556D01*
Y71418D01*
Y71466D01*
X-6508D01*
Y71515D01*
Y71563D01*
Y71612D01*
D02*
G37*
G36*
X-347Y71224D02*
X-396D01*
Y71175D01*
X-347D01*
Y71224D01*
D02*
G37*
G36*
X-2045Y70108D02*
X-2093D01*
Y70060D01*
X-2045D01*
Y70108D01*
D02*
G37*
G36*
X-1317Y70011D02*
X-1366D01*
Y69963D01*
X-1317D01*
Y70011D01*
D02*
G37*
G36*
X-7720Y69914D02*
X-7769D01*
Y69866D01*
X-7720D01*
Y69914D01*
D02*
G37*
G36*
X-8157Y69817D02*
X-8205D01*
Y69769D01*
X-8157D01*
Y69817D01*
D02*
G37*
G36*
X-7914Y69187D02*
X-7963D01*
Y69138D01*
X-7914D01*
Y69187D01*
D02*
G37*
G36*
X-8302Y68653D02*
X-8351D01*
Y68604D01*
X-8302D01*
Y68653D01*
D02*
G37*
%LPD*%
D21*
X15157Y-8022D02*
D03*
D22*
X15157Y-7481D02*
D03*
D23*
X18110Y73110D02*
D03*
Y76496D02*
D03*
X46122Y55394D02*
D03*
Y58780D02*
D03*
X-15807Y55394D02*
D03*
Y58780D02*
D03*
X-5807Y55394D02*
D03*
Y58780D02*
D03*
X4193Y55394D02*
D03*
Y58780D02*
D03*
X14193Y55394D02*
D03*
Y58780D02*
D03*
X-15807Y16024D02*
D03*
Y19410D02*
D03*
X-10807D02*
D03*
Y16024D02*
D03*
X-5807D02*
D03*
Y19410D02*
D03*
X-807D02*
D03*
Y16024D02*
D03*
X4193D02*
D03*
Y19410D02*
D03*
X9193D02*
D03*
Y16024D02*
D03*
X14193D02*
D03*
Y19410D02*
D03*
X19193D02*
D03*
Y16024D02*
D03*
X46122Y19410D02*
D03*
Y16024D02*
D03*
X5512Y76496D02*
D03*
Y73110D02*
D03*
X25984Y76496D02*
D03*
Y73110D02*
D03*
X22047D02*
D03*
Y76496D02*
D03*
D24*
X19193Y24409D02*
D03*
Y51968D02*
D03*
X-15807Y24409D02*
D03*
Y51968D02*
D03*
X-10807Y24409D02*
D03*
X14193D02*
D03*
Y51968D02*
D03*
X-10807D02*
D03*
X-5807D02*
D03*
X-807D02*
D03*
X4193D02*
D03*
X9193D02*
D03*
Y24409D02*
D03*
X4193D02*
D03*
X-807D02*
D03*
X-5807D02*
D03*
D25*
X-12677Y113189D02*
D03*
X-16063D02*
D03*
X-16063Y109252D02*
D03*
X-12677D02*
D03*
Y93504D02*
D03*
X-16063D02*
D03*
Y85630D02*
D03*
X-12677D02*
D03*
X-16063Y81693D02*
D03*
X-12677D02*
D03*
X42992Y109252D02*
D03*
X46378D02*
D03*
X42992Y97441D02*
D03*
X46378D02*
D03*
X26693Y125984D02*
D03*
X23307D02*
D03*
X36535D02*
D03*
X33150D02*
D03*
X46378D02*
D03*
X42992D02*
D03*
Y145291D02*
D03*
X46378D02*
D03*
X26693Y129921D02*
D03*
X23307D02*
D03*
X36535D02*
D03*
X33150D02*
D03*
X46378D02*
D03*
X42992D02*
D03*
X23307Y137795D02*
D03*
X26693D02*
D03*
X33150D02*
D03*
X36535D02*
D03*
X42992D02*
D03*
X46378D02*
D03*
X26693Y141732D02*
D03*
X23307D02*
D03*
X36535D02*
D03*
X33150D02*
D03*
X-12677Y133858D02*
D03*
X-16063D02*
D03*
X-2835D02*
D03*
X-6221D02*
D03*
X7008D02*
D03*
X3622D02*
D03*
X-12677Y129921D02*
D03*
X-16063D02*
D03*
X-2835D02*
D03*
X-6221D02*
D03*
X7008D02*
D03*
X3622D02*
D03*
X3622Y125984D02*
D03*
X7008D02*
D03*
X-6221D02*
D03*
X-2835D02*
D03*
X-16063D02*
D03*
X-12677D02*
D03*
Y101378D02*
D03*
X-16063D02*
D03*
X-12677Y105315D02*
D03*
X-16063D02*
D03*
X42992D02*
D03*
X46378D02*
D03*
Y113189D02*
D03*
X42992D02*
D03*
X46378Y93504D02*
D03*
X42992D02*
D03*
X46378Y101378D02*
D03*
X42992D02*
D03*
X46378Y89567D02*
D03*
X42992D02*
D03*
X-16063Y97441D02*
D03*
X-12677D02*
D03*
X46378Y141732D02*
D03*
X42992D02*
D03*
X46378Y133858D02*
D03*
X42992D02*
D03*
X36535D02*
D03*
X33150D02*
D03*
Y145291D02*
D03*
X36535D02*
D03*
X26693Y133858D02*
D03*
X23307D02*
D03*
Y145291D02*
D03*
X26693D02*
D03*
D28*
X61614Y-7283D02*
D03*
X58465D02*
D03*
X55315D02*
D03*
X52165D02*
D03*
X49016D02*
D03*
X45866D02*
D03*
X42717D02*
D03*
X39567D02*
D03*
X36417D02*
D03*
X33268D02*
D03*
X30118D02*
D03*
X26969D02*
D03*
X23819D02*
D03*
X20669D02*
D03*
X17520D02*
D03*
X14370D02*
D03*
X11220D02*
D03*
X8071D02*
D03*
X-7677D02*
D03*
X-10827D02*
D03*
X-13976D02*
D03*
X-17126D02*
D03*
X-20276D02*
D03*
X-23425D02*
D03*
X-26575D02*
D03*
X-29724D02*
D03*
D30*
X44685Y153543D02*
D03*
D31*
X34843D02*
D03*
X25000D02*
D03*
X15157D02*
D03*
X5315D02*
D03*
X-4528D02*
D03*
X-14370D02*
D03*
D32*
X62795Y176378D02*
D03*
X-32480D02*
D03*
D48*
X-14370Y145413D02*
D03*
Y138051D02*
D03*
X-4528Y145413D02*
D03*
Y138051D02*
D03*
X5315Y145413D02*
D03*
Y138051D02*
D03*
D49*
X46122Y48031D02*
D03*
X41122D02*
D03*
X36122D02*
D03*
X31122D02*
D03*
Y26772D02*
D03*
X36122D02*
D03*
X41122D02*
D03*
X46122D02*
D03*
D50*
X15157Y102362D02*
D03*
D51*
X8268Y111811D02*
D03*
X10236D02*
D03*
X12205D02*
D03*
X14173D02*
D03*
X16142D02*
D03*
X18110D02*
D03*
X20079D02*
D03*
X22047D02*
D03*
Y92913D02*
D03*
X20079D02*
D03*
X18110D02*
D03*
X16142D02*
D03*
X14173D02*
D03*
X12205D02*
D03*
X10236D02*
D03*
X8268D02*
D03*
D52*
X24606Y109252D02*
D03*
Y107283D02*
D03*
Y105315D02*
D03*
Y103347D02*
D03*
Y101378D02*
D03*
Y99409D02*
D03*
Y97441D02*
D03*
Y95472D02*
D03*
X5709D02*
D03*
Y97441D02*
D03*
Y99409D02*
D03*
Y101378D02*
D03*
Y103347D02*
D03*
Y105315D02*
D03*
Y107283D02*
D03*
Y109252D02*
D03*
D53*
X14567Y72638D02*
D03*
X9055D02*
D03*
Y76968D02*
D03*
X14567D02*
D03*
M02*
