G04*
G04 #@! TF.GenerationSoftware,Altium Limited,Altium Designer,22.1.2 (22)*
G04*
G04 Layer_Color=16711935*
%FSLAX25Y25*%
%MOIN*%
G70*
G04*
G04 #@! TF.SameCoordinates,DC6CBC75-D83B-4164-BAAA-666503FEC379*
G04*
G04*
G04 #@! TF.FilePolarity,Positive*
G04*
G01*
G75*
%ADD13C,0.00197*%
%ADD54C,0.00039*%
%ADD55C,0.00079*%
D13*
X15157Y101181D02*
Y103543D01*
X13976Y102362D02*
X16339D01*
X3557Y113962D02*
X26757D01*
Y90762D02*
Y113962D01*
X3557Y90762D02*
X26757D01*
X3557D02*
Y113962D01*
D54*
X-11417Y111713D02*
Y114665D01*
X-17323Y111713D02*
Y114665D01*
Y111713D02*
X-11417D01*
X-17323Y114665D02*
X-11417D01*
X-15354Y113189D02*
X-13386D01*
X-14370Y112205D02*
Y114173D01*
X-17323Y107776D02*
Y110728D01*
X-11417Y107776D02*
Y110728D01*
X-17323D02*
X-11417D01*
X-17323Y107776D02*
X-11417D01*
X-15354Y109252D02*
X-13386D01*
X-14370Y108268D02*
Y110236D01*
X-11417Y92028D02*
Y94980D01*
X-17323Y92028D02*
Y94980D01*
Y92028D02*
X-11417D01*
X-17323Y94980D02*
X-11417D01*
X-15354Y93504D02*
X-13386D01*
X-14370Y92520D02*
Y94488D01*
X41732Y107776D02*
Y110728D01*
X47638Y107776D02*
Y110728D01*
X41732D02*
X47638D01*
X41732Y107776D02*
X47638D01*
X43701Y109252D02*
X45669D01*
X44685Y108268D02*
Y110236D01*
X41732Y95965D02*
Y98917D01*
X47638Y95965D02*
Y98917D01*
X41732D02*
X47638D01*
X41732Y95965D02*
X47638D01*
X43701Y97441D02*
X45669D01*
X44685Y96457D02*
Y98425D01*
X-17284Y54134D02*
X-14331D01*
X-17284Y60039D02*
X-14331D01*
X-17284Y54134D02*
Y60039D01*
X-14331Y54134D02*
Y60039D01*
X-15807Y56102D02*
Y58071D01*
X-16791Y57087D02*
X-14823D01*
X-7283Y54134D02*
X-4331D01*
X-7283Y60039D02*
X-4331D01*
X-7283Y54134D02*
Y60039D01*
X-4331Y54134D02*
Y60039D01*
X-5807Y56102D02*
Y58071D01*
X-6791Y57087D02*
X-4823D01*
X2716Y54134D02*
X5669D01*
X2716Y60039D02*
X5669D01*
X2716Y54134D02*
Y60039D01*
X5669Y54134D02*
Y60039D01*
X4193Y56102D02*
Y58071D01*
X3209Y57087D02*
X5177D01*
X12717Y54134D02*
X15669D01*
X12717Y60039D02*
X15669D01*
X12717Y54134D02*
Y60039D01*
X15669Y54134D02*
Y60039D01*
X14193Y56102D02*
Y58071D01*
X13209Y57087D02*
X15177D01*
X-17284Y14764D02*
X-14331D01*
X-17284Y20669D02*
X-14331D01*
X-17284Y14764D02*
Y20669D01*
X-14331Y14764D02*
Y20669D01*
X-15807Y16732D02*
Y18701D01*
X-16791Y17717D02*
X-14823D01*
X-7283Y14764D02*
X-4331D01*
X-7283Y20669D02*
X-4331D01*
X-7283Y14764D02*
Y20669D01*
X-4331Y14764D02*
Y20669D01*
X-5807Y16732D02*
Y18701D01*
X-6791Y17717D02*
X-4823D01*
X2716Y14764D02*
X5669D01*
X2716Y20669D02*
X5669D01*
X2716Y14764D02*
Y20669D01*
X5669Y14764D02*
Y20669D01*
X4193Y16732D02*
Y18701D01*
X3209Y17717D02*
X5177D01*
X12717Y14764D02*
X15669D01*
X12717Y20669D02*
X15669D01*
X12717Y14764D02*
Y20669D01*
X15669Y14764D02*
Y20669D01*
X14193Y16732D02*
Y18701D01*
X13209Y17717D02*
X15177D01*
X41732Y143815D02*
Y146768D01*
X47638Y143815D02*
Y146768D01*
X41732D02*
X47638D01*
X41732Y143815D02*
X47638D01*
X43701Y145291D02*
X45669D01*
X44685Y144307D02*
Y146276D01*
X27953Y140256D02*
Y143209D01*
X22047Y140256D02*
Y143209D01*
Y140256D02*
X27953D01*
X22047Y143209D02*
X27953D01*
X24016Y141732D02*
X25984D01*
X25000Y140748D02*
Y142717D01*
X37795Y140256D02*
Y143209D01*
X31890Y140256D02*
Y143209D01*
Y140256D02*
X37795D01*
X31890Y143209D02*
X37795D01*
X33858Y141732D02*
X35827D01*
X34843Y140748D02*
Y142717D01*
X-15354Y141732D02*
X-13386D01*
X-14370Y140748D02*
Y142717D01*
X-11220Y136221D02*
Y147244D01*
X-17520Y136221D02*
Y147244D01*
X-11220D01*
X-17520Y136221D02*
X-11220D01*
X-5512Y141732D02*
X-3543D01*
X-4528Y140748D02*
Y142717D01*
X-1378Y136221D02*
Y147244D01*
X-7677Y136221D02*
Y147244D01*
X-1378D01*
X-7677Y136221D02*
X-1378D01*
X4331Y141732D02*
X6299D01*
X5315Y140748D02*
Y142717D01*
X8465Y136221D02*
Y147244D01*
X2165Y136221D02*
Y147244D01*
X8465D01*
X2165Y136221D02*
X8465D01*
X2362Y124508D02*
Y127461D01*
X8268Y124508D02*
Y127461D01*
X2362D02*
X8268D01*
X2362Y124508D02*
X8268D01*
X4331Y125984D02*
X6299D01*
X5315Y125000D02*
Y126969D01*
X-7480Y124508D02*
Y127461D01*
X-1575Y124508D02*
Y127461D01*
X-7480D02*
X-1575D01*
X-7480Y124508D02*
X-1575D01*
X-5512Y125984D02*
X-3543D01*
X-4528Y125000D02*
Y126969D01*
X-17323Y124508D02*
Y127461D01*
X-11417Y124508D02*
Y127461D01*
X-17323D02*
X-11417D01*
X-17323Y124508D02*
X-11417D01*
X-15354Y125984D02*
X-13386D01*
X-14370Y125000D02*
Y126969D01*
X-11417Y99902D02*
Y102854D01*
X-17323Y99902D02*
Y102854D01*
Y99902D02*
X-11417D01*
X-17323Y102854D02*
X-11417D01*
X-15354Y101378D02*
X-13386D01*
X-14370Y100394D02*
Y102362D01*
X24508Y77756D02*
X27461D01*
X24508Y71850D02*
X27461D01*
Y77756D01*
X24508Y71850D02*
Y77756D01*
X25984Y73819D02*
Y75787D01*
X25000Y74803D02*
X26969D01*
X-11417Y103839D02*
Y106791D01*
X-17323Y103839D02*
Y106791D01*
Y103839D02*
X-11417D01*
X-17323Y106791D02*
X-11417D01*
X-15354Y105315D02*
X-13386D01*
X-14370Y104331D02*
Y106299D01*
X41732Y103839D02*
Y106791D01*
X47638Y103839D02*
Y106791D01*
X41732D02*
X47638D01*
X41732Y103839D02*
X47638D01*
X43701Y105315D02*
X45669D01*
X44685Y104331D02*
Y106299D01*
X20571Y71850D02*
X23524D01*
X20571Y77756D02*
X23524D01*
X20571Y71850D02*
Y77756D01*
X23524Y71850D02*
Y77756D01*
X22047Y73819D02*
Y75787D01*
X21063Y74803D02*
X23031D01*
X47638Y111713D02*
Y114665D01*
X41732Y111713D02*
Y114665D01*
Y111713D02*
X47638D01*
X41732Y114665D02*
X47638D01*
X43701Y113189D02*
X45669D01*
X44685Y112205D02*
Y114173D01*
X47638Y92028D02*
Y94980D01*
X41732Y92028D02*
Y94980D01*
Y92028D02*
X47638D01*
X41732Y94980D02*
X47638D01*
X43701Y93504D02*
X45669D01*
X44685Y92520D02*
Y94488D01*
X47638Y99902D02*
Y102854D01*
X41732Y99902D02*
Y102854D01*
Y99902D02*
X47638D01*
X41732Y102854D02*
X47638D01*
X43701Y101378D02*
X45669D01*
X44685Y100394D02*
Y102362D01*
X47638Y88090D02*
Y91043D01*
X41732Y88090D02*
Y91043D01*
Y88090D02*
X47638D01*
X41732Y91043D02*
X47638D01*
X43701Y89567D02*
X45669D01*
X44685Y88583D02*
Y90551D01*
X-17323Y95965D02*
Y98917D01*
X-11417Y95965D02*
Y98917D01*
X-17323D02*
X-11417D01*
X-17323Y95965D02*
X-11417D01*
X-15354Y97441D02*
X-13386D01*
X-14370Y96457D02*
Y98425D01*
X1693Y37205D02*
Y39173D01*
X709Y38189D02*
X2677D01*
X-19961Y22441D02*
X23346D01*
X-19961D02*
Y53937D01*
X23346Y22441D02*
Y53937D01*
X-19961D02*
X23346D01*
X28780Y21654D02*
X48465D01*
X28780D02*
Y53150D01*
X48465Y21654D02*
Y53150D01*
X28780D02*
X48465D01*
X37638Y37402D02*
X39606D01*
X38622Y36417D02*
Y38386D01*
X47638Y140256D02*
Y143209D01*
X41732Y140256D02*
Y143209D01*
Y140256D02*
X47638D01*
X41732Y143209D02*
X47638D01*
X43701Y141732D02*
X45669D01*
X44685Y140748D02*
Y142717D01*
X47638Y132382D02*
Y135335D01*
X41732Y132382D02*
Y135335D01*
Y132382D02*
X47638D01*
X41732Y135335D02*
X47638D01*
X43701Y133858D02*
X45669D01*
X44685Y132874D02*
Y134843D01*
X37795Y132382D02*
Y135335D01*
X31890Y132382D02*
Y135335D01*
Y132382D02*
X37795D01*
X31890Y135335D02*
X37795D01*
X33858Y133858D02*
X35827D01*
X34843Y132874D02*
Y134843D01*
X31890Y143815D02*
Y146768D01*
X37795Y143815D02*
Y146768D01*
X31890D02*
X37795D01*
X31890Y143815D02*
X37795D01*
X33858Y145291D02*
X35827D01*
X34843Y144307D02*
Y146276D01*
X27953Y132382D02*
Y135335D01*
X22047Y132382D02*
Y135335D01*
Y132382D02*
X27953D01*
X22047Y135335D02*
X27953D01*
X24016Y133858D02*
X25984D01*
X25000Y132874D02*
Y134843D01*
X22047Y143815D02*
Y146768D01*
X27953Y143815D02*
Y146768D01*
X22047D02*
X27953D01*
X22047Y143815D02*
X27953D01*
X24016Y145291D02*
X25984D01*
X25000Y144307D02*
Y146276D01*
X10827Y74803D02*
X12795D01*
X11811Y73819D02*
Y75787D01*
X7087Y70866D02*
X16535D01*
X7087Y78740D02*
X16535D01*
Y70866D02*
Y78740D01*
X7087Y70866D02*
Y78740D01*
D55*
X-17323Y84153D02*
Y87106D01*
X-14370Y84646D02*
Y86614D01*
X-15354Y85630D02*
X-13386D01*
X-17323Y84153D02*
X-11417D01*
X-17323Y87106D02*
X-11417D01*
Y84153D02*
Y87106D01*
X-17323Y80216D02*
Y83169D01*
X-14370Y80709D02*
Y82677D01*
X-15354Y81693D02*
X-13386D01*
X-17323Y80216D02*
X-11417D01*
X-17323Y83169D02*
X-11417D01*
Y80216D02*
Y83169D01*
X16634Y71850D02*
X19587D01*
X17126Y74803D02*
X19094D01*
X18110Y73819D02*
Y75787D01*
X19587Y71850D02*
Y77756D01*
X16634Y71850D02*
Y77756D01*
X19587D01*
X44646Y54134D02*
X47598D01*
X45138Y57087D02*
X47106D01*
X46122Y56102D02*
Y58071D01*
X47598Y54134D02*
Y60039D01*
X44646Y54134D02*
Y60039D01*
X47598D01*
X-12284Y20669D02*
X-9331D01*
X-11791Y17717D02*
X-9823D01*
X-10807Y16732D02*
Y18701D01*
X-12284Y14764D02*
Y20669D01*
X-9331Y14764D02*
Y20669D01*
X-12284Y14764D02*
X-9331D01*
X-2283Y20669D02*
X669D01*
X-1791Y17717D02*
X177D01*
X-807Y16732D02*
Y18701D01*
X-2283Y14764D02*
Y20669D01*
X669Y14764D02*
Y20669D01*
X-2283Y14764D02*
X669D01*
X7717Y20669D02*
X10669D01*
X8209Y17717D02*
X10177D01*
X9193Y16732D02*
Y18701D01*
X7717Y14764D02*
Y20669D01*
X10669Y14764D02*
Y20669D01*
X7717Y14764D02*
X10669D01*
X17717Y20669D02*
X20669D01*
X18209Y17717D02*
X20177D01*
X19193Y16732D02*
Y18701D01*
X17717Y14764D02*
Y20669D01*
X20669Y14764D02*
Y20669D01*
X17717Y14764D02*
X20669D01*
X44646Y20669D02*
X47598D01*
X45138Y17717D02*
X47106D01*
X46122Y16732D02*
Y18701D01*
X44646Y14764D02*
Y20669D01*
X47598Y14764D02*
Y20669D01*
X44646Y14764D02*
X47598D01*
X4035Y77756D02*
X6988D01*
X4528Y74803D02*
X6496D01*
X5512Y73819D02*
Y75787D01*
X4035Y71850D02*
Y77756D01*
X6988Y71850D02*
Y77756D01*
X4035Y71850D02*
X6988D01*
X27953Y124508D02*
Y127461D01*
X25000Y125000D02*
Y126969D01*
X24016Y125984D02*
X25984D01*
X22047Y127461D02*
X27953D01*
X22047Y124508D02*
X27953D01*
X22047D02*
Y127461D01*
X37795Y124508D02*
Y127461D01*
X34843Y125000D02*
Y126969D01*
X33858Y125984D02*
X35827D01*
X31890Y127461D02*
X37795D01*
X31890Y124508D02*
X37795D01*
X31890D02*
Y127461D01*
X47638Y124508D02*
Y127461D01*
X44685Y125000D02*
Y126969D01*
X43701Y125984D02*
X45669D01*
X41732Y127461D02*
X47638D01*
X41732Y124508D02*
X47638D01*
X41732D02*
Y127461D01*
X27953Y128445D02*
Y131398D01*
X25000Y128937D02*
Y130905D01*
X24016Y129921D02*
X25984D01*
X22047Y131398D02*
X27953D01*
X22047Y128445D02*
X27953D01*
X22047D02*
Y131398D01*
X37795Y128445D02*
Y131398D01*
X34843Y128937D02*
Y130905D01*
X33858Y129921D02*
X35827D01*
X31890Y131398D02*
X37795D01*
X31890Y128445D02*
X37795D01*
X31890D02*
Y131398D01*
X47638Y128445D02*
Y131398D01*
X44685Y128937D02*
Y130905D01*
X43701Y129921D02*
X45669D01*
X41732Y131398D02*
X47638D01*
X41732Y128445D02*
X47638D01*
X41732D02*
Y131398D01*
X22047Y136319D02*
Y139272D01*
X25000Y136811D02*
Y138779D01*
X24016Y137795D02*
X25984D01*
X22047Y136319D02*
X27953D01*
X22047Y139272D02*
X27953D01*
Y136319D02*
Y139272D01*
X31890Y136319D02*
Y139272D01*
X34843Y136811D02*
Y138779D01*
X33858Y137795D02*
X35827D01*
X31890Y136319D02*
X37795D01*
X31890Y139272D02*
X37795D01*
Y136319D02*
Y139272D01*
X41732Y136319D02*
Y139272D01*
X44685Y136811D02*
Y138779D01*
X43701Y137795D02*
X45669D01*
X41732Y136319D02*
X47638D01*
X41732Y139272D02*
X47638D01*
Y136319D02*
Y139272D01*
X-11417Y132382D02*
Y135335D01*
X-14370Y132874D02*
Y134843D01*
X-15354Y133858D02*
X-13386D01*
X-17323Y135335D02*
X-11417D01*
X-17323Y132382D02*
X-11417D01*
X-17323D02*
Y135335D01*
X-1575Y132382D02*
Y135335D01*
X-4528Y132874D02*
Y134843D01*
X-5512Y133858D02*
X-3543D01*
X-7480Y135335D02*
X-1575D01*
X-7480Y132382D02*
X-1575D01*
X-7480D02*
Y135335D01*
X8268Y132382D02*
Y135335D01*
X5315Y132874D02*
Y134843D01*
X4331Y133858D02*
X6299D01*
X2362Y135335D02*
X8268D01*
X2362Y132382D02*
X8268D01*
X2362D02*
Y135335D01*
X-11417Y128445D02*
Y131398D01*
X-14370Y128937D02*
Y130905D01*
X-15354Y129921D02*
X-13386D01*
X-17323Y131398D02*
X-11417D01*
X-17323Y128445D02*
X-11417D01*
X-17323D02*
Y131398D01*
X-1575Y128445D02*
Y131398D01*
X-4528Y128937D02*
Y130905D01*
X-5512Y129921D02*
X-3543D01*
X-7480Y131398D02*
X-1575D01*
X-7480Y128445D02*
X-1575D01*
X-7480D02*
Y131398D01*
X8268Y128445D02*
Y131398D01*
X5315Y128937D02*
Y130905D01*
X4331Y129921D02*
X6299D01*
X2362Y131398D02*
X8268D01*
X2362Y128445D02*
X8268D01*
X2362D02*
Y131398D01*
M02*
