G04*
G04 #@! TF.GenerationSoftware,Altium Limited,Altium Designer,22.1.2 (22)*
G04*
G04 Layer_Color=8388736*
%FSLAX25Y25*%
%MOIN*%
G70*
G04*
G04 #@! TF.SameCoordinates,DC6CBC75-D83B-4164-BAAA-666503FEC379*
G04*
G04*
G04 #@! TF.FilePolarity,Positive*
G04*
G01*
G75*
%ADD10C,0.00394*%
%ADD54C,0.00039*%
%ADD55C,0.00079*%
D10*
X37657Y10133D02*
Y60733D01*
X-7243D02*
X37657D01*
X-7243Y10133D02*
X37657D01*
X-7243D02*
Y60733D01*
D54*
X-12905Y113189D02*
X-9953D01*
Y119095D01*
X-12905Y113189D02*
Y119095D01*
X-9953D01*
X-17906Y113189D02*
X-14953D01*
Y119095D01*
X-17906Y113189D02*
Y119095D01*
X-14953D01*
X22724Y80709D02*
Y112205D01*
X-20583Y80709D02*
Y112205D01*
X22724D01*
X-20583Y80709D02*
X22724D01*
X17095Y73819D02*
X20047D01*
Y79724D01*
X17095Y73819D02*
Y79724D01*
X20047D01*
X7095Y73819D02*
X10047D01*
Y79724D01*
X7095Y73819D02*
Y79724D01*
X10047D01*
X-2905Y73819D02*
X47D01*
Y79724D01*
X-2905Y73819D02*
Y79724D01*
X47D01*
X-17906D02*
X-14953D01*
X-17906Y73819D02*
Y79724D01*
X-14953Y73819D02*
Y79724D01*
X-17906Y73819D02*
X-14953D01*
X58465Y141732D02*
Y190945D01*
X-28150Y141732D02*
Y190945D01*
Y141732D02*
X58465D01*
X-28150Y190945D02*
X58465D01*
X39591Y130709D02*
Y137008D01*
Y130709D02*
X50614D01*
X39591Y137008D02*
X50614D01*
Y130709D02*
Y137008D01*
X42150Y126476D02*
Y129429D01*
X48055Y126476D02*
Y129429D01*
X42150Y126476D02*
X48055D01*
X42150Y129429D02*
X48055D01*
X9646Y130709D02*
Y137008D01*
Y130709D02*
X20669D01*
X9646Y137008D02*
X20669D01*
Y130709D02*
Y137008D01*
X12205Y126476D02*
Y129429D01*
X18110Y126476D02*
Y129429D01*
X12205Y126476D02*
X18110D01*
X12205Y129429D02*
X18110D01*
X-19882Y130709D02*
Y137008D01*
Y130709D02*
X-8858D01*
X-19882Y137008D02*
X-8858D01*
Y130709D02*
Y137008D01*
X-17323Y126476D02*
Y129429D01*
X-11417Y126476D02*
Y129429D01*
X-17323Y126476D02*
X-11417D01*
X-17323Y129429D02*
X-11417D01*
X32791Y78445D02*
Y81398D01*
X38697Y78445D02*
Y81398D01*
X32791Y78445D02*
X38697D01*
X32791Y81398D02*
X38697D01*
X46571Y78445D02*
Y81398D01*
X40665D02*
X46571D01*
X40665Y78445D02*
X46571D01*
X40665D02*
Y81398D01*
D55*
X15047Y73819D02*
Y79724D01*
X12094Y73819D02*
Y79724D01*
X15047D01*
X12094Y73819D02*
X15047D01*
X5047D02*
Y79724D01*
X2094Y73819D02*
Y79724D01*
X5047D01*
X2094Y73819D02*
X5047D01*
X-4953D02*
Y79724D01*
X-7905Y73819D02*
Y79724D01*
X-4953D01*
X-7905Y73819D02*
X-4953D01*
X-9953D02*
Y79724D01*
X-12905Y73819D02*
Y79724D01*
X-9953D01*
X-12905Y73819D02*
X-9953D01*
X43307Y31909D02*
X49213D01*
X43307Y28957D02*
X49213D01*
X43307D02*
Y31909D01*
X49213Y28957D02*
Y31909D01*
X43307Y27972D02*
X49213D01*
X43307Y25020D02*
X49213D01*
X43307D02*
Y27972D01*
X49213Y25020D02*
Y27972D01*
X-18701Y48957D02*
X-12795D01*
X-18701Y51910D02*
X-12795D01*
Y48957D02*
Y51910D01*
X-18701Y48957D02*
Y51910D01*
Y45020D02*
X-12795D01*
X-18701Y47972D02*
X-12795D01*
Y45020D02*
Y47972D01*
X-18701Y45020D02*
Y47972D01*
M02*
