G04*
G04 #@! TF.GenerationSoftware,Altium Limited,Altium Designer,22.1.2 (22)*
G04*
G04 Layer_Color=2752767*
%FSLAX25Y25*%
%MOIN*%
G70*
G04*
G04 #@! TF.SameCoordinates,DC6CBC75-D83B-4164-BAAA-666503FEC379*
G04*
G04*
G04 #@! TF.FilePolarity,Positive*
G04*
G01*
G75*
%ADD56C,0.00200*%
D56*
X14370Y-800D02*
X13570Y800D01*
X15170D01*
X14370Y-800D01*
X-807Y57980D02*
X-1607Y59579D01*
X-7D01*
X-807Y57980D01*
X8268Y88176D02*
X7468Y89776D01*
X9068D01*
X8268Y88176D01*
X41122Y57980D02*
X40322Y59579D01*
X41922D01*
X41122Y57980D01*
X19193Y57980D02*
X18393Y59579D01*
X19993D01*
X19193Y57980D01*
X14193Y27743D02*
X13393Y29343D01*
X14993D01*
X14193Y27743D01*
X11220Y-800D02*
X10420Y800D01*
X12021D01*
X11220Y-800D01*
X41122Y18609D02*
X40322Y20209D01*
X41922D01*
X41122Y18609D01*
X36122D02*
X35322Y20209D01*
X36922D01*
X36122Y18609D01*
X41122Y54594D02*
X40322Y56194D01*
X41922D01*
X41122Y54594D01*
X36122D02*
X35322Y56194D01*
X36922D01*
X36122Y54594D01*
X31122D02*
X30322Y56194D01*
X31922D01*
X31122Y54594D01*
X19193D02*
X18393Y56194D01*
X19993D01*
X19193Y54594D01*
X9193Y57980D02*
X8393Y59579D01*
X9993D01*
X9193Y57980D01*
Y54594D02*
X8393Y56194D01*
X9993D01*
X9193Y54594D01*
X-807D02*
X-1607Y56194D01*
X-7D01*
X-807Y54594D01*
X-10807D02*
X-11607Y56194D01*
X-10007D01*
X-10807Y54594D01*
Y57980D02*
X-11607Y59579D01*
X-10007D01*
X-10807Y57980D01*
X-10807Y20657D02*
X-11607Y22257D01*
X-10007D01*
X-10807Y20657D01*
X-807D02*
X-1607Y22257D01*
X-7D01*
X-807Y20657D01*
X19193D02*
X18393Y22257D01*
X19993D01*
X19193Y20657D01*
X9193D02*
X8393Y22257D01*
X9993D01*
X9193Y20657D01*
X4193Y27743D02*
X3393Y29343D01*
X4993D01*
X4193Y27743D01*
X-5807D02*
X-6607Y29343D01*
X-5007D01*
X-5807Y27743D01*
X-18504Y84830D02*
X-19304Y86430D01*
X-17704D01*
X-18504Y84830D01*
X12205Y88176D02*
X11405Y89776D01*
X13005D01*
X12205Y88176D01*
X9055Y69476D02*
X8255Y71076D01*
X9855D01*
X9055Y69476D01*
X18110Y78530D02*
X17310Y80130D01*
X18910D01*
X18110Y78530D01*
X25984D02*
X25184Y80130D01*
X26784D01*
X25984Y78530D01*
X-9843Y84830D02*
X-10643Y86430D01*
X-9042D01*
X-9843Y84830D01*
X-18504Y108452D02*
X-19304Y110052D01*
X-17704D01*
X-18504Y108452D01*
X1772Y94672D02*
X972Y96272D01*
X2572D01*
X1772Y94672D01*
X40158Y104515D02*
X39358Y106115D01*
X40958D01*
X40158Y104515D01*
X-9843Y100578D02*
X-10643Y102178D01*
X-9042D01*
X-9843Y100578D01*
Y104515D02*
X-10643Y106115D01*
X-9042D01*
X-9843Y104515D01*
X1772Y106483D02*
X972Y108083D01*
X2572D01*
X1772Y106483D01*
X28543Y108452D02*
X27743Y110052D01*
X29343D01*
X28543Y108452D01*
M02*
