G04*
G04 #@! TF.GenerationSoftware,Altium Limited,Altium Designer,22.1.2 (22)*
G04*
G04 Layer_Color=255*
%FSLAX25Y25*%
%MOIN*%
G70*
G04*
G04 #@! TF.SameCoordinates,DC6CBC75-D83B-4164-BAAA-666503FEC379*
G04*
G04*
G04 #@! TF.FilePolarity,Positive*
G04*
G01*
G75*
%ADD14R,0.02047X0.01850*%
%ADD15R,0.02756X0.03937*%
%ADD16R,0.01850X0.02047*%
%ADD17R,0.02756X0.05512*%
%ADD18R,0.01968X0.02362*%
%ADD19R,0.08268X0.03937*%
%ADD33R,0.02362X0.09055*%
%ADD37R,0.05315X0.05315*%
%ADD38C,0.05315*%
%ADD39R,0.20866X0.20866*%
D14*
X-11429Y114449D02*
D03*
Y117835D02*
D03*
X-16429Y114449D02*
D03*
Y117835D02*
D03*
X18571Y75079D02*
D03*
Y78465D02*
D03*
X13571D02*
D03*
Y75079D02*
D03*
X8571D02*
D03*
Y78465D02*
D03*
X3571D02*
D03*
Y75079D02*
D03*
X-1429D02*
D03*
Y78465D02*
D03*
X-6429D02*
D03*
Y75079D02*
D03*
X-11429Y78465D02*
D03*
Y75079D02*
D03*
X-16429Y78465D02*
D03*
Y75079D02*
D03*
D15*
Y82677D02*
D03*
Y110236D02*
D03*
X18571Y82677D02*
D03*
Y110236D02*
D03*
X13571Y82677D02*
D03*
X-11429D02*
D03*
Y110236D02*
D03*
X13571D02*
D03*
X8571D02*
D03*
X3571D02*
D03*
X-1429D02*
D03*
X-6429D02*
D03*
Y82677D02*
D03*
X-1429D02*
D03*
X3571D02*
D03*
X8571D02*
D03*
D16*
X44567Y30433D02*
D03*
X47953D02*
D03*
X44567Y26496D02*
D03*
X47953D02*
D03*
X-14055Y50433D02*
D03*
X-17441D02*
D03*
X-14055Y46496D02*
D03*
X-17441D02*
D03*
X45311Y79921D02*
D03*
X41925D02*
D03*
D17*
X41421Y133858D02*
D03*
X48783D02*
D03*
X11476D02*
D03*
X18839D02*
D03*
X-18051D02*
D03*
X-10689D02*
D03*
D18*
X43331Y127953D02*
D03*
X46874D02*
D03*
X13386D02*
D03*
X16929D02*
D03*
X-16142D02*
D03*
X-12598D02*
D03*
X33972Y79921D02*
D03*
X37516D02*
D03*
D19*
X-4724Y20433D02*
D03*
Y50433D02*
D03*
X35039D02*
D03*
Y30433D02*
D03*
Y20433D02*
D03*
D33*
X60039Y-7283D02*
D03*
X56890D02*
D03*
X53740D02*
D03*
X50591D02*
D03*
X47441D02*
D03*
X44291D02*
D03*
X41142D02*
D03*
X37992D02*
D03*
X34843D02*
D03*
X31693D02*
D03*
X28543D02*
D03*
X25394D02*
D03*
X22244D02*
D03*
X19094D02*
D03*
X15945D02*
D03*
X12795D02*
D03*
X9646D02*
D03*
X6496D02*
D03*
X-9252D02*
D03*
X-12402D02*
D03*
X-15551D02*
D03*
X-18701D02*
D03*
X-21850D02*
D03*
X-25000D02*
D03*
X-28150D02*
D03*
X-31299D02*
D03*
D37*
X44685Y153543D02*
D03*
D38*
X34843D02*
D03*
X25000D02*
D03*
X15157D02*
D03*
X5315D02*
D03*
X-4528D02*
D03*
X-14370D02*
D03*
D39*
X62795Y176378D02*
D03*
X-32480D02*
D03*
M02*
