G04*
G04 #@! TF.GenerationSoftware,Altium Limited,Altium Designer,22.1.2 (22)*
G04*
G04 Layer_Physical_Order=1*
G04 Layer_Color=255*
%FSLAX25Y25*%
%MOIN*%
G70*
G04*
G04 #@! TF.SameCoordinates,DC6CBC75-D83B-4164-BAAA-666503FEC379*
G04*
G04*
G04 #@! TF.FilePolarity,Positive*
G04*
G01*
G75*
%ADD11C,0.00787*%
%ADD14R,0.02047X0.01850*%
%ADD15R,0.02756X0.03937*%
%ADD16R,0.01850X0.02047*%
%ADD17R,0.02756X0.05512*%
%ADD18R,0.01968X0.02362*%
%ADD19R,0.08268X0.03937*%
%ADD33R,0.02362X0.09055*%
%ADD34C,0.01181*%
%ADD35C,0.01968*%
%ADD36C,0.01575*%
%ADD37R,0.05315X0.05315*%
%ADD38C,0.05315*%
%ADD39R,0.20866X0.20866*%
%ADD40C,0.01968*%
G36*
X73209Y807D02*
X68898D01*
X68873Y802D01*
X68848Y805D01*
X68540Y790D01*
X68468Y772D01*
X68393D01*
X67788Y652D01*
X67696Y614D01*
X67599Y595D01*
X67029Y358D01*
X66947Y303D01*
X66855Y266D01*
X66342Y-77D01*
X66272Y-147D01*
X66190Y-202D01*
X65753Y-639D01*
X65698Y-721D01*
X65629Y-791D01*
X65286Y-1304D01*
X65248Y-1396D01*
X65193Y-1478D01*
X65003Y-1936D01*
X3956D01*
Y0D01*
X3950Y33D01*
X3954Y66D01*
X3929Y451D01*
X3903Y546D01*
X3897Y645D01*
X3697Y1390D01*
X3639Y1508D01*
X3597Y1632D01*
X3212Y2299D01*
X3125Y2398D01*
X3052Y2507D01*
X2507Y3052D01*
X2398Y3125D01*
X2299Y3212D01*
X1632Y3597D01*
X1507Y3639D01*
X1390Y3697D01*
X645Y3897D01*
X514Y3905D01*
X385Y3931D01*
X-385D01*
X-514Y3905D01*
X-645Y3897D01*
X-1390Y3697D01*
X-1508Y3639D01*
X-1632Y3597D01*
X-2299Y3212D01*
X-2398Y3125D01*
X-2507Y3052D01*
X-3052Y2507D01*
X-3125Y2398D01*
X-3212Y2299D01*
X-3597Y1632D01*
X-3639Y1507D01*
X-3697Y1390D01*
X-3897Y645D01*
X-3903Y546D01*
X-3929Y451D01*
X-3954Y66D01*
X-3950Y33D01*
X-3956Y0D01*
Y-1936D01*
X-19615D01*
X-19914Y-1436D01*
X-19853Y-1321D01*
X-19738Y-1298D01*
X-19282Y-993D01*
X-18978Y-538D01*
X-18871Y0D01*
X-18978Y538D01*
X-19282Y993D01*
X-19738Y1298D01*
X-20276Y1405D01*
X-20813Y1298D01*
X-21269Y993D01*
X-21574Y538D01*
X-21677Y18D01*
X-22560Y-865D01*
X-22777Y-1191D01*
X-22854Y-1575D01*
Y-1936D01*
X-34688D01*
X-34878Y-1478D01*
X-34933Y-1396D01*
X-34971Y-1304D01*
X-35314Y-791D01*
X-35383Y-721D01*
X-35438Y-639D01*
X-35875Y-202D01*
X-35957Y-147D01*
X-36027Y-77D01*
X-36540Y266D01*
X-36632Y303D01*
X-36714Y358D01*
X-37284Y595D01*
X-37381Y614D01*
X-37473Y652D01*
X-38078Y772D01*
X-38153D01*
X-38225Y790D01*
X-38533Y805D01*
X-38558Y802D01*
X-38583Y807D01*
X-42894D01*
Y77121D01*
X73209D01*
Y807D01*
D02*
G37*
G36*
X63101Y156130D02*
X63130D01*
X63199Y156122D01*
X63276Y156111D01*
X63356Y156093D01*
X63443Y156071D01*
X63527Y156042D01*
X63531D01*
X63538Y156038D01*
X63549Y156035D01*
X63563Y156028D01*
X63603Y156006D01*
X63654Y155980D01*
X63709Y155944D01*
X63767Y155900D01*
X63822Y155853D01*
X63873Y155795D01*
X63880Y155787D01*
X63895Y155765D01*
X63916Y155733D01*
X63946Y155685D01*
X63975Y155627D01*
X64007Y155554D01*
X64040Y155474D01*
X64066Y155383D01*
X63763Y155303D01*
Y155307D01*
X63760Y155310D01*
X63756Y155322D01*
X63753Y155336D01*
X63742Y155369D01*
X63727Y155412D01*
X63705Y155463D01*
X63680Y155511D01*
X63654Y155562D01*
X63622Y155605D01*
X63618Y155609D01*
X63607Y155624D01*
X63585Y155642D01*
X63560Y155667D01*
X63527Y155696D01*
X63483Y155726D01*
X63436Y155755D01*
X63381Y155780D01*
X63374Y155784D01*
X63356Y155791D01*
X63323Y155802D01*
X63279Y155816D01*
X63228Y155827D01*
X63170Y155838D01*
X63105Y155846D01*
X63036Y155849D01*
X62995D01*
X62977Y155846D01*
X62955D01*
X62901Y155842D01*
X62839Y155831D01*
X62770Y155820D01*
X62704Y155802D01*
X62639Y155776D01*
X62631Y155773D01*
X62610Y155765D01*
X62581Y155747D01*
X62544Y155729D01*
X62500Y155700D01*
X62453Y155671D01*
X62409Y155634D01*
X62369Y155595D01*
X62366Y155591D01*
X62351Y155576D01*
X62333Y155551D01*
X62311Y155522D01*
X62286Y155485D01*
X62260Y155442D01*
X62235Y155394D01*
X62209Y155343D01*
Y155340D01*
X62206Y155332D01*
X62202Y155322D01*
X62195Y155303D01*
X62187Y155281D01*
X62180Y155256D01*
X62169Y155227D01*
X62162Y155194D01*
X62144Y155118D01*
X62129Y155030D01*
X62118Y154939D01*
X62115Y154837D01*
Y154834D01*
Y154823D01*
Y154805D01*
X62118Y154783D01*
Y154754D01*
X62122Y154717D01*
X62125Y154681D01*
X62129Y154641D01*
X62144Y154550D01*
X62162Y154455D01*
X62191Y154360D01*
X62227Y154270D01*
Y154266D01*
X62235Y154259D01*
X62238Y154248D01*
X62249Y154233D01*
X62275Y154193D01*
X62315Y154142D01*
X62362Y154087D01*
X62420Y154033D01*
X62489Y153982D01*
X62566Y153935D01*
X62570D01*
X62577Y153931D01*
X62588Y153924D01*
X62606Y153916D01*
X62624Y153909D01*
X62650Y153902D01*
X62708Y153880D01*
X62781Y153862D01*
X62861Y153844D01*
X62948Y153829D01*
X63039Y153825D01*
X63076D01*
X63097Y153829D01*
X63119D01*
X63174Y153836D01*
X63239Y153844D01*
X63309Y153858D01*
X63385Y153880D01*
X63461Y153905D01*
X63465D01*
X63472Y153909D01*
X63480Y153913D01*
X63494Y153920D01*
X63534Y153938D01*
X63578Y153960D01*
X63629Y153986D01*
X63683Y154015D01*
X63734Y154048D01*
X63778Y154084D01*
Y154557D01*
X63036D01*
Y154856D01*
X64106D01*
Y153920D01*
X64102Y153916D01*
X64095Y153913D01*
X64080Y153902D01*
X64062Y153887D01*
X64040Y153873D01*
X64015Y153855D01*
X63982Y153833D01*
X63949Y153811D01*
X63873Y153763D01*
X63785Y153713D01*
X63694Y153665D01*
X63596Y153625D01*
X63592D01*
X63585Y153622D01*
X63571Y153618D01*
X63552Y153611D01*
X63527Y153603D01*
X63498Y153593D01*
X63465Y153585D01*
X63432Y153578D01*
X63352Y153560D01*
X63261Y153542D01*
X63163Y153531D01*
X63061Y153527D01*
X63025D01*
X62999Y153531D01*
X62966D01*
X62926Y153534D01*
X62883Y153542D01*
X62835Y153545D01*
X62730Y153567D01*
X62617Y153593D01*
X62500Y153632D01*
X62442Y153654D01*
X62384Y153683D01*
X62380Y153687D01*
X62369Y153691D01*
X62355Y153702D01*
X62333Y153713D01*
X62308Y153731D01*
X62282Y153749D01*
X62213Y153800D01*
X62140Y153866D01*
X62064Y153946D01*
X61991Y154036D01*
X61925Y154142D01*
Y154146D01*
X61918Y154157D01*
X61911Y154171D01*
X61900Y154197D01*
X61889Y154222D01*
X61878Y154259D01*
X61863Y154295D01*
X61849Y154339D01*
X61834Y154386D01*
X61820Y154441D01*
X61809Y154495D01*
X61798Y154553D01*
X61780Y154681D01*
X61772Y154815D01*
Y154819D01*
Y154834D01*
Y154852D01*
X61776Y154877D01*
Y154910D01*
X61780Y154950D01*
X61787Y154990D01*
X61791Y155037D01*
X61802Y155088D01*
X61809Y155143D01*
X61838Y155260D01*
X61874Y155380D01*
X61925Y155500D01*
X61929Y155503D01*
X61933Y155514D01*
X61940Y155529D01*
X61954Y155551D01*
X61969Y155580D01*
X61987Y155609D01*
X62038Y155678D01*
X62100Y155758D01*
X62177Y155835D01*
X62264Y155911D01*
X62315Y155944D01*
X62366Y155977D01*
X62369Y155980D01*
X62380Y155984D01*
X62395Y155991D01*
X62417Y156002D01*
X62446Y156013D01*
X62479Y156028D01*
X62515Y156042D01*
X62559Y156057D01*
X62606Y156071D01*
X62657Y156082D01*
X62712Y156097D01*
X62770Y156108D01*
X62897Y156126D01*
X62963Y156133D01*
X63079D01*
X63101Y156130D01*
D02*
G37*
G36*
X61317Y153571D02*
X60997D01*
Y155678D01*
X60262Y153571D01*
X59963D01*
X59235Y155715D01*
Y153571D01*
X58915D01*
Y156089D01*
X59414D01*
X60011Y154302D01*
Y154299D01*
X60014Y154291D01*
X60018Y154280D01*
X60025Y154262D01*
X60040Y154218D01*
X60058Y154164D01*
X60076Y154102D01*
X60098Y154040D01*
X60116Y153982D01*
X60131Y153931D01*
X60134Y153938D01*
X60138Y153956D01*
X60149Y153989D01*
X60164Y154033D01*
X60182Y154091D01*
X60207Y154160D01*
X60233Y154240D01*
X60265Y154335D01*
X60870Y156089D01*
X61317D01*
Y153571D01*
D02*
G37*
G36*
X66676D02*
X66297D01*
X66002Y154335D01*
X64947D01*
X64674Y153571D01*
X64320D01*
X65281Y156089D01*
X65645D01*
X66676Y153571D01*
D02*
G37*
G36*
X-26149Y153587D02*
X-26527D01*
X-26822Y154351D01*
X-27878D01*
X-28150Y153587D01*
X-28875D01*
X-29170Y154351D01*
X-30225D01*
X-30498Y153587D01*
X-30851D01*
X-29890Y156106D01*
X-29526D01*
X-28500Y153596D01*
X-27543Y156106D01*
X-27179D01*
X-26149Y153587D01*
D02*
G37*
G36*
X-31765Y156113D02*
X-31736Y156109D01*
X-31699Y156106D01*
X-31659Y156099D01*
X-31620Y156091D01*
X-31525Y156066D01*
X-31430Y156029D01*
X-31383Y156008D01*
X-31335Y155982D01*
X-31292Y155949D01*
X-31252Y155913D01*
X-31248Y155909D01*
X-31241Y155906D01*
X-31234Y155891D01*
X-31219Y155877D01*
X-31201Y155858D01*
X-31183Y155833D01*
X-31164Y155807D01*
X-31143Y155775D01*
X-31106Y155705D01*
X-31070Y155618D01*
X-31055Y155574D01*
X-31048Y155524D01*
X-31041Y155473D01*
X-31037Y155418D01*
Y155411D01*
Y155392D01*
X-31041Y155363D01*
X-31044Y155323D01*
X-31052Y155280D01*
X-31066Y155229D01*
X-31081Y155174D01*
X-31103Y155119D01*
X-31106Y155112D01*
X-31113Y155094D01*
X-31128Y155065D01*
X-31150Y155025D01*
X-31179Y154981D01*
X-31215Y154927D01*
X-31259Y154872D01*
X-31310Y154810D01*
X-31317Y154803D01*
X-31335Y154781D01*
X-31354Y154763D01*
X-31372Y154745D01*
X-31394Y154723D01*
X-31423Y154694D01*
X-31452Y154664D01*
X-31488Y154632D01*
X-31525Y154595D01*
X-31569Y154555D01*
X-31616Y154515D01*
X-31667Y154468D01*
X-31725Y154421D01*
X-31783Y154370D01*
X-31787Y154366D01*
X-31794Y154359D01*
X-31809Y154348D01*
X-31827Y154333D01*
X-31849Y154311D01*
X-31874Y154289D01*
X-31933Y154242D01*
X-31994Y154188D01*
X-32053Y154133D01*
X-32104Y154086D01*
X-32125Y154068D01*
X-32144Y154049D01*
X-32147Y154046D01*
X-32158Y154035D01*
X-32173Y154020D01*
X-32191Y153998D01*
X-32209Y153973D01*
X-32231Y153947D01*
X-32275Y153885D01*
X-31033D01*
Y153587D01*
X-32704D01*
Y153591D01*
Y153605D01*
Y153627D01*
X-32700Y153656D01*
X-32697Y153689D01*
X-32690Y153725D01*
X-32682Y153762D01*
X-32668Y153802D01*
Y153805D01*
X-32664Y153809D01*
X-32657Y153831D01*
X-32642Y153864D01*
X-32620Y153907D01*
X-32591Y153958D01*
X-32555Y154016D01*
X-32515Y154075D01*
X-32464Y154137D01*
Y154140D01*
X-32457Y154144D01*
X-32438Y154166D01*
X-32406Y154199D01*
X-32358Y154246D01*
X-32304Y154300D01*
X-32235Y154366D01*
X-32151Y154439D01*
X-32060Y154515D01*
X-32056Y154519D01*
X-32042Y154530D01*
X-32020Y154548D01*
X-31994Y154570D01*
X-31962Y154599D01*
X-31922Y154632D01*
X-31881Y154668D01*
X-31834Y154708D01*
X-31743Y154796D01*
X-31652Y154883D01*
X-31609Y154927D01*
X-31569Y154970D01*
X-31532Y155010D01*
X-31503Y155050D01*
Y155054D01*
X-31496Y155058D01*
X-31488Y155069D01*
X-31481Y155083D01*
X-31456Y155123D01*
X-31427Y155170D01*
X-31401Y155229D01*
X-31376Y155290D01*
X-31361Y155360D01*
X-31354Y155425D01*
Y155429D01*
Y155432D01*
X-31357Y155454D01*
X-31361Y155491D01*
X-31372Y155531D01*
X-31387Y155582D01*
X-31412Y155633D01*
X-31445Y155684D01*
X-31488Y155735D01*
X-31496Y155742D01*
X-31514Y155756D01*
X-31539Y155775D01*
X-31579Y155800D01*
X-31630Y155822D01*
X-31689Y155844D01*
X-31758Y155858D01*
X-31834Y155862D01*
X-31856D01*
X-31871Y155858D01*
X-31914Y155855D01*
X-31965Y155844D01*
X-32020Y155829D01*
X-32082Y155804D01*
X-32140Y155771D01*
X-32195Y155727D01*
X-32202Y155720D01*
X-32216Y155702D01*
X-32238Y155673D01*
X-32260Y155629D01*
X-32286Y155578D01*
X-32307Y155513D01*
X-32322Y155440D01*
X-32329Y155356D01*
X-32646Y155389D01*
Y155392D01*
X-32642Y155403D01*
Y155422D01*
X-32639Y155447D01*
X-32631Y155476D01*
X-32624Y155509D01*
X-32613Y155549D01*
X-32602Y155589D01*
X-32573Y155676D01*
X-32530Y155764D01*
X-32504Y155807D01*
X-32471Y155851D01*
X-32438Y155891D01*
X-32402Y155928D01*
X-32398Y155931D01*
X-32391Y155935D01*
X-32380Y155946D01*
X-32362Y155957D01*
X-32340Y155971D01*
X-32315Y155986D01*
X-32286Y156004D01*
X-32249Y156022D01*
X-32209Y156040D01*
X-32165Y156059D01*
X-32118Y156073D01*
X-32067Y156088D01*
X-32013Y156099D01*
X-31954Y156109D01*
X-31892Y156113D01*
X-31827Y156117D01*
X-31791D01*
X-31765Y156113D01*
D02*
G37*
G36*
X-35682D02*
X-35653Y156109D01*
X-35616Y156106D01*
X-35576Y156099D01*
X-35536Y156091D01*
X-35441Y156066D01*
X-35347Y156029D01*
X-35300Y156008D01*
X-35252Y155982D01*
X-35208Y155949D01*
X-35168Y155913D01*
X-35165Y155909D01*
X-35157Y155906D01*
X-35150Y155891D01*
X-35136Y155877D01*
X-35118Y155858D01*
X-35099Y155833D01*
X-35081Y155807D01*
X-35059Y155775D01*
X-35023Y155705D01*
X-34986Y155618D01*
X-34972Y155574D01*
X-34965Y155524D01*
X-34957Y155473D01*
X-34954Y155418D01*
Y155411D01*
Y155392D01*
X-34957Y155363D01*
X-34961Y155323D01*
X-34968Y155280D01*
X-34983Y155229D01*
X-34997Y155174D01*
X-35019Y155119D01*
X-35023Y155112D01*
X-35030Y155094D01*
X-35045Y155065D01*
X-35067Y155025D01*
X-35096Y154981D01*
X-35132Y154927D01*
X-35176Y154872D01*
X-35227Y154810D01*
X-35234Y154803D01*
X-35252Y154781D01*
X-35270Y154763D01*
X-35289Y154745D01*
X-35310Y154723D01*
X-35339Y154694D01*
X-35369Y154664D01*
X-35405Y154632D01*
X-35441Y154595D01*
X-35485Y154555D01*
X-35533Y154515D01*
X-35583Y154468D01*
X-35642Y154421D01*
X-35700Y154370D01*
X-35704Y154366D01*
X-35711Y154359D01*
X-35725Y154348D01*
X-35744Y154333D01*
X-35765Y154311D01*
X-35791Y154289D01*
X-35849Y154242D01*
X-35911Y154188D01*
X-35969Y154133D01*
X-36020Y154086D01*
X-36042Y154068D01*
X-36060Y154049D01*
X-36064Y154046D01*
X-36075Y154035D01*
X-36089Y154020D01*
X-36108Y153998D01*
X-36126Y153973D01*
X-36148Y153947D01*
X-36191Y153885D01*
X-34950D01*
Y153587D01*
X-36621D01*
Y153591D01*
Y153605D01*
Y153627D01*
X-36617Y153656D01*
X-36614Y153689D01*
X-36606Y153725D01*
X-36599Y153762D01*
X-36584Y153802D01*
Y153805D01*
X-36581Y153809D01*
X-36573Y153831D01*
X-36559Y153864D01*
X-36537Y153907D01*
X-36508Y153958D01*
X-36472Y154016D01*
X-36432Y154075D01*
X-36381Y154137D01*
Y154140D01*
X-36373Y154144D01*
X-36355Y154166D01*
X-36322Y154199D01*
X-36275Y154246D01*
X-36220Y154300D01*
X-36151Y154366D01*
X-36068Y154439D01*
X-35976Y154515D01*
X-35973Y154519D01*
X-35958Y154530D01*
X-35936Y154548D01*
X-35911Y154570D01*
X-35878Y154599D01*
X-35838Y154632D01*
X-35798Y154668D01*
X-35751Y154708D01*
X-35660Y154796D01*
X-35569Y154883D01*
X-35525Y154927D01*
X-35485Y154970D01*
X-35449Y155010D01*
X-35420Y155050D01*
Y155054D01*
X-35412Y155058D01*
X-35405Y155069D01*
X-35398Y155083D01*
X-35372Y155123D01*
X-35343Y155170D01*
X-35318Y155229D01*
X-35292Y155290D01*
X-35278Y155360D01*
X-35270Y155425D01*
Y155429D01*
Y155432D01*
X-35274Y155454D01*
X-35278Y155491D01*
X-35289Y155531D01*
X-35303Y155582D01*
X-35329Y155633D01*
X-35361Y155684D01*
X-35405Y155735D01*
X-35412Y155742D01*
X-35430Y155756D01*
X-35456Y155775D01*
X-35496Y155800D01*
X-35547Y155822D01*
X-35605Y155844D01*
X-35674Y155858D01*
X-35751Y155862D01*
X-35773D01*
X-35787Y155858D01*
X-35831Y155855D01*
X-35882Y155844D01*
X-35936Y155829D01*
X-35998Y155804D01*
X-36057Y155771D01*
X-36111Y155727D01*
X-36119Y155720D01*
X-36133Y155702D01*
X-36155Y155673D01*
X-36177Y155629D01*
X-36202Y155578D01*
X-36224Y155513D01*
X-36239Y155440D01*
X-36246Y155356D01*
X-36563Y155389D01*
Y155392D01*
X-36559Y155403D01*
Y155422D01*
X-36555Y155447D01*
X-36548Y155476D01*
X-36541Y155509D01*
X-36530Y155549D01*
X-36519Y155589D01*
X-36490Y155676D01*
X-36446Y155764D01*
X-36421Y155807D01*
X-36388Y155851D01*
X-36355Y155891D01*
X-36319Y155928D01*
X-36315Y155931D01*
X-36308Y155935D01*
X-36297Y155946D01*
X-36279Y155957D01*
X-36257Y155971D01*
X-36231Y155986D01*
X-36202Y156004D01*
X-36166Y156022D01*
X-36126Y156040D01*
X-36082Y156059D01*
X-36035Y156073D01*
X-35984Y156088D01*
X-35929Y156099D01*
X-35871Y156109D01*
X-35809Y156113D01*
X-35744Y156117D01*
X-35707D01*
X-35682Y156113D01*
D02*
G37*
G36*
X-37797Y156102D02*
X-37767D01*
X-37702Y156095D01*
X-37629Y156088D01*
X-37553Y156073D01*
X-37476Y156055D01*
X-37407Y156029D01*
X-37403D01*
X-37400Y156026D01*
X-37378Y156015D01*
X-37345Y155997D01*
X-37309Y155971D01*
X-37265Y155938D01*
X-37218Y155898D01*
X-37174Y155847D01*
X-37134Y155793D01*
X-37130Y155786D01*
X-37119Y155764D01*
X-37101Y155735D01*
X-37083Y155691D01*
X-37065Y155640D01*
X-37047Y155585D01*
X-37036Y155524D01*
X-37032Y155462D01*
Y155454D01*
Y155436D01*
X-37036Y155403D01*
X-37043Y155363D01*
X-37054Y155316D01*
X-37072Y155265D01*
X-37094Y155214D01*
X-37123Y155159D01*
X-37127Y155152D01*
X-37138Y155138D01*
X-37159Y155108D01*
X-37189Y155079D01*
X-37225Y155043D01*
X-37269Y155003D01*
X-37323Y154967D01*
X-37385Y154930D01*
X-37382D01*
X-37374Y154927D01*
X-37363Y154923D01*
X-37349Y154916D01*
X-37305Y154901D01*
X-37254Y154876D01*
X-37200Y154843D01*
X-37138Y154803D01*
X-37083Y154755D01*
X-37032Y154697D01*
X-37029Y154690D01*
X-37014Y154668D01*
X-36992Y154635D01*
X-36970Y154592D01*
X-36948Y154533D01*
X-36927Y154472D01*
X-36912Y154399D01*
X-36908Y154319D01*
Y154315D01*
Y154311D01*
Y154289D01*
X-36912Y154253D01*
X-36919Y154209D01*
X-36927Y154158D01*
X-36941Y154104D01*
X-36959Y154046D01*
X-36985Y153987D01*
X-36988Y153980D01*
X-36999Y153962D01*
X-37014Y153936D01*
X-37036Y153900D01*
X-37065Y153864D01*
X-37094Y153824D01*
X-37130Y153784D01*
X-37170Y153751D01*
X-37174Y153747D01*
X-37189Y153736D01*
X-37214Y153722D01*
X-37247Y153707D01*
X-37287Y153685D01*
X-37334Y153663D01*
X-37385Y153645D01*
X-37447Y153627D01*
X-37454D01*
X-37476Y153620D01*
X-37513Y153616D01*
X-37560Y153609D01*
X-37618Y153602D01*
X-37687Y153594D01*
X-37764Y153591D01*
X-37851Y153587D01*
X-38812D01*
Y156106D01*
X-37822D01*
X-37797Y156102D01*
D02*
G37*
G36*
X-33723Y156113D02*
X-33676Y156106D01*
X-33621Y156095D01*
X-33563Y156080D01*
X-33501Y156062D01*
X-33443Y156033D01*
X-33439D01*
X-33436Y156029D01*
X-33418Y156018D01*
X-33389Y156000D01*
X-33352Y155975D01*
X-33312Y155938D01*
X-33268Y155898D01*
X-33228Y155851D01*
X-33188Y155797D01*
X-33185Y155789D01*
X-33170Y155771D01*
X-33156Y155738D01*
X-33130Y155691D01*
X-33108Y155636D01*
X-33079Y155574D01*
X-33054Y155502D01*
X-33032Y155422D01*
Y155418D01*
X-33028Y155411D01*
X-33024Y155400D01*
X-33021Y155382D01*
X-33017Y155360D01*
X-33014Y155334D01*
X-33006Y155301D01*
X-33003Y155265D01*
X-32995Y155225D01*
X-32992Y155181D01*
X-32988Y155130D01*
X-32981Y155079D01*
X-32977Y155021D01*
Y154963D01*
X-32974Y154897D01*
Y154828D01*
Y154825D01*
Y154810D01*
Y154785D01*
Y154755D01*
X-32977Y154715D01*
Y154672D01*
X-32981Y154624D01*
X-32984Y154573D01*
X-32995Y154457D01*
X-33014Y154337D01*
X-33035Y154220D01*
X-33050Y154166D01*
X-33068Y154111D01*
Y154107D01*
X-33072Y154100D01*
X-33079Y154086D01*
X-33086Y154068D01*
X-33094Y154042D01*
X-33108Y154016D01*
X-33137Y153955D01*
X-33174Y153889D01*
X-33221Y153816D01*
X-33276Y153751D01*
X-33341Y153689D01*
X-33345D01*
X-33349Y153682D01*
X-33359Y153674D01*
X-33374Y153667D01*
X-33392Y153656D01*
X-33410Y153642D01*
X-33465Y153616D01*
X-33531Y153591D01*
X-33607Y153565D01*
X-33698Y153551D01*
X-33796Y153543D01*
X-33833D01*
X-33858Y153547D01*
X-33887Y153551D01*
X-33924Y153558D01*
X-33964Y153565D01*
X-34007Y153576D01*
X-34051Y153591D01*
X-34098Y153605D01*
X-34146Y153627D01*
X-34193Y153653D01*
X-34240Y153682D01*
X-34288Y153718D01*
X-34331Y153758D01*
X-34371Y153802D01*
X-34375Y153805D01*
X-34382Y153816D01*
X-34393Y153834D01*
X-34411Y153864D01*
X-34429Y153896D01*
X-34448Y153940D01*
X-34473Y153991D01*
X-34495Y154049D01*
X-34517Y154115D01*
X-34539Y154191D01*
X-34561Y154275D01*
X-34579Y154370D01*
X-34597Y154472D01*
X-34608Y154581D01*
X-34615Y154701D01*
X-34619Y154828D01*
Y154832D01*
Y154846D01*
Y154872D01*
Y154901D01*
X-34615Y154941D01*
Y154985D01*
X-34611Y155032D01*
X-34608Y155087D01*
X-34597Y155200D01*
X-34579Y155320D01*
X-34557Y155440D01*
X-34542Y155494D01*
X-34528Y155549D01*
Y155553D01*
X-34524Y155560D01*
X-34517Y155574D01*
X-34510Y155593D01*
X-34502Y155618D01*
X-34488Y155644D01*
X-34459Y155705D01*
X-34422Y155771D01*
X-34375Y155840D01*
X-34320Y155909D01*
X-34255Y155968D01*
X-34251D01*
X-34247Y155975D01*
X-34237Y155982D01*
X-34222Y155989D01*
X-34204Y156004D01*
X-34182Y156015D01*
X-34127Y156044D01*
X-34062Y156070D01*
X-33985Y156095D01*
X-33895Y156109D01*
X-33796Y156117D01*
X-33763D01*
X-33723Y156113D01*
D02*
G37*
%LPC*%
G36*
X19988Y76398D02*
X18965D01*
Y75472D01*
X19988D01*
Y76398D01*
D02*
G37*
G36*
X14988D02*
X13965D01*
Y75472D01*
X14988D01*
Y76398D01*
D02*
G37*
G36*
X9988D02*
X8965D01*
Y75472D01*
X9988D01*
Y76398D01*
D02*
G37*
G36*
X4988D02*
X3965D01*
Y75472D01*
X4988D01*
Y76398D01*
D02*
G37*
G36*
X-12D02*
X-1035D01*
Y75472D01*
X-12D01*
Y76398D01*
D02*
G37*
G36*
X-5012D02*
X-6035D01*
Y75472D01*
X-5012D01*
Y76398D01*
D02*
G37*
G36*
X18177D02*
X17154D01*
Y75472D01*
X18177D01*
Y76398D01*
D02*
G37*
G36*
X-6823D02*
X-7846D01*
Y75472D01*
X-6823D01*
Y76398D01*
D02*
G37*
G36*
X-1823D02*
X-2847D01*
Y75472D01*
X-1823D01*
Y76398D01*
D02*
G37*
G36*
X13177D02*
X12154D01*
Y75472D01*
X13177D01*
Y76398D01*
D02*
G37*
G36*
X3177D02*
X2153D01*
Y75472D01*
X3177D01*
Y76398D01*
D02*
G37*
G36*
X8177D02*
X7153D01*
Y75472D01*
X8177D01*
Y76398D01*
D02*
G37*
G36*
X19988Y74685D02*
X18965D01*
Y73760D01*
X19988D01*
Y74685D01*
D02*
G37*
G36*
X18177D02*
X17154D01*
Y73760D01*
X18177D01*
Y74685D01*
D02*
G37*
G36*
X14988D02*
X13965D01*
Y73760D01*
X14988D01*
Y74685D01*
D02*
G37*
G36*
X13177D02*
X12154D01*
Y73760D01*
X13177D01*
Y74685D01*
D02*
G37*
G36*
X9988D02*
X8965D01*
Y73760D01*
X9988D01*
Y74685D01*
D02*
G37*
G36*
X8177D02*
X7153D01*
Y73760D01*
X8177D01*
Y74685D01*
D02*
G37*
G36*
X4988D02*
X3965D01*
Y73760D01*
X4988D01*
Y74685D01*
D02*
G37*
G36*
X3177D02*
X2153D01*
Y73760D01*
X3177D01*
Y74685D01*
D02*
G37*
G36*
X-12D02*
X-1035D01*
Y73760D01*
X-12D01*
Y74685D01*
D02*
G37*
G36*
X-1823D02*
X-2847D01*
Y73760D01*
X-1823D01*
Y74685D01*
D02*
G37*
G36*
X-5012D02*
X-6035D01*
Y73760D01*
X-5012D01*
Y74685D01*
D02*
G37*
G36*
X-6823D02*
X-7846D01*
Y73760D01*
X-6823D01*
Y74685D01*
D02*
G37*
G36*
X-10012Y76398D02*
X-12846D01*
Y73760D01*
X-12846Y73760D01*
X-12750Y73260D01*
X-12834Y72835D01*
X-12727Y72297D01*
X-12423Y71841D01*
X-11967Y71537D01*
X-11429Y71430D01*
X-10892Y71537D01*
X-10436Y71841D01*
X-10131Y72297D01*
X-10024Y72835D01*
X-10109Y73260D01*
X-10012Y73760D01*
X-10012D01*
Y76398D01*
D02*
G37*
G36*
X-15012D02*
X-17846D01*
Y73760D01*
X-17846Y73760D01*
X-17750Y73260D01*
X-17834Y72835D01*
X-17727Y72297D01*
X-17423Y71841D01*
X-16967Y71537D01*
X-16429Y71430D01*
X-15891Y71537D01*
X-15436Y71841D01*
X-15131Y72297D01*
X-15024Y72835D01*
X-15109Y73260D01*
X-15012Y73760D01*
X-15012D01*
Y76398D01*
D02*
G37*
G36*
X26047Y71078D02*
X25740Y71017D01*
X25480Y70843D01*
X25306Y70583D01*
X25244Y70276D01*
X25306Y69968D01*
X25480Y69708D01*
X25740Y69534D01*
X26047Y69473D01*
X26355Y69534D01*
X26615Y69708D01*
X26789Y69968D01*
X26850Y70276D01*
X26789Y70583D01*
X26615Y70843D01*
X26355Y71017D01*
X26047Y71078D01*
D02*
G37*
G36*
X46122Y53559D02*
X45815Y53498D01*
X45554Y53324D01*
X45380Y53063D01*
X45319Y52756D01*
X45380Y52449D01*
X45554Y52188D01*
X45815Y52014D01*
X46122Y51953D01*
X46429Y52014D01*
X46690Y52188D01*
X46864Y52449D01*
X46925Y52756D01*
X46864Y53063D01*
X46690Y53324D01*
X46429Y53498D01*
X46122Y53559D01*
D02*
G37*
G36*
X-197Y52795D02*
X-9252D01*
Y51437D01*
X-10780D01*
X-10818Y51493D01*
X-11273Y51798D01*
X-11811Y51905D01*
X-12236Y51820D01*
X-12736Y51850D01*
X-12736Y51850D01*
X-12736Y51850D01*
X-15374D01*
Y49016D01*
X-15059D01*
Y47913D01*
X-15374D01*
Y45079D01*
X-12736D01*
Y47913D01*
X-13052D01*
Y48674D01*
X-12736Y49016D01*
X-12236Y49180D01*
X-11811Y49095D01*
X-11273Y49202D01*
X-10933Y49430D01*
X-9252D01*
Y48071D01*
X-197D01*
Y52795D01*
D02*
G37*
G36*
X-16122Y51850D02*
X-18760D01*
Y51236D01*
X-22501D01*
X-22629Y51427D01*
X-23084Y51731D01*
X-23622Y51838D01*
X-24160Y51731D01*
X-24615Y51427D01*
X-24920Y50971D01*
X-25027Y50433D01*
X-24920Y49895D01*
X-24615Y49440D01*
X-24160Y49135D01*
X-23622Y49028D01*
X-23084Y49135D01*
X-22629Y49440D01*
X-22501Y49630D01*
X-18760D01*
Y49016D01*
X-18244D01*
Y47913D01*
X-18760D01*
Y45079D01*
X-16122D01*
Y47913D01*
X-16638D01*
Y49016D01*
X-16122D01*
Y51850D01*
D02*
G37*
G36*
X39567Y52795D02*
X30512D01*
Y51838D01*
X27433D01*
X26895Y51731D01*
X26440Y51427D01*
X24507Y49494D01*
X24202Y49038D01*
X24095Y48500D01*
Y47500D01*
X24202Y46962D01*
X24507Y46507D01*
X24962Y46202D01*
X25500Y46095D01*
X26038Y46202D01*
X26493Y46507D01*
X26798Y46962D01*
X26905Y47500D01*
Y47918D01*
X28015Y49028D01*
X30512D01*
Y48071D01*
X39567D01*
Y52795D01*
D02*
G37*
G36*
X49272Y31850D02*
X48346D01*
Y30827D01*
X49272D01*
Y31850D01*
D02*
G37*
G36*
X47559D02*
X46634D01*
Y30827D01*
X47559D01*
Y31850D01*
D02*
G37*
G36*
X49272Y30039D02*
X48346D01*
Y29016D01*
X49272D01*
Y30039D01*
D02*
G37*
G36*
X47559D02*
X46634D01*
Y29016D01*
X47559D01*
Y30039D01*
D02*
G37*
G36*
X-15807Y29346D02*
X-16114Y29285D01*
X-16375Y29111D01*
X-16549Y28850D01*
X-16610Y28543D01*
X-16549Y28236D01*
X-16375Y27976D01*
X-16114Y27802D01*
X-15807Y27740D01*
X-15500Y27802D01*
X-15239Y27976D01*
X-15065Y28236D01*
X-15004Y28543D01*
X-15065Y28850D01*
X-15239Y29111D01*
X-15500Y29285D01*
X-15807Y29346D01*
D02*
G37*
G36*
X49272Y27913D02*
X48346D01*
Y26890D01*
X49272D01*
Y27913D01*
D02*
G37*
G36*
X47559D02*
X46634D01*
Y26890D01*
X47559D01*
Y27913D01*
D02*
G37*
G36*
X49272Y26102D02*
X48346D01*
Y25079D01*
X49272D01*
Y26102D01*
D02*
G37*
G36*
X47559D02*
X46634D01*
Y25079D01*
X47559D01*
Y26102D01*
D02*
G37*
G36*
X39567Y32795D02*
X30512D01*
Y28071D01*
X39567D01*
Y29430D01*
X43248D01*
Y29016D01*
X43563D01*
Y27913D01*
X43248D01*
Y25079D01*
X43563D01*
Y23996D01*
X43640Y23612D01*
X43857Y23287D01*
X44721Y22423D01*
X44824Y21903D01*
X45129Y21448D01*
X45584Y21143D01*
X46122Y21036D01*
X46660Y21143D01*
X47115Y21448D01*
X47420Y21903D01*
X47527Y22441D01*
X47420Y22979D01*
X47115Y23434D01*
X46660Y23739D01*
X46140Y23842D01*
X45570Y24412D01*
Y25079D01*
X45886D01*
Y27913D01*
X45570D01*
Y29016D01*
X45886D01*
Y31850D01*
X43248D01*
Y31437D01*
X39567D01*
Y32795D01*
D02*
G37*
G36*
Y22795D02*
X35433D01*
Y20827D01*
X39567D01*
Y22795D01*
D02*
G37*
G36*
X34646D02*
X30512D01*
Y20827D01*
X34646D01*
Y22795D01*
D02*
G37*
G36*
X39567Y20039D02*
X35433D01*
Y18071D01*
X39567D01*
Y20039D01*
D02*
G37*
G36*
X34646D02*
X30512D01*
Y18071D01*
X34646D01*
Y20039D01*
D02*
G37*
G36*
X-197Y22795D02*
X-9252D01*
Y18071D01*
X-197D01*
Y22795D01*
D02*
G37*
G36*
X42717Y803D02*
X42409Y742D01*
X42149Y568D01*
X41975Y307D01*
X41914Y0D01*
X41975Y-307D01*
X42149Y-568D01*
X42409Y-742D01*
X42717Y-803D01*
X43024Y-742D01*
X43284Y-568D01*
X43458Y-307D01*
X43519Y0D01*
X43458Y307D01*
X43284Y568D01*
X43024Y742D01*
X42717Y803D01*
D02*
G37*
G36*
X39567D02*
X39260Y742D01*
X38999Y568D01*
X38825Y307D01*
X38764Y0D01*
X38825Y-307D01*
X38999Y-568D01*
X39260Y-742D01*
X39567Y-803D01*
X39874Y-742D01*
X40135Y-568D01*
X40309Y-307D01*
X40370Y0D01*
X40309Y307D01*
X40135Y568D01*
X39874Y742D01*
X39567Y803D01*
D02*
G37*
G36*
X36417D02*
X36110Y742D01*
X35850Y568D01*
X35676Y307D01*
X35614Y0D01*
X35676Y-307D01*
X35850Y-568D01*
X36110Y-742D01*
X36417Y-803D01*
X36724Y-742D01*
X36985Y-568D01*
X37159Y-307D01*
X37220Y0D01*
X37159Y307D01*
X36985Y568D01*
X36724Y742D01*
X36417Y803D01*
D02*
G37*
G36*
X33268D02*
X32961Y742D01*
X32700Y568D01*
X32526Y307D01*
X32465Y0D01*
X32526Y-307D01*
X32700Y-568D01*
X32961Y-742D01*
X33268Y-803D01*
X33575Y-742D01*
X33835Y-568D01*
X34009Y-307D01*
X34071Y0D01*
X34009Y307D01*
X33835Y568D01*
X33575Y742D01*
X33268Y803D01*
D02*
G37*
G36*
X30118D02*
X29811Y742D01*
X29550Y568D01*
X29376Y307D01*
X29315Y0D01*
X29376Y-307D01*
X29550Y-568D01*
X29811Y-742D01*
X30118Y-803D01*
X30425Y-742D01*
X30686Y-568D01*
X30860Y-307D01*
X30921Y0D01*
X30860Y307D01*
X30686Y568D01*
X30425Y742D01*
X30118Y803D01*
D02*
G37*
G36*
X26969D02*
X26661Y742D01*
X26401Y568D01*
X26227Y307D01*
X26166Y0D01*
X26227Y-307D01*
X26401Y-568D01*
X26661Y-742D01*
X26969Y-803D01*
X27276Y-742D01*
X27536Y-568D01*
X27710Y-307D01*
X27771Y0D01*
X27710Y307D01*
X27536Y568D01*
X27276Y742D01*
X26969Y803D01*
D02*
G37*
G36*
X23819D02*
X23512Y742D01*
X23251Y568D01*
X23077Y307D01*
X23016Y0D01*
X23077Y-307D01*
X23251Y-568D01*
X23512Y-742D01*
X23819Y-803D01*
X24126Y-742D01*
X24387Y-568D01*
X24561Y-307D01*
X24622Y0D01*
X24561Y307D01*
X24387Y568D01*
X24126Y742D01*
X23819Y803D01*
D02*
G37*
G36*
X20669D02*
X20362Y742D01*
X20102Y568D01*
X19928Y307D01*
X19866Y0D01*
X19928Y-307D01*
X20102Y-568D01*
X20362Y-742D01*
X20669Y-803D01*
X20977Y-742D01*
X21237Y-568D01*
X21411Y-307D01*
X21472Y0D01*
X21411Y307D01*
X21237Y568D01*
X20977Y742D01*
X20669Y803D01*
D02*
G37*
G36*
X65456Y155827D02*
Y155824D01*
X65452Y155816D01*
Y155802D01*
X65445Y155787D01*
X65442Y155762D01*
X65434Y155736D01*
X65420Y155675D01*
X65402Y155602D01*
X65376Y155522D01*
X65351Y155434D01*
X65318Y155343D01*
X65045Y154608D01*
X65897D01*
X65635Y155300D01*
Y155303D01*
X65631Y155314D01*
X65624Y155332D01*
X65616Y155354D01*
X65605Y155380D01*
X65594Y155412D01*
X65583Y155449D01*
X65569Y155485D01*
X65540Y155569D01*
X65511Y155656D01*
X65482Y155744D01*
X65456Y155827D01*
D02*
G37*
G36*
X-27368Y155844D02*
Y155840D01*
X-27372Y155833D01*
Y155818D01*
X-27379Y155804D01*
X-27382Y155778D01*
X-27390Y155753D01*
X-27404Y155691D01*
X-27422Y155618D01*
X-27448Y155538D01*
X-27474Y155451D01*
X-27506Y155360D01*
X-27779Y154624D01*
X-26928D01*
X-27190Y155316D01*
Y155320D01*
X-27193Y155331D01*
X-27200Y155349D01*
X-27208Y155371D01*
X-27219Y155396D01*
X-27230Y155429D01*
X-27240Y155465D01*
X-27255Y155502D01*
X-27284Y155585D01*
X-27313Y155673D01*
X-27343Y155760D01*
X-27368Y155844D01*
D02*
G37*
G36*
X-29716D02*
Y155840D01*
X-29719Y155833D01*
Y155818D01*
X-29727Y155804D01*
X-29730Y155778D01*
X-29738Y155753D01*
X-29752Y155691D01*
X-29770Y155618D01*
X-29796Y155538D01*
X-29821Y155451D01*
X-29854Y155360D01*
X-30127Y154624D01*
X-29275D01*
X-29537Y155316D01*
Y155320D01*
X-29541Y155331D01*
X-29548Y155349D01*
X-29556Y155371D01*
X-29566Y155396D01*
X-29577Y155429D01*
X-29588Y155465D01*
X-29603Y155502D01*
X-29632Y155585D01*
X-29661Y155673D01*
X-29690Y155760D01*
X-29716Y155844D01*
D02*
G37*
G36*
X-37880Y155807D02*
X-38477D01*
Y155050D01*
X-37858D01*
X-37811Y155054D01*
X-37760Y155058D01*
X-37709Y155061D01*
X-37658Y155069D01*
X-37618Y155076D01*
X-37611Y155079D01*
X-37596Y155083D01*
X-37574Y155094D01*
X-37545Y155108D01*
X-37516Y155123D01*
X-37484Y155145D01*
X-37451Y155174D01*
X-37425Y155203D01*
X-37422Y155207D01*
X-37414Y155218D01*
X-37403Y155240D01*
X-37393Y155265D01*
X-37382Y155294D01*
X-37371Y155331D01*
X-37363Y155374D01*
X-37360Y155422D01*
Y155429D01*
Y155443D01*
X-37363Y155465D01*
X-37367Y155494D01*
X-37374Y155531D01*
X-37385Y155567D01*
X-37400Y155604D01*
X-37422Y155640D01*
X-37425Y155644D01*
X-37433Y155655D01*
X-37447Y155673D01*
X-37465Y155691D01*
X-37491Y155713D01*
X-37520Y155735D01*
X-37556Y155756D01*
X-37596Y155771D01*
X-37600D01*
X-37618Y155778D01*
X-37644Y155782D01*
X-37684Y155789D01*
X-37738Y155797D01*
X-37800Y155800D01*
X-37880Y155807D01*
D02*
G37*
G36*
X-37815Y154752D02*
X-38477D01*
Y153885D01*
X-37760D01*
X-37684Y153889D01*
X-37651Y153893D01*
X-37622Y153896D01*
X-37618D01*
X-37604Y153900D01*
X-37582Y153904D01*
X-37556Y153911D01*
X-37494Y153933D01*
X-37433Y153962D01*
X-37429Y153966D01*
X-37418Y153973D01*
X-37403Y153984D01*
X-37385Y153998D01*
X-37367Y154020D01*
X-37341Y154042D01*
X-37323Y154071D01*
X-37301Y154104D01*
X-37298Y154107D01*
X-37294Y154118D01*
X-37287Y154140D01*
X-37276Y154166D01*
X-37265Y154195D01*
X-37258Y154231D01*
X-37254Y154275D01*
X-37251Y154319D01*
Y154326D01*
Y154341D01*
X-37254Y154370D01*
X-37262Y154402D01*
X-37269Y154439D01*
X-37283Y154479D01*
X-37301Y154519D01*
X-37327Y154559D01*
X-37331Y154562D01*
X-37341Y154577D01*
X-37356Y154595D01*
X-37378Y154617D01*
X-37407Y154643D01*
X-37444Y154668D01*
X-37484Y154690D01*
X-37531Y154708D01*
X-37538Y154712D01*
X-37553Y154715D01*
X-37585Y154723D01*
X-37626Y154730D01*
X-37676Y154737D01*
X-37738Y154745D01*
X-37815Y154752D01*
D02*
G37*
G36*
X-33800Y155862D02*
X-33822D01*
X-33836Y155858D01*
X-33876Y155851D01*
X-33924Y155840D01*
X-33978Y155818D01*
X-34036Y155786D01*
X-34065Y155764D01*
X-34095Y155742D01*
X-34120Y155713D01*
X-34146Y155680D01*
Y155676D01*
X-34153Y155669D01*
X-34160Y155655D01*
X-34171Y155636D01*
X-34182Y155607D01*
X-34197Y155574D01*
X-34207Y155534D01*
X-34222Y155487D01*
X-34237Y155432D01*
X-34251Y155371D01*
X-34266Y155301D01*
X-34277Y155225D01*
X-34288Y155138D01*
X-34295Y155043D01*
X-34299Y154941D01*
X-34302Y154828D01*
Y154821D01*
Y154803D01*
Y154770D01*
X-34299Y154726D01*
Y154679D01*
X-34295Y154621D01*
X-34291Y154559D01*
X-34284Y154493D01*
X-34266Y154351D01*
X-34255Y154282D01*
X-34240Y154217D01*
X-34226Y154155D01*
X-34204Y154097D01*
X-34182Y154046D01*
X-34157Y154002D01*
Y153998D01*
X-34149Y153995D01*
X-34131Y153969D01*
X-34098Y153936D01*
X-34058Y153900D01*
X-34004Y153864D01*
X-33942Y153831D01*
X-33873Y153805D01*
X-33836Y153802D01*
X-33796Y153798D01*
X-33774D01*
X-33760Y153802D01*
X-33723Y153809D01*
X-33672Y153824D01*
X-33618Y153849D01*
X-33556Y153885D01*
X-33527Y153907D01*
X-33498Y153936D01*
X-33469Y153966D01*
X-33439Y154002D01*
Y154006D01*
X-33432Y154013D01*
X-33425Y154024D01*
X-33418Y154042D01*
X-33403Y154068D01*
X-33392Y154100D01*
X-33378Y154137D01*
X-33363Y154180D01*
X-33352Y154235D01*
X-33338Y154293D01*
X-33323Y154362D01*
X-33312Y154435D01*
X-33305Y154523D01*
X-33298Y154613D01*
X-33290Y154715D01*
Y154828D01*
Y154832D01*
Y154835D01*
Y154854D01*
Y154886D01*
X-33294Y154930D01*
Y154978D01*
X-33298Y155036D01*
X-33301Y155098D01*
X-33308Y155167D01*
X-33327Y155305D01*
X-33338Y155374D01*
X-33352Y155440D01*
X-33367Y155502D01*
X-33389Y155560D01*
X-33410Y155611D01*
X-33436Y155655D01*
Y155658D01*
X-33443Y155662D01*
X-33450Y155673D01*
X-33461Y155687D01*
X-33494Y155720D01*
X-33534Y155760D01*
X-33589Y155797D01*
X-33651Y155829D01*
X-33683Y155844D01*
X-33720Y155855D01*
X-33760Y155858D01*
X-33800Y155862D01*
D02*
G37*
%LPD*%
D11*
X37516Y79921D02*
X41925D01*
X45311D02*
X49213D01*
X-17441Y46496D02*
Y50433D01*
X-23622D02*
X-17441D01*
X44291Y-7283D02*
X45000Y-6575D01*
Y1784D01*
X-16429Y84055D02*
Y89429D01*
X-19654Y90520D02*
X-17520D01*
X-16429Y89429D01*
X-19685Y90551D02*
X-19654Y90520D01*
X-11429Y72835D02*
Y75079D01*
X-13929Y117835D02*
X-11429D01*
X-16429D02*
X-13929D01*
X-11429Y84055D02*
Y90551D01*
X-6429Y78465D02*
Y84055D01*
X3571Y80544D02*
Y84055D01*
X3544Y80544D02*
X3557Y80530D01*
Y78478D02*
Y80530D01*
Y78478D02*
X3571Y78465D01*
X13571D02*
Y84055D01*
X31728Y79921D02*
X33972D01*
X-16429Y72835D02*
Y75079D01*
X-6429Y105315D02*
Y108858D01*
X13571Y105315D02*
Y108858D01*
X3571Y105315D02*
Y108858D01*
X18571Y105315D02*
Y108858D01*
X8571Y105315D02*
Y108858D01*
X-1429Y105315D02*
Y108858D01*
X18571Y84055D02*
Y87598D01*
X8571Y84055D02*
Y87598D01*
X-1429Y84055D02*
Y87598D01*
X-11429Y108858D02*
Y114449D01*
X-11429Y108858D02*
X-11429Y108858D01*
X13571Y78465D02*
X18571D01*
X3571D02*
X8571D01*
X-6429D02*
X-1429D01*
X-11429D02*
Y84055D01*
X-16429Y78465D02*
X-11429D01*
D14*
X-11429Y114449D02*
D03*
Y117835D02*
D03*
X-16429Y114449D02*
D03*
Y117835D02*
D03*
X18571Y75079D02*
D03*
Y78465D02*
D03*
X13571D02*
D03*
Y75079D02*
D03*
X8571D02*
D03*
Y78465D02*
D03*
X3571D02*
D03*
Y75079D02*
D03*
X-1429D02*
D03*
Y78465D02*
D03*
X-6429D02*
D03*
Y75079D02*
D03*
X-11429Y78465D02*
D03*
Y75079D02*
D03*
X-16429Y78465D02*
D03*
Y75079D02*
D03*
D15*
Y82677D02*
D03*
Y110236D02*
D03*
X18571Y82677D02*
D03*
Y110236D02*
D03*
X13571Y82677D02*
D03*
X-11429D02*
D03*
Y110236D02*
D03*
X13571D02*
D03*
X8571D02*
D03*
X3571D02*
D03*
X-1429D02*
D03*
X-6429D02*
D03*
Y82677D02*
D03*
X-1429D02*
D03*
X3571D02*
D03*
X8571D02*
D03*
D16*
X44567Y30433D02*
D03*
X47953D02*
D03*
X44567Y26496D02*
D03*
X47953D02*
D03*
X-14055Y50433D02*
D03*
X-17441D02*
D03*
X-14055Y46496D02*
D03*
X-17441D02*
D03*
X45311Y79921D02*
D03*
X41925D02*
D03*
D17*
X41421Y133858D02*
D03*
X48783D02*
D03*
X11476D02*
D03*
X18839D02*
D03*
X-18051D02*
D03*
X-10689D02*
D03*
D18*
X43331Y127953D02*
D03*
X46874D02*
D03*
X13386D02*
D03*
X16929D02*
D03*
X-16142D02*
D03*
X-12598D02*
D03*
X33972Y79921D02*
D03*
X37516D02*
D03*
D19*
X-4724Y20433D02*
D03*
Y50433D02*
D03*
X35039D02*
D03*
Y30433D02*
D03*
Y20433D02*
D03*
D33*
X60039Y-7283D02*
D03*
X56890D02*
D03*
X53740D02*
D03*
X50591D02*
D03*
X47441D02*
D03*
X44291D02*
D03*
X41142D02*
D03*
X37992D02*
D03*
X34843D02*
D03*
X31693D02*
D03*
X28543D02*
D03*
X25394D02*
D03*
X22244D02*
D03*
X19094D02*
D03*
X15945D02*
D03*
X12795D02*
D03*
X9646D02*
D03*
X6496D02*
D03*
X-9252D02*
D03*
X-12402D02*
D03*
X-15551D02*
D03*
X-18701D02*
D03*
X-21850D02*
D03*
X-25000D02*
D03*
X-28150D02*
D03*
X-31299D02*
D03*
D34*
X9843Y127756D02*
X13386D01*
X39787Y127953D02*
X43331D01*
X-19685D02*
X-16142D01*
X13386Y127756D02*
Y127953D01*
X43331Y127756D02*
Y127953D01*
X-21850Y-1575D02*
X-20276Y0D01*
X-21850Y-7283D02*
Y-1575D01*
X-27000Y76000D02*
Y106000D01*
X-24142Y108858D02*
X-16429D01*
X-27000Y106000D02*
X-24142Y108858D01*
X-14055Y50433D02*
X-4724D01*
X44567Y23996D02*
X46122Y22441D01*
X44567Y23996D02*
Y26496D01*
Y30433D01*
X35039D02*
X44567D01*
X-14055Y46496D02*
Y50433D01*
D35*
X27433D02*
X35039D01*
X25500Y48500D02*
X27433Y50433D01*
X25500Y47500D02*
Y48500D01*
X34142Y133858D02*
X41362D01*
X8000Y143000D02*
X25000D01*
X34142Y133858D01*
X5142D02*
X11417D01*
X-4528Y143528D02*
X5142Y133858D01*
X-4528Y143528D02*
Y153543D01*
X5315Y145685D02*
X8000Y143000D01*
X5315Y145685D02*
Y153543D01*
X-18110Y133858D02*
Y139961D01*
X-14370Y143701D01*
Y153543D01*
X60039Y-7284D02*
Y1677D01*
X50590Y-7284D02*
Y1677D01*
X15945Y-7284D02*
Y1677D01*
X6496Y-7284D02*
Y1677D01*
X-9252Y-7284D02*
Y1677D01*
D36*
X-16339Y108949D02*
Y114358D01*
X-16429Y114449D02*
X-16339Y114358D01*
X-16429Y108858D02*
X-16339Y108949D01*
X48842Y127953D02*
Y133858D01*
X46874Y127953D02*
X48842D01*
X18898D02*
Y133858D01*
X16929Y127953D02*
X18898D01*
X-12598D02*
X-10630D01*
Y133858D01*
D37*
X44685Y153543D02*
D03*
D38*
X34843D02*
D03*
X25000D02*
D03*
X15157D02*
D03*
X5315D02*
D03*
X-4528D02*
D03*
X-14370D02*
D03*
D39*
X62795Y176378D02*
D03*
X-32480D02*
D03*
D40*
X39787Y127953D02*
D03*
X9843Y127756D02*
D03*
X-19685Y127953D02*
D03*
X-20276Y0D02*
D03*
X65744Y33622D02*
D03*
Y21811D02*
D03*
Y10000D02*
D03*
X53933Y33622D02*
D03*
Y21811D02*
D03*
X42122Y33622D02*
D03*
X30311Y10000D02*
D03*
X18500Y33622D02*
D03*
Y10000D02*
D03*
X6689Y33622D02*
D03*
Y10000D02*
D03*
X-5122Y33622D02*
D03*
Y10000D02*
D03*
X-29472Y33622D02*
D03*
Y21811D02*
D03*
Y10000D02*
D03*
X-40555Y33622D02*
D03*
Y21811D02*
D03*
Y10000D02*
D03*
X-16429Y72835D02*
D03*
X-11429Y90551D02*
D03*
X31728Y79921D02*
D03*
X49213D02*
D03*
X25500Y47500D02*
D03*
X-23622Y50433D02*
D03*
X-19685Y90551D02*
D03*
X-11429Y72835D02*
D03*
X-13929Y117835D02*
D03*
X3544Y80544D02*
D03*
X-6500Y80500D02*
D03*
X13500D02*
D03*
X-11811Y50500D02*
D03*
X48842Y127953D02*
D03*
X18898D02*
D03*
X-10630D02*
D03*
X-6429Y105315D02*
D03*
X13571D02*
D03*
X3571D02*
D03*
X18571D02*
D03*
X8571D02*
D03*
X-1429D02*
D03*
X18571Y87598D02*
D03*
X8571D02*
D03*
X-1429D02*
D03*
X46122Y22441D02*
D03*
M02*
