G04*
G04 #@! TF.GenerationSoftware,Altium Limited,Altium Designer,22.1.2 (22)*
G04*
G04 Layer_Color=8388736*
%FSLAX25Y25*%
%MOIN*%
G70*
G04*
G04 #@! TF.SameCoordinates,DC6CBC75-D83B-4164-BAAA-666503FEC379*
G04*
G04*
G04 #@! TF.FilePolarity,Negative*
G04*
G01*
G75*
%ADD20C,0.02958*%
%ADD21R,1.03150X0.11516*%
%ADD22R,1.18110X0.10630*%
%ADD23R,0.02126X0.01929*%
%ADD24R,0.02835X0.04016*%
%ADD25R,0.01929X0.02126*%
%ADD26R,0.02835X0.05591*%
%ADD27R,0.02047X0.02441*%
%ADD28R,0.02441X0.09134*%
%ADD29R,0.08346X0.04016*%
%ADD30R,0.05915X0.05915*%
%ADD31C,0.05915*%
%ADD32R,0.20945X0.20945*%
G36*
X-14112Y16098D02*
X-13918D01*
Y16050D01*
X-13530D01*
Y16098D01*
X-13045D01*
Y16050D01*
X-12560D01*
Y16001D01*
X-12269D01*
Y15953D01*
X-12075D01*
Y15904D01*
X-12026D01*
Y15856D01*
X-11929D01*
Y15807D01*
X-11832D01*
Y15759D01*
X-11784D01*
Y15710D01*
X-11735D01*
Y15662D01*
X-11687D01*
Y15613D01*
X-11638D01*
Y15565D01*
X-11590D01*
Y15516D01*
X-11541D01*
Y15468D01*
Y15419D01*
X-11590D01*
Y15371D01*
Y15322D01*
X-11541D01*
Y15371D01*
X-11492D01*
Y15419D01*
X-11444D01*
Y15371D01*
Y15322D01*
X-11395D01*
Y15274D01*
Y15225D01*
X-11298D01*
Y15177D01*
X-11347D01*
Y15128D01*
X-11250D01*
Y15080D01*
X-11201D01*
Y15031D01*
Y14983D01*
Y14934D01*
X-11153D01*
Y14886D01*
X-11104D01*
Y14837D01*
Y14789D01*
X-11056D01*
Y14740D01*
Y14692D01*
Y14643D01*
X-11007D01*
Y14595D01*
Y14546D01*
X-10959D01*
Y14498D01*
Y14449D01*
X-10910D01*
Y14401D01*
Y14352D01*
X-10862D01*
Y14304D01*
X-10813D01*
Y14255D01*
Y14207D01*
X-10765D01*
Y14158D01*
Y14110D01*
X-10716D01*
Y14061D01*
X-10668D01*
Y14013D01*
X-10716D01*
Y13964D01*
X-10668D01*
Y13916D01*
X-10619D01*
Y13867D01*
Y13818D01*
Y13770D01*
X-10571D01*
Y13722D01*
Y13673D01*
Y13624D01*
X-10522D01*
Y13576D01*
Y13528D01*
Y13479D01*
Y13431D01*
Y13382D01*
X-10474D01*
Y13333D01*
Y13285D01*
X-9843D01*
Y13236D01*
X-9892D01*
Y13188D01*
X-9989D01*
Y13139D01*
X-10183D01*
Y13091D01*
X-9892D01*
Y13042D01*
X-9940D01*
Y12994D01*
X-9989D01*
Y13042D01*
X-10037D01*
Y12994D01*
X-10086D01*
Y12945D01*
X-10425D01*
Y12897D01*
Y12848D01*
Y12800D01*
Y12751D01*
Y12703D01*
Y12654D01*
Y12606D01*
Y12557D01*
Y12509D01*
Y12460D01*
X-10474D01*
Y12412D01*
Y12363D01*
Y12315D01*
Y12266D01*
X-10522D01*
Y12218D01*
X-10571D01*
Y12169D01*
X-10522D01*
Y12121D01*
X-10571D01*
Y12072D01*
X-10619D01*
Y12024D01*
X-10668D01*
Y11975D01*
X-10619D01*
Y11927D01*
X-10668D01*
Y11878D01*
Y11830D01*
X-10716D01*
Y11878D01*
X-10765D01*
Y11830D01*
X-10716D01*
Y11781D01*
Y11733D01*
X-10765D01*
Y11684D01*
X-10813D01*
Y11636D01*
Y11587D01*
X-10862D01*
Y11539D01*
X-10959D01*
Y11490D01*
Y11442D01*
X-11056D01*
Y11393D01*
X-11104D01*
Y11345D01*
X-11201D01*
Y11296D01*
X-11347D01*
Y11248D01*
X-11590D01*
Y11296D01*
X-11735D01*
Y11345D01*
X-11832D01*
Y11393D01*
X-11880D01*
Y11442D01*
X-11929D01*
Y11490D01*
X-11978D01*
Y11539D01*
Y11587D01*
Y11636D01*
X-12026D01*
Y11684D01*
Y11733D01*
X-12075D01*
Y11781D01*
Y11830D01*
Y11878D01*
Y11927D01*
X-12026D01*
Y11975D01*
X-11978D01*
Y12024D01*
X-12026D01*
Y12072D01*
X-11978D01*
Y12121D01*
Y12169D01*
X-11929D01*
Y12218D01*
X-11880D01*
Y12266D01*
X-11832D01*
Y12315D01*
X-11687D01*
Y12266D01*
X-11638D01*
Y12218D01*
Y12169D01*
X-11687D01*
Y12121D01*
X-11638D01*
Y12072D01*
Y12024D01*
X-11687D01*
Y11975D01*
X-11735D01*
Y11927D01*
Y11878D01*
Y11830D01*
X-11687D01*
Y11781D01*
X-11590D01*
Y11733D01*
X-11444D01*
Y11781D01*
X-11347D01*
Y11830D01*
X-11298D01*
Y11878D01*
X-11250D01*
Y11927D01*
Y11975D01*
Y12024D01*
X-11201D01*
Y12072D01*
X-11153D01*
Y12121D01*
X-11201D01*
Y12169D01*
X-11153D01*
Y12218D01*
Y12266D01*
Y12315D01*
Y12363D01*
Y12412D01*
Y12460D01*
Y12509D01*
Y12557D01*
Y12606D01*
Y12654D01*
Y12703D01*
Y12751D01*
X-11104D01*
Y12800D01*
X-11153D01*
Y12848D01*
Y12897D01*
X-11201D01*
Y12945D01*
Y12994D01*
X-11250D01*
Y13042D01*
Y13091D01*
Y13139D01*
X-11298D01*
Y13188D01*
Y13236D01*
X-11347D01*
Y13285D01*
Y13333D01*
X-11395D01*
Y13382D01*
X-11687D01*
Y13333D01*
X-11832D01*
Y13382D01*
X-11880D01*
Y13431D01*
X-11978D01*
Y13479D01*
X-12026D01*
Y13528D01*
X-12123D01*
Y13576D01*
X-12463D01*
Y13528D01*
X-12511D01*
Y13479D01*
X-12608D01*
Y13431D01*
Y13382D01*
X-12754D01*
Y13333D01*
Y13285D01*
X-12851D01*
Y13236D01*
X-12948D01*
Y13285D01*
X-12996D01*
Y13236D01*
X-13093D01*
Y13285D01*
X-13190D01*
Y13333D01*
X-13287D01*
Y13382D01*
X-13384D01*
Y13431D01*
Y13479D01*
X-13433D01*
Y13431D01*
X-13481D01*
Y13479D01*
X-13530D01*
Y13528D01*
X-13578D01*
Y13576D01*
Y13624D01*
X-13530D01*
Y13673D01*
X-13627D01*
Y13624D01*
Y13576D01*
X-13675D01*
Y13624D01*
X-13724D01*
Y13673D01*
X-13772D01*
Y13722D01*
X-13821D01*
Y13770D01*
X-13869D01*
Y13818D01*
X-13918D01*
Y13867D01*
X-13966D01*
Y13916D01*
X-14015D01*
Y13964D01*
Y14013D01*
X-14063D01*
Y14061D01*
X-14112D01*
Y14110D01*
X-14160D01*
Y14158D01*
Y14207D01*
X-14209D01*
Y14255D01*
X-14257D01*
Y14304D01*
Y14352D01*
X-14306D01*
Y14304D01*
Y14255D01*
X-14257D01*
Y14207D01*
Y14158D01*
X-14209D01*
Y14110D01*
Y14061D01*
X-14160D01*
Y14013D01*
X-14112D01*
Y13964D01*
X-14063D01*
Y13916D01*
Y13867D01*
X-14015D01*
Y13818D01*
X-13966D01*
Y13770D01*
X-13918D01*
Y13722D01*
X-13869D01*
Y13673D01*
X-13821D01*
Y13624D01*
X-13724D01*
Y13576D01*
X-13675D01*
Y13528D01*
X-13627D01*
Y13479D01*
X-13578D01*
Y13431D01*
X-13481D01*
Y13382D01*
X-13433D01*
Y13333D01*
Y13285D01*
X-13336D01*
Y13236D01*
Y13188D01*
Y13139D01*
Y13091D01*
Y13042D01*
Y12994D01*
Y12945D01*
Y12897D01*
X-13287D01*
Y12848D01*
Y12800D01*
Y12751D01*
Y12703D01*
Y12654D01*
Y12606D01*
Y12557D01*
Y12509D01*
X-13239D01*
Y12460D01*
X-13190D01*
Y12412D01*
Y12363D01*
Y12315D01*
X-13142D01*
Y12266D01*
Y12218D01*
X-13093D01*
Y12169D01*
Y12121D01*
Y12072D01*
Y12024D01*
Y11975D01*
X-13045D01*
Y11927D01*
Y11878D01*
Y11830D01*
X-12996D01*
Y11781D01*
Y11733D01*
X-13045D01*
Y11684D01*
X-12996D01*
Y11636D01*
X-12948D01*
Y11587D01*
Y11539D01*
X-12996D01*
Y11490D01*
X-12948D01*
Y11442D01*
Y11393D01*
X-12899D01*
Y11345D01*
Y11296D01*
Y11248D01*
X-12851D01*
Y11199D01*
Y11151D01*
Y11102D01*
Y11054D01*
X-12802D01*
Y11005D01*
Y10956D01*
Y10908D01*
X-12754D01*
Y10859D01*
X-12802D01*
Y10811D01*
X-12754D01*
Y10763D01*
X-12705D01*
Y10714D01*
Y10666D01*
Y10617D01*
X-12657D01*
Y10569D01*
Y10520D01*
Y10471D01*
X-12608D01*
Y10423D01*
X-12657D01*
Y10374D01*
X-12608D01*
Y10326D01*
Y10277D01*
X-12560D01*
Y10229D01*
X-12608D01*
Y10180D01*
X-12560D01*
Y10132D01*
Y10083D01*
Y10035D01*
Y9986D01*
Y9938D01*
X-12511D01*
Y9889D01*
Y9841D01*
Y9792D01*
X-12463D01*
Y9744D01*
Y9695D01*
X-12414D01*
Y9647D01*
Y9598D01*
X-12366D01*
Y9550D01*
Y9501D01*
X-12317D01*
Y9453D01*
X-12269D01*
Y9404D01*
Y9356D01*
X-12220D01*
Y9307D01*
X-12172D01*
Y9259D01*
X-12123D01*
Y9210D01*
Y9162D01*
X-12172D01*
Y9113D01*
X-12317D01*
Y9065D01*
X-12754D01*
Y9016D01*
X-12802D01*
Y9065D01*
X-13142D01*
Y9113D01*
Y9162D01*
X-13190D01*
Y9210D01*
Y9259D01*
Y9307D01*
Y9356D01*
X-13142D01*
Y9404D01*
Y9453D01*
X-13093D01*
Y9501D01*
X-13045D01*
Y9550D01*
Y9598D01*
X-13093D01*
Y9647D01*
Y9695D01*
Y9744D01*
X-13142D01*
Y9792D01*
Y9841D01*
Y9889D01*
X-13190D01*
Y9938D01*
Y9986D01*
Y10035D01*
X-13239D01*
Y10083D01*
Y10132D01*
X-13287D01*
Y10180D01*
Y10229D01*
X-13336D01*
Y10277D01*
Y10326D01*
X-13384D01*
Y10374D01*
Y10423D01*
X-13433D01*
Y10471D01*
X-13481D01*
Y10520D01*
Y10569D01*
X-13530D01*
Y10617D01*
X-13481D01*
Y10666D01*
X-13578D01*
Y10714D01*
Y10763D01*
Y10811D01*
X-13675D01*
Y10859D01*
Y10908D01*
X-13724D01*
Y10956D01*
Y11005D01*
X-13772D01*
Y11054D01*
X-13821D01*
Y11102D01*
X-13724D01*
Y11151D01*
X-13869D01*
Y11199D01*
X-13918D01*
Y11248D01*
Y11296D01*
X-13966D01*
Y11345D01*
X-14015D01*
Y11393D01*
X-14063D01*
Y11442D01*
X-14112D01*
Y11490D01*
X-14160D01*
Y11539D01*
X-14209D01*
Y11587D01*
X-14257D01*
Y11636D01*
X-14306D01*
Y11684D01*
X-14355D01*
Y11733D01*
X-14403D01*
Y11781D01*
X-14451D01*
Y11830D01*
Y11878D01*
X-14500D01*
Y11927D01*
X-14548D01*
Y11975D01*
Y12024D01*
X-14597D01*
Y12072D01*
X-14646D01*
Y12121D01*
Y12169D01*
X-14694D01*
Y12218D01*
Y12266D01*
X-14742D01*
Y12315D01*
Y12363D01*
X-14791D01*
Y12315D01*
Y12266D01*
X-14742D01*
Y12218D01*
Y12169D01*
X-14694D01*
Y12121D01*
Y12072D01*
X-14646D01*
Y12024D01*
Y11975D01*
X-14597D01*
Y11927D01*
X-14548D01*
Y11878D01*
Y11830D01*
X-14500D01*
Y11781D01*
X-14451D01*
Y11733D01*
Y11684D01*
X-14403D01*
Y11636D01*
Y11587D01*
Y11539D01*
Y11490D01*
X-14451D01*
Y11442D01*
Y11393D01*
Y11345D01*
X-14500D01*
Y11296D01*
Y11248D01*
Y11199D01*
X-14548D01*
Y11151D01*
Y11102D01*
X-14597D01*
Y11054D01*
Y11005D01*
Y10956D01*
X-14646D01*
Y10908D01*
Y10859D01*
Y10811D01*
X-14694D01*
Y10763D01*
Y10714D01*
Y10666D01*
Y10617D01*
X-14742D01*
Y10569D01*
Y10520D01*
Y10471D01*
Y10423D01*
X-14791D01*
Y10374D01*
Y10326D01*
Y10277D01*
X-14840D01*
Y10229D01*
Y10180D01*
X-14888D01*
Y10132D01*
Y10083D01*
Y10035D01*
X-14937D01*
Y9986D01*
Y9938D01*
X-14985D01*
Y9889D01*
Y9841D01*
Y9792D01*
Y9744D01*
Y9695D01*
X-15034D01*
Y9647D01*
Y9598D01*
X-14985D01*
Y9550D01*
Y9501D01*
Y9453D01*
X-14937D01*
Y9404D01*
X-14888D01*
Y9356D01*
X-14840D01*
Y9307D01*
X-14791D01*
Y9259D01*
X-14742D01*
Y9210D01*
Y9162D01*
X-14694D01*
Y9113D01*
Y9065D01*
Y9016D01*
X-14791D01*
Y8968D01*
X-15422D01*
Y9016D01*
X-15567D01*
Y8968D01*
X-15810D01*
Y9016D01*
X-15858D01*
Y9065D01*
Y9113D01*
Y9162D01*
Y9210D01*
X-15810D01*
Y9259D01*
Y9307D01*
X-15761D01*
Y9356D01*
X-15664D01*
Y9404D01*
Y9453D01*
Y9501D01*
X-15616D01*
Y9550D01*
X-15664D01*
Y9598D01*
Y9647D01*
Y9695D01*
Y9744D01*
Y9792D01*
Y9841D01*
Y9889D01*
Y9938D01*
Y9986D01*
Y10035D01*
Y10083D01*
X-15616D01*
Y10132D01*
Y10180D01*
Y10229D01*
Y10277D01*
Y10326D01*
Y10374D01*
Y10423D01*
Y10471D01*
X-15567D01*
Y10520D01*
Y10569D01*
Y10617D01*
Y10666D01*
Y10714D01*
X-15519D01*
Y10763D01*
Y10811D01*
Y10859D01*
Y10908D01*
Y10956D01*
Y11005D01*
X-15470D01*
Y11054D01*
Y11102D01*
Y11151D01*
Y11199D01*
Y11248D01*
Y11296D01*
Y11345D01*
Y11393D01*
Y11442D01*
Y11490D01*
Y11539D01*
Y11587D01*
X-15422D01*
Y11636D01*
X-15470D01*
Y11684D01*
Y11733D01*
Y11781D01*
Y11830D01*
Y11878D01*
Y11927D01*
Y11975D01*
Y12024D01*
X-15519D01*
Y12072D01*
Y12121D01*
Y12169D01*
X-15616D01*
Y12121D01*
X-15713D01*
Y12072D01*
X-15810D01*
Y12024D01*
X-15907D01*
Y11975D01*
X-16052D01*
Y11927D01*
X-16198D01*
Y11878D01*
X-16440D01*
Y11830D01*
X-16537D01*
Y11878D01*
X-16683D01*
Y11830D01*
X-17022D01*
Y11878D01*
X-17071D01*
Y11830D01*
X-17022D01*
Y11781D01*
X-17120D01*
Y11733D01*
Y11684D01*
X-17168D01*
Y11636D01*
X-17217D01*
Y11587D01*
X-17265D01*
Y11539D01*
X-17313D01*
Y11490D01*
X-17362D01*
Y11442D01*
X-17411D01*
Y11393D01*
X-17459D01*
Y11345D01*
X-17507D01*
Y11296D01*
Y11248D01*
X-17556D01*
Y11199D01*
Y11151D01*
Y11102D01*
X-17605D01*
Y11054D01*
Y11005D01*
X-17653D01*
Y10956D01*
Y10908D01*
Y10859D01*
X-17702D01*
Y10811D01*
Y10763D01*
Y10714D01*
Y10666D01*
X-17653D01*
Y10617D01*
Y10569D01*
Y10520D01*
Y10471D01*
Y10423D01*
Y10374D01*
Y10326D01*
Y10277D01*
Y10229D01*
Y10180D01*
Y10132D01*
Y10083D01*
Y10035D01*
Y9986D01*
Y9938D01*
Y9889D01*
X-17605D01*
Y9841D01*
Y9792D01*
Y9744D01*
X-17556D01*
Y9695D01*
Y9647D01*
X-17507D01*
Y9598D01*
X-17459D01*
Y9550D01*
X-17411D01*
Y9501D01*
X-17362D01*
Y9453D01*
X-17313D01*
Y9404D01*
X-17265D01*
Y9356D01*
X-17217D01*
Y9307D01*
X-17168D01*
Y9259D01*
Y9210D01*
Y9162D01*
X-17217D01*
Y9113D01*
X-18284D01*
Y9162D01*
X-18381D01*
Y9210D01*
Y9259D01*
Y9307D01*
Y9356D01*
Y9404D01*
Y9453D01*
Y9501D01*
Y9550D01*
Y9598D01*
Y9647D01*
Y9695D01*
Y9744D01*
Y9792D01*
Y9841D01*
X-18332D01*
Y9889D01*
Y9938D01*
Y9986D01*
Y10035D01*
Y10083D01*
X-18284D01*
Y10132D01*
Y10180D01*
Y10229D01*
Y10277D01*
Y10326D01*
Y10374D01*
Y10423D01*
Y10471D01*
Y10520D01*
Y10569D01*
Y10617D01*
Y10666D01*
Y10714D01*
Y10763D01*
Y10811D01*
Y10859D01*
X-18332D01*
Y10908D01*
Y10956D01*
Y11005D01*
Y11054D01*
Y11102D01*
Y11151D01*
Y11199D01*
X-18381D01*
Y11248D01*
X-18429D01*
Y11296D01*
X-18478D01*
Y11345D01*
X-18429D01*
Y11393D01*
X-18381D01*
Y11442D01*
X-18332D01*
Y11490D01*
X-18284D01*
Y11539D01*
X-18235D01*
Y11587D01*
Y11636D01*
X-18187D01*
Y11684D01*
X-18090D01*
Y11733D01*
Y11781D01*
Y11830D01*
X-18138D01*
Y11781D01*
X-18187D01*
Y11733D01*
X-18235D01*
Y11684D01*
X-18284D01*
Y11636D01*
Y11587D01*
X-18332D01*
Y11539D01*
X-18381D01*
Y11587D01*
X-18478D01*
Y11539D01*
X-18381D01*
Y11490D01*
X-18429D01*
Y11442D01*
X-18478D01*
Y11393D01*
X-18526D01*
Y11345D01*
Y11296D01*
X-18575D01*
Y11248D01*
X-18623D01*
Y11199D01*
X-18672D01*
Y11151D01*
X-18720D01*
Y11102D01*
Y11054D01*
X-18769D01*
Y11005D01*
X-18817D01*
Y10956D01*
Y10908D01*
X-18866D01*
Y10859D01*
Y10811D01*
X-18963D01*
Y10763D01*
X-18914D01*
Y10714D01*
X-18963D01*
Y10666D01*
X-19011D01*
Y10617D01*
Y10569D01*
Y10520D01*
X-19060D01*
Y10471D01*
Y10423D01*
X-19108D01*
Y10374D01*
Y10326D01*
X-19157D01*
Y10277D01*
X-19108D01*
Y10229D01*
X-19157D01*
Y10180D01*
Y10132D01*
Y10083D01*
Y10035D01*
X-19205D01*
Y10083D01*
X-19254D01*
Y10035D01*
X-19205D01*
Y9986D01*
Y9938D01*
Y9889D01*
Y9841D01*
X-19254D01*
Y9792D01*
Y9744D01*
Y9695D01*
X-19302D01*
Y9647D01*
Y9598D01*
Y9550D01*
X-19351D01*
Y9501D01*
X-19302D01*
Y9453D01*
Y9404D01*
Y9356D01*
X-19254D01*
Y9307D01*
X-19302D01*
Y9356D01*
X-19351D01*
Y9307D01*
X-19302D01*
Y9259D01*
Y9210D01*
Y9162D01*
X-19399D01*
Y9113D01*
X-19448D01*
Y9162D01*
X-19884D01*
Y9210D01*
X-19933D01*
Y9259D01*
X-19981D01*
Y9307D01*
Y9356D01*
X-20030D01*
Y9404D01*
Y9453D01*
Y9501D01*
Y9550D01*
Y9598D01*
Y9647D01*
X-19981D01*
Y9695D01*
Y9744D01*
X-19933D01*
Y9792D01*
X-19884D01*
Y9841D01*
X-19836D01*
Y9889D01*
X-19787D01*
Y9841D01*
X-19739D01*
Y9889D01*
X-19787D01*
Y9938D01*
Y9986D01*
Y10035D01*
Y10083D01*
X-19739D01*
Y10132D01*
Y10180D01*
Y10229D01*
X-19690D01*
Y10277D01*
Y10326D01*
X-19642D01*
Y10374D01*
Y10423D01*
X-19739D01*
Y10374D01*
X-19787D01*
Y10423D01*
Y10471D01*
X-19884D01*
Y10520D01*
Y10569D01*
X-19836D01*
Y10617D01*
Y10666D01*
Y10714D01*
Y10763D01*
Y10811D01*
X-19787D01*
Y10859D01*
Y10908D01*
Y10956D01*
X-19739D01*
Y11005D01*
Y11054D01*
Y11102D01*
Y11151D01*
X-19690D01*
Y11199D01*
Y11248D01*
Y11296D01*
X-19642D01*
Y11345D01*
Y11393D01*
Y11442D01*
X-19593D01*
Y11490D01*
Y11539D01*
Y11587D01*
Y11636D01*
X-19545D01*
Y11587D01*
X-19496D01*
Y11539D01*
Y11490D01*
Y11442D01*
Y11393D01*
X-19545D01*
Y11345D01*
Y11296D01*
Y11248D01*
Y11199D01*
X-19593D01*
Y11151D01*
Y11102D01*
Y11054D01*
X-19642D01*
Y11005D01*
Y10956D01*
Y10908D01*
Y10859D01*
Y10811D01*
Y10763D01*
Y10714D01*
Y10666D01*
Y10617D01*
Y10569D01*
Y10520D01*
X-19690D01*
Y10471D01*
X-19593D01*
Y10520D01*
Y10569D01*
Y10617D01*
X-19545D01*
Y10666D01*
Y10714D01*
Y10763D01*
Y10811D01*
X-19496D01*
Y10859D01*
Y10908D01*
Y10956D01*
Y11005D01*
Y11054D01*
X-19448D01*
Y11102D01*
Y11151D01*
Y11199D01*
Y11248D01*
Y11296D01*
Y11345D01*
Y11393D01*
Y11442D01*
Y11490D01*
Y11539D01*
Y11587D01*
Y11636D01*
X-19496D01*
Y11684D01*
X-19545D01*
Y11733D01*
Y11781D01*
Y11830D01*
X-19496D01*
Y11878D01*
Y11927D01*
Y11975D01*
Y12024D01*
Y12072D01*
Y12121D01*
Y12169D01*
Y12218D01*
X-19448D01*
Y12266D01*
Y12315D01*
Y12363D01*
Y12412D01*
Y12460D01*
Y12509D01*
Y12557D01*
X-19399D01*
Y12606D01*
Y12654D01*
Y12703D01*
Y12751D01*
Y12800D01*
Y12848D01*
Y12897D01*
Y12945D01*
Y12994D01*
Y13042D01*
Y13091D01*
Y13139D01*
Y13188D01*
Y13236D01*
Y13285D01*
Y13333D01*
Y13382D01*
Y13431D01*
Y13479D01*
X-19351D01*
Y13528D01*
Y13576D01*
Y13624D01*
Y13673D01*
Y13722D01*
X-19302D01*
Y13770D01*
Y13818D01*
X-19254D01*
Y13867D01*
Y13916D01*
Y13964D01*
X-19205D01*
Y14013D01*
X-19157D01*
Y14061D01*
Y14110D01*
X-19108D01*
Y14158D01*
Y14207D01*
X-19011D01*
Y14255D01*
Y14304D01*
Y14352D01*
X-18963D01*
Y14401D01*
X-18914D01*
Y14449D01*
X-18817D01*
Y14498D01*
X-18866D01*
Y14546D01*
X-18817D01*
Y14595D01*
X-18769D01*
Y14643D01*
Y14692D01*
X-18720D01*
Y14740D01*
X-18672D01*
Y14789D01*
Y14837D01*
X-18623D01*
Y14886D01*
X-18575D01*
Y14934D01*
X-18526D01*
Y14886D01*
X-18478D01*
Y14934D01*
X-18526D01*
Y14983D01*
Y15031D01*
X-18478D01*
Y15080D01*
X-18429D01*
Y15128D01*
X-18381D01*
Y15177D01*
X-18332D01*
Y15225D01*
X-18187D01*
Y15274D01*
Y15322D01*
X-18138D01*
Y15274D01*
X-18090D01*
Y15322D01*
Y15371D01*
X-17993D01*
Y15419D01*
X-17896D01*
Y15468D01*
X-17702D01*
Y15516D01*
X-17556D01*
Y15468D01*
X-17507D01*
Y15516D01*
X-17556D01*
Y15565D01*
X-17168D01*
Y15613D01*
X-16004D01*
Y15662D01*
X-15761D01*
Y15710D01*
X-15616D01*
Y15759D01*
X-15470D01*
Y15807D01*
X-15325D01*
Y15856D01*
X-15131D01*
Y15904D01*
X-14985D01*
Y15953D01*
X-14791D01*
Y16001D01*
X-14694D01*
Y16050D01*
X-14548D01*
Y16098D01*
X-14500D01*
Y16050D01*
X-14451D01*
Y16098D01*
X-14403D01*
Y16050D01*
X-14355D01*
Y16098D01*
X-14403D01*
Y16147D01*
X-14112D01*
Y16098D01*
D02*
G37*
G36*
X41728Y156501D02*
X47642D01*
Y150586D01*
X41728D01*
Y156501D01*
D02*
G37*
%LPC*%
G36*
X-13869Y15856D02*
X-13918D01*
Y15807D01*
X-13869D01*
Y15759D01*
X-13821D01*
Y15807D01*
X-13869D01*
Y15856D01*
D02*
G37*
G36*
Y15759D02*
X-13918D01*
Y15710D01*
X-13869D01*
Y15759D01*
D02*
G37*
G36*
X-13918Y15710D02*
X-13966D01*
Y15662D01*
X-13918D01*
Y15710D01*
D02*
G37*
G36*
X-14015D02*
X-14160D01*
Y15662D01*
X-14015D01*
Y15710D01*
D02*
G37*
G36*
X-14160Y15662D02*
X-14306D01*
Y15613D01*
X-14403D01*
Y15565D01*
X-14500D01*
Y15516D01*
X-14548D01*
Y15468D01*
X-14597D01*
Y15419D01*
X-14646D01*
Y15371D01*
Y15322D01*
Y15274D01*
Y15225D01*
Y15177D01*
Y15128D01*
Y15080D01*
Y15031D01*
Y14983D01*
X-14597D01*
Y14934D01*
Y14886D01*
Y14837D01*
Y14789D01*
X-14548D01*
Y14740D01*
Y14692D01*
Y14643D01*
X-14500D01*
Y14692D01*
Y14740D01*
Y14789D01*
X-14548D01*
Y14837D01*
Y14886D01*
Y14934D01*
Y14983D01*
Y15031D01*
X-14597D01*
Y15080D01*
Y15128D01*
Y15177D01*
Y15225D01*
Y15274D01*
Y15322D01*
Y15371D01*
X-14548D01*
Y15419D01*
X-14500D01*
Y15371D01*
X-14451D01*
Y15419D01*
X-14500D01*
Y15468D01*
X-14403D01*
Y15516D01*
X-14355D01*
Y15565D01*
X-14257D01*
Y15613D01*
X-14160D01*
Y15662D01*
D02*
G37*
G36*
X-18187Y15177D02*
X-18235D01*
Y15128D01*
X-18187D01*
Y15177D01*
D02*
G37*
G36*
X-12026Y15128D02*
X-12075D01*
Y15080D01*
X-12026D01*
Y15031D01*
X-11880D01*
Y14983D01*
X-11832D01*
Y15031D01*
X-11784D01*
Y15080D01*
X-12026D01*
Y15128D01*
D02*
G37*
G36*
X-11832Y15225D02*
X-11978D01*
Y15177D01*
X-11832D01*
Y15128D01*
X-11784D01*
Y15080D01*
X-11735D01*
Y15031D01*
Y14983D01*
Y14934D01*
X-11687D01*
Y14983D01*
Y15031D01*
Y15080D01*
X-11735D01*
Y15128D01*
X-11784D01*
Y15177D01*
X-11832D01*
Y15225D01*
D02*
G37*
G36*
X-14694Y15031D02*
X-14742D01*
Y14983D01*
Y14934D01*
X-14646D01*
Y14983D01*
X-14694D01*
Y15031D01*
D02*
G37*
G36*
X-14451Y14595D02*
X-14500D01*
Y14546D01*
X-14451D01*
Y14595D01*
D02*
G37*
G36*
X-14306Y14449D02*
X-14355D01*
Y14401D01*
X-14306D01*
Y14449D01*
D02*
G37*
G36*
X-12220Y14401D02*
X-12269D01*
Y14352D01*
X-12220D01*
Y14401D01*
D02*
G37*
G36*
X-12172Y14255D02*
X-12220D01*
Y14207D01*
Y14158D01*
Y14110D01*
X-12172D01*
Y14158D01*
Y14207D01*
Y14255D01*
D02*
G37*
G36*
X-12317Y13916D02*
X-12366D01*
Y13867D01*
X-12317D01*
Y13916D01*
D02*
G37*
G36*
X-12220Y14013D02*
X-12269D01*
Y13964D01*
Y13916D01*
Y13867D01*
X-12220D01*
Y13818D01*
X-12172D01*
Y13867D01*
X-12220D01*
Y13916D01*
Y13964D01*
Y14013D01*
D02*
G37*
G36*
X-12269Y13818D02*
X-12317D01*
Y13770D01*
Y13722D01*
X-12269D01*
Y13770D01*
Y13818D01*
D02*
G37*
G36*
X-12317Y13722D02*
X-12366D01*
Y13673D01*
Y13624D01*
X-12317D01*
Y13673D01*
Y13722D01*
D02*
G37*
G36*
X-11784Y13431D02*
X-11832D01*
Y13382D01*
X-11784D01*
Y13431D01*
D02*
G37*
G36*
X-13578D02*
X-13627D01*
Y13382D01*
X-13578D01*
Y13431D01*
D02*
G37*
G36*
X-12802Y13382D02*
X-12851D01*
Y13333D01*
X-12802D01*
Y13382D01*
D02*
G37*
G36*
X-17799Y12751D02*
X-17847D01*
Y12703D01*
X-17799D01*
Y12751D01*
D02*
G37*
G36*
X-14840Y12606D02*
X-14888D01*
Y12557D01*
X-14840D01*
Y12606D01*
D02*
G37*
G36*
X-14791Y12460D02*
X-14840D01*
Y12412D01*
X-14791D01*
Y12460D01*
D02*
G37*
G36*
X-17799Y12557D02*
X-17847D01*
Y12509D01*
Y12460D01*
Y12412D01*
X-17799D01*
Y12460D01*
Y12509D01*
Y12557D01*
D02*
G37*
G36*
X-11687Y12266D02*
X-11784D01*
Y12218D01*
X-11687D01*
Y12266D01*
D02*
G37*
G36*
X-17896Y12412D02*
X-17944D01*
Y12363D01*
X-17896D01*
Y12315D01*
Y12266D01*
Y12218D01*
X-17847D01*
Y12266D01*
Y12315D01*
Y12363D01*
X-17896D01*
Y12412D01*
D02*
G37*
G36*
X-11687Y12121D02*
X-11735D01*
Y12072D01*
X-11687D01*
Y12121D01*
D02*
G37*
G36*
X-13093Y11975D02*
X-13142D01*
Y11927D01*
X-13093D01*
Y11975D01*
D02*
G37*
G36*
X-17896Y12218D02*
X-17944D01*
Y12169D01*
Y12121D01*
X-17993D01*
Y12072D01*
Y12024D01*
X-18041D01*
Y11975D01*
Y11927D01*
X-18090D01*
Y11878D01*
Y11830D01*
X-18041D01*
Y11878D01*
X-17993D01*
Y11927D01*
Y11975D01*
X-17944D01*
Y12024D01*
Y12072D01*
X-17896D01*
Y12121D01*
Y12169D01*
Y12218D01*
D02*
G37*
G36*
X-11735Y11830D02*
X-11784D01*
Y11781D01*
X-11735D01*
Y11830D01*
D02*
G37*
G36*
X-13433Y10714D02*
X-13481D01*
Y10666D01*
X-13433D01*
Y10714D01*
D02*
G37*
G36*
X-12705Y10617D02*
X-12754D01*
Y10569D01*
X-12705D01*
Y10617D01*
D02*
G37*
G36*
X-19108Y10520D02*
X-19157D01*
Y10471D01*
X-19108D01*
Y10520D01*
D02*
G37*
G36*
X-19545Y10423D02*
X-19593D01*
Y10374D01*
X-19545D01*
Y10423D01*
D02*
G37*
G36*
X-19302Y9792D02*
X-19351D01*
Y9744D01*
X-19302D01*
Y9792D01*
D02*
G37*
G36*
X-19690Y9259D02*
X-19739D01*
Y9210D01*
X-19690D01*
Y9259D01*
D02*
G37*
%LPD*%
D20*
X36321Y153543D02*
G03*
X36321Y153543I-1479J0D01*
G01*
X26479D02*
G03*
X26479Y153543I-1479J0D01*
G01*
X16636D02*
G03*
X16636Y153543I-1479J0D01*
G01*
X6794D02*
G03*
X6794Y153543I-1479J0D01*
G01*
X-3049D02*
G03*
X-3049Y153543I-1479J0D01*
G01*
X-12891D02*
G03*
X-12891Y153543I-1479J0D01*
G01*
D21*
X15157Y-8022D02*
D03*
D22*
X15157Y-7481D02*
D03*
D23*
X-11429Y114449D02*
D03*
Y117835D02*
D03*
X-16429Y114449D02*
D03*
Y117835D02*
D03*
X18571Y75079D02*
D03*
Y78465D02*
D03*
X13571D02*
D03*
Y75079D02*
D03*
X8571D02*
D03*
Y78465D02*
D03*
X3571D02*
D03*
Y75079D02*
D03*
X-1429D02*
D03*
Y78465D02*
D03*
X-6429D02*
D03*
Y75079D02*
D03*
X-11429Y78465D02*
D03*
Y75079D02*
D03*
X-16429Y78465D02*
D03*
Y75079D02*
D03*
D24*
Y82677D02*
D03*
Y110236D02*
D03*
X18571Y82677D02*
D03*
Y110236D02*
D03*
X13571Y82677D02*
D03*
X-11429D02*
D03*
Y110236D02*
D03*
X13571D02*
D03*
X8571D02*
D03*
X3571D02*
D03*
X-1429D02*
D03*
X-6429D02*
D03*
Y82677D02*
D03*
X-1429D02*
D03*
X3571D02*
D03*
X8571D02*
D03*
D25*
X44567Y30433D02*
D03*
X47953D02*
D03*
X44567Y26496D02*
D03*
X47953D02*
D03*
X-14055Y50433D02*
D03*
X-17441D02*
D03*
X-14055Y46496D02*
D03*
X-17441D02*
D03*
X45311Y79921D02*
D03*
X41925D02*
D03*
D26*
X41421Y133858D02*
D03*
X48783D02*
D03*
X11476D02*
D03*
X18839D02*
D03*
X-18051D02*
D03*
X-10689D02*
D03*
D27*
X43331Y127953D02*
D03*
X46874D02*
D03*
X13386D02*
D03*
X16929D02*
D03*
X-16142D02*
D03*
X-12598D02*
D03*
X33972Y79921D02*
D03*
X37516D02*
D03*
D28*
X60039Y-7283D02*
D03*
X56890D02*
D03*
X53740D02*
D03*
X50591D02*
D03*
X47441D02*
D03*
X44291D02*
D03*
X41142D02*
D03*
X37992D02*
D03*
X34843D02*
D03*
X31693D02*
D03*
X28543D02*
D03*
X25394D02*
D03*
X22244D02*
D03*
X19094D02*
D03*
X15945D02*
D03*
X12795D02*
D03*
X9646D02*
D03*
X6496D02*
D03*
X-9252D02*
D03*
X-12402D02*
D03*
X-15551D02*
D03*
X-18701D02*
D03*
X-21850D02*
D03*
X-25000D02*
D03*
X-28150D02*
D03*
X-31299D02*
D03*
D29*
X-4724Y20433D02*
D03*
Y50433D02*
D03*
X35039D02*
D03*
Y30433D02*
D03*
Y20433D02*
D03*
D30*
X44685Y153543D02*
D03*
D31*
X34843D02*
D03*
X25000D02*
D03*
X15157D02*
D03*
X5315D02*
D03*
X-4528D02*
D03*
X-14370D02*
D03*
D32*
X62795Y176378D02*
D03*
X-32480D02*
D03*
M02*
