G04*
G04 #@! TF.GenerationSoftware,Altium Limited,Altium Designer,22.1.2 (22)*
G04*
G04 Layer_Physical_Order=4*
G04 Layer_Color=16711680*
%FSLAX25Y25*%
%MOIN*%
G70*
G04*
G04 #@! TF.SameCoordinates,DC6CBC75-D83B-4164-BAAA-666503FEC379*
G04*
G04*
G04 #@! TF.FilePolarity,Positive*
G04*
G01*
G75*
%ADD11C,0.00787*%
%ADD14R,0.02047X0.01850*%
%ADD15R,0.02756X0.03937*%
%ADD16R,0.01850X0.02047*%
%ADD33R,0.02362X0.09055*%
%ADD34C,0.01181*%
%ADD35C,0.01968*%
%ADD36C,0.01575*%
%ADD37R,0.05315X0.05315*%
%ADD38C,0.05315*%
%ADD39R,0.20866X0.20866*%
%ADD40C,0.01968*%
%ADD42R,0.05512X0.02756*%
%ADD43R,0.02362X0.05118*%
%ADD44R,0.13583X0.13583*%
%ADD45R,0.00984X0.02756*%
%ADD46R,0.02756X0.00984*%
%ADD47R,0.02756X0.02362*%
G36*
X54500Y66929D02*
X-24500D01*
Y139500D01*
X-17520D01*
Y136279D01*
X-13681D01*
Y135276D01*
X-13996D01*
Y132441D01*
X-13681D01*
Y131339D01*
X-13996D01*
Y128504D01*
X-13681D01*
Y127402D01*
X-13996D01*
Y124567D01*
X-13480D01*
Y120256D01*
X-13419Y119949D01*
X-13245Y119688D01*
X-12052Y118495D01*
X-11791Y118321D01*
X-11484Y118260D01*
X-11484Y118260D01*
X6588D01*
X7465Y117384D01*
Y113583D01*
X7382D01*
Y110499D01*
X7382Y110138D01*
X7021Y110138D01*
X6102D01*
Y109252D01*
X5709D01*
Y108858D01*
X3937D01*
Y108669D01*
X3937Y108366D01*
X3553Y108086D01*
X2918D01*
X2552Y108451D01*
X2046Y108661D01*
X1498D01*
X991Y108451D01*
X604Y108064D01*
X394Y107557D01*
Y107009D01*
X556Y106617D01*
X335Y106117D01*
X-1833D01*
X-5535Y109820D01*
X-5796Y109994D01*
X-6103Y110055D01*
X-11358D01*
Y110669D01*
X-13996D01*
Y107835D01*
X-11358D01*
Y108449D01*
X-6435D01*
X-2733Y104747D01*
X-2733Y104747D01*
X-2586Y104649D01*
X-2709Y104149D01*
X-3801D01*
X-5535Y105883D01*
X-5535Y105883D01*
X-5796Y106057D01*
X-6103Y106118D01*
X-8697D01*
X-9062Y106483D01*
X-9568Y106693D01*
X-10117D01*
X-10623Y106483D01*
X-10858Y106248D01*
X-11358Y106432D01*
Y106732D01*
X-13996D01*
Y103898D01*
X-11358D01*
Y104198D01*
X-10858Y104382D01*
X-10623Y104147D01*
X-10117Y103937D01*
X-9568D01*
X-9062Y104147D01*
X-8697Y104512D01*
X-6435D01*
X-4702Y102778D01*
X-4702Y102778D01*
X-4555Y102681D01*
X-4678Y102181D01*
X-8697D01*
X-9062Y102546D01*
X-9568Y102756D01*
X-10117D01*
X-10623Y102546D01*
X-10858Y102311D01*
X-11358Y102495D01*
Y102795D01*
X-13996D01*
Y99961D01*
X-11358D01*
Y100261D01*
X-10858Y100445D01*
X-10623Y100209D01*
X-10117Y100000D01*
X-9568D01*
X-9062Y100209D01*
X-8697Y100575D01*
X-4677D01*
X-4555Y100075D01*
X-4702Y99977D01*
X-4702Y99977D01*
X-6435Y98243D01*
X-11358D01*
Y98858D01*
X-13996D01*
Y96024D01*
X-11358D01*
Y96637D01*
X-6103D01*
X-5796Y96699D01*
X-5535Y96873D01*
X-3801Y98606D01*
X-2709D01*
X-2586Y98106D01*
X-2733Y98008D01*
X-2734Y98006D01*
X-6435Y94306D01*
X-11358D01*
Y94921D01*
X-13996D01*
Y92087D01*
X-11358D01*
Y92700D01*
X-6102D01*
X-5795Y92762D01*
X-5534Y92936D01*
X-1832Y96638D01*
X335D01*
X556Y96138D01*
X394Y95746D01*
Y95198D01*
X604Y94692D01*
X991Y94304D01*
X1498Y94094D01*
X2046D01*
X2552Y94304D01*
X2918Y94669D01*
X3937D01*
Y94587D01*
X7021D01*
X7382Y94587D01*
X7382Y94226D01*
Y91142D01*
X7465D01*
Y90122D01*
X7100Y89757D01*
X6890Y89250D01*
Y88702D01*
X7100Y88196D01*
X7487Y87808D01*
X7994Y87598D01*
X8542D01*
X9048Y87808D01*
X9436Y88196D01*
X9646Y88702D01*
Y89250D01*
X9436Y89757D01*
X9071Y90122D01*
Y90758D01*
X9350Y91142D01*
X9653Y91142D01*
X11122D01*
X11402Y90758D01*
Y90122D01*
X11037Y89757D01*
X10827Y89250D01*
Y88702D01*
X11037Y88196D01*
X11424Y87808D01*
X11931Y87598D01*
X12479D01*
X12870Y87760D01*
X13370Y87540D01*
Y87006D01*
X9432Y83068D01*
X9258Y82807D01*
X9197Y82500D01*
Y78543D01*
X7283D01*
Y78167D01*
X6929Y77815D01*
X4095D01*
Y75177D01*
X6929D01*
Y75177D01*
X7283Y75394D01*
X10697D01*
X10827Y75394D01*
X11197Y75081D01*
Y75000D01*
X11258Y74693D01*
X11432Y74432D01*
X11989Y73876D01*
X11989Y73875D01*
X12013Y73860D01*
X12795Y73077D01*
Y71063D01*
X16339D01*
Y71440D01*
X16693Y71791D01*
X19528D01*
Y74429D01*
X16693D01*
Y74429D01*
X16339Y74213D01*
X13931D01*
X13250Y74894D01*
X13397Y75337D01*
X13449Y75394D01*
X16339D01*
X16693Y75177D01*
Y75177D01*
X19528D01*
Y77815D01*
X19229D01*
X19044Y78315D01*
X19278Y78549D01*
X19488Y79056D01*
Y79604D01*
X19278Y80111D01*
X18891Y80498D01*
X18384Y80708D01*
X17836D01*
X17330Y80498D01*
X16942Y80111D01*
X16732Y79604D01*
Y79056D01*
X16942Y78549D01*
X16768Y78034D01*
X16339Y78412D01*
Y78543D01*
X12803D01*
Y81167D01*
X16709Y85074D01*
X16883Y85334D01*
X16945Y85642D01*
Y90758D01*
X17224Y91142D01*
X17528Y91142D01*
X17717D01*
Y92913D01*
X18504D01*
Y91142D01*
X18996D01*
X19276Y90758D01*
Y85039D01*
X19337Y84732D01*
X19511Y84471D01*
X21244Y82738D01*
Y77815D01*
X20630D01*
Y75177D01*
X23465D01*
Y77815D01*
X22850D01*
Y83070D01*
X22850Y83070D01*
X22789Y83378D01*
X22615Y83638D01*
X20882Y85372D01*
Y86464D01*
X21382Y86586D01*
X21480Y86440D01*
X25181Y82738D01*
Y80476D01*
X24816Y80111D01*
X24606Y79604D01*
Y79056D01*
X24816Y78549D01*
X25050Y78315D01*
X24865Y77815D01*
X24567D01*
Y75177D01*
X27402D01*
Y77815D01*
X27102D01*
X26917Y78315D01*
X27152Y78549D01*
X27362Y79056D01*
Y79604D01*
X27152Y80111D01*
X26787Y80476D01*
Y83070D01*
X26726Y83378D01*
X26552Y83638D01*
X26552Y83638D01*
X22850Y87340D01*
Y91142D01*
X22933D01*
Y94226D01*
X22933Y94587D01*
X23294Y94587D01*
X26378D01*
Y94669D01*
X30180D01*
X35850Y88999D01*
X35850Y88999D01*
X36110Y88825D01*
X36418Y88764D01*
X41673D01*
Y88150D01*
X44311D01*
Y90984D01*
X41673D01*
Y90370D01*
X36750D01*
X31080Y96040D01*
X30934Y96138D01*
X31059Y96638D01*
X32148D01*
X35850Y92936D01*
X35850Y92936D01*
X36110Y92762D01*
X36418Y92701D01*
X36418Y92701D01*
X41673D01*
Y92087D01*
X44311D01*
Y94921D01*
X41673D01*
Y94307D01*
X36750D01*
X33048Y98009D01*
X32902Y98106D01*
X33027Y98606D01*
X34117D01*
X35850Y96873D01*
X35850Y96873D01*
X36110Y96699D01*
X36418Y96638D01*
X36418Y96638D01*
X41673D01*
Y96024D01*
X44311D01*
Y98858D01*
X41673D01*
Y98244D01*
X36750D01*
X35017Y99977D01*
X34871Y100075D01*
X34996Y100575D01*
X41673D01*
Y99961D01*
X44311D01*
Y102795D01*
X41673D01*
Y102181D01*
X34993D01*
X34870Y102681D01*
X35017Y102778D01*
X36750Y104512D01*
X39012D01*
X39378Y104147D01*
X39884Y103937D01*
X40432D01*
X40939Y104147D01*
X41173Y104381D01*
X41673Y104196D01*
Y103898D01*
X44311D01*
Y106732D01*
X41673D01*
Y106433D01*
X41173Y106248D01*
X40939Y106483D01*
X40432Y106693D01*
X39884D01*
X39378Y106483D01*
X39013Y106118D01*
X36418D01*
X36418Y106118D01*
X36110Y106057D01*
X35850Y105883D01*
X35850Y105883D01*
X34116Y104149D01*
X33024D01*
X32901Y104649D01*
X33048Y104747D01*
X36750Y108449D01*
X41673D01*
Y107835D01*
X44311D01*
Y110669D01*
X41673D01*
Y110055D01*
X36418D01*
X36418Y110055D01*
X36110Y109994D01*
X35850Y109820D01*
X35850Y109820D01*
X32148Y106117D01*
X31056D01*
X30933Y106617D01*
X31080Y106716D01*
X36750Y112386D01*
X41673D01*
Y111772D01*
X44311D01*
Y114606D01*
X41673D01*
Y113992D01*
X36418D01*
X36110Y113931D01*
X35850Y113757D01*
X35850Y113757D01*
X30420Y108327D01*
X30195Y108369D01*
X29900Y108925D01*
X29921Y108977D01*
Y109526D01*
X29711Y110032D01*
X29324Y110420D01*
X28817Y110630D01*
X28269D01*
X27763Y110420D01*
X27397Y110055D01*
X26378D01*
Y110138D01*
X23294D01*
X22933Y110138D01*
X22933Y110499D01*
Y111417D01*
X22047D01*
Y111811D01*
X21654D01*
Y113583D01*
X21465D01*
X21161Y113583D01*
X20882Y113967D01*
Y117384D01*
X21758Y118260D01*
X45185D01*
X45492Y118321D01*
X45753Y118495D01*
X46946Y119688D01*
X47120Y119949D01*
X47181Y120256D01*
X47181Y120256D01*
Y124567D01*
X47697D01*
Y127402D01*
X47381D01*
Y128504D01*
X47697D01*
Y131339D01*
X47381D01*
Y132441D01*
X47697D01*
Y135276D01*
X45059D01*
Y132441D01*
X45374D01*
Y131339D01*
X45059D01*
Y128504D01*
X45374D01*
Y127402D01*
X45059D01*
Y124567D01*
X45575D01*
Y120588D01*
X44853Y119866D01*
X35886D01*
X35764Y120366D01*
X35910Y120464D01*
X37103Y121657D01*
X37277Y121917D01*
X37338Y122224D01*
X37338Y122224D01*
Y124567D01*
X37854D01*
Y127402D01*
X37539D01*
Y128504D01*
X37854D01*
Y131339D01*
X37539D01*
Y132441D01*
X37854D01*
Y135276D01*
X35217D01*
Y132441D01*
X35532D01*
Y131339D01*
X35217D01*
Y128504D01*
X35532D01*
Y127402D01*
X35217D01*
Y124567D01*
X35733D01*
Y122557D01*
X35010Y121834D01*
X26044D01*
X25921Y122334D01*
X26068Y122432D01*
X27261Y123625D01*
X27435Y123886D01*
X27496Y124193D01*
X27801Y124567D01*
X28012D01*
Y127402D01*
X27696D01*
Y128504D01*
X28012D01*
Y131339D01*
X27696D01*
Y132441D01*
X28012D01*
Y135276D01*
X25374D01*
Y132441D01*
X25689D01*
Y131339D01*
X25374D01*
Y128504D01*
X25689D01*
Y127402D01*
X25374D01*
Y124567D01*
X25374D01*
X25416Y124200D01*
X25050Y123803D01*
X17489D01*
X17181Y123742D01*
X16921Y123568D01*
X16921Y123568D01*
X15574Y122221D01*
X15400Y121960D01*
X15339Y121653D01*
Y113967D01*
X15059Y113583D01*
X14756Y113583D01*
X14567D01*
Y111811D01*
X13780D01*
Y113583D01*
X13287D01*
X13008Y113967D01*
Y121653D01*
X12946Y121960D01*
X12772Y122221D01*
X12772Y122221D01*
X11426Y123568D01*
X11165Y123742D01*
X10858Y123803D01*
X8651D01*
X8285Y124200D01*
X8327Y124567D01*
X8327D01*
Y127402D01*
X8011D01*
Y128504D01*
X8327D01*
Y131339D01*
X8011D01*
Y132441D01*
X8327D01*
Y135276D01*
X8011D01*
Y136279D01*
X8465D01*
Y139500D01*
X21607D01*
X21988Y139213D01*
Y136378D01*
X22304D01*
Y135276D01*
X21988D01*
Y132441D01*
X24626D01*
Y135276D01*
X24311D01*
Y136378D01*
X24626D01*
Y139213D01*
X25000Y139495D01*
X25374Y139213D01*
X25374Y139000D01*
Y138189D01*
X26693D01*
X28012D01*
Y139000D01*
X28012Y139213D01*
X28393Y139500D01*
X31450D01*
X31831Y139213D01*
Y136378D01*
X32146D01*
Y135276D01*
X31831D01*
Y132441D01*
X34468D01*
Y135276D01*
X34153D01*
Y136378D01*
X34468D01*
Y139213D01*
X34843Y139495D01*
X35217Y139213D01*
X35217Y139000D01*
Y138189D01*
X36535D01*
X37854D01*
Y139000D01*
X37854Y139213D01*
X38235Y139500D01*
X41292D01*
X41673Y139213D01*
Y136378D01*
X41989D01*
Y135276D01*
X41673D01*
Y132441D01*
X44311D01*
Y135276D01*
X43996D01*
Y136378D01*
X44311D01*
Y139213D01*
X44685Y139495D01*
X45059Y139213D01*
X45059Y139000D01*
Y138189D01*
X46378D01*
X47697D01*
Y139000D01*
X47697Y139213D01*
X48078Y139500D01*
X54500D01*
Y66929D01*
D02*
G37*
G36*
X2165Y136279D02*
X6004D01*
Y135276D01*
X5689D01*
Y132441D01*
X6004D01*
Y131339D01*
X5689D01*
Y128504D01*
X6004D01*
Y127402D01*
X5689D01*
Y124567D01*
X6205D01*
Y124193D01*
X6266Y123886D01*
X6440Y123625D01*
X7633Y122432D01*
X7780Y122334D01*
X7657Y121834D01*
X-1309D01*
X-2032Y122557D01*
Y124567D01*
X-1516D01*
Y127402D01*
X-1831D01*
Y128504D01*
X-1516D01*
Y131339D01*
X-1831D01*
Y132441D01*
X-1516D01*
Y135276D01*
X-1831D01*
Y136279D01*
X-1378D01*
Y139500D01*
X2165D01*
Y136279D01*
D02*
G37*
G36*
X-7677D02*
X-3838D01*
Y135276D01*
X-4154D01*
Y132441D01*
X-3838D01*
Y131339D01*
X-4154D01*
Y128504D01*
X-3838D01*
Y127402D01*
X-4154D01*
Y124567D01*
X-3638D01*
Y122224D01*
X-3576Y121917D01*
X-3402Y121657D01*
X-2209Y120464D01*
X-2063Y120366D01*
X-2185Y119866D01*
X-11152D01*
X-11874Y120588D01*
Y124567D01*
X-11358D01*
Y127402D01*
X-11674D01*
Y128504D01*
X-11358D01*
Y131339D01*
X-11674D01*
Y132441D01*
X-11358D01*
Y135276D01*
X-11674D01*
Y136279D01*
X-11220D01*
Y139500D01*
X-7677D01*
Y136279D01*
D02*
G37*
G36*
X73209Y807D02*
X68898D01*
X68873Y802D01*
X68848Y805D01*
X68540Y790D01*
X68468Y772D01*
X68393D01*
X67788Y652D01*
X67696Y614D01*
X67599Y595D01*
X67029Y358D01*
X66947Y303D01*
X66855Y266D01*
X66342Y-77D01*
X66272Y-147D01*
X66190Y-202D01*
X65753Y-639D01*
X65698Y-721D01*
X65629Y-791D01*
X65286Y-1304D01*
X65248Y-1396D01*
X65193Y-1478D01*
X65003Y-1936D01*
X43720D01*
Y-978D01*
X44014Y-538D01*
X44122Y0D01*
X44014Y538D01*
X43710Y993D01*
X43254Y1298D01*
X42717Y1405D01*
X42179Y1298D01*
X41723Y993D01*
X41418Y538D01*
X41397Y428D01*
X40887D01*
X40865Y538D01*
X40560Y993D01*
X40105Y1298D01*
X39567Y1405D01*
X39029Y1298D01*
X38574Y993D01*
X38269Y538D01*
X38247Y428D01*
X37737D01*
X37715Y538D01*
X37411Y993D01*
X36955Y1298D01*
X36417Y1405D01*
X35880Y1298D01*
X35424Y993D01*
X35119Y538D01*
X35097Y428D01*
X34588D01*
X34566Y538D01*
X34261Y993D01*
X33805Y1298D01*
X33268Y1405D01*
X32730Y1298D01*
X32274Y993D01*
X31970Y538D01*
X31948Y428D01*
X31438D01*
X31416Y538D01*
X31112Y993D01*
X30656Y1298D01*
X30118Y1405D01*
X29581Y1298D01*
X29125Y993D01*
X28820Y538D01*
X28798Y428D01*
X28288D01*
X28267Y538D01*
X27962Y993D01*
X27506Y1298D01*
X26969Y1405D01*
X26431Y1298D01*
X25975Y993D01*
X25670Y538D01*
X25649Y428D01*
X25139D01*
X25117Y538D01*
X24812Y993D01*
X24356Y1298D01*
X23819Y1405D01*
X23281Y1298D01*
X22825Y993D01*
X22521Y538D01*
X22499Y428D01*
X21989D01*
X21967Y538D01*
X21663Y993D01*
X21207Y1298D01*
X20669Y1405D01*
X20132Y1298D01*
X19676Y993D01*
X19371Y538D01*
X19264Y0D01*
X19371Y-538D01*
X19666Y-978D01*
Y-1936D01*
X15374D01*
Y-978D01*
X15668Y-538D01*
X15775Y0D01*
X15668Y538D01*
X15363Y993D01*
X14908Y1298D01*
X14370Y1405D01*
X13832Y1298D01*
X13377Y993D01*
X13072Y538D01*
X13050Y428D01*
X12540D01*
X12518Y538D01*
X12214Y993D01*
X11758Y1298D01*
X11220Y1405D01*
X10683Y1298D01*
X10227Y993D01*
X9922Y538D01*
X9815Y0D01*
X9922Y-538D01*
X10217Y-978D01*
Y-1936D01*
X3956D01*
Y0D01*
X3950Y33D01*
X3954Y66D01*
X3929Y451D01*
X3903Y546D01*
X3897Y645D01*
X3697Y1390D01*
X3639Y1508D01*
X3597Y1632D01*
X3212Y2299D01*
X3125Y2398D01*
X3052Y2507D01*
X2507Y3052D01*
X2398Y3125D01*
X2299Y3212D01*
X1632Y3597D01*
X1507Y3639D01*
X1390Y3697D01*
X645Y3897D01*
X514Y3905D01*
X385Y3931D01*
X-385D01*
X-514Y3905D01*
X-645Y3897D01*
X-1390Y3697D01*
X-1508Y3639D01*
X-1632Y3597D01*
X-2299Y3212D01*
X-2398Y3125D01*
X-2507Y3052D01*
X-3052Y2507D01*
X-3125Y2398D01*
X-3212Y2299D01*
X-3597Y1632D01*
X-3639Y1507D01*
X-3697Y1390D01*
X-3897Y645D01*
X-3903Y546D01*
X-3929Y451D01*
X-3954Y66D01*
X-3950Y33D01*
X-3956Y0D01*
Y-1936D01*
X-19272D01*
Y-978D01*
X-18978Y-538D01*
X-18871Y0D01*
X-18978Y538D01*
X-19282Y993D01*
X-19738Y1298D01*
X-20276Y1405D01*
X-20813Y1298D01*
X-21269Y993D01*
X-21574Y538D01*
X-21680Y0D01*
X-21574Y-538D01*
X-21279Y-978D01*
Y-1936D01*
X-34688D01*
X-34878Y-1478D01*
X-34933Y-1396D01*
X-34971Y-1304D01*
X-35314Y-791D01*
X-35383Y-721D01*
X-35438Y-639D01*
X-35875Y-202D01*
X-35957Y-147D01*
X-36027Y-77D01*
X-36540Y266D01*
X-36632Y303D01*
X-36714Y358D01*
X-37284Y595D01*
X-37381Y614D01*
X-37473Y652D01*
X-38078Y772D01*
X-38153D01*
X-38225Y790D01*
X-38533Y805D01*
X-38558Y802D01*
X-38583Y807D01*
X-42894D01*
Y39370D01*
X73209D01*
Y807D01*
D02*
G37*
%LPC*%
G36*
X47697Y137402D02*
X46772D01*
Y136378D01*
X47697D01*
Y137402D01*
D02*
G37*
G36*
X45984D02*
X45059D01*
Y136378D01*
X45984D01*
Y137402D01*
D02*
G37*
G36*
X37854D02*
X36929D01*
Y136378D01*
X37854D01*
Y137402D01*
D02*
G37*
G36*
X36142D02*
X35217D01*
Y136378D01*
X36142D01*
Y137402D01*
D02*
G37*
G36*
X28012D02*
X27087D01*
Y136378D01*
X28012D01*
Y137402D01*
D02*
G37*
G36*
X26299D02*
X25374D01*
Y136378D01*
X26299D01*
Y137402D01*
D02*
G37*
G36*
X-14744Y135276D02*
X-15669D01*
Y134252D01*
X-14744D01*
Y135276D01*
D02*
G37*
G36*
X-16457D02*
X-17382D01*
Y134252D01*
X-16457D01*
Y135276D01*
D02*
G37*
G36*
X-14744Y133465D02*
X-15669D01*
Y132441D01*
X-14744D01*
Y133465D01*
D02*
G37*
G36*
X-16457D02*
X-17382D01*
Y132441D01*
X-16457D01*
Y133465D01*
D02*
G37*
G36*
X44311Y131339D02*
X43386D01*
Y130315D01*
X44311D01*
Y131339D01*
D02*
G37*
G36*
X42598D02*
X41673D01*
Y130315D01*
X42598D01*
Y131339D01*
D02*
G37*
G36*
X34468D02*
X33543D01*
Y130315D01*
X34468D01*
Y131339D01*
D02*
G37*
G36*
X32756D02*
X31831D01*
Y130315D01*
X32756D01*
Y131339D01*
D02*
G37*
G36*
X24626D02*
X23701D01*
Y130315D01*
X24626D01*
Y131339D01*
D02*
G37*
G36*
X22913D02*
X21988D01*
Y130315D01*
X22913D01*
Y131339D01*
D02*
G37*
G36*
X-14744D02*
X-15669D01*
Y130315D01*
X-14744D01*
Y131339D01*
D02*
G37*
G36*
X-16457D02*
X-17382D01*
Y130315D01*
X-16457D01*
Y131339D01*
D02*
G37*
G36*
X44311Y129528D02*
X43386D01*
Y128504D01*
X44311D01*
Y129528D01*
D02*
G37*
G36*
X42598D02*
X41673D01*
Y128504D01*
X42598D01*
Y129528D01*
D02*
G37*
G36*
X34468D02*
X33543D01*
Y128504D01*
X34468D01*
Y129528D01*
D02*
G37*
G36*
X32756D02*
X31831D01*
Y128504D01*
X32756D01*
Y129528D01*
D02*
G37*
G36*
X24626D02*
X23701D01*
Y128504D01*
X24626D01*
Y129528D01*
D02*
G37*
G36*
X22913D02*
X21988D01*
Y128504D01*
X22913D01*
Y129528D01*
D02*
G37*
G36*
X-14744D02*
X-15669D01*
Y128504D01*
X-14744D01*
Y129528D01*
D02*
G37*
G36*
X-16457D02*
X-17382D01*
Y128504D01*
X-16457D01*
Y129528D01*
D02*
G37*
G36*
X44311Y127402D02*
X43386D01*
Y126378D01*
X44311D01*
Y127402D01*
D02*
G37*
G36*
X42598D02*
X41673D01*
Y126378D01*
X42598D01*
Y127402D01*
D02*
G37*
G36*
X34468D02*
X33543D01*
Y126378D01*
X34468D01*
Y127402D01*
D02*
G37*
G36*
X32756D02*
X31831D01*
Y126378D01*
X32756D01*
Y127402D01*
D02*
G37*
G36*
X24626D02*
X23701D01*
Y126378D01*
X24626D01*
Y127402D01*
D02*
G37*
G36*
X22913D02*
X21988D01*
Y126378D01*
X22913D01*
Y127402D01*
D02*
G37*
G36*
X-14744D02*
X-15669D01*
Y126378D01*
X-14744D01*
Y127402D01*
D02*
G37*
G36*
X-16457D02*
X-17382D01*
Y126378D01*
X-16457D01*
Y127402D01*
D02*
G37*
G36*
X44311Y125591D02*
X43386D01*
Y124567D01*
X44311D01*
Y125591D01*
D02*
G37*
G36*
X42598D02*
X41673D01*
Y124567D01*
X42598D01*
Y125591D01*
D02*
G37*
G36*
X34468D02*
X33543D01*
Y124567D01*
X34468D01*
Y125591D01*
D02*
G37*
G36*
X32756D02*
X31831D01*
Y124567D01*
X32756D01*
Y125591D01*
D02*
G37*
G36*
X24626D02*
X23701D01*
Y124567D01*
X24626D01*
Y125591D01*
D02*
G37*
G36*
X22913D02*
X21988D01*
Y124567D01*
X22913D01*
Y125591D01*
D02*
G37*
G36*
X-14744D02*
X-15669D01*
Y124567D01*
X-14744D01*
Y125591D01*
D02*
G37*
G36*
X-16457D02*
X-17382D01*
Y124567D01*
X-16457D01*
Y125591D01*
D02*
G37*
G36*
X-17382Y114606D02*
X-17882Y114423D01*
X-18230Y114567D01*
X-18778D01*
X-19285Y114357D01*
X-19672Y113970D01*
X-19882Y113463D01*
Y112915D01*
X-19672Y112408D01*
X-19285Y112021D01*
X-18778Y111811D01*
X-18230D01*
X-17882Y111955D01*
X-17382Y111772D01*
Y111772D01*
X-14744D01*
Y114606D01*
X-17382D01*
Y114606D01*
D02*
G37*
G36*
X-11358Y114606D02*
X-12284D01*
Y113583D01*
X-11358D01*
Y114606D01*
D02*
G37*
G36*
X-13071D02*
X-13996D01*
Y113583D01*
X-13071D01*
Y114606D01*
D02*
G37*
G36*
X22441Y113583D02*
Y112205D01*
X22933D01*
Y113583D01*
X22441D01*
D02*
G37*
G36*
X-11358Y112795D02*
X-12284D01*
Y111772D01*
X-11358D01*
Y112795D01*
D02*
G37*
G36*
X-13071D02*
X-13996D01*
Y111772D01*
X-13071D01*
Y112795D01*
D02*
G37*
G36*
X-17382Y110669D02*
X-17882Y110486D01*
X-18230Y110630D01*
X-18778D01*
X-19285Y110420D01*
X-19672Y110032D01*
X-19882Y109526D01*
Y108978D01*
X-19672Y108471D01*
X-19285Y108084D01*
X-18778Y107874D01*
X-18230D01*
X-17882Y108018D01*
X-17382Y107835D01*
Y107835D01*
X-14744D01*
Y110669D01*
X-17382D01*
Y110669D01*
D02*
G37*
G36*
X5315Y110138D02*
X3937D01*
Y109646D01*
X5315D01*
Y110138D01*
D02*
G37*
G36*
X-17382Y106732D02*
X-17882Y106549D01*
X-18230Y106693D01*
X-18778D01*
X-19285Y106483D01*
X-19672Y106096D01*
X-19882Y105589D01*
Y105041D01*
X-19672Y104534D01*
X-19285Y104147D01*
X-18778Y103937D01*
X-18230D01*
X-17882Y104081D01*
X-17382Y103898D01*
D01*
X-17066Y103528D01*
Y102795D01*
X-17382D01*
Y99961D01*
X-17066D01*
Y98858D01*
X-17382D01*
Y96024D01*
X-17066D01*
Y94921D01*
X-17382D01*
Y92087D01*
X-14744D01*
Y94921D01*
X-15059D01*
Y96024D01*
X-14744D01*
Y98858D01*
X-15059D01*
Y99961D01*
X-14744D01*
Y102795D01*
X-15059D01*
Y103898D01*
X-14744D01*
Y106732D01*
X-17382D01*
Y106732D01*
D02*
G37*
G36*
X-11272Y91339D02*
X-11586D01*
X-11875Y91219D01*
X-12097Y90997D01*
X-12217Y90708D01*
Y90395D01*
X-12097Y90105D01*
X-11875Y89884D01*
X-11586Y89764D01*
X-11272D01*
X-10983Y89884D01*
X-10762Y90105D01*
X-10642Y90395D01*
Y90708D01*
X-10762Y90997D01*
X-10983Y91219D01*
X-11272Y91339D01*
D02*
G37*
G36*
X-19528D02*
X-19842D01*
X-20131Y91219D01*
X-20353Y90997D01*
X-20472Y90708D01*
Y90395D01*
X-20353Y90105D01*
X-20131Y89884D01*
X-19842Y89764D01*
X-19528D01*
X-19239Y89884D01*
X-19017Y90105D01*
X-18898Y90395D01*
Y90708D01*
X-19017Y90997D01*
X-19239Y91219D01*
X-19528Y91339D01*
D02*
G37*
G36*
X-17382Y87047D02*
X-17882Y86864D01*
X-18230Y87008D01*
X-18778D01*
X-19285Y86798D01*
X-19672Y86410D01*
X-19882Y85904D01*
Y85356D01*
X-19672Y84849D01*
X-19285Y84462D01*
X-18778Y84252D01*
X-18230D01*
X-17882Y84396D01*
X-17382Y84213D01*
D01*
X-17066Y83843D01*
Y83110D01*
X-17382D01*
Y80276D01*
X-14744D01*
Y83110D01*
X-15059D01*
Y84213D01*
X-14744D01*
Y87047D01*
X-17382D01*
Y87047D01*
D02*
G37*
G36*
X47697Y114606D02*
X45059D01*
Y111772D01*
X45374D01*
Y110669D01*
X45059D01*
Y107835D01*
X45374D01*
Y106732D01*
X45059D01*
Y103898D01*
X45374D01*
Y102795D01*
X45059D01*
Y99961D01*
X45374D01*
Y98858D01*
X45059D01*
Y96024D01*
X45374D01*
Y94921D01*
X45059D01*
Y92087D01*
X45374D01*
Y90984D01*
X45059D01*
Y88150D01*
X45059Y88150D01*
X45059D01*
X45103Y87650D01*
X45000Y87400D01*
Y86852D01*
X45210Y86345D01*
X45597Y85958D01*
X46104Y85748D01*
X46652D01*
X47159Y85958D01*
X47546Y86345D01*
X47756Y86852D01*
Y87400D01*
X47653Y87650D01*
X47697Y88150D01*
X47697Y88150D01*
X47697Y88150D01*
Y90984D01*
X47381D01*
Y92087D01*
X47697D01*
Y94921D01*
X47381D01*
Y96024D01*
X47697D01*
Y98858D01*
X47381D01*
Y99961D01*
X47697D01*
Y102795D01*
X47381D01*
Y103898D01*
X47697D01*
Y106732D01*
X47381D01*
Y107835D01*
X47697D01*
Y110669D01*
X47381D01*
Y111772D01*
X47697D01*
Y114606D01*
D02*
G37*
G36*
X-11358Y87047D02*
X-13996D01*
Y84213D01*
X-13480D01*
Y83110D01*
X-13996D01*
Y80276D01*
X-11358D01*
Y83110D01*
X-11874D01*
Y84213D01*
X-11358D01*
Y84513D01*
X-10858Y84697D01*
X-10623Y84462D01*
X-10117Y84252D01*
X-9568D01*
X-9062Y84462D01*
X-8674Y84849D01*
X-8465Y85356D01*
Y85904D01*
X-8674Y86410D01*
X-9062Y86798D01*
X-9568Y87008D01*
X-10117D01*
X-10623Y86798D01*
X-10858Y86563D01*
X-11358Y86747D01*
Y87047D01*
D02*
G37*
G36*
X49369Y80709D02*
X49056D01*
X48767Y80589D01*
X48545Y80367D01*
X48425Y80078D01*
Y79765D01*
X48545Y79475D01*
X48767Y79254D01*
X49056Y79134D01*
X49369D01*
X49659Y79254D01*
X49880Y79475D01*
X50000Y79765D01*
Y80078D01*
X49880Y80367D01*
X49659Y80589D01*
X49369Y80709D01*
D02*
G37*
G36*
X31885D02*
X31572D01*
X31282Y80589D01*
X31061Y80367D01*
X30941Y80078D01*
Y79765D01*
X31061Y79475D01*
X31282Y79254D01*
X31572Y79134D01*
X31885D01*
X32174Y79254D01*
X32396Y79475D01*
X32516Y79765D01*
Y80078D01*
X32396Y80367D01*
X32174Y80589D01*
X31885Y80709D01*
D02*
G37*
G36*
X27402Y74429D02*
X24567D01*
Y74114D01*
X23465D01*
Y74429D01*
X20630D01*
Y71791D01*
X23465D01*
Y72107D01*
X24567D01*
Y71791D01*
X24930D01*
X25114Y71291D01*
X24879Y71056D01*
X24669Y70550D01*
Y70002D01*
X24879Y69495D01*
X25267Y69107D01*
X25773Y68898D01*
X26321D01*
X26828Y69107D01*
X27215Y69495D01*
X27425Y70002D01*
Y70550D01*
X27215Y71056D01*
X26980Y71291D01*
X27164Y71791D01*
X27402D01*
Y74429D01*
D02*
G37*
G36*
X-11272Y73622D02*
X-11586D01*
X-11875Y73502D01*
X-12097Y73281D01*
X-12217Y72991D01*
Y72678D01*
X-12097Y72389D01*
X-11875Y72167D01*
X-11586Y72047D01*
X-11272D01*
X-10983Y72167D01*
X-10762Y72389D01*
X-10642Y72678D01*
Y72991D01*
X-10762Y73281D01*
X-10983Y73502D01*
X-11272Y73622D01*
D02*
G37*
G36*
X-16273D02*
X-16586D01*
X-16875Y73502D01*
X-17097Y73281D01*
X-17217Y72991D01*
Y72678D01*
X-17097Y72389D01*
X-16875Y72167D01*
X-16586Y72047D01*
X-16273D01*
X-15983Y72167D01*
X-15762Y72389D01*
X-15642Y72678D01*
Y72991D01*
X-15762Y73281D01*
X-15983Y73502D01*
X-16273Y73622D01*
D02*
G37*
G36*
X6929Y74429D02*
Y74429D01*
X4095D01*
Y71791D01*
X6929D01*
X7283Y71440D01*
Y71063D01*
X7349D01*
X7683Y70563D01*
X7677Y70550D01*
Y70002D01*
X7887Y69495D01*
X8275Y69107D01*
X8781Y68898D01*
X9329D01*
X9836Y69107D01*
X10223Y69495D01*
X10433Y70002D01*
Y70550D01*
X10428Y70563D01*
X10762Y71063D01*
X10827D01*
Y74213D01*
X7283D01*
X6929Y74429D01*
D02*
G37*
G36*
X4941Y135276D02*
X4016D01*
Y134252D01*
X4941D01*
Y135276D01*
D02*
G37*
G36*
X3228D02*
X2303D01*
Y134252D01*
X3228D01*
Y135276D01*
D02*
G37*
G36*
X4941Y133465D02*
X4016D01*
Y132441D01*
X4941D01*
Y133465D01*
D02*
G37*
G36*
X3228D02*
X2303D01*
Y132441D01*
X3228D01*
Y133465D01*
D02*
G37*
G36*
X4941Y131339D02*
X4016D01*
Y130315D01*
X4941D01*
Y131339D01*
D02*
G37*
G36*
X3228D02*
X2303D01*
Y130315D01*
X3228D01*
Y131339D01*
D02*
G37*
G36*
X4941Y129528D02*
X4016D01*
Y128504D01*
X4941D01*
Y129528D01*
D02*
G37*
G36*
X3228D02*
X2303D01*
Y128504D01*
X3228D01*
Y129528D01*
D02*
G37*
G36*
X4941Y127402D02*
X4016D01*
Y126378D01*
X4941D01*
Y127402D01*
D02*
G37*
G36*
X3228D02*
X2303D01*
Y126378D01*
X3228D01*
Y127402D01*
D02*
G37*
G36*
X4941Y125591D02*
X4016D01*
Y124567D01*
X4941D01*
Y125591D01*
D02*
G37*
G36*
X3228D02*
X2303D01*
Y124567D01*
X3228D01*
Y125591D01*
D02*
G37*
G36*
X-4902Y135276D02*
X-5827D01*
Y134252D01*
X-4902D01*
Y135276D01*
D02*
G37*
G36*
X-6614D02*
X-7539D01*
Y134252D01*
X-6614D01*
Y135276D01*
D02*
G37*
G36*
X-4902Y133465D02*
X-5827D01*
Y132441D01*
X-4902D01*
Y133465D01*
D02*
G37*
G36*
X-6614D02*
X-7539D01*
Y132441D01*
X-6614D01*
Y133465D01*
D02*
G37*
G36*
X-4902Y131339D02*
X-5827D01*
Y130315D01*
X-4902D01*
Y131339D01*
D02*
G37*
G36*
X-6614D02*
X-7539D01*
Y130315D01*
X-6614D01*
Y131339D01*
D02*
G37*
G36*
X-4902Y129528D02*
X-5827D01*
Y128504D01*
X-4902D01*
Y129528D01*
D02*
G37*
G36*
X-6614D02*
X-7539D01*
Y128504D01*
X-6614D01*
Y129528D01*
D02*
G37*
G36*
X-4902Y127402D02*
X-5827D01*
Y126378D01*
X-4902D01*
Y127402D01*
D02*
G37*
G36*
X-6614D02*
X-7539D01*
Y126378D01*
X-6614D01*
Y127402D01*
D02*
G37*
G36*
X-4902Y125591D02*
X-5827D01*
Y124567D01*
X-4902D01*
Y125591D01*
D02*
G37*
G36*
X-6614D02*
X-7539D01*
Y124567D01*
X-6614D01*
Y125591D01*
D02*
G37*
G36*
X32697Y29724D02*
X31516D01*
Y27165D01*
X32697D01*
Y29724D01*
D02*
G37*
G36*
X30728D02*
X29547D01*
Y27165D01*
X30728D01*
Y29724D01*
D02*
G37*
G36*
X32697Y26378D02*
X31516D01*
Y23819D01*
X32697D01*
Y26378D01*
D02*
G37*
G36*
X30728D02*
X29547D01*
Y23819D01*
X30728D01*
Y26378D01*
D02*
G37*
G36*
X14193Y29948D02*
X13655Y29841D01*
X13200Y29537D01*
X12895Y29081D01*
X12788Y28543D01*
X12895Y28006D01*
X13200Y27550D01*
X13390Y27422D01*
Y26772D01*
X12421D01*
Y22047D01*
X15965D01*
Y26772D01*
X14996D01*
Y27422D01*
X15186Y27550D01*
X15491Y28006D01*
X15598Y28543D01*
X15491Y29081D01*
X15186Y29537D01*
X14731Y29841D01*
X14193Y29948D01*
D02*
G37*
G36*
X4193D02*
X3655Y29841D01*
X3199Y29537D01*
X2895Y29081D01*
X2788Y28543D01*
X2895Y28006D01*
X3199Y27550D01*
X3390Y27422D01*
Y26772D01*
X2421D01*
Y22047D01*
X5965D01*
Y26772D01*
X4996D01*
Y27422D01*
X5186Y27550D01*
X5491Y28006D01*
X5598Y28543D01*
X5491Y29081D01*
X5186Y29537D01*
X4731Y29841D01*
X4193Y29948D01*
D02*
G37*
G36*
X-5807D02*
X-6345Y29841D01*
X-6801Y29537D01*
X-7105Y29081D01*
X-7212Y28543D01*
X-7105Y28006D01*
X-6801Y27550D01*
X-6610Y27422D01*
Y26772D01*
X-7579D01*
Y22047D01*
X-4035D01*
Y26772D01*
X-5004D01*
Y27422D01*
X-4814Y27550D01*
X-4509Y28006D01*
X-4402Y28543D01*
X-4509Y29081D01*
X-4814Y29537D01*
X-5269Y29841D01*
X-5807Y29948D01*
D02*
G37*
G36*
X-15807D02*
X-16345Y29841D01*
X-16801Y29537D01*
X-17105Y29081D01*
X-17212Y28543D01*
X-17105Y28006D01*
X-16801Y27550D01*
X-16610Y27422D01*
Y26772D01*
X-17579D01*
Y22047D01*
X-14035D01*
Y26772D01*
X-15004D01*
Y27422D01*
X-14814Y27550D01*
X-14509Y28006D01*
X-14402Y28543D01*
X-14509Y29081D01*
X-14814Y29537D01*
X-15269Y29841D01*
X-15807Y29948D01*
D02*
G37*
G36*
X20965Y26772D02*
X17421D01*
Y22047D01*
X17421D01*
X17806Y21547D01*
X17788Y21457D01*
X17833Y21228D01*
X17776Y20728D01*
X17776D01*
X17776Y20728D01*
Y20212D01*
X15610D01*
Y20728D01*
X12776D01*
Y18091D01*
X15610D01*
Y18607D01*
X17776D01*
Y18091D01*
X20610D01*
Y20728D01*
X20610Y20728D01*
X20610D01*
X20552Y21228D01*
X20598Y21457D01*
X20580Y21547D01*
X20965Y22047D01*
X20965D01*
Y26772D01*
D02*
G37*
G36*
X10965D02*
X7421D01*
Y22047D01*
X7421D01*
X7806Y21547D01*
X7788Y21457D01*
X7833Y21228D01*
X7776Y20728D01*
X7776D01*
X7776Y20728D01*
Y20212D01*
X5610D01*
Y20728D01*
X2776D01*
Y18091D01*
X5610D01*
Y18607D01*
X7776D01*
Y18091D01*
X10610D01*
Y20728D01*
X10610Y20728D01*
X10610D01*
X10553Y21228D01*
X10598Y21457D01*
X10580Y21547D01*
X10965Y22047D01*
X10965D01*
Y26772D01*
D02*
G37*
G36*
X965D02*
X-2579D01*
Y22047D01*
X-2579D01*
X-2194Y21547D01*
X-2212Y21457D01*
X-2167Y21228D01*
X-2224Y20728D01*
X-2224D01*
X-2224Y20728D01*
Y20212D01*
X-4390D01*
Y20728D01*
X-7224D01*
Y18091D01*
X-4390D01*
Y18607D01*
X-2224D01*
Y18091D01*
X610D01*
Y20728D01*
X610Y20728D01*
X610D01*
X552Y21228D01*
X598Y21457D01*
X580Y21547D01*
X965Y22047D01*
X965D01*
Y26772D01*
D02*
G37*
G36*
X-9035D02*
X-12579D01*
Y22047D01*
X-12579D01*
X-12194Y21547D01*
X-12212Y21457D01*
X-12167Y21228D01*
X-12224Y20728D01*
X-12224D01*
X-12224Y20728D01*
Y20212D01*
X-14390D01*
Y20728D01*
X-17224D01*
Y18091D01*
X-14390D01*
Y18607D01*
X-12224D01*
Y18091D01*
X-9390D01*
Y20728D01*
X-9390Y20728D01*
X-9390D01*
X-9448Y21228D01*
X-9402Y21457D01*
X-9420Y21547D01*
X-9035Y22047D01*
X-9035D01*
Y26772D01*
D02*
G37*
G36*
X47697Y29724D02*
X44547D01*
Y23819D01*
X44885D01*
X45051Y23319D01*
X44824Y22979D01*
X44717Y22441D01*
X44824Y21903D01*
X45118Y21463D01*
Y20728D01*
X44705D01*
Y18091D01*
X47539D01*
Y20728D01*
X47126D01*
Y21463D01*
X47420Y21903D01*
X47527Y22441D01*
X47420Y22979D01*
X47193Y23319D01*
X47359Y23819D01*
X47697D01*
Y29724D01*
D02*
G37*
G36*
X42697D02*
X39547D01*
Y23819D01*
X40319D01*
Y20530D01*
X40129Y20403D01*
X39824Y19947D01*
X39717Y19409D01*
X39824Y18872D01*
X40129Y18416D01*
X40584Y18111D01*
X41122Y18004D01*
X41660Y18111D01*
X42116Y18416D01*
X42420Y18872D01*
X42527Y19409D01*
X42420Y19947D01*
X42116Y20403D01*
X41925Y20530D01*
Y23819D01*
X42697D01*
Y29724D01*
D02*
G37*
G36*
X37697D02*
X34547D01*
Y23819D01*
X35319D01*
Y20530D01*
X35129Y20403D01*
X34824Y19947D01*
X34717Y19409D01*
X34824Y18872D01*
X35129Y18416D01*
X35584Y18111D01*
X36122Y18004D01*
X36660Y18111D01*
X37115Y18416D01*
X37420Y18872D01*
X37527Y19409D01*
X37420Y19947D01*
X37115Y20403D01*
X36925Y20530D01*
Y23819D01*
X37697D01*
Y29724D01*
D02*
G37*
G36*
X47539Y17343D02*
X46516D01*
Y16417D01*
X47539D01*
Y17343D01*
D02*
G37*
G36*
X45728D02*
X44705D01*
Y16417D01*
X45728D01*
Y17343D01*
D02*
G37*
G36*
X20610D02*
X19587D01*
Y16417D01*
X20610D01*
Y17343D01*
D02*
G37*
G36*
X15610D02*
X14587D01*
Y16417D01*
X15610D01*
Y17343D01*
D02*
G37*
G36*
X10610D02*
X9587D01*
Y16417D01*
X10610D01*
Y17343D01*
D02*
G37*
G36*
X5610D02*
X4587D01*
Y16417D01*
X5610D01*
Y17343D01*
D02*
G37*
G36*
X610D02*
X-413D01*
Y16417D01*
X610D01*
Y17343D01*
D02*
G37*
G36*
X-4390D02*
X-5413D01*
Y16417D01*
X-4390D01*
Y17343D01*
D02*
G37*
G36*
X-9390D02*
X-10413D01*
Y16417D01*
X-9390D01*
Y17343D01*
D02*
G37*
G36*
X-14390D02*
X-15413D01*
Y16417D01*
X-14390D01*
Y17343D01*
D02*
G37*
G36*
X18799D02*
X17776D01*
Y16417D01*
X18799D01*
Y17343D01*
D02*
G37*
G36*
X13799D02*
X12776D01*
Y16417D01*
X13799D01*
Y17343D01*
D02*
G37*
G36*
X8799D02*
X7776D01*
Y16417D01*
X8799D01*
Y17343D01*
D02*
G37*
G36*
X3799D02*
X2776D01*
Y16417D01*
X3799D01*
Y17343D01*
D02*
G37*
G36*
X-1201D02*
X-2224D01*
Y16417D01*
X-1201D01*
Y17343D01*
D02*
G37*
G36*
X-6201D02*
X-7224D01*
Y16417D01*
X-6201D01*
Y17343D01*
D02*
G37*
G36*
X-11201D02*
X-12224D01*
Y16417D01*
X-11201D01*
Y17343D01*
D02*
G37*
G36*
X-16201D02*
X-17224D01*
Y16417D01*
X-16201D01*
Y17343D01*
D02*
G37*
G36*
X47539Y15630D02*
X46516D01*
Y14705D01*
X47539D01*
Y15630D01*
D02*
G37*
G36*
X45728D02*
X44705D01*
Y14705D01*
X45728D01*
Y15630D01*
D02*
G37*
G36*
X20610Y15630D02*
X19587D01*
Y14705D01*
X20610D01*
Y15630D01*
D02*
G37*
G36*
X18799D02*
X17776D01*
Y14705D01*
X18799D01*
Y15630D01*
D02*
G37*
G36*
X15610D02*
X14587D01*
Y14705D01*
X15610D01*
Y15630D01*
D02*
G37*
G36*
X13799D02*
X12776D01*
Y14705D01*
X13799D01*
Y15630D01*
D02*
G37*
G36*
X10610D02*
X9587D01*
Y14705D01*
X10610D01*
Y15630D01*
D02*
G37*
G36*
X8799D02*
X7776D01*
Y14705D01*
X8799D01*
Y15630D01*
D02*
G37*
G36*
X5610D02*
X4587D01*
Y14705D01*
X5610D01*
Y15630D01*
D02*
G37*
G36*
X3799D02*
X2776D01*
Y14705D01*
X3799D01*
Y15630D01*
D02*
G37*
G36*
X610D02*
X-413D01*
Y14705D01*
X610D01*
Y15630D01*
D02*
G37*
G36*
X-1201D02*
X-2224D01*
Y14705D01*
X-1201D01*
Y15630D01*
D02*
G37*
G36*
X-4390D02*
X-5413D01*
Y14705D01*
X-4390D01*
Y15630D01*
D02*
G37*
G36*
X-6201D02*
X-7224D01*
Y14705D01*
X-6201D01*
Y15630D01*
D02*
G37*
G36*
X-9390D02*
X-10413D01*
Y14705D01*
X-9390D01*
Y15630D01*
D02*
G37*
G36*
X-11201D02*
X-12224D01*
Y14705D01*
X-11201D01*
Y15630D01*
D02*
G37*
G36*
X-14390D02*
X-15413D01*
Y14705D01*
X-14390D01*
Y15630D01*
D02*
G37*
G36*
X-16201D02*
X-17224D01*
Y14705D01*
X-16201D01*
Y15630D01*
D02*
G37*
%LPD*%
D11*
X14567Y76968D02*
X15039Y76496D01*
X18110D01*
X8583Y73110D02*
X9055Y72638D01*
X5512Y73110D02*
X8583D01*
X3622Y123543D02*
Y125984D01*
X-6221Y123543D02*
Y125984D01*
X14193Y19410D02*
X19193D01*
X-5807D02*
X-807D01*
X-5807Y58780D02*
X-807D01*
X41122Y58780D02*
X46122D01*
X-12676Y93503D02*
X-6102D01*
X-2165Y97441D02*
X5709D01*
X19193Y21457D02*
Y25000D01*
X-12677Y105315D02*
X-6103D01*
X36418Y105315D02*
X42992D01*
X25984Y76496D02*
Y83070D01*
X14193Y51968D02*
Y55394D01*
Y58780D02*
X19193D01*
X-5807Y51968D02*
Y55394D01*
X14193Y25000D02*
Y28543D01*
X46378Y87126D02*
Y89567D01*
X26047Y70276D02*
Y73110D01*
X46122Y52756D02*
Y55394D01*
Y48031D02*
Y52756D01*
X-10807Y21457D02*
Y25000D01*
Y19410D02*
Y21457D01*
X-807D02*
Y25000D01*
Y19410D02*
Y21457D01*
X9193D02*
Y25000D01*
Y19410D02*
Y21457D01*
X19193Y19410D02*
Y21457D01*
X-9843Y101378D02*
X5709D01*
X-12677D02*
X-9843D01*
X41122Y19409D02*
Y26772D01*
X36122Y19409D02*
Y26772D01*
X41122Y48031D02*
Y55394D01*
X36122Y48031D02*
Y55394D01*
X31122Y48031D02*
Y55394D01*
X19193Y51968D02*
Y55394D01*
X4193Y58780D02*
X9193D01*
Y51968D02*
Y55394D01*
X-807Y51968D02*
Y55394D01*
X-10807Y51968D02*
Y55394D01*
X-15807Y58780D02*
X-10807D01*
X4193Y25000D02*
Y28543D01*
X-5807Y25000D02*
Y28543D01*
X-15807Y25000D02*
Y28543D01*
X-18504Y85630D02*
X-16063D01*
X-18504Y105315D02*
X-16063D01*
X-18504Y113189D02*
X-16063D01*
X10236Y92913D02*
X12205D01*
Y88976D02*
Y92913D01*
X9055Y70276D02*
Y72638D01*
X18110Y76496D02*
Y79331D01*
X7008Y124193D02*
X8201Y123000D01*
X-2835Y122224D02*
X-1642Y121031D01*
X-12677Y120256D02*
X-11484Y119063D01*
X-12677Y120256D02*
Y125984D01*
X-2835Y122224D02*
Y125984D01*
X7008Y124193D02*
Y125984D01*
X-11484Y119063D02*
X6921D01*
X-1642Y121031D02*
X8889D01*
X8201Y123000D02*
X10858D01*
X6921Y119063D02*
X8268Y117716D01*
X8889Y121031D02*
X10236Y119685D01*
X10858Y123000D02*
X12205Y121653D01*
X45185Y119063D02*
X46378Y120256D01*
X35342Y121031D02*
X36535Y122224D01*
X20079Y117716D02*
X21426Y119063D01*
X45185D01*
X46378Y120256D02*
Y125984D01*
X18110Y119685D02*
X19457Y121031D01*
X35342D01*
X36535Y122224D02*
Y125984D01*
X25500Y123000D02*
X26693Y124193D01*
Y125984D01*
X17489Y123000D02*
X25500D01*
X16142Y121653D02*
X17489Y123000D01*
X20079Y111811D02*
Y117716D01*
X18110Y111811D02*
Y119685D01*
X16142Y111811D02*
Y121653D01*
X12205Y111811D02*
Y121653D01*
X10236Y111811D02*
Y119685D01*
X8268Y111811D02*
Y117716D01*
X22047Y76496D02*
Y83070D01*
X20079Y85039D02*
X22047Y83070D01*
X24606Y97441D02*
X32480D01*
X36418Y93504D02*
X42992D01*
X32480Y97441D02*
X36418Y93504D01*
X20079Y85039D02*
Y92913D01*
X22047Y87008D02*
X25984Y83070D01*
X22047Y87008D02*
Y92913D01*
X-12677Y81693D02*
Y85630D01*
X-9843D01*
X-18504Y109252D02*
X-16063D01*
X10000Y82500D02*
X14173Y86673D01*
Y92913D01*
X10000Y77756D02*
Y82500D01*
X9055Y76968D02*
X9213D01*
X10000Y77756D01*
X12565Y74443D02*
X14370Y72638D01*
X12000Y75000D02*
X12557Y74443D01*
X14370Y72638D02*
X14567D01*
X12557Y74443D02*
X12565D01*
X12000Y75000D02*
Y81500D01*
X16142Y85642D01*
Y92913D01*
X8268Y88976D02*
Y92913D01*
X1772Y95472D02*
X5709D01*
X1772Y107283D02*
X5709D01*
X24606Y109252D02*
X28543D01*
X-6102Y93503D02*
X-2165Y97441D01*
X-12677Y97440D02*
X-6103D01*
X-4134Y99409D01*
X5709D01*
X-2165Y105315D02*
X5709D01*
X-6103Y109252D02*
X-2165Y105315D01*
X-12677Y109252D02*
X-6103D01*
Y105315D02*
X-4134Y103346D01*
X5709D01*
X30512Y95473D02*
X36418Y89567D01*
X34449Y99410D02*
X36418Y97441D01*
X36418Y89567D02*
X42992D01*
X36418Y97441D02*
X42992D01*
X24606Y95472D02*
X30512D01*
X24606Y99409D02*
X34449D01*
X30512Y107283D02*
X36418Y113189D01*
X32480Y105315D02*
X36418Y109252D01*
X36418Y113189D02*
X42992D01*
X36418Y109252D02*
X42992D01*
X34449Y103346D02*
X36418Y105315D01*
X24606Y101378D02*
X42992D01*
X42992Y101378D01*
X24606Y103346D02*
X34449D01*
X24606Y105315D02*
X32480D01*
X24606Y107283D02*
X30512D01*
X19193Y25000D02*
X19193Y25000D01*
X9193Y25000D02*
X9193Y25000D01*
X4193Y19410D02*
X9193D01*
X-807Y25000D02*
X-807Y25000D01*
X-15807Y19410D02*
X-10807D01*
X-10807Y25000D02*
X-10807Y25000D01*
X4193Y51968D02*
Y55394D01*
X-15807Y51968D02*
Y55394D01*
X5748Y76732D02*
X8819D01*
X14803Y72874D02*
X17874D01*
D14*
X18110Y73110D02*
D03*
Y76496D02*
D03*
X46122Y55394D02*
D03*
Y58780D02*
D03*
X-15807Y55394D02*
D03*
Y58780D02*
D03*
X-5807Y55394D02*
D03*
Y58780D02*
D03*
X4193Y55394D02*
D03*
Y58780D02*
D03*
X14193Y55394D02*
D03*
Y58780D02*
D03*
X-15807Y16024D02*
D03*
Y19410D02*
D03*
X-10807D02*
D03*
Y16024D02*
D03*
X-5807D02*
D03*
Y19410D02*
D03*
X-807D02*
D03*
Y16024D02*
D03*
X4193D02*
D03*
Y19410D02*
D03*
X9193D02*
D03*
Y16024D02*
D03*
X14193D02*
D03*
Y19410D02*
D03*
X19193D02*
D03*
Y16024D02*
D03*
X46122Y19410D02*
D03*
Y16024D02*
D03*
X5512Y76496D02*
D03*
Y73110D02*
D03*
X25984Y76496D02*
D03*
Y73110D02*
D03*
X22047D02*
D03*
Y76496D02*
D03*
D15*
X19193Y24409D02*
D03*
Y51968D02*
D03*
X-15807Y24409D02*
D03*
Y51968D02*
D03*
X-10807Y24409D02*
D03*
X14193D02*
D03*
Y51968D02*
D03*
X-10807D02*
D03*
X-5807D02*
D03*
X-807D02*
D03*
X4193D02*
D03*
X9193D02*
D03*
Y24409D02*
D03*
X4193D02*
D03*
X-807D02*
D03*
X-5807D02*
D03*
D16*
X-12677Y113189D02*
D03*
X-16063D02*
D03*
X-16063Y109252D02*
D03*
X-12677D02*
D03*
Y93504D02*
D03*
X-16063D02*
D03*
Y85630D02*
D03*
X-12677D02*
D03*
X-16063Y81693D02*
D03*
X-12677D02*
D03*
X42992Y109252D02*
D03*
X46378D02*
D03*
X42992Y97441D02*
D03*
X46378D02*
D03*
X26693Y125984D02*
D03*
X23307D02*
D03*
X36535D02*
D03*
X33150D02*
D03*
X46378D02*
D03*
X42992D02*
D03*
Y145291D02*
D03*
X46378D02*
D03*
X26693Y129921D02*
D03*
X23307D02*
D03*
X36535D02*
D03*
X33150D02*
D03*
X46378D02*
D03*
X42992D02*
D03*
X23307Y137795D02*
D03*
X26693D02*
D03*
X33150D02*
D03*
X36535D02*
D03*
X42992D02*
D03*
X46378D02*
D03*
X26693Y141732D02*
D03*
X23307D02*
D03*
X36535D02*
D03*
X33150D02*
D03*
X-12677Y133858D02*
D03*
X-16063D02*
D03*
X-2835D02*
D03*
X-6221D02*
D03*
X7008D02*
D03*
X3622D02*
D03*
X-12677Y129921D02*
D03*
X-16063D02*
D03*
X-2835D02*
D03*
X-6221D02*
D03*
X7008D02*
D03*
X3622D02*
D03*
X3622Y125984D02*
D03*
X7008D02*
D03*
X-6221D02*
D03*
X-2835D02*
D03*
X-16063D02*
D03*
X-12677D02*
D03*
Y101378D02*
D03*
X-16063D02*
D03*
X-12677Y105315D02*
D03*
X-16063D02*
D03*
X42992D02*
D03*
X46378D02*
D03*
Y113189D02*
D03*
X42992D02*
D03*
X46378Y93504D02*
D03*
X42992D02*
D03*
X46378Y101378D02*
D03*
X42992D02*
D03*
X46378Y89567D02*
D03*
X42992D02*
D03*
X-16063Y97441D02*
D03*
X-12677D02*
D03*
X46378Y141732D02*
D03*
X42992D02*
D03*
X46378Y133858D02*
D03*
X42992D02*
D03*
X36535D02*
D03*
X33150D02*
D03*
Y145291D02*
D03*
X36535D02*
D03*
X26693Y133858D02*
D03*
X23307D02*
D03*
Y145291D02*
D03*
X26693D02*
D03*
D33*
X61614Y-7283D02*
D03*
X58465D02*
D03*
X55315D02*
D03*
X52165D02*
D03*
X49016D02*
D03*
X45866D02*
D03*
X42717D02*
D03*
X39567D02*
D03*
X36417D02*
D03*
X33268D02*
D03*
X30118D02*
D03*
X26969D02*
D03*
X23819D02*
D03*
X20669D02*
D03*
X17520D02*
D03*
X14370D02*
D03*
X11220D02*
D03*
X8071D02*
D03*
X-7677D02*
D03*
X-10827D02*
D03*
X-13976D02*
D03*
X-17126D02*
D03*
X-20276D02*
D03*
X-23425D02*
D03*
X-26575D02*
D03*
X-29724D02*
D03*
D34*
X26693Y125984D02*
Y133858D01*
X42992Y133858D02*
Y145292D01*
X42717Y-7283D02*
Y0D01*
X33268Y-7283D02*
Y0D01*
X-16063Y93504D02*
Y101378D01*
X46378D02*
Y113189D01*
Y93504D02*
Y101378D01*
X46122Y22441D02*
Y26772D01*
Y19410D02*
Y22441D01*
X8071Y-7283D02*
Y2559D01*
X17520Y-7283D02*
Y2559D01*
X45866Y-7283D02*
Y2559D01*
X52165Y-7283D02*
Y2559D01*
X61614Y-7283D02*
Y2559D01*
X-20276Y-7283D02*
Y0D01*
X-7677Y-7283D02*
Y2559D01*
X20669Y-7283D02*
Y0D01*
X11220Y-7283D02*
Y0D01*
X14370Y-7283D02*
Y0D01*
X39567Y-7283D02*
Y0D01*
X36417Y-7283D02*
Y0D01*
X30118Y-7283D02*
Y0D01*
X26969Y-7283D02*
Y0D01*
X23819Y-7283D02*
Y0D01*
X46122Y48031D02*
X46122Y48031D01*
Y19410D02*
X46122Y19410D01*
X8819Y76732D02*
X9055Y76968D01*
X5512Y76496D02*
X5748Y76732D01*
X17874Y72874D02*
X18110Y73110D01*
X14567Y72638D02*
X14803Y72874D01*
X22047Y73110D02*
X25984D01*
X-16063Y81693D02*
Y85630D01*
Y101378D02*
Y105315D01*
X46378Y89567D02*
Y93504D01*
Y137795D02*
Y141732D01*
X46378Y125984D02*
Y129921D01*
Y133858D01*
X36535Y137795D02*
Y141732D01*
X36535Y125984D02*
Y129921D01*
Y133858D01*
X33150Y133858D02*
Y145292D01*
X23307Y133858D02*
Y145292D01*
Y133858D02*
X23307Y133858D01*
X26693Y137795D02*
Y141732D01*
X7008Y125984D02*
Y129921D01*
Y133858D01*
Y137402D01*
X-2835Y125984D02*
Y129921D01*
Y133858D01*
Y137402D01*
X-12677Y133858D02*
Y137402D01*
Y129921D02*
Y133858D01*
Y125984D02*
Y129921D01*
X-14370Y145473D02*
X-14370Y145473D01*
D35*
X5315Y145473D02*
Y153543D01*
X-4528Y145473D02*
Y153543D01*
X-14370Y145473D02*
Y153543D01*
D36*
X-16063Y125984D02*
Y129921D01*
X44685Y149000D02*
X46316Y147369D01*
Y145354D02*
Y147369D01*
Y145354D02*
X46378Y145292D01*
X44685Y149000D02*
Y153543D01*
X34843Y149000D02*
X36473Y147369D01*
Y145354D02*
Y147369D01*
Y145354D02*
X36535Y145292D01*
X34843Y149000D02*
Y153543D01*
X25000Y149000D02*
Y153543D01*
X26631Y145354D02*
X26693Y145292D01*
X26631Y145354D02*
Y147369D01*
X25000Y149000D02*
X26631Y147369D01*
X3622Y125984D02*
Y129921D01*
Y133858D01*
X-6221Y125984D02*
Y129921D01*
Y133858D01*
X-16063Y129921D02*
Y133858D01*
D37*
X44685Y153543D02*
D03*
D38*
X34843D02*
D03*
X25000D02*
D03*
X15157D02*
D03*
X5315D02*
D03*
X-4528D02*
D03*
X-14370D02*
D03*
D39*
X62795Y176378D02*
D03*
X-32480D02*
D03*
D40*
X42992Y123543D02*
D03*
X33150D02*
D03*
X3622Y123543D02*
D03*
X-6221D02*
D03*
X39787Y127953D02*
D03*
X9843Y127756D02*
D03*
X-19685Y127953D02*
D03*
X-20276Y0D02*
D03*
X65744Y33622D02*
D03*
Y21811D02*
D03*
Y10000D02*
D03*
X53933Y33622D02*
D03*
Y21811D02*
D03*
X42122Y33622D02*
D03*
X30311Y10000D02*
D03*
X18500Y33622D02*
D03*
Y10000D02*
D03*
X6689Y33622D02*
D03*
Y10000D02*
D03*
X-5122Y33622D02*
D03*
Y10000D02*
D03*
X-29472Y33622D02*
D03*
Y21811D02*
D03*
Y10000D02*
D03*
X-40555Y33622D02*
D03*
Y21811D02*
D03*
Y10000D02*
D03*
X46122Y52756D02*
D03*
X-15807Y28543D02*
D03*
X14370Y0D02*
D03*
X20669D02*
D03*
X36417D02*
D03*
X42717D02*
D03*
X39567D02*
D03*
X-807Y58780D02*
D03*
X8268Y88976D02*
D03*
X41122Y58780D02*
D03*
X19193Y58780D02*
D03*
X14193Y28543D02*
D03*
X46378Y87126D02*
D03*
X26047Y70276D02*
D03*
X11220Y0D02*
D03*
X33268D02*
D03*
X30118D02*
D03*
X26969D02*
D03*
X23819D02*
D03*
X46122Y22441D02*
D03*
X41122Y19409D02*
D03*
X36122D02*
D03*
X41122Y55394D02*
D03*
X36122D02*
D03*
X31122D02*
D03*
X19193D02*
D03*
X9193Y58780D02*
D03*
Y55394D02*
D03*
X-807D02*
D03*
X-10807D02*
D03*
Y58780D02*
D03*
X-10807Y21457D02*
D03*
X-807D02*
D03*
X19193D02*
D03*
X9193D02*
D03*
X4193Y28543D02*
D03*
X-5807D02*
D03*
X-18504Y85630D02*
D03*
Y105315D02*
D03*
Y113189D02*
D03*
X12205Y88976D02*
D03*
X9055Y70276D02*
D03*
X18110Y79330D02*
D03*
X25984D02*
D03*
X-9843Y85630D02*
D03*
X-18504Y109252D02*
D03*
X1772Y95472D02*
D03*
X40158Y105315D02*
D03*
X-9843Y101378D02*
D03*
Y105315D02*
D03*
X1772Y107283D02*
D03*
X28543Y109252D02*
D03*
D42*
X-14370Y145413D02*
D03*
Y138051D02*
D03*
X-4528Y145413D02*
D03*
Y138051D02*
D03*
X5315Y145413D02*
D03*
Y138051D02*
D03*
D43*
X46122Y48031D02*
D03*
X41122D02*
D03*
X36122D02*
D03*
X31122D02*
D03*
Y26772D02*
D03*
X36122D02*
D03*
X41122D02*
D03*
X46122D02*
D03*
D44*
X15157Y102362D02*
D03*
D45*
X8268Y111811D02*
D03*
X10236D02*
D03*
X12205D02*
D03*
X14173D02*
D03*
X16142D02*
D03*
X18110D02*
D03*
X20079D02*
D03*
X22047D02*
D03*
Y92913D02*
D03*
X20079D02*
D03*
X18110D02*
D03*
X16142D02*
D03*
X14173D02*
D03*
X12205D02*
D03*
X10236D02*
D03*
X8268D02*
D03*
D46*
X24606Y109252D02*
D03*
Y107283D02*
D03*
Y105315D02*
D03*
Y103347D02*
D03*
Y101378D02*
D03*
Y99409D02*
D03*
Y97441D02*
D03*
Y95472D02*
D03*
X5709D02*
D03*
Y97441D02*
D03*
Y99409D02*
D03*
Y101378D02*
D03*
Y103347D02*
D03*
Y105315D02*
D03*
Y107283D02*
D03*
Y109252D02*
D03*
D47*
X14567Y72638D02*
D03*
X9055D02*
D03*
Y76968D02*
D03*
X14567D02*
D03*
M02*
