G04*
G04 #@! TF.GenerationSoftware,Altium Limited,Altium Designer,22.1.2 (22)*
G04*
G04 Layer_Color=128*
%FSLAX25Y25*%
%MOIN*%
G70*
G04*
G04 #@! TF.SameCoordinates,DC6CBC75-D83B-4164-BAAA-666503FEC379*
G04*
G04*
G04 #@! TF.FilePolarity,Positive*
G04*
G01*
G75*
%ADD56C,0.00200*%
D56*
X42717Y153543D02*
X46654D01*
X44685Y151575D02*
Y155512D01*
X32874Y153543D02*
X36811D01*
X34843Y151575D02*
Y155512D01*
X23031Y153543D02*
X26969D01*
X25000Y151575D02*
Y155512D01*
X13189Y153543D02*
X17126D01*
X15157Y151575D02*
Y155512D01*
X3347Y153543D02*
X7283D01*
X5315Y151575D02*
Y155512D01*
X-6496Y153543D02*
X-2559D01*
X-4528Y151575D02*
Y155512D01*
X-16339Y153543D02*
X-12402D01*
X-14370Y151575D02*
Y155512D01*
X57677Y176378D02*
X67913D01*
X62795Y171260D02*
Y181496D01*
X-37598Y176378D02*
X-27362D01*
X-32480Y171260D02*
Y181496D01*
X42598Y123543D02*
X43386D01*
X42992Y123150D02*
Y123937D01*
X32756Y123543D02*
X33543D01*
X33150Y123150D02*
Y123937D01*
X3228Y123543D02*
X4016D01*
X3622Y123150D02*
Y123937D01*
X-6614Y123543D02*
X-5827D01*
X-6221Y123150D02*
Y123937D01*
X39394Y127953D02*
X40181D01*
X39787Y127559D02*
Y128347D01*
X9449Y127756D02*
X10236D01*
X9843Y127362D02*
Y128150D01*
X-20079Y127953D02*
X-19291D01*
X-19685Y127559D02*
Y128347D01*
X-20669Y0D02*
X-19882D01*
X-20276Y-394D02*
Y394D01*
X65350Y33622D02*
X66138D01*
X65744Y33228D02*
Y34016D01*
X65350Y21811D02*
X66138D01*
X65744Y21417D02*
Y22205D01*
X65350Y10000D02*
X66138D01*
X65744Y9606D02*
Y10394D01*
X53539Y33622D02*
X54327D01*
X53933Y33228D02*
Y34016D01*
X53539Y21811D02*
X54327D01*
X53933Y21417D02*
Y22205D01*
X41728Y33622D02*
X42516D01*
X42122Y33228D02*
Y34016D01*
X29917Y10000D02*
X30705D01*
X30311Y9606D02*
Y10394D01*
X18106Y33622D02*
X18894D01*
X18500Y33228D02*
Y34016D01*
X18106Y10000D02*
X18894D01*
X18500Y9606D02*
Y10394D01*
X6295Y33622D02*
X7083D01*
X6689Y33228D02*
Y34016D01*
X6295Y10000D02*
X7083D01*
X6689Y9606D02*
Y10394D01*
X-5516Y33622D02*
X-4728D01*
X-5122Y33228D02*
Y34016D01*
X-5516Y10000D02*
X-4728D01*
X-5122Y9606D02*
Y10394D01*
X-29866Y33622D02*
X-29079D01*
X-29472Y33228D02*
Y34016D01*
X-29866Y21811D02*
X-29079D01*
X-29472Y21417D02*
Y22205D01*
X-29866Y10000D02*
X-29079D01*
X-29472Y9606D02*
Y10394D01*
X-40949Y33622D02*
X-40161D01*
X-40555Y33228D02*
Y34016D01*
X-40949Y21811D02*
X-40161D01*
X-40555Y21417D02*
Y22205D01*
X-40949Y10000D02*
X-40161D01*
X-40555Y9606D02*
Y10394D01*
X45728Y52756D02*
X46516D01*
X46122Y52362D02*
Y53150D01*
X-16823Y72835D02*
X-16035D01*
X-16429Y72441D02*
Y73228D01*
X-16201Y28543D02*
X-15413D01*
X-15807Y28150D02*
Y28937D01*
X-11823Y90551D02*
X-11035D01*
X-11429Y90158D02*
Y90945D01*
X31335Y79921D02*
X32122D01*
X31728Y79528D02*
Y80315D01*
X48819Y79921D02*
X49606D01*
X49213Y79528D02*
Y80315D01*
X25106Y47500D02*
X25894D01*
X25500Y47106D02*
Y47894D01*
X-24016Y50433D02*
X-23228D01*
X-23622Y50039D02*
Y50827D01*
X20276Y0D02*
X21063D01*
X20669Y-394D02*
Y394D01*
X36024Y0D02*
X36811D01*
X36417Y-394D02*
Y394D01*
X42323Y0D02*
X43110D01*
X42717Y-394D02*
Y394D01*
X39173Y0D02*
X39961D01*
X39567Y-394D02*
Y394D01*
X-20079Y90551D02*
X-19291D01*
X-19685Y90158D02*
Y90945D01*
X-11823Y72835D02*
X-11035D01*
X-11429Y72441D02*
Y73228D01*
X45984Y87126D02*
X46772D01*
X46378Y86732D02*
Y87520D01*
X25653Y70276D02*
X26441D01*
X26047Y69882D02*
Y70669D01*
X32874Y0D02*
X33661D01*
X33268Y-394D02*
Y394D01*
X29724Y0D02*
X30512D01*
X30118Y-394D02*
Y394D01*
X26575Y0D02*
X27362D01*
X26969Y-394D02*
Y394D01*
X23425Y0D02*
X24213D01*
X23819Y-394D02*
Y394D01*
X45728Y22441D02*
X46516D01*
X46122Y22047D02*
Y22835D01*
X-18898Y105315D02*
X-18110D01*
X-18504Y104921D02*
Y105709D01*
X-18898Y113189D02*
X-18110D01*
X-18504Y112795D02*
Y113583D01*
M02*
