G04*
G04 #@! TF.GenerationSoftware,Altium Limited,Altium Designer,22.1.2 (22)*
G04*
G04 Layer_Color=2752767*
%FSLAX25Y25*%
%MOIN*%
G70*
G04*
G04 #@! TF.SameCoordinates,DC6CBC75-D83B-4164-BAAA-666503FEC379*
G04*
G04*
G04 #@! TF.FilePolarity,Positive*
G04*
G01*
G75*
%ADD56C,0.00200*%
D56*
X-13929Y117035D02*
X-14729Y118635D01*
X-13129D01*
X-13929Y117035D01*
X3544Y79744D02*
X2744Y81344D01*
X4344D01*
X3544Y79744D01*
X-6500Y79700D02*
X-7300Y81300D01*
X-5700D01*
X-6500Y79700D01*
X13500D02*
X12700Y81300D01*
X14300D01*
X13500Y79700D01*
X-11811Y49700D02*
X-12611Y51300D01*
X-11011D01*
X-11811Y49700D01*
X48842Y127153D02*
X48043Y128753D01*
X49643D01*
X48842Y127153D01*
X18898D02*
X18098Y128753D01*
X19698D01*
X18898Y127153D01*
X-10630D02*
X-11430Y128753D01*
X-9830D01*
X-10630Y127153D01*
X-6429Y104515D02*
X-7229Y106115D01*
X-5629D01*
X-6429Y104515D01*
X13571D02*
X12771Y106115D01*
X14371D01*
X13571Y104515D01*
X3571D02*
X2771Y106115D01*
X4371D01*
X3571Y104515D01*
X18571D02*
X17771Y106115D01*
X19371D01*
X18571Y104515D01*
X8571D02*
X7771Y106115D01*
X9371D01*
X8571Y104515D01*
X-1429D02*
X-2229Y106115D01*
X-629D01*
X-1429Y104515D01*
X18571Y86798D02*
X17771Y88398D01*
X19371D01*
X18571Y86798D01*
X8571D02*
X7771Y88398D01*
X9371D01*
X8571Y86798D01*
X-1429D02*
X-2229Y88398D01*
X-629D01*
X-1429Y86798D01*
M02*
