M48
;Layer_Color=9474304
;FILE_FORMAT=2:5
INCH,LZ
;TYPE=PLATED
T1F00S00C0.00787
T2F00S00C0.03937
T3F00S00C0.10236
%
T01
X-0000787Y001291
X0002362
X0005512
X0008661
X0011811
X0014961
X0023681Y004252
X0028681
Y0053937
X0023681Y0053969
X0034Y00535
Y00675
X00235
X0025905Y0071905
X00005Y00675
Y00535
X000815Y0048386
X0051181Y0051181
Y0035433
Y0019685
X00485Y01045
X0034252Y0112
X0025905Y0113204
X0048Y01325
X-0026587Y0112
X-0034Y01125
X-00485Y01045
Y01325
X-0051181Y0051181
Y0035433
Y0019685
X-0037008Y001291
X-0003937
X-00135Y00535
X-00235
X-0033779Y0058976
X-0021339Y00675
X-00135
T02
X-0029528Y0166339
X-0019685
X-0009843
X0
X0009843
X0019685
X0029528
T03
X-0047638Y0189173
X0047638
M30
