M48
;Layer_Color=9474304
;FILE_FORMAT=2:5
INCH,LZ
;TYPE=PLATED
T1F00S00C0.00787
T2F00S00C0.03937
T3F00S00C0.10236
%
T01
X-0000787Y001291
X0002362
X0005512
X0008661
X0007874Y0021654
X0015748
X0023622
X0031496
X003937
X0047244
X0055118
Y0029528
Y0037402
Y0045276
Y005315
Y0061024
Y0068898
Y0076772
Y0084646
Y009252
Y0100394
Y0108268
Y0116142
Y0124016
Y013189
X0034252Y0130905
Y0122049
X0024606
Y0130905
X0014764
Y0122049
X0004921
Y0130905
X0014764Y0111417
Y0106299
X0019Y0101378
Y0097441
X0020472Y0093504
X0019685Y008563
Y0081693
Y0077756
X0018898Y0070866
X0006299
X00065Y00825
X0002953Y0085039
X0011811Y008563
Y0088532
X001378Y0081693
X0025905Y0089567
X0031496Y0086614
Y007874
X0031496Y0070866
X0031496Y0094488
Y0102362
X0034252Y0111417
X0024606
X0018976Y005225
X0006104Y0052966
X0006102Y0055465
Y0057965
Y0050463
Y0047961
Y0045461
Y0042961
X-0006102Y0045461
Y0047961
Y0050463
Y0052965
X-0015295Y0057087
X-0022559Y0062992
X-0018898Y0070866
X-0018898Y007874
X-0013Y0085039
X-0009449Y0087598
X-000689Y0085039
X-00035
X-0006299Y0070866
X-0031496
X-0031496Y007874
Y0086614
Y0094297
X-0024724Y0093504
X-0021339Y0091535
X-0017717Y0097441
Y0102362
X-0014961Y0113192
X-0023228
X-0031496
Y0122049
X-0023228
X-0014961
Y0130905
X-0024803
X-0033858
X-0055118Y013189
Y0124016
Y0116142
Y0108268
Y0100394
Y009252
Y0084646
Y0076772
Y0068898
Y0061024
Y005315
Y0045276
Y0037402
Y0029528
Y0021654
X-0047244
X-003937
X-0031496
X-0023622
X-0015748
X-0003937Y001291
X-0035433
X-0031496Y0102362
X-0027716Y0107283
X-0003937Y0122049
Y0130905
Y0137795
X-0014961
X-0024803
X-0033858
X0004921
Y0145669
X0014764
Y0137795
X0024606
Y0145669
X0034252
Y0137795
T02
X-0029528Y0166339
X-0019685
X-0009843
X0
X0009843
X0019685
X0029528
T03
X-0047638Y0189173
X0047638
M30
