M48
;Layer_Color=9474304
;FILE_FORMAT=2:5
INCH,LZ
;TYPE=PLATED
T1F00S00C0.00787
%
T01
X0002953Y0084252
X00095Y0079449
X0017Y00825
X002Y00895
X00185Y00935
X00165Y0098
X0013386Y0106299
X0011535Y0110236
X0017992
X00175Y01165
X0014764Y01235
Y0130905
X0004921
X-0000984Y0120079
X0024606Y01235
Y0130905
X0034252
Y01235
X0027835Y0116
X0034252Y0098
Y0089
X0025905Y0093504
X00105Y0089
X0034252Y0076063
X-0013
X-00185
Y008563
X-0009843Y0086614
X-000689Y0084252
X-0004Y00865
X-0013Y009
X-00185Y00975
X-00165Y0103347
X-0021378Y0112
Y0120079
X-0011535
Y0112
X-0014Y0130905
X-0004921
X-0024
X-0034
X-003071Y0122049
X-0029528Y0107283
X-0028532Y0101378
X-0028661Y0095472
Y0091535
Y008563
X-0024724Y0081693
X-0028661Y0077756
X-00245Y0137795
X-0034
X-0014Y01375
X-00045
X0004921Y0137795
Y0146276
X0014764Y0142717
X0024606
X0034252
M30
