G04*
G04 #@! TF.GenerationSoftware,Altium Limited,Altium Designer,24.7.2 (38)*
G04*
G04 Layer_Color=16711935*
%FSLAX25Y25*%
%MOIN*%
G70*
G04*
G04 #@! TF.SameCoordinates,9FCA0B9A-1E75-4BBE-B044-08948AB4E25D*
G04*
G04*
G04 #@! TF.FilePolarity,Negative*
G04*
G01*
G75*
%ADD11C,0.00394*%
%ADD13C,0.00197*%
%ADD14C,0.00039*%
%ADD15C,0.00079*%
%ADD23R,1.03150X0.11516*%
%ADD24R,1.18110X0.10630*%
%ADD26R,0.02126X0.01929*%
%ADD27R,0.02835X0.04016*%
%ADD28R,0.01929X0.02126*%
%ADD31R,0.02441X0.09134*%
%ADD32R,0.20945X0.20945*%
%ADD33R,0.05915X0.05915*%
%ADD34C,0.05915*%
%ADD50R,0.13661X0.13661*%
%ADD51R,0.01063X0.02835*%
%ADD52R,0.02835X0.01063*%
%ADD53R,0.05591X0.02835*%
%ADD54R,0.02441X0.05197*%
%ADD55R,0.02835X0.02441*%
G36*
X-2724Y75493D02*
X-2530D01*
Y75444D01*
X-2142D01*
Y75493D01*
X-1657D01*
Y75444D01*
X-1172D01*
Y75396D01*
X-881D01*
Y75347D01*
X-686D01*
Y75299D01*
X-638D01*
Y75250D01*
X-541D01*
Y75201D01*
X-444D01*
Y75153D01*
X-396D01*
Y75104D01*
X-347D01*
Y75056D01*
X-298D01*
Y75007D01*
X-250D01*
Y74959D01*
X-201D01*
Y74910D01*
X-153D01*
Y74862D01*
Y74813D01*
X-201D01*
Y74765D01*
Y74717D01*
X-153D01*
Y74765D01*
X-104D01*
Y74813D01*
X-56D01*
Y74765D01*
Y74717D01*
X-7D01*
Y74668D01*
Y74619D01*
X90D01*
Y74571D01*
X41D01*
Y74522D01*
X138D01*
Y74474D01*
X187D01*
Y74425D01*
Y74377D01*
Y74328D01*
X235D01*
Y74280D01*
X284D01*
Y74231D01*
Y74183D01*
X332D01*
Y74134D01*
Y74086D01*
Y74037D01*
X381D01*
Y73989D01*
Y73940D01*
X429D01*
Y73892D01*
Y73843D01*
X478D01*
Y73795D01*
Y73746D01*
X526D01*
Y73698D01*
X575D01*
Y73649D01*
Y73601D01*
X623D01*
Y73552D01*
Y73504D01*
X672D01*
Y73455D01*
X720D01*
Y73407D01*
X672D01*
Y73358D01*
X720D01*
Y73310D01*
X769D01*
Y73261D01*
Y73213D01*
Y73164D01*
X817D01*
Y73116D01*
Y73067D01*
Y73019D01*
X866D01*
Y72970D01*
Y72922D01*
Y72873D01*
Y72825D01*
Y72776D01*
X914D01*
Y72728D01*
Y72679D01*
X1545D01*
Y72631D01*
X1496D01*
Y72582D01*
X1399D01*
Y72534D01*
X1205D01*
Y72485D01*
X1496D01*
Y72437D01*
X1448D01*
Y72388D01*
X1399D01*
Y72437D01*
X1351D01*
Y72388D01*
X1302D01*
Y72339D01*
X963D01*
Y72291D01*
Y72242D01*
Y72194D01*
Y72145D01*
Y72097D01*
Y72048D01*
Y72000D01*
Y71952D01*
Y71903D01*
Y71855D01*
X914D01*
Y71806D01*
Y71757D01*
Y71709D01*
Y71660D01*
X866D01*
Y71612D01*
X817D01*
Y71563D01*
X866D01*
Y71515D01*
X817D01*
Y71466D01*
X769D01*
Y71418D01*
X720D01*
Y71369D01*
X769D01*
Y71321D01*
X720D01*
Y71272D01*
Y71224D01*
X672D01*
Y71272D01*
X623D01*
Y71224D01*
X672D01*
Y71175D01*
Y71127D01*
X623D01*
Y71078D01*
X575D01*
Y71030D01*
Y70981D01*
X526D01*
Y70933D01*
X429D01*
Y70884D01*
Y70836D01*
X332D01*
Y70787D01*
X284D01*
Y70739D01*
X187D01*
Y70690D01*
X41D01*
Y70642D01*
X-201D01*
Y70690D01*
X-347D01*
Y70739D01*
X-444D01*
Y70787D01*
X-493D01*
Y70836D01*
X-541D01*
Y70884D01*
X-589D01*
Y70933D01*
Y70981D01*
Y71030D01*
X-638D01*
Y71078D01*
Y71127D01*
X-686D01*
Y71175D01*
Y71224D01*
Y71272D01*
Y71321D01*
X-638D01*
Y71369D01*
X-589D01*
Y71418D01*
X-638D01*
Y71466D01*
X-589D01*
Y71515D01*
Y71563D01*
X-541D01*
Y71612D01*
X-493D01*
Y71660D01*
X-444D01*
Y71709D01*
X-298D01*
Y71660D01*
X-250D01*
Y71612D01*
Y71563D01*
X-298D01*
Y71515D01*
X-250D01*
Y71466D01*
Y71418D01*
X-298D01*
Y71369D01*
X-347D01*
Y71321D01*
Y71272D01*
Y71224D01*
X-298D01*
Y71175D01*
X-201D01*
Y71127D01*
X-56D01*
Y71175D01*
X41D01*
Y71224D01*
X90D01*
Y71272D01*
X138D01*
Y71321D01*
Y71369D01*
Y71418D01*
X187D01*
Y71466D01*
X235D01*
Y71515D01*
X187D01*
Y71563D01*
X235D01*
Y71612D01*
Y71660D01*
Y71709D01*
Y71757D01*
Y71806D01*
Y71855D01*
Y71903D01*
Y71952D01*
Y72000D01*
Y72048D01*
Y72097D01*
Y72145D01*
X284D01*
Y72194D01*
X235D01*
Y72242D01*
Y72291D01*
X187D01*
Y72339D01*
Y72388D01*
X138D01*
Y72437D01*
Y72485D01*
Y72534D01*
X90D01*
Y72582D01*
Y72631D01*
X41D01*
Y72679D01*
Y72728D01*
X-7D01*
Y72776D01*
X-298D01*
Y72728D01*
X-444D01*
Y72776D01*
X-493D01*
Y72825D01*
X-589D01*
Y72873D01*
X-638D01*
Y72922D01*
X-735D01*
Y72970D01*
X-1075D01*
Y72922D01*
X-1123D01*
Y72873D01*
X-1220D01*
Y72825D01*
Y72776D01*
X-1366D01*
Y72728D01*
Y72679D01*
X-1463D01*
Y72631D01*
X-1560D01*
Y72679D01*
X-1608D01*
Y72631D01*
X-1705D01*
Y72679D01*
X-1802D01*
Y72728D01*
X-1899D01*
Y72776D01*
X-1996D01*
Y72825D01*
Y72873D01*
X-2045D01*
Y72825D01*
X-2093D01*
Y72873D01*
X-2142D01*
Y72922D01*
X-2190D01*
Y72970D01*
Y73019D01*
X-2142D01*
Y73067D01*
X-2239D01*
Y73019D01*
Y72970D01*
X-2287D01*
Y73019D01*
X-2336D01*
Y73067D01*
X-2384D01*
Y73116D01*
X-2433D01*
Y73164D01*
X-2481D01*
Y73213D01*
X-2530D01*
Y73261D01*
X-2578D01*
Y73310D01*
X-2627D01*
Y73358D01*
Y73407D01*
X-2675D01*
Y73455D01*
X-2724D01*
Y73504D01*
X-2772D01*
Y73552D01*
Y73601D01*
X-2821D01*
Y73649D01*
X-2869D01*
Y73698D01*
Y73746D01*
X-2918D01*
Y73698D01*
Y73649D01*
X-2869D01*
Y73601D01*
Y73552D01*
X-2821D01*
Y73504D01*
Y73455D01*
X-2772D01*
Y73407D01*
X-2724D01*
Y73358D01*
X-2675D01*
Y73310D01*
Y73261D01*
X-2627D01*
Y73213D01*
X-2578D01*
Y73164D01*
X-2530D01*
Y73116D01*
X-2481D01*
Y73067D01*
X-2433D01*
Y73019D01*
X-2336D01*
Y72970D01*
X-2287D01*
Y72922D01*
X-2239D01*
Y72873D01*
X-2190D01*
Y72825D01*
X-2093D01*
Y72776D01*
X-2045D01*
Y72728D01*
Y72679D01*
X-1948D01*
Y72631D01*
Y72582D01*
Y72534D01*
Y72485D01*
Y72437D01*
Y72388D01*
Y72339D01*
Y72291D01*
X-1899D01*
Y72242D01*
Y72194D01*
Y72145D01*
Y72097D01*
Y72048D01*
Y72000D01*
Y71952D01*
Y71903D01*
X-1851D01*
Y71855D01*
X-1802D01*
Y71806D01*
Y71757D01*
Y71709D01*
X-1754D01*
Y71660D01*
Y71612D01*
X-1705D01*
Y71563D01*
Y71515D01*
Y71466D01*
Y71418D01*
Y71369D01*
X-1657D01*
Y71321D01*
Y71272D01*
Y71224D01*
X-1608D01*
Y71175D01*
Y71127D01*
X-1657D01*
Y71078D01*
X-1608D01*
Y71030D01*
X-1560D01*
Y70981D01*
Y70933D01*
X-1608D01*
Y70884D01*
X-1560D01*
Y70836D01*
Y70787D01*
X-1511D01*
Y70739D01*
Y70690D01*
Y70642D01*
X-1463D01*
Y70593D01*
Y70545D01*
Y70496D01*
Y70448D01*
X-1414D01*
Y70399D01*
Y70351D01*
Y70302D01*
X-1366D01*
Y70254D01*
X-1414D01*
Y70205D01*
X-1366D01*
Y70157D01*
X-1317D01*
Y70108D01*
Y70060D01*
Y70011D01*
X-1269D01*
Y69963D01*
Y69914D01*
Y69866D01*
X-1220D01*
Y69817D01*
X-1269D01*
Y69769D01*
X-1220D01*
Y69720D01*
Y69672D01*
X-1172D01*
Y69623D01*
X-1220D01*
Y69575D01*
X-1172D01*
Y69526D01*
Y69478D01*
Y69429D01*
Y69380D01*
Y69332D01*
X-1123D01*
Y69283D01*
Y69235D01*
Y69187D01*
X-1075D01*
Y69138D01*
Y69090D01*
X-1026D01*
Y69041D01*
Y68993D01*
X-978D01*
Y68944D01*
Y68896D01*
X-929D01*
Y68847D01*
X-881D01*
Y68798D01*
Y68750D01*
X-832D01*
Y68701D01*
X-783D01*
Y68653D01*
X-735D01*
Y68604D01*
Y68556D01*
X-783D01*
Y68507D01*
X-929D01*
Y68459D01*
X-1366D01*
Y68410D01*
X-1414D01*
Y68459D01*
X-1754D01*
Y68507D01*
Y68556D01*
X-1802D01*
Y68604D01*
Y68653D01*
Y68701D01*
Y68750D01*
X-1754D01*
Y68798D01*
Y68847D01*
X-1705D01*
Y68896D01*
X-1657D01*
Y68944D01*
Y68993D01*
X-1705D01*
Y69041D01*
Y69090D01*
Y69138D01*
X-1754D01*
Y69187D01*
Y69235D01*
Y69283D01*
X-1802D01*
Y69332D01*
Y69380D01*
Y69429D01*
X-1851D01*
Y69478D01*
Y69526D01*
X-1899D01*
Y69575D01*
Y69623D01*
X-1948D01*
Y69672D01*
Y69720D01*
X-1996D01*
Y69769D01*
Y69817D01*
X-2045D01*
Y69866D01*
X-2093D01*
Y69914D01*
Y69963D01*
X-2142D01*
Y70011D01*
X-2093D01*
Y70060D01*
X-2190D01*
Y70108D01*
Y70157D01*
Y70205D01*
X-2287D01*
Y70254D01*
Y70302D01*
X-2336D01*
Y70351D01*
Y70399D01*
X-2384D01*
Y70448D01*
X-2433D01*
Y70496D01*
X-2336D01*
Y70545D01*
X-2481D01*
Y70593D01*
X-2530D01*
Y70642D01*
Y70690D01*
X-2578D01*
Y70739D01*
X-2627D01*
Y70787D01*
X-2675D01*
Y70836D01*
X-2724D01*
Y70884D01*
X-2772D01*
Y70933D01*
X-2821D01*
Y70981D01*
X-2869D01*
Y71030D01*
X-2918D01*
Y71078D01*
X-2966D01*
Y71127D01*
X-3015D01*
Y71175D01*
X-3063D01*
Y71224D01*
Y71272D01*
X-3112D01*
Y71321D01*
X-3160D01*
Y71369D01*
Y71418D01*
X-3209D01*
Y71466D01*
X-3258D01*
Y71515D01*
Y71563D01*
X-3306D01*
Y71612D01*
Y71660D01*
X-3354D01*
Y71709D01*
Y71757D01*
X-3403D01*
Y71709D01*
Y71660D01*
X-3354D01*
Y71612D01*
Y71563D01*
X-3306D01*
Y71515D01*
Y71466D01*
X-3258D01*
Y71418D01*
Y71369D01*
X-3209D01*
Y71321D01*
X-3160D01*
Y71272D01*
Y71224D01*
X-3112D01*
Y71175D01*
X-3063D01*
Y71127D01*
Y71078D01*
X-3015D01*
Y71030D01*
Y70981D01*
Y70933D01*
Y70884D01*
X-3063D01*
Y70836D01*
Y70787D01*
Y70739D01*
X-3112D01*
Y70690D01*
Y70642D01*
Y70593D01*
X-3160D01*
Y70545D01*
Y70496D01*
X-3209D01*
Y70448D01*
Y70399D01*
Y70351D01*
X-3258D01*
Y70302D01*
Y70254D01*
Y70205D01*
X-3306D01*
Y70157D01*
Y70108D01*
Y70060D01*
Y70011D01*
X-3354D01*
Y69963D01*
Y69914D01*
Y69866D01*
Y69817D01*
X-3403D01*
Y69769D01*
Y69720D01*
Y69672D01*
X-3452D01*
Y69623D01*
Y69575D01*
X-3500D01*
Y69526D01*
Y69478D01*
Y69429D01*
X-3548D01*
Y69380D01*
Y69332D01*
X-3597D01*
Y69283D01*
Y69235D01*
Y69187D01*
Y69138D01*
Y69090D01*
X-3646D01*
Y69041D01*
Y68993D01*
X-3597D01*
Y68944D01*
Y68896D01*
Y68847D01*
X-3548D01*
Y68798D01*
X-3500D01*
Y68750D01*
X-3452D01*
Y68701D01*
X-3403D01*
Y68653D01*
X-3354D01*
Y68604D01*
Y68556D01*
X-3306D01*
Y68507D01*
Y68459D01*
Y68410D01*
X-3403D01*
Y68362D01*
X-4034D01*
Y68410D01*
X-4179D01*
Y68362D01*
X-4422D01*
Y68410D01*
X-4470D01*
Y68459D01*
Y68507D01*
Y68556D01*
Y68604D01*
X-4422D01*
Y68653D01*
Y68701D01*
X-4373D01*
Y68750D01*
X-4276D01*
Y68798D01*
Y68847D01*
Y68896D01*
X-4228D01*
Y68944D01*
X-4276D01*
Y68993D01*
Y69041D01*
Y69090D01*
Y69138D01*
Y69187D01*
Y69235D01*
Y69283D01*
Y69332D01*
Y69380D01*
Y69429D01*
Y69478D01*
X-4228D01*
Y69526D01*
Y69575D01*
Y69623D01*
Y69672D01*
Y69720D01*
Y69769D01*
Y69817D01*
Y69866D01*
X-4179D01*
Y69914D01*
Y69963D01*
Y70011D01*
Y70060D01*
Y70108D01*
X-4131D01*
Y70157D01*
Y70205D01*
Y70254D01*
Y70302D01*
Y70351D01*
Y70399D01*
X-4082D01*
Y70448D01*
Y70496D01*
Y70545D01*
Y70593D01*
Y70642D01*
Y70690D01*
Y70739D01*
Y70787D01*
Y70836D01*
Y70884D01*
Y70933D01*
Y70981D01*
X-4034D01*
Y71030D01*
X-4082D01*
Y71078D01*
Y71127D01*
Y71175D01*
Y71224D01*
Y71272D01*
Y71321D01*
Y71369D01*
Y71418D01*
X-4131D01*
Y71466D01*
Y71515D01*
Y71563D01*
X-4228D01*
Y71515D01*
X-4325D01*
Y71466D01*
X-4422D01*
Y71418D01*
X-4519D01*
Y71369D01*
X-4664D01*
Y71321D01*
X-4810D01*
Y71272D01*
X-5052D01*
Y71224D01*
X-5149D01*
Y71272D01*
X-5295D01*
Y71224D01*
X-5634D01*
Y71272D01*
X-5683D01*
Y71224D01*
X-5634D01*
Y71175D01*
X-5731D01*
Y71127D01*
Y71078D01*
X-5780D01*
Y71030D01*
X-5828D01*
Y70981D01*
X-5877D01*
Y70933D01*
X-5925D01*
Y70884D01*
X-5974D01*
Y70836D01*
X-6022D01*
Y70787D01*
X-6071D01*
Y70739D01*
X-6120D01*
Y70690D01*
Y70642D01*
X-6168D01*
Y70593D01*
Y70545D01*
Y70496D01*
X-6216D01*
Y70448D01*
Y70399D01*
X-6265D01*
Y70351D01*
Y70302D01*
Y70254D01*
X-6313D01*
Y70205D01*
Y70157D01*
Y70108D01*
Y70060D01*
X-6265D01*
Y70011D01*
Y69963D01*
Y69914D01*
Y69866D01*
Y69817D01*
Y69769D01*
Y69720D01*
Y69672D01*
Y69623D01*
Y69575D01*
Y69526D01*
Y69478D01*
Y69429D01*
Y69380D01*
Y69332D01*
Y69283D01*
X-6216D01*
Y69235D01*
Y69187D01*
Y69138D01*
X-6168D01*
Y69090D01*
Y69041D01*
X-6120D01*
Y68993D01*
X-6071D01*
Y68944D01*
X-6022D01*
Y68896D01*
X-5974D01*
Y68847D01*
X-5925D01*
Y68798D01*
X-5877D01*
Y68750D01*
X-5828D01*
Y68701D01*
X-5780D01*
Y68653D01*
Y68604D01*
Y68556D01*
X-5828D01*
Y68507D01*
X-6896D01*
Y68556D01*
X-6993D01*
Y68604D01*
Y68653D01*
Y68701D01*
Y68750D01*
Y68798D01*
Y68847D01*
Y68896D01*
Y68944D01*
Y68993D01*
Y69041D01*
Y69090D01*
Y69138D01*
Y69187D01*
Y69235D01*
X-6944D01*
Y69283D01*
Y69332D01*
Y69380D01*
Y69429D01*
Y69478D01*
X-6896D01*
Y69526D01*
Y69575D01*
Y69623D01*
Y69672D01*
Y69720D01*
Y69769D01*
Y69817D01*
Y69866D01*
Y69914D01*
Y69963D01*
Y70011D01*
Y70060D01*
Y70108D01*
Y70157D01*
Y70205D01*
Y70254D01*
X-6944D01*
Y70302D01*
Y70351D01*
Y70399D01*
Y70448D01*
Y70496D01*
Y70545D01*
Y70593D01*
X-6993D01*
Y70642D01*
X-7041D01*
Y70690D01*
X-7090D01*
Y70739D01*
X-7041D01*
Y70787D01*
X-6993D01*
Y70836D01*
X-6944D01*
Y70884D01*
X-6896D01*
Y70933D01*
X-6847D01*
Y70981D01*
Y71030D01*
X-6799D01*
Y71078D01*
X-6702D01*
Y71127D01*
Y71175D01*
Y71224D01*
X-6750D01*
Y71175D01*
X-6799D01*
Y71127D01*
X-6847D01*
Y71078D01*
X-6896D01*
Y71030D01*
Y70981D01*
X-6944D01*
Y70933D01*
X-6993D01*
Y70981D01*
X-7090D01*
Y70933D01*
X-6993D01*
Y70884D01*
X-7041D01*
Y70836D01*
X-7090D01*
Y70787D01*
X-7138D01*
Y70739D01*
Y70690D01*
X-7187D01*
Y70642D01*
X-7235D01*
Y70593D01*
X-7284D01*
Y70545D01*
X-7332D01*
Y70496D01*
Y70448D01*
X-7381D01*
Y70399D01*
X-7429D01*
Y70351D01*
Y70302D01*
X-7478D01*
Y70254D01*
Y70205D01*
X-7575D01*
Y70157D01*
X-7526D01*
Y70108D01*
X-7575D01*
Y70060D01*
X-7623D01*
Y70011D01*
Y69963D01*
Y69914D01*
X-7672D01*
Y69866D01*
Y69817D01*
X-7720D01*
Y69769D01*
Y69720D01*
X-7769D01*
Y69672D01*
X-7720D01*
Y69623D01*
X-7769D01*
Y69575D01*
Y69526D01*
Y69478D01*
Y69429D01*
X-7817D01*
Y69478D01*
X-7866D01*
Y69429D01*
X-7817D01*
Y69380D01*
Y69332D01*
Y69283D01*
Y69235D01*
X-7866D01*
Y69187D01*
Y69138D01*
Y69090D01*
X-7914D01*
Y69041D01*
Y68993D01*
Y68944D01*
X-7963D01*
Y68896D01*
X-7914D01*
Y68847D01*
Y68798D01*
Y68750D01*
X-7866D01*
Y68701D01*
X-7914D01*
Y68750D01*
X-7963D01*
Y68701D01*
X-7914D01*
Y68653D01*
Y68604D01*
Y68556D01*
X-8011D01*
Y68507D01*
X-8060D01*
Y68556D01*
X-8496D01*
Y68604D01*
X-8545D01*
Y68653D01*
X-8593D01*
Y68701D01*
Y68750D01*
X-8642D01*
Y68798D01*
Y68847D01*
Y68896D01*
Y68944D01*
Y68993D01*
Y69041D01*
X-8593D01*
Y69090D01*
Y69138D01*
X-8545D01*
Y69187D01*
X-8496D01*
Y69235D01*
X-8448D01*
Y69283D01*
X-8399D01*
Y69235D01*
X-8351D01*
Y69283D01*
X-8399D01*
Y69332D01*
Y69380D01*
Y69429D01*
Y69478D01*
X-8351D01*
Y69526D01*
Y69575D01*
Y69623D01*
X-8302D01*
Y69672D01*
Y69720D01*
X-8254D01*
Y69769D01*
Y69817D01*
X-8351D01*
Y69769D01*
X-8399D01*
Y69817D01*
Y69866D01*
X-8496D01*
Y69914D01*
Y69963D01*
X-8448D01*
Y70011D01*
Y70060D01*
Y70108D01*
Y70157D01*
Y70205D01*
X-8399D01*
Y70254D01*
Y70302D01*
Y70351D01*
X-8351D01*
Y70399D01*
Y70448D01*
Y70496D01*
Y70545D01*
X-8302D01*
Y70593D01*
Y70642D01*
Y70690D01*
X-8254D01*
Y70739D01*
Y70787D01*
Y70836D01*
X-8205D01*
Y70884D01*
Y70933D01*
Y70981D01*
Y71030D01*
X-8157D01*
Y70981D01*
X-8108D01*
Y70933D01*
Y70884D01*
Y70836D01*
Y70787D01*
X-8157D01*
Y70739D01*
Y70690D01*
Y70642D01*
Y70593D01*
X-8205D01*
Y70545D01*
Y70496D01*
Y70448D01*
X-8254D01*
Y70399D01*
Y70351D01*
Y70302D01*
Y70254D01*
Y70205D01*
Y70157D01*
Y70108D01*
Y70060D01*
Y70011D01*
Y69963D01*
Y69914D01*
X-8302D01*
Y69866D01*
X-8205D01*
Y69914D01*
Y69963D01*
Y70011D01*
X-8157D01*
Y70060D01*
Y70108D01*
Y70157D01*
Y70205D01*
X-8108D01*
Y70254D01*
Y70302D01*
Y70351D01*
Y70399D01*
Y70448D01*
X-8060D01*
Y70496D01*
Y70545D01*
Y70593D01*
Y70642D01*
Y70690D01*
Y70739D01*
Y70787D01*
Y70836D01*
Y70884D01*
Y70933D01*
Y70981D01*
Y71030D01*
X-8108D01*
Y71078D01*
X-8157D01*
Y71127D01*
Y71175D01*
Y71224D01*
X-8108D01*
Y71272D01*
Y71321D01*
Y71369D01*
Y71418D01*
Y71466D01*
Y71515D01*
Y71563D01*
Y71612D01*
X-8060D01*
Y71660D01*
Y71709D01*
Y71757D01*
Y71806D01*
Y71855D01*
Y71903D01*
Y71952D01*
X-8011D01*
Y72000D01*
Y72048D01*
Y72097D01*
Y72145D01*
Y72194D01*
Y72242D01*
Y72291D01*
Y72339D01*
Y72388D01*
Y72437D01*
Y72485D01*
Y72534D01*
Y72582D01*
Y72631D01*
Y72679D01*
Y72728D01*
Y72776D01*
Y72825D01*
Y72873D01*
X-7963D01*
Y72922D01*
Y72970D01*
Y73019D01*
Y73067D01*
Y73116D01*
X-7914D01*
Y73164D01*
Y73213D01*
X-7866D01*
Y73261D01*
Y73310D01*
Y73358D01*
X-7817D01*
Y73407D01*
X-7769D01*
Y73455D01*
Y73504D01*
X-7720D01*
Y73552D01*
Y73601D01*
X-7623D01*
Y73649D01*
Y73698D01*
Y73746D01*
X-7575D01*
Y73795D01*
X-7526D01*
Y73843D01*
X-7429D01*
Y73892D01*
X-7478D01*
Y73940D01*
X-7429D01*
Y73989D01*
X-7381D01*
Y74037D01*
Y74086D01*
X-7332D01*
Y74134D01*
X-7284D01*
Y74183D01*
Y74231D01*
X-7235D01*
Y74280D01*
X-7187D01*
Y74328D01*
X-7138D01*
Y74280D01*
X-7090D01*
Y74328D01*
X-7138D01*
Y74377D01*
Y74425D01*
X-7090D01*
Y74474D01*
X-7041D01*
Y74522D01*
X-6993D01*
Y74571D01*
X-6944D01*
Y74619D01*
X-6799D01*
Y74668D01*
Y74717D01*
X-6750D01*
Y74668D01*
X-6702D01*
Y74717D01*
Y74765D01*
X-6605D01*
Y74813D01*
X-6508D01*
Y74862D01*
X-6313D01*
Y74910D01*
X-6168D01*
Y74862D01*
X-6120D01*
Y74910D01*
X-6168D01*
Y74959D01*
X-5780D01*
Y75007D01*
X-4616D01*
Y75056D01*
X-4373D01*
Y75104D01*
X-4228D01*
Y75153D01*
X-4082D01*
Y75201D01*
X-3937D01*
Y75250D01*
X-3743D01*
Y75299D01*
X-3597D01*
Y75347D01*
X-3403D01*
Y75396D01*
X-3306D01*
Y75444D01*
X-3160D01*
Y75493D01*
X-3112D01*
Y75444D01*
X-3063D01*
Y75493D01*
X-3015D01*
Y75444D01*
X-2966D01*
Y75493D01*
X-3015D01*
Y75541D01*
X-2724D01*
Y75493D01*
D02*
G37*
%LPC*%
G36*
X-2481Y75250D02*
X-2530D01*
Y75201D01*
X-2481D01*
Y75153D01*
X-2433D01*
Y75201D01*
X-2481D01*
Y75250D01*
D02*
G37*
G36*
Y75153D02*
X-2530D01*
Y75104D01*
X-2481D01*
Y75153D01*
D02*
G37*
G36*
X-2530Y75104D02*
X-2578D01*
Y75056D01*
X-2530D01*
Y75104D01*
D02*
G37*
G36*
X-2627D02*
X-2772D01*
Y75056D01*
X-2627D01*
Y75104D01*
D02*
G37*
G36*
X-2772Y75056D02*
X-2918D01*
Y75007D01*
X-3015D01*
Y74959D01*
X-3112D01*
Y74910D01*
X-3160D01*
Y74862D01*
X-3209D01*
Y74813D01*
X-3258D01*
Y74765D01*
Y74717D01*
Y74668D01*
Y74619D01*
Y74571D01*
Y74522D01*
Y74474D01*
Y74425D01*
Y74377D01*
X-3209D01*
Y74328D01*
Y74280D01*
Y74231D01*
Y74183D01*
X-3160D01*
Y74134D01*
Y74086D01*
Y74037D01*
X-3112D01*
Y74086D01*
Y74134D01*
Y74183D01*
X-3160D01*
Y74231D01*
Y74280D01*
Y74328D01*
Y74377D01*
Y74425D01*
X-3209D01*
Y74474D01*
Y74522D01*
Y74571D01*
Y74619D01*
Y74668D01*
Y74717D01*
Y74765D01*
X-3160D01*
Y74813D01*
X-3112D01*
Y74765D01*
X-3063D01*
Y74813D01*
X-3112D01*
Y74862D01*
X-3015D01*
Y74910D01*
X-2966D01*
Y74959D01*
X-2869D01*
Y75007D01*
X-2772D01*
Y75056D01*
D02*
G37*
G36*
X-6799Y74571D02*
X-6847D01*
Y74522D01*
X-6799D01*
Y74571D01*
D02*
G37*
G36*
X-638Y74522D02*
X-686D01*
Y74474D01*
X-638D01*
Y74425D01*
X-493D01*
Y74377D01*
X-444D01*
Y74425D01*
X-396D01*
Y74474D01*
X-638D01*
Y74522D01*
D02*
G37*
G36*
X-444Y74619D02*
X-589D01*
Y74571D01*
X-444D01*
Y74522D01*
X-396D01*
Y74474D01*
X-347D01*
Y74425D01*
Y74377D01*
Y74328D01*
X-298D01*
Y74377D01*
Y74425D01*
Y74474D01*
X-347D01*
Y74522D01*
X-396D01*
Y74571D01*
X-444D01*
Y74619D01*
D02*
G37*
G36*
X-3306Y74425D02*
X-3354D01*
Y74377D01*
Y74328D01*
X-3258D01*
Y74377D01*
X-3306D01*
Y74425D01*
D02*
G37*
G36*
X-3063Y73989D02*
X-3112D01*
Y73940D01*
X-3063D01*
Y73989D01*
D02*
G37*
G36*
X-2918Y73843D02*
X-2966D01*
Y73795D01*
X-2918D01*
Y73843D01*
D02*
G37*
G36*
X-832Y73795D02*
X-881D01*
Y73746D01*
X-832D01*
Y73795D01*
D02*
G37*
G36*
X-783Y73649D02*
X-832D01*
Y73601D01*
Y73552D01*
Y73504D01*
X-783D01*
Y73552D01*
Y73601D01*
Y73649D01*
D02*
G37*
G36*
X-929Y73310D02*
X-978D01*
Y73261D01*
X-929D01*
Y73310D01*
D02*
G37*
G36*
X-832Y73407D02*
X-881D01*
Y73358D01*
Y73310D01*
Y73261D01*
X-832D01*
Y73213D01*
X-783D01*
Y73261D01*
X-832D01*
Y73310D01*
Y73358D01*
Y73407D01*
D02*
G37*
G36*
X-881Y73213D02*
X-929D01*
Y73164D01*
Y73116D01*
X-881D01*
Y73164D01*
Y73213D01*
D02*
G37*
G36*
X-929Y73116D02*
X-978D01*
Y73067D01*
Y73019D01*
X-929D01*
Y73067D01*
Y73116D01*
D02*
G37*
G36*
X-396Y72825D02*
X-444D01*
Y72776D01*
X-396D01*
Y72825D01*
D02*
G37*
G36*
X-2190D02*
X-2239D01*
Y72776D01*
X-2190D01*
Y72825D01*
D02*
G37*
G36*
X-1414Y72776D02*
X-1463D01*
Y72728D01*
X-1414D01*
Y72776D01*
D02*
G37*
G36*
X-6410Y72145D02*
X-6459D01*
Y72097D01*
X-6410D01*
Y72145D01*
D02*
G37*
G36*
X-3452Y72000D02*
X-3500D01*
Y71952D01*
X-3452D01*
Y72000D01*
D02*
G37*
G36*
X-3403Y71855D02*
X-3452D01*
Y71806D01*
X-3403D01*
Y71855D01*
D02*
G37*
G36*
X-6410Y71952D02*
X-6459D01*
Y71903D01*
Y71855D01*
Y71806D01*
X-6410D01*
Y71855D01*
Y71903D01*
Y71952D01*
D02*
G37*
G36*
X-298Y71660D02*
X-396D01*
Y71612D01*
X-298D01*
Y71660D01*
D02*
G37*
G36*
X-6508Y71806D02*
X-6556D01*
Y71757D01*
X-6508D01*
Y71709D01*
Y71660D01*
Y71612D01*
X-6459D01*
Y71660D01*
Y71709D01*
Y71757D01*
X-6508D01*
Y71806D01*
D02*
G37*
G36*
X-298Y71515D02*
X-347D01*
Y71466D01*
X-298D01*
Y71515D01*
D02*
G37*
G36*
X-1705Y71369D02*
X-1754D01*
Y71321D01*
X-1705D01*
Y71369D01*
D02*
G37*
G36*
X-6508Y71612D02*
X-6556D01*
Y71563D01*
Y71515D01*
X-6605D01*
Y71466D01*
Y71418D01*
X-6653D01*
Y71369D01*
Y71321D01*
X-6702D01*
Y71272D01*
Y71224D01*
X-6653D01*
Y71272D01*
X-6605D01*
Y71321D01*
Y71369D01*
X-6556D01*
Y71418D01*
Y71466D01*
X-6508D01*
Y71515D01*
Y71563D01*
Y71612D01*
D02*
G37*
G36*
X-347Y71224D02*
X-396D01*
Y71175D01*
X-347D01*
Y71224D01*
D02*
G37*
G36*
X-2045Y70108D02*
X-2093D01*
Y70060D01*
X-2045D01*
Y70108D01*
D02*
G37*
G36*
X-1317Y70011D02*
X-1366D01*
Y69963D01*
X-1317D01*
Y70011D01*
D02*
G37*
G36*
X-7720Y69914D02*
X-7769D01*
Y69866D01*
X-7720D01*
Y69914D01*
D02*
G37*
G36*
X-8157Y69817D02*
X-8205D01*
Y69769D01*
X-8157D01*
Y69817D01*
D02*
G37*
G36*
X-7914Y69187D02*
X-7963D01*
Y69138D01*
X-7914D01*
Y69187D01*
D02*
G37*
G36*
X-8302Y68653D02*
X-8351D01*
Y68604D01*
X-8302D01*
Y68653D01*
D02*
G37*
%LPD*%
D11*
X68898Y-197D02*
G03*
X65748Y-3347I0J-3150D01*
G01*
X-35433D02*
G03*
X-38583Y-197I-3150J0D01*
G01*
X2953Y0D02*
G03*
X-2953Y0I-2953J0D01*
G01*
X68898Y-197D02*
G03*
X65748Y-3347I0J-3150D01*
G01*
X-35433D02*
G03*
X-38583Y-197I-3150J0D01*
G01*
X2953Y0D02*
G03*
X-2953Y0I-2953J0D01*
G01*
X-35433Y-12795D02*
X-2953D01*
X65748D02*
Y-3347D01*
X68898Y-197D02*
X74213D01*
X-43898D02*
X-38583D01*
X2953Y-12795D02*
Y0D01*
X-2953Y-12795D02*
Y0D01*
X-35433Y-12795D02*
Y-3347D01*
X2953Y-12795D02*
X65748D01*
X-43898Y187795D02*
X74213D01*
X-35433Y-12795D02*
Y-3347D01*
X74213Y-197D02*
Y187795D01*
X-2953Y-12795D02*
Y0D01*
X65748Y-12795D02*
Y-3347D01*
X2953Y-12795D02*
Y0D01*
X-35433Y-12795D02*
X-2953D01*
X2953D02*
X65748D01*
X68898Y-197D02*
X74213D01*
X-43898D02*
X-38583D01*
X-43898D02*
Y187795D01*
D13*
X3557Y90762D02*
X26757D01*
X3557Y113962D02*
X26757D01*
X3557Y90762D02*
Y113962D01*
X26757Y90762D02*
Y113962D01*
X15157Y101181D02*
Y103543D01*
X13976Y102362D02*
X16339D01*
X3557Y113962D02*
X26757D01*
Y90762D02*
Y113962D01*
X3557Y90762D02*
X26757D01*
X3557D02*
Y113962D01*
D14*
X-1181Y10433D02*
X31496D01*
Y60433D01*
X-1181D02*
X31496D01*
X-1181Y10433D02*
Y60433D01*
X-12905Y113189D02*
X-9953D01*
Y119095D01*
X-12905Y113189D02*
Y119095D01*
X-9953D01*
X-17906Y113189D02*
X-14953D01*
Y119095D01*
X-17906Y113189D02*
Y119095D01*
X-14953D01*
X22724Y80709D02*
Y112205D01*
X-20583Y80709D02*
Y112205D01*
X22724D01*
X-20583Y80709D02*
X22724D01*
X17095Y73819D02*
X20047D01*
Y79724D01*
X17095Y73819D02*
Y79724D01*
X20047D01*
X7095Y73819D02*
X10047D01*
Y79724D01*
X7095Y73819D02*
Y79724D01*
X10047D01*
X-2905Y73819D02*
X47D01*
Y79724D01*
X-2905Y73819D02*
Y79724D01*
X47D01*
X-17906D02*
X-14953D01*
X-17906Y73819D02*
Y79724D01*
X-14953Y73819D02*
Y79724D01*
X-17906Y73819D02*
X-14953D01*
X58465Y141732D02*
Y190945D01*
X-28150Y141732D02*
Y190945D01*
Y141732D02*
X58465D01*
X-28150Y190945D02*
X58465D01*
X39591Y130709D02*
Y137008D01*
Y130709D02*
X50614D01*
X39591Y137008D02*
X50614D01*
Y130709D02*
Y137008D01*
X42150Y126476D02*
Y129429D01*
X48055Y126476D02*
Y129429D01*
X42150Y126476D02*
X48055D01*
X42150Y129429D02*
X48055D01*
X9646Y130709D02*
Y137008D01*
Y130709D02*
X20669D01*
X9646Y137008D02*
X20669D01*
Y130709D02*
Y137008D01*
X12205Y126476D02*
Y129429D01*
X18110Y126476D02*
Y129429D01*
X12205Y126476D02*
X18110D01*
X12205Y129429D02*
X18110D01*
X-19882Y130709D02*
Y137008D01*
Y130709D02*
X-8858D01*
X-19882Y137008D02*
X-8858D01*
Y130709D02*
Y137008D01*
X-17323Y126476D02*
Y129429D01*
X-11417Y126476D02*
Y129429D01*
X-17323Y126476D02*
X-11417D01*
X-17323Y129429D02*
X-11417D01*
X32791Y78445D02*
Y81398D01*
X38697Y78445D02*
Y81398D01*
X32791Y78445D02*
X38697D01*
X32791Y81398D02*
X38697D01*
X46571Y78445D02*
Y81398D01*
X40665D02*
X46571D01*
X40665Y78445D02*
X46571D01*
X40665D02*
Y81398D01*
X-11417Y111713D02*
Y114665D01*
X-17323Y111713D02*
X-11417D01*
X-17323Y114665D02*
X-11417D01*
X-17323Y111713D02*
Y114665D01*
X-17323Y107776D02*
Y110728D01*
X-11417D01*
X-17323Y107776D02*
X-11417D01*
Y110728D01*
Y92028D02*
Y94980D01*
X-17323Y92028D02*
X-11417D01*
X-17323Y94980D02*
X-11417D01*
X-17323Y92028D02*
Y94980D01*
X41732Y107776D02*
Y110728D01*
X47638D01*
X41732Y107776D02*
X47638D01*
Y110728D01*
X41732Y95965D02*
Y98917D01*
X47638D01*
X41732Y95965D02*
X47638D01*
Y98917D01*
X-17284Y54134D02*
X-14331D01*
X-17284D02*
Y60039D01*
X-14331Y54134D02*
Y60039D01*
X-17284D02*
X-14331D01*
X-7283Y54134D02*
X-4331D01*
X-7283D02*
Y60039D01*
X-4331Y54134D02*
Y60039D01*
X-7283D02*
X-4331D01*
X2716Y54134D02*
X5669D01*
X2716D02*
Y60039D01*
X5669Y54134D02*
Y60039D01*
X2716D02*
X5669D01*
X12717Y54134D02*
X15669D01*
X12717D02*
Y60039D01*
X15669Y54134D02*
Y60039D01*
X12717D02*
X15669D01*
X-17284Y14764D02*
X-14331D01*
X-17284D02*
Y20669D01*
X-14331Y14764D02*
Y20669D01*
X-17284D02*
X-14331D01*
X-7283Y14764D02*
X-4331D01*
X-7283D02*
Y20669D01*
X-4331Y14764D02*
Y20669D01*
X-7283D02*
X-4331D01*
X2716Y14764D02*
X5669D01*
X2716D02*
Y20669D01*
X5669Y14764D02*
Y20669D01*
X2716D02*
X5669D01*
X12717Y14764D02*
X15669D01*
X12717D02*
Y20669D01*
X15669Y14764D02*
Y20669D01*
X12717D02*
X15669D01*
X41732Y143815D02*
Y146768D01*
X47638D01*
X41732Y143815D02*
X47638D01*
Y146768D01*
X27953Y140256D02*
Y143209D01*
X22047Y140256D02*
X27953D01*
X22047Y143209D02*
X27953D01*
X22047Y140256D02*
Y143209D01*
X37795Y140256D02*
Y143209D01*
X31890Y140256D02*
X37795D01*
X31890Y143209D02*
X37795D01*
X31890Y140256D02*
Y143209D01*
X-17520Y147244D02*
X-11220D01*
Y136221D02*
Y147244D01*
X-17520Y136221D02*
Y147244D01*
Y136221D02*
X-11220D01*
X-7677Y147244D02*
X-1378D01*
Y136221D02*
Y147244D01*
X-7677Y136221D02*
Y147244D01*
Y136221D02*
X-1378D01*
X2165Y147244D02*
X8465D01*
Y136221D02*
Y147244D01*
X2165Y136221D02*
Y147244D01*
Y136221D02*
X8465D01*
X2362Y124508D02*
Y127461D01*
X8268D01*
X2362Y124508D02*
X8268D01*
Y127461D01*
X-7480Y124508D02*
Y127461D01*
X-1575D01*
X-7480Y124508D02*
X-1575D01*
Y127461D01*
X-17323Y124508D02*
Y127461D01*
X-11417D01*
X-17323Y124508D02*
X-11417D01*
Y127461D01*
Y99902D02*
Y102854D01*
X-17323Y99902D02*
X-11417D01*
X-17323Y102854D02*
X-11417D01*
X-17323Y99902D02*
Y102854D01*
X24508Y77756D02*
X27461D01*
Y71850D02*
Y77756D01*
X24508Y71850D02*
Y77756D01*
Y71850D02*
X27461D01*
X-11417Y103839D02*
Y106791D01*
X-17323Y103839D02*
X-11417D01*
X-17323Y106791D02*
X-11417D01*
X-17323Y103839D02*
Y106791D01*
X41732Y103839D02*
Y106791D01*
X47638D01*
X41732Y103839D02*
X47638D01*
Y106791D01*
X20571Y71850D02*
X23524D01*
X20571D02*
Y77756D01*
X23524Y71850D02*
Y77756D01*
X20571D02*
X23524D01*
X47638Y111713D02*
Y114665D01*
X41732Y111713D02*
X47638D01*
X41732Y114665D02*
X47638D01*
X41732Y111713D02*
Y114665D01*
X47638Y92028D02*
Y94980D01*
X41732Y92028D02*
X47638D01*
X41732Y94980D02*
X47638D01*
X41732Y92028D02*
Y94980D01*
X47638Y99902D02*
Y102854D01*
X41732Y99902D02*
X47638D01*
X41732Y102854D02*
X47638D01*
X41732Y99902D02*
Y102854D01*
X47638Y88090D02*
Y91043D01*
X41732Y88090D02*
X47638D01*
X41732Y91043D02*
X47638D01*
X41732Y88090D02*
Y91043D01*
X-17323Y95965D02*
Y98917D01*
X-11417D01*
X-17323Y95965D02*
X-11417D01*
Y98917D01*
X-19961Y22441D02*
Y53937D01*
X23346Y22441D02*
Y53937D01*
X-19961D02*
X23346D01*
X-19961Y22441D02*
X23346D01*
X28780Y53150D02*
X48465D01*
X28780Y21654D02*
X48465D01*
X28780D02*
Y53150D01*
X48465Y21654D02*
Y53150D01*
X47638Y140256D02*
Y143209D01*
X41732Y140256D02*
X47638D01*
X41732Y143209D02*
X47638D01*
X41732Y140256D02*
Y143209D01*
X47638Y132382D02*
Y135335D01*
X41732Y132382D02*
X47638D01*
X41732Y135335D02*
X47638D01*
X41732Y132382D02*
Y135335D01*
X37795Y132382D02*
Y135335D01*
X31890Y132382D02*
X37795D01*
X31890Y135335D02*
X37795D01*
X31890Y132382D02*
Y135335D01*
Y143815D02*
Y146768D01*
X37795D01*
X31890Y143815D02*
X37795D01*
Y146768D01*
X27953Y132382D02*
Y135335D01*
X22047Y132382D02*
X27953D01*
X22047Y135335D02*
X27953D01*
X22047Y132382D02*
Y135335D01*
Y143815D02*
Y146768D01*
X27953D01*
X22047Y143815D02*
X27953D01*
Y146768D01*
X7087Y78740D02*
X16535D01*
X7087Y70866D02*
X16535D01*
X7087D02*
Y78740D01*
X16535Y70866D02*
Y78740D01*
X15157Y34449D02*
Y36417D01*
X14173Y35433D02*
X16142D01*
X-2165Y9449D02*
Y17402D01*
X32480Y53465D02*
Y61417D01*
X-2165D02*
X32480D01*
X-2165Y9449D02*
X32480D01*
Y17402D01*
X-2165Y53425D02*
Y61417D01*
X-9843Y53425D02*
X-2165D01*
X32480Y17402D02*
X40157D01*
X-9843D02*
Y53425D01*
X40157Y17402D02*
Y53465D01*
X-9843Y17402D02*
X-2165D01*
X32480Y53465D02*
X40157D01*
X-12905Y113189D02*
X-9953D01*
X-12905Y119095D02*
X-9953D01*
Y113189D02*
Y119095D01*
X-12905Y113189D02*
Y119095D01*
X-11429Y115157D02*
Y117126D01*
X-12413Y116142D02*
X-10445D01*
X-17906Y113189D02*
X-14953D01*
X-17906Y119095D02*
X-14953D01*
Y113189D02*
Y119095D01*
X-17906Y113189D02*
Y119095D01*
X-16429Y115157D02*
Y117126D01*
X-17413Y116142D02*
X-15445D01*
X1071Y95472D02*
Y97441D01*
X87Y96457D02*
X2055D01*
X-20583Y80709D02*
X22724D01*
Y112205D01*
X-20583Y80709D02*
Y112205D01*
X22724D01*
X17095Y73819D02*
X20047D01*
X17095Y79724D02*
X20047D01*
Y73819D02*
Y79724D01*
X17095Y73819D02*
Y79724D01*
X18571Y75787D02*
Y77756D01*
X17587Y76772D02*
X19555D01*
X7095Y73819D02*
X10047D01*
X7095Y79724D02*
X10047D01*
Y73819D02*
Y79724D01*
X7095Y73819D02*
Y79724D01*
X8571Y75787D02*
Y77756D01*
X7587Y76772D02*
X9555D01*
X-2905Y73819D02*
X47D01*
X-2905Y79724D02*
X47D01*
Y73819D02*
Y79724D01*
X-2905Y73819D02*
Y79724D01*
X-1429Y75787D02*
Y77756D01*
X-2413Y76772D02*
X-445D01*
X-17906Y79724D02*
X-14953D01*
X-17906Y73819D02*
X-14953D01*
X-17906D02*
Y79724D01*
X-14953Y73819D02*
Y79724D01*
X-16429Y75787D02*
Y77756D01*
X-17413Y76772D02*
X-15445D01*
X-28150Y141732D02*
X58465D01*
X-28150D02*
Y190945D01*
X58465D01*
Y141732D02*
Y190945D01*
X15157Y152559D02*
Y154528D01*
X14173Y153543D02*
X16142D01*
X45102Y132874D02*
Y134843D01*
X44118Y133858D02*
X46087D01*
X39591Y130709D02*
X50614D01*
X39591Y137008D02*
X50614D01*
X39591Y130709D02*
Y137008D01*
X50614Y130709D02*
Y137008D01*
X42150Y126476D02*
X48055D01*
X42150Y129429D02*
X48055D01*
X42150Y126476D02*
Y129429D01*
X48055Y126476D02*
Y129429D01*
X45102Y126969D02*
Y128937D01*
X44118Y127953D02*
X46087D01*
X15157Y132874D02*
Y134843D01*
X14173Y133858D02*
X16142D01*
X9646Y130709D02*
X20669D01*
X9646Y137008D02*
X20669D01*
X9646Y130709D02*
Y137008D01*
X20669Y130709D02*
Y137008D01*
X12205Y126476D02*
X18110D01*
X12205Y129429D02*
X18110D01*
X12205Y126476D02*
Y129429D01*
X18110Y126476D02*
Y129429D01*
X15157Y126969D02*
Y128937D01*
X14173Y127953D02*
X16142D01*
X-14370Y132874D02*
Y134843D01*
X-15354Y133858D02*
X-13386D01*
X-19882Y130709D02*
X-8858D01*
X-19882Y137008D02*
X-8858D01*
X-19882Y130709D02*
Y137008D01*
X-8858Y130709D02*
Y137008D01*
X-17323Y126476D02*
X-11417D01*
X-17323Y129429D02*
X-11417D01*
X-17323Y126476D02*
Y129429D01*
X-11417Y126476D02*
Y129429D01*
X-14370Y126969D02*
Y128937D01*
X-15354Y127953D02*
X-13386D01*
X32791Y78445D02*
X38697D01*
X32791Y81398D02*
X38697D01*
X32791Y78445D02*
Y81398D01*
X38697Y78445D02*
Y81398D01*
X35744Y78937D02*
Y80905D01*
X34760Y79921D02*
X36728D01*
X46571Y78445D02*
Y81398D01*
X40665Y78445D02*
Y81398D01*
X46571D01*
X40665Y78445D02*
X46571D01*
X42634Y79921D02*
X44602D01*
X43618Y78937D02*
Y80905D01*
X-11417Y111713D02*
Y114665D01*
X-17323Y111713D02*
Y114665D01*
Y111713D02*
X-11417D01*
X-17323Y114665D02*
X-11417D01*
X-15354Y113189D02*
X-13386D01*
X-14370Y112205D02*
Y114173D01*
X-17323Y107776D02*
Y110728D01*
X-11417Y107776D02*
Y110728D01*
X-17323D02*
X-11417D01*
X-17323Y107776D02*
X-11417D01*
X-15354Y109252D02*
X-13386D01*
X-14370Y108268D02*
Y110236D01*
X-11417Y92028D02*
Y94980D01*
X-17323Y92028D02*
Y94980D01*
Y92028D02*
X-11417D01*
X-17323Y94980D02*
X-11417D01*
X-15354Y93504D02*
X-13386D01*
X-14370Y92520D02*
Y94488D01*
X41732Y107776D02*
Y110728D01*
X47638Y107776D02*
Y110728D01*
X41732D02*
X47638D01*
X41732Y107776D02*
X47638D01*
X43701Y109252D02*
X45669D01*
X44685Y108268D02*
Y110236D01*
X41732Y95965D02*
Y98917D01*
X47638Y95965D02*
Y98917D01*
X41732D02*
X47638D01*
X41732Y95965D02*
X47638D01*
X43701Y97441D02*
X45669D01*
X44685Y96457D02*
Y98425D01*
X-17284Y54134D02*
X-14331D01*
X-17284Y60039D02*
X-14331D01*
X-17284Y54134D02*
Y60039D01*
X-14331Y54134D02*
Y60039D01*
X-15807Y56102D02*
Y58071D01*
X-16791Y57087D02*
X-14823D01*
X-7283Y54134D02*
X-4331D01*
X-7283Y60039D02*
X-4331D01*
X-7283Y54134D02*
Y60039D01*
X-4331Y54134D02*
Y60039D01*
X-5807Y56102D02*
Y58071D01*
X-6791Y57087D02*
X-4823D01*
X2716Y54134D02*
X5669D01*
X2716Y60039D02*
X5669D01*
X2716Y54134D02*
Y60039D01*
X5669Y54134D02*
Y60039D01*
X4193Y56102D02*
Y58071D01*
X3209Y57087D02*
X5177D01*
X12717Y54134D02*
X15669D01*
X12717Y60039D02*
X15669D01*
X12717Y54134D02*
Y60039D01*
X15669Y54134D02*
Y60039D01*
X14193Y56102D02*
Y58071D01*
X13209Y57087D02*
X15177D01*
X-17284Y14764D02*
X-14331D01*
X-17284Y20669D02*
X-14331D01*
X-17284Y14764D02*
Y20669D01*
X-14331Y14764D02*
Y20669D01*
X-15807Y16732D02*
Y18701D01*
X-16791Y17717D02*
X-14823D01*
X-7283Y14764D02*
X-4331D01*
X-7283Y20669D02*
X-4331D01*
X-7283Y14764D02*
Y20669D01*
X-4331Y14764D02*
Y20669D01*
X-5807Y16732D02*
Y18701D01*
X-6791Y17717D02*
X-4823D01*
X2716Y14764D02*
X5669D01*
X2716Y20669D02*
X5669D01*
X2716Y14764D02*
Y20669D01*
X5669Y14764D02*
Y20669D01*
X4193Y16732D02*
Y18701D01*
X3209Y17717D02*
X5177D01*
X12717Y14764D02*
X15669D01*
X12717Y20669D02*
X15669D01*
X12717Y14764D02*
Y20669D01*
X15669Y14764D02*
Y20669D01*
X14193Y16732D02*
Y18701D01*
X13209Y17717D02*
X15177D01*
X41732Y143815D02*
Y146768D01*
X47638Y143815D02*
Y146768D01*
X41732D02*
X47638D01*
X41732Y143815D02*
X47638D01*
X43701Y145291D02*
X45669D01*
X44685Y144307D02*
Y146276D01*
X27953Y140256D02*
Y143209D01*
X22047Y140256D02*
Y143209D01*
Y140256D02*
X27953D01*
X22047Y143209D02*
X27953D01*
X24016Y141732D02*
X25984D01*
X25000Y140748D02*
Y142717D01*
X37795Y140256D02*
Y143209D01*
X31890Y140256D02*
Y143209D01*
Y140256D02*
X37795D01*
X31890Y143209D02*
X37795D01*
X33858Y141732D02*
X35827D01*
X34843Y140748D02*
Y142717D01*
X-15354Y141732D02*
X-13386D01*
X-14370Y140748D02*
Y142717D01*
X-11220Y136221D02*
Y147244D01*
X-17520Y136221D02*
Y147244D01*
X-11220D01*
X-17520Y136221D02*
X-11220D01*
X-5512Y141732D02*
X-3543D01*
X-4528Y140748D02*
Y142717D01*
X-1378Y136221D02*
Y147244D01*
X-7677Y136221D02*
Y147244D01*
X-1378D01*
X-7677Y136221D02*
X-1378D01*
X4331Y141732D02*
X6299D01*
X5315Y140748D02*
Y142717D01*
X8465Y136221D02*
Y147244D01*
X2165Y136221D02*
Y147244D01*
X8465D01*
X2165Y136221D02*
X8465D01*
X2362Y124508D02*
Y127461D01*
X8268Y124508D02*
Y127461D01*
X2362D02*
X8268D01*
X2362Y124508D02*
X8268D01*
X4331Y125984D02*
X6299D01*
X5315Y125000D02*
Y126969D01*
X-7480Y124508D02*
Y127461D01*
X-1575Y124508D02*
Y127461D01*
X-7480D02*
X-1575D01*
X-7480Y124508D02*
X-1575D01*
X-5512Y125984D02*
X-3543D01*
X-4528Y125000D02*
Y126969D01*
X-17323Y124508D02*
Y127461D01*
X-11417Y124508D02*
Y127461D01*
X-17323D02*
X-11417D01*
X-17323Y124508D02*
X-11417D01*
X-15354Y125984D02*
X-13386D01*
X-14370Y125000D02*
Y126969D01*
X-11417Y99902D02*
Y102854D01*
X-17323Y99902D02*
Y102854D01*
Y99902D02*
X-11417D01*
X-17323Y102854D02*
X-11417D01*
X-15354Y101378D02*
X-13386D01*
X-14370Y100394D02*
Y102362D01*
X24508Y77756D02*
X27461D01*
X24508Y71850D02*
X27461D01*
Y77756D01*
X24508Y71850D02*
Y77756D01*
X25984Y73819D02*
Y75787D01*
X25000Y74803D02*
X26969D01*
X-11417Y103839D02*
Y106791D01*
X-17323Y103839D02*
Y106791D01*
Y103839D02*
X-11417D01*
X-17323Y106791D02*
X-11417D01*
X-15354Y105315D02*
X-13386D01*
X-14370Y104331D02*
Y106299D01*
X41732Y103839D02*
Y106791D01*
X47638Y103839D02*
Y106791D01*
X41732D02*
X47638D01*
X41732Y103839D02*
X47638D01*
X43701Y105315D02*
X45669D01*
X44685Y104331D02*
Y106299D01*
X20571Y71850D02*
X23524D01*
X20571Y77756D02*
X23524D01*
X20571Y71850D02*
Y77756D01*
X23524Y71850D02*
Y77756D01*
X22047Y73819D02*
Y75787D01*
X21063Y74803D02*
X23031D01*
X47638Y111713D02*
Y114665D01*
X41732Y111713D02*
Y114665D01*
Y111713D02*
X47638D01*
X41732Y114665D02*
X47638D01*
X43701Y113189D02*
X45669D01*
X44685Y112205D02*
Y114173D01*
X47638Y92028D02*
Y94980D01*
X41732Y92028D02*
Y94980D01*
Y92028D02*
X47638D01*
X41732Y94980D02*
X47638D01*
X43701Y93504D02*
X45669D01*
X44685Y92520D02*
Y94488D01*
X47638Y99902D02*
Y102854D01*
X41732Y99902D02*
Y102854D01*
Y99902D02*
X47638D01*
X41732Y102854D02*
X47638D01*
X43701Y101378D02*
X45669D01*
X44685Y100394D02*
Y102362D01*
X47638Y88090D02*
Y91043D01*
X41732Y88090D02*
Y91043D01*
Y88090D02*
X47638D01*
X41732Y91043D02*
X47638D01*
X43701Y89567D02*
X45669D01*
X44685Y88583D02*
Y90551D01*
X-17323Y95965D02*
Y98917D01*
X-11417Y95965D02*
Y98917D01*
X-17323D02*
X-11417D01*
X-17323Y95965D02*
X-11417D01*
X-15354Y97441D02*
X-13386D01*
X-14370Y96457D02*
Y98425D01*
X1693Y37205D02*
Y39173D01*
X709Y38189D02*
X2677D01*
X-19961Y22441D02*
X23346D01*
X-19961D02*
Y53937D01*
X23346Y22441D02*
Y53937D01*
X-19961D02*
X23346D01*
X28780Y21654D02*
X48465D01*
X28780D02*
Y53150D01*
X48465Y21654D02*
Y53150D01*
X28780D02*
X48465D01*
X37638Y37402D02*
X39606D01*
X38622Y36417D02*
Y38386D01*
X47638Y140256D02*
Y143209D01*
X41732Y140256D02*
Y143209D01*
Y140256D02*
X47638D01*
X41732Y143209D02*
X47638D01*
X43701Y141732D02*
X45669D01*
X44685Y140748D02*
Y142717D01*
X47638Y132382D02*
Y135335D01*
X41732Y132382D02*
Y135335D01*
Y132382D02*
X47638D01*
X41732Y135335D02*
X47638D01*
X43701Y133858D02*
X45669D01*
X44685Y132874D02*
Y134843D01*
X37795Y132382D02*
Y135335D01*
X31890Y132382D02*
Y135335D01*
Y132382D02*
X37795D01*
X31890Y135335D02*
X37795D01*
X33858Y133858D02*
X35827D01*
X34843Y132874D02*
Y134843D01*
X31890Y143815D02*
Y146768D01*
X37795Y143815D02*
Y146768D01*
X31890D02*
X37795D01*
X31890Y143815D02*
X37795D01*
X33858Y145291D02*
X35827D01*
X34843Y144307D02*
Y146276D01*
X27953Y132382D02*
Y135335D01*
X22047Y132382D02*
Y135335D01*
Y132382D02*
X27953D01*
X22047Y135335D02*
X27953D01*
X24016Y133858D02*
X25984D01*
X25000Y132874D02*
Y134843D01*
X22047Y143815D02*
Y146768D01*
X27953Y143815D02*
Y146768D01*
X22047D02*
X27953D01*
X22047Y143815D02*
X27953D01*
X24016Y145291D02*
X25984D01*
X25000Y144307D02*
Y146276D01*
X10827Y74803D02*
X12795D01*
X11811Y73819D02*
Y75787D01*
X7087Y70866D02*
X16535D01*
X7087Y78740D02*
X16535D01*
Y70866D02*
Y78740D01*
X7087Y70866D02*
Y78740D01*
D15*
X15047Y73819D02*
Y79724D01*
X12094Y73819D02*
Y79724D01*
X15047D01*
X12094Y73819D02*
X15047D01*
X5047D02*
Y79724D01*
X2094Y73819D02*
Y79724D01*
X5047D01*
X2094Y73819D02*
X5047D01*
X-4953D02*
Y79724D01*
X-7905Y73819D02*
Y79724D01*
X-4953D01*
X-7905Y73819D02*
X-4953D01*
X-9953D02*
Y79724D01*
X-12905Y73819D02*
Y79724D01*
X-9953D01*
X-12905Y73819D02*
X-9953D01*
X43307Y31909D02*
X49213D01*
X43307Y28957D02*
X49213D01*
X43307D02*
Y31909D01*
X49213Y28957D02*
Y31909D01*
X43307Y27972D02*
X49213D01*
X43307Y25020D02*
X49213D01*
X43307D02*
Y27972D01*
X49213Y25020D02*
Y27972D01*
X-18701Y48957D02*
X-12795D01*
X-18701Y51910D02*
X-12795D01*
Y48957D02*
Y51910D01*
X-18701Y48957D02*
Y51910D01*
Y45020D02*
X-12795D01*
X-18701Y47972D02*
X-12795D01*
Y45020D02*
Y47972D01*
X-18701Y45020D02*
Y47972D01*
X-17323Y84153D02*
X-11417D01*
X-17323Y87106D02*
X-11417D01*
X-17323Y84153D02*
Y87106D01*
X-11417Y84153D02*
Y87106D01*
X-17323Y80216D02*
X-11417D01*
X-17323Y83169D02*
X-11417D01*
X-17323Y80216D02*
Y83169D01*
X-11417Y80216D02*
Y83169D01*
X19587Y71850D02*
Y77756D01*
X16634Y71850D02*
Y77756D01*
Y71850D02*
X19587D01*
X16634Y77756D02*
X19587D01*
X47598Y54134D02*
Y60039D01*
X44646Y54134D02*
Y60039D01*
Y54134D02*
X47598D01*
X44646Y60039D02*
X47598D01*
X-12284Y14764D02*
Y20669D01*
X-9331Y14764D02*
Y20669D01*
X-12284D02*
X-9331D01*
X-12284Y14764D02*
X-9331D01*
X-2283D02*
Y20669D01*
X669Y14764D02*
Y20669D01*
X-2283D02*
X669D01*
X-2283Y14764D02*
X669D01*
X7717D02*
Y20669D01*
X10669Y14764D02*
Y20669D01*
X7717D02*
X10669D01*
X7717Y14764D02*
X10669D01*
X17717D02*
Y20669D01*
X20669Y14764D02*
Y20669D01*
X17717D02*
X20669D01*
X17717Y14764D02*
X20669D01*
X44646D02*
Y20669D01*
X47598Y14764D02*
Y20669D01*
X44646D02*
X47598D01*
X44646Y14764D02*
X47598D01*
X4035Y71850D02*
Y77756D01*
X6988Y71850D02*
Y77756D01*
X4035D02*
X6988D01*
X4035Y71850D02*
X6988D01*
X22047Y127461D02*
X27953D01*
X22047Y124508D02*
X27953D01*
Y127461D01*
X22047Y124508D02*
Y127461D01*
X31890D02*
X37795D01*
X31890Y124508D02*
X37795D01*
Y127461D01*
X31890Y124508D02*
Y127461D01*
X41732D02*
X47638D01*
X41732Y124508D02*
X47638D01*
Y127461D01*
X41732Y124508D02*
Y127461D01*
X22047Y131398D02*
X27953D01*
X22047Y128445D02*
X27953D01*
Y131398D01*
X22047Y128445D02*
Y131398D01*
X31890D02*
X37795D01*
X31890Y128445D02*
X37795D01*
Y131398D01*
X31890Y128445D02*
Y131398D01*
X41732D02*
X47638D01*
X41732Y128445D02*
X47638D01*
Y131398D01*
X41732Y128445D02*
Y131398D01*
X22047Y136319D02*
X27953D01*
X22047Y139272D02*
X27953D01*
X22047Y136319D02*
Y139272D01*
X27953Y136319D02*
Y139272D01*
X31890Y136319D02*
X37795D01*
X31890Y139272D02*
X37795D01*
X31890Y136319D02*
Y139272D01*
X37795Y136319D02*
Y139272D01*
X41732Y136319D02*
X47638D01*
X41732Y139272D02*
X47638D01*
X41732Y136319D02*
Y139272D01*
X47638Y136319D02*
Y139272D01*
X-17323Y135335D02*
X-11417D01*
X-17323Y132382D02*
X-11417D01*
Y135335D01*
X-17323Y132382D02*
Y135335D01*
X-7480D02*
X-1575D01*
X-7480Y132382D02*
X-1575D01*
Y135335D01*
X-7480Y132382D02*
Y135335D01*
X2362D02*
X8268D01*
X2362Y132382D02*
X8268D01*
Y135335D01*
X2362Y132382D02*
Y135335D01*
X-17323Y131398D02*
X-11417D01*
X-17323Y128445D02*
X-11417D01*
Y131398D01*
X-17323Y128445D02*
Y131398D01*
X-7480D02*
X-1575D01*
X-7480Y128445D02*
X-1575D01*
Y131398D01*
X-7480Y128445D02*
Y131398D01*
X2362D02*
X8268D01*
X2362Y128445D02*
X8268D01*
Y131398D01*
X2362Y128445D02*
Y131398D01*
X12094Y79724D02*
X15047D01*
X12587Y76772D02*
X14555D01*
X13571Y75787D02*
Y77756D01*
X15047Y73819D02*
Y79724D01*
X12094Y73819D02*
Y79724D01*
Y73819D02*
X15047D01*
X2094Y79724D02*
X5047D01*
X2587Y76772D02*
X4555D01*
X3571Y75787D02*
Y77756D01*
X5047Y73819D02*
Y79724D01*
X2094Y73819D02*
Y79724D01*
Y73819D02*
X5047D01*
X-7905Y79724D02*
X-4953D01*
X-7413Y76772D02*
X-5445D01*
X-6429Y75787D02*
Y77756D01*
X-4953Y73819D02*
Y79724D01*
X-7905Y73819D02*
Y79724D01*
Y73819D02*
X-4953D01*
X-12905Y79724D02*
X-9953D01*
X-12413Y76772D02*
X-10445D01*
X-11429Y75787D02*
Y77756D01*
X-9953Y73819D02*
Y79724D01*
X-12905Y73819D02*
Y79724D01*
Y73819D02*
X-9953D01*
X43307Y28957D02*
Y31909D01*
X46260Y29449D02*
Y31417D01*
X45276Y30433D02*
X47244D01*
X43307Y31909D02*
X49213D01*
X43307Y28957D02*
X49213D01*
Y31909D01*
X43307Y25020D02*
Y27972D01*
X46260Y25512D02*
Y27480D01*
X45276Y26496D02*
X47244D01*
X43307Y27972D02*
X49213D01*
X43307Y25020D02*
X49213D01*
Y27972D01*
X-12795Y48957D02*
Y51910D01*
X-15748Y49449D02*
Y51417D01*
X-16732Y50433D02*
X-14764D01*
X-18701Y48957D02*
X-12795D01*
X-18701Y51910D02*
X-12795D01*
X-18701Y48957D02*
Y51910D01*
X-12795Y45020D02*
Y47972D01*
X-15748Y45512D02*
Y47480D01*
X-16732Y46496D02*
X-14764D01*
X-18701Y45020D02*
X-12795D01*
X-18701Y47972D02*
X-12795D01*
X-18701Y45020D02*
Y47972D01*
X-17323Y84153D02*
Y87106D01*
X-14370Y84646D02*
Y86614D01*
X-15354Y85630D02*
X-13386D01*
X-17323Y84153D02*
X-11417D01*
X-17323Y87106D02*
X-11417D01*
Y84153D02*
Y87106D01*
X-17323Y80216D02*
Y83169D01*
X-14370Y80709D02*
Y82677D01*
X-15354Y81693D02*
X-13386D01*
X-17323Y80216D02*
X-11417D01*
X-17323Y83169D02*
X-11417D01*
Y80216D02*
Y83169D01*
X16634Y71850D02*
X19587D01*
X17126Y74803D02*
X19094D01*
X18110Y73819D02*
Y75787D01*
X19587Y71850D02*
Y77756D01*
X16634Y71850D02*
Y77756D01*
X19587D01*
X44646Y54134D02*
X47598D01*
X45138Y57087D02*
X47106D01*
X46122Y56102D02*
Y58071D01*
X47598Y54134D02*
Y60039D01*
X44646Y54134D02*
Y60039D01*
X47598D01*
X-12284Y20669D02*
X-9331D01*
X-11791Y17717D02*
X-9823D01*
X-10807Y16732D02*
Y18701D01*
X-12284Y14764D02*
Y20669D01*
X-9331Y14764D02*
Y20669D01*
X-12284Y14764D02*
X-9331D01*
X-2283Y20669D02*
X669D01*
X-1791Y17717D02*
X177D01*
X-807Y16732D02*
Y18701D01*
X-2283Y14764D02*
Y20669D01*
X669Y14764D02*
Y20669D01*
X-2283Y14764D02*
X669D01*
X7717Y20669D02*
X10669D01*
X8209Y17717D02*
X10177D01*
X9193Y16732D02*
Y18701D01*
X7717Y14764D02*
Y20669D01*
X10669Y14764D02*
Y20669D01*
X7717Y14764D02*
X10669D01*
X17717Y20669D02*
X20669D01*
X18209Y17717D02*
X20177D01*
X19193Y16732D02*
Y18701D01*
X17717Y14764D02*
Y20669D01*
X20669Y14764D02*
Y20669D01*
X17717Y14764D02*
X20669D01*
X44646Y20669D02*
X47598D01*
X45138Y17717D02*
X47106D01*
X46122Y16732D02*
Y18701D01*
X44646Y14764D02*
Y20669D01*
X47598Y14764D02*
Y20669D01*
X44646Y14764D02*
X47598D01*
X4035Y77756D02*
X6988D01*
X4528Y74803D02*
X6496D01*
X5512Y73819D02*
Y75787D01*
X4035Y71850D02*
Y77756D01*
X6988Y71850D02*
Y77756D01*
X4035Y71850D02*
X6988D01*
X27953Y124508D02*
Y127461D01*
X25000Y125000D02*
Y126969D01*
X24016Y125984D02*
X25984D01*
X22047Y127461D02*
X27953D01*
X22047Y124508D02*
X27953D01*
X22047D02*
Y127461D01*
X37795Y124508D02*
Y127461D01*
X34843Y125000D02*
Y126969D01*
X33858Y125984D02*
X35827D01*
X31890Y127461D02*
X37795D01*
X31890Y124508D02*
X37795D01*
X31890D02*
Y127461D01*
X47638Y124508D02*
Y127461D01*
X44685Y125000D02*
Y126969D01*
X43701Y125984D02*
X45669D01*
X41732Y127461D02*
X47638D01*
X41732Y124508D02*
X47638D01*
X41732D02*
Y127461D01*
X27953Y128445D02*
Y131398D01*
X25000Y128937D02*
Y130905D01*
X24016Y129921D02*
X25984D01*
X22047Y131398D02*
X27953D01*
X22047Y128445D02*
X27953D01*
X22047D02*
Y131398D01*
X37795Y128445D02*
Y131398D01*
X34843Y128937D02*
Y130905D01*
X33858Y129921D02*
X35827D01*
X31890Y131398D02*
X37795D01*
X31890Y128445D02*
X37795D01*
X31890D02*
Y131398D01*
X47638Y128445D02*
Y131398D01*
X44685Y128937D02*
Y130905D01*
X43701Y129921D02*
X45669D01*
X41732Y131398D02*
X47638D01*
X41732Y128445D02*
X47638D01*
X41732D02*
Y131398D01*
X22047Y136319D02*
Y139272D01*
X25000Y136811D02*
Y138779D01*
X24016Y137795D02*
X25984D01*
X22047Y136319D02*
X27953D01*
X22047Y139272D02*
X27953D01*
Y136319D02*
Y139272D01*
X31890Y136319D02*
Y139272D01*
X34843Y136811D02*
Y138779D01*
X33858Y137795D02*
X35827D01*
X31890Y136319D02*
X37795D01*
X31890Y139272D02*
X37795D01*
Y136319D02*
Y139272D01*
X41732Y136319D02*
Y139272D01*
X44685Y136811D02*
Y138779D01*
X43701Y137795D02*
X45669D01*
X41732Y136319D02*
X47638D01*
X41732Y139272D02*
X47638D01*
Y136319D02*
Y139272D01*
X-11417Y132382D02*
Y135335D01*
X-14370Y132874D02*
Y134843D01*
X-15354Y133858D02*
X-13386D01*
X-17323Y135335D02*
X-11417D01*
X-17323Y132382D02*
X-11417D01*
X-17323D02*
Y135335D01*
X-1575Y132382D02*
Y135335D01*
X-4528Y132874D02*
Y134843D01*
X-5512Y133858D02*
X-3543D01*
X-7480Y135335D02*
X-1575D01*
X-7480Y132382D02*
X-1575D01*
X-7480D02*
Y135335D01*
X8268Y132382D02*
Y135335D01*
X5315Y132874D02*
Y134843D01*
X4331Y133858D02*
X6299D01*
X2362Y135335D02*
X8268D01*
X2362Y132382D02*
X8268D01*
X2362D02*
Y135335D01*
X-11417Y128445D02*
Y131398D01*
X-14370Y128937D02*
Y130905D01*
X-15354Y129921D02*
X-13386D01*
X-17323Y131398D02*
X-11417D01*
X-17323Y128445D02*
X-11417D01*
X-17323D02*
Y131398D01*
X-1575Y128445D02*
Y131398D01*
X-4528Y128937D02*
Y130905D01*
X-5512Y129921D02*
X-3543D01*
X-7480Y131398D02*
X-1575D01*
X-7480Y128445D02*
X-1575D01*
X-7480D02*
Y131398D01*
X8268Y128445D02*
Y131398D01*
X5315Y128937D02*
Y130905D01*
X4331Y129921D02*
X6299D01*
X2362Y131398D02*
X8268D01*
X2362Y128445D02*
X8268D01*
X2362D02*
Y131398D01*
D23*
X15157Y-8022D02*
D03*
D24*
X15157Y-7481D02*
D03*
D26*
X18110Y73110D02*
D03*
Y76496D02*
D03*
X46122Y55394D02*
D03*
Y58780D02*
D03*
X-15807Y55394D02*
D03*
Y58780D02*
D03*
X-5807Y55394D02*
D03*
Y58780D02*
D03*
X4193Y55394D02*
D03*
Y58780D02*
D03*
X14193Y55394D02*
D03*
Y58780D02*
D03*
X-15807Y16024D02*
D03*
Y19410D02*
D03*
X-10807D02*
D03*
Y16024D02*
D03*
X-5807D02*
D03*
Y19410D02*
D03*
X-807D02*
D03*
Y16024D02*
D03*
X4193D02*
D03*
Y19410D02*
D03*
X9193D02*
D03*
Y16024D02*
D03*
X14193D02*
D03*
Y19410D02*
D03*
X19193D02*
D03*
Y16024D02*
D03*
X46122Y19410D02*
D03*
Y16024D02*
D03*
X5512Y76496D02*
D03*
Y73110D02*
D03*
X25984Y76496D02*
D03*
Y73110D02*
D03*
X22047D02*
D03*
Y76496D02*
D03*
D27*
X19193Y24409D02*
D03*
Y51968D02*
D03*
X-15807Y24409D02*
D03*
Y51968D02*
D03*
X-10807Y24409D02*
D03*
X14193D02*
D03*
Y51968D02*
D03*
X-10807D02*
D03*
X-5807D02*
D03*
X-807D02*
D03*
X4193D02*
D03*
X9193D02*
D03*
Y24409D02*
D03*
X4193D02*
D03*
X-807D02*
D03*
X-5807D02*
D03*
D28*
X-12677Y113189D02*
D03*
X-16063D02*
D03*
X-16063Y109252D02*
D03*
X-12677D02*
D03*
Y93504D02*
D03*
X-16063D02*
D03*
Y85630D02*
D03*
X-12677D02*
D03*
X-16063Y81693D02*
D03*
X-12677D02*
D03*
X42992Y109252D02*
D03*
X46378D02*
D03*
X42992Y97441D02*
D03*
X46378D02*
D03*
X26693Y125984D02*
D03*
X23307D02*
D03*
X36535D02*
D03*
X33150D02*
D03*
X46378D02*
D03*
X42992D02*
D03*
Y145291D02*
D03*
X46378D02*
D03*
X26693Y129921D02*
D03*
X23307D02*
D03*
X36535D02*
D03*
X33150D02*
D03*
X46378D02*
D03*
X42992D02*
D03*
X23307Y137795D02*
D03*
X26693D02*
D03*
X33150D02*
D03*
X36535D02*
D03*
X42992D02*
D03*
X46378D02*
D03*
X26693Y141732D02*
D03*
X23307D02*
D03*
X36535D02*
D03*
X33150D02*
D03*
X-12677Y133858D02*
D03*
X-16063D02*
D03*
X-2835D02*
D03*
X-6221D02*
D03*
X7008D02*
D03*
X3622D02*
D03*
X-12677Y129921D02*
D03*
X-16063D02*
D03*
X-2835D02*
D03*
X-6221D02*
D03*
X7008D02*
D03*
X3622D02*
D03*
X3622Y125984D02*
D03*
X7008D02*
D03*
X-6221D02*
D03*
X-2835D02*
D03*
X-16063D02*
D03*
X-12677D02*
D03*
Y101378D02*
D03*
X-16063D02*
D03*
X-12677Y105315D02*
D03*
X-16063D02*
D03*
X42992D02*
D03*
X46378D02*
D03*
Y113189D02*
D03*
X42992D02*
D03*
X46378Y93504D02*
D03*
X42992D02*
D03*
X46378Y101378D02*
D03*
X42992D02*
D03*
X46378Y89567D02*
D03*
X42992D02*
D03*
X-16063Y97441D02*
D03*
X-12677D02*
D03*
X46378Y141732D02*
D03*
X42992D02*
D03*
X46378Y133858D02*
D03*
X42992D02*
D03*
X36535D02*
D03*
X33150D02*
D03*
Y145291D02*
D03*
X36535D02*
D03*
X26693Y133858D02*
D03*
X23307D02*
D03*
Y145291D02*
D03*
X26693D02*
D03*
D31*
X61614Y-7283D02*
D03*
X58465D02*
D03*
X55315D02*
D03*
X52165D02*
D03*
X49016D02*
D03*
X45866D02*
D03*
X42717D02*
D03*
X39567D02*
D03*
X36417D02*
D03*
X33268D02*
D03*
X30118D02*
D03*
X26969D02*
D03*
X23819D02*
D03*
X20669D02*
D03*
X17520D02*
D03*
X14370D02*
D03*
X11220D02*
D03*
X8071D02*
D03*
X-7677D02*
D03*
X-10827D02*
D03*
X-13976D02*
D03*
X-17126D02*
D03*
X-20276D02*
D03*
X-23425D02*
D03*
X-26575D02*
D03*
X-29724D02*
D03*
D32*
X-32480Y176378D02*
D03*
X62795D02*
D03*
D33*
X44685Y153543D02*
D03*
D34*
X34843D02*
D03*
X25000D02*
D03*
X15157D02*
D03*
X5315D02*
D03*
X-4528D02*
D03*
X-14370D02*
D03*
D50*
X15157Y102362D02*
D03*
D51*
X8268Y111811D02*
D03*
X10236D02*
D03*
X12205D02*
D03*
X14173D02*
D03*
X16142D02*
D03*
X18110D02*
D03*
X20079D02*
D03*
X22047D02*
D03*
Y92913D02*
D03*
X20079D02*
D03*
X18110D02*
D03*
X16142D02*
D03*
X14173D02*
D03*
X12205D02*
D03*
X10236D02*
D03*
X8268D02*
D03*
D52*
X24606Y109252D02*
D03*
Y107283D02*
D03*
Y105315D02*
D03*
Y103347D02*
D03*
Y101378D02*
D03*
Y99409D02*
D03*
Y97441D02*
D03*
Y95472D02*
D03*
X5709D02*
D03*
Y97441D02*
D03*
Y99409D02*
D03*
Y101378D02*
D03*
Y103347D02*
D03*
Y105315D02*
D03*
Y107283D02*
D03*
Y109252D02*
D03*
D53*
X-14370Y145413D02*
D03*
Y138051D02*
D03*
X-4528Y145413D02*
D03*
Y138051D02*
D03*
X5315Y145413D02*
D03*
Y138051D02*
D03*
D54*
X46122Y48031D02*
D03*
X41122D02*
D03*
X36122D02*
D03*
X31122D02*
D03*
Y26772D02*
D03*
X36122D02*
D03*
X41122D02*
D03*
X46122D02*
D03*
D55*
X14567Y72638D02*
D03*
X9055D02*
D03*
Y76968D02*
D03*
X14567D02*
D03*
M02*
