G04*
G04 #@! TF.GenerationSoftware,Altium Limited,Altium Designer,24.7.2 (38)*
G04*
G04 Layer_Color=8388736*
%FSLAX25Y25*%
%MOIN*%
G70*
G04*
G04 #@! TF.SameCoordinates,9FCA0B9A-1E75-4BBE-B044-08948AB4E25D*
G04*
G04*
G04 #@! TF.FilePolarity,Positive*
G04*
G01*
G75*
%ADD11C,0.00394*%
%ADD13C,0.00197*%
%ADD14C,0.00039*%
%ADD15C,0.00079*%
D11*
X68898Y-197D02*
G03*
X65748Y-3347I0J-3150D01*
G01*
X-35433D02*
G03*
X-38583Y-197I-3150J0D01*
G01*
X2953Y0D02*
G03*
X-2953Y0I-2953J0D01*
G01*
X68898Y-197D02*
G03*
X65748Y-3347I0J-3150D01*
G01*
X-35433D02*
G03*
X-38583Y-197I-3150J0D01*
G01*
X2953Y0D02*
G03*
X-2953Y0I-2953J0D01*
G01*
X-35433Y-12795D02*
X-2953D01*
X65748D02*
Y-3347D01*
X68898Y-197D02*
X74213D01*
X-43898D02*
X-38583D01*
X2953Y-12795D02*
Y0D01*
X-2953Y-12795D02*
Y0D01*
X-35433Y-12795D02*
Y-3347D01*
X2953Y-12795D02*
X65748D01*
X-43898Y187795D02*
X74213D01*
X-35433Y-12795D02*
Y-3347D01*
X74213Y-197D02*
Y187795D01*
X-2953Y-12795D02*
Y0D01*
X65748Y-12795D02*
Y-3347D01*
X2953Y-12795D02*
Y0D01*
X-35433Y-12795D02*
X-2953D01*
X2953D02*
X65748D01*
X68898Y-197D02*
X74213D01*
X-43898D02*
X-38583D01*
X-43898D02*
Y187795D01*
D13*
X3557Y90762D02*
X26757D01*
X3557Y113962D02*
X26757D01*
X3557Y90762D02*
Y113962D01*
X26757Y90762D02*
Y113962D01*
X15157Y101181D02*
Y103543D01*
X13976Y102362D02*
X16339D01*
X3557Y113962D02*
X26757D01*
Y90762D02*
Y113962D01*
X3557Y90762D02*
X26757D01*
X3557D02*
Y113962D01*
D14*
X-1181Y10433D02*
X31496D01*
Y60433D01*
X-1181D02*
X31496D01*
X-1181Y10433D02*
Y60433D01*
X-12905Y113189D02*
X-9953D01*
Y119095D01*
X-12905Y113189D02*
Y119095D01*
X-9953D01*
X-17906Y113189D02*
X-14953D01*
Y119095D01*
X-17906Y113189D02*
Y119095D01*
X-14953D01*
X22724Y80709D02*
Y112205D01*
X-20583Y80709D02*
Y112205D01*
X22724D01*
X-20583Y80709D02*
X22724D01*
X17095Y73819D02*
X20047D01*
Y79724D01*
X17095Y73819D02*
Y79724D01*
X20047D01*
X7095Y73819D02*
X10047D01*
Y79724D01*
X7095Y73819D02*
Y79724D01*
X10047D01*
X-2905Y73819D02*
X47D01*
Y79724D01*
X-2905Y73819D02*
Y79724D01*
X47D01*
X-17906D02*
X-14953D01*
X-17906Y73819D02*
Y79724D01*
X-14953Y73819D02*
Y79724D01*
X-17906Y73819D02*
X-14953D01*
X58465Y141732D02*
Y190945D01*
X-28150Y141732D02*
Y190945D01*
Y141732D02*
X58465D01*
X-28150Y190945D02*
X58465D01*
X39591Y130709D02*
Y137008D01*
Y130709D02*
X50614D01*
X39591Y137008D02*
X50614D01*
Y130709D02*
Y137008D01*
X42150Y126476D02*
Y129429D01*
X48055Y126476D02*
Y129429D01*
X42150Y126476D02*
X48055D01*
X42150Y129429D02*
X48055D01*
X9646Y130709D02*
Y137008D01*
Y130709D02*
X20669D01*
X9646Y137008D02*
X20669D01*
Y130709D02*
Y137008D01*
X12205Y126476D02*
Y129429D01*
X18110Y126476D02*
Y129429D01*
X12205Y126476D02*
X18110D01*
X12205Y129429D02*
X18110D01*
X-19882Y130709D02*
Y137008D01*
Y130709D02*
X-8858D01*
X-19882Y137008D02*
X-8858D01*
Y130709D02*
Y137008D01*
X-17323Y126476D02*
Y129429D01*
X-11417Y126476D02*
Y129429D01*
X-17323Y126476D02*
X-11417D01*
X-17323Y129429D02*
X-11417D01*
X32791Y78445D02*
Y81398D01*
X38697Y78445D02*
Y81398D01*
X32791Y78445D02*
X38697D01*
X32791Y81398D02*
X38697D01*
X46571Y78445D02*
Y81398D01*
X40665D02*
X46571D01*
X40665Y78445D02*
X46571D01*
X40665D02*
Y81398D01*
X-11417Y111713D02*
Y114665D01*
X-17323Y111713D02*
X-11417D01*
X-17323Y114665D02*
X-11417D01*
X-17323Y111713D02*
Y114665D01*
X-17323Y107776D02*
Y110728D01*
X-11417D01*
X-17323Y107776D02*
X-11417D01*
Y110728D01*
Y92028D02*
Y94980D01*
X-17323Y92028D02*
X-11417D01*
X-17323Y94980D02*
X-11417D01*
X-17323Y92028D02*
Y94980D01*
X41732Y107776D02*
Y110728D01*
X47638D01*
X41732Y107776D02*
X47638D01*
Y110728D01*
X41732Y95965D02*
Y98917D01*
X47638D01*
X41732Y95965D02*
X47638D01*
Y98917D01*
X-17284Y54134D02*
X-14331D01*
X-17284D02*
Y60039D01*
X-14331Y54134D02*
Y60039D01*
X-17284D02*
X-14331D01*
X-7283Y54134D02*
X-4331D01*
X-7283D02*
Y60039D01*
X-4331Y54134D02*
Y60039D01*
X-7283D02*
X-4331D01*
X2716Y54134D02*
X5669D01*
X2716D02*
Y60039D01*
X5669Y54134D02*
Y60039D01*
X2716D02*
X5669D01*
X12717Y54134D02*
X15669D01*
X12717D02*
Y60039D01*
X15669Y54134D02*
Y60039D01*
X12717D02*
X15669D01*
X-17284Y14764D02*
X-14331D01*
X-17284D02*
Y20669D01*
X-14331Y14764D02*
Y20669D01*
X-17284D02*
X-14331D01*
X-7283Y14764D02*
X-4331D01*
X-7283D02*
Y20669D01*
X-4331Y14764D02*
Y20669D01*
X-7283D02*
X-4331D01*
X2716Y14764D02*
X5669D01*
X2716D02*
Y20669D01*
X5669Y14764D02*
Y20669D01*
X2716D02*
X5669D01*
X12717Y14764D02*
X15669D01*
X12717D02*
Y20669D01*
X15669Y14764D02*
Y20669D01*
X12717D02*
X15669D01*
X41732Y143815D02*
Y146768D01*
X47638D01*
X41732Y143815D02*
X47638D01*
Y146768D01*
X27953Y140256D02*
Y143209D01*
X22047Y140256D02*
X27953D01*
X22047Y143209D02*
X27953D01*
X22047Y140256D02*
Y143209D01*
X37795Y140256D02*
Y143209D01*
X31890Y140256D02*
X37795D01*
X31890Y143209D02*
X37795D01*
X31890Y140256D02*
Y143209D01*
X-17520Y147244D02*
X-11220D01*
Y136221D02*
Y147244D01*
X-17520Y136221D02*
Y147244D01*
Y136221D02*
X-11220D01*
X-7677Y147244D02*
X-1378D01*
Y136221D02*
Y147244D01*
X-7677Y136221D02*
Y147244D01*
Y136221D02*
X-1378D01*
X2165Y147244D02*
X8465D01*
Y136221D02*
Y147244D01*
X2165Y136221D02*
Y147244D01*
Y136221D02*
X8465D01*
X2362Y124508D02*
Y127461D01*
X8268D01*
X2362Y124508D02*
X8268D01*
Y127461D01*
X-7480Y124508D02*
Y127461D01*
X-1575D01*
X-7480Y124508D02*
X-1575D01*
Y127461D01*
X-17323Y124508D02*
Y127461D01*
X-11417D01*
X-17323Y124508D02*
X-11417D01*
Y127461D01*
Y99902D02*
Y102854D01*
X-17323Y99902D02*
X-11417D01*
X-17323Y102854D02*
X-11417D01*
X-17323Y99902D02*
Y102854D01*
X24508Y77756D02*
X27461D01*
Y71850D02*
Y77756D01*
X24508Y71850D02*
Y77756D01*
Y71850D02*
X27461D01*
X-11417Y103839D02*
Y106791D01*
X-17323Y103839D02*
X-11417D01*
X-17323Y106791D02*
X-11417D01*
X-17323Y103839D02*
Y106791D01*
X41732Y103839D02*
Y106791D01*
X47638D01*
X41732Y103839D02*
X47638D01*
Y106791D01*
X20571Y71850D02*
X23524D01*
X20571D02*
Y77756D01*
X23524Y71850D02*
Y77756D01*
X20571D02*
X23524D01*
X47638Y111713D02*
Y114665D01*
X41732Y111713D02*
X47638D01*
X41732Y114665D02*
X47638D01*
X41732Y111713D02*
Y114665D01*
X47638Y92028D02*
Y94980D01*
X41732Y92028D02*
X47638D01*
X41732Y94980D02*
X47638D01*
X41732Y92028D02*
Y94980D01*
X47638Y99902D02*
Y102854D01*
X41732Y99902D02*
X47638D01*
X41732Y102854D02*
X47638D01*
X41732Y99902D02*
Y102854D01*
X47638Y88090D02*
Y91043D01*
X41732Y88090D02*
X47638D01*
X41732Y91043D02*
X47638D01*
X41732Y88090D02*
Y91043D01*
X-17323Y95965D02*
Y98917D01*
X-11417D01*
X-17323Y95965D02*
X-11417D01*
Y98917D01*
X-19961Y22441D02*
Y53937D01*
X23346Y22441D02*
Y53937D01*
X-19961D02*
X23346D01*
X-19961Y22441D02*
X23346D01*
X28780Y53150D02*
X48465D01*
X28780Y21654D02*
X48465D01*
X28780D02*
Y53150D01*
X48465Y21654D02*
Y53150D01*
X47638Y140256D02*
Y143209D01*
X41732Y140256D02*
X47638D01*
X41732Y143209D02*
X47638D01*
X41732Y140256D02*
Y143209D01*
X47638Y132382D02*
Y135335D01*
X41732Y132382D02*
X47638D01*
X41732Y135335D02*
X47638D01*
X41732Y132382D02*
Y135335D01*
X37795Y132382D02*
Y135335D01*
X31890Y132382D02*
X37795D01*
X31890Y135335D02*
X37795D01*
X31890Y132382D02*
Y135335D01*
Y143815D02*
Y146768D01*
X37795D01*
X31890Y143815D02*
X37795D01*
Y146768D01*
X27953Y132382D02*
Y135335D01*
X22047Y132382D02*
X27953D01*
X22047Y135335D02*
X27953D01*
X22047Y132382D02*
Y135335D01*
Y143815D02*
Y146768D01*
X27953D01*
X22047Y143815D02*
X27953D01*
Y146768D01*
X7087Y78740D02*
X16535D01*
X7087Y70866D02*
X16535D01*
X7087D02*
Y78740D01*
X16535Y70866D02*
Y78740D01*
X15157Y34449D02*
Y36417D01*
X14173Y35433D02*
X16142D01*
X-2165Y9449D02*
Y17402D01*
X32480Y53465D02*
Y61417D01*
X-2165D02*
X32480D01*
X-2165Y9449D02*
X32480D01*
Y17402D01*
X-2165Y53425D02*
Y61417D01*
X-9843Y53425D02*
X-2165D01*
X32480Y17402D02*
X40157D01*
X-9843D02*
Y53425D01*
X40157Y17402D02*
Y53465D01*
X-9843Y17402D02*
X-2165D01*
X32480Y53465D02*
X40157D01*
X-12905Y113189D02*
X-9953D01*
X-12905Y119095D02*
X-9953D01*
Y113189D02*
Y119095D01*
X-12905Y113189D02*
Y119095D01*
X-11429Y115157D02*
Y117126D01*
X-12413Y116142D02*
X-10445D01*
X-17906Y113189D02*
X-14953D01*
X-17906Y119095D02*
X-14953D01*
Y113189D02*
Y119095D01*
X-17906Y113189D02*
Y119095D01*
X-16429Y115157D02*
Y117126D01*
X-17413Y116142D02*
X-15445D01*
X1071Y95472D02*
Y97441D01*
X87Y96457D02*
X2055D01*
X-20583Y80709D02*
X22724D01*
Y112205D01*
X-20583Y80709D02*
Y112205D01*
X22724D01*
X17095Y73819D02*
X20047D01*
X17095Y79724D02*
X20047D01*
Y73819D02*
Y79724D01*
X17095Y73819D02*
Y79724D01*
X18571Y75787D02*
Y77756D01*
X17587Y76772D02*
X19555D01*
X7095Y73819D02*
X10047D01*
X7095Y79724D02*
X10047D01*
Y73819D02*
Y79724D01*
X7095Y73819D02*
Y79724D01*
X8571Y75787D02*
Y77756D01*
X7587Y76772D02*
X9555D01*
X-2905Y73819D02*
X47D01*
X-2905Y79724D02*
X47D01*
Y73819D02*
Y79724D01*
X-2905Y73819D02*
Y79724D01*
X-1429Y75787D02*
Y77756D01*
X-2413Y76772D02*
X-445D01*
X-17906Y79724D02*
X-14953D01*
X-17906Y73819D02*
X-14953D01*
X-17906D02*
Y79724D01*
X-14953Y73819D02*
Y79724D01*
X-16429Y75787D02*
Y77756D01*
X-17413Y76772D02*
X-15445D01*
X-28150Y141732D02*
X58465D01*
X-28150D02*
Y190945D01*
X58465D01*
Y141732D02*
Y190945D01*
X15157Y152559D02*
Y154528D01*
X14173Y153543D02*
X16142D01*
X45102Y132874D02*
Y134843D01*
X44118Y133858D02*
X46087D01*
X39591Y130709D02*
X50614D01*
X39591Y137008D02*
X50614D01*
X39591Y130709D02*
Y137008D01*
X50614Y130709D02*
Y137008D01*
X42150Y126476D02*
X48055D01*
X42150Y129429D02*
X48055D01*
X42150Y126476D02*
Y129429D01*
X48055Y126476D02*
Y129429D01*
X45102Y126969D02*
Y128937D01*
X44118Y127953D02*
X46087D01*
X15157Y132874D02*
Y134843D01*
X14173Y133858D02*
X16142D01*
X9646Y130709D02*
X20669D01*
X9646Y137008D02*
X20669D01*
X9646Y130709D02*
Y137008D01*
X20669Y130709D02*
Y137008D01*
X12205Y126476D02*
X18110D01*
X12205Y129429D02*
X18110D01*
X12205Y126476D02*
Y129429D01*
X18110Y126476D02*
Y129429D01*
X15157Y126969D02*
Y128937D01*
X14173Y127953D02*
X16142D01*
X-14370Y132874D02*
Y134843D01*
X-15354Y133858D02*
X-13386D01*
X-19882Y130709D02*
X-8858D01*
X-19882Y137008D02*
X-8858D01*
X-19882Y130709D02*
Y137008D01*
X-8858Y130709D02*
Y137008D01*
X-17323Y126476D02*
X-11417D01*
X-17323Y129429D02*
X-11417D01*
X-17323Y126476D02*
Y129429D01*
X-11417Y126476D02*
Y129429D01*
X-14370Y126969D02*
Y128937D01*
X-15354Y127953D02*
X-13386D01*
X32791Y78445D02*
X38697D01*
X32791Y81398D02*
X38697D01*
X32791Y78445D02*
Y81398D01*
X38697Y78445D02*
Y81398D01*
X35744Y78937D02*
Y80905D01*
X34760Y79921D02*
X36728D01*
X46571Y78445D02*
Y81398D01*
X40665Y78445D02*
Y81398D01*
X46571D01*
X40665Y78445D02*
X46571D01*
X42634Y79921D02*
X44602D01*
X43618Y78937D02*
Y80905D01*
X-11417Y111713D02*
Y114665D01*
X-17323Y111713D02*
Y114665D01*
Y111713D02*
X-11417D01*
X-17323Y114665D02*
X-11417D01*
X-15354Y113189D02*
X-13386D01*
X-14370Y112205D02*
Y114173D01*
X-17323Y107776D02*
Y110728D01*
X-11417Y107776D02*
Y110728D01*
X-17323D02*
X-11417D01*
X-17323Y107776D02*
X-11417D01*
X-15354Y109252D02*
X-13386D01*
X-14370Y108268D02*
Y110236D01*
X-11417Y92028D02*
Y94980D01*
X-17323Y92028D02*
Y94980D01*
Y92028D02*
X-11417D01*
X-17323Y94980D02*
X-11417D01*
X-15354Y93504D02*
X-13386D01*
X-14370Y92520D02*
Y94488D01*
X41732Y107776D02*
Y110728D01*
X47638Y107776D02*
Y110728D01*
X41732D02*
X47638D01*
X41732Y107776D02*
X47638D01*
X43701Y109252D02*
X45669D01*
X44685Y108268D02*
Y110236D01*
X41732Y95965D02*
Y98917D01*
X47638Y95965D02*
Y98917D01*
X41732D02*
X47638D01*
X41732Y95965D02*
X47638D01*
X43701Y97441D02*
X45669D01*
X44685Y96457D02*
Y98425D01*
X-17284Y54134D02*
X-14331D01*
X-17284Y60039D02*
X-14331D01*
X-17284Y54134D02*
Y60039D01*
X-14331Y54134D02*
Y60039D01*
X-15807Y56102D02*
Y58071D01*
X-16791Y57087D02*
X-14823D01*
X-7283Y54134D02*
X-4331D01*
X-7283Y60039D02*
X-4331D01*
X-7283Y54134D02*
Y60039D01*
X-4331Y54134D02*
Y60039D01*
X-5807Y56102D02*
Y58071D01*
X-6791Y57087D02*
X-4823D01*
X2716Y54134D02*
X5669D01*
X2716Y60039D02*
X5669D01*
X2716Y54134D02*
Y60039D01*
X5669Y54134D02*
Y60039D01*
X4193Y56102D02*
Y58071D01*
X3209Y57087D02*
X5177D01*
X12717Y54134D02*
X15669D01*
X12717Y60039D02*
X15669D01*
X12717Y54134D02*
Y60039D01*
X15669Y54134D02*
Y60039D01*
X14193Y56102D02*
Y58071D01*
X13209Y57087D02*
X15177D01*
X-17284Y14764D02*
X-14331D01*
X-17284Y20669D02*
X-14331D01*
X-17284Y14764D02*
Y20669D01*
X-14331Y14764D02*
Y20669D01*
X-15807Y16732D02*
Y18701D01*
X-16791Y17717D02*
X-14823D01*
X-7283Y14764D02*
X-4331D01*
X-7283Y20669D02*
X-4331D01*
X-7283Y14764D02*
Y20669D01*
X-4331Y14764D02*
Y20669D01*
X-5807Y16732D02*
Y18701D01*
X-6791Y17717D02*
X-4823D01*
X2716Y14764D02*
X5669D01*
X2716Y20669D02*
X5669D01*
X2716Y14764D02*
Y20669D01*
X5669Y14764D02*
Y20669D01*
X4193Y16732D02*
Y18701D01*
X3209Y17717D02*
X5177D01*
X12717Y14764D02*
X15669D01*
X12717Y20669D02*
X15669D01*
X12717Y14764D02*
Y20669D01*
X15669Y14764D02*
Y20669D01*
X14193Y16732D02*
Y18701D01*
X13209Y17717D02*
X15177D01*
X41732Y143815D02*
Y146768D01*
X47638Y143815D02*
Y146768D01*
X41732D02*
X47638D01*
X41732Y143815D02*
X47638D01*
X43701Y145291D02*
X45669D01*
X44685Y144307D02*
Y146276D01*
X27953Y140256D02*
Y143209D01*
X22047Y140256D02*
Y143209D01*
Y140256D02*
X27953D01*
X22047Y143209D02*
X27953D01*
X24016Y141732D02*
X25984D01*
X25000Y140748D02*
Y142717D01*
X37795Y140256D02*
Y143209D01*
X31890Y140256D02*
Y143209D01*
Y140256D02*
X37795D01*
X31890Y143209D02*
X37795D01*
X33858Y141732D02*
X35827D01*
X34843Y140748D02*
Y142717D01*
X-15354Y141732D02*
X-13386D01*
X-14370Y140748D02*
Y142717D01*
X-11220Y136221D02*
Y147244D01*
X-17520Y136221D02*
Y147244D01*
X-11220D01*
X-17520Y136221D02*
X-11220D01*
X-5512Y141732D02*
X-3543D01*
X-4528Y140748D02*
Y142717D01*
X-1378Y136221D02*
Y147244D01*
X-7677Y136221D02*
Y147244D01*
X-1378D01*
X-7677Y136221D02*
X-1378D01*
X4331Y141732D02*
X6299D01*
X5315Y140748D02*
Y142717D01*
X8465Y136221D02*
Y147244D01*
X2165Y136221D02*
Y147244D01*
X8465D01*
X2165Y136221D02*
X8465D01*
X2362Y124508D02*
Y127461D01*
X8268Y124508D02*
Y127461D01*
X2362D02*
X8268D01*
X2362Y124508D02*
X8268D01*
X4331Y125984D02*
X6299D01*
X5315Y125000D02*
Y126969D01*
X-7480Y124508D02*
Y127461D01*
X-1575Y124508D02*
Y127461D01*
X-7480D02*
X-1575D01*
X-7480Y124508D02*
X-1575D01*
X-5512Y125984D02*
X-3543D01*
X-4528Y125000D02*
Y126969D01*
X-17323Y124508D02*
Y127461D01*
X-11417Y124508D02*
Y127461D01*
X-17323D02*
X-11417D01*
X-17323Y124508D02*
X-11417D01*
X-15354Y125984D02*
X-13386D01*
X-14370Y125000D02*
Y126969D01*
X-11417Y99902D02*
Y102854D01*
X-17323Y99902D02*
Y102854D01*
Y99902D02*
X-11417D01*
X-17323Y102854D02*
X-11417D01*
X-15354Y101378D02*
X-13386D01*
X-14370Y100394D02*
Y102362D01*
X24508Y77756D02*
X27461D01*
X24508Y71850D02*
X27461D01*
Y77756D01*
X24508Y71850D02*
Y77756D01*
X25984Y73819D02*
Y75787D01*
X25000Y74803D02*
X26969D01*
X-11417Y103839D02*
Y106791D01*
X-17323Y103839D02*
Y106791D01*
Y103839D02*
X-11417D01*
X-17323Y106791D02*
X-11417D01*
X-15354Y105315D02*
X-13386D01*
X-14370Y104331D02*
Y106299D01*
X41732Y103839D02*
Y106791D01*
X47638Y103839D02*
Y106791D01*
X41732D02*
X47638D01*
X41732Y103839D02*
X47638D01*
X43701Y105315D02*
X45669D01*
X44685Y104331D02*
Y106299D01*
X20571Y71850D02*
X23524D01*
X20571Y77756D02*
X23524D01*
X20571Y71850D02*
Y77756D01*
X23524Y71850D02*
Y77756D01*
X22047Y73819D02*
Y75787D01*
X21063Y74803D02*
X23031D01*
X47638Y111713D02*
Y114665D01*
X41732Y111713D02*
Y114665D01*
Y111713D02*
X47638D01*
X41732Y114665D02*
X47638D01*
X43701Y113189D02*
X45669D01*
X44685Y112205D02*
Y114173D01*
X47638Y92028D02*
Y94980D01*
X41732Y92028D02*
Y94980D01*
Y92028D02*
X47638D01*
X41732Y94980D02*
X47638D01*
X43701Y93504D02*
X45669D01*
X44685Y92520D02*
Y94488D01*
X47638Y99902D02*
Y102854D01*
X41732Y99902D02*
Y102854D01*
Y99902D02*
X47638D01*
X41732Y102854D02*
X47638D01*
X43701Y101378D02*
X45669D01*
X44685Y100394D02*
Y102362D01*
X47638Y88090D02*
Y91043D01*
X41732Y88090D02*
Y91043D01*
Y88090D02*
X47638D01*
X41732Y91043D02*
X47638D01*
X43701Y89567D02*
X45669D01*
X44685Y88583D02*
Y90551D01*
X-17323Y95965D02*
Y98917D01*
X-11417Y95965D02*
Y98917D01*
X-17323D02*
X-11417D01*
X-17323Y95965D02*
X-11417D01*
X-15354Y97441D02*
X-13386D01*
X-14370Y96457D02*
Y98425D01*
X1693Y37205D02*
Y39173D01*
X709Y38189D02*
X2677D01*
X-19961Y22441D02*
X23346D01*
X-19961D02*
Y53937D01*
X23346Y22441D02*
Y53937D01*
X-19961D02*
X23346D01*
X28780Y21654D02*
X48465D01*
X28780D02*
Y53150D01*
X48465Y21654D02*
Y53150D01*
X28780D02*
X48465D01*
X37638Y37402D02*
X39606D01*
X38622Y36417D02*
Y38386D01*
X47638Y140256D02*
Y143209D01*
X41732Y140256D02*
Y143209D01*
Y140256D02*
X47638D01*
X41732Y143209D02*
X47638D01*
X43701Y141732D02*
X45669D01*
X44685Y140748D02*
Y142717D01*
X47638Y132382D02*
Y135335D01*
X41732Y132382D02*
Y135335D01*
Y132382D02*
X47638D01*
X41732Y135335D02*
X47638D01*
X43701Y133858D02*
X45669D01*
X44685Y132874D02*
Y134843D01*
X37795Y132382D02*
Y135335D01*
X31890Y132382D02*
Y135335D01*
Y132382D02*
X37795D01*
X31890Y135335D02*
X37795D01*
X33858Y133858D02*
X35827D01*
X34843Y132874D02*
Y134843D01*
X31890Y143815D02*
Y146768D01*
X37795Y143815D02*
Y146768D01*
X31890D02*
X37795D01*
X31890Y143815D02*
X37795D01*
X33858Y145291D02*
X35827D01*
X34843Y144307D02*
Y146276D01*
X27953Y132382D02*
Y135335D01*
X22047Y132382D02*
Y135335D01*
Y132382D02*
X27953D01*
X22047Y135335D02*
X27953D01*
X24016Y133858D02*
X25984D01*
X25000Y132874D02*
Y134843D01*
X22047Y143815D02*
Y146768D01*
X27953Y143815D02*
Y146768D01*
X22047D02*
X27953D01*
X22047Y143815D02*
X27953D01*
X24016Y145291D02*
X25984D01*
X25000Y144307D02*
Y146276D01*
X10827Y74803D02*
X12795D01*
X11811Y73819D02*
Y75787D01*
X7087Y70866D02*
X16535D01*
X7087Y78740D02*
X16535D01*
Y70866D02*
Y78740D01*
X7087Y70866D02*
Y78740D01*
D15*
X15047Y73819D02*
Y79724D01*
X12094Y73819D02*
Y79724D01*
X15047D01*
X12094Y73819D02*
X15047D01*
X5047D02*
Y79724D01*
X2094Y73819D02*
Y79724D01*
X5047D01*
X2094Y73819D02*
X5047D01*
X-4953D02*
Y79724D01*
X-7905Y73819D02*
Y79724D01*
X-4953D01*
X-7905Y73819D02*
X-4953D01*
X-9953D02*
Y79724D01*
X-12905Y73819D02*
Y79724D01*
X-9953D01*
X-12905Y73819D02*
X-9953D01*
X43307Y31909D02*
X49213D01*
X43307Y28957D02*
X49213D01*
X43307D02*
Y31909D01*
X49213Y28957D02*
Y31909D01*
X43307Y27972D02*
X49213D01*
X43307Y25020D02*
X49213D01*
X43307D02*
Y27972D01*
X49213Y25020D02*
Y27972D01*
X-18701Y48957D02*
X-12795D01*
X-18701Y51910D02*
X-12795D01*
Y48957D02*
Y51910D01*
X-18701Y48957D02*
Y51910D01*
Y45020D02*
X-12795D01*
X-18701Y47972D02*
X-12795D01*
Y45020D02*
Y47972D01*
X-18701Y45020D02*
Y47972D01*
X-17323Y84153D02*
X-11417D01*
X-17323Y87106D02*
X-11417D01*
X-17323Y84153D02*
Y87106D01*
X-11417Y84153D02*
Y87106D01*
X-17323Y80216D02*
X-11417D01*
X-17323Y83169D02*
X-11417D01*
X-17323Y80216D02*
Y83169D01*
X-11417Y80216D02*
Y83169D01*
X19587Y71850D02*
Y77756D01*
X16634Y71850D02*
Y77756D01*
Y71850D02*
X19587D01*
X16634Y77756D02*
X19587D01*
X47598Y54134D02*
Y60039D01*
X44646Y54134D02*
Y60039D01*
Y54134D02*
X47598D01*
X44646Y60039D02*
X47598D01*
X-12284Y14764D02*
Y20669D01*
X-9331Y14764D02*
Y20669D01*
X-12284D02*
X-9331D01*
X-12284Y14764D02*
X-9331D01*
X-2283D02*
Y20669D01*
X669Y14764D02*
Y20669D01*
X-2283D02*
X669D01*
X-2283Y14764D02*
X669D01*
X7717D02*
Y20669D01*
X10669Y14764D02*
Y20669D01*
X7717D02*
X10669D01*
X7717Y14764D02*
X10669D01*
X17717D02*
Y20669D01*
X20669Y14764D02*
Y20669D01*
X17717D02*
X20669D01*
X17717Y14764D02*
X20669D01*
X44646D02*
Y20669D01*
X47598Y14764D02*
Y20669D01*
X44646D02*
X47598D01*
X44646Y14764D02*
X47598D01*
X4035Y71850D02*
Y77756D01*
X6988Y71850D02*
Y77756D01*
X4035D02*
X6988D01*
X4035Y71850D02*
X6988D01*
X22047Y127461D02*
X27953D01*
X22047Y124508D02*
X27953D01*
Y127461D01*
X22047Y124508D02*
Y127461D01*
X31890D02*
X37795D01*
X31890Y124508D02*
X37795D01*
Y127461D01*
X31890Y124508D02*
Y127461D01*
X41732D02*
X47638D01*
X41732Y124508D02*
X47638D01*
Y127461D01*
X41732Y124508D02*
Y127461D01*
X22047Y131398D02*
X27953D01*
X22047Y128445D02*
X27953D01*
Y131398D01*
X22047Y128445D02*
Y131398D01*
X31890D02*
X37795D01*
X31890Y128445D02*
X37795D01*
Y131398D01*
X31890Y128445D02*
Y131398D01*
X41732D02*
X47638D01*
X41732Y128445D02*
X47638D01*
Y131398D01*
X41732Y128445D02*
Y131398D01*
X22047Y136319D02*
X27953D01*
X22047Y139272D02*
X27953D01*
X22047Y136319D02*
Y139272D01*
X27953Y136319D02*
Y139272D01*
X31890Y136319D02*
X37795D01*
X31890Y139272D02*
X37795D01*
X31890Y136319D02*
Y139272D01*
X37795Y136319D02*
Y139272D01*
X41732Y136319D02*
X47638D01*
X41732Y139272D02*
X47638D01*
X41732Y136319D02*
Y139272D01*
X47638Y136319D02*
Y139272D01*
X-17323Y135335D02*
X-11417D01*
X-17323Y132382D02*
X-11417D01*
Y135335D01*
X-17323Y132382D02*
Y135335D01*
X-7480D02*
X-1575D01*
X-7480Y132382D02*
X-1575D01*
Y135335D01*
X-7480Y132382D02*
Y135335D01*
X2362D02*
X8268D01*
X2362Y132382D02*
X8268D01*
Y135335D01*
X2362Y132382D02*
Y135335D01*
X-17323Y131398D02*
X-11417D01*
X-17323Y128445D02*
X-11417D01*
Y131398D01*
X-17323Y128445D02*
Y131398D01*
X-7480D02*
X-1575D01*
X-7480Y128445D02*
X-1575D01*
Y131398D01*
X-7480Y128445D02*
Y131398D01*
X2362D02*
X8268D01*
X2362Y128445D02*
X8268D01*
Y131398D01*
X2362Y128445D02*
Y131398D01*
X12094Y79724D02*
X15047D01*
X12587Y76772D02*
X14555D01*
X13571Y75787D02*
Y77756D01*
X15047Y73819D02*
Y79724D01*
X12094Y73819D02*
Y79724D01*
Y73819D02*
X15047D01*
X2094Y79724D02*
X5047D01*
X2587Y76772D02*
X4555D01*
X3571Y75787D02*
Y77756D01*
X5047Y73819D02*
Y79724D01*
X2094Y73819D02*
Y79724D01*
Y73819D02*
X5047D01*
X-7905Y79724D02*
X-4953D01*
X-7413Y76772D02*
X-5445D01*
X-6429Y75787D02*
Y77756D01*
X-4953Y73819D02*
Y79724D01*
X-7905Y73819D02*
Y79724D01*
Y73819D02*
X-4953D01*
X-12905Y79724D02*
X-9953D01*
X-12413Y76772D02*
X-10445D01*
X-11429Y75787D02*
Y77756D01*
X-9953Y73819D02*
Y79724D01*
X-12905Y73819D02*
Y79724D01*
Y73819D02*
X-9953D01*
X43307Y28957D02*
Y31909D01*
X46260Y29449D02*
Y31417D01*
X45276Y30433D02*
X47244D01*
X43307Y31909D02*
X49213D01*
X43307Y28957D02*
X49213D01*
Y31909D01*
X43307Y25020D02*
Y27972D01*
X46260Y25512D02*
Y27480D01*
X45276Y26496D02*
X47244D01*
X43307Y27972D02*
X49213D01*
X43307Y25020D02*
X49213D01*
Y27972D01*
X-12795Y48957D02*
Y51910D01*
X-15748Y49449D02*
Y51417D01*
X-16732Y50433D02*
X-14764D01*
X-18701Y48957D02*
X-12795D01*
X-18701Y51910D02*
X-12795D01*
X-18701Y48957D02*
Y51910D01*
X-12795Y45020D02*
Y47972D01*
X-15748Y45512D02*
Y47480D01*
X-16732Y46496D02*
X-14764D01*
X-18701Y45020D02*
X-12795D01*
X-18701Y47972D02*
X-12795D01*
X-18701Y45020D02*
Y47972D01*
X-17323Y84153D02*
Y87106D01*
X-14370Y84646D02*
Y86614D01*
X-15354Y85630D02*
X-13386D01*
X-17323Y84153D02*
X-11417D01*
X-17323Y87106D02*
X-11417D01*
Y84153D02*
Y87106D01*
X-17323Y80216D02*
Y83169D01*
X-14370Y80709D02*
Y82677D01*
X-15354Y81693D02*
X-13386D01*
X-17323Y80216D02*
X-11417D01*
X-17323Y83169D02*
X-11417D01*
Y80216D02*
Y83169D01*
X16634Y71850D02*
X19587D01*
X17126Y74803D02*
X19094D01*
X18110Y73819D02*
Y75787D01*
X19587Y71850D02*
Y77756D01*
X16634Y71850D02*
Y77756D01*
X19587D01*
X44646Y54134D02*
X47598D01*
X45138Y57087D02*
X47106D01*
X46122Y56102D02*
Y58071D01*
X47598Y54134D02*
Y60039D01*
X44646Y54134D02*
Y60039D01*
X47598D01*
X-12284Y20669D02*
X-9331D01*
X-11791Y17717D02*
X-9823D01*
X-10807Y16732D02*
Y18701D01*
X-12284Y14764D02*
Y20669D01*
X-9331Y14764D02*
Y20669D01*
X-12284Y14764D02*
X-9331D01*
X-2283Y20669D02*
X669D01*
X-1791Y17717D02*
X177D01*
X-807Y16732D02*
Y18701D01*
X-2283Y14764D02*
Y20669D01*
X669Y14764D02*
Y20669D01*
X-2283Y14764D02*
X669D01*
X7717Y20669D02*
X10669D01*
X8209Y17717D02*
X10177D01*
X9193Y16732D02*
Y18701D01*
X7717Y14764D02*
Y20669D01*
X10669Y14764D02*
Y20669D01*
X7717Y14764D02*
X10669D01*
X17717Y20669D02*
X20669D01*
X18209Y17717D02*
X20177D01*
X19193Y16732D02*
Y18701D01*
X17717Y14764D02*
Y20669D01*
X20669Y14764D02*
Y20669D01*
X17717Y14764D02*
X20669D01*
X44646Y20669D02*
X47598D01*
X45138Y17717D02*
X47106D01*
X46122Y16732D02*
Y18701D01*
X44646Y14764D02*
Y20669D01*
X47598Y14764D02*
Y20669D01*
X44646Y14764D02*
X47598D01*
X4035Y77756D02*
X6988D01*
X4528Y74803D02*
X6496D01*
X5512Y73819D02*
Y75787D01*
X4035Y71850D02*
Y77756D01*
X6988Y71850D02*
Y77756D01*
X4035Y71850D02*
X6988D01*
X27953Y124508D02*
Y127461D01*
X25000Y125000D02*
Y126969D01*
X24016Y125984D02*
X25984D01*
X22047Y127461D02*
X27953D01*
X22047Y124508D02*
X27953D01*
X22047D02*
Y127461D01*
X37795Y124508D02*
Y127461D01*
X34843Y125000D02*
Y126969D01*
X33858Y125984D02*
X35827D01*
X31890Y127461D02*
X37795D01*
X31890Y124508D02*
X37795D01*
X31890D02*
Y127461D01*
X47638Y124508D02*
Y127461D01*
X44685Y125000D02*
Y126969D01*
X43701Y125984D02*
X45669D01*
X41732Y127461D02*
X47638D01*
X41732Y124508D02*
X47638D01*
X41732D02*
Y127461D01*
X27953Y128445D02*
Y131398D01*
X25000Y128937D02*
Y130905D01*
X24016Y129921D02*
X25984D01*
X22047Y131398D02*
X27953D01*
X22047Y128445D02*
X27953D01*
X22047D02*
Y131398D01*
X37795Y128445D02*
Y131398D01*
X34843Y128937D02*
Y130905D01*
X33858Y129921D02*
X35827D01*
X31890Y131398D02*
X37795D01*
X31890Y128445D02*
X37795D01*
X31890D02*
Y131398D01*
X47638Y128445D02*
Y131398D01*
X44685Y128937D02*
Y130905D01*
X43701Y129921D02*
X45669D01*
X41732Y131398D02*
X47638D01*
X41732Y128445D02*
X47638D01*
X41732D02*
Y131398D01*
X22047Y136319D02*
Y139272D01*
X25000Y136811D02*
Y138779D01*
X24016Y137795D02*
X25984D01*
X22047Y136319D02*
X27953D01*
X22047Y139272D02*
X27953D01*
Y136319D02*
Y139272D01*
X31890Y136319D02*
Y139272D01*
X34843Y136811D02*
Y138779D01*
X33858Y137795D02*
X35827D01*
X31890Y136319D02*
X37795D01*
X31890Y139272D02*
X37795D01*
Y136319D02*
Y139272D01*
X41732Y136319D02*
Y139272D01*
X44685Y136811D02*
Y138779D01*
X43701Y137795D02*
X45669D01*
X41732Y136319D02*
X47638D01*
X41732Y139272D02*
X47638D01*
Y136319D02*
Y139272D01*
X-11417Y132382D02*
Y135335D01*
X-14370Y132874D02*
Y134843D01*
X-15354Y133858D02*
X-13386D01*
X-17323Y135335D02*
X-11417D01*
X-17323Y132382D02*
X-11417D01*
X-17323D02*
Y135335D01*
X-1575Y132382D02*
Y135335D01*
X-4528Y132874D02*
Y134843D01*
X-5512Y133858D02*
X-3543D01*
X-7480Y135335D02*
X-1575D01*
X-7480Y132382D02*
X-1575D01*
X-7480D02*
Y135335D01*
X8268Y132382D02*
Y135335D01*
X5315Y132874D02*
Y134843D01*
X4331Y133858D02*
X6299D01*
X2362Y135335D02*
X8268D01*
X2362Y132382D02*
X8268D01*
X2362D02*
Y135335D01*
X-11417Y128445D02*
Y131398D01*
X-14370Y128937D02*
Y130905D01*
X-15354Y129921D02*
X-13386D01*
X-17323Y131398D02*
X-11417D01*
X-17323Y128445D02*
X-11417D01*
X-17323D02*
Y131398D01*
X-1575Y128445D02*
Y131398D01*
X-4528Y128937D02*
Y130905D01*
X-5512Y129921D02*
X-3543D01*
X-7480Y131398D02*
X-1575D01*
X-7480Y128445D02*
X-1575D01*
X-7480D02*
Y131398D01*
X8268Y128445D02*
Y131398D01*
X5315Y128937D02*
Y130905D01*
X4331Y129921D02*
X6299D01*
X2362Y131398D02*
X8268D01*
X2362Y128445D02*
X8268D01*
X2362D02*
Y131398D01*
M02*
