G04*
G04 #@! TF.GenerationSoftware,Altium Limited,Altium Designer,22.1.2 (22)*
G04*
G04 Layer_Physical_Order=3*
G04 Layer_Color=16440176*
%FSLAX25Y25*%
%MOIN*%
G70*
G04*
G04 #@! TF.SameCoordinates,22AE79A3-5326-4A0D-A068-57DE9E5E3605*
G04*
G04*
G04 #@! TF.FilePolarity,Positive*
G04*
G01*
G75*
%ADD10C,0.00787*%
%ADD11C,0.00394*%
%ADD13C,0.00197*%
%ADD14C,0.00039*%
%ADD15C,0.00079*%
%ADD37C,0.01181*%
%ADD40C,0.05315*%
%ADD42C,0.01968*%
%ADD43C,0.03937*%
G36*
X55000Y122000D02*
X-24500D01*
Y138000D01*
X55000D01*
Y122000D01*
D02*
G37*
G36*
X54500Y43307D02*
X-24500D01*
Y118110D01*
X54500D01*
Y43307D01*
D02*
G37*
G36*
X14920Y29214D02*
X14954Y29197D01*
X14997Y29182D01*
X15050Y29169D01*
X15113Y29158D01*
X15267Y29143D01*
X15460Y29135D01*
X15571Y29134D01*
Y27953D01*
X15460Y27952D01*
X15113Y27928D01*
X15050Y27917D01*
X14997Y27904D01*
X14954Y27890D01*
X14920Y27873D01*
X14896Y27854D01*
Y29232D01*
X14920Y29214D01*
D02*
G37*
G36*
X13490Y27854D02*
X13466Y27873D01*
X13432Y27890D01*
X13389Y27904D01*
X13336Y27917D01*
X13273Y27928D01*
X13119Y27944D01*
X12926Y27952D01*
X12815Y27953D01*
Y29134D01*
X12926Y29135D01*
X13273Y29158D01*
X13336Y29169D01*
X13389Y29182D01*
X13432Y29197D01*
X13466Y29214D01*
X13490Y29232D01*
Y27854D01*
D02*
G37*
G36*
X4920Y29214D02*
X4954Y29197D01*
X4997Y29182D01*
X5050Y29169D01*
X5113Y29158D01*
X5267Y29143D01*
X5460Y29135D01*
X5571Y29134D01*
Y27953D01*
X5460Y27952D01*
X5113Y27928D01*
X5050Y27917D01*
X4997Y27904D01*
X4954Y27890D01*
X4920Y27873D01*
X4896Y27854D01*
Y29232D01*
X4920Y29214D01*
D02*
G37*
G36*
X3490Y27854D02*
X3466Y27873D01*
X3432Y27890D01*
X3389Y27904D01*
X3336Y27917D01*
X3273Y27928D01*
X3119Y27944D01*
X2926Y27952D01*
X2815Y27953D01*
Y29134D01*
X2926Y29135D01*
X3273Y29158D01*
X3336Y29169D01*
X3389Y29182D01*
X3432Y29197D01*
X3466Y29214D01*
X3490Y29232D01*
Y27854D01*
D02*
G37*
G36*
X-5080Y29214D02*
X-5046Y29197D01*
X-5003Y29182D01*
X-4950Y29169D01*
X-4887Y29158D01*
X-4733Y29143D01*
X-4540Y29135D01*
X-4429Y29134D01*
Y27953D01*
X-4540Y27952D01*
X-4887Y27928D01*
X-4950Y27917D01*
X-5003Y27904D01*
X-5046Y27890D01*
X-5080Y27873D01*
X-5104Y27854D01*
Y29232D01*
X-5080Y29214D01*
D02*
G37*
G36*
X-6510Y27854D02*
X-6534Y27873D01*
X-6568Y27890D01*
X-6611Y27904D01*
X-6664Y27917D01*
X-6727Y27928D01*
X-6881Y27944D01*
X-7074Y27952D01*
X-7185Y27953D01*
Y29134D01*
X-7074Y29135D01*
X-6727Y29158D01*
X-6664Y29169D01*
X-6611Y29182D01*
X-6568Y29197D01*
X-6534Y29214D01*
X-6510Y29232D01*
Y27854D01*
D02*
G37*
G36*
X-15080Y29214D02*
X-15046Y29197D01*
X-15003Y29182D01*
X-14950Y29169D01*
X-14887Y29158D01*
X-14733Y29143D01*
X-14540Y29135D01*
X-14429Y29134D01*
Y27953D01*
X-14540Y27952D01*
X-14887Y27928D01*
X-14950Y27917D01*
X-15003Y27904D01*
X-15046Y27890D01*
X-15080Y27873D01*
X-15104Y27854D01*
Y29232D01*
X-15080Y29214D01*
D02*
G37*
G36*
X-15817Y27559D02*
X-15847Y27555D01*
X-15883Y27543D01*
X-15924Y27523D01*
X-15971Y27494D01*
X-16023Y27458D01*
X-16143Y27360D01*
X-16285Y27229D01*
X-16364Y27151D01*
X-17199Y27986D01*
X-17121Y28066D01*
X-16893Y28328D01*
X-16856Y28380D01*
X-16827Y28426D01*
X-16807Y28468D01*
X-16795Y28503D01*
X-16791Y28534D01*
X-15817Y27559D01*
D02*
G37*
G36*
X46714Y23708D02*
X46737Y23361D01*
X46748Y23298D01*
X46761Y23245D01*
X46776Y23202D01*
X46792Y23168D01*
X46811Y23144D01*
X45433D01*
X45452Y23168D01*
X45469Y23202D01*
X45483Y23245D01*
X45496Y23298D01*
X45507Y23361D01*
X45523Y23515D01*
X45531Y23708D01*
X45531Y23819D01*
X46713D01*
X46714Y23708D01*
D02*
G37*
G36*
X41519Y20804D02*
X41528Y20710D01*
X41542Y20621D01*
X41563Y20536D01*
X41590Y20455D01*
X41622Y20378D01*
X41660Y20305D01*
X41705Y20236D01*
X41755Y20172D01*
X41811Y20112D01*
X40433D01*
X40489Y20172D01*
X40539Y20236D01*
X40584Y20305D01*
X40622Y20378D01*
X40655Y20455D01*
X40681Y20536D01*
X40702Y20621D01*
X40716Y20710D01*
X40725Y20804D01*
X40728Y20902D01*
X41516D01*
X41519Y20804D01*
D02*
G37*
G36*
X36519D02*
X36528Y20710D01*
X36542Y20621D01*
X36563Y20536D01*
X36590Y20455D01*
X36622Y20378D01*
X36660Y20305D01*
X36705Y20236D01*
X36755Y20172D01*
X36811Y20112D01*
X35433D01*
X35489Y20172D01*
X35539Y20236D01*
X35584Y20305D01*
X35622Y20378D01*
X35655Y20455D01*
X35681Y20536D01*
X35702Y20621D01*
X35717Y20710D01*
X35725Y20804D01*
X35728Y20902D01*
X36516D01*
X36519Y20804D01*
D02*
G37*
G36*
X19826Y20694D02*
X19776Y20630D01*
X19731Y20561D01*
X19693Y20489D01*
X19660Y20412D01*
X19634Y20331D01*
X19613Y20245D01*
X19598Y20156D01*
X19590Y20062D01*
X19587Y19964D01*
X18799D01*
X18796Y20062D01*
X18787Y20156D01*
X18773Y20245D01*
X18752Y20331D01*
X18725Y20412D01*
X18693Y20489D01*
X18655Y20561D01*
X18610Y20630D01*
X18560Y20694D01*
X18504Y20754D01*
X19882D01*
X19826Y20694D01*
D02*
G37*
G36*
X9826D02*
X9776Y20630D01*
X9731Y20561D01*
X9693Y20489D01*
X9661Y20412D01*
X9634Y20331D01*
X9613Y20245D01*
X9598Y20156D01*
X9590Y20062D01*
X9587Y19964D01*
X8799D01*
X8796Y20062D01*
X8787Y20156D01*
X8773Y20245D01*
X8752Y20331D01*
X8725Y20412D01*
X8693Y20489D01*
X8655Y20561D01*
X8610Y20630D01*
X8560Y20694D01*
X8504Y20754D01*
X9882D01*
X9826Y20694D01*
D02*
G37*
G36*
X-174D02*
X-224Y20630D01*
X-269Y20561D01*
X-307Y20489D01*
X-340Y20412D01*
X-366Y20331D01*
X-387Y20245D01*
X-402Y20156D01*
X-410Y20062D01*
X-413Y19964D01*
X-1201D01*
X-1204Y20062D01*
X-1213Y20156D01*
X-1227Y20245D01*
X-1248Y20331D01*
X-1275Y20412D01*
X-1307Y20489D01*
X-1345Y20561D01*
X-1390Y20630D01*
X-1440Y20694D01*
X-1496Y20754D01*
X-118D01*
X-174Y20694D01*
D02*
G37*
G36*
X-10174D02*
X-10224Y20630D01*
X-10269Y20561D01*
X-10307Y20489D01*
X-10340Y20412D01*
X-10366Y20331D01*
X-10387Y20245D01*
X-10402Y20156D01*
X-10410Y20062D01*
X-10413Y19964D01*
X-11201D01*
X-11204Y20062D01*
X-11213Y20156D01*
X-11227Y20245D01*
X-11248Y20331D01*
X-11275Y20412D01*
X-11307Y20489D01*
X-11345Y20561D01*
X-11390Y20630D01*
X-11440Y20694D01*
X-11496Y20754D01*
X-10118D01*
X-10174Y20694D01*
D02*
G37*
G36*
X33664Y1395D02*
X33673Y1301D01*
X33688Y1211D01*
X33709Y1126D01*
X33735Y1045D01*
X33768Y968D01*
X33806Y895D01*
X33850Y827D01*
X33901Y763D01*
X33957Y703D01*
X32579D01*
X32635Y763D01*
X32685Y827D01*
X32729Y895D01*
X32768Y968D01*
X32800Y1045D01*
X32827Y1126D01*
X32847Y1211D01*
X32862Y1301D01*
X32871Y1395D01*
X32874Y1493D01*
X33661D01*
X33664Y1395D01*
D02*
G37*
G36*
X30515D02*
X30524Y1301D01*
X30538Y1211D01*
X30559Y1126D01*
X30586Y1045D01*
X30618Y968D01*
X30656Y895D01*
X30701Y827D01*
X30751Y763D01*
X30807Y703D01*
X29429D01*
X29485Y763D01*
X29535Y827D01*
X29580Y895D01*
X29618Y968D01*
X29651Y1045D01*
X29677Y1126D01*
X29698Y1211D01*
X29713Y1301D01*
X29722Y1395D01*
X29724Y1493D01*
X30512D01*
X30515Y1395D01*
D02*
G37*
G36*
X27365D02*
X27374Y1301D01*
X27389Y1211D01*
X27409Y1126D01*
X27436Y1045D01*
X27468Y968D01*
X27507Y895D01*
X27551Y827D01*
X27601Y763D01*
X27657Y703D01*
X26280D01*
X26336Y763D01*
X26386Y827D01*
X26430Y895D01*
X26469Y968D01*
X26501Y1045D01*
X26528Y1126D01*
X26548Y1211D01*
X26563Y1301D01*
X26572Y1395D01*
X26575Y1493D01*
X27362D01*
X27365Y1395D01*
D02*
G37*
G36*
X24216D02*
X24224Y1301D01*
X24239Y1211D01*
X24260Y1126D01*
X24286Y1045D01*
X24319Y968D01*
X24357Y895D01*
X24402Y827D01*
X24452Y763D01*
X24508Y703D01*
X23130D01*
X23186Y763D01*
X23236Y827D01*
X23280Y895D01*
X23319Y968D01*
X23351Y1045D01*
X23378Y1126D01*
X23399Y1211D01*
X23413Y1301D01*
X23422Y1395D01*
X23425Y1493D01*
X24213D01*
X24216Y1395D01*
D02*
G37*
G36*
X14767D02*
X14776Y1301D01*
X14790Y1211D01*
X14811Y1126D01*
X14838Y1045D01*
X14870Y968D01*
X14909Y895D01*
X14953Y827D01*
X15003Y763D01*
X15059Y703D01*
X13681D01*
X13737Y763D01*
X13787Y827D01*
X13832Y895D01*
X13870Y968D01*
X13903Y1045D01*
X13929Y1126D01*
X13950Y1211D01*
X13965Y1301D01*
X13973Y1395D01*
X13976Y1493D01*
X14764D01*
X14767Y1395D01*
D02*
G37*
G36*
X-19684Y1267D02*
X-19660Y920D01*
X-19650Y857D01*
X-19637Y804D01*
X-19622Y761D01*
X-19605Y727D01*
X-19587Y703D01*
X-20965D01*
X-20946Y727D01*
X-20929Y761D01*
X-20914Y804D01*
X-20902Y857D01*
X-20891Y920D01*
X-20875Y1074D01*
X-20867Y1267D01*
X-20866Y1378D01*
X-19685D01*
X-19684Y1267D01*
D02*
G37*
G36*
X11853Y-763D02*
X11803Y-827D01*
X11759Y-895D01*
X11721Y-968D01*
X11688Y-1045D01*
X11661Y-1126D01*
X11641Y-1211D01*
X11626Y-1301D01*
X11617Y-1395D01*
X11614Y-1493D01*
X10827D01*
X10824Y-1395D01*
X10815Y-1301D01*
X10800Y-1211D01*
X10780Y-1126D01*
X10753Y-1045D01*
X10721Y-968D01*
X10682Y-895D01*
X10638Y-827D01*
X10588Y-763D01*
X10531Y-703D01*
X11909D01*
X11853Y-763D01*
D02*
G37*
%LPC*%
G36*
X40432Y106693D02*
X39884D01*
X39378Y106483D01*
X39237Y106342D01*
X39164Y106315D01*
X39118Y106272D01*
X39084Y106245D01*
X39047Y106221D01*
X39007Y106200D01*
X38963Y106182D01*
X38915Y106166D01*
X38862Y106153D01*
X38802Y106143D01*
X38737Y106137D01*
X38653Y106134D01*
X38615Y106117D01*
X35815D01*
X35815Y106117D01*
X35507Y106056D01*
X35247Y105882D01*
X35247Y105882D01*
X31432Y102068D01*
X31258Y101807D01*
X31197Y101500D01*
Y88332D01*
X20751Y77887D01*
X20577Y77626D01*
X20516Y77319D01*
Y64151D01*
X15947Y59582D01*
X10736D01*
X10698Y59599D01*
X10614Y59602D01*
X10549Y59608D01*
X10489Y59618D01*
X10436Y59631D01*
X10387Y59646D01*
X10344Y59665D01*
X10304Y59686D01*
X10267Y59710D01*
X10233Y59737D01*
X10187Y59780D01*
X10114Y59807D01*
X9973Y59948D01*
X9467Y60158D01*
X8919D01*
X8412Y59948D01*
X8025Y59560D01*
X7815Y59054D01*
Y58505D01*
X8025Y57999D01*
X8412Y57611D01*
X8919Y57402D01*
X9467D01*
X9973Y57611D01*
X10114Y57752D01*
X10187Y57779D01*
X10233Y57823D01*
X10267Y57849D01*
X10304Y57873D01*
X10344Y57894D01*
X10387Y57913D01*
X10436Y57928D01*
X10489Y57941D01*
X10549Y57951D01*
X10614Y57957D01*
X10698Y57960D01*
X10736Y57977D01*
X16280D01*
X16587Y58038D01*
X16847Y58212D01*
X17315Y58680D01*
X17815Y58505D01*
X18025Y57999D01*
X18412Y57611D01*
X18919Y57402D01*
X19467D01*
X19974Y57611D01*
X20361Y57999D01*
X20571Y58505D01*
Y58704D01*
X20603Y58775D01*
X20605Y58838D01*
X20610Y58882D01*
X20620Y58925D01*
X20633Y58967D01*
X20651Y59011D01*
X20674Y59057D01*
X20702Y59104D01*
X20737Y59152D01*
X20779Y59203D01*
X20837Y59264D01*
X20852Y59303D01*
X23068Y61519D01*
X23242Y61779D01*
X23303Y62087D01*
X23303Y62087D01*
Y75514D01*
X25461Y77671D01*
X25499Y77686D01*
X25560Y77744D01*
X25611Y77786D01*
X25660Y77821D01*
X25707Y77849D01*
X25752Y77872D01*
X25796Y77890D01*
X25839Y77903D01*
X25882Y77912D01*
X25925Y77918D01*
X25988Y77920D01*
X26059Y77952D01*
X26258D01*
X26764Y78162D01*
X27152Y78549D01*
X27362Y79056D01*
Y79604D01*
X27152Y80111D01*
X26764Y80498D01*
X26465Y80622D01*
X26305Y81170D01*
X32568Y87432D01*
X32568Y87432D01*
X32742Y87693D01*
X32803Y88000D01*
X32803Y88000D01*
Y101167D01*
X36147Y104512D01*
X38615D01*
X38653Y104495D01*
X38737Y104492D01*
X38802Y104486D01*
X38862Y104476D01*
X38915Y104464D01*
X38963Y104448D01*
X39007Y104429D01*
X39047Y104408D01*
X39083Y104385D01*
X39118Y104358D01*
X39164Y104314D01*
X39237Y104287D01*
X39378Y104147D01*
X39884Y103937D01*
X40432D01*
X40939Y104147D01*
X41326Y104534D01*
X41536Y105041D01*
Y105589D01*
X41326Y106095D01*
X40939Y106483D01*
X40432Y106693D01*
D02*
G37*
G36*
X-6000Y113303D02*
X-11500D01*
X-11807Y113242D01*
X-12068Y113068D01*
X-12068Y113068D01*
X-14568Y110568D01*
X-14742Y110307D01*
X-14803Y110000D01*
Y91500D01*
X-14742Y91193D01*
X-14568Y90932D01*
X-13619Y89983D01*
X-13619Y89983D01*
X-13358Y89810D01*
X-13051Y89748D01*
X-12972D01*
X-12935Y89732D01*
X-12850Y89729D01*
X-12785Y89723D01*
X-12725Y89713D01*
X-12672Y89700D01*
X-12624Y89684D01*
X-12580Y89666D01*
X-12540Y89645D01*
X-12504Y89621D01*
X-12469Y89594D01*
X-12423Y89551D01*
X-12350Y89524D01*
X-12210Y89383D01*
X-11703Y89173D01*
X-11155D01*
X-10649Y89383D01*
X-10261Y89771D01*
X-10051Y90277D01*
Y90825D01*
X-10261Y91332D01*
X-10649Y91719D01*
X-11155Y91929D01*
X-11703D01*
X-12210Y91719D01*
X-12336Y91593D01*
X-12785Y91420D01*
X-13197Y91833D01*
Y109668D01*
X-11168Y111697D01*
X-6333D01*
X-1351Y106716D01*
X-1351Y106716D01*
X-1090Y106541D01*
X-783Y106480D01*
X229D01*
X266Y106464D01*
X350Y106461D01*
X416Y106455D01*
X475Y106445D01*
X529Y106432D01*
X577Y106416D01*
X621Y106398D01*
X660Y106377D01*
X697Y106353D01*
X732Y106326D01*
X778Y106283D01*
X850Y106256D01*
X991Y106115D01*
X1498Y105905D01*
X2046D01*
X2552Y106115D01*
X2940Y106503D01*
X3150Y107009D01*
Y107557D01*
X2940Y108064D01*
X2552Y108451D01*
X2046Y108661D01*
X1498D01*
X991Y108451D01*
X850Y108311D01*
X778Y108283D01*
X731Y108240D01*
X697Y108213D01*
X660Y108189D01*
X621Y108168D01*
X577Y108150D01*
X529Y108134D01*
X475Y108121D01*
X416Y108112D01*
X350Y108105D01*
X266Y108103D01*
X229Y108086D01*
X-451D01*
X-5432Y113068D01*
X-5693Y113242D01*
X-6000Y113303D01*
D02*
G37*
G36*
X-9568Y106693D02*
X-10117D01*
X-10623Y106483D01*
X-11011Y106096D01*
X-11220Y105589D01*
Y105041D01*
X-11011Y104534D01*
X-10623Y104147D01*
X-10117Y103937D01*
X-9918D01*
X-9847Y103905D01*
X-9784Y103903D01*
X-9740Y103897D01*
X-9698Y103888D01*
X-9655Y103875D01*
X-9611Y103857D01*
X-9566Y103834D01*
X-9518Y103806D01*
X-9470Y103771D01*
X-9419Y103729D01*
X-9358Y103671D01*
X-9319Y103656D01*
X-5803Y100140D01*
Y99180D01*
X-6303Y98973D01*
X-8184Y100854D01*
X-8198Y100893D01*
X-8256Y100954D01*
X-8298Y101005D01*
X-8333Y101054D01*
X-8362Y101101D01*
X-8385Y101146D01*
X-8403Y101190D01*
X-8416Y101233D01*
X-8425Y101275D01*
X-8430Y101319D01*
X-8432Y101382D01*
X-8465Y101453D01*
Y101652D01*
X-8674Y102158D01*
X-9062Y102546D01*
X-9568Y102756D01*
X-10117D01*
X-10623Y102546D01*
X-11011Y102158D01*
X-11220Y101652D01*
Y101103D01*
X-11011Y100597D01*
X-10623Y100209D01*
X-10117Y100000D01*
X-9918D01*
X-9847Y99967D01*
X-9784Y99965D01*
X-9740Y99960D01*
X-9698Y99951D01*
X-9655Y99938D01*
X-9611Y99920D01*
X-9566Y99897D01*
X-9518Y99868D01*
X-9470Y99833D01*
X-9419Y99791D01*
X-9358Y99734D01*
X-9319Y99719D01*
X-7303Y97703D01*
Y61333D01*
X-9053Y59582D01*
X-9264D01*
X-9302Y59599D01*
X-9386Y59602D01*
X-9451Y59608D01*
X-9511Y59618D01*
X-9564Y59631D01*
X-9612Y59646D01*
X-9656Y59665D01*
X-9696Y59686D01*
X-9732Y59710D01*
X-9767Y59737D01*
X-9813Y59780D01*
X-9886Y59807D01*
X-10026Y59948D01*
X-10533Y60158D01*
X-11081D01*
X-11588Y59948D01*
X-11975Y59560D01*
X-12185Y59054D01*
Y58505D01*
X-11975Y57999D01*
X-11588Y57611D01*
X-11081Y57402D01*
X-10533D01*
X-10026Y57611D01*
X-9886Y57752D01*
X-9813Y57779D01*
X-9767Y57823D01*
X-9732Y57849D01*
X-9696Y57873D01*
X-9656Y57894D01*
X-9612Y57913D01*
X-9564Y57928D01*
X-9511Y57941D01*
X-9451Y57951D01*
X-9386Y57957D01*
X-9302Y57960D01*
X-9264Y57977D01*
X-8721D01*
X-8413Y58038D01*
X-8153Y58212D01*
X-6074Y60290D01*
X-5750Y60381D01*
X-5426Y60290D01*
X-3347Y58212D01*
X-3087Y58038D01*
X-2780Y57977D01*
X-2780Y57977D01*
X-2350D01*
X-2313Y57960D01*
X-2228Y57957D01*
X-2163Y57951D01*
X-2103Y57941D01*
X-2050Y57928D01*
X-2002Y57913D01*
X-1958Y57894D01*
X-1918Y57873D01*
X-1882Y57850D01*
X-1847Y57823D01*
X-1801Y57779D01*
X-1728Y57752D01*
X-1588Y57611D01*
X-1081Y57402D01*
X-533D01*
X-27Y57611D01*
X361Y57999D01*
X469Y58259D01*
X969Y58160D01*
Y53864D01*
X1030Y53557D01*
X1204Y53296D01*
X4068Y50432D01*
X4068Y50432D01*
X4328Y50258D01*
X4635Y50197D01*
X4635Y50197D01*
X35000D01*
X35307Y50258D01*
X35568Y50432D01*
X36690Y51554D01*
X36864Y51815D01*
X36925Y52122D01*
X36925Y52122D01*
Y53851D01*
X36942Y53888D01*
X36944Y53973D01*
X36950Y54038D01*
X36960Y54097D01*
X36973Y54151D01*
X36989Y54199D01*
X37007Y54243D01*
X37028Y54282D01*
X37052Y54319D01*
X37079Y54353D01*
X37122Y54400D01*
X37150Y54473D01*
X37290Y54613D01*
X37500Y55120D01*
Y55668D01*
X37290Y56174D01*
X37070Y56394D01*
X37277Y56894D01*
X38486D01*
X39463Y55917D01*
X39478Y55879D01*
X39536Y55817D01*
X39578Y55767D01*
X39613Y55718D01*
X39641Y55671D01*
X39664Y55625D01*
X39682Y55582D01*
X39695Y55538D01*
X39704Y55496D01*
X39710Y55453D01*
X39712Y55389D01*
X39744Y55318D01*
Y55120D01*
X39954Y54613D01*
X40341Y54225D01*
X40848Y54016D01*
X41396D01*
X41903Y54225D01*
X42290Y54613D01*
X42500Y55120D01*
Y55668D01*
X42290Y56174D01*
X41903Y56562D01*
X41396Y56772D01*
X41197D01*
X41126Y56804D01*
X41063Y56806D01*
X41020Y56811D01*
X40977Y56820D01*
X40934Y56834D01*
X40890Y56851D01*
X40845Y56874D01*
X40798Y56903D01*
X40749Y56938D01*
X40699Y56980D01*
X40637Y57038D01*
X40599Y57052D01*
X39386Y58265D01*
X39126Y58439D01*
X38819Y58500D01*
X34833D01*
X34833Y58500D01*
X34525Y58439D01*
X34265Y58265D01*
X34265Y58265D01*
X32932Y56932D01*
X32758Y56672D01*
X32697Y56365D01*
Y53514D01*
X32168Y52984D01*
X5457D01*
X3756Y54685D01*
Y80620D01*
X8835Y85700D01*
X8835Y85700D01*
X9009Y85961D01*
X9071Y86268D01*
Y87433D01*
X9087Y87471D01*
X9090Y87555D01*
X9096Y87620D01*
X9106Y87680D01*
X9119Y87733D01*
X9135Y87782D01*
X9153Y87825D01*
X9174Y87865D01*
X9198Y87901D01*
X9225Y87936D01*
X9268Y87982D01*
X9295Y88055D01*
X9436Y88196D01*
X9646Y88702D01*
Y89250D01*
X9436Y89757D01*
X9048Y90144D01*
X8542Y90354D01*
X7994D01*
X7487Y90144D01*
X7100Y89757D01*
X6890Y89250D01*
Y88702D01*
X7100Y88196D01*
X7240Y88055D01*
X7267Y87982D01*
X7311Y87936D01*
X7338Y87902D01*
X7361Y87865D01*
X7382Y87825D01*
X7401Y87781D01*
X7417Y87733D01*
X7430Y87680D01*
X7439Y87620D01*
X7446Y87555D01*
X7448Y87471D01*
X7465Y87433D01*
Y86600D01*
X3036Y82172D01*
X2575Y82363D01*
Y93929D01*
X2591Y93967D01*
X2594Y94051D01*
X2600Y94116D01*
X2610Y94176D01*
X2623Y94229D01*
X2639Y94278D01*
X2657Y94321D01*
X2678Y94361D01*
X2702Y94397D01*
X2729Y94432D01*
X2772Y94478D01*
X2799Y94551D01*
X2940Y94692D01*
X3150Y95198D01*
Y95746D01*
X2940Y96253D01*
X2552Y96640D01*
X2046Y96850D01*
X1498D01*
X991Y96640D01*
X604Y96253D01*
X394Y95746D01*
Y95198D01*
X604Y94692D01*
X744Y94551D01*
X771Y94478D01*
X815Y94432D01*
X841Y94398D01*
X865Y94361D01*
X886Y94321D01*
X905Y94278D01*
X921Y94229D01*
X934Y94176D01*
X943Y94116D01*
X950Y94051D01*
X952Y93967D01*
X969Y93929D01*
Y59399D01*
X469Y59300D01*
X361Y59560D01*
X-27Y59948D01*
X-533Y60158D01*
X-1081D01*
X-1588Y59948D01*
X-1728Y59807D01*
X-1801Y59780D01*
X-1847Y59737D01*
X-1882Y59710D01*
X-1918Y59686D01*
X-1958Y59665D01*
X-2002Y59646D01*
X-2050Y59631D01*
X-2104Y59618D01*
X-2163Y59608D01*
X-2228Y59602D01*
X-2313Y59599D01*
X-2350Y59582D01*
X-2447D01*
X-4197Y61333D01*
Y100472D01*
X-4197Y100472D01*
X-4258Y100780D01*
X-4432Y101040D01*
X-4432Y101040D01*
X-8184Y104792D01*
X-8198Y104830D01*
X-8256Y104892D01*
X-8298Y104942D01*
X-8333Y104991D01*
X-8362Y105038D01*
X-8385Y105083D01*
X-8403Y105127D01*
X-8416Y105170D01*
X-8425Y105213D01*
X-8430Y105256D01*
X-8432Y105319D01*
X-8465Y105390D01*
Y105589D01*
X-8674Y106096D01*
X-9062Y106483D01*
X-9568Y106693D01*
D02*
G37*
G36*
X-18230Y114567D02*
X-18778D01*
X-19285Y114357D01*
X-19672Y113970D01*
X-19882Y113463D01*
Y113264D01*
X-19914Y113193D01*
X-19916Y113130D01*
X-19921Y113087D01*
X-19931Y113044D01*
X-19944Y113001D01*
X-19962Y112957D01*
X-19985Y112912D01*
X-20013Y112865D01*
X-20048Y112816D01*
X-20090Y112766D01*
X-20148Y112704D01*
X-20163Y112666D01*
X-21568Y111261D01*
X-21742Y111000D01*
X-21803Y110693D01*
Y107811D01*
X-21742Y107504D01*
X-21568Y107243D01*
X-20163Y105838D01*
X-20148Y105800D01*
X-20090Y105738D01*
X-20048Y105688D01*
X-20013Y105639D01*
X-19985Y105592D01*
X-19962Y105547D01*
X-19944Y105503D01*
X-19931Y105460D01*
X-19921Y105417D01*
X-19916Y105374D01*
X-19914Y105310D01*
X-19882Y105240D01*
Y105041D01*
X-19672Y104534D01*
X-19285Y104147D01*
X-18778Y103937D01*
X-18625D01*
X-18563Y103906D01*
X-18498Y103902D01*
X-18453Y103894D01*
X-18408Y103884D01*
X-18363Y103868D01*
X-18317Y103849D01*
X-18271Y103824D01*
X-18222Y103794D01*
X-18172Y103758D01*
X-18121Y103715D01*
X-18059Y103656D01*
X-18021Y103642D01*
X-17803Y103424D01*
Y87521D01*
X-18021Y87303D01*
X-18059Y87288D01*
X-18121Y87230D01*
X-18172Y87187D01*
X-18222Y87151D01*
X-18271Y87121D01*
X-18318Y87096D01*
X-18363Y87076D01*
X-18408Y87061D01*
X-18453Y87050D01*
X-18498Y87043D01*
X-18563Y87039D01*
X-18625Y87008D01*
X-18778D01*
X-19285Y86798D01*
X-19672Y86410D01*
X-19882Y85904D01*
Y85641D01*
X-19913Y85564D01*
X-19912Y85503D01*
X-19915Y85462D01*
X-19922Y85423D01*
X-19933Y85383D01*
X-19948Y85342D01*
X-19969Y85299D01*
X-19996Y85254D01*
X-20029Y85206D01*
X-20070Y85157D01*
X-20128Y85095D01*
X-20129Y85090D01*
X-20134Y85088D01*
X-20147Y85052D01*
X-20568Y84631D01*
X-20742Y84371D01*
X-20803Y84064D01*
Y76406D01*
X-20742Y76098D01*
X-20568Y75838D01*
X-18088Y73358D01*
X-18073Y73320D01*
X-18015Y73258D01*
X-17974Y73208D01*
X-17939Y73159D01*
X-17910Y73112D01*
X-17887Y73066D01*
X-17869Y73023D01*
X-17856Y72979D01*
X-17847Y72937D01*
X-17841Y72893D01*
X-17839Y72830D01*
X-17807Y72759D01*
Y72561D01*
X-17597Y72054D01*
X-17210Y71667D01*
X-16703Y71457D01*
X-16155D01*
X-15649Y71667D01*
X-15261Y72054D01*
X-15051Y72561D01*
Y73109D01*
X-15261Y73615D01*
X-15649Y74003D01*
X-16155Y74213D01*
X-16354D01*
X-16425Y74245D01*
X-16488Y74247D01*
X-16531Y74252D01*
X-16574Y74261D01*
X-16617Y74275D01*
X-16661Y74292D01*
X-16706Y74315D01*
X-16753Y74344D01*
X-16802Y74379D01*
X-16853Y74421D01*
X-16914Y74479D01*
X-16952Y74493D01*
X-19197Y76738D01*
Y83731D01*
X-18975Y83953D01*
X-18937Y83968D01*
X-18875Y84026D01*
X-18823Y84069D01*
X-18773Y84106D01*
X-18724Y84136D01*
X-18677Y84162D01*
X-18631Y84182D01*
X-18585Y84197D01*
X-18540Y84209D01*
X-18494Y84216D01*
X-18429Y84222D01*
X-18371Y84252D01*
X-18230D01*
X-17723Y84462D01*
X-17336Y84849D01*
X-17126Y85356D01*
Y85603D01*
X-17095Y85680D01*
X-17095Y85742D01*
X-17091Y85783D01*
X-17084Y85823D01*
X-17072Y85864D01*
X-17056Y85906D01*
X-17035Y85949D01*
X-17008Y85995D01*
X-16974Y86042D01*
X-16933Y86092D01*
X-16876Y86154D01*
X-16875Y86156D01*
X-16872Y86157D01*
X-16859Y86194D01*
X-16432Y86621D01*
X-16258Y86881D01*
X-16197Y87188D01*
X-16197Y87188D01*
Y103757D01*
X-16197Y103757D01*
X-16258Y104064D01*
X-16432Y104324D01*
X-16859Y104751D01*
X-16872Y104788D01*
X-16875Y104789D01*
X-16876Y104791D01*
X-16933Y104852D01*
X-16974Y104903D01*
X-17008Y104950D01*
X-17035Y104996D01*
X-17056Y105039D01*
X-17072Y105081D01*
X-17084Y105122D01*
X-17091Y105162D01*
X-17095Y105203D01*
X-17095Y105265D01*
X-17126Y105341D01*
Y105589D01*
X-17336Y106096D01*
X-17723Y106483D01*
X-18230Y106693D01*
X-18429D01*
X-18499Y106725D01*
X-18563Y106727D01*
X-18606Y106732D01*
X-18649Y106742D01*
X-18692Y106755D01*
X-18736Y106773D01*
X-18781Y106796D01*
X-18828Y106824D01*
X-18877Y106859D01*
X-18927Y106901D01*
X-18989Y106959D01*
X-19027Y106974D01*
X-20197Y108144D01*
Y110360D01*
X-19027Y111530D01*
X-18989Y111545D01*
X-18927Y111603D01*
X-18877Y111644D01*
X-18828Y111680D01*
X-18781Y111708D01*
X-18736Y111731D01*
X-18692Y111749D01*
X-18649Y111762D01*
X-18606Y111771D01*
X-18563Y111777D01*
X-18499Y111779D01*
X-18429Y111811D01*
X-18230D01*
X-17723Y112021D01*
X-17336Y112408D01*
X-17126Y112915D01*
Y113463D01*
X-17336Y113970D01*
X-17723Y114357D01*
X-18230Y114567D01*
D02*
G37*
G36*
X46652Y88504D02*
X46104D01*
X45597Y88294D01*
X45457Y88153D01*
X45384Y88126D01*
X45338Y88083D01*
X45303Y88056D01*
X45267Y88032D01*
X45227Y88011D01*
X45183Y87993D01*
X45135Y87977D01*
X45082Y87964D01*
X45022Y87954D01*
X44957Y87948D01*
X44872Y87946D01*
X44835Y87929D01*
X36126D01*
X35819Y87868D01*
X35558Y87694D01*
X31161Y83296D01*
X30987Y83036D01*
X30926Y82728D01*
Y81464D01*
X30909Y81427D01*
X30906Y81342D01*
X30900Y81277D01*
X30890Y81218D01*
X30877Y81164D01*
X30861Y81116D01*
X30843Y81072D01*
X30822Y81033D01*
X30798Y80996D01*
X30771Y80962D01*
X30728Y80915D01*
X30701Y80842D01*
X30560Y80702D01*
X30350Y80195D01*
Y79647D01*
X30560Y79141D01*
X30701Y79000D01*
X30728Y78927D01*
X30771Y78881D01*
X30798Y78847D01*
X30822Y78810D01*
X30843Y78770D01*
X30861Y78727D01*
X30877Y78678D01*
X30890Y78625D01*
X30900Y78566D01*
X30906Y78500D01*
X30909Y78416D01*
X30926Y78378D01*
Y74061D01*
X27943Y71078D01*
X27590D01*
X27553Y71095D01*
X27468Y71098D01*
X27403Y71104D01*
X27344Y71114D01*
X27290Y71127D01*
X27242Y71143D01*
X27198Y71161D01*
X27158Y71182D01*
X27122Y71206D01*
X27087Y71233D01*
X27041Y71276D01*
X26968Y71303D01*
X26828Y71444D01*
X26321Y71653D01*
X25773D01*
X25267Y71444D01*
X24879Y71056D01*
X24669Y70550D01*
Y70002D01*
X24879Y69495D01*
X25267Y69107D01*
X25773Y68898D01*
X26321D01*
X26828Y69107D01*
X26968Y69248D01*
X27041Y69275D01*
X27087Y69319D01*
X27122Y69345D01*
X27158Y69369D01*
X27198Y69390D01*
X27242Y69409D01*
X27290Y69424D01*
X27344Y69437D01*
X27403Y69447D01*
X27468Y69453D01*
X27553Y69456D01*
X27590Y69473D01*
X28276D01*
X28583Y69534D01*
X28843Y69708D01*
X32296Y73161D01*
X32470Y73421D01*
X32531Y73728D01*
Y78378D01*
X32548Y78416D01*
X32550Y78500D01*
X32557Y78566D01*
X32566Y78625D01*
X32579Y78678D01*
X32595Y78727D01*
X32614Y78770D01*
X32635Y78810D01*
X32658Y78847D01*
X32685Y78881D01*
X32728Y78927D01*
X32756Y79000D01*
X32897Y79141D01*
X33106Y79647D01*
Y80195D01*
X32897Y80702D01*
X32756Y80842D01*
X32728Y80915D01*
X32685Y80962D01*
X32658Y80996D01*
X32635Y81033D01*
X32614Y81072D01*
X32595Y81116D01*
X32579Y81164D01*
X32566Y81218D01*
X32557Y81277D01*
X32550Y81342D01*
X32548Y81427D01*
X32531Y81464D01*
Y82396D01*
X36459Y86323D01*
X44835D01*
X44872Y86306D01*
X44957Y86304D01*
X45022Y86298D01*
X45082Y86288D01*
X45135Y86275D01*
X45183Y86259D01*
X45227Y86241D01*
X45267Y86220D01*
X45303Y86196D01*
X45314Y86187D01*
X45324Y86172D01*
X45347Y86127D01*
X45368Y86079D01*
X45386Y86027D01*
X45401Y85971D01*
X45413Y85910D01*
X45422Y85845D01*
X45428Y85776D01*
X45430Y85690D01*
X45447Y85652D01*
Y54376D01*
X45434Y54355D01*
X45441Y54331D01*
X45430Y54308D01*
X45428Y54225D01*
X45421Y54163D01*
X45411Y54109D01*
X45399Y54063D01*
X45384Y54023D01*
X45367Y53989D01*
X45348Y53959D01*
X45327Y53932D01*
X45302Y53907D01*
X45257Y53870D01*
X45225Y53807D01*
X44954Y53536D01*
X44744Y53030D01*
Y52482D01*
X44954Y51975D01*
X45342Y51588D01*
X45848Y51378D01*
X46396D01*
X46903Y51588D01*
X47290Y51975D01*
X47500Y52482D01*
Y53030D01*
X47290Y53536D01*
X47250Y53576D01*
X47242Y53614D01*
X47203Y53667D01*
X47177Y53709D01*
X47153Y53755D01*
X47132Y53803D01*
X47114Y53855D01*
X47099Y53911D01*
X47087Y53971D01*
X47078Y54036D01*
X47072Y54106D01*
X47070Y54192D01*
X47053Y54230D01*
Y85506D01*
X47065Y85527D01*
X47059Y85551D01*
X47070Y85574D01*
X47072Y85657D01*
X47079Y85719D01*
X47089Y85773D01*
X47102Y85819D01*
X47117Y85859D01*
X47133Y85893D01*
X47152Y85923D01*
X47173Y85950D01*
X47198Y85975D01*
X47243Y86012D01*
X47275Y86075D01*
X47546Y86345D01*
X47756Y86852D01*
Y87400D01*
X47546Y87906D01*
X47159Y88294D01*
X46652Y88504D01*
D02*
G37*
%LPD*%
G36*
X39455Y104626D02*
X39395Y104682D01*
X39331Y104732D01*
X39263Y104776D01*
X39190Y104815D01*
X39113Y104847D01*
X39032Y104874D01*
X38947Y104894D01*
X38857Y104909D01*
X38763Y104918D01*
X38666Y104921D01*
Y105708D01*
X38763Y105711D01*
X38857Y105720D01*
X38947Y105735D01*
X39032Y105756D01*
X39113Y105782D01*
X39190Y105815D01*
X39263Y105853D01*
X39331Y105897D01*
X39395Y105947D01*
X39455Y106004D01*
Y104626D01*
D02*
G37*
G36*
X25974Y78346D02*
X25892Y78343D01*
X25811Y78333D01*
X25731Y78316D01*
X25653Y78292D01*
X25576Y78260D01*
X25499Y78222D01*
X25425Y78176D01*
X25351Y78123D01*
X25278Y78063D01*
X25207Y77996D01*
X24650Y78553D01*
X24717Y78624D01*
X24777Y78697D01*
X24830Y78771D01*
X24876Y78846D01*
X24914Y78922D01*
X24946Y78999D01*
X24970Y79078D01*
X24987Y79157D01*
X24997Y79238D01*
X25000Y79320D01*
X25974Y78346D01*
D02*
G37*
G36*
X20527Y59557D02*
X20460Y59485D01*
X20400Y59413D01*
X20347Y59339D01*
X20301Y59264D01*
X20263Y59188D01*
X20231Y59111D01*
X20207Y59032D01*
X20190Y58952D01*
X20180Y58872D01*
X20177Y58789D01*
X19203Y59764D01*
X19285Y59767D01*
X19366Y59776D01*
X19445Y59794D01*
X19524Y59818D01*
X19601Y59849D01*
X19677Y59888D01*
X19752Y59933D01*
X19826Y59986D01*
X19899Y60046D01*
X19970Y60113D01*
X20527Y59557D01*
D02*
G37*
G36*
X9956Y59412D02*
X10020Y59362D01*
X10088Y59318D01*
X10161Y59280D01*
X10238Y59247D01*
X10319Y59220D01*
X10404Y59200D01*
X10494Y59185D01*
X10588Y59176D01*
X10686Y59173D01*
Y58386D01*
X10588Y58383D01*
X10494Y58374D01*
X10404Y58359D01*
X10319Y58339D01*
X10238Y58312D01*
X10161Y58280D01*
X10088Y58241D01*
X10020Y58197D01*
X9956Y58147D01*
X9896Y58091D01*
Y59469D01*
X9956Y59412D01*
D02*
G37*
G36*
X1069Y106594D02*
X1009Y106650D01*
X945Y106701D01*
X876Y106745D01*
X804Y106783D01*
X727Y106816D01*
X646Y106842D01*
X560Y106863D01*
X471Y106878D01*
X377Y106886D01*
X279Y106889D01*
Y107677D01*
X377Y107680D01*
X471Y107689D01*
X560Y107703D01*
X646Y107724D01*
X727Y107751D01*
X804Y107783D01*
X876Y107822D01*
X945Y107866D01*
X1009Y107916D01*
X1069Y107972D01*
Y106594D01*
D02*
G37*
G36*
X-12132Y89862D02*
X-12192Y89918D01*
X-12256Y89969D01*
X-12325Y90013D01*
X-12397Y90051D01*
X-12474Y90084D01*
X-12555Y90110D01*
X-12641Y90131D01*
X-12730Y90146D01*
X-12824Y90154D01*
X-12922Y90158D01*
Y90945D01*
X-12824Y90948D01*
X-12730Y90957D01*
X-12641Y90971D01*
X-12555Y90992D01*
X-12474Y91019D01*
X-12397Y91051D01*
X-12325Y91090D01*
X-12256Y91134D01*
X-12192Y91184D01*
X-12132Y91240D01*
Y89862D01*
D02*
G37*
G36*
X-8856Y105223D02*
X-8846Y105142D01*
X-8829Y105062D01*
X-8804Y104984D01*
X-8773Y104907D01*
X-8734Y104831D01*
X-8689Y104755D01*
X-8636Y104682D01*
X-8576Y104609D01*
X-8509Y104538D01*
X-9065Y103981D01*
X-9137Y104048D01*
X-9209Y104108D01*
X-9283Y104161D01*
X-9358Y104207D01*
X-9434Y104245D01*
X-9511Y104277D01*
X-9590Y104301D01*
X-9670Y104318D01*
X-9751Y104328D01*
X-9833Y104331D01*
X-8858Y105305D01*
X-8856Y105223D01*
D02*
G37*
G36*
Y101286D02*
X-8846Y101205D01*
X-8829Y101125D01*
X-8804Y101047D01*
X-8773Y100969D01*
X-8734Y100893D01*
X-8689Y100818D01*
X-8636Y100744D01*
X-8576Y100672D01*
X-8509Y100601D01*
X-9065Y100044D01*
X-9137Y100111D01*
X-9209Y100171D01*
X-9283Y100224D01*
X-9358Y100270D01*
X-9434Y100308D01*
X-9511Y100339D01*
X-9590Y100364D01*
X-9670Y100381D01*
X-9751Y100391D01*
X-9833Y100393D01*
X-8858Y101368D01*
X-8856Y101286D01*
D02*
G37*
G36*
X2404Y94709D02*
X2354Y94645D01*
X2310Y94577D01*
X2272Y94504D01*
X2239Y94427D01*
X2213Y94346D01*
X2192Y94261D01*
X2177Y94171D01*
X2168Y94077D01*
X2165Y93980D01*
X1378D01*
X1375Y94077D01*
X1366Y94171D01*
X1351Y94261D01*
X1331Y94346D01*
X1304Y94427D01*
X1272Y94504D01*
X1233Y94577D01*
X1189Y94645D01*
X1139Y94709D01*
X1083Y94769D01*
X2461D01*
X2404Y94709D01*
D02*
G37*
G36*
X8901Y88213D02*
X8850Y88149D01*
X8806Y88081D01*
X8768Y88008D01*
X8735Y87931D01*
X8709Y87850D01*
X8688Y87765D01*
X8673Y87675D01*
X8664Y87581D01*
X8661Y87483D01*
X7874D01*
X7871Y87581D01*
X7862Y87675D01*
X7847Y87765D01*
X7827Y87850D01*
X7800Y87931D01*
X7768Y88008D01*
X7729Y88081D01*
X7685Y88149D01*
X7635Y88213D01*
X7579Y88273D01*
X8957D01*
X8901Y88213D01*
D02*
G37*
G36*
X-1510Y58091D02*
X-1570Y58147D01*
X-1634Y58197D01*
X-1703Y58241D01*
X-1775Y58280D01*
X-1852Y58312D01*
X-1933Y58339D01*
X-2018Y58359D01*
X-2108Y58374D01*
X-2202Y58383D01*
X-2300Y58386D01*
Y59173D01*
X-2202Y59176D01*
X-2108Y59185D01*
X-2018Y59200D01*
X-1933Y59220D01*
X-1852Y59247D01*
X-1775Y59280D01*
X-1703Y59318D01*
X-1634Y59362D01*
X-1570Y59412D01*
X-1510Y59469D01*
Y58091D01*
D02*
G37*
G36*
X-10044Y59412D02*
X-9980Y59362D01*
X-9911Y59318D01*
X-9839Y59280D01*
X-9762Y59247D01*
X-9681Y59220D01*
X-9596Y59200D01*
X-9506Y59185D01*
X-9412Y59176D01*
X-9314Y59173D01*
Y58386D01*
X-9412Y58383D01*
X-9506Y58374D01*
X-9596Y58359D01*
X-9681Y58339D01*
X-9762Y58312D01*
X-9839Y58280D01*
X-9911Y58241D01*
X-9980Y58197D01*
X-10044Y58147D01*
X-10104Y58091D01*
Y59469D01*
X-10044Y59412D01*
D02*
G37*
G36*
X40416Y56660D02*
X40489Y56600D01*
X40563Y56547D01*
X40637Y56502D01*
X40714Y56463D01*
X40791Y56432D01*
X40870Y56408D01*
X40949Y56391D01*
X41030Y56381D01*
X41112Y56378D01*
X40138Y55404D01*
X40135Y55486D01*
X40125Y55567D01*
X40108Y55646D01*
X40084Y55725D01*
X40053Y55802D01*
X40014Y55878D01*
X39968Y55953D01*
X39915Y56027D01*
X39855Y56099D01*
X39788Y56171D01*
X40345Y56727D01*
X40416Y56660D01*
D02*
G37*
G36*
X36755Y54631D02*
X36705Y54567D01*
X36660Y54498D01*
X36622Y54426D01*
X36590Y54349D01*
X36563Y54268D01*
X36542Y54182D01*
X36528Y54093D01*
X36519Y53999D01*
X36516Y53901D01*
X35728D01*
X35725Y53999D01*
X35717Y54093D01*
X35702Y54182D01*
X35681Y54268D01*
X35655Y54349D01*
X35622Y54426D01*
X35584Y54498D01*
X35539Y54567D01*
X35489Y54631D01*
X35433Y54691D01*
X36811D01*
X36755Y54631D01*
D02*
G37*
G36*
X-18514Y112205D02*
X-18596Y112202D01*
X-18677Y112192D01*
X-18756Y112175D01*
X-18835Y112151D01*
X-18912Y112119D01*
X-18988Y112081D01*
X-19063Y112035D01*
X-19137Y111982D01*
X-19210Y111922D01*
X-19281Y111855D01*
X-19838Y112412D01*
X-19771Y112483D01*
X-19711Y112556D01*
X-19658Y112629D01*
X-19612Y112705D01*
X-19573Y112781D01*
X-19542Y112858D01*
X-19518Y112936D01*
X-19501Y113016D01*
X-19491Y113097D01*
X-19488Y113179D01*
X-18514Y112205D01*
D02*
G37*
G36*
X-19210Y106582D02*
X-19137Y106522D01*
X-19063Y106469D01*
X-18988Y106423D01*
X-18912Y106385D01*
X-18835Y106353D01*
X-18756Y106329D01*
X-18677Y106312D01*
X-18596Y106302D01*
X-18514Y106299D01*
X-19488Y105325D01*
X-19491Y105407D01*
X-19501Y105488D01*
X-19518Y105568D01*
X-19542Y105646D01*
X-19573Y105723D01*
X-19612Y105799D01*
X-19658Y105874D01*
X-19711Y105948D01*
X-19771Y106021D01*
X-19838Y106092D01*
X-19281Y106649D01*
X-19210Y106582D01*
D02*
G37*
G36*
X-17521Y105185D02*
X-17514Y105104D01*
X-17499Y105025D01*
X-17477Y104946D01*
X-17447Y104869D01*
X-17410Y104793D01*
X-17365Y104718D01*
X-17313Y104644D01*
X-17253Y104571D01*
X-17186Y104499D01*
X-17767Y103966D01*
X-17838Y104034D01*
X-17910Y104094D01*
X-17984Y104147D01*
X-18058Y104194D01*
X-18134Y104234D01*
X-18212Y104267D01*
X-18290Y104293D01*
X-18370Y104313D01*
X-18451Y104325D01*
X-18533Y104331D01*
X-17521Y105267D01*
X-17521Y105185D01*
D02*
G37*
G36*
X-17186Y86445D02*
X-17253Y86374D01*
X-17313Y86301D01*
X-17365Y86227D01*
X-17410Y86152D01*
X-17447Y86076D01*
X-17477Y85999D01*
X-17499Y85920D01*
X-17514Y85841D01*
X-17521Y85760D01*
X-17521Y85678D01*
X-18533Y86614D01*
X-18451Y86620D01*
X-18370Y86632D01*
X-18290Y86652D01*
X-18212Y86678D01*
X-18134Y86711D01*
X-18058Y86751D01*
X-17984Y86797D01*
X-17910Y86851D01*
X-17838Y86911D01*
X-17767Y86978D01*
X-17186Y86445D01*
D02*
G37*
G36*
X-18464Y84646D02*
X-18546Y84640D01*
X-18627Y84626D01*
X-18707Y84606D01*
X-18785Y84579D01*
X-18862Y84546D01*
X-18938Y84506D01*
X-19013Y84459D01*
X-19086Y84405D01*
X-19158Y84345D01*
X-19229Y84277D01*
X-19817Y84804D01*
X-19750Y84875D01*
X-19690Y84948D01*
X-19638Y85022D01*
X-19593Y85097D01*
X-19557Y85173D01*
X-19527Y85250D01*
X-19506Y85329D01*
X-19492Y85408D01*
X-19485Y85489D01*
X-19486Y85571D01*
X-18464Y84646D01*
D02*
G37*
G36*
X-17135Y74101D02*
X-17062Y74041D01*
X-16989Y73988D01*
X-16914Y73943D01*
X-16838Y73904D01*
X-16760Y73873D01*
X-16682Y73849D01*
X-16602Y73831D01*
X-16521Y73822D01*
X-16439Y73819D01*
X-17413Y72844D01*
X-17416Y72927D01*
X-17426Y73008D01*
X-17443Y73087D01*
X-17467Y73166D01*
X-17499Y73243D01*
X-17537Y73319D01*
X-17583Y73394D01*
X-17636Y73468D01*
X-17696Y73540D01*
X-17763Y73612D01*
X-17206Y74168D01*
X-17135Y74101D01*
D02*
G37*
G36*
X45675Y86509D02*
X46970Y86339D01*
X46908Y86288D01*
X46852Y86231D01*
X46803Y86169D01*
X46761Y86102D01*
X46725Y86029D01*
X46696Y85951D01*
X46673Y85868D01*
X46657Y85780D01*
X46647Y85686D01*
X46644Y85588D01*
X45856Y85701D01*
X45854Y85798D01*
X45846Y85892D01*
X45834Y85983D01*
X45816Y86069D01*
X45793Y86153D01*
X45765Y86233D01*
X45732Y86310D01*
X45695Y86383D01*
X45652Y86452D01*
X45636Y86473D01*
X45615Y86493D01*
X45551Y86543D01*
X45482Y86588D01*
X45410Y86626D01*
X45333Y86659D01*
X45252Y86685D01*
X45167Y86706D01*
X45077Y86721D01*
X44983Y86729D01*
X44885Y86732D01*
Y87520D01*
X44983Y87523D01*
X45077Y87532D01*
X45167Y87546D01*
X45252Y87567D01*
X45333Y87594D01*
X45410Y87626D01*
X45482Y87664D01*
X45551Y87709D01*
X45615Y87759D01*
X45675Y87815D01*
Y86509D01*
D02*
G37*
G36*
X32125Y81316D02*
X32134Y81222D01*
X32149Y81133D01*
X32169Y81047D01*
X32196Y80966D01*
X32228Y80889D01*
X32267Y80817D01*
X32311Y80748D01*
X32361Y80684D01*
X32417Y80624D01*
X31039D01*
X31095Y80684D01*
X31146Y80748D01*
X31190Y80817D01*
X31228Y80889D01*
X31261Y80966D01*
X31287Y81047D01*
X31308Y81133D01*
X31323Y81222D01*
X31332Y81316D01*
X31335Y81414D01*
X32122D01*
X32125Y81316D01*
D02*
G37*
G36*
X32361Y79158D02*
X32311Y79094D01*
X32267Y79026D01*
X32228Y78953D01*
X32196Y78876D01*
X32169Y78795D01*
X32149Y78710D01*
X32134Y78620D01*
X32125Y78527D01*
X32122Y78429D01*
X31335D01*
X31332Y78527D01*
X31323Y78620D01*
X31308Y78710D01*
X31287Y78795D01*
X31261Y78876D01*
X31228Y78953D01*
X31190Y79026D01*
X31146Y79094D01*
X31095Y79158D01*
X31039Y79218D01*
X32417D01*
X32361Y79158D01*
D02*
G37*
G36*
X26810Y70908D02*
X26874Y70858D01*
X26943Y70814D01*
X27015Y70776D01*
X27092Y70743D01*
X27173Y70717D01*
X27259Y70696D01*
X27348Y70681D01*
X27442Y70672D01*
X27540Y70669D01*
Y69882D01*
X27442Y69879D01*
X27348Y69870D01*
X27259Y69855D01*
X27173Y69835D01*
X27092Y69808D01*
X27015Y69776D01*
X26943Y69737D01*
X26874Y69693D01*
X26810Y69643D01*
X26750Y69587D01*
Y70965D01*
X26810Y70908D01*
D02*
G37*
G36*
X46644Y54181D02*
X46646Y54084D01*
X46654Y53990D01*
X46666Y53899D01*
X46684Y53812D01*
X46707Y53729D01*
X46735Y53649D01*
X46768Y53572D01*
X46806Y53499D01*
X46848Y53430D01*
X46897Y53363D01*
X45530Y53542D01*
X45592Y53594D01*
X45648Y53651D01*
X45697Y53713D01*
X45739Y53780D01*
X45775Y53853D01*
X45804Y53931D01*
X45827Y54014D01*
X45843Y54102D01*
X45853Y54195D01*
X45856Y54294D01*
X46644Y54181D01*
D02*
G37*
D10*
X33500Y56365D02*
X34833Y57697D01*
X38819D02*
X41122Y55394D01*
X34833Y57697D02*
X38819D01*
X33500Y53181D02*
Y56365D01*
X32500Y52181D02*
X33500Y53181D01*
X5125Y52181D02*
X32500D01*
X2953Y54353D02*
X5125Y52181D01*
X-2780Y58780D02*
X-807D01*
X-5000Y61000D02*
X-2780Y58780D01*
X1772Y53864D02*
Y95472D01*
X-5000Y61000D02*
Y100472D01*
X2953Y54353D02*
Y80953D01*
X8268Y86268D01*
Y88976D01*
X1772Y53864D02*
X4635Y51000D01*
X35000D01*
X36122Y52122D02*
Y55394D01*
X35000Y51000D02*
X36122Y52122D01*
X31728Y79921D02*
Y82728D01*
X36126Y87126D02*
X46378D01*
X31728Y82728D02*
X36126Y87126D01*
X-13051Y90551D02*
X-11429D01*
X-14000Y91500D02*
Y110000D01*
Y91500D02*
X-13051Y90551D01*
X-14000Y110000D02*
X-11500Y112500D01*
X-6000D01*
X-783Y107283D01*
X1772D01*
X33268Y0D02*
Y3232D01*
X-6500Y61000D02*
Y98035D01*
X-8721Y58780D02*
X-6500Y61000D01*
X-10807Y58780D02*
X-8721D01*
X-9843Y105315D02*
X-5000Y100472D01*
X-9843Y101378D02*
X-6500Y98035D01*
X32000Y88000D02*
Y101500D01*
X21319Y63819D02*
Y77319D01*
X32000Y88000D01*
X22500Y75846D02*
X25984Y79330D01*
X22500Y62087D02*
Y75846D01*
X9193Y58780D02*
X16280D01*
X21319Y63819D01*
X19193Y58780D02*
X19193D01*
X22500Y62087D01*
X35815Y105315D02*
X40158D01*
X32000Y101500D02*
X35815Y105315D01*
X39000Y25500D02*
X41122Y23378D01*
X-13500Y25500D02*
X39000D01*
X-15819Y21511D02*
X-13011Y24319D01*
X33681D02*
X36122Y21878D01*
X-13011Y24319D02*
X33681D01*
X-17000Y22000D02*
X-13500Y25500D01*
X36122Y19409D02*
Y21878D01*
X-17000Y8500D02*
Y22000D01*
X-15819Y8989D02*
Y21511D01*
Y8989D02*
X-13511Y6681D01*
X-17000Y8500D02*
X-14000Y5500D01*
X11830D01*
X-13511Y6681D02*
X12319D01*
X12000Y-2500D02*
X15500D01*
X11220Y-1720D02*
Y0D01*
Y-1720D02*
X12000Y-2500D01*
X15500D02*
X16500Y-1500D01*
Y2500D01*
X11830Y5500D02*
X14370Y2960D01*
Y0D02*
Y2960D01*
X12319Y6681D02*
X16500Y2500D01*
X41122Y19409D02*
Y23378D01*
X46122Y52756D02*
X46250Y52884D01*
Y86998D02*
X46378Y87126D01*
X46250Y52884D02*
Y86998D01*
X-20000Y76406D02*
X-16429Y72835D01*
X-20000Y84064D02*
X-18504Y85560D01*
Y85630D01*
X-20000Y76406D02*
Y84064D01*
X31728Y73728D02*
Y79921D01*
X28276Y70276D02*
X31728Y73728D01*
X26047Y70276D02*
X28276D01*
X-18504Y85630D02*
Y85684D01*
X-17000Y87188D01*
Y103757D01*
X-18504Y105261D02*
Y105315D01*
Y105261D02*
X-17000Y103757D01*
X-21000Y107811D02*
X-18504Y105315D01*
X-21000Y110693D02*
X-18504Y113189D01*
X-21000Y107811D02*
Y110693D01*
X19193Y17307D02*
Y21457D01*
X10138Y16362D02*
X18467D01*
X17489Y14000D02*
X23819Y7670D01*
X1319Y15181D02*
X17978D01*
X19193Y17307D02*
X33268Y3232D01*
X30118Y0D02*
Y4712D01*
X18467Y16362D02*
X30118Y4712D01*
X23819Y0D02*
Y7670D01*
X26969Y0D02*
Y6191D01*
X-7500Y14000D02*
X17489D01*
X17978Y15181D02*
X26969Y6191D01*
X-10807Y17307D02*
X-7500Y14000D01*
X9193Y17307D02*
X10138Y16362D01*
X-807Y17307D02*
X1319Y15181D01*
X9193Y17307D02*
Y21457D01*
X-10807Y17307D02*
Y21457D01*
X-807Y17307D02*
Y21457D01*
D11*
X68898Y-197D02*
G03*
X65748Y-3347I0J-3150D01*
G01*
X-35433D02*
G03*
X-38583Y-197I-3150J0D01*
G01*
X2953Y0D02*
G03*
X-2953Y0I-2953J0D01*
G01*
X68898Y-197D02*
G03*
X65748Y-3347I0J-3150D01*
G01*
X-35433D02*
G03*
X-38583Y-197I-3150J0D01*
G01*
X2953Y0D02*
G03*
X-2953Y0I-2953J0D01*
G01*
X-35433Y-12795D02*
X-2953D01*
X65748D02*
Y-3347D01*
X68898Y-197D02*
X74213D01*
X-43898D02*
X-38583D01*
X2953Y-12795D02*
Y0D01*
X-2953Y-12795D02*
Y0D01*
X-35433Y-12795D02*
Y-3347D01*
X2953Y-12795D02*
X65748D01*
X-43898Y187795D02*
X74213D01*
X-35433Y-12795D02*
Y-3347D01*
X74213Y-197D02*
Y187795D01*
X-2953Y-12795D02*
Y0D01*
X65748Y-12795D02*
Y-3347D01*
X2953Y-12795D02*
Y0D01*
X-35433Y-12795D02*
X-2953D01*
X2953D02*
X65748D01*
X68898Y-197D02*
X74213D01*
X-43898D02*
X-38583D01*
X-43898D02*
Y187795D01*
D13*
X3557Y90762D02*
X26757D01*
X3557Y113962D02*
X26757D01*
X3557Y90762D02*
Y113962D01*
X26757Y90762D02*
Y113962D01*
X15157Y101181D02*
Y103543D01*
X13976Y102362D02*
X16339D01*
X3557Y113962D02*
X26757D01*
Y90762D02*
Y113962D01*
X3557Y90762D02*
X26757D01*
X3557D02*
Y113962D01*
D14*
X-1181Y10433D02*
X31496D01*
Y60433D01*
X-1181D02*
X31496D01*
X-1181Y10433D02*
Y60433D01*
X-12905Y113189D02*
X-9953D01*
Y119095D01*
X-12905Y113189D02*
Y119095D01*
X-9953D01*
X-17906Y113189D02*
X-14953D01*
Y119095D01*
X-17906Y113189D02*
Y119095D01*
X-14953D01*
X22724Y80709D02*
Y112205D01*
X-20583Y80709D02*
Y112205D01*
X22724D01*
X-20583Y80709D02*
X22724D01*
X17095Y73819D02*
X20047D01*
Y79724D01*
X17095Y73819D02*
Y79724D01*
X20047D01*
X7095Y73819D02*
X10047D01*
Y79724D01*
X7095Y73819D02*
Y79724D01*
X10047D01*
X-2905Y73819D02*
X47D01*
Y79724D01*
X-2905Y73819D02*
Y79724D01*
X47D01*
X-17906D02*
X-14953D01*
X-17906Y73819D02*
Y79724D01*
X-14953Y73819D02*
Y79724D01*
X-17906Y73819D02*
X-14953D01*
X58465Y141732D02*
Y190945D01*
X-28150Y141732D02*
Y190945D01*
Y141732D02*
X58465D01*
X-28150Y190945D02*
X58465D01*
X39591Y130709D02*
Y137008D01*
Y130709D02*
X50614D01*
X39591Y137008D02*
X50614D01*
Y130709D02*
Y137008D01*
X42150Y126476D02*
Y129429D01*
X48055Y126476D02*
Y129429D01*
X42150Y126476D02*
X48055D01*
X42150Y129429D02*
X48055D01*
X9646Y130709D02*
Y137008D01*
Y130709D02*
X20669D01*
X9646Y137008D02*
X20669D01*
Y130709D02*
Y137008D01*
X12205Y126476D02*
Y129429D01*
X18110Y126476D02*
Y129429D01*
X12205Y126476D02*
X18110D01*
X12205Y129429D02*
X18110D01*
X-19882Y130709D02*
Y137008D01*
Y130709D02*
X-8858D01*
X-19882Y137008D02*
X-8858D01*
Y130709D02*
Y137008D01*
X-17323Y126476D02*
Y129429D01*
X-11417Y126476D02*
Y129429D01*
X-17323Y126476D02*
X-11417D01*
X-17323Y129429D02*
X-11417D01*
X32791Y78445D02*
Y81398D01*
X38697Y78445D02*
Y81398D01*
X32791Y78445D02*
X38697D01*
X32791Y81398D02*
X38697D01*
X46571Y78445D02*
Y81398D01*
X40665D02*
X46571D01*
X40665Y78445D02*
X46571D01*
X40665D02*
Y81398D01*
X-11417Y111713D02*
Y114665D01*
X-17323Y111713D02*
X-11417D01*
X-17323Y114665D02*
X-11417D01*
X-17323Y111713D02*
Y114665D01*
X-17323Y107776D02*
Y110728D01*
X-11417D01*
X-17323Y107776D02*
X-11417D01*
Y110728D01*
Y92028D02*
Y94980D01*
X-17323Y92028D02*
X-11417D01*
X-17323Y94980D02*
X-11417D01*
X-17323Y92028D02*
Y94980D01*
X41732Y107776D02*
Y110728D01*
X47638D01*
X41732Y107776D02*
X47638D01*
Y110728D01*
X41732Y95965D02*
Y98917D01*
X47638D01*
X41732Y95965D02*
X47638D01*
Y98917D01*
X-17284Y54134D02*
X-14331D01*
X-17284D02*
Y60039D01*
X-14331Y54134D02*
Y60039D01*
X-17284D02*
X-14331D01*
X-7283Y54134D02*
X-4331D01*
X-7283D02*
Y60039D01*
X-4331Y54134D02*
Y60039D01*
X-7283D02*
X-4331D01*
X2716Y54134D02*
X5669D01*
X2716D02*
Y60039D01*
X5669Y54134D02*
Y60039D01*
X2716D02*
X5669D01*
X12717Y54134D02*
X15669D01*
X12717D02*
Y60039D01*
X15669Y54134D02*
Y60039D01*
X12717D02*
X15669D01*
X-17284Y14764D02*
X-14331D01*
X-17284D02*
Y20669D01*
X-14331Y14764D02*
Y20669D01*
X-17284D02*
X-14331D01*
X-7283Y14764D02*
X-4331D01*
X-7283D02*
Y20669D01*
X-4331Y14764D02*
Y20669D01*
X-7283D02*
X-4331D01*
X2716Y14764D02*
X5669D01*
X2716D02*
Y20669D01*
X5669Y14764D02*
Y20669D01*
X2716D02*
X5669D01*
X12717Y14764D02*
X15669D01*
X12717D02*
Y20669D01*
X15669Y14764D02*
Y20669D01*
X12717D02*
X15669D01*
X41732Y143815D02*
Y146768D01*
X47638D01*
X41732Y143815D02*
X47638D01*
Y146768D01*
X27953Y140256D02*
Y143209D01*
X22047Y140256D02*
X27953D01*
X22047Y143209D02*
X27953D01*
X22047Y140256D02*
Y143209D01*
X37795Y140256D02*
Y143209D01*
X31890Y140256D02*
X37795D01*
X31890Y143209D02*
X37795D01*
X31890Y140256D02*
Y143209D01*
X-17520Y147244D02*
X-11220D01*
Y136221D02*
Y147244D01*
X-17520Y136221D02*
Y147244D01*
Y136221D02*
X-11220D01*
X-7677Y147244D02*
X-1378D01*
Y136221D02*
Y147244D01*
X-7677Y136221D02*
Y147244D01*
Y136221D02*
X-1378D01*
X2165Y147244D02*
X8465D01*
Y136221D02*
Y147244D01*
X2165Y136221D02*
Y147244D01*
Y136221D02*
X8465D01*
X2362Y124508D02*
Y127461D01*
X8268D01*
X2362Y124508D02*
X8268D01*
Y127461D01*
X-7480Y124508D02*
Y127461D01*
X-1575D01*
X-7480Y124508D02*
X-1575D01*
Y127461D01*
X-17323Y124508D02*
Y127461D01*
X-11417D01*
X-17323Y124508D02*
X-11417D01*
Y127461D01*
Y99902D02*
Y102854D01*
X-17323Y99902D02*
X-11417D01*
X-17323Y102854D02*
X-11417D01*
X-17323Y99902D02*
Y102854D01*
X24508Y77756D02*
X27461D01*
Y71850D02*
Y77756D01*
X24508Y71850D02*
Y77756D01*
Y71850D02*
X27461D01*
X-11417Y103839D02*
Y106791D01*
X-17323Y103839D02*
X-11417D01*
X-17323Y106791D02*
X-11417D01*
X-17323Y103839D02*
Y106791D01*
X41732Y103839D02*
Y106791D01*
X47638D01*
X41732Y103839D02*
X47638D01*
Y106791D01*
X20571Y71850D02*
X23524D01*
X20571D02*
Y77756D01*
X23524Y71850D02*
Y77756D01*
X20571D02*
X23524D01*
X47638Y111713D02*
Y114665D01*
X41732Y111713D02*
X47638D01*
X41732Y114665D02*
X47638D01*
X41732Y111713D02*
Y114665D01*
X47638Y92028D02*
Y94980D01*
X41732Y92028D02*
X47638D01*
X41732Y94980D02*
X47638D01*
X41732Y92028D02*
Y94980D01*
X47638Y99902D02*
Y102854D01*
X41732Y99902D02*
X47638D01*
X41732Y102854D02*
X47638D01*
X41732Y99902D02*
Y102854D01*
X47638Y88090D02*
Y91043D01*
X41732Y88090D02*
X47638D01*
X41732Y91043D02*
X47638D01*
X41732Y88090D02*
Y91043D01*
X-17323Y95965D02*
Y98917D01*
X-11417D01*
X-17323Y95965D02*
X-11417D01*
Y98917D01*
X-19961Y22441D02*
Y53937D01*
X23346Y22441D02*
Y53937D01*
X-19961D02*
X23346D01*
X-19961Y22441D02*
X23346D01*
X28780Y53150D02*
X48465D01*
X28780Y21654D02*
X48465D01*
X28780D02*
Y53150D01*
X48465Y21654D02*
Y53150D01*
X47638Y140256D02*
Y143209D01*
X41732Y140256D02*
X47638D01*
X41732Y143209D02*
X47638D01*
X41732Y140256D02*
Y143209D01*
X47638Y132382D02*
Y135335D01*
X41732Y132382D02*
X47638D01*
X41732Y135335D02*
X47638D01*
X41732Y132382D02*
Y135335D01*
X37795Y132382D02*
Y135335D01*
X31890Y132382D02*
X37795D01*
X31890Y135335D02*
X37795D01*
X31890Y132382D02*
Y135335D01*
Y143815D02*
Y146768D01*
X37795D01*
X31890Y143815D02*
X37795D01*
Y146768D01*
X27953Y132382D02*
Y135335D01*
X22047Y132382D02*
X27953D01*
X22047Y135335D02*
X27953D01*
X22047Y132382D02*
Y135335D01*
Y143815D02*
Y146768D01*
X27953D01*
X22047Y143815D02*
X27953D01*
Y146768D01*
X7087Y78740D02*
X16535D01*
X7087Y70866D02*
X16535D01*
X7087D02*
Y78740D01*
X16535Y70866D02*
Y78740D01*
X15157Y34449D02*
Y36417D01*
X14173Y35433D02*
X16142D01*
X-2165Y9449D02*
Y17402D01*
X32480Y53465D02*
Y61417D01*
X-2165D02*
X32480D01*
X-2165Y9449D02*
X32480D01*
Y17402D01*
X-2165Y53425D02*
Y61417D01*
X-9843Y53425D02*
X-2165D01*
X32480Y17402D02*
X40157D01*
X-9843D02*
Y53425D01*
X40157Y17402D02*
Y53465D01*
X-9843Y17402D02*
X-2165D01*
X32480Y53465D02*
X40157D01*
X-12905Y113189D02*
X-9953D01*
X-12905Y119095D02*
X-9953D01*
Y113189D02*
Y119095D01*
X-12905Y113189D02*
Y119095D01*
X-11429Y115157D02*
Y117126D01*
X-12413Y116142D02*
X-10445D01*
X-17906Y113189D02*
X-14953D01*
X-17906Y119095D02*
X-14953D01*
Y113189D02*
Y119095D01*
X-17906Y113189D02*
Y119095D01*
X-16429Y115157D02*
Y117126D01*
X-17413Y116142D02*
X-15445D01*
X1071Y95472D02*
Y97441D01*
X87Y96457D02*
X2055D01*
X-20583Y80709D02*
X22724D01*
Y112205D01*
X-20583Y80709D02*
Y112205D01*
X22724D01*
X17095Y73819D02*
X20047D01*
X17095Y79724D02*
X20047D01*
Y73819D02*
Y79724D01*
X17095Y73819D02*
Y79724D01*
X18571Y75787D02*
Y77756D01*
X17587Y76772D02*
X19555D01*
X7095Y73819D02*
X10047D01*
X7095Y79724D02*
X10047D01*
Y73819D02*
Y79724D01*
X7095Y73819D02*
Y79724D01*
X8571Y75787D02*
Y77756D01*
X7587Y76772D02*
X9555D01*
X-2905Y73819D02*
X47D01*
X-2905Y79724D02*
X47D01*
Y73819D02*
Y79724D01*
X-2905Y73819D02*
Y79724D01*
X-1429Y75787D02*
Y77756D01*
X-2413Y76772D02*
X-445D01*
X-17906Y79724D02*
X-14953D01*
X-17906Y73819D02*
X-14953D01*
X-17906D02*
Y79724D01*
X-14953Y73819D02*
Y79724D01*
X-16429Y75787D02*
Y77756D01*
X-17413Y76772D02*
X-15445D01*
X-28150Y141732D02*
X58465D01*
X-28150D02*
Y190945D01*
X58465D01*
Y141732D02*
Y190945D01*
X15157Y152559D02*
Y154528D01*
X14173Y153543D02*
X16142D01*
X45102Y132874D02*
Y134843D01*
X44118Y133858D02*
X46087D01*
X39591Y130709D02*
X50614D01*
X39591Y137008D02*
X50614D01*
X39591Y130709D02*
Y137008D01*
X50614Y130709D02*
Y137008D01*
X42150Y126476D02*
X48055D01*
X42150Y129429D02*
X48055D01*
X42150Y126476D02*
Y129429D01*
X48055Y126476D02*
Y129429D01*
X45102Y126969D02*
Y128937D01*
X44118Y127953D02*
X46087D01*
X15157Y132874D02*
Y134843D01*
X14173Y133858D02*
X16142D01*
X9646Y130709D02*
X20669D01*
X9646Y137008D02*
X20669D01*
X9646Y130709D02*
Y137008D01*
X20669Y130709D02*
Y137008D01*
X12205Y126476D02*
X18110D01*
X12205Y129429D02*
X18110D01*
X12205Y126476D02*
Y129429D01*
X18110Y126476D02*
Y129429D01*
X15157Y126969D02*
Y128937D01*
X14173Y127953D02*
X16142D01*
X-14370Y132874D02*
Y134843D01*
X-15354Y133858D02*
X-13386D01*
X-19882Y130709D02*
X-8858D01*
X-19882Y137008D02*
X-8858D01*
X-19882Y130709D02*
Y137008D01*
X-8858Y130709D02*
Y137008D01*
X-17323Y126476D02*
X-11417D01*
X-17323Y129429D02*
X-11417D01*
X-17323Y126476D02*
Y129429D01*
X-11417Y126476D02*
Y129429D01*
X-14370Y126969D02*
Y128937D01*
X-15354Y127953D02*
X-13386D01*
X32791Y78445D02*
X38697D01*
X32791Y81398D02*
X38697D01*
X32791Y78445D02*
Y81398D01*
X38697Y78445D02*
Y81398D01*
X35744Y78937D02*
Y80905D01*
X34760Y79921D02*
X36728D01*
X46571Y78445D02*
Y81398D01*
X40665Y78445D02*
Y81398D01*
X46571D01*
X40665Y78445D02*
X46571D01*
X42634Y79921D02*
X44602D01*
X43618Y78937D02*
Y80905D01*
X-11417Y111713D02*
Y114665D01*
X-17323Y111713D02*
Y114665D01*
Y111713D02*
X-11417D01*
X-17323Y114665D02*
X-11417D01*
X-15354Y113189D02*
X-13386D01*
X-14370Y112205D02*
Y114173D01*
X-17323Y107776D02*
Y110728D01*
X-11417Y107776D02*
Y110728D01*
X-17323D02*
X-11417D01*
X-17323Y107776D02*
X-11417D01*
X-15354Y109252D02*
X-13386D01*
X-14370Y108268D02*
Y110236D01*
X-11417Y92028D02*
Y94980D01*
X-17323Y92028D02*
Y94980D01*
Y92028D02*
X-11417D01*
X-17323Y94980D02*
X-11417D01*
X-15354Y93504D02*
X-13386D01*
X-14370Y92520D02*
Y94488D01*
X41732Y107776D02*
Y110728D01*
X47638Y107776D02*
Y110728D01*
X41732D02*
X47638D01*
X41732Y107776D02*
X47638D01*
X43701Y109252D02*
X45669D01*
X44685Y108268D02*
Y110236D01*
X41732Y95965D02*
Y98917D01*
X47638Y95965D02*
Y98917D01*
X41732D02*
X47638D01*
X41732Y95965D02*
X47638D01*
X43701Y97441D02*
X45669D01*
X44685Y96457D02*
Y98425D01*
X-17284Y54134D02*
X-14331D01*
X-17284Y60039D02*
X-14331D01*
X-17284Y54134D02*
Y60039D01*
X-14331Y54134D02*
Y60039D01*
X-15807Y56102D02*
Y58071D01*
X-16791Y57087D02*
X-14823D01*
X-7283Y54134D02*
X-4331D01*
X-7283Y60039D02*
X-4331D01*
X-7283Y54134D02*
Y60039D01*
X-4331Y54134D02*
Y60039D01*
X-5807Y56102D02*
Y58071D01*
X-6791Y57087D02*
X-4823D01*
X2716Y54134D02*
X5669D01*
X2716Y60039D02*
X5669D01*
X2716Y54134D02*
Y60039D01*
X5669Y54134D02*
Y60039D01*
X4193Y56102D02*
Y58071D01*
X3209Y57087D02*
X5177D01*
X12717Y54134D02*
X15669D01*
X12717Y60039D02*
X15669D01*
X12717Y54134D02*
Y60039D01*
X15669Y54134D02*
Y60039D01*
X14193Y56102D02*
Y58071D01*
X13209Y57087D02*
X15177D01*
X-17284Y14764D02*
X-14331D01*
X-17284Y20669D02*
X-14331D01*
X-17284Y14764D02*
Y20669D01*
X-14331Y14764D02*
Y20669D01*
X-15807Y16732D02*
Y18701D01*
X-16791Y17717D02*
X-14823D01*
X-7283Y14764D02*
X-4331D01*
X-7283Y20669D02*
X-4331D01*
X-7283Y14764D02*
Y20669D01*
X-4331Y14764D02*
Y20669D01*
X-5807Y16732D02*
Y18701D01*
X-6791Y17717D02*
X-4823D01*
X2716Y14764D02*
X5669D01*
X2716Y20669D02*
X5669D01*
X2716Y14764D02*
Y20669D01*
X5669Y14764D02*
Y20669D01*
X4193Y16732D02*
Y18701D01*
X3209Y17717D02*
X5177D01*
X12717Y14764D02*
X15669D01*
X12717Y20669D02*
X15669D01*
X12717Y14764D02*
Y20669D01*
X15669Y14764D02*
Y20669D01*
X14193Y16732D02*
Y18701D01*
X13209Y17717D02*
X15177D01*
X41732Y143815D02*
Y146768D01*
X47638Y143815D02*
Y146768D01*
X41732D02*
X47638D01*
X41732Y143815D02*
X47638D01*
X43701Y145291D02*
X45669D01*
X44685Y144307D02*
Y146276D01*
X27953Y140256D02*
Y143209D01*
X22047Y140256D02*
Y143209D01*
Y140256D02*
X27953D01*
X22047Y143209D02*
X27953D01*
X24016Y141732D02*
X25984D01*
X25000Y140748D02*
Y142717D01*
X37795Y140256D02*
Y143209D01*
X31890Y140256D02*
Y143209D01*
Y140256D02*
X37795D01*
X31890Y143209D02*
X37795D01*
X33858Y141732D02*
X35827D01*
X34843Y140748D02*
Y142717D01*
X-15354Y141732D02*
X-13386D01*
X-14370Y140748D02*
Y142717D01*
X-11220Y136221D02*
Y147244D01*
X-17520Y136221D02*
Y147244D01*
X-11220D01*
X-17520Y136221D02*
X-11220D01*
X-5512Y141732D02*
X-3543D01*
X-4528Y140748D02*
Y142717D01*
X-1378Y136221D02*
Y147244D01*
X-7677Y136221D02*
Y147244D01*
X-1378D01*
X-7677Y136221D02*
X-1378D01*
X4331Y141732D02*
X6299D01*
X5315Y140748D02*
Y142717D01*
X8465Y136221D02*
Y147244D01*
X2165Y136221D02*
Y147244D01*
X8465D01*
X2165Y136221D02*
X8465D01*
X2362Y124508D02*
Y127461D01*
X8268Y124508D02*
Y127461D01*
X2362D02*
X8268D01*
X2362Y124508D02*
X8268D01*
X4331Y125984D02*
X6299D01*
X5315Y125000D02*
Y126969D01*
X-7480Y124508D02*
Y127461D01*
X-1575Y124508D02*
Y127461D01*
X-7480D02*
X-1575D01*
X-7480Y124508D02*
X-1575D01*
X-5512Y125984D02*
X-3543D01*
X-4528Y125000D02*
Y126969D01*
X-17323Y124508D02*
Y127461D01*
X-11417Y124508D02*
Y127461D01*
X-17323D02*
X-11417D01*
X-17323Y124508D02*
X-11417D01*
X-15354Y125984D02*
X-13386D01*
X-14370Y125000D02*
Y126969D01*
X-11417Y99902D02*
Y102854D01*
X-17323Y99902D02*
Y102854D01*
Y99902D02*
X-11417D01*
X-17323Y102854D02*
X-11417D01*
X-15354Y101378D02*
X-13386D01*
X-14370Y100394D02*
Y102362D01*
X24508Y77756D02*
X27461D01*
X24508Y71850D02*
X27461D01*
Y77756D01*
X24508Y71850D02*
Y77756D01*
X25984Y73819D02*
Y75787D01*
X25000Y74803D02*
X26969D01*
X-11417Y103839D02*
Y106791D01*
X-17323Y103839D02*
Y106791D01*
Y103839D02*
X-11417D01*
X-17323Y106791D02*
X-11417D01*
X-15354Y105315D02*
X-13386D01*
X-14370Y104331D02*
Y106299D01*
X41732Y103839D02*
Y106791D01*
X47638Y103839D02*
Y106791D01*
X41732D02*
X47638D01*
X41732Y103839D02*
X47638D01*
X43701Y105315D02*
X45669D01*
X44685Y104331D02*
Y106299D01*
X20571Y71850D02*
X23524D01*
X20571Y77756D02*
X23524D01*
X20571Y71850D02*
Y77756D01*
X23524Y71850D02*
Y77756D01*
X22047Y73819D02*
Y75787D01*
X21063Y74803D02*
X23031D01*
X47638Y111713D02*
Y114665D01*
X41732Y111713D02*
Y114665D01*
Y111713D02*
X47638D01*
X41732Y114665D02*
X47638D01*
X43701Y113189D02*
X45669D01*
X44685Y112205D02*
Y114173D01*
X47638Y92028D02*
Y94980D01*
X41732Y92028D02*
Y94980D01*
Y92028D02*
X47638D01*
X41732Y94980D02*
X47638D01*
X43701Y93504D02*
X45669D01*
X44685Y92520D02*
Y94488D01*
X47638Y99902D02*
Y102854D01*
X41732Y99902D02*
Y102854D01*
Y99902D02*
X47638D01*
X41732Y102854D02*
X47638D01*
X43701Y101378D02*
X45669D01*
X44685Y100394D02*
Y102362D01*
X47638Y88090D02*
Y91043D01*
X41732Y88090D02*
Y91043D01*
Y88090D02*
X47638D01*
X41732Y91043D02*
X47638D01*
X43701Y89567D02*
X45669D01*
X44685Y88583D02*
Y90551D01*
X-17323Y95965D02*
Y98917D01*
X-11417Y95965D02*
Y98917D01*
X-17323D02*
X-11417D01*
X-17323Y95965D02*
X-11417D01*
X-15354Y97441D02*
X-13386D01*
X-14370Y96457D02*
Y98425D01*
X1693Y37205D02*
Y39173D01*
X709Y38189D02*
X2677D01*
X-19961Y22441D02*
X23346D01*
X-19961D02*
Y53937D01*
X23346Y22441D02*
Y53937D01*
X-19961D02*
X23346D01*
X28780Y21654D02*
X48465D01*
X28780D02*
Y53150D01*
X48465Y21654D02*
Y53150D01*
X28780D02*
X48465D01*
X37638Y37402D02*
X39606D01*
X38622Y36417D02*
Y38386D01*
X47638Y140256D02*
Y143209D01*
X41732Y140256D02*
Y143209D01*
Y140256D02*
X47638D01*
X41732Y143209D02*
X47638D01*
X43701Y141732D02*
X45669D01*
X44685Y140748D02*
Y142717D01*
X47638Y132382D02*
Y135335D01*
X41732Y132382D02*
Y135335D01*
Y132382D02*
X47638D01*
X41732Y135335D02*
X47638D01*
X43701Y133858D02*
X45669D01*
X44685Y132874D02*
Y134843D01*
X37795Y132382D02*
Y135335D01*
X31890Y132382D02*
Y135335D01*
Y132382D02*
X37795D01*
X31890Y135335D02*
X37795D01*
X33858Y133858D02*
X35827D01*
X34843Y132874D02*
Y134843D01*
X31890Y143815D02*
Y146768D01*
X37795Y143815D02*
Y146768D01*
X31890D02*
X37795D01*
X31890Y143815D02*
X37795D01*
X33858Y145291D02*
X35827D01*
X34843Y144307D02*
Y146276D01*
X27953Y132382D02*
Y135335D01*
X22047Y132382D02*
Y135335D01*
Y132382D02*
X27953D01*
X22047Y135335D02*
X27953D01*
X24016Y133858D02*
X25984D01*
X25000Y132874D02*
Y134843D01*
X22047Y143815D02*
Y146768D01*
X27953Y143815D02*
Y146768D01*
X22047D02*
X27953D01*
X22047Y143815D02*
X27953D01*
X24016Y145291D02*
X25984D01*
X25000Y144307D02*
Y146276D01*
X10827Y74803D02*
X12795D01*
X11811Y73819D02*
Y75787D01*
X7087Y70866D02*
X16535D01*
X7087Y78740D02*
X16535D01*
Y70866D02*
Y78740D01*
X7087Y70866D02*
Y78740D01*
D15*
X15047Y73819D02*
Y79724D01*
X12094Y73819D02*
Y79724D01*
X15047D01*
X12094Y73819D02*
X15047D01*
X5047D02*
Y79724D01*
X2094Y73819D02*
Y79724D01*
X5047D01*
X2094Y73819D02*
X5047D01*
X-4953D02*
Y79724D01*
X-7905Y73819D02*
Y79724D01*
X-4953D01*
X-7905Y73819D02*
X-4953D01*
X-9953D02*
Y79724D01*
X-12905Y73819D02*
Y79724D01*
X-9953D01*
X-12905Y73819D02*
X-9953D01*
X43307Y31909D02*
X49213D01*
X43307Y28957D02*
X49213D01*
X43307D02*
Y31909D01*
X49213Y28957D02*
Y31909D01*
X43307Y27972D02*
X49213D01*
X43307Y25020D02*
X49213D01*
X43307D02*
Y27972D01*
X49213Y25020D02*
Y27972D01*
X-18701Y48957D02*
X-12795D01*
X-18701Y51910D02*
X-12795D01*
Y48957D02*
Y51910D01*
X-18701Y48957D02*
Y51910D01*
Y45020D02*
X-12795D01*
X-18701Y47972D02*
X-12795D01*
Y45020D02*
Y47972D01*
X-18701Y45020D02*
Y47972D01*
X-17323Y84153D02*
X-11417D01*
X-17323Y87106D02*
X-11417D01*
X-17323Y84153D02*
Y87106D01*
X-11417Y84153D02*
Y87106D01*
X-17323Y80216D02*
X-11417D01*
X-17323Y83169D02*
X-11417D01*
X-17323Y80216D02*
Y83169D01*
X-11417Y80216D02*
Y83169D01*
X19587Y71850D02*
Y77756D01*
X16634Y71850D02*
Y77756D01*
Y71850D02*
X19587D01*
X16634Y77756D02*
X19587D01*
X47598Y54134D02*
Y60039D01*
X44646Y54134D02*
Y60039D01*
Y54134D02*
X47598D01*
X44646Y60039D02*
X47598D01*
X-12284Y14764D02*
Y20669D01*
X-9331Y14764D02*
Y20669D01*
X-12284D02*
X-9331D01*
X-12284Y14764D02*
X-9331D01*
X-2283D02*
Y20669D01*
X669Y14764D02*
Y20669D01*
X-2283D02*
X669D01*
X-2283Y14764D02*
X669D01*
X7717D02*
Y20669D01*
X10669Y14764D02*
Y20669D01*
X7717D02*
X10669D01*
X7717Y14764D02*
X10669D01*
X17717D02*
Y20669D01*
X20669Y14764D02*
Y20669D01*
X17717D02*
X20669D01*
X17717Y14764D02*
X20669D01*
X44646D02*
Y20669D01*
X47598Y14764D02*
Y20669D01*
X44646D02*
X47598D01*
X44646Y14764D02*
X47598D01*
X4035Y71850D02*
Y77756D01*
X6988Y71850D02*
Y77756D01*
X4035D02*
X6988D01*
X4035Y71850D02*
X6988D01*
X22047Y127461D02*
X27953D01*
X22047Y124508D02*
X27953D01*
Y127461D01*
X22047Y124508D02*
Y127461D01*
X31890D02*
X37795D01*
X31890Y124508D02*
X37795D01*
Y127461D01*
X31890Y124508D02*
Y127461D01*
X41732D02*
X47638D01*
X41732Y124508D02*
X47638D01*
Y127461D01*
X41732Y124508D02*
Y127461D01*
X22047Y131398D02*
X27953D01*
X22047Y128445D02*
X27953D01*
Y131398D01*
X22047Y128445D02*
Y131398D01*
X31890D02*
X37795D01*
X31890Y128445D02*
X37795D01*
Y131398D01*
X31890Y128445D02*
Y131398D01*
X41732D02*
X47638D01*
X41732Y128445D02*
X47638D01*
Y131398D01*
X41732Y128445D02*
Y131398D01*
X22047Y136319D02*
X27953D01*
X22047Y139272D02*
X27953D01*
X22047Y136319D02*
Y139272D01*
X27953Y136319D02*
Y139272D01*
X31890Y136319D02*
X37795D01*
X31890Y139272D02*
X37795D01*
X31890Y136319D02*
Y139272D01*
X37795Y136319D02*
Y139272D01*
X41732Y136319D02*
X47638D01*
X41732Y139272D02*
X47638D01*
X41732Y136319D02*
Y139272D01*
X47638Y136319D02*
Y139272D01*
X-17323Y135335D02*
X-11417D01*
X-17323Y132382D02*
X-11417D01*
Y135335D01*
X-17323Y132382D02*
Y135335D01*
X-7480D02*
X-1575D01*
X-7480Y132382D02*
X-1575D01*
Y135335D01*
X-7480Y132382D02*
Y135335D01*
X2362D02*
X8268D01*
X2362Y132382D02*
X8268D01*
Y135335D01*
X2362Y132382D02*
Y135335D01*
X-17323Y131398D02*
X-11417D01*
X-17323Y128445D02*
X-11417D01*
Y131398D01*
X-17323Y128445D02*
Y131398D01*
X-7480D02*
X-1575D01*
X-7480Y128445D02*
X-1575D01*
Y131398D01*
X-7480Y128445D02*
Y131398D01*
X2362D02*
X8268D01*
X2362Y128445D02*
X8268D01*
Y131398D01*
X2362Y128445D02*
Y131398D01*
X12094Y79724D02*
X15047D01*
X12587Y76772D02*
X14555D01*
X13571Y75787D02*
Y77756D01*
X15047Y73819D02*
Y79724D01*
X12094Y73819D02*
Y79724D01*
Y73819D02*
X15047D01*
X2094Y79724D02*
X5047D01*
X2587Y76772D02*
X4555D01*
X3571Y75787D02*
Y77756D01*
X5047Y73819D02*
Y79724D01*
X2094Y73819D02*
Y79724D01*
Y73819D02*
X5047D01*
X-7905Y79724D02*
X-4953D01*
X-7413Y76772D02*
X-5445D01*
X-6429Y75787D02*
Y77756D01*
X-4953Y73819D02*
Y79724D01*
X-7905Y73819D02*
Y79724D01*
Y73819D02*
X-4953D01*
X-12905Y79724D02*
X-9953D01*
X-12413Y76772D02*
X-10445D01*
X-11429Y75787D02*
Y77756D01*
X-9953Y73819D02*
Y79724D01*
X-12905Y73819D02*
Y79724D01*
Y73819D02*
X-9953D01*
X43307Y28957D02*
Y31909D01*
X46260Y29449D02*
Y31417D01*
X45276Y30433D02*
X47244D01*
X43307Y31909D02*
X49213D01*
X43307Y28957D02*
X49213D01*
Y31909D01*
X43307Y25020D02*
Y27972D01*
X46260Y25512D02*
Y27480D01*
X45276Y26496D02*
X47244D01*
X43307Y27972D02*
X49213D01*
X43307Y25020D02*
X49213D01*
Y27972D01*
X-12795Y48957D02*
Y51910D01*
X-15748Y49449D02*
Y51417D01*
X-16732Y50433D02*
X-14764D01*
X-18701Y48957D02*
X-12795D01*
X-18701Y51910D02*
X-12795D01*
X-18701Y48957D02*
Y51910D01*
X-12795Y45020D02*
Y47972D01*
X-15748Y45512D02*
Y47480D01*
X-16732Y46496D02*
X-14764D01*
X-18701Y45020D02*
X-12795D01*
X-18701Y47972D02*
X-12795D01*
X-18701Y45020D02*
Y47972D01*
X-17323Y84153D02*
Y87106D01*
X-14370Y84646D02*
Y86614D01*
X-15354Y85630D02*
X-13386D01*
X-17323Y84153D02*
X-11417D01*
X-17323Y87106D02*
X-11417D01*
Y84153D02*
Y87106D01*
X-17323Y80216D02*
Y83169D01*
X-14370Y80709D02*
Y82677D01*
X-15354Y81693D02*
X-13386D01*
X-17323Y80216D02*
X-11417D01*
X-17323Y83169D02*
X-11417D01*
Y80216D02*
Y83169D01*
X16634Y71850D02*
X19587D01*
X17126Y74803D02*
X19094D01*
X18110Y73819D02*
Y75787D01*
X19587Y71850D02*
Y77756D01*
X16634Y71850D02*
Y77756D01*
X19587D01*
X44646Y54134D02*
X47598D01*
X45138Y57087D02*
X47106D01*
X46122Y56102D02*
Y58071D01*
X47598Y54134D02*
Y60039D01*
X44646Y54134D02*
Y60039D01*
X47598D01*
X-12284Y20669D02*
X-9331D01*
X-11791Y17717D02*
X-9823D01*
X-10807Y16732D02*
Y18701D01*
X-12284Y14764D02*
Y20669D01*
X-9331Y14764D02*
Y20669D01*
X-12284Y14764D02*
X-9331D01*
X-2283Y20669D02*
X669D01*
X-1791Y17717D02*
X177D01*
X-807Y16732D02*
Y18701D01*
X-2283Y14764D02*
Y20669D01*
X669Y14764D02*
Y20669D01*
X-2283Y14764D02*
X669D01*
X7717Y20669D02*
X10669D01*
X8209Y17717D02*
X10177D01*
X9193Y16732D02*
Y18701D01*
X7717Y14764D02*
Y20669D01*
X10669Y14764D02*
Y20669D01*
X7717Y14764D02*
X10669D01*
X17717Y20669D02*
X20669D01*
X18209Y17717D02*
X20177D01*
X19193Y16732D02*
Y18701D01*
X17717Y14764D02*
Y20669D01*
X20669Y14764D02*
Y20669D01*
X17717Y14764D02*
X20669D01*
X44646Y20669D02*
X47598D01*
X45138Y17717D02*
X47106D01*
X46122Y16732D02*
Y18701D01*
X44646Y14764D02*
Y20669D01*
X47598Y14764D02*
Y20669D01*
X44646Y14764D02*
X47598D01*
X4035Y77756D02*
X6988D01*
X4528Y74803D02*
X6496D01*
X5512Y73819D02*
Y75787D01*
X4035Y71850D02*
Y77756D01*
X6988Y71850D02*
Y77756D01*
X4035Y71850D02*
X6988D01*
X27953Y124508D02*
Y127461D01*
X25000Y125000D02*
Y126969D01*
X24016Y125984D02*
X25984D01*
X22047Y127461D02*
X27953D01*
X22047Y124508D02*
X27953D01*
X22047D02*
Y127461D01*
X37795Y124508D02*
Y127461D01*
X34843Y125000D02*
Y126969D01*
X33858Y125984D02*
X35827D01*
X31890Y127461D02*
X37795D01*
X31890Y124508D02*
X37795D01*
X31890D02*
Y127461D01*
X47638Y124508D02*
Y127461D01*
X44685Y125000D02*
Y126969D01*
X43701Y125984D02*
X45669D01*
X41732Y127461D02*
X47638D01*
X41732Y124508D02*
X47638D01*
X41732D02*
Y127461D01*
X27953Y128445D02*
Y131398D01*
X25000Y128937D02*
Y130905D01*
X24016Y129921D02*
X25984D01*
X22047Y131398D02*
X27953D01*
X22047Y128445D02*
X27953D01*
X22047D02*
Y131398D01*
X37795Y128445D02*
Y131398D01*
X34843Y128937D02*
Y130905D01*
X33858Y129921D02*
X35827D01*
X31890Y131398D02*
X37795D01*
X31890Y128445D02*
X37795D01*
X31890D02*
Y131398D01*
X47638Y128445D02*
Y131398D01*
X44685Y128937D02*
Y130905D01*
X43701Y129921D02*
X45669D01*
X41732Y131398D02*
X47638D01*
X41732Y128445D02*
X47638D01*
X41732D02*
Y131398D01*
X22047Y136319D02*
Y139272D01*
X25000Y136811D02*
Y138779D01*
X24016Y137795D02*
X25984D01*
X22047Y136319D02*
X27953D01*
X22047Y139272D02*
X27953D01*
Y136319D02*
Y139272D01*
X31890Y136319D02*
Y139272D01*
X34843Y136811D02*
Y138779D01*
X33858Y137795D02*
X35827D01*
X31890Y136319D02*
X37795D01*
X31890Y139272D02*
X37795D01*
Y136319D02*
Y139272D01*
X41732Y136319D02*
Y139272D01*
X44685Y136811D02*
Y138779D01*
X43701Y137795D02*
X45669D01*
X41732Y136319D02*
X47638D01*
X41732Y139272D02*
X47638D01*
Y136319D02*
Y139272D01*
X-11417Y132382D02*
Y135335D01*
X-14370Y132874D02*
Y134843D01*
X-15354Y133858D02*
X-13386D01*
X-17323Y135335D02*
X-11417D01*
X-17323Y132382D02*
X-11417D01*
X-17323D02*
Y135335D01*
X-1575Y132382D02*
Y135335D01*
X-4528Y132874D02*
Y134843D01*
X-5512Y133858D02*
X-3543D01*
X-7480Y135335D02*
X-1575D01*
X-7480Y132382D02*
X-1575D01*
X-7480D02*
Y135335D01*
X8268Y132382D02*
Y135335D01*
X5315Y132874D02*
Y134843D01*
X4331Y133858D02*
X6299D01*
X2362Y135335D02*
X8268D01*
X2362Y132382D02*
X8268D01*
X2362D02*
Y135335D01*
X-11417Y128445D02*
Y131398D01*
X-14370Y128937D02*
Y130905D01*
X-15354Y129921D02*
X-13386D01*
X-17323Y131398D02*
X-11417D01*
X-17323Y128445D02*
X-11417D01*
X-17323D02*
Y131398D01*
X-1575Y128445D02*
Y131398D01*
X-4528Y128937D02*
Y130905D01*
X-5512Y129921D02*
X-3543D01*
X-7480Y131398D02*
X-1575D01*
X-7480Y128445D02*
X-1575D01*
X-7480D02*
Y131398D01*
X8268Y128445D02*
Y131398D01*
X5315Y128937D02*
Y130905D01*
X4331Y129921D02*
X6299D01*
X2362Y131398D02*
X8268D01*
X2362Y128445D02*
X8268D01*
X2362D02*
Y131398D01*
D37*
X4193Y28543D02*
X14193D01*
X46122Y22441D02*
Y24878D01*
X42457Y28543D02*
X46122Y24878D01*
X14193Y28543D02*
X42457D01*
X-20276Y0D02*
Y24075D01*
X-15807Y28543D01*
X-5807D02*
X4193D01*
X-15807D02*
X-5807D01*
D40*
X15157Y153543D02*
D03*
D42*
X14193Y28543D02*
D03*
X42992Y123543D02*
D03*
X33150D02*
D03*
X3622Y123543D02*
D03*
X-6221D02*
D03*
X39787Y127953D02*
D03*
X9843Y127756D02*
D03*
X-19685Y127953D02*
D03*
X-20276Y0D02*
D03*
X46122Y52756D02*
D03*
X-16429Y72835D02*
D03*
X-15807Y28543D02*
D03*
X-11429Y90551D02*
D03*
X31728Y79921D02*
D03*
X49213D02*
D03*
X25500Y47500D02*
D03*
X-23622Y50433D02*
D03*
X14370Y0D02*
D03*
X-807Y58780D02*
D03*
X8268Y88976D02*
D03*
X-19685Y90551D02*
D03*
X-11429Y72835D02*
D03*
X41122Y58780D02*
D03*
X19193Y58780D02*
D03*
X46378Y87126D02*
D03*
X26047Y70276D02*
D03*
X11220Y0D02*
D03*
X33268D02*
D03*
X30118D02*
D03*
X26969D02*
D03*
X23819D02*
D03*
X46122Y22441D02*
D03*
X41122Y19409D02*
D03*
X36122D02*
D03*
X41122Y55394D02*
D03*
X36122D02*
D03*
X31122D02*
D03*
X19193D02*
D03*
X9193Y58780D02*
D03*
Y55394D02*
D03*
X-807D02*
D03*
X-10807D02*
D03*
Y58780D02*
D03*
X-10807Y21457D02*
D03*
X-807D02*
D03*
X19193D02*
D03*
X9193D02*
D03*
X4193Y28543D02*
D03*
X-5807D02*
D03*
X-18504Y85630D02*
D03*
Y105315D02*
D03*
Y113189D02*
D03*
X12205Y88976D02*
D03*
X9055Y70276D02*
D03*
X18110Y79330D02*
D03*
X25984D02*
D03*
X-9843Y85630D02*
D03*
X-18504Y109252D02*
D03*
X1772Y95472D02*
D03*
X40158Y105315D02*
D03*
X-9843Y101378D02*
D03*
Y105315D02*
D03*
X1772Y107283D02*
D03*
X28543Y109252D02*
D03*
D43*
X15157Y135343D02*
Y153543D01*
M02*
