G04*
G04 #@! TF.GenerationSoftware,Altium Limited,Altium Designer,24.7.2 (38)*
G04*
G04 Layer_Physical_Order=1*
G04 Layer_Color=255*
%FSLAX25Y25*%
%MOIN*%
G70*
G04*
G04 #@! TF.SameCoordinates,E69E1CB2-A86E-4577-BA8A-D7129F9CB9E7*
G04*
G04*
G04 #@! TF.FilePolarity,Positive*
G04*
G01*
G75*
%ADD10C,0.00787*%
%ADD11C,0.00394*%
%ADD12C,0.00197*%
%ADD14C,0.00039*%
%ADD15C,0.00079*%
%ADD16R,0.05512X0.02756*%
%ADD17R,0.07087X0.03150*%
%ADD18R,0.01968X0.01968*%
%ADD19R,0.02756X0.03937*%
%ADD20R,0.02047X0.01850*%
%ADD21R,0.02756X0.05512*%
%ADD22R,0.02953X0.04724*%
%ADD23R,0.03150X0.07087*%
%ADD24R,0.01850X0.02047*%
%ADD25R,0.01968X0.02362*%
%ADD26R,0.03150X0.03937*%
%ADD27R,0.03937X0.05906*%
%ADD28R,0.03937X0.03937*%
%ADD29R,0.03000X0.03937*%
%ADD30R,0.03937X0.02756*%
%ADD31R,0.02362X0.06299*%
%ADD32R,0.04724X0.02953*%
%ADD33R,0.02756X0.00984*%
%ADD34R,0.00984X0.02756*%
%ADD35R,0.13583X0.13583*%
%ADD36R,0.02756X0.02362*%
%ADD37R,0.02362X0.01968*%
%ADD38R,0.03150X0.04724*%
%ADD39R,0.07874X0.11811*%
%ADD40R,0.02953X0.05906*%
%ADD74R,0.10512X0.09055*%
%ADD75R,0.02362X0.09055*%
%ADD76C,0.01181*%
%ADD77C,0.01968*%
%ADD78C,0.05315*%
%ADD79R,0.05315X0.05315*%
%ADD80R,0.20866X0.20866*%
%ADD81C,0.01968*%
G36*
X-21667Y-557D02*
X-21590Y-478D01*
X-21361Y-216D01*
X-21324Y-163D01*
X-21296Y-117D01*
X-21276Y-76D01*
X-21264Y-40D01*
X-21260Y-10D01*
X-20285Y-984D01*
X-20316Y-988D01*
X-20351Y-1000D01*
X-20392Y-1020D01*
X-20439Y-1049D01*
X-20491Y-1085D01*
X-20611Y-1183D01*
X-20753Y-1314D01*
X-20832Y-1392D01*
X-21667Y-557D01*
D02*
G37*
G36*
X63101Y156130D02*
X63130D01*
X63199Y156122D01*
X63276Y156111D01*
X63356Y156093D01*
X63443Y156071D01*
X63527Y156042D01*
X63531D01*
X63538Y156038D01*
X63549Y156035D01*
X63563Y156028D01*
X63603Y156006D01*
X63654Y155980D01*
X63709Y155944D01*
X63767Y155900D01*
X63822Y155853D01*
X63873Y155795D01*
X63880Y155787D01*
X63895Y155765D01*
X63916Y155733D01*
X63946Y155685D01*
X63975Y155627D01*
X64007Y155554D01*
X64040Y155474D01*
X64066Y155383D01*
X63763Y155303D01*
Y155307D01*
X63760Y155310D01*
X63756Y155322D01*
X63753Y155336D01*
X63742Y155369D01*
X63727Y155412D01*
X63705Y155463D01*
X63680Y155511D01*
X63654Y155562D01*
X63622Y155605D01*
X63618Y155609D01*
X63607Y155624D01*
X63585Y155642D01*
X63560Y155667D01*
X63527Y155696D01*
X63483Y155726D01*
X63436Y155755D01*
X63381Y155780D01*
X63374Y155784D01*
X63356Y155791D01*
X63323Y155802D01*
X63279Y155816D01*
X63228Y155827D01*
X63170Y155838D01*
X63105Y155846D01*
X63036Y155849D01*
X62995D01*
X62977Y155846D01*
X62955D01*
X62901Y155842D01*
X62839Y155831D01*
X62770Y155820D01*
X62704Y155802D01*
X62639Y155776D01*
X62631Y155773D01*
X62610Y155765D01*
X62581Y155747D01*
X62544Y155729D01*
X62500Y155700D01*
X62453Y155671D01*
X62409Y155634D01*
X62369Y155595D01*
X62366Y155591D01*
X62351Y155576D01*
X62333Y155551D01*
X62311Y155522D01*
X62286Y155485D01*
X62260Y155442D01*
X62235Y155394D01*
X62209Y155343D01*
Y155340D01*
X62206Y155332D01*
X62202Y155322D01*
X62195Y155303D01*
X62187Y155281D01*
X62180Y155256D01*
X62169Y155227D01*
X62162Y155194D01*
X62144Y155118D01*
X62129Y155030D01*
X62118Y154939D01*
X62115Y154837D01*
Y154834D01*
Y154823D01*
Y154805D01*
X62118Y154783D01*
Y154754D01*
X62122Y154717D01*
X62125Y154681D01*
X62129Y154641D01*
X62144Y154550D01*
X62162Y154455D01*
X62191Y154360D01*
X62227Y154270D01*
Y154266D01*
X62235Y154259D01*
X62238Y154248D01*
X62249Y154233D01*
X62275Y154193D01*
X62315Y154142D01*
X62362Y154087D01*
X62420Y154033D01*
X62489Y153982D01*
X62566Y153935D01*
X62570D01*
X62577Y153931D01*
X62588Y153924D01*
X62606Y153916D01*
X62624Y153909D01*
X62650Y153902D01*
X62708Y153880D01*
X62781Y153862D01*
X62861Y153844D01*
X62948Y153829D01*
X63039Y153825D01*
X63076D01*
X63097Y153829D01*
X63119D01*
X63174Y153836D01*
X63239Y153844D01*
X63309Y153858D01*
X63385Y153880D01*
X63461Y153905D01*
X63465D01*
X63472Y153909D01*
X63480Y153913D01*
X63494Y153920D01*
X63534Y153938D01*
X63578Y153960D01*
X63629Y153986D01*
X63683Y154015D01*
X63734Y154048D01*
X63778Y154084D01*
Y154557D01*
X63036D01*
Y154856D01*
X64106D01*
Y153920D01*
X64102Y153916D01*
X64095Y153913D01*
X64080Y153902D01*
X64062Y153887D01*
X64040Y153873D01*
X64015Y153855D01*
X63982Y153833D01*
X63949Y153811D01*
X63873Y153763D01*
X63785Y153713D01*
X63694Y153665D01*
X63596Y153625D01*
X63592D01*
X63585Y153622D01*
X63571Y153618D01*
X63552Y153611D01*
X63527Y153603D01*
X63498Y153593D01*
X63465Y153585D01*
X63432Y153578D01*
X63352Y153560D01*
X63261Y153542D01*
X63163Y153531D01*
X63061Y153527D01*
X63025D01*
X62999Y153531D01*
X62966D01*
X62926Y153534D01*
X62883Y153542D01*
X62835Y153545D01*
X62730Y153567D01*
X62617Y153593D01*
X62500Y153632D01*
X62442Y153654D01*
X62384Y153683D01*
X62380Y153687D01*
X62369Y153691D01*
X62355Y153702D01*
X62333Y153713D01*
X62308Y153731D01*
X62282Y153749D01*
X62213Y153800D01*
X62140Y153866D01*
X62064Y153946D01*
X61991Y154036D01*
X61925Y154142D01*
Y154146D01*
X61918Y154157D01*
X61911Y154171D01*
X61900Y154197D01*
X61889Y154222D01*
X61878Y154259D01*
X61863Y154295D01*
X61849Y154339D01*
X61834Y154386D01*
X61820Y154441D01*
X61809Y154495D01*
X61798Y154553D01*
X61780Y154681D01*
X61772Y154815D01*
Y154819D01*
Y154834D01*
Y154852D01*
X61776Y154877D01*
Y154910D01*
X61780Y154950D01*
X61787Y154990D01*
X61791Y155037D01*
X61802Y155088D01*
X61809Y155143D01*
X61838Y155260D01*
X61874Y155380D01*
X61925Y155500D01*
X61929Y155503D01*
X61933Y155514D01*
X61940Y155529D01*
X61954Y155551D01*
X61969Y155580D01*
X61987Y155609D01*
X62038Y155678D01*
X62100Y155758D01*
X62177Y155835D01*
X62264Y155911D01*
X62315Y155944D01*
X62366Y155977D01*
X62369Y155980D01*
X62380Y155984D01*
X62395Y155991D01*
X62417Y156002D01*
X62446Y156013D01*
X62479Y156028D01*
X62515Y156042D01*
X62559Y156057D01*
X62606Y156071D01*
X62657Y156082D01*
X62712Y156097D01*
X62770Y156108D01*
X62897Y156126D01*
X62963Y156133D01*
X63079D01*
X63101Y156130D01*
D02*
G37*
G36*
X61317Y153571D02*
X60997D01*
Y155678D01*
X60262Y153571D01*
X59963D01*
X59235Y155715D01*
Y153571D01*
X58915D01*
Y156089D01*
X59414D01*
X60011Y154302D01*
Y154299D01*
X60014Y154291D01*
X60018Y154280D01*
X60025Y154262D01*
X60040Y154218D01*
X60058Y154164D01*
X60076Y154102D01*
X60098Y154040D01*
X60116Y153982D01*
X60131Y153931D01*
X60134Y153938D01*
X60138Y153956D01*
X60149Y153989D01*
X60164Y154033D01*
X60182Y154091D01*
X60207Y154160D01*
X60233Y154240D01*
X60265Y154335D01*
X60870Y156089D01*
X61317D01*
Y153571D01*
D02*
G37*
G36*
X66676D02*
X66297D01*
X66002Y154335D01*
X64947D01*
X64674Y153571D01*
X64320D01*
X65281Y156089D01*
X65645D01*
X66676Y153571D01*
D02*
G37*
G36*
X-26149Y153587D02*
X-26527D01*
X-26822Y154351D01*
X-27878D01*
X-28150Y153587D01*
X-28875D01*
X-29170Y154351D01*
X-30225D01*
X-30498Y153587D01*
X-30851D01*
X-29890Y156106D01*
X-29526D01*
X-28500Y153596D01*
X-27543Y156106D01*
X-27179D01*
X-26149Y153587D01*
D02*
G37*
G36*
X-31765Y156113D02*
X-31736Y156109D01*
X-31699Y156106D01*
X-31659Y156099D01*
X-31620Y156091D01*
X-31525Y156066D01*
X-31430Y156029D01*
X-31383Y156008D01*
X-31335Y155982D01*
X-31292Y155949D01*
X-31252Y155913D01*
X-31248Y155909D01*
X-31241Y155906D01*
X-31234Y155891D01*
X-31219Y155877D01*
X-31201Y155858D01*
X-31183Y155833D01*
X-31164Y155807D01*
X-31143Y155775D01*
X-31106Y155705D01*
X-31070Y155618D01*
X-31055Y155574D01*
X-31048Y155524D01*
X-31041Y155473D01*
X-31037Y155418D01*
Y155411D01*
Y155392D01*
X-31041Y155363D01*
X-31044Y155323D01*
X-31052Y155280D01*
X-31066Y155229D01*
X-31081Y155174D01*
X-31103Y155119D01*
X-31106Y155112D01*
X-31113Y155094D01*
X-31128Y155065D01*
X-31150Y155025D01*
X-31179Y154981D01*
X-31215Y154927D01*
X-31259Y154872D01*
X-31310Y154810D01*
X-31317Y154803D01*
X-31335Y154781D01*
X-31354Y154763D01*
X-31372Y154745D01*
X-31394Y154723D01*
X-31423Y154694D01*
X-31452Y154664D01*
X-31488Y154632D01*
X-31525Y154595D01*
X-31569Y154555D01*
X-31616Y154515D01*
X-31667Y154468D01*
X-31725Y154421D01*
X-31783Y154370D01*
X-31787Y154366D01*
X-31794Y154359D01*
X-31809Y154348D01*
X-31827Y154333D01*
X-31849Y154311D01*
X-31874Y154289D01*
X-31933Y154242D01*
X-31994Y154188D01*
X-32053Y154133D01*
X-32104Y154086D01*
X-32125Y154068D01*
X-32144Y154049D01*
X-32147Y154046D01*
X-32158Y154035D01*
X-32173Y154020D01*
X-32191Y153998D01*
X-32209Y153973D01*
X-32231Y153947D01*
X-32275Y153885D01*
X-31033D01*
Y153587D01*
X-32704D01*
Y153591D01*
Y153605D01*
Y153627D01*
X-32700Y153656D01*
X-32697Y153689D01*
X-32690Y153725D01*
X-32682Y153762D01*
X-32668Y153802D01*
Y153805D01*
X-32664Y153809D01*
X-32657Y153831D01*
X-32642Y153864D01*
X-32620Y153907D01*
X-32591Y153958D01*
X-32555Y154016D01*
X-32515Y154075D01*
X-32464Y154137D01*
Y154140D01*
X-32457Y154144D01*
X-32438Y154166D01*
X-32406Y154199D01*
X-32358Y154246D01*
X-32304Y154300D01*
X-32235Y154366D01*
X-32151Y154439D01*
X-32060Y154515D01*
X-32056Y154519D01*
X-32042Y154530D01*
X-32020Y154548D01*
X-31994Y154570D01*
X-31962Y154599D01*
X-31922Y154632D01*
X-31881Y154668D01*
X-31834Y154708D01*
X-31743Y154796D01*
X-31652Y154883D01*
X-31609Y154927D01*
X-31569Y154970D01*
X-31532Y155010D01*
X-31503Y155050D01*
Y155054D01*
X-31496Y155058D01*
X-31488Y155069D01*
X-31481Y155083D01*
X-31456Y155123D01*
X-31427Y155170D01*
X-31401Y155229D01*
X-31376Y155290D01*
X-31361Y155360D01*
X-31354Y155425D01*
Y155429D01*
Y155432D01*
X-31357Y155454D01*
X-31361Y155491D01*
X-31372Y155531D01*
X-31387Y155582D01*
X-31412Y155633D01*
X-31445Y155684D01*
X-31488Y155735D01*
X-31496Y155742D01*
X-31514Y155756D01*
X-31539Y155775D01*
X-31579Y155800D01*
X-31630Y155822D01*
X-31689Y155844D01*
X-31758Y155858D01*
X-31834Y155862D01*
X-31856D01*
X-31871Y155858D01*
X-31914Y155855D01*
X-31965Y155844D01*
X-32020Y155829D01*
X-32082Y155804D01*
X-32140Y155771D01*
X-32195Y155727D01*
X-32202Y155720D01*
X-32216Y155702D01*
X-32238Y155673D01*
X-32260Y155629D01*
X-32286Y155578D01*
X-32307Y155513D01*
X-32322Y155440D01*
X-32329Y155356D01*
X-32646Y155389D01*
Y155392D01*
X-32642Y155403D01*
Y155422D01*
X-32639Y155447D01*
X-32631Y155476D01*
X-32624Y155509D01*
X-32613Y155549D01*
X-32602Y155589D01*
X-32573Y155676D01*
X-32530Y155764D01*
X-32504Y155807D01*
X-32471Y155851D01*
X-32438Y155891D01*
X-32402Y155928D01*
X-32398Y155931D01*
X-32391Y155935D01*
X-32380Y155946D01*
X-32362Y155957D01*
X-32340Y155971D01*
X-32315Y155986D01*
X-32286Y156004D01*
X-32249Y156022D01*
X-32209Y156040D01*
X-32165Y156059D01*
X-32118Y156073D01*
X-32067Y156088D01*
X-32013Y156099D01*
X-31954Y156109D01*
X-31892Y156113D01*
X-31827Y156117D01*
X-31791D01*
X-31765Y156113D01*
D02*
G37*
G36*
X-35682D02*
X-35653Y156109D01*
X-35616Y156106D01*
X-35576Y156099D01*
X-35536Y156091D01*
X-35441Y156066D01*
X-35347Y156029D01*
X-35300Y156008D01*
X-35252Y155982D01*
X-35208Y155949D01*
X-35168Y155913D01*
X-35165Y155909D01*
X-35157Y155906D01*
X-35150Y155891D01*
X-35136Y155877D01*
X-35118Y155858D01*
X-35099Y155833D01*
X-35081Y155807D01*
X-35059Y155775D01*
X-35023Y155705D01*
X-34986Y155618D01*
X-34972Y155574D01*
X-34965Y155524D01*
X-34957Y155473D01*
X-34954Y155418D01*
Y155411D01*
Y155392D01*
X-34957Y155363D01*
X-34961Y155323D01*
X-34968Y155280D01*
X-34983Y155229D01*
X-34997Y155174D01*
X-35019Y155119D01*
X-35023Y155112D01*
X-35030Y155094D01*
X-35045Y155065D01*
X-35067Y155025D01*
X-35096Y154981D01*
X-35132Y154927D01*
X-35176Y154872D01*
X-35227Y154810D01*
X-35234Y154803D01*
X-35252Y154781D01*
X-35270Y154763D01*
X-35289Y154745D01*
X-35310Y154723D01*
X-35339Y154694D01*
X-35369Y154664D01*
X-35405Y154632D01*
X-35441Y154595D01*
X-35485Y154555D01*
X-35533Y154515D01*
X-35583Y154468D01*
X-35642Y154421D01*
X-35700Y154370D01*
X-35704Y154366D01*
X-35711Y154359D01*
X-35725Y154348D01*
X-35744Y154333D01*
X-35765Y154311D01*
X-35791Y154289D01*
X-35849Y154242D01*
X-35911Y154188D01*
X-35969Y154133D01*
X-36020Y154086D01*
X-36042Y154068D01*
X-36060Y154049D01*
X-36064Y154046D01*
X-36075Y154035D01*
X-36089Y154020D01*
X-36108Y153998D01*
X-36126Y153973D01*
X-36148Y153947D01*
X-36191Y153885D01*
X-34950D01*
Y153587D01*
X-36621D01*
Y153591D01*
Y153605D01*
Y153627D01*
X-36617Y153656D01*
X-36614Y153689D01*
X-36606Y153725D01*
X-36599Y153762D01*
X-36584Y153802D01*
Y153805D01*
X-36581Y153809D01*
X-36573Y153831D01*
X-36559Y153864D01*
X-36537Y153907D01*
X-36508Y153958D01*
X-36472Y154016D01*
X-36432Y154075D01*
X-36381Y154137D01*
Y154140D01*
X-36373Y154144D01*
X-36355Y154166D01*
X-36322Y154199D01*
X-36275Y154246D01*
X-36220Y154300D01*
X-36151Y154366D01*
X-36068Y154439D01*
X-35976Y154515D01*
X-35973Y154519D01*
X-35958Y154530D01*
X-35936Y154548D01*
X-35911Y154570D01*
X-35878Y154599D01*
X-35838Y154632D01*
X-35798Y154668D01*
X-35751Y154708D01*
X-35660Y154796D01*
X-35569Y154883D01*
X-35525Y154927D01*
X-35485Y154970D01*
X-35449Y155010D01*
X-35420Y155050D01*
Y155054D01*
X-35412Y155058D01*
X-35405Y155069D01*
X-35398Y155083D01*
X-35372Y155123D01*
X-35343Y155170D01*
X-35318Y155229D01*
X-35292Y155290D01*
X-35278Y155360D01*
X-35270Y155425D01*
Y155429D01*
Y155432D01*
X-35274Y155454D01*
X-35278Y155491D01*
X-35289Y155531D01*
X-35303Y155582D01*
X-35329Y155633D01*
X-35361Y155684D01*
X-35405Y155735D01*
X-35412Y155742D01*
X-35430Y155756D01*
X-35456Y155775D01*
X-35496Y155800D01*
X-35547Y155822D01*
X-35605Y155844D01*
X-35674Y155858D01*
X-35751Y155862D01*
X-35773D01*
X-35787Y155858D01*
X-35831Y155855D01*
X-35882Y155844D01*
X-35936Y155829D01*
X-35998Y155804D01*
X-36057Y155771D01*
X-36111Y155727D01*
X-36119Y155720D01*
X-36133Y155702D01*
X-36155Y155673D01*
X-36177Y155629D01*
X-36202Y155578D01*
X-36224Y155513D01*
X-36239Y155440D01*
X-36246Y155356D01*
X-36563Y155389D01*
Y155392D01*
X-36559Y155403D01*
Y155422D01*
X-36555Y155447D01*
X-36548Y155476D01*
X-36541Y155509D01*
X-36530Y155549D01*
X-36519Y155589D01*
X-36490Y155676D01*
X-36446Y155764D01*
X-36421Y155807D01*
X-36388Y155851D01*
X-36355Y155891D01*
X-36319Y155928D01*
X-36315Y155931D01*
X-36308Y155935D01*
X-36297Y155946D01*
X-36279Y155957D01*
X-36257Y155971D01*
X-36231Y155986D01*
X-36202Y156004D01*
X-36166Y156022D01*
X-36126Y156040D01*
X-36082Y156059D01*
X-36035Y156073D01*
X-35984Y156088D01*
X-35929Y156099D01*
X-35871Y156109D01*
X-35809Y156113D01*
X-35744Y156117D01*
X-35707D01*
X-35682Y156113D01*
D02*
G37*
G36*
X-37797Y156102D02*
X-37767D01*
X-37702Y156095D01*
X-37629Y156088D01*
X-37553Y156073D01*
X-37476Y156055D01*
X-37407Y156029D01*
X-37403D01*
X-37400Y156026D01*
X-37378Y156015D01*
X-37345Y155997D01*
X-37309Y155971D01*
X-37265Y155938D01*
X-37218Y155898D01*
X-37174Y155847D01*
X-37134Y155793D01*
X-37130Y155786D01*
X-37119Y155764D01*
X-37101Y155735D01*
X-37083Y155691D01*
X-37065Y155640D01*
X-37047Y155585D01*
X-37036Y155524D01*
X-37032Y155462D01*
Y155454D01*
Y155436D01*
X-37036Y155403D01*
X-37043Y155363D01*
X-37054Y155316D01*
X-37072Y155265D01*
X-37094Y155214D01*
X-37123Y155159D01*
X-37127Y155152D01*
X-37138Y155138D01*
X-37159Y155108D01*
X-37189Y155079D01*
X-37225Y155043D01*
X-37269Y155003D01*
X-37323Y154967D01*
X-37385Y154930D01*
X-37382D01*
X-37374Y154927D01*
X-37363Y154923D01*
X-37349Y154916D01*
X-37305Y154901D01*
X-37254Y154876D01*
X-37200Y154843D01*
X-37138Y154803D01*
X-37083Y154755D01*
X-37032Y154697D01*
X-37029Y154690D01*
X-37014Y154668D01*
X-36992Y154635D01*
X-36970Y154592D01*
X-36948Y154533D01*
X-36927Y154472D01*
X-36912Y154399D01*
X-36908Y154319D01*
Y154315D01*
Y154311D01*
Y154289D01*
X-36912Y154253D01*
X-36919Y154209D01*
X-36927Y154158D01*
X-36941Y154104D01*
X-36959Y154046D01*
X-36985Y153987D01*
X-36988Y153980D01*
X-36999Y153962D01*
X-37014Y153936D01*
X-37036Y153900D01*
X-37065Y153864D01*
X-37094Y153824D01*
X-37130Y153784D01*
X-37170Y153751D01*
X-37174Y153747D01*
X-37189Y153736D01*
X-37214Y153722D01*
X-37247Y153707D01*
X-37287Y153685D01*
X-37334Y153663D01*
X-37385Y153645D01*
X-37447Y153627D01*
X-37454D01*
X-37476Y153620D01*
X-37513Y153616D01*
X-37560Y153609D01*
X-37618Y153602D01*
X-37687Y153594D01*
X-37764Y153591D01*
X-37851Y153587D01*
X-38812D01*
Y156106D01*
X-37822D01*
X-37797Y156102D01*
D02*
G37*
G36*
X-33723Y156113D02*
X-33676Y156106D01*
X-33621Y156095D01*
X-33563Y156080D01*
X-33501Y156062D01*
X-33443Y156033D01*
X-33439D01*
X-33436Y156029D01*
X-33418Y156018D01*
X-33389Y156000D01*
X-33352Y155975D01*
X-33312Y155938D01*
X-33268Y155898D01*
X-33228Y155851D01*
X-33188Y155797D01*
X-33185Y155789D01*
X-33170Y155771D01*
X-33156Y155738D01*
X-33130Y155691D01*
X-33108Y155636D01*
X-33079Y155574D01*
X-33054Y155502D01*
X-33032Y155422D01*
Y155418D01*
X-33028Y155411D01*
X-33024Y155400D01*
X-33021Y155382D01*
X-33017Y155360D01*
X-33014Y155334D01*
X-33006Y155301D01*
X-33003Y155265D01*
X-32995Y155225D01*
X-32992Y155181D01*
X-32988Y155130D01*
X-32981Y155079D01*
X-32977Y155021D01*
Y154963D01*
X-32974Y154897D01*
Y154828D01*
Y154825D01*
Y154810D01*
Y154785D01*
Y154755D01*
X-32977Y154715D01*
Y154672D01*
X-32981Y154624D01*
X-32984Y154573D01*
X-32995Y154457D01*
X-33014Y154337D01*
X-33035Y154220D01*
X-33050Y154166D01*
X-33068Y154111D01*
Y154107D01*
X-33072Y154100D01*
X-33079Y154086D01*
X-33086Y154068D01*
X-33094Y154042D01*
X-33108Y154016D01*
X-33137Y153955D01*
X-33174Y153889D01*
X-33221Y153816D01*
X-33276Y153751D01*
X-33341Y153689D01*
X-33345D01*
X-33349Y153682D01*
X-33359Y153674D01*
X-33374Y153667D01*
X-33392Y153656D01*
X-33410Y153642D01*
X-33465Y153616D01*
X-33531Y153591D01*
X-33607Y153565D01*
X-33698Y153551D01*
X-33796Y153543D01*
X-33833D01*
X-33858Y153547D01*
X-33887Y153551D01*
X-33924Y153558D01*
X-33964Y153565D01*
X-34007Y153576D01*
X-34051Y153591D01*
X-34098Y153605D01*
X-34146Y153627D01*
X-34193Y153653D01*
X-34240Y153682D01*
X-34288Y153718D01*
X-34331Y153758D01*
X-34371Y153802D01*
X-34375Y153805D01*
X-34382Y153816D01*
X-34393Y153834D01*
X-34411Y153864D01*
X-34429Y153896D01*
X-34448Y153940D01*
X-34473Y153991D01*
X-34495Y154049D01*
X-34517Y154115D01*
X-34539Y154191D01*
X-34561Y154275D01*
X-34579Y154370D01*
X-34597Y154472D01*
X-34608Y154581D01*
X-34615Y154701D01*
X-34619Y154828D01*
Y154832D01*
Y154846D01*
Y154872D01*
Y154901D01*
X-34615Y154941D01*
Y154985D01*
X-34611Y155032D01*
X-34608Y155087D01*
X-34597Y155200D01*
X-34579Y155320D01*
X-34557Y155440D01*
X-34542Y155494D01*
X-34528Y155549D01*
Y155553D01*
X-34524Y155560D01*
X-34517Y155574D01*
X-34510Y155593D01*
X-34502Y155618D01*
X-34488Y155644D01*
X-34459Y155705D01*
X-34422Y155771D01*
X-34375Y155840D01*
X-34320Y155909D01*
X-34255Y155968D01*
X-34251D01*
X-34247Y155975D01*
X-34237Y155982D01*
X-34222Y155989D01*
X-34204Y156004D01*
X-34182Y156015D01*
X-34127Y156044D01*
X-34062Y156070D01*
X-33985Y156095D01*
X-33895Y156109D01*
X-33796Y156117D01*
X-33763D01*
X-33723Y156113D01*
D02*
G37*
%LPC*%
G36*
X65456Y155827D02*
Y155824D01*
X65452Y155816D01*
Y155802D01*
X65445Y155787D01*
X65442Y155762D01*
X65434Y155736D01*
X65420Y155675D01*
X65402Y155602D01*
X65376Y155522D01*
X65351Y155434D01*
X65318Y155343D01*
X65045Y154608D01*
X65897D01*
X65635Y155300D01*
Y155303D01*
X65631Y155314D01*
X65624Y155332D01*
X65616Y155354D01*
X65605Y155380D01*
X65594Y155412D01*
X65583Y155449D01*
X65569Y155485D01*
X65540Y155569D01*
X65511Y155656D01*
X65482Y155744D01*
X65456Y155827D01*
D02*
G37*
G36*
X-27368Y155844D02*
Y155840D01*
X-27372Y155833D01*
Y155818D01*
X-27379Y155804D01*
X-27382Y155778D01*
X-27390Y155753D01*
X-27404Y155691D01*
X-27422Y155618D01*
X-27448Y155538D01*
X-27474Y155451D01*
X-27506Y155360D01*
X-27779Y154624D01*
X-26928D01*
X-27190Y155316D01*
Y155320D01*
X-27193Y155331D01*
X-27200Y155349D01*
X-27208Y155371D01*
X-27219Y155396D01*
X-27230Y155429D01*
X-27240Y155465D01*
X-27255Y155502D01*
X-27284Y155585D01*
X-27313Y155673D01*
X-27343Y155760D01*
X-27368Y155844D01*
D02*
G37*
G36*
X-29716D02*
Y155840D01*
X-29719Y155833D01*
Y155818D01*
X-29727Y155804D01*
X-29730Y155778D01*
X-29738Y155753D01*
X-29752Y155691D01*
X-29770Y155618D01*
X-29796Y155538D01*
X-29821Y155451D01*
X-29854Y155360D01*
X-30127Y154624D01*
X-29275D01*
X-29537Y155316D01*
Y155320D01*
X-29541Y155331D01*
X-29548Y155349D01*
X-29556Y155371D01*
X-29566Y155396D01*
X-29577Y155429D01*
X-29588Y155465D01*
X-29603Y155502D01*
X-29632Y155585D01*
X-29661Y155673D01*
X-29690Y155760D01*
X-29716Y155844D01*
D02*
G37*
G36*
X-37880Y155807D02*
X-38477D01*
Y155050D01*
X-37858D01*
X-37811Y155054D01*
X-37760Y155058D01*
X-37709Y155061D01*
X-37658Y155069D01*
X-37618Y155076D01*
X-37611Y155079D01*
X-37596Y155083D01*
X-37574Y155094D01*
X-37545Y155108D01*
X-37516Y155123D01*
X-37484Y155145D01*
X-37451Y155174D01*
X-37425Y155203D01*
X-37422Y155207D01*
X-37414Y155218D01*
X-37403Y155240D01*
X-37393Y155265D01*
X-37382Y155294D01*
X-37371Y155331D01*
X-37363Y155374D01*
X-37360Y155422D01*
Y155429D01*
Y155443D01*
X-37363Y155465D01*
X-37367Y155494D01*
X-37374Y155531D01*
X-37385Y155567D01*
X-37400Y155604D01*
X-37422Y155640D01*
X-37425Y155644D01*
X-37433Y155655D01*
X-37447Y155673D01*
X-37465Y155691D01*
X-37491Y155713D01*
X-37520Y155735D01*
X-37556Y155756D01*
X-37596Y155771D01*
X-37600D01*
X-37618Y155778D01*
X-37644Y155782D01*
X-37684Y155789D01*
X-37738Y155797D01*
X-37800Y155800D01*
X-37880Y155807D01*
D02*
G37*
G36*
X-37815Y154752D02*
X-38477D01*
Y153885D01*
X-37760D01*
X-37684Y153889D01*
X-37651Y153893D01*
X-37622Y153896D01*
X-37618D01*
X-37604Y153900D01*
X-37582Y153904D01*
X-37556Y153911D01*
X-37494Y153933D01*
X-37433Y153962D01*
X-37429Y153966D01*
X-37418Y153973D01*
X-37403Y153984D01*
X-37385Y153998D01*
X-37367Y154020D01*
X-37341Y154042D01*
X-37323Y154071D01*
X-37301Y154104D01*
X-37298Y154107D01*
X-37294Y154118D01*
X-37287Y154140D01*
X-37276Y154166D01*
X-37265Y154195D01*
X-37258Y154231D01*
X-37254Y154275D01*
X-37251Y154319D01*
Y154326D01*
Y154341D01*
X-37254Y154370D01*
X-37262Y154402D01*
X-37269Y154439D01*
X-37283Y154479D01*
X-37301Y154519D01*
X-37327Y154559D01*
X-37331Y154562D01*
X-37341Y154577D01*
X-37356Y154595D01*
X-37378Y154617D01*
X-37407Y154643D01*
X-37444Y154668D01*
X-37484Y154690D01*
X-37531Y154708D01*
X-37538Y154712D01*
X-37553Y154715D01*
X-37585Y154723D01*
X-37626Y154730D01*
X-37676Y154737D01*
X-37738Y154745D01*
X-37815Y154752D01*
D02*
G37*
G36*
X-33800Y155862D02*
X-33822D01*
X-33836Y155858D01*
X-33876Y155851D01*
X-33924Y155840D01*
X-33978Y155818D01*
X-34036Y155786D01*
X-34065Y155764D01*
X-34095Y155742D01*
X-34120Y155713D01*
X-34146Y155680D01*
Y155676D01*
X-34153Y155669D01*
X-34160Y155655D01*
X-34171Y155636D01*
X-34182Y155607D01*
X-34197Y155574D01*
X-34207Y155534D01*
X-34222Y155487D01*
X-34237Y155432D01*
X-34251Y155371D01*
X-34266Y155301D01*
X-34277Y155225D01*
X-34288Y155138D01*
X-34295Y155043D01*
X-34299Y154941D01*
X-34302Y154828D01*
Y154821D01*
Y154803D01*
Y154770D01*
X-34299Y154726D01*
Y154679D01*
X-34295Y154621D01*
X-34291Y154559D01*
X-34284Y154493D01*
X-34266Y154351D01*
X-34255Y154282D01*
X-34240Y154217D01*
X-34226Y154155D01*
X-34204Y154097D01*
X-34182Y154046D01*
X-34157Y154002D01*
Y153998D01*
X-34149Y153995D01*
X-34131Y153969D01*
X-34098Y153936D01*
X-34058Y153900D01*
X-34004Y153864D01*
X-33942Y153831D01*
X-33873Y153805D01*
X-33836Y153802D01*
X-33796Y153798D01*
X-33774D01*
X-33760Y153802D01*
X-33723Y153809D01*
X-33672Y153824D01*
X-33618Y153849D01*
X-33556Y153885D01*
X-33527Y153907D01*
X-33498Y153936D01*
X-33469Y153966D01*
X-33439Y154002D01*
Y154006D01*
X-33432Y154013D01*
X-33425Y154024D01*
X-33418Y154042D01*
X-33403Y154068D01*
X-33392Y154100D01*
X-33378Y154137D01*
X-33363Y154180D01*
X-33352Y154235D01*
X-33338Y154293D01*
X-33323Y154362D01*
X-33312Y154435D01*
X-33305Y154523D01*
X-33298Y154613D01*
X-33290Y154715D01*
Y154828D01*
Y154832D01*
Y154835D01*
Y154854D01*
Y154886D01*
X-33294Y154930D01*
Y154978D01*
X-33298Y155036D01*
X-33301Y155098D01*
X-33308Y155167D01*
X-33327Y155305D01*
X-33338Y155374D01*
X-33352Y155440D01*
X-33367Y155502D01*
X-33389Y155560D01*
X-33410Y155611D01*
X-33436Y155655D01*
Y155658D01*
X-33443Y155662D01*
X-33450Y155673D01*
X-33461Y155687D01*
X-33494Y155720D01*
X-33534Y155760D01*
X-33589Y155797D01*
X-33651Y155829D01*
X-33683Y155844D01*
X-33720Y155855D01*
X-33760Y155858D01*
X-33800Y155862D01*
D02*
G37*
%LPD*%
D10*
X44291Y-7283D02*
X45000Y-6575D01*
D11*
X-292000Y359500D02*
X-250000D01*
Y314500D02*
Y359500D01*
X-292000Y314500D02*
X-250000D01*
X-292000D02*
Y359500D01*
X68898Y-197D02*
G03*
X65748Y-3347I0J-3150D01*
G01*
X-35433D02*
G03*
X-38583Y-197I-3150J0D01*
G01*
X2953Y0D02*
G03*
X-2953Y0I-2953J0D01*
G01*
X-43898Y187795D02*
X74213D01*
X-35433Y-12795D02*
Y-3347D01*
X74213Y-197D02*
Y187795D01*
X-2953Y-12795D02*
Y0D01*
X65748Y-12795D02*
Y-3347D01*
X2953Y-12795D02*
Y0D01*
X-35433Y-12795D02*
X-2953D01*
X2953D02*
X65748D01*
X68898Y-197D02*
X74213D01*
X-43898D02*
X-38583D01*
X-43898D02*
Y187795D01*
D12*
X28095Y550350D02*
X39906D01*
Y556650D01*
X28095Y550350D02*
Y556650D01*
X39906D01*
X54094Y550850D02*
X65905D01*
Y557150D01*
X54094Y550850D02*
Y557150D01*
X65905D01*
X78594Y550850D02*
X90405D01*
Y557150D01*
X78594Y550850D02*
Y557150D01*
X90405D01*
X-292000Y316000D02*
Y358000D01*
Y316000D02*
X-250000D01*
Y358000D01*
X-292000D02*
X-250000D01*
X-271000Y335032D02*
Y338968D01*
X-272969Y337000D02*
X-269032D01*
X-240150Y331095D02*
Y342905D01*
Y331095D02*
X-233850D01*
X-240150Y342905D02*
X-233850D01*
Y331095D02*
Y342905D01*
X-41600Y493400D02*
Y516600D01*
X-18400Y493400D02*
Y516600D01*
X-41600D02*
X-18400D01*
X-41600Y493400D02*
X-18400D01*
X39906Y550350D02*
Y556650D01*
X28095D02*
X39906D01*
X28095Y550350D02*
Y556650D01*
Y550350D02*
X39906D01*
X65905Y550850D02*
Y557150D01*
X54094D02*
X65905D01*
X54094Y550850D02*
Y557150D01*
Y550850D02*
X65905D01*
X90405D02*
Y557150D01*
X78594D02*
X90405D01*
X78594Y550850D02*
Y557150D01*
Y550850D02*
X90405D01*
X-240150Y331095D02*
X-233850D01*
Y342905D01*
X-240150D02*
X-233850D01*
X-240150Y331095D02*
Y342905D01*
X-18400Y493400D02*
Y516600D01*
X-41600Y493400D02*
X-18400D01*
X-41600D02*
Y516600D01*
X-18400D01*
X-31181Y505000D02*
X-28819D01*
X-30000Y503819D02*
Y506181D01*
D14*
X-91791Y624409D02*
X-85492D01*
Y635433D01*
X-91791Y624409D02*
Y635433D01*
X-85492D01*
X-72106Y624409D02*
X-65807D01*
Y635433D01*
X-72106Y624409D02*
Y635433D01*
X-65807D01*
X-92579Y608268D02*
Y624016D01*
Y608268D02*
X-84705D01*
X-92579Y624016D02*
X-84705D01*
Y608268D02*
Y624016D01*
X-72894Y608268D02*
Y624016D01*
Y608268D02*
X-65020D01*
X-72894Y624016D02*
X-65020D01*
Y608268D02*
Y624016D01*
X-82736Y608268D02*
Y624016D01*
Y608268D02*
X-74862D01*
X-82736Y624016D02*
X-74862D01*
Y608268D02*
Y624016D01*
X-81949Y624409D02*
X-75650D01*
Y635433D01*
X-81949Y624409D02*
Y635433D01*
X-75650D01*
X-84311Y607087D02*
X-84311Y601575D01*
X-84311Y607087D02*
X-73287Y607087D01*
X-84311Y601575D02*
X-73287Y601575D01*
Y607087D02*
X-73287Y601575D01*
X-73287Y601181D02*
X-73287Y595669D01*
X-84311D02*
X-73287Y595669D01*
X-84311Y601181D02*
X-73287Y601181D01*
X-84311Y601181D02*
X-84311Y595669D01*
X-73878Y590059D02*
Y594980D01*
X-83720D02*
X-73878D01*
X-83720Y590059D02*
X-73878D01*
X-83720D02*
Y594980D01*
X-77323Y583661D02*
X-74370D01*
Y589567D01*
X-77323Y583661D02*
Y589567D01*
X-74370D01*
X28488Y558350D02*
Y564650D01*
Y558350D02*
X39512D01*
X28488Y564650D02*
X39512D01*
Y558350D02*
Y564650D01*
X28850Y536988D02*
X35150D01*
Y548012D01*
X28850Y536988D02*
Y548012D01*
X35150D01*
X25626Y566063D02*
X41374D01*
Y573937D01*
X25626Y566063D02*
Y573937D01*
X41374D01*
X25626Y583937D02*
X41374D01*
X25626Y576063D02*
Y583937D01*
X41374Y576063D02*
Y583937D01*
X25626Y576063D02*
X41374D01*
X25626Y586063D02*
X41374D01*
Y593937D01*
X25626Y586063D02*
Y593937D01*
X41374D01*
X54850Y536988D02*
X61150D01*
Y548012D01*
X54850Y536988D02*
Y548012D01*
X61150D01*
X51626Y566063D02*
X67374D01*
Y573937D01*
X51626Y566063D02*
Y573937D01*
X67374D01*
X52126Y583937D02*
X67874D01*
X52126Y576063D02*
Y583937D01*
X67874Y576063D02*
Y583937D01*
X52126Y576063D02*
X67874D01*
X52626Y586063D02*
X68374D01*
Y593937D01*
X52626Y586063D02*
Y593937D01*
X68374D01*
X79850Y536988D02*
X86150D01*
Y548012D01*
X79850Y536988D02*
Y548012D01*
X86150D01*
X77626Y566063D02*
X93374D01*
Y573937D01*
X77626Y566063D02*
Y573937D01*
X93374D01*
X77720Y583937D02*
X93468D01*
X77720Y576063D02*
Y583937D01*
X93468Y576063D02*
Y583937D01*
X77720Y576063D02*
X93468D01*
X77626Y586063D02*
X93374D01*
Y593937D01*
X77626Y586063D02*
Y593937D01*
X93374D01*
X54488Y558350D02*
Y564650D01*
Y558350D02*
X65512D01*
X54488Y564650D02*
X65512D01*
Y558350D02*
Y564650D01*
X79488Y558350D02*
Y564650D01*
Y558350D02*
X90512D01*
X79488Y564650D02*
X90512D01*
Y558350D02*
Y564650D01*
X-180147Y515524D02*
Y518476D01*
X-186053D02*
X-180147D01*
X-186053Y515524D02*
X-180147D01*
X-186053D02*
Y518476D01*
X-175576Y497854D02*
X-172624D01*
Y503760D01*
X-175576Y497854D02*
Y503760D01*
X-172624D01*
X-185553Y525476D02*
X-179647D01*
X-185553Y522524D02*
X-179647D01*
Y525476D01*
X-185553Y522524D02*
Y525476D01*
X-186442Y457039D02*
X-166758D01*
X-186442Y486961D02*
X-166758D01*
X-186442Y457039D02*
Y486961D01*
X-166758Y457039D02*
Y486961D01*
X-189750Y553488D02*
X-183450D01*
Y564512D01*
X-189750Y553488D02*
Y564512D01*
X-183450D01*
X-188250Y568988D02*
X-181950D01*
Y580012D01*
X-188250Y568988D02*
Y580012D01*
X-181950D01*
X-189443Y585358D02*
X-169757D01*
X-189443Y617642D02*
X-169757D01*
X-189443Y585358D02*
Y617642D01*
X-169757Y585358D02*
Y617642D01*
X-190474Y548543D02*
X-174726Y548543D01*
X-190474Y548543D02*
X-190474Y541457D01*
X-174726Y548543D02*
X-174726Y541457D01*
X-190474Y541457D02*
X-174726Y541457D01*
X-187405Y623382D02*
Y633618D01*
X-169295Y623382D02*
Y633618D01*
X-187405Y623382D02*
X-169295D01*
X-187405Y633618D02*
X-169295D01*
X-175750Y552988D02*
X-169450D01*
Y564012D01*
X-175750Y552988D02*
Y564012D01*
X-169450D01*
X-177250Y568988D02*
X-170950D01*
Y580012D01*
X-177250Y568988D02*
Y580012D01*
X-170950D01*
X-227647Y515524D02*
Y518476D01*
X-233553D02*
X-227647D01*
X-233553Y515524D02*
X-227647D01*
X-233553D02*
Y518476D01*
X-226576Y496854D02*
X-223624D01*
Y502760D01*
X-226576Y496854D02*
Y502760D01*
X-223624D01*
X-233553Y524476D02*
X-227647D01*
X-233553Y521524D02*
X-227647D01*
Y524476D01*
X-233553Y521524D02*
Y524476D01*
X-237943Y460539D02*
X-218257D01*
X-237943Y490461D02*
X-218257D01*
X-237943Y460539D02*
Y490461D01*
X-218257Y460539D02*
Y490461D01*
X-241250Y555488D02*
X-234950D01*
Y566512D01*
X-241250Y555488D02*
Y566512D01*
X-234950D01*
X-241250Y569988D02*
X-234950D01*
Y581012D01*
X-241250Y569988D02*
Y581012D01*
X-234950D01*
X-240943Y584858D02*
X-221257D01*
X-240943Y617142D02*
X-221257D01*
X-240943Y584858D02*
Y617142D01*
X-221257Y584858D02*
Y617142D01*
X-239974Y550543D02*
X-224226Y550543D01*
X-239974Y550543D02*
X-239974Y543457D01*
X-224226Y550543D02*
X-224226Y543457D01*
X-239974Y543457D02*
X-224226Y543457D01*
X-239155Y622882D02*
Y633118D01*
X-221045Y622882D02*
Y633118D01*
X-239155Y622882D02*
X-221045D01*
X-239155Y633118D02*
X-221045D01*
X-228250Y554307D02*
X-221950D01*
Y565331D01*
X-228250Y554307D02*
Y565331D01*
X-221950D01*
X-228250Y569988D02*
X-221950D01*
Y581012D01*
X-228250Y569988D02*
Y581012D01*
X-221950D01*
X-285476Y367453D02*
X-282524D01*
X-285476Y361547D02*
Y367453D01*
X-282524Y361547D02*
Y367453D01*
X-285476Y361547D02*
X-282524D01*
X-269476Y367453D02*
X-266524D01*
X-269476Y361547D02*
Y367453D01*
X-266524Y361547D02*
Y367453D01*
X-269476Y361547D02*
X-266524D01*
X-269976Y301547D02*
X-267024D01*
Y307453D01*
X-269976Y301547D02*
Y307453D01*
X-267024D01*
X-283976Y301547D02*
X-281024D01*
Y307453D01*
X-283976Y301547D02*
Y307453D01*
X-281024D01*
X-300461Y357579D02*
X-295539D01*
Y367421D01*
X-300461Y357579D02*
Y367421D01*
X-295539D01*
X-274976Y367453D02*
X-272024D01*
X-274976Y361547D02*
Y367453D01*
X-272024Y361547D02*
Y367453D01*
X-274976Y361547D02*
X-272024D01*
X-274787Y307488D02*
X-271835D01*
X-274787Y301583D02*
Y307488D01*
X-271835Y301583D02*
Y307488D01*
X-274787Y301583D02*
X-271835D01*
X-280476Y367453D02*
X-277524D01*
X-280476Y361547D02*
Y367453D01*
X-277524Y361547D02*
Y367453D01*
X-280476Y361547D02*
X-277524D01*
X-279787Y307488D02*
X-276835D01*
X-279787Y301583D02*
Y307488D01*
X-276835Y301583D02*
Y307488D01*
X-279787Y301583D02*
X-276835D01*
X-258787Y302083D02*
X-255835D01*
Y307988D01*
X-258787Y302083D02*
Y307988D01*
X-255835D01*
X-288147Y514024D02*
Y516976D01*
X-294053D02*
X-288147D01*
X-294053Y514024D02*
X-288147D01*
X-294053D02*
Y516976D01*
X-287576Y491047D02*
X-284624D01*
Y496953D01*
X-287576Y491047D02*
Y496953D01*
X-284624D01*
X-293553Y519024D02*
X-287647D01*
X-293553Y521976D02*
X-287647D01*
X-293553Y519024D02*
Y521976D01*
X-287647Y519024D02*
Y521976D01*
X-300443Y457539D02*
X-280757D01*
X-300443Y487461D02*
X-280757D01*
X-300443Y457539D02*
Y487461D01*
X-280757Y457539D02*
Y487461D01*
X-298250Y556988D02*
X-291950D01*
Y568012D01*
X-298250Y556988D02*
Y568012D01*
X-291950D01*
X-297750Y572488D02*
X-291450D01*
Y583512D01*
X-297750Y572488D02*
Y583512D01*
X-291450D01*
X-298942Y587358D02*
X-279257D01*
X-298942Y619642D02*
X-279257D01*
X-298942Y587358D02*
Y619642D01*
X-279257Y587358D02*
Y619642D01*
X-297474Y552043D02*
X-281726Y552043D01*
X-297474Y552043D02*
X-297474Y544957D01*
X-281726Y552043D02*
X-281726Y544957D01*
X-297474Y544957D02*
X-281726Y544957D01*
X-298155Y623382D02*
Y633618D01*
X-280045Y623382D02*
Y633618D01*
X-298155Y623382D02*
X-280045D01*
X-298155Y633618D02*
X-280045D01*
X-287750Y557488D02*
X-281450D01*
Y568512D01*
X-287750Y557488D02*
Y568512D01*
X-281450D01*
X-287250Y572488D02*
X-280950D01*
Y583512D01*
X-287250Y572488D02*
Y583512D01*
X-280950D01*
X-13453Y500024D02*
Y502976D01*
Y500024D02*
X-7547D01*
X-13453Y502976D02*
X-7547D01*
Y500024D02*
Y502976D01*
X-37976Y487453D02*
X-35024D01*
X-37976Y481547D02*
Y487453D01*
X-35024Y481547D02*
Y487453D01*
X-37976Y481547D02*
X-35024D01*
X-13453Y492024D02*
Y494976D01*
Y492024D02*
X-7547D01*
X-13453Y494976D02*
X-7547D01*
Y492024D02*
Y494976D01*
X-46047Y500024D02*
Y502976D01*
X-51953D02*
X-46047D01*
X-51953Y500024D02*
X-46047D01*
X-51953D02*
Y502976D01*
X-46047Y510524D02*
Y513476D01*
X-51953D02*
X-46047D01*
X-51953Y510524D02*
X-46047D01*
X-51953D02*
Y513476D01*
Y507024D02*
Y509976D01*
Y507024D02*
X-46047D01*
X-51953Y509976D02*
X-46047D01*
Y507024D02*
Y509976D01*
X-7547Y508024D02*
Y510976D01*
X-13453D02*
X-7547D01*
X-13453Y508024D02*
X-7547D01*
X-13453D02*
Y510976D01*
X-7547Y504024D02*
Y506976D01*
X-13453D02*
X-7547D01*
X-13453Y504024D02*
X-7547D01*
X-13453D02*
Y506976D01*
X-16047Y471024D02*
Y473976D01*
X-21953D02*
X-16047D01*
X-21953Y471024D02*
X-16047D01*
X-21953D02*
Y473976D01*
X-51453Y492524D02*
Y495476D01*
Y492524D02*
X-45547D01*
X-51453Y495476D02*
X-45547D01*
Y492524D02*
Y495476D01*
X-38953Y467024D02*
Y469976D01*
Y467024D02*
X-33047D01*
X-38953Y469976D02*
X-33047D01*
Y467024D02*
Y469976D01*
X-7547Y496024D02*
Y498976D01*
X-13453D02*
X-7547D01*
X-13453Y496024D02*
X-7547D01*
X-13453D02*
Y498976D01*
X-34476Y481547D02*
X-31524D01*
Y487453D01*
X-34476Y481547D02*
Y487453D01*
X-31524D01*
X-51453Y496024D02*
Y498976D01*
Y496024D02*
X-45547D01*
X-51453Y498976D02*
X-45547D01*
Y496024D02*
Y498976D01*
X-51953Y503524D02*
Y506476D01*
Y503524D02*
X-46047D01*
X-51953Y506476D02*
X-46047D01*
Y503524D02*
Y506476D01*
X-30476Y487453D02*
X-27524D01*
X-30476Y481547D02*
Y487453D01*
X-27524Y481547D02*
Y487453D01*
X-30476Y481547D02*
X-27524D01*
X-51953Y514024D02*
Y516976D01*
Y514024D02*
X-46047D01*
X-51953Y516976D02*
X-46047D01*
Y514024D02*
Y516976D01*
X-32224Y466563D02*
X-22776D01*
X-32224Y474437D02*
X-22776D01*
X-32224Y466563D02*
Y474437D01*
X-22776Y466563D02*
Y474437D01*
X-7547Y511524D02*
Y514476D01*
X-13453D02*
X-7547D01*
X-13453Y511524D02*
X-7547D01*
X-13453D02*
Y514476D01*
X-20961Y488921D02*
X-16039D01*
X-20961Y479079D02*
Y488921D01*
X-16039Y479079D02*
Y488921D01*
X-20961Y479079D02*
X-16039D01*
X-85295Y590059D02*
Y594980D01*
X-95138D02*
X-85295D01*
X-95138Y590059D02*
X-85295D01*
X-95138D02*
Y594980D01*
X-84705Y601181D02*
X-84705Y595669D01*
X-95728D02*
X-84705Y595669D01*
X-95728Y601181D02*
X-84705Y601181D01*
X-95728Y601181D02*
X-95728Y595669D01*
Y607087D02*
X-95728Y601575D01*
X-95728Y607087D02*
X-84705Y607087D01*
X-95728Y601575D02*
X-84705Y601575D01*
Y607087D02*
X-84705Y601575D01*
X-88740Y583661D02*
X-85787D01*
Y589567D01*
X-88740Y583661D02*
Y589567D01*
X-85787D01*
X-62461Y590059D02*
Y594980D01*
X-72303D02*
X-62461D01*
X-72303Y590059D02*
X-62461D01*
X-72303D02*
Y594980D01*
X-61870Y601181D02*
X-61870Y595669D01*
X-72894D02*
X-61870Y595669D01*
X-72894Y601181D02*
X-61870Y601181D01*
X-72894Y601181D02*
X-72894Y595669D01*
Y607087D02*
X-72894Y601575D01*
X-72894Y607087D02*
X-61870Y607087D01*
X-72894Y601575D02*
X-61870Y601575D01*
Y607087D02*
X-61870Y601575D01*
X-65905Y583661D02*
X-62953D01*
Y589567D01*
X-65905Y583661D02*
Y589567D01*
X-62953D01*
X-101476Y293047D02*
X-98524D01*
Y298953D01*
X-101476Y293047D02*
Y298953D01*
X-98524D01*
X-105524Y293547D02*
Y299453D01*
X-108476Y293547D02*
Y299453D01*
Y293547D02*
X-105524D01*
X-108476Y299453D02*
X-105524D01*
X-108874Y336039D02*
X-93126D01*
Y365961D01*
X-108874D02*
X-93126D01*
X-108874Y336039D02*
Y365961D01*
X-96976Y372547D02*
X-94024D01*
Y378453D01*
X-96976Y372547D02*
Y378453D01*
X-94024D01*
X-101976Y324547D02*
X-99024D01*
Y330453D01*
X-101976Y324547D02*
Y330453D01*
X-99024D01*
X-155976Y293819D02*
X-153024D01*
Y299724D01*
X-155976Y293819D02*
Y299724D01*
X-153024D01*
X-160524Y294276D02*
Y300181D01*
X-163476Y294276D02*
Y300181D01*
Y294276D02*
X-160524D01*
X-163476Y300181D02*
X-160524D01*
X-167374Y336039D02*
X-151626D01*
Y365961D01*
X-167374D02*
X-151626D01*
X-167374Y336039D02*
Y365961D01*
X-155976Y371047D02*
X-153024D01*
Y376953D01*
X-155976Y371047D02*
Y376953D01*
X-153024D01*
X-160976Y323547D02*
X-158024D01*
Y329453D01*
X-160976Y323547D02*
Y329453D01*
X-158024D01*
X13193Y669402D02*
X99807D01*
X13193Y620189D02*
X99807D01*
X13193D02*
Y669402D01*
X99807Y620189D02*
Y669402D01*
X-106299Y659248D02*
X-51181D01*
X-106299Y635626D02*
X-51181D01*
X-106299D02*
Y659248D01*
X-51181Y635626D02*
Y659248D01*
X-91791Y624409D02*
X-85492D01*
X-91791Y635433D02*
X-85492D01*
Y624409D02*
Y635433D01*
X-91791Y624409D02*
Y635433D01*
X-88642Y628937D02*
Y630905D01*
X-89626Y629921D02*
X-87657D01*
X-72106Y624409D02*
X-65807D01*
X-72106Y635433D02*
X-65807D01*
Y624409D02*
Y635433D01*
X-72106Y624409D02*
Y635433D01*
X-68957Y628937D02*
Y630905D01*
X-69941Y629921D02*
X-67972D01*
X-84705Y608268D02*
Y624016D01*
X-92579Y608268D02*
Y624016D01*
Y608268D02*
X-84705D01*
X-92579Y624016D02*
X-84705D01*
X-89626Y616142D02*
X-87657D01*
X-88642Y615158D02*
Y617126D01*
X-65020Y608268D02*
Y624016D01*
X-72894Y608268D02*
Y624016D01*
Y608268D02*
X-65020D01*
X-72894Y624016D02*
X-65020D01*
X-69941Y616142D02*
X-67972D01*
X-68957Y615158D02*
Y617126D01*
X-74862Y608268D02*
Y624016D01*
X-82736Y608268D02*
Y624016D01*
Y608268D02*
X-74862D01*
X-82736Y624016D02*
X-74862D01*
X-79783Y616142D02*
X-77815D01*
X-78799Y615158D02*
Y617126D01*
X-81949Y624409D02*
X-75650D01*
X-81949Y635433D02*
X-75650D01*
Y624409D02*
Y635433D01*
X-81949Y624409D02*
Y635433D01*
X-78799Y628937D02*
Y630905D01*
X-79783Y629921D02*
X-77815D01*
X-84311Y607087D02*
X-73287Y607087D01*
X-84311Y601575D02*
X-73287Y601575D01*
X-84311Y607087D02*
X-84311Y601575D01*
X-73287Y607087D02*
X-73287Y601575D01*
X-79587Y604331D02*
X-78012D01*
X-78799Y603543D02*
Y605118D01*
X-84311Y595669D02*
X-73287Y595669D01*
X-84311Y601181D02*
X-73287Y601181D01*
X-73287Y601181D02*
X-73287Y595669D01*
X-84311Y601181D02*
X-84311Y595669D01*
X-79587Y598425D02*
X-78012D01*
X-78799Y597638D02*
Y599213D01*
X-83720Y594980D02*
X-73878D01*
X-83720Y590059D02*
X-73878D01*
X-79783Y592520D02*
X-77815D01*
X-78799Y591535D02*
Y593504D01*
X-73878Y590059D02*
Y594980D01*
X-83720Y590059D02*
Y594980D01*
X-77323Y583661D02*
X-74370D01*
X-77323Y589567D02*
X-74370D01*
Y583661D02*
Y589567D01*
X-77323Y583661D02*
Y589567D01*
X-75846Y585630D02*
Y587598D01*
X-76831Y586614D02*
X-74862D01*
X28488Y558350D02*
Y564650D01*
X39512Y558350D02*
Y564650D01*
X28488Y558350D02*
X39512D01*
X28488Y564650D02*
X39512D01*
X33016Y561500D02*
X34984D01*
X34000Y560516D02*
Y562484D01*
X28850Y536988D02*
X35150D01*
X28850Y548012D02*
X35150D01*
Y536988D02*
Y548012D01*
X28850Y536988D02*
Y548012D01*
X32000Y541516D02*
Y543484D01*
X31016Y542500D02*
X32984D01*
X25626Y573937D02*
X41374D01*
X25626Y566063D02*
X41374D01*
Y573937D01*
X25626Y566063D02*
Y573937D01*
X33500Y569016D02*
Y570984D01*
X32516Y570000D02*
X34484D01*
X25626Y576063D02*
X41374D01*
X25626Y583937D02*
X41374D01*
X25626Y576063D02*
Y583937D01*
X41374Y576063D02*
Y583937D01*
X33500Y579016D02*
Y580984D01*
X32516Y580000D02*
X34484D01*
X25626Y593937D02*
X41374D01*
X25626Y586063D02*
X41374D01*
Y593937D01*
X25626Y586063D02*
Y593937D01*
X33500Y589016D02*
Y590984D01*
X32516Y590000D02*
X34484D01*
X54850Y536988D02*
X61150D01*
X54850Y548012D02*
X61150D01*
Y536988D02*
Y548012D01*
X54850Y536988D02*
Y548012D01*
X58000Y541516D02*
Y543484D01*
X57016Y542500D02*
X58984D01*
X51626Y573937D02*
X67374D01*
X51626Y566063D02*
X67374D01*
Y573937D01*
X51626Y566063D02*
Y573937D01*
X59500Y569016D02*
Y570984D01*
X58516Y570000D02*
X60484D01*
X52126Y576063D02*
X67874D01*
X52126Y583937D02*
X67874D01*
X52126Y576063D02*
Y583937D01*
X67874Y576063D02*
Y583937D01*
X60000Y579016D02*
Y580984D01*
X59016Y580000D02*
X60984D01*
X52626Y593937D02*
X68374D01*
X52626Y586063D02*
X68374D01*
Y593937D01*
X52626Y586063D02*
Y593937D01*
X60500Y589016D02*
Y590984D01*
X59516Y590000D02*
X61484D01*
X79850Y536988D02*
X86150D01*
X79850Y548012D02*
X86150D01*
Y536988D02*
Y548012D01*
X79850Y536988D02*
Y548012D01*
X83000Y541516D02*
Y543484D01*
X82016Y542500D02*
X83984D01*
X77626Y573937D02*
X93374D01*
X77626Y566063D02*
X93374D01*
Y573937D01*
X77626Y566063D02*
Y573937D01*
X85500Y569016D02*
Y570984D01*
X84516Y570000D02*
X86484D01*
X77720Y576063D02*
X93468D01*
X77720Y583937D02*
X93468D01*
X77720Y576063D02*
Y583937D01*
X93468Y576063D02*
Y583937D01*
X85594Y579016D02*
Y580984D01*
X84610Y580000D02*
X86579D01*
X77626Y593937D02*
X93374D01*
X77626Y586063D02*
X93374D01*
Y593937D01*
X77626Y586063D02*
Y593937D01*
X85500Y589016D02*
Y590984D01*
X84516Y590000D02*
X86484D01*
X54488Y558350D02*
Y564650D01*
X65512Y558350D02*
Y564650D01*
X54488Y558350D02*
X65512D01*
X54488Y564650D02*
X65512D01*
X59016Y561500D02*
X60984D01*
X60000Y560516D02*
Y562484D01*
X79488Y558350D02*
Y564650D01*
X90512Y558350D02*
Y564650D01*
X79488Y558350D02*
X90512D01*
X79488Y564650D02*
X90512D01*
X84016Y561500D02*
X85984D01*
X85000Y560516D02*
Y562484D01*
X-180147Y515524D02*
Y518476D01*
X-186053Y515524D02*
Y518476D01*
X-180147D01*
X-186053Y515524D02*
X-180147D01*
X-184084Y517000D02*
X-182116D01*
X-183100Y516016D02*
Y517984D01*
X-175576Y497854D02*
X-172624D01*
X-175576Y503760D02*
X-172624D01*
Y497854D02*
Y503760D01*
X-175576Y497854D02*
Y503760D01*
X-174100Y499823D02*
Y501791D01*
X-175084Y500807D02*
X-173116D01*
X-183584Y524000D02*
X-181616D01*
X-182600Y523016D02*
Y524984D01*
X-179647Y522524D02*
Y525476D01*
X-185553Y522524D02*
Y525476D01*
X-179647D01*
X-185553Y522524D02*
X-179647D01*
X-177584Y472000D02*
X-175616D01*
X-176600Y471016D02*
Y472984D01*
X-186442Y457039D02*
Y486961D01*
X-166758D01*
X-186442Y457039D02*
X-166758D01*
Y486961D01*
X-189750Y553488D02*
X-183450D01*
X-189750Y564512D02*
X-183450D01*
Y553488D02*
Y564512D01*
X-189750Y553488D02*
Y564512D01*
X-186600Y558016D02*
Y559984D01*
X-187584Y559000D02*
X-185616D01*
X-188250Y568988D02*
X-181950D01*
X-188250Y580012D02*
X-181950D01*
Y568988D02*
Y580012D01*
X-188250Y568988D02*
Y580012D01*
X-185100Y573516D02*
Y575484D01*
X-186084Y574500D02*
X-184116D01*
X-189443Y617642D02*
X-169757D01*
X-189443Y585358D02*
Y617642D01*
Y585358D02*
X-169757D01*
X-180584Y601500D02*
X-178616D01*
X-179600Y600516D02*
Y602484D01*
X-169757Y585358D02*
Y617642D01*
X-190474Y541457D02*
X-174726Y541457D01*
X-190474Y548543D02*
X-174726Y548543D01*
X-174726Y541457D01*
X-190474Y548543D02*
X-190474Y541457D01*
X-183387Y545000D02*
X-181813D01*
X-182600Y544213D02*
Y545787D01*
X-187405Y633618D02*
X-169295D01*
X-187405Y623382D02*
X-169295D01*
X-187405D02*
Y633618D01*
X-169295Y623382D02*
Y633618D01*
X-178350Y627516D02*
Y629484D01*
X-179334Y628500D02*
X-177366D01*
X-175750Y552988D02*
X-169450D01*
X-175750Y564012D02*
X-169450D01*
Y552988D02*
Y564012D01*
X-175750Y552988D02*
Y564012D01*
X-172600Y557516D02*
Y559484D01*
X-173584Y558500D02*
X-171616D01*
X-177250Y568988D02*
X-170950D01*
X-177250Y580012D02*
X-170950D01*
Y568988D02*
Y580012D01*
X-177250Y568988D02*
Y580012D01*
X-174100Y573516D02*
Y575484D01*
X-175084Y574500D02*
X-173116D01*
X-227647Y515524D02*
Y518476D01*
X-233553Y515524D02*
Y518476D01*
X-227647D01*
X-233553Y515524D02*
X-227647D01*
X-231584Y517000D02*
X-229616D01*
X-230600Y516016D02*
Y517984D01*
X-226576Y496854D02*
X-223624D01*
X-226576Y502760D02*
X-223624D01*
Y496854D02*
Y502760D01*
X-226576Y496854D02*
Y502760D01*
X-225100Y498823D02*
Y500791D01*
X-226084Y499807D02*
X-224116D01*
X-231584Y523000D02*
X-229616D01*
X-230600Y522016D02*
Y523984D01*
X-227647Y521524D02*
Y524476D01*
X-233553Y521524D02*
Y524476D01*
X-227647D01*
X-233553Y521524D02*
X-227647D01*
X-229084Y475500D02*
X-227116D01*
X-228100Y474516D02*
Y476484D01*
X-237943Y460539D02*
Y490461D01*
X-218257D01*
X-237943Y460539D02*
X-218257D01*
Y490461D01*
X-241250Y555488D02*
X-234950D01*
X-241250Y566512D02*
X-234950D01*
Y555488D02*
Y566512D01*
X-241250Y555488D02*
Y566512D01*
X-238100Y560016D02*
Y561984D01*
X-239084Y561000D02*
X-237116D01*
X-241250Y569988D02*
X-234950D01*
X-241250Y581012D02*
X-234950D01*
Y569988D02*
Y581012D01*
X-241250Y569988D02*
Y581012D01*
X-238100Y574516D02*
Y576484D01*
X-239084Y575500D02*
X-237116D01*
X-240943Y617142D02*
X-221257D01*
X-240943Y584858D02*
Y617142D01*
Y584858D02*
X-221257D01*
X-232084Y601000D02*
X-230116D01*
X-231100Y600016D02*
Y601984D01*
X-221257Y584858D02*
Y617142D01*
X-239974Y543457D02*
X-224226Y543457D01*
X-239974Y550543D02*
X-224226Y550543D01*
X-224226Y543457D01*
X-239974Y550543D02*
X-239974Y543457D01*
X-232887Y547000D02*
X-231313D01*
X-232100Y546213D02*
Y547787D01*
X-239155Y633118D02*
X-221045D01*
X-239155Y622882D02*
X-221045D01*
X-239155D02*
Y633118D01*
X-221045Y622882D02*
Y633118D01*
X-230100Y627016D02*
Y628984D01*
X-231084Y628000D02*
X-229116D01*
X-228250Y554307D02*
X-221950D01*
X-228250Y565331D02*
X-221950D01*
Y554307D02*
Y565331D01*
X-228250Y554307D02*
Y565331D01*
X-225100Y558835D02*
Y560803D01*
X-226084Y559819D02*
X-224116D01*
X-228250Y569988D02*
X-221950D01*
X-228250Y581012D02*
X-221950D01*
Y569988D02*
Y581012D01*
X-228250Y569988D02*
Y581012D01*
X-225100Y574516D02*
Y576484D01*
X-226084Y575500D02*
X-224116D01*
X-285476Y367453D02*
X-282524D01*
X-285476Y361547D02*
X-282524D01*
X-285476D02*
Y367453D01*
X-282524Y361547D02*
Y367453D01*
X-284000Y363516D02*
Y365484D01*
X-284984Y364500D02*
X-283016D01*
X-269476Y367453D02*
X-266524D01*
X-269476Y361547D02*
X-266524D01*
X-269476D02*
Y367453D01*
X-266524Y361547D02*
Y367453D01*
X-268000Y363516D02*
Y365484D01*
X-268984Y364500D02*
X-267016D01*
X-269976Y301547D02*
X-267024D01*
X-269976Y307453D02*
X-267024D01*
Y301547D02*
Y307453D01*
X-269976Y301547D02*
Y307453D01*
X-268500Y303516D02*
Y305484D01*
X-269484Y304500D02*
X-267516D01*
X-283976Y301547D02*
X-281024D01*
X-283976Y307453D02*
X-281024D01*
Y301547D02*
Y307453D01*
X-283976Y301547D02*
Y307453D01*
X-282500Y303516D02*
Y305484D01*
X-283484Y304500D02*
X-281516D01*
X-295539Y357579D02*
Y367421D01*
X-300461Y357579D02*
Y367421D01*
X-298000Y361516D02*
Y363484D01*
X-298984Y362500D02*
X-297016D01*
X-300461Y357579D02*
X-295539D01*
X-300461Y367421D02*
X-295539D01*
X-274976Y367453D02*
X-272024D01*
X-274976Y361547D02*
X-272024D01*
X-274976D02*
Y367453D01*
X-272024Y361547D02*
Y367453D01*
X-273500Y363516D02*
Y365484D01*
X-274484Y364500D02*
X-272516D01*
X-274787Y307488D02*
X-271835D01*
X-274787Y301583D02*
X-271835D01*
X-274787D02*
Y307488D01*
X-271835Y301583D02*
Y307488D01*
X-273311Y303551D02*
Y305520D01*
X-274295Y304535D02*
X-272327D01*
X-280476Y367453D02*
X-277524D01*
X-280476Y361547D02*
X-277524D01*
X-280476D02*
Y367453D01*
X-277524Y361547D02*
Y367453D01*
X-279000Y363516D02*
Y365484D01*
X-279984Y364500D02*
X-278016D01*
X-279787Y307488D02*
X-276835D01*
X-279787Y301583D02*
X-276835D01*
X-279787D02*
Y307488D01*
X-276835Y301583D02*
Y307488D01*
X-278311Y303551D02*
Y305520D01*
X-279295Y304535D02*
X-277327D01*
X-258787Y302083D02*
X-255835D01*
X-258787Y307988D02*
X-255835D01*
Y302083D02*
Y307988D01*
X-258787Y302083D02*
Y307988D01*
X-257311Y304051D02*
Y306020D01*
X-258295Y305035D02*
X-256327D01*
X-288147Y514024D02*
Y516976D01*
X-294053Y514024D02*
Y516976D01*
X-288147D01*
X-294053Y514024D02*
X-288147D01*
X-292084Y515500D02*
X-290116D01*
X-291100Y514516D02*
Y516484D01*
X-287576Y491047D02*
X-284624D01*
X-287576Y496953D02*
X-284624D01*
Y491047D02*
Y496953D01*
X-287576Y491047D02*
Y496953D01*
X-286100Y493016D02*
Y494984D01*
X-287084Y494000D02*
X-285116D01*
X-291584Y520500D02*
X-289616D01*
X-290600Y519516D02*
Y521484D01*
X-293553Y519024D02*
Y521976D01*
X-287647Y519024D02*
Y521976D01*
X-293553Y519024D02*
X-287647D01*
X-293553Y521976D02*
X-287647D01*
X-291584Y472500D02*
X-289616D01*
X-290600Y471516D02*
Y473484D01*
X-300443Y457539D02*
Y487461D01*
X-280757D01*
X-300443Y457539D02*
X-280757D01*
Y487461D01*
X-298250Y556988D02*
X-291950D01*
X-298250Y568012D02*
X-291950D01*
Y556988D02*
Y568012D01*
X-298250Y556988D02*
Y568012D01*
X-295100Y561516D02*
Y563484D01*
X-296084Y562500D02*
X-294116D01*
X-297750Y572488D02*
X-291450D01*
X-297750Y583512D02*
X-291450D01*
Y572488D02*
Y583512D01*
X-297750Y572488D02*
Y583512D01*
X-294600Y577016D02*
Y578984D01*
X-295584Y578000D02*
X-293616D01*
X-298942Y619642D02*
X-279257D01*
X-298942Y587358D02*
Y619642D01*
Y587358D02*
X-279257D01*
X-290084Y603500D02*
X-288116D01*
X-289100Y602516D02*
Y604484D01*
X-279257Y587358D02*
Y619642D01*
X-297474Y544957D02*
X-281726Y544957D01*
X-297474Y552043D02*
X-281726Y552043D01*
X-281726Y544957D01*
X-297474Y552043D02*
X-297474Y544957D01*
X-290387Y548500D02*
X-288813D01*
X-289600Y547713D02*
Y549287D01*
X-298155Y633618D02*
X-280045D01*
X-298155Y623382D02*
X-280045D01*
X-298155D02*
Y633618D01*
X-280045Y623382D02*
Y633618D01*
X-289100Y627516D02*
Y629484D01*
X-290084Y628500D02*
X-288116D01*
X-287750Y557488D02*
X-281450D01*
X-287750Y568512D02*
X-281450D01*
Y557488D02*
Y568512D01*
X-287750Y557488D02*
Y568512D01*
X-284600Y562016D02*
Y563984D01*
X-285584Y563000D02*
X-283616D01*
X-287250Y572488D02*
X-280950D01*
X-287250Y583512D02*
X-280950D01*
Y572488D02*
Y583512D01*
X-287250Y572488D02*
Y583512D01*
X-284100Y577016D02*
Y578984D01*
X-285084Y578000D02*
X-283116D01*
X-13453Y500024D02*
Y502976D01*
X-7547Y500024D02*
Y502976D01*
X-13453Y500024D02*
X-7547D01*
X-13453Y502976D02*
X-7547D01*
X-11484Y501500D02*
X-9516D01*
X-10500Y500516D02*
Y502484D01*
X-37976Y487453D02*
X-35024D01*
X-37976Y481547D02*
X-35024D01*
X-37976D02*
Y487453D01*
X-35024Y481547D02*
Y487453D01*
X-36500Y483516D02*
Y485484D01*
X-37484Y484500D02*
X-35516D01*
X-13453Y492024D02*
Y494976D01*
X-7547Y492024D02*
Y494976D01*
X-13453Y492024D02*
X-7547D01*
X-13453Y494976D02*
X-7547D01*
X-11484Y493500D02*
X-9516D01*
X-10500Y492516D02*
Y494484D01*
X-46047Y500024D02*
Y502976D01*
X-51953Y500024D02*
Y502976D01*
X-46047D01*
X-51953Y500024D02*
X-46047D01*
X-49984Y501500D02*
X-48016D01*
X-49000Y500516D02*
Y502484D01*
X-46047Y510524D02*
Y513476D01*
X-51953Y510524D02*
Y513476D01*
X-46047D01*
X-51953Y510524D02*
X-46047D01*
X-49984Y512000D02*
X-48016D01*
X-49000Y511016D02*
Y512984D01*
X-51953Y507024D02*
Y509976D01*
X-46047Y507024D02*
Y509976D01*
X-51953Y507024D02*
X-46047D01*
X-51953Y509976D02*
X-46047D01*
X-49984Y508500D02*
X-48016D01*
X-49000Y507516D02*
Y509484D01*
X-7547Y508024D02*
Y510976D01*
X-13453Y508024D02*
Y510976D01*
X-7547D01*
X-13453Y508024D02*
X-7547D01*
X-11484Y509500D02*
X-9516D01*
X-10500Y508516D02*
Y510484D01*
X-7547Y504024D02*
Y506976D01*
X-13453Y504024D02*
Y506976D01*
X-7547D01*
X-13453Y504024D02*
X-7547D01*
X-11484Y505500D02*
X-9516D01*
X-10500Y504516D02*
Y506484D01*
X-16047Y471024D02*
Y473976D01*
X-21953Y471024D02*
Y473976D01*
X-16047D01*
X-21953Y471024D02*
X-16047D01*
X-19984Y472500D02*
X-18016D01*
X-19000Y471516D02*
Y473484D01*
X-51453Y492524D02*
Y495476D01*
X-45547Y492524D02*
Y495476D01*
X-51453Y492524D02*
X-45547D01*
X-51453Y495476D02*
X-45547D01*
X-49484Y494000D02*
X-47516D01*
X-48500Y493016D02*
Y494984D01*
X-38953Y467024D02*
Y469976D01*
X-33047Y467024D02*
Y469976D01*
X-38953Y467024D02*
X-33047D01*
X-38953Y469976D02*
X-33047D01*
X-36984Y468500D02*
X-35016D01*
X-36000Y467516D02*
Y469484D01*
X-7547Y496024D02*
Y498976D01*
X-13453Y496024D02*
Y498976D01*
X-7547D01*
X-13453Y496024D02*
X-7547D01*
X-11484Y497500D02*
X-9516D01*
X-10500Y496516D02*
Y498484D01*
X-34476Y481547D02*
X-31524D01*
X-34476Y487453D02*
X-31524D01*
Y481547D02*
Y487453D01*
X-34476Y481547D02*
Y487453D01*
X-33000Y483516D02*
Y485484D01*
X-33984Y484500D02*
X-32016D01*
X-51453Y496024D02*
Y498976D01*
X-45547Y496024D02*
Y498976D01*
X-51453Y496024D02*
X-45547D01*
X-51453Y498976D02*
X-45547D01*
X-49484Y497500D02*
X-47516D01*
X-48500Y496516D02*
Y498484D01*
X-51953Y503524D02*
Y506476D01*
X-46047Y503524D02*
Y506476D01*
X-51953Y503524D02*
X-46047D01*
X-51953Y506476D02*
X-46047D01*
X-49984Y505000D02*
X-48016D01*
X-49000Y504016D02*
Y505984D01*
X-30476Y487453D02*
X-27524D01*
X-30476Y481547D02*
X-27524D01*
X-30476D02*
Y487453D01*
X-27524Y481547D02*
Y487453D01*
X-29000Y483516D02*
Y485484D01*
X-29984Y484500D02*
X-28016D01*
X-51953Y514024D02*
Y516976D01*
X-46047Y514024D02*
Y516976D01*
X-51953Y514024D02*
X-46047D01*
X-51953Y516976D02*
X-46047D01*
X-49984Y515500D02*
X-48016D01*
X-49000Y514516D02*
Y516484D01*
X-28484Y470500D02*
X-26516D01*
X-27500Y469516D02*
Y471484D01*
X-32224Y474437D02*
X-22776D01*
X-32224Y466563D02*
X-22776D01*
Y474437D01*
X-32224Y466563D02*
Y474437D01*
X-7547Y511524D02*
Y514476D01*
X-13453Y511524D02*
Y514476D01*
X-7547D01*
X-13453Y511524D02*
X-7547D01*
X-11484Y513000D02*
X-9516D01*
X-10500Y512016D02*
Y513984D01*
X-20961Y479079D02*
Y488921D01*
X-16039Y479079D02*
Y488921D01*
X-18500Y483016D02*
Y484984D01*
X-19484Y484000D02*
X-17516D01*
X-20961Y488921D02*
X-16039D01*
X-20961Y479079D02*
X-16039D01*
X-95138Y594980D02*
X-85295D01*
X-95138Y590059D02*
X-85295D01*
X-91201Y592520D02*
X-89232D01*
X-90216Y591535D02*
Y593504D01*
X-85295Y590059D02*
Y594980D01*
X-95138Y590059D02*
Y594980D01*
X-95728Y595669D02*
X-84705Y595669D01*
X-95728Y601181D02*
X-84705Y601181D01*
X-84705Y601181D02*
X-84705Y595669D01*
X-95728Y601181D02*
X-95728Y595669D01*
X-91004Y598425D02*
X-89429D01*
X-90216Y597638D02*
Y599213D01*
X-95728Y607087D02*
X-84705Y607087D01*
X-95728Y601575D02*
X-84705Y601575D01*
X-95728Y607087D02*
X-95728Y601575D01*
X-84705Y607087D02*
X-84705Y601575D01*
X-91004Y604331D02*
X-89429D01*
X-90216Y603543D02*
Y605118D01*
X-88740Y583661D02*
X-85787D01*
X-88740Y589567D02*
X-85787D01*
Y583661D02*
Y589567D01*
X-88740Y583661D02*
Y589567D01*
X-87264Y585630D02*
Y587598D01*
X-88248Y586614D02*
X-86279D01*
X-72303Y594980D02*
X-62461D01*
X-72303Y590059D02*
X-62461D01*
X-68366Y592520D02*
X-66398D01*
X-67382Y591535D02*
Y593504D01*
X-62461Y590059D02*
Y594980D01*
X-72303Y590059D02*
Y594980D01*
X-72894Y595669D02*
X-61870Y595669D01*
X-72894Y601181D02*
X-61870Y601181D01*
X-61870Y601181D02*
X-61870Y595669D01*
X-72894Y601181D02*
X-72894Y595669D01*
X-68169Y598425D02*
X-66594D01*
X-67382Y597638D02*
Y599213D01*
X-72894Y607087D02*
X-61870Y607087D01*
X-72894Y601575D02*
X-61870Y601575D01*
X-72894Y607087D02*
X-72894Y601575D01*
X-61870Y607087D02*
X-61870Y601575D01*
X-68169Y604331D02*
X-66594D01*
X-67382Y603543D02*
Y605118D01*
X-65905Y583661D02*
X-62953D01*
X-65905Y589567D02*
X-62953D01*
Y583661D02*
Y589567D01*
X-65905Y583661D02*
Y589567D01*
X-64429Y585630D02*
Y587598D01*
X-65413Y586614D02*
X-63445D01*
X-101476Y293047D02*
X-98524D01*
X-101476Y298953D02*
X-98524D01*
Y293047D02*
Y298953D01*
X-101476Y293047D02*
Y298953D01*
X-100000Y295016D02*
Y296984D01*
X-100984Y296000D02*
X-99016D01*
X-107000Y295516D02*
Y297484D01*
X-107984Y296500D02*
X-106016D01*
X-108476Y293547D02*
X-105524D01*
X-108476Y299453D02*
X-105524D01*
Y293547D02*
Y299453D01*
X-108476Y293547D02*
Y299453D01*
X-108874Y336039D02*
X-93126D01*
Y365961D01*
X-108874D02*
X-93126D01*
X-108874Y336039D02*
Y365961D01*
X-101000Y350016D02*
Y351984D01*
X-101984Y351000D02*
X-100016D01*
X-96976Y372547D02*
X-94024D01*
X-96976Y378453D02*
X-94024D01*
Y372547D02*
Y378453D01*
X-96976Y372547D02*
Y378453D01*
X-95500Y374516D02*
Y376484D01*
X-96484Y375500D02*
X-94516D01*
X-101976Y324547D02*
X-99024D01*
X-101976Y330453D02*
X-99024D01*
Y324547D02*
Y330453D01*
X-101976Y324547D02*
Y330453D01*
X-100500Y326516D02*
Y328484D01*
X-101484Y327500D02*
X-99516D01*
X-155976Y293819D02*
X-153024D01*
X-155976Y299724D02*
X-153024D01*
Y293819D02*
Y299724D01*
X-155976Y293819D02*
Y299724D01*
X-154500Y295787D02*
Y297756D01*
X-155484Y296772D02*
X-153516D01*
X-162000Y296244D02*
Y298213D01*
X-162984Y297228D02*
X-161016D01*
X-163476Y294276D02*
X-160524D01*
X-163476Y300181D02*
X-160524D01*
Y294276D02*
Y300181D01*
X-163476Y294276D02*
Y300181D01*
X-167374Y336039D02*
X-151626D01*
Y365961D01*
X-167374D02*
X-151626D01*
X-167374Y336039D02*
Y365961D01*
X-159500Y350016D02*
Y351984D01*
X-160484Y351000D02*
X-158516D01*
X-155976Y371047D02*
X-153024D01*
X-155976Y376953D02*
X-153024D01*
Y371047D02*
Y376953D01*
X-155976Y371047D02*
Y376953D01*
X-154500Y373016D02*
Y374984D01*
X-155484Y374000D02*
X-153516D01*
X-160976Y323547D02*
X-158024D01*
X-160976Y329453D02*
X-158024D01*
Y323547D02*
Y329453D01*
X-160976Y323547D02*
Y329453D01*
X-159500Y325516D02*
Y327484D01*
X-160484Y326500D02*
X-158516D01*
X55516Y632000D02*
X57484D01*
X56500Y631016D02*
Y632984D01*
X99807Y620189D02*
Y669402D01*
X13193D02*
X99807D01*
X13193Y620189D02*
Y669402D01*
Y620189D02*
X99807D01*
X-79724Y643500D02*
X-77756D01*
X-78740Y642516D02*
Y644484D01*
X-51181Y635626D02*
Y659248D01*
X-106299D02*
X-51181D01*
X-106299Y635626D02*
Y659248D01*
Y635626D02*
X-51181D01*
D15*
X36024Y542047D02*
X38976D01*
X36024Y547953D02*
X38976D01*
X36024Y542047D02*
Y547953D01*
X38976Y542047D02*
Y547953D01*
X62524Y542240D02*
X65476D01*
X62524Y548146D02*
X65476D01*
X62524Y542240D02*
Y548146D01*
X65476Y542240D02*
Y548146D01*
X87024Y542047D02*
X89976D01*
X87024Y547953D02*
X89976D01*
X87024Y542047D02*
Y547953D01*
X89976Y542047D02*
Y547953D01*
X-185076Y503953D02*
X-182124D01*
X-185076Y498047D02*
X-182124D01*
Y503953D01*
X-185076Y498047D02*
Y503953D01*
X-235076Y503646D02*
X-232124D01*
X-235076Y497740D02*
X-232124D01*
Y503646D01*
X-235076Y497740D02*
Y503646D01*
X-293976Y367453D02*
X-291024D01*
X-293976Y361547D02*
X-291024D01*
Y367453D01*
X-293976Y361547D02*
Y367453D01*
X-289976D02*
X-287024D01*
X-289976Y361547D02*
X-287024D01*
Y367453D01*
X-289976Y361547D02*
Y367453D01*
Y301547D02*
X-287024D01*
X-289976Y307453D02*
X-287024D01*
X-289976Y301547D02*
Y307453D01*
X-287024Y301547D02*
Y307453D01*
X-294976Y301547D02*
X-292024D01*
X-294976Y307453D02*
X-292024D01*
X-294976Y301547D02*
Y307453D01*
X-292024Y301547D02*
Y307453D01*
X-253787Y302083D02*
X-250835D01*
X-253787Y307988D02*
X-250835D01*
X-253787Y302083D02*
Y307988D01*
X-250835Y302083D02*
Y307988D01*
X-297076Y496953D02*
X-294124D01*
X-297076Y491047D02*
X-294124D01*
Y496953D01*
X-297076Y491047D02*
Y496953D01*
X-24976Y487453D02*
X-22024D01*
X-24976Y481547D02*
X-22024D01*
Y487453D01*
X-24976Y481547D02*
Y487453D01*
X-7547Y515524D02*
Y518476D01*
X-13453Y515524D02*
Y518476D01*
Y515524D02*
X-7547D01*
X-13453Y518476D02*
X-7547D01*
X-16047Y466524D02*
Y469476D01*
X-21953Y466524D02*
Y469476D01*
Y466524D02*
X-16047D01*
X-21953Y469476D02*
X-16047D01*
X-38953Y471524D02*
Y474476D01*
X-33047Y471524D02*
Y474476D01*
X-38953D02*
X-33047D01*
X-38953Y471524D02*
X-33047D01*
X-93976Y325547D02*
X-91024D01*
X-93976Y331453D02*
X-91024D01*
X-93976Y325547D02*
Y331453D01*
X-91024Y325547D02*
Y331453D01*
X-86476Y325547D02*
X-83524D01*
X-86476Y331453D02*
X-83524D01*
X-86476Y325547D02*
Y331453D01*
X-83524Y325547D02*
Y331453D01*
X-110476Y325047D02*
X-107524D01*
X-110476Y330953D02*
X-107524D01*
X-110476Y325047D02*
Y330953D01*
X-107524Y325047D02*
Y330953D01*
X-154976Y323547D02*
X-152024D01*
X-154976Y329453D02*
X-152024D01*
X-154976Y323547D02*
Y329453D01*
X-152024Y323547D02*
Y329453D01*
X-146976Y323547D02*
X-144024D01*
X-146976Y329453D02*
X-144024D01*
X-146976Y323547D02*
Y329453D01*
X-144024Y323547D02*
Y329453D01*
X-169976Y324047D02*
X-167024D01*
X-169976Y329953D02*
X-167024D01*
X-169976Y324047D02*
Y329953D01*
X-167024Y324047D02*
Y329953D01*
X36024Y542047D02*
X38976D01*
X36024D02*
Y547953D01*
X38976Y542047D02*
Y547953D01*
X37500Y544016D02*
Y545984D01*
X36516Y545000D02*
X38484D01*
X36024Y547953D02*
X38976D01*
X62524Y542240D02*
X65476D01*
X62524D02*
Y548146D01*
X65476Y542240D02*
Y548146D01*
X64000Y544209D02*
Y546177D01*
X63016Y545193D02*
X64984D01*
X62524Y548146D02*
X65476D01*
X87024Y542047D02*
X89976D01*
X87024D02*
Y547953D01*
X89976Y542047D02*
Y547953D01*
X88500Y544016D02*
Y545984D01*
X87516Y545000D02*
X89484D01*
X87024Y547953D02*
X89976D01*
X-185076Y503953D02*
X-182124D01*
Y498047D02*
Y503953D01*
X-185076Y498047D02*
Y503953D01*
X-183600Y500016D02*
Y501984D01*
X-184584Y501000D02*
X-182616D01*
X-185076Y498047D02*
X-182124D01*
X-235076Y503646D02*
X-232124D01*
Y497740D02*
Y503646D01*
X-235076Y497740D02*
Y503646D01*
X-233600Y499709D02*
Y501677D01*
X-234584Y500693D02*
X-232616D01*
X-235076Y497740D02*
X-232124D01*
X-293976Y367453D02*
X-291024D01*
Y361547D02*
Y367453D01*
X-293976Y361547D02*
Y367453D01*
X-292500Y363516D02*
Y365484D01*
X-293484Y364500D02*
X-291516D01*
X-293976Y361547D02*
X-291024D01*
X-289976Y367453D02*
X-287024D01*
Y361547D02*
Y367453D01*
X-289976Y361547D02*
Y367453D01*
X-288500Y363516D02*
Y365484D01*
X-289484Y364500D02*
X-287516D01*
X-289976Y361547D02*
X-287024D01*
X-289976Y301547D02*
X-287024D01*
X-289976D02*
Y307453D01*
X-287024Y301547D02*
Y307453D01*
X-288500Y303516D02*
Y305484D01*
X-289484Y304500D02*
X-287516D01*
X-289976Y307453D02*
X-287024D01*
X-294976Y301547D02*
X-292024D01*
X-294976D02*
Y307453D01*
X-292024Y301547D02*
Y307453D01*
X-293500Y303516D02*
Y305484D01*
X-294484Y304500D02*
X-292516D01*
X-294976Y307453D02*
X-292024D01*
X-253787Y302083D02*
X-250835D01*
X-253787D02*
Y307988D01*
X-250835Y302083D02*
Y307988D01*
X-252311Y304051D02*
Y306020D01*
X-253295Y305035D02*
X-251327D01*
X-253787Y307988D02*
X-250835D01*
X-297076Y496953D02*
X-294124D01*
Y491047D02*
Y496953D01*
X-297076Y491047D02*
Y496953D01*
X-295600Y493016D02*
Y494984D01*
X-296584Y494000D02*
X-294616D01*
X-297076Y491047D02*
X-294124D01*
X-24976Y487453D02*
X-22024D01*
Y481547D02*
Y487453D01*
X-24976Y481547D02*
Y487453D01*
X-23500Y483516D02*
Y485484D01*
X-24484Y484500D02*
X-22516D01*
X-24976Y481547D02*
X-22024D01*
X-7547Y515524D02*
Y518476D01*
X-13453Y515524D02*
X-7547D01*
X-13453Y518476D02*
X-7547D01*
X-11484Y517000D02*
X-9516D01*
X-10500Y516016D02*
Y517984D01*
X-13453Y515524D02*
Y518476D01*
X-16047Y466524D02*
Y469476D01*
X-21953Y466524D02*
X-16047D01*
X-21953Y469476D02*
X-16047D01*
X-19984Y468000D02*
X-18016D01*
X-19000Y467016D02*
Y468984D01*
X-21953Y466524D02*
Y469476D01*
X-38953Y471524D02*
Y474476D01*
X-33047D01*
X-38953Y471524D02*
X-33047D01*
X-36984Y473000D02*
X-35016D01*
X-36000Y472016D02*
Y473984D01*
X-33047Y471524D02*
Y474476D01*
X-93976Y325547D02*
X-91024D01*
X-93976D02*
Y331453D01*
X-91024Y325547D02*
Y331453D01*
X-92500Y327516D02*
Y329484D01*
X-93484Y328500D02*
X-91516D01*
X-93976Y331453D02*
X-91024D01*
X-86476Y325547D02*
X-83524D01*
X-86476D02*
Y331453D01*
X-83524Y325547D02*
Y331453D01*
X-85000Y327516D02*
Y329484D01*
X-85984Y328500D02*
X-84016D01*
X-86476Y331453D02*
X-83524D01*
X-110476Y325047D02*
X-107524D01*
X-110476D02*
Y330953D01*
X-107524Y325047D02*
Y330953D01*
X-109000Y327016D02*
Y328984D01*
X-109984Y328000D02*
X-108016D01*
X-110476Y330953D02*
X-107524D01*
X-154976Y323547D02*
X-152024D01*
X-154976D02*
Y329453D01*
X-152024Y323547D02*
Y329453D01*
X-153500Y325516D02*
Y327484D01*
X-154484Y326500D02*
X-152516D01*
X-154976Y329453D02*
X-152024D01*
X-146976Y323547D02*
X-144024D01*
X-146976D02*
Y329453D01*
X-144024Y323547D02*
Y329453D01*
X-145500Y325516D02*
Y327484D01*
X-146484Y326500D02*
X-144516D01*
X-146976Y329453D02*
X-144024D01*
X-169976Y324047D02*
X-167024D01*
X-169976D02*
Y329953D01*
X-167024Y324047D02*
Y329953D01*
X-168500Y326016D02*
Y327984D01*
X-169484Y327000D02*
X-167516D01*
X-169976Y329953D02*
X-167024D01*
D16*
X-88642Y626240D02*
D03*
Y633602D02*
D03*
X-68957Y626240D02*
D03*
Y633602D02*
D03*
X-78799Y626240D02*
D03*
Y633602D02*
D03*
X32000Y538819D02*
D03*
Y546181D02*
D03*
X58000Y538819D02*
D03*
Y546181D02*
D03*
X83000Y538819D02*
D03*
Y546181D02*
D03*
X-186600Y555319D02*
D03*
Y562681D02*
D03*
X-185100Y570819D02*
D03*
Y578181D02*
D03*
X-172600Y554819D02*
D03*
Y562181D02*
D03*
X-174100Y570819D02*
D03*
Y578181D02*
D03*
X-238100Y557319D02*
D03*
Y564681D02*
D03*
Y571819D02*
D03*
Y579181D02*
D03*
X-225100Y556138D02*
D03*
Y563500D02*
D03*
Y571819D02*
D03*
Y579181D02*
D03*
X-295100Y558819D02*
D03*
Y566181D02*
D03*
X-294600Y574319D02*
D03*
Y581681D02*
D03*
X-284600Y559319D02*
D03*
Y566681D02*
D03*
X-284100Y574319D02*
D03*
Y581681D02*
D03*
D17*
X-88642Y622047D02*
D03*
Y610236D02*
D03*
X-68957Y622047D02*
D03*
Y610236D02*
D03*
X-78799Y622047D02*
D03*
Y610236D02*
D03*
D18*
X-74468Y604331D02*
D03*
X-83130D02*
D03*
Y598425D02*
D03*
X-74468D02*
D03*
X-94547D02*
D03*
X-85886D02*
D03*
Y604331D02*
D03*
X-94547D02*
D03*
X-71713Y598425D02*
D03*
X-63051D02*
D03*
Y604331D02*
D03*
X-71713D02*
D03*
D19*
X-81752Y592520D02*
D03*
X-75846D02*
D03*
X-93169D02*
D03*
X-87264D02*
D03*
X-70335D02*
D03*
X-64429D02*
D03*
D20*
X-75846Y584921D02*
D03*
Y588307D02*
D03*
X37500Y543307D02*
D03*
Y546693D02*
D03*
X64000Y543500D02*
D03*
Y546886D02*
D03*
X88500Y543307D02*
D03*
Y546693D02*
D03*
X-174100Y499114D02*
D03*
Y502500D02*
D03*
X-183600Y502693D02*
D03*
Y499307D02*
D03*
X-225100Y498114D02*
D03*
Y501500D02*
D03*
X-233600Y502386D02*
D03*
Y499000D02*
D03*
X-284000Y366193D02*
D03*
Y362807D02*
D03*
X-268000Y366193D02*
D03*
Y362807D02*
D03*
X-292500Y366193D02*
D03*
Y362807D02*
D03*
X-288500Y366193D02*
D03*
Y362807D02*
D03*
Y302807D02*
D03*
Y306193D02*
D03*
X-293500Y302807D02*
D03*
Y306193D02*
D03*
X-268500Y302807D02*
D03*
Y306193D02*
D03*
X-282500Y302807D02*
D03*
Y306193D02*
D03*
X-273500Y366193D02*
D03*
Y362807D02*
D03*
X-273311Y306228D02*
D03*
Y302842D02*
D03*
X-279000Y366193D02*
D03*
Y362807D02*
D03*
X-278311Y306228D02*
D03*
Y302842D02*
D03*
X-257311Y303343D02*
D03*
Y306728D02*
D03*
X-252311Y303343D02*
D03*
Y306728D02*
D03*
X-286100Y492307D02*
D03*
Y495693D02*
D03*
X-295600D02*
D03*
Y492307D02*
D03*
X-36500Y486193D02*
D03*
Y482807D02*
D03*
X-33000D02*
D03*
Y486193D02*
D03*
X-29000D02*
D03*
Y482807D02*
D03*
X-23500Y486193D02*
D03*
Y482807D02*
D03*
X-87264Y584921D02*
D03*
Y588307D02*
D03*
X-64429Y584921D02*
D03*
Y588307D02*
D03*
X-100000Y294307D02*
D03*
Y297693D02*
D03*
X-92500Y326807D02*
D03*
Y330193D02*
D03*
X-85000Y326807D02*
D03*
Y330193D02*
D03*
X-95500Y373807D02*
D03*
Y377193D02*
D03*
X-100500Y325807D02*
D03*
Y329193D02*
D03*
X-109000Y326307D02*
D03*
Y329693D02*
D03*
X-154500Y295079D02*
D03*
Y298465D02*
D03*
X-153500Y324807D02*
D03*
Y328193D02*
D03*
X-145500Y324807D02*
D03*
Y328193D02*
D03*
X-154500Y372307D02*
D03*
Y375693D02*
D03*
X-159500Y324807D02*
D03*
Y328193D02*
D03*
X-168500Y325307D02*
D03*
Y328693D02*
D03*
D21*
X30319Y561500D02*
D03*
X37681D02*
D03*
X56319D02*
D03*
X63681D02*
D03*
X81319D02*
D03*
X88681D02*
D03*
D22*
X30063Y553500D02*
D03*
X37937D02*
D03*
X56063Y554000D02*
D03*
X63937D02*
D03*
X80563D02*
D03*
X88437D02*
D03*
D23*
X27595Y570000D02*
D03*
X39406D02*
D03*
Y580000D02*
D03*
X27595D02*
D03*
Y590000D02*
D03*
X39406D02*
D03*
X53594Y570000D02*
D03*
X65405D02*
D03*
X65905Y580000D02*
D03*
X54094D02*
D03*
X54594Y590000D02*
D03*
X66405D02*
D03*
X79594Y570000D02*
D03*
X91405D02*
D03*
X91500Y580000D02*
D03*
X79689D02*
D03*
X79594Y590000D02*
D03*
X91405D02*
D03*
D24*
X-181407Y517000D02*
D03*
X-184793D02*
D03*
X-228907D02*
D03*
X-232293D02*
D03*
X-289407Y515500D02*
D03*
X-292793D02*
D03*
X-12193Y501500D02*
D03*
X-8807D02*
D03*
X-12193Y493500D02*
D03*
X-8807D02*
D03*
X-47307Y501500D02*
D03*
X-50693D02*
D03*
X-47307Y512000D02*
D03*
X-50693D02*
D03*
Y508500D02*
D03*
X-47307D02*
D03*
X-8807Y509500D02*
D03*
X-12193D02*
D03*
X-8807Y505500D02*
D03*
X-12193D02*
D03*
X-17307Y472500D02*
D03*
X-20693D02*
D03*
X-50193Y494000D02*
D03*
X-46807D02*
D03*
X-37693Y468500D02*
D03*
X-34307D02*
D03*
X-8807Y497500D02*
D03*
X-12193D02*
D03*
X-50193D02*
D03*
X-46807D02*
D03*
X-50693Y505000D02*
D03*
X-47307D02*
D03*
X-50693Y515500D02*
D03*
X-47307D02*
D03*
X-8807Y513000D02*
D03*
X-12193D02*
D03*
X-8807Y517000D02*
D03*
X-12193D02*
D03*
X-17307Y468000D02*
D03*
X-20693D02*
D03*
X-37693Y473000D02*
D03*
X-34307D02*
D03*
D25*
X-180828Y524000D02*
D03*
X-184372D02*
D03*
X-228828Y523000D02*
D03*
X-232372D02*
D03*
X-292372Y520500D02*
D03*
X-288828D02*
D03*
D26*
X-181600Y459205D02*
D03*
X-171600D02*
D03*
Y484795D02*
D03*
X-181600D02*
D03*
X-233100Y462705D02*
D03*
X-223100D02*
D03*
Y488295D02*
D03*
X-233100D02*
D03*
X-295600Y459705D02*
D03*
X-285600D02*
D03*
Y485295D02*
D03*
X-295600D02*
D03*
D27*
X-174600Y588705D02*
D03*
X-184600D02*
D03*
Y614295D02*
D03*
X-174600D02*
D03*
X-226100Y588205D02*
D03*
X-236100D02*
D03*
Y613795D02*
D03*
X-226100D02*
D03*
X-284100Y590705D02*
D03*
X-294100D02*
D03*
Y616295D02*
D03*
X-284100D02*
D03*
D28*
X-188112Y545000D02*
D03*
X-177088D02*
D03*
X-237612Y547000D02*
D03*
X-226588D02*
D03*
X-295112Y548500D02*
D03*
X-284088D02*
D03*
D29*
X-184856Y628500D02*
D03*
X-236606Y628000D02*
D03*
X-295606Y628500D02*
D03*
D30*
X-298000Y359400D02*
D03*
Y365600D02*
D03*
X-18500Y481047D02*
D03*
Y486953D02*
D03*
D31*
X-288500Y318693D02*
D03*
X-283500D02*
D03*
X-278500D02*
D03*
X-268500D02*
D03*
X-263500D02*
D03*
X-258500D02*
D03*
X-253500D02*
D03*
X-258500Y355307D02*
D03*
X-263500D02*
D03*
X-268500D02*
D03*
X-278500D02*
D03*
X-283500D02*
D03*
X-288500D02*
D03*
X-253500D02*
D03*
X-273500Y318693D02*
D03*
Y355307D02*
D03*
D32*
X-237000Y340937D02*
D03*
Y333063D02*
D03*
D33*
X-20551Y511890D02*
D03*
Y509921D02*
D03*
Y507953D02*
D03*
Y505984D02*
D03*
Y504016D02*
D03*
Y502047D02*
D03*
Y500079D02*
D03*
Y498110D02*
D03*
X-39449D02*
D03*
Y500079D02*
D03*
Y502047D02*
D03*
Y504016D02*
D03*
Y505984D02*
D03*
Y507953D02*
D03*
Y509921D02*
D03*
Y511890D02*
D03*
D34*
X-23110Y495551D02*
D03*
X-25079D02*
D03*
X-27047D02*
D03*
X-29016D02*
D03*
X-30984D02*
D03*
X-32953D02*
D03*
X-34921D02*
D03*
X-36890D02*
D03*
Y514449D02*
D03*
X-34921D02*
D03*
X-32953D02*
D03*
X-30984D02*
D03*
X-29016D02*
D03*
X-27047D02*
D03*
X-25079D02*
D03*
X-23110D02*
D03*
D35*
X-30000Y505000D02*
D03*
D36*
X-24744Y472665D02*
D03*
X-30256D02*
D03*
Y468335D02*
D03*
X-24744D02*
D03*
D37*
X-107000Y294728D02*
D03*
Y298272D02*
D03*
X-162000Y295457D02*
D03*
Y299000D02*
D03*
D38*
X-106000Y363402D02*
D03*
X-96000D02*
D03*
X-101000Y338598D02*
D03*
X-106000D02*
D03*
X-96000D02*
D03*
X-164500Y363402D02*
D03*
X-154500D02*
D03*
X-159500Y338598D02*
D03*
X-164500D02*
D03*
X-154500D02*
D03*
D39*
X-56455Y650980D02*
D03*
X-101140D02*
D03*
D40*
X-71416Y639563D02*
D03*
X-66495D02*
D03*
X-76337D02*
D03*
X-86180D02*
D03*
X-81258D02*
D03*
X-91101D02*
D03*
D74*
X-175600Y628500D02*
D03*
X-227350Y628000D02*
D03*
X-286350Y628500D02*
D03*
D75*
X60039Y-7283D02*
D03*
X56890D02*
D03*
X53740D02*
D03*
X50591D02*
D03*
X47441D02*
D03*
X44291D02*
D03*
X41142D02*
D03*
X37992D02*
D03*
X34843D02*
D03*
X31693D02*
D03*
X28543D02*
D03*
X25394D02*
D03*
X22244D02*
D03*
X19094D02*
D03*
X15945D02*
D03*
X12795D02*
D03*
X9646D02*
D03*
X6496D02*
D03*
X-9252D02*
D03*
X-12402D02*
D03*
X-15551D02*
D03*
X-18701D02*
D03*
X-21850D02*
D03*
X-25000D02*
D03*
X-28150D02*
D03*
X-31299D02*
D03*
D76*
X16257Y-1743D02*
X18000Y0D01*
X16257Y-6972D02*
Y-1743D01*
X18000Y0D02*
Y2309D01*
X15945Y-7283D02*
X16257Y-6972D01*
X-21850Y-1575D02*
X-20276Y0D01*
X-21850Y-7283D02*
Y-1575D01*
D77*
X60039Y-7284D02*
Y1677D01*
X50590Y-7284D02*
Y1677D01*
X6496Y-7284D02*
Y1677D01*
X-9252Y-7284D02*
Y1677D01*
D78*
X26972Y632000D02*
D03*
X36815D02*
D03*
X46657D02*
D03*
X56500D02*
D03*
X66343D02*
D03*
X76185D02*
D03*
D79*
X86028D02*
D03*
D80*
X-32480Y176378D02*
D03*
X62795D02*
D03*
D81*
X-13976Y0D02*
D03*
X42717D02*
D03*
X39567D02*
D03*
X36417D02*
D03*
X23819D02*
D03*
X20669D02*
D03*
X14370D02*
D03*
X11220D02*
D03*
X-20276D02*
D03*
M02*
