G04*
G04 #@! TF.GenerationSoftware,Altium Limited,Altium Designer,22.1.2 (22)*
G04*
G04 Layer_Physical_Order=4*
G04 Layer_Color=16711680*
%FSLAX25Y25*%
%MOIN*%
G70*
G04*
G04 #@! TF.SameCoordinates,22AE79A3-5326-4A0D-A068-57DE9E5E3605*
G04*
G04*
G04 #@! TF.FilePolarity,Positive*
G04*
G01*
G75*
%ADD10C,0.00787*%
%ADD11C,0.00394*%
%ADD13C,0.00197*%
%ADD14C,0.00039*%
%ADD15C,0.00079*%
%ADD17R,0.02047X0.01850*%
%ADD18R,0.02756X0.03937*%
%ADD19R,0.01850X0.02047*%
%ADD35R,0.02362X0.09055*%
%ADD36C,0.01968*%
%ADD37C,0.01181*%
%ADD38C,0.01575*%
%ADD39R,0.05315X0.05315*%
%ADD40C,0.05315*%
%ADD41R,0.20866X0.20866*%
%ADD42C,0.01968*%
%ADD44R,0.13583X0.13583*%
%ADD45R,0.00984X0.02756*%
%ADD46R,0.02756X0.00984*%
%ADD47R,0.05512X0.02756*%
%ADD48R,0.02362X0.05118*%
%ADD49R,0.02756X0.02362*%
G36*
X7009Y151469D02*
X6860Y151284D01*
X6728Y151090D01*
X6615Y150887D01*
X6518Y150675D01*
X6439Y150454D01*
X6378Y150224D01*
X6334Y149985D01*
X6308Y149737D01*
X6299Y149480D01*
X4331D01*
X4322Y149737D01*
X4296Y149985D01*
X4252Y150224D01*
X4191Y150454D01*
X4112Y150675D01*
X4015Y150887D01*
X3901Y151090D01*
X3770Y151284D01*
X3621Y151469D01*
X3455Y151646D01*
X7175D01*
X7009Y151469D01*
D02*
G37*
G36*
X-2834D02*
X-2983Y151284D01*
X-3114Y151090D01*
X-3228Y150887D01*
X-3324Y150675D01*
X-3403Y150454D01*
X-3464Y150224D01*
X-3508Y149985D01*
X-3535Y149737D01*
X-3543Y149480D01*
X-5512D01*
X-5521Y149737D01*
X-5547Y149985D01*
X-5591Y150224D01*
X-5652Y150454D01*
X-5731Y150675D01*
X-5827Y150887D01*
X-5941Y151090D01*
X-6072Y151284D01*
X-6221Y151469D01*
X-6388Y151646D01*
X-2667D01*
X-2834Y151469D01*
D02*
G37*
G36*
X-12676D02*
X-12825Y151284D01*
X-12957Y151090D01*
X-13070Y150887D01*
X-13167Y150675D01*
X-13246Y150454D01*
X-13307Y150224D01*
X-13351Y149985D01*
X-13377Y149737D01*
X-13386Y149480D01*
X-15354D01*
X-15363Y149737D01*
X-15389Y149985D01*
X-15433Y150224D01*
X-15495Y150454D01*
X-15573Y150675D01*
X-15670Y150887D01*
X-15784Y151090D01*
X-15915Y151284D01*
X-16064Y151469D01*
X-16230Y151646D01*
X-12510D01*
X-12676Y151469D01*
D02*
G37*
G36*
X36499Y151434D02*
X36316Y151220D01*
X36156Y151003D01*
X36016Y150783D01*
X35898Y150561D01*
X35802Y150336D01*
X35726Y150109D01*
X35673Y149879D01*
X35641Y149646D01*
X35630Y149411D01*
X34055D01*
X34044Y149646D01*
X34012Y149879D01*
X33959Y150109D01*
X33884Y150336D01*
X33787Y150561D01*
X33669Y150783D01*
X33529Y151003D01*
X33369Y151220D01*
X33186Y151434D01*
X32982Y151646D01*
X36703D01*
X36499Y151434D01*
D02*
G37*
G36*
X26656D02*
X26474Y151220D01*
X26313Y151003D01*
X26174Y150783D01*
X26056Y150561D01*
X25959Y150336D01*
X25884Y150109D01*
X25830Y149879D01*
X25798Y149646D01*
X25787Y149411D01*
X24213D01*
X24202Y149646D01*
X24170Y149879D01*
X24116Y150109D01*
X24041Y150336D01*
X23944Y150561D01*
X23826Y150783D01*
X23687Y151003D01*
X23526Y151220D01*
X23344Y151434D01*
X23140Y151646D01*
X26860D01*
X26656Y151434D01*
D02*
G37*
G36*
X46110Y150882D02*
X45976Y150835D01*
X45858Y150756D01*
X45756Y150646D01*
X45669Y150504D01*
X45598Y150331D01*
X45543Y150126D01*
X45504Y149890D01*
X45480Y149622D01*
X45472Y149323D01*
X43898D01*
X43890Y149622D01*
X43866Y149890D01*
X43827Y150126D01*
X43772Y150331D01*
X43701Y150504D01*
X43614Y150646D01*
X43512Y150756D01*
X43394Y150835D01*
X43260Y150882D01*
X43110Y150898D01*
X46260D01*
X46110Y150882D01*
D02*
G37*
G36*
X6309Y148372D02*
X6339Y148035D01*
X6388Y147738D01*
X6457Y147480D01*
X6545Y147263D01*
X6654Y147084D01*
X6781Y146946D01*
X6929Y146847D01*
X7096Y146787D01*
X7283Y146767D01*
X3347D01*
X3534Y146787D01*
X3701Y146847D01*
X3848Y146946D01*
X3976Y147084D01*
X4085Y147263D01*
X4173Y147480D01*
X4242Y147738D01*
X4291Y148035D01*
X4321Y148372D01*
X4331Y148748D01*
X6299D01*
X6309Y148372D01*
D02*
G37*
G36*
X-3534D02*
X-3504Y148035D01*
X-3455Y147738D01*
X-3386Y147480D01*
X-3297Y147263D01*
X-3189Y147084D01*
X-3061Y146946D01*
X-2913Y146847D01*
X-2746Y146787D01*
X-2559Y146767D01*
X-6496D01*
X-6309Y146787D01*
X-6142Y146847D01*
X-5994Y146946D01*
X-5866Y147084D01*
X-5758Y147263D01*
X-5669Y147480D01*
X-5600Y147738D01*
X-5551Y148035D01*
X-5522Y148372D01*
X-5512Y148748D01*
X-3543D01*
X-3534Y148372D01*
D02*
G37*
G36*
X-13376D02*
X-13347Y148035D01*
X-13297Y147738D01*
X-13228Y147480D01*
X-13140Y147263D01*
X-13032Y147084D01*
X-12904Y146946D01*
X-12756Y146847D01*
X-12589Y146787D01*
X-12402Y146767D01*
X-16339D01*
X-16152Y146787D01*
X-15984Y146847D01*
X-15837Y146946D01*
X-15709Y147084D01*
X-15600Y147263D01*
X-15512Y147480D01*
X-15443Y147738D01*
X-15394Y148035D01*
X-15364Y148372D01*
X-15354Y148748D01*
X-13386D01*
X-13376Y148372D01*
D02*
G37*
G36*
X47105Y147167D02*
X47150Y146570D01*
X47171Y146474D01*
X47195Y146399D01*
X47223Y146346D01*
X47255Y146314D01*
X47291Y146303D01*
X45465D01*
X45477Y146314D01*
X45488Y146346D01*
X45497Y146399D01*
X45505Y146474D01*
X45523Y146826D01*
X45528Y147369D01*
X47103D01*
X47105Y147167D01*
D02*
G37*
G36*
X37262D02*
X37308Y146570D01*
X37328Y146474D01*
X37353Y146399D01*
X37381Y146346D01*
X37413Y146314D01*
X37449Y146303D01*
X35622D01*
X35634Y146314D01*
X35645Y146346D01*
X35655Y146399D01*
X35663Y146474D01*
X35680Y146826D01*
X35686Y147369D01*
X37261D01*
X37262Y147167D01*
D02*
G37*
G36*
X27420D02*
X27465Y146570D01*
X27486Y146474D01*
X27510Y146399D01*
X27538Y146346D01*
X27570Y146314D01*
X27606Y146303D01*
X25780D01*
X25792Y146314D01*
X25803Y146346D01*
X25812Y146399D01*
X25820Y146474D01*
X25838Y146826D01*
X25843Y147369D01*
X27418D01*
X27420Y147167D01*
D02*
G37*
G36*
X43844Y144268D02*
X43789Y144232D01*
X43741Y144173D01*
X43699Y144091D01*
X43663Y143984D01*
X43634Y143854D01*
X43612Y143701D01*
X43597Y143539D01*
X43612Y143323D01*
X43634Y143169D01*
X43663Y143039D01*
X43699Y142933D01*
X43741Y142850D01*
X43789Y142791D01*
X43844Y142756D01*
X43905Y142744D01*
X42079D01*
X42140Y142756D01*
X42195Y142791D01*
X42243Y142850D01*
X42285Y142933D01*
X42321Y143039D01*
X42350Y143169D01*
X42373Y143323D01*
X42387Y143485D01*
X42373Y143701D01*
X42350Y143854D01*
X42321Y143984D01*
X42285Y144091D01*
X42243Y144173D01*
X42195Y144232D01*
X42140Y144268D01*
X42079Y144280D01*
X43905D01*
X43844Y144268D01*
D02*
G37*
G36*
X34001D02*
X33947Y144232D01*
X33898Y144173D01*
X33856Y144091D01*
X33821Y143984D01*
X33792Y143854D01*
X33769Y143701D01*
X33754Y143539D01*
X33769Y143323D01*
X33792Y143169D01*
X33821Y143039D01*
X33856Y142933D01*
X33898Y142850D01*
X33947Y142791D01*
X34001Y142756D01*
X34063Y142744D01*
X32236D01*
X32298Y142756D01*
X32353Y142791D01*
X32401Y142850D01*
X32443Y142933D01*
X32478Y143039D01*
X32507Y143169D01*
X32530Y143323D01*
X32545Y143485D01*
X32530Y143701D01*
X32507Y143854D01*
X32478Y143984D01*
X32443Y144091D01*
X32401Y144173D01*
X32353Y144232D01*
X32298Y144268D01*
X32236Y144280D01*
X34063D01*
X34001Y144268D01*
D02*
G37*
G36*
X24159D02*
X24104Y144232D01*
X24056Y144173D01*
X24014Y144091D01*
X23978Y143984D01*
X23949Y143854D01*
X23927Y143701D01*
X23912Y143539D01*
X23927Y143323D01*
X23949Y143169D01*
X23978Y143039D01*
X24014Y142933D01*
X24056Y142850D01*
X24104Y142791D01*
X24159Y142756D01*
X24220Y142744D01*
X22394D01*
X22455Y142756D01*
X22510Y142791D01*
X22558Y142850D01*
X22600Y142933D01*
X22636Y143039D01*
X22665Y143169D01*
X22688Y143323D01*
X22702Y143485D01*
X22688Y143701D01*
X22665Y143854D01*
X22636Y143984D01*
X22600Y144091D01*
X22558Y144173D01*
X22510Y144232D01*
X22455Y144268D01*
X22394Y144280D01*
X24220D01*
X24159Y144268D01*
D02*
G37*
G36*
X47230Y140709D02*
X47175Y140673D01*
X47127Y140614D01*
X47085Y140532D01*
X47049Y140425D01*
X47020Y140296D01*
X46998Y140142D01*
X46981Y139965D01*
X46974Y139727D01*
X46998Y139386D01*
X47020Y139232D01*
X47049Y139102D01*
X47085Y138996D01*
X47127Y138913D01*
X47175Y138854D01*
X47230Y138819D01*
X47291Y138807D01*
X45465D01*
X45526Y138819D01*
X45581Y138854D01*
X45629Y138913D01*
X45671Y138996D01*
X45707Y139102D01*
X45736Y139232D01*
X45758Y139386D01*
X45774Y139563D01*
X45782Y139800D01*
X45758Y140142D01*
X45736Y140296D01*
X45707Y140425D01*
X45671Y140532D01*
X45629Y140614D01*
X45581Y140673D01*
X45526Y140709D01*
X45465Y140721D01*
X47291D01*
X47230Y140709D01*
D02*
G37*
G36*
X43844D02*
X43789Y140673D01*
X43741Y140614D01*
X43699Y140532D01*
X43663Y140425D01*
X43634Y140296D01*
X43612Y140142D01*
X43596Y139965D01*
X43588Y139727D01*
X43612Y139386D01*
X43634Y139232D01*
X43663Y139102D01*
X43699Y138996D01*
X43741Y138913D01*
X43789Y138854D01*
X43844Y138819D01*
X43905Y138807D01*
X42079D01*
X42140Y138819D01*
X42195Y138854D01*
X42243Y138913D01*
X42285Y138996D01*
X42321Y139102D01*
X42350Y139232D01*
X42373Y139386D01*
X42389Y139563D01*
X42396Y139800D01*
X42373Y140142D01*
X42350Y140296D01*
X42321Y140425D01*
X42285Y140532D01*
X42243Y140614D01*
X42195Y140673D01*
X42140Y140709D01*
X42079Y140721D01*
X43905D01*
X43844Y140709D01*
D02*
G37*
G36*
X37387D02*
X37332Y140673D01*
X37284Y140614D01*
X37242Y140532D01*
X37207Y140425D01*
X37178Y140296D01*
X37155Y140142D01*
X37139Y139965D01*
X37132Y139727D01*
X37155Y139386D01*
X37178Y139232D01*
X37207Y139102D01*
X37242Y138996D01*
X37284Y138913D01*
X37332Y138854D01*
X37387Y138819D01*
X37449Y138807D01*
X35622D01*
X35684Y138819D01*
X35738Y138854D01*
X35787Y138913D01*
X35829Y138996D01*
X35864Y139102D01*
X35893Y139232D01*
X35916Y139386D01*
X35932Y139563D01*
X35939Y139800D01*
X35916Y140142D01*
X35893Y140296D01*
X35864Y140425D01*
X35829Y140532D01*
X35787Y140614D01*
X35738Y140673D01*
X35684Y140709D01*
X35622Y140721D01*
X37449D01*
X37387Y140709D01*
D02*
G37*
G36*
X34001D02*
X33947Y140673D01*
X33898Y140614D01*
X33856Y140532D01*
X33821Y140425D01*
X33792Y140296D01*
X33769Y140142D01*
X33753Y139965D01*
X33746Y139727D01*
X33769Y139386D01*
X33792Y139232D01*
X33821Y139102D01*
X33856Y138996D01*
X33898Y138913D01*
X33947Y138854D01*
X34001Y138819D01*
X34063Y138807D01*
X32236D01*
X32298Y138819D01*
X32353Y138854D01*
X32401Y138913D01*
X32443Y138996D01*
X32478Y139102D01*
X32507Y139232D01*
X32530Y139386D01*
X32546Y139563D01*
X32553Y139800D01*
X32530Y140142D01*
X32507Y140296D01*
X32478Y140425D01*
X32443Y140532D01*
X32401Y140614D01*
X32353Y140673D01*
X32298Y140709D01*
X32236Y140721D01*
X34063D01*
X34001Y140709D01*
D02*
G37*
G36*
X27545D02*
X27490Y140673D01*
X27442Y140614D01*
X27400Y140532D01*
X27364Y140425D01*
X27335Y140296D01*
X27312Y140142D01*
X27296Y139965D01*
X27289Y139727D01*
X27312Y139386D01*
X27335Y139232D01*
X27364Y139102D01*
X27400Y138996D01*
X27442Y138913D01*
X27490Y138854D01*
X27545Y138819D01*
X27606Y138807D01*
X25780D01*
X25841Y138819D01*
X25896Y138854D01*
X25944Y138913D01*
X25986Y138996D01*
X26022Y139102D01*
X26051Y139232D01*
X26073Y139386D01*
X26090Y139563D01*
X26097Y139800D01*
X26073Y140142D01*
X26051Y140296D01*
X26022Y140425D01*
X25986Y140532D01*
X25944Y140614D01*
X25896Y140673D01*
X25841Y140709D01*
X25780Y140721D01*
X27606D01*
X27545Y140709D01*
D02*
G37*
G36*
X24159D02*
X24104Y140673D01*
X24056Y140614D01*
X24014Y140532D01*
X23978Y140425D01*
X23949Y140296D01*
X23927Y140142D01*
X23911Y139965D01*
X23903Y139727D01*
X23927Y139386D01*
X23949Y139232D01*
X23978Y139102D01*
X24014Y138996D01*
X24056Y138913D01*
X24104Y138854D01*
X24159Y138819D01*
X24220Y138807D01*
X22394D01*
X22455Y138819D01*
X22510Y138854D01*
X22558Y138913D01*
X22600Y138996D01*
X22636Y139102D01*
X22665Y139232D01*
X22688Y139386D01*
X22704Y139563D01*
X22711Y139800D01*
X22688Y140142D01*
X22665Y140296D01*
X22636Y140425D01*
X22600Y140532D01*
X22558Y140614D01*
X22510Y140673D01*
X22455Y140709D01*
X22394Y140721D01*
X24220D01*
X24159Y140709D01*
D02*
G37*
G36*
X54500Y66929D02*
X-24500D01*
Y139500D01*
X-17520D01*
Y136279D01*
X-13916D01*
X-13905Y136274D01*
X-13843Y136267D01*
X-13840Y136266D01*
X-13837Y136264D01*
X-13823Y136248D01*
X-13798Y136206D01*
X-13767Y136131D01*
X-13738Y136021D01*
X-13714Y135879D01*
X-13703Y135750D01*
X-13704Y135734D01*
X-13769Y135276D01*
X-13769D01*
Y135276D01*
X-13996D01*
X-14017Y134870D01*
X-14001Y134833D01*
X-14009Y134789D01*
X-13996Y134770D01*
Y132947D01*
X-14009Y132927D01*
X-14001Y132883D01*
X-14017Y132847D01*
X-13996Y132441D01*
X-13769D01*
Y132441D01*
X-13769D01*
X-13704Y131983D01*
X-13700Y131918D01*
X-13704Y131797D01*
X-13769Y131339D01*
X-13769D01*
Y131339D01*
X-13996D01*
X-14017Y130933D01*
X-14001Y130896D01*
X-14009Y130852D01*
X-13996Y130833D01*
Y129010D01*
X-14009Y128990D01*
X-14001Y128946D01*
X-14017Y128910D01*
X-13996Y128504D01*
X-13769D01*
Y128504D01*
X-13769D01*
X-13704Y128046D01*
X-13700Y127981D01*
X-13704Y127860D01*
X-13769Y127402D01*
X-13769D01*
Y127402D01*
X-13996D01*
X-14017Y126996D01*
X-14001Y126959D01*
X-14009Y126915D01*
X-13996Y126896D01*
Y124567D01*
X-13544D01*
X-13538Y124553D01*
X-13523Y124496D01*
X-13510Y124415D01*
X-13500Y124311D01*
X-13497Y124174D01*
X-13480Y124136D01*
Y120256D01*
X-13419Y119949D01*
X-13245Y119688D01*
X-12052Y118495D01*
X-11791Y118321D01*
X-11484Y118260D01*
X-11484Y118260D01*
X6588D01*
X7465Y117384D01*
Y114073D01*
X7382Y113583D01*
X7361Y113177D01*
X7382Y113128D01*
X7382Y113083D01*
Y110499D01*
X7382Y110138D01*
X7021Y110138D01*
X6102D01*
Y109252D01*
X5709D01*
Y108858D01*
X3937D01*
Y108502D01*
X3796Y108274D01*
X3624Y108153D01*
X3547Y108100D01*
X3512Y108086D01*
X3314D01*
X3277Y108103D01*
X3193Y108105D01*
X3127Y108112D01*
X3068Y108121D01*
X3015Y108134D01*
X2966Y108150D01*
X2923Y108168D01*
X2883Y108189D01*
X2846Y108213D01*
X2812Y108240D01*
X2766Y108283D01*
X2693Y108311D01*
X2552Y108451D01*
X2046Y108661D01*
X1498D01*
X991Y108451D01*
X604Y108064D01*
X394Y107557D01*
Y107009D01*
X556Y106617D01*
X335Y106117D01*
X-1833D01*
X-5535Y109820D01*
X-5796Y109994D01*
X-6103Y110055D01*
X-10928D01*
X-10966Y110072D01*
X-11105Y110075D01*
X-11211Y110085D01*
X-11295Y110098D01*
X-11353Y110114D01*
X-11358Y110116D01*
Y110669D01*
X-13996D01*
Y107835D01*
X-11358D01*
Y108388D01*
X-11353Y108390D01*
X-11295Y108406D01*
X-11211Y108419D01*
X-11105Y108429D01*
X-10966Y108432D01*
X-10928Y108449D01*
X-6435D01*
X-2733Y104747D01*
X-2733Y104747D01*
X-2586Y104649D01*
X-2709Y104149D01*
X-3801D01*
X-5535Y105883D01*
X-5535Y105883D01*
X-5796Y106057D01*
X-6103Y106118D01*
X-8300D01*
X-8337Y106135D01*
X-8421Y106137D01*
X-8487Y106143D01*
X-8546Y106153D01*
X-8600Y106166D01*
X-8648Y106182D01*
X-8692Y106200D01*
X-8731Y106221D01*
X-8768Y106245D01*
X-8802Y106272D01*
X-8849Y106315D01*
X-8921Y106342D01*
X-9062Y106483D01*
X-9568Y106693D01*
X-10117D01*
X-10623Y106483D01*
X-10764Y106342D01*
X-10836Y106315D01*
X-11289Y106464D01*
X-11323Y106514D01*
X-11358Y106582D01*
Y106732D01*
X-13996D01*
Y103898D01*
X-11358D01*
Y104048D01*
X-11323Y104116D01*
X-11289Y104166D01*
X-10836Y104315D01*
X-10764Y104287D01*
X-10623Y104147D01*
X-10117Y103937D01*
X-9568D01*
X-9062Y104147D01*
X-8921Y104287D01*
X-8849Y104315D01*
X-8802Y104358D01*
X-8768Y104385D01*
X-8731Y104409D01*
X-8692Y104430D01*
X-8648Y104448D01*
X-8600Y104464D01*
X-8546Y104477D01*
X-8487Y104487D01*
X-8421Y104493D01*
X-8337Y104495D01*
X-8300Y104512D01*
X-6435D01*
X-4702Y102778D01*
X-4702Y102778D01*
X-4555Y102681D01*
X-4678Y102181D01*
X-8300D01*
X-8337Y102197D01*
X-8421Y102200D01*
X-8487Y102206D01*
X-8546Y102216D01*
X-8600Y102229D01*
X-8648Y102245D01*
X-8692Y102263D01*
X-8731Y102284D01*
X-8768Y102308D01*
X-8802Y102335D01*
X-8849Y102378D01*
X-8921Y102405D01*
X-9062Y102546D01*
X-9568Y102756D01*
X-10117D01*
X-10623Y102546D01*
X-10764Y102405D01*
X-10836Y102378D01*
X-11289Y102526D01*
X-11323Y102576D01*
X-11358Y102645D01*
Y102795D01*
X-13996D01*
Y99961D01*
X-11358D01*
Y100110D01*
X-11323Y100179D01*
X-11289Y100229D01*
X-10836Y100377D01*
X-10764Y100350D01*
X-10623Y100209D01*
X-10117Y100000D01*
X-9568D01*
X-9062Y100209D01*
X-8921Y100350D01*
X-8849Y100377D01*
X-8802Y100421D01*
X-8768Y100447D01*
X-8731Y100471D01*
X-8692Y100492D01*
X-8648Y100511D01*
X-8600Y100526D01*
X-8546Y100540D01*
X-8487Y100549D01*
X-8421Y100555D01*
X-8337Y100558D01*
X-8300Y100575D01*
X-4677D01*
X-4555Y100075D01*
X-4702Y99977D01*
X-4702Y99977D01*
X-6435Y98243D01*
X-10928D01*
X-10966Y98260D01*
X-11105Y98264D01*
X-11211Y98273D01*
X-11295Y98287D01*
X-11353Y98302D01*
X-11358Y98304D01*
Y98858D01*
X-13996D01*
Y96024D01*
X-11358D01*
Y96576D01*
X-11353Y96579D01*
X-11295Y96594D01*
X-11211Y96608D01*
X-11105Y96617D01*
X-10966Y96621D01*
X-10928Y96637D01*
X-6103D01*
X-5796Y96699D01*
X-5535Y96873D01*
X-3801Y98606D01*
X-2709D01*
X-2586Y98106D01*
X-2733Y98008D01*
X-2734Y98006D01*
X-6435Y94306D01*
X-10928D01*
X-10966Y94323D01*
X-11105Y94327D01*
X-11211Y94336D01*
X-11295Y94350D01*
X-11353Y94365D01*
X-11358Y94367D01*
Y94921D01*
X-13996D01*
Y92087D01*
X-11358D01*
Y92639D01*
X-11353Y92642D01*
X-11295Y92657D01*
X-11211Y92671D01*
X-11105Y92680D01*
X-10966Y92684D01*
X-10928Y92700D01*
X-6102D01*
X-5795Y92762D01*
X-5534Y92936D01*
X-1832Y96638D01*
X335D01*
X556Y96138D01*
X394Y95746D01*
Y95198D01*
X604Y94692D01*
X991Y94304D01*
X1498Y94094D01*
X2046D01*
X2552Y94304D01*
X2693Y94445D01*
X2766Y94472D01*
X2812Y94515D01*
X2846Y94542D01*
X2883Y94566D01*
X2923Y94587D01*
X2966Y94605D01*
X3015Y94621D01*
X3068Y94634D01*
X3127Y94644D01*
X3193Y94650D01*
X3277Y94652D01*
X3314Y94669D01*
X3447D01*
X3547Y94652D01*
X3547Y94652D01*
X3548Y94652D01*
X3937Y94587D01*
X4343Y94566D01*
X4392Y94587D01*
X4437Y94587D01*
X7021D01*
X7382Y94587D01*
X7382Y94226D01*
Y91642D01*
X7382Y91597D01*
X7361Y91547D01*
X7382Y91142D01*
X7465Y90655D01*
Y90519D01*
X7448Y90482D01*
X7446Y90397D01*
X7439Y90332D01*
X7430Y90272D01*
X7417Y90219D01*
X7401Y90171D01*
X7382Y90127D01*
X7361Y90087D01*
X7338Y90051D01*
X7311Y90016D01*
X7267Y89970D01*
X7240Y89897D01*
X7100Y89757D01*
X6890Y89250D01*
Y88702D01*
X7100Y88196D01*
X7487Y87808D01*
X7994Y87598D01*
X8542D01*
X9048Y87808D01*
X9436Y88196D01*
X9646Y88702D01*
Y89250D01*
X9436Y89757D01*
X9295Y89897D01*
X9268Y89970D01*
X9225Y90016D01*
X9198Y90051D01*
X9174Y90087D01*
X9153Y90127D01*
X9135Y90171D01*
X9119Y90219D01*
X9106Y90272D01*
X9096Y90332D01*
X9090Y90397D01*
X9087Y90482D01*
X9071Y90519D01*
Y90713D01*
X9087Y90751D01*
X9106Y90779D01*
X9353Y91142D01*
X9653Y91142D01*
X11122Y91142D01*
X11387Y90752D01*
X11402Y90717D01*
Y90519D01*
X11385Y90482D01*
X11383Y90397D01*
X11376Y90332D01*
X11367Y90272D01*
X11354Y90219D01*
X11338Y90171D01*
X11319Y90127D01*
X11298Y90087D01*
X11275Y90051D01*
X11248Y90016D01*
X11204Y89970D01*
X11177Y89897D01*
X11037Y89757D01*
X10827Y89250D01*
Y88702D01*
X11037Y88196D01*
X11424Y87808D01*
X11931Y87598D01*
X12479D01*
X12870Y87760D01*
X13370Y87540D01*
Y87006D01*
X9432Y83068D01*
X9258Y82807D01*
X9197Y82500D01*
Y78974D01*
X9180Y78936D01*
X9177Y78798D01*
X9167Y78692D01*
X9154Y78609D01*
X9138Y78550D01*
X9136Y78543D01*
X7283D01*
Y78167D01*
X6929Y77815D01*
X6523Y77835D01*
X6509Y77829D01*
X6462Y77831D01*
X6435Y77815D01*
X4095D01*
Y75177D01*
X6929D01*
Y75177D01*
X7283Y75394D01*
X10697D01*
X10827Y75394D01*
X11197Y75081D01*
Y75000D01*
X11258Y74693D01*
X11432Y74432D01*
X11989Y73876D01*
X11989Y73875D01*
X12013Y73860D01*
X12318Y73554D01*
X12332Y73517D01*
X12614Y73214D01*
X12708Y73097D01*
X12780Y72995D01*
X12795Y72968D01*
Y72714D01*
X12787Y72693D01*
X12795Y72673D01*
Y72637D01*
X12792Y72625D01*
X12795Y72620D01*
Y71063D01*
X16339D01*
Y71440D01*
X16693Y71791D01*
X17099Y71771D01*
X17113Y71777D01*
X17160Y71775D01*
X17187Y71791D01*
X19528D01*
Y74429D01*
X16693D01*
Y74429D01*
X16339Y74213D01*
X14388D01*
X14383Y74216D01*
X14370Y74213D01*
X14335D01*
X14314Y74221D01*
X14294Y74213D01*
X14040D01*
X14013Y74228D01*
X13916Y74296D01*
X13650Y74522D01*
X13497Y74670D01*
X13457Y74686D01*
X13250Y74894D01*
X13397Y75337D01*
X13449Y75394D01*
X15847D01*
X15875Y75377D01*
X15920Y75379D01*
X15933Y75373D01*
X16339Y75394D01*
X16693Y75177D01*
Y75177D01*
X19528D01*
Y77815D01*
X19378D01*
X19310Y77849D01*
X19259Y77884D01*
X19110Y78336D01*
X19138Y78409D01*
X19278Y78549D01*
X19488Y79056D01*
Y79604D01*
X19278Y80111D01*
X18891Y80498D01*
X18384Y80708D01*
X17836D01*
X17330Y80498D01*
X16942Y80111D01*
X16732Y79604D01*
Y79056D01*
X16942Y78549D01*
X16990Y78501D01*
X16905Y78122D01*
X16815Y77976D01*
X16809Y77974D01*
X16756Y77968D01*
X16339Y78215D01*
Y78543D01*
X12803D01*
Y81167D01*
X16709Y85074D01*
X16883Y85334D01*
X16945Y85642D01*
Y90713D01*
X16961Y90751D01*
X16980Y90779D01*
X17227Y91142D01*
X17528Y91142D01*
X17717D01*
Y92913D01*
X18504D01*
Y91142D01*
X18859D01*
X19088Y91001D01*
X19210Y90827D01*
X19261Y90752D01*
X19276Y90717D01*
Y85039D01*
X19337Y84732D01*
X19511Y84471D01*
X21244Y82738D01*
Y78246D01*
X21227Y78208D01*
X21224Y78069D01*
X21215Y77962D01*
X21201Y77878D01*
X21185Y77820D01*
X21183Y77815D01*
X20630D01*
Y75177D01*
X23465D01*
Y77815D01*
X22911D01*
X22909Y77820D01*
X22894Y77878D01*
X22880Y77962D01*
X22871Y78069D01*
X22867Y78208D01*
X22850Y78246D01*
Y83070D01*
X22850Y83070D01*
X22789Y83378D01*
X22615Y83638D01*
X20882Y85372D01*
Y86464D01*
X21382Y86586D01*
X21480Y86440D01*
X25181Y82738D01*
Y80873D01*
X25165Y80836D01*
X25162Y80751D01*
X25156Y80686D01*
X25146Y80627D01*
X25133Y80573D01*
X25117Y80525D01*
X25099Y80481D01*
X25078Y80442D01*
X25054Y80405D01*
X25027Y80371D01*
X24984Y80324D01*
X24957Y80251D01*
X24816Y80111D01*
X24606Y79604D01*
Y79056D01*
X24816Y78549D01*
X24957Y78409D01*
X24984Y78336D01*
X24835Y77884D01*
X24784Y77849D01*
X24717Y77815D01*
X24567D01*
Y75177D01*
X27402D01*
Y77815D01*
X27252D01*
X27184Y77849D01*
X27133Y77884D01*
X26985Y78337D01*
X27012Y78409D01*
X27152Y78549D01*
X27362Y79056D01*
Y79604D01*
X27152Y80111D01*
X27012Y80251D01*
X26985Y80324D01*
X26941Y80370D01*
X26914Y80404D01*
X26891Y80441D01*
X26870Y80481D01*
X26851Y80524D01*
X26835Y80573D01*
X26822Y80626D01*
X26813Y80686D01*
X26806Y80751D01*
X26804Y80835D01*
X26787Y80873D01*
Y83070D01*
X26726Y83378D01*
X26552Y83638D01*
X26552Y83638D01*
X22850Y87340D01*
Y90652D01*
X22933Y91142D01*
X22953Y91547D01*
X22933Y91597D01*
X22933Y91642D01*
Y94226D01*
X22933Y94587D01*
X23294Y94587D01*
X25878D01*
X25923Y94587D01*
X25972Y94566D01*
X26378Y94587D01*
X26865Y94669D01*
X30180D01*
X35850Y88999D01*
X35850Y88999D01*
X36110Y88825D01*
X36418Y88764D01*
X41243D01*
X41280Y88747D01*
X41420Y88744D01*
X41526Y88734D01*
X41610Y88721D01*
X41668Y88705D01*
X41673Y88703D01*
Y88150D01*
X44311D01*
Y90984D01*
X41673D01*
Y90431D01*
X41668Y90429D01*
X41610Y90413D01*
X41526Y90399D01*
X41420Y90390D01*
X41280Y90387D01*
X41243Y90370D01*
X36750D01*
X31080Y96040D01*
X30934Y96138D01*
X31059Y96638D01*
X32148D01*
X35850Y92936D01*
X35850Y92936D01*
X36110Y92762D01*
X36418Y92701D01*
X36418Y92701D01*
X41243D01*
X41280Y92684D01*
X41420Y92681D01*
X41526Y92671D01*
X41610Y92658D01*
X41668Y92642D01*
X41673Y92640D01*
Y92087D01*
X44311D01*
Y94921D01*
X41673D01*
Y94368D01*
X41668Y94366D01*
X41610Y94350D01*
X41526Y94336D01*
X41420Y94327D01*
X41280Y94324D01*
X41243Y94307D01*
X36750D01*
X33048Y98009D01*
X32902Y98106D01*
X33027Y98606D01*
X34117D01*
X35850Y96873D01*
X35850Y96873D01*
X36110Y96699D01*
X36418Y96638D01*
X36418Y96638D01*
X41243D01*
X41280Y96621D01*
X41420Y96618D01*
X41526Y96608D01*
X41610Y96595D01*
X41668Y96579D01*
X41673Y96577D01*
Y96024D01*
X44311D01*
Y98858D01*
X41673D01*
Y98305D01*
X41668Y98303D01*
X41610Y98287D01*
X41526Y98273D01*
X41420Y98264D01*
X41280Y98261D01*
X41243Y98244D01*
X36750D01*
X35017Y99977D01*
X34871Y100075D01*
X34996Y100575D01*
X41243D01*
X41280Y100558D01*
X41420Y100554D01*
X41526Y100545D01*
X41610Y100531D01*
X41668Y100516D01*
X41673Y100514D01*
Y99961D01*
X44311D01*
Y102795D01*
X41673D01*
Y102241D01*
X41668Y102239D01*
X41610Y102224D01*
X41526Y102210D01*
X41420Y102201D01*
X41280Y102197D01*
X41243Y102181D01*
X34993D01*
X34870Y102681D01*
X35017Y102778D01*
X36750Y104512D01*
X38615D01*
X38653Y104495D01*
X38737Y104493D01*
X38802Y104487D01*
X38862Y104477D01*
X38915Y104464D01*
X38963Y104448D01*
X39007Y104430D01*
X39047Y104409D01*
X39083Y104385D01*
X39118Y104358D01*
X39164Y104315D01*
X39237Y104287D01*
X39378Y104147D01*
X39884Y103937D01*
X40432D01*
X40939Y104147D01*
X41080Y104287D01*
X41152Y104315D01*
X41604Y104166D01*
X41639Y104115D01*
X41673Y104047D01*
Y103898D01*
X44311D01*
Y106732D01*
X41673D01*
Y106582D01*
X41639Y106515D01*
X41604Y106464D01*
X41152Y106315D01*
X41079Y106342D01*
X40939Y106483D01*
X40432Y106693D01*
X39884D01*
X39378Y106483D01*
X39237Y106342D01*
X39165Y106315D01*
X39118Y106272D01*
X39084Y106245D01*
X39047Y106221D01*
X39007Y106200D01*
X38964Y106182D01*
X38916Y106166D01*
X38862Y106153D01*
X38803Y106143D01*
X38737Y106137D01*
X38653Y106135D01*
X38615Y106118D01*
X36418D01*
X36418Y106118D01*
X36110Y106057D01*
X35850Y105883D01*
X35850Y105883D01*
X34116Y104149D01*
X33024D01*
X32901Y104649D01*
X33048Y104747D01*
X36750Y108449D01*
X41243D01*
X41280Y108432D01*
X41420Y108429D01*
X41526Y108419D01*
X41610Y108406D01*
X41668Y108390D01*
X41673Y108388D01*
Y107835D01*
X44311D01*
Y110669D01*
X41673D01*
Y110116D01*
X41668Y110114D01*
X41610Y110098D01*
X41526Y110085D01*
X41420Y110075D01*
X41280Y110072D01*
X41243Y110055D01*
X36418D01*
X36418Y110055D01*
X36110Y109994D01*
X35850Y109820D01*
X35850Y109820D01*
X32148Y106117D01*
X31056D01*
X30933Y106617D01*
X31080Y106716D01*
X36750Y112386D01*
X41243D01*
X41280Y112369D01*
X41420Y112366D01*
X41526Y112356D01*
X41610Y112343D01*
X41668Y112327D01*
X41673Y112325D01*
Y111772D01*
X44311D01*
Y114606D01*
X41673D01*
Y114053D01*
X41668Y114051D01*
X41610Y114035D01*
X41526Y114022D01*
X41420Y114012D01*
X41280Y114009D01*
X41243Y113992D01*
X36418D01*
X36110Y113931D01*
X35850Y113757D01*
X35850Y113757D01*
X30420Y108327D01*
X30195Y108369D01*
X29900Y108925D01*
X29921Y108977D01*
Y109526D01*
X29711Y110032D01*
X29324Y110420D01*
X28817Y110630D01*
X28269D01*
X27763Y110420D01*
X27622Y110279D01*
X27549Y110252D01*
X27503Y110209D01*
X27469Y110182D01*
X27432Y110158D01*
X27392Y110137D01*
X27349Y110119D01*
X27300Y110103D01*
X27247Y110090D01*
X27188Y110080D01*
X27122Y110074D01*
X27038Y110071D01*
X27000Y110055D01*
X26868D01*
X26378Y110138D01*
X25972Y110158D01*
X25923Y110138D01*
X25878Y110138D01*
X23294D01*
X22933Y110138D01*
X22933Y110499D01*
Y111417D01*
X22047D01*
Y111811D01*
X21654D01*
Y113583D01*
X21298D01*
X21069Y113724D01*
X20947Y113898D01*
X20896Y113973D01*
X20882Y114007D01*
Y117384D01*
X21758Y118260D01*
X45185D01*
X45492Y118321D01*
X45753Y118495D01*
X46946Y119688D01*
X47120Y119949D01*
X47181Y120256D01*
X47181Y120256D01*
Y124136D01*
X47198Y124174D01*
X47201Y124311D01*
X47210Y124415D01*
X47224Y124496D01*
X47239Y124553D01*
X47245Y124567D01*
X47697D01*
Y126896D01*
X47710Y126915D01*
X47702Y126959D01*
X47717Y126996D01*
X47697Y127402D01*
X47470D01*
Y127402D01*
X47470D01*
X47405Y127860D01*
X47401Y127925D01*
X47405Y128046D01*
X47470Y128504D01*
X47470D01*
Y128504D01*
X47697D01*
X47717Y128910D01*
X47702Y128946D01*
X47710Y128990D01*
X47697Y129010D01*
Y130833D01*
X47710Y130852D01*
X47702Y130896D01*
X47717Y130933D01*
X47697Y131339D01*
X47470D01*
Y131339D01*
X47470D01*
X47405Y131797D01*
X47401Y131861D01*
X47405Y131983D01*
X47470Y132441D01*
X47470D01*
Y132441D01*
X47697D01*
X47717Y132847D01*
X47702Y132883D01*
X47710Y132927D01*
X47697Y132947D01*
Y135276D01*
X45059D01*
Y132947D01*
X45046Y132927D01*
X45054Y132883D01*
X45039Y132847D01*
X45059Y132441D01*
X45286D01*
Y132441D01*
X45286D01*
X45351Y131983D01*
X45355Y131918D01*
X45351Y131797D01*
X45286Y131339D01*
X45286D01*
Y131339D01*
X45059D01*
X45039Y130933D01*
X45054Y130896D01*
X45046Y130852D01*
X45059Y130833D01*
Y129010D01*
X45046Y128990D01*
X45054Y128946D01*
X45039Y128910D01*
X45059Y128504D01*
X45286D01*
Y128504D01*
X45286D01*
X45351Y128046D01*
X45355Y127981D01*
X45351Y127860D01*
X45286Y127402D01*
X45286D01*
Y127402D01*
X45059D01*
X45039Y126996D01*
X45054Y126959D01*
X45046Y126915D01*
X45059Y126896D01*
Y124567D01*
X45511D01*
X45517Y124553D01*
X45532Y124496D01*
X45545Y124415D01*
X45555Y124311D01*
X45558Y124174D01*
X45575Y124136D01*
Y120588D01*
X44853Y119866D01*
X35886D01*
X35764Y120366D01*
X35910Y120464D01*
X37103Y121657D01*
X37277Y121917D01*
X37338Y122224D01*
X37338Y122224D01*
Y124136D01*
X37355Y124174D01*
X37359Y124311D01*
X37368Y124415D01*
X37382Y124496D01*
X37397Y124553D01*
X37402Y124567D01*
X37854D01*
Y126896D01*
X37867Y126915D01*
X37860Y126959D01*
X37875Y126996D01*
X37854Y127402D01*
X37627D01*
Y127402D01*
X37627D01*
X37563Y127860D01*
X37558Y127925D01*
X37562Y128046D01*
X37627Y128504D01*
X37627D01*
Y128504D01*
X37854D01*
X37875Y128910D01*
X37860Y128946D01*
X37867Y128990D01*
X37854Y129010D01*
Y130833D01*
X37867Y130852D01*
X37860Y130896D01*
X37875Y130933D01*
X37854Y131339D01*
X37627D01*
Y131339D01*
X37627D01*
X37563Y131797D01*
X37558Y131861D01*
X37562Y131983D01*
X37627Y132441D01*
X37627D01*
Y132441D01*
X37854D01*
X37875Y132847D01*
X37860Y132883D01*
X37867Y132927D01*
X37854Y132947D01*
Y135276D01*
X35217D01*
Y132947D01*
X35204Y132927D01*
X35211Y132883D01*
X35196Y132847D01*
X35217Y132441D01*
X35444D01*
Y132441D01*
X35444D01*
X35508Y131983D01*
X35513Y131918D01*
X35509Y131797D01*
X35444Y131339D01*
X35444D01*
Y131339D01*
X35217D01*
X35196Y130933D01*
X35211Y130896D01*
X35204Y130852D01*
X35217Y130833D01*
Y129010D01*
X35204Y128990D01*
X35211Y128946D01*
X35196Y128910D01*
X35217Y128504D01*
X35444D01*
Y128504D01*
X35444D01*
X35508Y128046D01*
X35513Y127981D01*
X35509Y127860D01*
X35444Y127402D01*
X35444D01*
Y127402D01*
X35217D01*
X35196Y126996D01*
X35211Y126959D01*
X35204Y126915D01*
X35217Y126896D01*
Y124567D01*
X35668D01*
X35674Y124553D01*
X35689Y124496D01*
X35703Y124415D01*
X35712Y124311D01*
X35716Y124174D01*
X35733Y124136D01*
Y122557D01*
X35010Y121834D01*
X26044D01*
X25921Y122334D01*
X26068Y122432D01*
X27261Y123625D01*
X27435Y123886D01*
X27478Y124104D01*
X27513Y124182D01*
X27516Y124317D01*
X27525Y124420D01*
X27538Y124501D01*
X27553Y124557D01*
X27558Y124567D01*
X28012D01*
Y126896D01*
X28025Y126915D01*
X28017Y126959D01*
X28032Y126996D01*
X28012Y127402D01*
X27785D01*
Y127402D01*
X27785D01*
X27720Y127860D01*
X27716Y127925D01*
X27719Y128046D01*
X27785Y128504D01*
X27785D01*
Y128504D01*
X28012D01*
X28032Y128910D01*
X28017Y128946D01*
X28025Y128990D01*
X28012Y129010D01*
Y130833D01*
X28025Y130852D01*
X28017Y130896D01*
X28032Y130933D01*
X28012Y131339D01*
X27785D01*
Y131339D01*
X27785D01*
X27720Y131797D01*
X27716Y131861D01*
X27719Y131983D01*
X27785Y132441D01*
X27785D01*
Y132441D01*
X28012D01*
X28032Y132847D01*
X28017Y132883D01*
X28025Y132927D01*
X28012Y132947D01*
Y135276D01*
X25374D01*
Y132947D01*
X25361Y132927D01*
X25369Y132883D01*
X25354Y132847D01*
X25374Y132441D01*
X25601D01*
Y132441D01*
X25601D01*
X25666Y131983D01*
X25670Y131918D01*
X25666Y131797D01*
X25601Y131339D01*
X25601D01*
Y131339D01*
X25374D01*
X25354Y130933D01*
X25369Y130896D01*
X25361Y130852D01*
X25374Y130833D01*
Y129010D01*
X25361Y128990D01*
X25369Y128946D01*
X25354Y128910D01*
X25374Y128504D01*
X25601D01*
Y128504D01*
X25601D01*
X25666Y128046D01*
X25670Y127981D01*
X25666Y127860D01*
X25601Y127402D01*
X25601D01*
Y127402D01*
X25374D01*
X25354Y126996D01*
X25369Y126959D01*
X25361Y126915D01*
X25374Y126896D01*
Y124567D01*
X25374D01*
X25416Y124200D01*
X25050Y123803D01*
X17489D01*
X17181Y123742D01*
X16921Y123568D01*
X16921Y123568D01*
X15574Y122221D01*
X15400Y121960D01*
X15339Y121653D01*
Y114011D01*
X15322Y113974D01*
X15304Y113946D01*
X15056Y113583D01*
X14756Y113583D01*
X14567D01*
Y111811D01*
X13780D01*
Y113583D01*
X13424D01*
X13195Y113724D01*
X13073Y113897D01*
X13022Y113973D01*
X13008Y114007D01*
Y121653D01*
X12946Y121960D01*
X12772Y122221D01*
X12772Y122221D01*
X11426Y123568D01*
X11165Y123742D01*
X10858Y123803D01*
X8651D01*
X8285Y124200D01*
X8327Y124567D01*
X8327D01*
Y126896D01*
X8339Y126915D01*
X8332Y126959D01*
X8347Y126996D01*
X8327Y127402D01*
X8100D01*
Y127402D01*
X8100D01*
X8035Y127860D01*
X8031Y127925D01*
X8034Y128046D01*
X8100Y128504D01*
X8100D01*
Y128504D01*
X8327D01*
X8347Y128910D01*
X8332Y128946D01*
X8339Y128990D01*
X8327Y129010D01*
Y130833D01*
X8339Y130852D01*
X8332Y130896D01*
X8347Y130933D01*
X8327Y131339D01*
X8100D01*
Y131339D01*
X8100D01*
X8035Y131797D01*
X8031Y131861D01*
X8034Y131983D01*
X8100Y132441D01*
X8100D01*
Y132441D01*
X8327D01*
X8347Y132847D01*
X8332Y132883D01*
X8339Y132927D01*
X8327Y132947D01*
Y134770D01*
X8339Y134789D01*
X8332Y134833D01*
X8347Y134870D01*
X8327Y135276D01*
X8100D01*
Y135276D01*
X8100D01*
X8035Y135734D01*
X8033Y135767D01*
X8038Y135837D01*
X8234Y136279D01*
X8465D01*
X8485Y136683D01*
X8480Y136696D01*
X8481Y136742D01*
X8465Y136771D01*
Y139500D01*
X21607D01*
X21988Y139213D01*
X21968Y138807D01*
X21983Y138770D01*
X21975Y138726D01*
X21988Y138707D01*
Y136884D01*
X21975Y136864D01*
X21983Y136820D01*
X21968Y136784D01*
X21988Y136378D01*
X22215D01*
Y136378D01*
X22215D01*
X22280Y135920D01*
X22284Y135855D01*
X22281Y135734D01*
X22215Y135276D01*
X22215D01*
Y135276D01*
X21988D01*
X21968Y134870D01*
X21983Y134833D01*
X21975Y134789D01*
X21988Y134770D01*
Y132441D01*
X24626D01*
Y134770D01*
X24639Y134789D01*
X24631Y134833D01*
X24646Y134870D01*
X24626Y135276D01*
X24399D01*
Y135276D01*
X24399D01*
X24334Y135734D01*
X24330Y135799D01*
X24334Y135920D01*
X24399Y136378D01*
X24399D01*
Y136378D01*
X24626D01*
X24646Y136784D01*
X24631Y136820D01*
X24639Y136864D01*
X24626Y136884D01*
Y138707D01*
X24639Y138726D01*
X24631Y138770D01*
X24646Y138807D01*
X24626Y139213D01*
X25000Y139495D01*
X25374Y139213D01*
X25374Y139000D01*
Y138189D01*
X26693D01*
Y137795D01*
D01*
Y138189D01*
X28012D01*
Y139000D01*
X28012Y139213D01*
X28393Y139500D01*
X31450D01*
X31831Y139213D01*
X31810Y138807D01*
X31825Y138770D01*
X31818Y138726D01*
X31831Y138707D01*
Y136884D01*
X31818Y136864D01*
X31825Y136820D01*
X31810Y136784D01*
X31831Y136378D01*
X32058D01*
Y136378D01*
X32058D01*
X32122Y135920D01*
X32127Y135855D01*
X32123Y135734D01*
X32058Y135276D01*
X32058D01*
Y135276D01*
X31831D01*
X31810Y134870D01*
X31825Y134833D01*
X31818Y134789D01*
X31831Y134770D01*
Y132441D01*
X34468D01*
Y134770D01*
X34481Y134789D01*
X34474Y134833D01*
X34489Y134870D01*
X34468Y135276D01*
X34241D01*
Y135276D01*
X34241D01*
X34177Y135734D01*
X34172Y135799D01*
X34176Y135920D01*
X34241Y136378D01*
X34241D01*
Y136378D01*
X34468D01*
X34489Y136784D01*
X34474Y136820D01*
X34481Y136864D01*
X34468Y136884D01*
Y138707D01*
X34481Y138726D01*
X34474Y138770D01*
X34489Y138807D01*
X34468Y139213D01*
X34843Y139495D01*
X35217Y139213D01*
X35217Y139000D01*
Y138189D01*
X36535D01*
X37854D01*
Y139000D01*
X37854Y139213D01*
X38235Y139500D01*
X41292D01*
X41673Y139213D01*
X41653Y138807D01*
X41668Y138770D01*
X41660Y138726D01*
X41673Y138707D01*
Y136884D01*
X41660Y136864D01*
X41668Y136820D01*
X41653Y136784D01*
X41673Y136378D01*
X41900D01*
Y136378D01*
X41900D01*
X41965Y135920D01*
X41969Y135855D01*
X41966Y135734D01*
X41900Y135276D01*
X41900D01*
Y135276D01*
X41673D01*
X41653Y134870D01*
X41668Y134833D01*
X41660Y134789D01*
X41673Y134770D01*
Y132441D01*
X44311D01*
Y134770D01*
X44324Y134789D01*
X44316Y134833D01*
X44331Y134870D01*
X44311Y135276D01*
X44084D01*
Y135276D01*
X44084D01*
X44019Y135734D01*
X44015Y135799D01*
X44019Y135920D01*
X44084Y136378D01*
X44084D01*
Y136378D01*
X44311D01*
X44331Y136784D01*
X44316Y136820D01*
X44324Y136864D01*
X44311Y136884D01*
Y138707D01*
X44324Y138726D01*
X44316Y138770D01*
X44331Y138807D01*
X44311Y139213D01*
X44685Y139495D01*
X45059Y139213D01*
X45059Y139000D01*
Y138189D01*
X46378D01*
X47697D01*
Y139000D01*
X47697Y139213D01*
X48078Y139500D01*
X54500D01*
Y66929D01*
D02*
G37*
G36*
X-7677Y136279D02*
X-4073D01*
X-4063Y136274D01*
X-4001Y136267D01*
X-3998Y136266D01*
X-3995Y136264D01*
X-3980Y136248D01*
X-3955Y136206D01*
X-3925Y136131D01*
X-3895Y136021D01*
X-3872Y135879D01*
X-3861Y135750D01*
X-3861Y135734D01*
X-3926Y135276D01*
X-3926D01*
Y135276D01*
X-4154D01*
X-4174Y134870D01*
X-4159Y134833D01*
X-4166Y134789D01*
X-4154Y134770D01*
Y132947D01*
X-4166Y132927D01*
X-4159Y132883D01*
X-4174Y132847D01*
X-4154Y132441D01*
X-3926D01*
Y132441D01*
X-3926D01*
X-3862Y131983D01*
X-3858Y131918D01*
X-3861Y131797D01*
X-3926Y131339D01*
X-3926D01*
Y131339D01*
X-4154D01*
X-4174Y130933D01*
X-4159Y130896D01*
X-4166Y130852D01*
X-4154Y130833D01*
Y129010D01*
X-4166Y128990D01*
X-4159Y128946D01*
X-4174Y128910D01*
X-4154Y128504D01*
X-3926D01*
Y128504D01*
X-3926D01*
X-3862Y128046D01*
X-3858Y127981D01*
X-3861Y127860D01*
X-3926Y127402D01*
X-3926D01*
Y127402D01*
X-4154D01*
X-4174Y126996D01*
X-4159Y126959D01*
X-4166Y126915D01*
X-4154Y126896D01*
Y124567D01*
X-3702D01*
X-3696Y124553D01*
X-3681Y124496D01*
X-3667Y124415D01*
X-3658Y124311D01*
X-3654Y124174D01*
X-3638Y124136D01*
Y122224D01*
X-3576Y121917D01*
X-3402Y121657D01*
X-2209Y120464D01*
X-2063Y120366D01*
X-2185Y119866D01*
X-11152D01*
X-11874Y120588D01*
Y124136D01*
X-11857Y124174D01*
X-11854Y124311D01*
X-11845Y124415D01*
X-11831Y124496D01*
X-11816Y124553D01*
X-11810Y124567D01*
X-11358D01*
Y126896D01*
X-11345Y126915D01*
X-11353Y126959D01*
X-11338Y126996D01*
X-11358Y127402D01*
X-11585D01*
Y127402D01*
X-11585D01*
X-11650Y127860D01*
X-11654Y127925D01*
X-11651Y128046D01*
X-11585Y128504D01*
X-11585D01*
Y128504D01*
X-11358D01*
X-11338Y128910D01*
X-11353Y128946D01*
X-11345Y128990D01*
X-11358Y129010D01*
Y130833D01*
X-11345Y130852D01*
X-11353Y130896D01*
X-11338Y130933D01*
X-11358Y131339D01*
X-11585D01*
Y131339D01*
X-11585D01*
X-11650Y131797D01*
X-11654Y131861D01*
X-11651Y131983D01*
X-11585Y132441D01*
X-11585D01*
Y132441D01*
X-11358D01*
X-11338Y132847D01*
X-11353Y132883D01*
X-11345Y132927D01*
X-11358Y132947D01*
Y134770D01*
X-11345Y134789D01*
X-11353Y134833D01*
X-11338Y134870D01*
X-11358Y135276D01*
X-11585D01*
Y135276D01*
X-11585D01*
X-11650Y135734D01*
X-11652Y135767D01*
X-11647Y135837D01*
X-11451Y136279D01*
X-11220D01*
X-11200Y136683D01*
X-11206Y136696D01*
X-11204Y136742D01*
X-11220Y136771D01*
Y139500D01*
X-7677D01*
Y136279D01*
D02*
G37*
G36*
X2165D02*
X5769D01*
X5780Y136274D01*
X5842Y136267D01*
X5845Y136266D01*
X5848Y136264D01*
X5862Y136248D01*
X5887Y136206D01*
X5918Y136131D01*
X5947Y136021D01*
X5971Y135879D01*
X5982Y135750D01*
X5981Y135734D01*
X5916Y135276D01*
X5916D01*
Y135276D01*
X5689D01*
X5669Y134870D01*
X5684Y134833D01*
X5676Y134789D01*
X5689Y134770D01*
Y132947D01*
X5676Y132927D01*
X5684Y132883D01*
X5669Y132847D01*
X5689Y132441D01*
X5916D01*
Y132441D01*
X5916D01*
X5981Y131983D01*
X5985Y131918D01*
X5981Y131797D01*
X5916Y131339D01*
X5916D01*
Y131339D01*
X5689D01*
X5669Y130933D01*
X5684Y130896D01*
X5676Y130852D01*
X5689Y130833D01*
Y129010D01*
X5676Y128990D01*
X5684Y128946D01*
X5669Y128910D01*
X5689Y128504D01*
X5916D01*
Y128504D01*
X5916D01*
X5981Y128046D01*
X5985Y127981D01*
X5981Y127860D01*
X5916Y127402D01*
X5916D01*
Y127402D01*
X5689D01*
X5669Y126996D01*
X5684Y126959D01*
X5676Y126915D01*
X5689Y126896D01*
Y124567D01*
X6143D01*
X6148Y124557D01*
X6162Y124501D01*
X6176Y124420D01*
X6185Y124317D01*
X6188Y124182D01*
X6223Y124104D01*
X6266Y123886D01*
X6440Y123625D01*
X7633Y122432D01*
X7780Y122334D01*
X7657Y121834D01*
X-1309D01*
X-2032Y122557D01*
Y124136D01*
X-2015Y124174D01*
X-2011Y124311D01*
X-2002Y124415D01*
X-1989Y124496D01*
X-1973Y124553D01*
X-1967Y124567D01*
X-1516D01*
Y126896D01*
X-1503Y126915D01*
X-1510Y126959D01*
X-1495Y126996D01*
X-1516Y127402D01*
X-1743D01*
Y127402D01*
X-1743D01*
X-1807Y127860D01*
X-1812Y127925D01*
X-1808Y128046D01*
X-1743Y128504D01*
X-1743D01*
Y128504D01*
X-1516D01*
X-1495Y128910D01*
X-1510Y128946D01*
X-1503Y128990D01*
X-1516Y129010D01*
Y130833D01*
X-1503Y130852D01*
X-1510Y130896D01*
X-1495Y130933D01*
X-1516Y131339D01*
X-1743D01*
Y131339D01*
X-1743D01*
X-1807Y131797D01*
X-1812Y131861D01*
X-1808Y131983D01*
X-1743Y132441D01*
X-1743D01*
Y132441D01*
X-1516D01*
X-1495Y132847D01*
X-1510Y132883D01*
X-1503Y132927D01*
X-1516Y132947D01*
Y134770D01*
X-1503Y134789D01*
X-1510Y134833D01*
X-1495Y134870D01*
X-1516Y135276D01*
X-1743D01*
Y135276D01*
X-1743D01*
X-1807Y135734D01*
X-1810Y135767D01*
X-1805Y135837D01*
X-1608Y136279D01*
X-1378D01*
X-1357Y136683D01*
X-1363Y136696D01*
X-1361Y136742D01*
X-1378Y136771D01*
Y139500D01*
X2165D01*
Y136279D01*
D02*
G37*
G36*
X43844Y136772D02*
X43789Y136736D01*
X43741Y136677D01*
X43699Y136595D01*
X43663Y136488D01*
X43634Y136358D01*
X43612Y136205D01*
X43596Y136028D01*
X43588Y135790D01*
X43612Y135449D01*
X43634Y135295D01*
X43663Y135165D01*
X43699Y135059D01*
X43741Y134976D01*
X43789Y134917D01*
X43844Y134882D01*
X43905Y134870D01*
X42079D01*
X42140Y134882D01*
X42195Y134917D01*
X42243Y134976D01*
X42285Y135059D01*
X42321Y135165D01*
X42350Y135295D01*
X42373Y135449D01*
X42389Y135626D01*
X42396Y135863D01*
X42373Y136205D01*
X42350Y136358D01*
X42321Y136488D01*
X42285Y136595D01*
X42243Y136677D01*
X42195Y136736D01*
X42140Y136772D01*
X42079Y136784D01*
X43905D01*
X43844Y136772D01*
D02*
G37*
G36*
X34001D02*
X33947Y136736D01*
X33898Y136677D01*
X33856Y136595D01*
X33821Y136488D01*
X33792Y136358D01*
X33769Y136205D01*
X33753Y136028D01*
X33746Y135790D01*
X33769Y135449D01*
X33792Y135295D01*
X33821Y135165D01*
X33856Y135059D01*
X33898Y134976D01*
X33947Y134917D01*
X34001Y134882D01*
X34063Y134870D01*
X32236D01*
X32298Y134882D01*
X32353Y134917D01*
X32401Y134976D01*
X32443Y135059D01*
X32478Y135165D01*
X32507Y135295D01*
X32530Y135449D01*
X32546Y135626D01*
X32553Y135863D01*
X32530Y136205D01*
X32507Y136358D01*
X32478Y136488D01*
X32443Y136595D01*
X32401Y136677D01*
X32353Y136736D01*
X32298Y136772D01*
X32236Y136784D01*
X34063D01*
X34001Y136772D01*
D02*
G37*
G36*
X24159D02*
X24104Y136736D01*
X24056Y136677D01*
X24014Y136595D01*
X23978Y136488D01*
X23949Y136358D01*
X23927Y136205D01*
X23911Y136028D01*
X23903Y135790D01*
X23927Y135449D01*
X23949Y135295D01*
X23978Y135165D01*
X24014Y135059D01*
X24056Y134976D01*
X24104Y134917D01*
X24159Y134882D01*
X24220Y134870D01*
X22394D01*
X22455Y134882D01*
X22510Y134917D01*
X22558Y134976D01*
X22600Y135059D01*
X22636Y135165D01*
X22665Y135295D01*
X22688Y135449D01*
X22704Y135626D01*
X22711Y135863D01*
X22688Y136205D01*
X22665Y136358D01*
X22636Y136488D01*
X22600Y136595D01*
X22558Y136677D01*
X22510Y136736D01*
X22455Y136772D01*
X22394Y136784D01*
X24220D01*
X24159Y136772D01*
D02*
G37*
G36*
X8059Y136685D02*
X7971Y136673D01*
X7893Y136638D01*
X7824Y136579D01*
X7764Y136496D01*
X7713Y136390D01*
X7672Y136260D01*
X7640Y136107D01*
X7617Y135929D01*
X7606Y135767D01*
X7627Y135449D01*
X7650Y135295D01*
X7679Y135165D01*
X7715Y135059D01*
X7756Y134976D01*
X7805Y134917D01*
X7860Y134882D01*
X7921Y134870D01*
X6095D01*
X6156Y134882D01*
X6211Y134917D01*
X6259Y134976D01*
X6301Y135059D01*
X6337Y135165D01*
X6366Y135295D01*
X6388Y135449D01*
X6404Y135626D01*
X6409Y135763D01*
X6394Y135933D01*
X6364Y136111D01*
X6323Y136266D01*
X6270Y136397D01*
X6205Y136505D01*
X6128Y136589D01*
X6039Y136648D01*
X5939Y136685D01*
X5827Y136697D01*
X8059Y136685D01*
D02*
G37*
G36*
X-1784D02*
X-1871Y136673D01*
X-1949Y136638D01*
X-2018Y136579D01*
X-2078Y136496D01*
X-2129Y136390D01*
X-2170Y136260D01*
X-2203Y136107D01*
X-2226Y135929D01*
X-2237Y135767D01*
X-2215Y135449D01*
X-2193Y135295D01*
X-2163Y135165D01*
X-2128Y135059D01*
X-2086Y134976D01*
X-2038Y134917D01*
X-1983Y134882D01*
X-1922Y134870D01*
X-3748D01*
X-3686Y134882D01*
X-3632Y134917D01*
X-3583Y134976D01*
X-3541Y135059D01*
X-3506Y135165D01*
X-3477Y135295D01*
X-3454Y135449D01*
X-3438Y135626D01*
X-3434Y135763D01*
X-3449Y135933D01*
X-3478Y136111D01*
X-3520Y136266D01*
X-3573Y136397D01*
X-3638Y136505D01*
X-3715Y136589D01*
X-3803Y136648D01*
X-3903Y136685D01*
X-4016Y136697D01*
X-1784Y136685D01*
D02*
G37*
G36*
X-11626D02*
X-11714Y136673D01*
X-11792Y136638D01*
X-11861Y136579D01*
X-11921Y136496D01*
X-11971Y136390D01*
X-12013Y136260D01*
X-12045Y136107D01*
X-12068Y135929D01*
X-12079Y135767D01*
X-12058Y135449D01*
X-12035Y135295D01*
X-12006Y135165D01*
X-11970Y135059D01*
X-11929Y134976D01*
X-11880Y134917D01*
X-11825Y134882D01*
X-11764Y134870D01*
X-13590D01*
X-13529Y134882D01*
X-13474Y134917D01*
X-13426Y134976D01*
X-13384Y135059D01*
X-13348Y135165D01*
X-13319Y135295D01*
X-13297Y135449D01*
X-13281Y135626D01*
X-13276Y135763D01*
X-13291Y135933D01*
X-13321Y136111D01*
X-13362Y136266D01*
X-13415Y136397D01*
X-13480Y136505D01*
X-13557Y136589D01*
X-13646Y136648D01*
X-13746Y136685D01*
X-13858Y136697D01*
X-11626Y136685D01*
D02*
G37*
G36*
X47230Y132835D02*
X47175Y132799D01*
X47127Y132740D01*
X47085Y132658D01*
X47049Y132551D01*
X47020Y132422D01*
X46997Y132268D01*
X46981Y132091D01*
X46974Y131853D01*
X46997Y131512D01*
X47020Y131358D01*
X47049Y131228D01*
X47085Y131122D01*
X47127Y131039D01*
X47175Y130980D01*
X47230Y130945D01*
X47291Y130933D01*
X45465D01*
X45526Y130945D01*
X45581Y130980D01*
X45629Y131039D01*
X45671Y131122D01*
X45707Y131228D01*
X45736Y131358D01*
X45758Y131512D01*
X45774Y131689D01*
X45782Y131926D01*
X45758Y132268D01*
X45736Y132422D01*
X45707Y132551D01*
X45671Y132658D01*
X45629Y132740D01*
X45581Y132799D01*
X45526Y132835D01*
X45465Y132847D01*
X47291D01*
X47230Y132835D01*
D02*
G37*
G36*
X37387D02*
X37332Y132799D01*
X37284Y132740D01*
X37242Y132658D01*
X37207Y132551D01*
X37178Y132422D01*
X37155Y132268D01*
X37139Y132091D01*
X37132Y131853D01*
X37155Y131512D01*
X37178Y131358D01*
X37207Y131228D01*
X37242Y131122D01*
X37284Y131039D01*
X37332Y130980D01*
X37387Y130945D01*
X37449Y130933D01*
X35622D01*
X35684Y130945D01*
X35738Y130980D01*
X35787Y131039D01*
X35829Y131122D01*
X35864Y131228D01*
X35893Y131358D01*
X35916Y131512D01*
X35932Y131689D01*
X35939Y131926D01*
X35916Y132268D01*
X35893Y132422D01*
X35864Y132551D01*
X35829Y132658D01*
X35787Y132740D01*
X35738Y132799D01*
X35684Y132835D01*
X35622Y132847D01*
X37449D01*
X37387Y132835D01*
D02*
G37*
G36*
X27545D02*
X27490Y132799D01*
X27442Y132740D01*
X27400Y132658D01*
X27364Y132551D01*
X27335Y132422D01*
X27312Y132268D01*
X27296Y132091D01*
X27289Y131853D01*
X27312Y131512D01*
X27335Y131358D01*
X27364Y131228D01*
X27400Y131122D01*
X27442Y131039D01*
X27490Y130980D01*
X27545Y130945D01*
X27606Y130933D01*
X25780D01*
X25841Y130945D01*
X25896Y130980D01*
X25944Y131039D01*
X25986Y131122D01*
X26022Y131228D01*
X26051Y131358D01*
X26073Y131512D01*
X26089Y131689D01*
X26097Y131926D01*
X26073Y132268D01*
X26051Y132422D01*
X26022Y132551D01*
X25986Y132658D01*
X25944Y132740D01*
X25896Y132799D01*
X25841Y132835D01*
X25780Y132847D01*
X27606D01*
X27545Y132835D01*
D02*
G37*
G36*
X7860D02*
X7805Y132799D01*
X7756Y132740D01*
X7715Y132658D01*
X7679Y132551D01*
X7650Y132422D01*
X7627Y132268D01*
X7611Y132091D01*
X7604Y131853D01*
X7627Y131512D01*
X7650Y131358D01*
X7679Y131228D01*
X7715Y131122D01*
X7756Y131039D01*
X7805Y130980D01*
X7860Y130945D01*
X7921Y130933D01*
X6095D01*
X6156Y130945D01*
X6211Y130980D01*
X6259Y131039D01*
X6301Y131122D01*
X6337Y131228D01*
X6366Y131358D01*
X6388Y131512D01*
X6404Y131689D01*
X6412Y131926D01*
X6388Y132268D01*
X6366Y132422D01*
X6337Y132551D01*
X6301Y132658D01*
X6259Y132740D01*
X6211Y132799D01*
X6156Y132835D01*
X6095Y132847D01*
X7921D01*
X7860Y132835D01*
D02*
G37*
G36*
X-1983D02*
X-2038Y132799D01*
X-2086Y132740D01*
X-2128Y132658D01*
X-2163Y132551D01*
X-2193Y132422D01*
X-2215Y132268D01*
X-2231Y132091D01*
X-2238Y131853D01*
X-2215Y131512D01*
X-2193Y131358D01*
X-2163Y131228D01*
X-2128Y131122D01*
X-2086Y131039D01*
X-2038Y130980D01*
X-1983Y130945D01*
X-1922Y130933D01*
X-3748D01*
X-3686Y130945D01*
X-3632Y130980D01*
X-3583Y131039D01*
X-3541Y131122D01*
X-3506Y131228D01*
X-3477Y131358D01*
X-3454Y131512D01*
X-3438Y131689D01*
X-3431Y131926D01*
X-3454Y132268D01*
X-3477Y132422D01*
X-3506Y132551D01*
X-3541Y132658D01*
X-3583Y132740D01*
X-3632Y132799D01*
X-3686Y132835D01*
X-3748Y132847D01*
X-1922D01*
X-1983Y132835D01*
D02*
G37*
G36*
X-11825D02*
X-11880Y132799D01*
X-11929Y132740D01*
X-11970Y132658D01*
X-12006Y132551D01*
X-12035Y132422D01*
X-12058Y132268D01*
X-12074Y132091D01*
X-12081Y131853D01*
X-12058Y131512D01*
X-12035Y131358D01*
X-12006Y131228D01*
X-11970Y131122D01*
X-11929Y131039D01*
X-11880Y130980D01*
X-11825Y130945D01*
X-11764Y130933D01*
X-13590D01*
X-13529Y130945D01*
X-13474Y130980D01*
X-13426Y131039D01*
X-13384Y131122D01*
X-13348Y131228D01*
X-13319Y131358D01*
X-13297Y131512D01*
X-13281Y131689D01*
X-13273Y131926D01*
X-13297Y132268D01*
X-13319Y132422D01*
X-13348Y132551D01*
X-13384Y132658D01*
X-13426Y132740D01*
X-13474Y132799D01*
X-13529Y132835D01*
X-13590Y132847D01*
X-11764D01*
X-11825Y132835D01*
D02*
G37*
G36*
X47230Y128898D02*
X47175Y128862D01*
X47127Y128803D01*
X47085Y128721D01*
X47049Y128614D01*
X47020Y128484D01*
X46997Y128331D01*
X46981Y128154D01*
X46974Y127916D01*
X46997Y127575D01*
X47020Y127421D01*
X47049Y127291D01*
X47085Y127185D01*
X47127Y127102D01*
X47175Y127043D01*
X47230Y127008D01*
X47291Y126996D01*
X45465D01*
X45526Y127008D01*
X45581Y127043D01*
X45629Y127102D01*
X45671Y127185D01*
X45707Y127291D01*
X45736Y127421D01*
X45758Y127575D01*
X45774Y127752D01*
X45782Y127989D01*
X45758Y128331D01*
X45736Y128484D01*
X45707Y128614D01*
X45671Y128721D01*
X45629Y128803D01*
X45581Y128862D01*
X45526Y128898D01*
X45465Y128910D01*
X47291D01*
X47230Y128898D01*
D02*
G37*
G36*
X37387D02*
X37332Y128862D01*
X37284Y128803D01*
X37242Y128721D01*
X37207Y128614D01*
X37178Y128484D01*
X37155Y128331D01*
X37139Y128154D01*
X37132Y127916D01*
X37155Y127575D01*
X37178Y127421D01*
X37207Y127291D01*
X37242Y127185D01*
X37284Y127102D01*
X37332Y127043D01*
X37387Y127008D01*
X37449Y126996D01*
X35622D01*
X35684Y127008D01*
X35738Y127043D01*
X35787Y127102D01*
X35829Y127185D01*
X35864Y127291D01*
X35893Y127421D01*
X35916Y127575D01*
X35932Y127752D01*
X35939Y127989D01*
X35916Y128331D01*
X35893Y128484D01*
X35864Y128614D01*
X35829Y128721D01*
X35787Y128803D01*
X35738Y128862D01*
X35684Y128898D01*
X35622Y128910D01*
X37449D01*
X37387Y128898D01*
D02*
G37*
G36*
X27545D02*
X27490Y128862D01*
X27442Y128803D01*
X27400Y128721D01*
X27364Y128614D01*
X27335Y128484D01*
X27312Y128331D01*
X27296Y128154D01*
X27289Y127916D01*
X27312Y127575D01*
X27335Y127421D01*
X27364Y127291D01*
X27400Y127185D01*
X27442Y127102D01*
X27490Y127043D01*
X27545Y127008D01*
X27606Y126996D01*
X25780D01*
X25841Y127008D01*
X25896Y127043D01*
X25944Y127102D01*
X25986Y127185D01*
X26022Y127291D01*
X26051Y127421D01*
X26073Y127575D01*
X26089Y127752D01*
X26097Y127989D01*
X26073Y128331D01*
X26051Y128484D01*
X26022Y128614D01*
X25986Y128721D01*
X25944Y128803D01*
X25896Y128862D01*
X25841Y128898D01*
X25780Y128910D01*
X27606D01*
X27545Y128898D01*
D02*
G37*
G36*
X7860D02*
X7805Y128862D01*
X7756Y128803D01*
X7715Y128721D01*
X7679Y128614D01*
X7650Y128484D01*
X7627Y128331D01*
X7611Y128154D01*
X7604Y127916D01*
X7627Y127575D01*
X7650Y127421D01*
X7679Y127291D01*
X7715Y127185D01*
X7756Y127102D01*
X7805Y127043D01*
X7860Y127008D01*
X7921Y126996D01*
X6095D01*
X6156Y127008D01*
X6211Y127043D01*
X6259Y127102D01*
X6301Y127185D01*
X6337Y127291D01*
X6366Y127421D01*
X6388Y127575D01*
X6404Y127752D01*
X6412Y127989D01*
X6388Y128331D01*
X6366Y128484D01*
X6337Y128614D01*
X6301Y128721D01*
X6259Y128803D01*
X6211Y128862D01*
X6156Y128898D01*
X6095Y128910D01*
X7921D01*
X7860Y128898D01*
D02*
G37*
G36*
X-1983D02*
X-2038Y128862D01*
X-2086Y128803D01*
X-2128Y128721D01*
X-2163Y128614D01*
X-2193Y128484D01*
X-2215Y128331D01*
X-2231Y128154D01*
X-2238Y127916D01*
X-2215Y127575D01*
X-2193Y127421D01*
X-2163Y127291D01*
X-2128Y127185D01*
X-2086Y127102D01*
X-2038Y127043D01*
X-1983Y127008D01*
X-1922Y126996D01*
X-3748D01*
X-3686Y127008D01*
X-3632Y127043D01*
X-3583Y127102D01*
X-3541Y127185D01*
X-3506Y127291D01*
X-3477Y127421D01*
X-3454Y127575D01*
X-3438Y127752D01*
X-3431Y127989D01*
X-3454Y128331D01*
X-3477Y128484D01*
X-3506Y128614D01*
X-3541Y128721D01*
X-3583Y128803D01*
X-3632Y128862D01*
X-3686Y128898D01*
X-3748Y128910D01*
X-1922D01*
X-1983Y128898D01*
D02*
G37*
G36*
X-11825D02*
X-11880Y128862D01*
X-11929Y128803D01*
X-11970Y128721D01*
X-12006Y128614D01*
X-12035Y128484D01*
X-12058Y128331D01*
X-12074Y128154D01*
X-12081Y127916D01*
X-12058Y127575D01*
X-12035Y127421D01*
X-12006Y127291D01*
X-11970Y127185D01*
X-11929Y127102D01*
X-11880Y127043D01*
X-11825Y127008D01*
X-11764Y126996D01*
X-13590D01*
X-13529Y127008D01*
X-13474Y127043D01*
X-13426Y127102D01*
X-13384Y127185D01*
X-13348Y127291D01*
X-13319Y127421D01*
X-13297Y127575D01*
X-13281Y127752D01*
X-13273Y127989D01*
X-13297Y128331D01*
X-13319Y128484D01*
X-13348Y128614D01*
X-13384Y128721D01*
X-13426Y128803D01*
X-13474Y128862D01*
X-13529Y128898D01*
X-13590Y128910D01*
X-11764D01*
X-11825Y128898D01*
D02*
G37*
G36*
X27106Y125550D02*
X27102Y125511D01*
X27095Y125363D01*
X27092Y124973D01*
X27473D01*
X27399Y124965D01*
X27334Y124941D01*
X27276Y124902D01*
X27226Y124848D01*
X27183Y124778D01*
X27148Y124692D01*
X27121Y124591D01*
X27102Y124474D01*
X27090Y124341D01*
X27087Y124193D01*
X26299D01*
X26295Y124341D01*
X26284Y124474D01*
X26265Y124591D01*
X26237Y124692D01*
X26203Y124778D01*
X26160Y124848D01*
X26110Y124902D01*
X26052Y124941D01*
X25986Y124965D01*
X25913Y124973D01*
X26287D01*
X26275Y125567D01*
X27111D01*
X27106Y125550D01*
D02*
G37*
G36*
X7421D02*
X7417Y125511D01*
X7410Y125363D01*
X7407Y124973D01*
X7788D01*
X7714Y124965D01*
X7649Y124941D01*
X7591Y124902D01*
X7541Y124848D01*
X7498Y124778D01*
X7463Y124692D01*
X7436Y124591D01*
X7417Y124474D01*
X7405Y124341D01*
X7402Y124193D01*
X6614D01*
X6610Y124341D01*
X6599Y124474D01*
X6579Y124591D01*
X6552Y124692D01*
X6518Y124778D01*
X6475Y124848D01*
X6425Y124902D01*
X6367Y124941D01*
X6301Y124965D01*
X6228Y124973D01*
X6602D01*
X6590Y125567D01*
X7426D01*
X7421Y125550D01*
D02*
G37*
G36*
X46791D02*
X46787Y125511D01*
X46780Y125363D01*
X46777Y124973D01*
X47165D01*
X47091Y124965D01*
X47024Y124941D01*
X46965Y124902D01*
X46913Y124847D01*
X46870Y124776D01*
X46835Y124689D01*
X46807Y124587D01*
X46787Y124469D01*
X46776Y124335D01*
X46772Y124185D01*
X45984D01*
X45980Y124335D01*
X45968Y124469D01*
X45949Y124587D01*
X45921Y124689D01*
X45886Y124776D01*
X45842Y124847D01*
X45791Y124902D01*
X45732Y124941D01*
X45665Y124965D01*
X45591Y124973D01*
X45972D01*
X45960Y125567D01*
X46796D01*
X46791Y125550D01*
D02*
G37*
G36*
X36949D02*
X36945Y125511D01*
X36938Y125363D01*
X36934Y124973D01*
X37323D01*
X37248Y124965D01*
X37181Y124941D01*
X37122Y124902D01*
X37071Y124847D01*
X37028Y124776D01*
X36992Y124689D01*
X36965Y124587D01*
X36945Y124469D01*
X36933Y124335D01*
X36929Y124185D01*
X36142D01*
X36138Y124335D01*
X36126Y124469D01*
X36106Y124587D01*
X36079Y124689D01*
X36043Y124776D01*
X36000Y124847D01*
X35949Y124902D01*
X35890Y124941D01*
X35823Y124965D01*
X35748Y124973D01*
X36130D01*
X36118Y125567D01*
X36953D01*
X36949Y125550D01*
D02*
G37*
G36*
X-2421D02*
X-2426Y125511D01*
X-2432Y125363D01*
X-2436Y124973D01*
X-2047D01*
X-2122Y124965D01*
X-2189Y124941D01*
X-2248Y124902D01*
X-2299Y124847D01*
X-2342Y124776D01*
X-2378Y124689D01*
X-2406Y124587D01*
X-2425Y124469D01*
X-2437Y124335D01*
X-2441Y124185D01*
X-3228D01*
X-3232Y124335D01*
X-3244Y124469D01*
X-3264Y124587D01*
X-3291Y124689D01*
X-3327Y124776D01*
X-3370Y124847D01*
X-3421Y124902D01*
X-3480Y124941D01*
X-3547Y124965D01*
X-3622Y124973D01*
X-3241D01*
X-3252Y125567D01*
X-2417D01*
X-2421Y125550D01*
D02*
G37*
G36*
X-12264D02*
X-12268Y125511D01*
X-12275Y125363D01*
X-12278Y124973D01*
X-11890D01*
X-11965Y124965D01*
X-12032Y124941D01*
X-12091Y124902D01*
X-12142Y124847D01*
X-12185Y124776D01*
X-12220Y124689D01*
X-12248Y124587D01*
X-12268Y124469D01*
X-12280Y124335D01*
X-12284Y124185D01*
X-13071D01*
X-13075Y124335D01*
X-13087Y124469D01*
X-13106Y124587D01*
X-13134Y124689D01*
X-13169Y124776D01*
X-13213Y124847D01*
X-13264Y124902D01*
X-13323Y124941D01*
X-13390Y124965D01*
X-13465Y124973D01*
X-13083D01*
X-13095Y125567D01*
X-12259D01*
X-12264Y125550D01*
D02*
G37*
G36*
X20473Y113815D02*
X20504Y113303D01*
X20515Y113248D01*
X20528Y113208D01*
X20542Y113185D01*
X20559Y113177D01*
X19599D01*
X19615Y113185D01*
X19630Y113208D01*
X19643Y113248D01*
X19654Y113303D01*
X19663Y113374D01*
X19677Y113563D01*
X19685Y113964D01*
X20472D01*
X20473Y113815D01*
D02*
G37*
G36*
X18505D02*
X18535Y113303D01*
X18546Y113248D01*
X18559Y113208D01*
X18574Y113185D01*
X18590Y113177D01*
X17630D01*
X17647Y113185D01*
X17661Y113208D01*
X17674Y113248D01*
X17685Y113303D01*
X17695Y113374D01*
X17709Y113563D01*
X17717Y113964D01*
X18504D01*
X18505Y113815D01*
D02*
G37*
G36*
X16536D02*
X16567Y113303D01*
X16578Y113248D01*
X16591Y113208D01*
X16605Y113185D01*
X16622Y113177D01*
X15662D01*
X15678Y113185D01*
X15693Y113208D01*
X15706Y113248D01*
X15717Y113303D01*
X15726Y113374D01*
X15740Y113563D01*
X15748Y113964D01*
X16535D01*
X16536Y113815D01*
D02*
G37*
G36*
X12599D02*
X12630Y113303D01*
X12641Y113248D01*
X12654Y113208D01*
X12668Y113185D01*
X12685Y113177D01*
X11725D01*
X11741Y113185D01*
X11756Y113208D01*
X11769Y113248D01*
X11780Y113303D01*
X11789Y113374D01*
X11803Y113563D01*
X11811Y113964D01*
X12598D01*
X12599Y113815D01*
D02*
G37*
G36*
X10631D02*
X10661Y113303D01*
X10672Y113248D01*
X10685Y113208D01*
X10700Y113185D01*
X10716Y113177D01*
X9756D01*
X9772Y113185D01*
X9787Y113208D01*
X9800Y113248D01*
X9811Y113303D01*
X9821Y113374D01*
X9835Y113563D01*
X9843Y113964D01*
X10630D01*
X10631Y113815D01*
D02*
G37*
G36*
X8662D02*
X8692Y113303D01*
X8704Y113248D01*
X8717Y113208D01*
X8731Y113185D01*
X8748Y113177D01*
X7788D01*
X7804Y113185D01*
X7819Y113208D01*
X7832Y113248D01*
X7843Y113303D01*
X7852Y113374D01*
X7866Y113563D01*
X7874Y113964D01*
X8661D01*
X8662Y113815D01*
D02*
G37*
G36*
X42091Y112402D02*
X42083Y112476D01*
X42059Y112543D01*
X42019Y112602D01*
X41963Y112654D01*
X41891Y112697D01*
X41803Y112732D01*
X41699Y112760D01*
X41579Y112779D01*
X41443Y112791D01*
X41291Y112795D01*
Y113583D01*
X41443Y113587D01*
X41579Y113598D01*
X41699Y113618D01*
X41803Y113646D01*
X41891Y113681D01*
X41963Y113724D01*
X42019Y113776D01*
X42059Y113835D01*
X42083Y113902D01*
X42091Y113976D01*
Y112402D01*
D02*
G37*
G36*
X25980Y109716D02*
X26004Y109701D01*
X26043Y109688D01*
X26098Y109677D01*
X26169Y109667D01*
X26358Y109653D01*
X26760Y109645D01*
Y108858D01*
X26610Y108857D01*
X26098Y108827D01*
X26043Y108816D01*
X26004Y108803D01*
X25980Y108788D01*
X25972Y108772D01*
Y109732D01*
X25980Y109716D01*
D02*
G37*
G36*
X27840Y108563D02*
X27780Y108619D01*
X27716Y108669D01*
X27648Y108713D01*
X27575Y108752D01*
X27498Y108784D01*
X27417Y108811D01*
X27332Y108831D01*
X27242Y108846D01*
X27149Y108855D01*
X27051Y108858D01*
Y109645D01*
X27149Y109648D01*
X27242Y109657D01*
X27332Y109672D01*
X27417Y109693D01*
X27498Y109719D01*
X27575Y109752D01*
X27648Y109790D01*
X27716Y109834D01*
X27780Y109885D01*
X27840Y109941D01*
Y108563D01*
D02*
G37*
G36*
X42091Y108465D02*
X42083Y108539D01*
X42059Y108606D01*
X42019Y108665D01*
X41963Y108716D01*
X41891Y108760D01*
X41803Y108795D01*
X41699Y108823D01*
X41579Y108843D01*
X41443Y108854D01*
X41291Y108858D01*
Y109646D01*
X41443Y109650D01*
X41579Y109661D01*
X41699Y109681D01*
X41803Y109709D01*
X41891Y109744D01*
X41963Y109787D01*
X42019Y109839D01*
X42059Y109898D01*
X42083Y109965D01*
X42091Y110039D01*
Y108465D01*
D02*
G37*
G36*
X-11768Y109965D02*
X-11744Y109898D01*
X-11704Y109839D01*
X-11648Y109787D01*
X-11576Y109744D01*
X-11488Y109709D01*
X-11384Y109681D01*
X-11264Y109661D01*
X-11129Y109650D01*
X-10977Y109646D01*
Y108858D01*
X-11129Y108854D01*
X-11264Y108843D01*
X-11384Y108823D01*
X-11488Y108795D01*
X-11576Y108760D01*
X-11648Y108716D01*
X-11704Y108665D01*
X-11744Y108606D01*
X-11768Y108539D01*
X-11776Y108465D01*
Y110039D01*
X-11768Y109965D01*
D02*
G37*
G36*
X25980Y107747D02*
X26004Y107732D01*
X26043Y107719D01*
X26098Y107708D01*
X26169Y107699D01*
X26358Y107685D01*
X26760Y107677D01*
Y106889D01*
X26610Y106889D01*
X26098Y106858D01*
X26043Y106847D01*
X26004Y106834D01*
X25980Y106820D01*
X25972Y106803D01*
Y107764D01*
X25980Y107747D01*
D02*
G37*
G36*
X4343Y106803D02*
X4335Y106820D01*
X4311Y106834D01*
X4272Y106847D01*
X4217Y106858D01*
X4146Y106868D01*
X3957Y106882D01*
X3555Y106889D01*
Y107677D01*
X3705Y107678D01*
X4217Y107708D01*
X4272Y107719D01*
X4311Y107732D01*
X4335Y107747D01*
X4343Y107764D01*
Y106803D01*
D02*
G37*
G36*
X2534Y107916D02*
X2599Y107866D01*
X2667Y107822D01*
X2740Y107783D01*
X2817Y107751D01*
X2898Y107724D01*
X2983Y107703D01*
X3073Y107689D01*
X3166Y107680D01*
X3264Y107677D01*
Y106889D01*
X3166Y106886D01*
X3073Y106878D01*
X2983Y106863D01*
X2898Y106842D01*
X2817Y106816D01*
X2740Y106783D01*
X2667Y106745D01*
X2599Y106701D01*
X2534Y106650D01*
X2475Y106594D01*
Y107972D01*
X2534Y107916D01*
D02*
G37*
G36*
X42091Y104528D02*
X42083Y104602D01*
X42059Y104669D01*
X42019Y104728D01*
X41963Y104780D01*
X41891Y104823D01*
X41803Y104858D01*
X41699Y104886D01*
X41579Y104905D01*
X41495Y104913D01*
X41459Y104909D01*
X41370Y104895D01*
X41284Y104874D01*
X41203Y104847D01*
X41126Y104815D01*
X41054Y104777D01*
X40985Y104732D01*
X40921Y104682D01*
X40861Y104626D01*
X40158Y105315D01*
X39455Y104626D01*
X39395Y104682D01*
X39331Y104732D01*
X39262Y104777D01*
X39190Y104815D01*
X39113Y104847D01*
X39032Y104874D01*
X38947Y104895D01*
X38857Y104909D01*
X38763Y104918D01*
X38665Y104921D01*
X38666Y105709D01*
X38764Y105712D01*
X38857Y105720D01*
X38947Y105735D01*
X39032Y105756D01*
X39113Y105782D01*
X39190Y105815D01*
X39263Y105853D01*
X39331Y105898D01*
X39395Y105948D01*
X39456Y106004D01*
X40158Y105315D01*
X40861Y106004D01*
X40921Y105948D01*
X40985Y105898D01*
X41054Y105853D01*
X41126Y105815D01*
X41203Y105782D01*
X41284Y105756D01*
X41369Y105735D01*
X41459Y105720D01*
X41495Y105717D01*
X41579Y105724D01*
X41699Y105744D01*
X41803Y105772D01*
X41891Y105807D01*
X41963Y105850D01*
X42019Y105902D01*
X42059Y105961D01*
X42083Y106028D01*
X42091Y106102D01*
Y104528D01*
D02*
G37*
G36*
X25980Y105779D02*
X26004Y105764D01*
X26043Y105751D01*
X26098Y105740D01*
X26169Y105730D01*
X26358Y105716D01*
X26760Y105708D01*
Y104921D01*
X26610Y104920D01*
X26098Y104890D01*
X26043Y104879D01*
X26004Y104866D01*
X25980Y104851D01*
X25972Y104835D01*
Y105795D01*
X25980Y105779D01*
D02*
G37*
G36*
X4343Y104835D02*
X4335Y104851D01*
X4311Y104866D01*
X4272Y104879D01*
X4217Y104890D01*
X4146Y104899D01*
X3957Y104913D01*
X3555Y104921D01*
Y105708D01*
X3705Y105709D01*
X4217Y105740D01*
X4272Y105751D01*
X4311Y105764D01*
X4335Y105779D01*
X4343Y105795D01*
Y104835D01*
D02*
G37*
G36*
X-11768Y106028D02*
X-11744Y105961D01*
X-11704Y105902D01*
X-11648Y105850D01*
X-11576Y105807D01*
X-11488Y105772D01*
X-11384Y105744D01*
X-11264Y105724D01*
X-11180Y105717D01*
X-11144Y105720D01*
X-11054Y105735D01*
X-10969Y105756D01*
X-10888Y105782D01*
X-10811Y105815D01*
X-10738Y105853D01*
X-10670Y105898D01*
X-10605Y105948D01*
X-10545Y106004D01*
X-9843Y105315D01*
X-9140Y106004D01*
X-9080Y105948D01*
X-9015Y105898D01*
X-8947Y105853D01*
X-8874Y105815D01*
X-8798Y105782D01*
X-8716Y105756D01*
X-8631Y105735D01*
X-8542Y105720D01*
X-8448Y105712D01*
X-8350Y105709D01*
Y104921D01*
X-8448Y104918D01*
X-8542Y104910D01*
X-8631Y104895D01*
X-8716Y104874D01*
X-8798Y104848D01*
X-8874Y104815D01*
X-8947Y104777D01*
X-9015Y104732D01*
X-9080Y104682D01*
X-9140Y104626D01*
X-9843Y105315D01*
X-10545Y104626D01*
X-10605Y104682D01*
X-10670Y104732D01*
X-10738Y104777D01*
X-10811Y104815D01*
X-10888Y104848D01*
X-10969Y104874D01*
X-11054Y104895D01*
X-11144Y104910D01*
X-11180Y104913D01*
X-11264Y104905D01*
X-11384Y104886D01*
X-11488Y104858D01*
X-11576Y104823D01*
X-11648Y104780D01*
X-11704Y104728D01*
X-11744Y104669D01*
X-11768Y104602D01*
X-11776Y104528D01*
Y106102D01*
X-11768Y106028D01*
D02*
G37*
G36*
X25980Y103810D02*
X26004Y103795D01*
X26043Y103782D01*
X26098Y103771D01*
X26169Y103761D01*
X26358Y103748D01*
X26760Y103740D01*
Y102952D01*
X26610Y102952D01*
X26098Y102921D01*
X26043Y102910D01*
X26004Y102897D01*
X25980Y102883D01*
X25972Y102866D01*
Y103827D01*
X25980Y103810D01*
D02*
G37*
G36*
X4343Y102866D02*
X4335Y102883D01*
X4311Y102897D01*
X4272Y102910D01*
X4217Y102921D01*
X4146Y102931D01*
X3957Y102945D01*
X3555Y102952D01*
Y103740D01*
X3705Y103741D01*
X4217Y103771D01*
X4272Y103782D01*
X4311Y103795D01*
X4335Y103810D01*
X4343Y103827D01*
Y102866D01*
D02*
G37*
G36*
X25980Y101842D02*
X26004Y101827D01*
X26043Y101814D01*
X26098Y101803D01*
X26169Y101793D01*
X26358Y101779D01*
X26760Y101771D01*
Y100984D01*
X26610Y100983D01*
X26098Y100953D01*
X26043Y100942D01*
X26004Y100929D01*
X25980Y100914D01*
X25972Y100898D01*
Y101858D01*
X25980Y101842D01*
D02*
G37*
G36*
X4343Y100898D02*
X4335Y100914D01*
X4311Y100929D01*
X4272Y100942D01*
X4217Y100953D01*
X4146Y100962D01*
X3957Y100976D01*
X3555Y100984D01*
Y101771D01*
X3705Y101772D01*
X4217Y101803D01*
X4272Y101814D01*
X4311Y101827D01*
X4335Y101842D01*
X4343Y101858D01*
Y100898D01*
D02*
G37*
G36*
X-9080Y102011D02*
X-9015Y101960D01*
X-8947Y101916D01*
X-8874Y101878D01*
X-8798Y101845D01*
X-8716Y101819D01*
X-8631Y101798D01*
X-8542Y101783D01*
X-8448Y101774D01*
X-8350Y101771D01*
Y100984D01*
X-8448Y100981D01*
X-8542Y100972D01*
X-8631Y100957D01*
X-8716Y100937D01*
X-8798Y100910D01*
X-8874Y100878D01*
X-8947Y100839D01*
X-9015Y100795D01*
X-9080Y100745D01*
X-9140Y100689D01*
Y102067D01*
X-9080Y102011D01*
D02*
G37*
G36*
X-11768Y102090D02*
X-11744Y102023D01*
X-11704Y101964D01*
X-11648Y101913D01*
X-11576Y101870D01*
X-11488Y101834D01*
X-11384Y101807D01*
X-11264Y101787D01*
X-11180Y101780D01*
X-11144Y101783D01*
X-11054Y101798D01*
X-10969Y101819D01*
X-10888Y101845D01*
X-10811Y101878D01*
X-10738Y101916D01*
X-10670Y101960D01*
X-10605Y102011D01*
X-10545Y102067D01*
Y100689D01*
X-10605Y100745D01*
X-10670Y100795D01*
X-10738Y100839D01*
X-10811Y100878D01*
X-10888Y100910D01*
X-10969Y100937D01*
X-11054Y100957D01*
X-11144Y100972D01*
X-11180Y100976D01*
X-11264Y100968D01*
X-11384Y100949D01*
X-11488Y100921D01*
X-11576Y100885D01*
X-11648Y100842D01*
X-11704Y100791D01*
X-11744Y100732D01*
X-11768Y100665D01*
X-11776Y100590D01*
Y102165D01*
X-11768Y102090D01*
D02*
G37*
G36*
X42091Y100590D02*
X42083Y100665D01*
X42059Y100732D01*
X42019Y100791D01*
X41963Y100842D01*
X41891Y100885D01*
X41803Y100921D01*
X41699Y100949D01*
X41579Y100968D01*
X41443Y100980D01*
X41291Y100984D01*
Y101771D01*
X41443Y101775D01*
X41579Y101787D01*
X41699Y101807D01*
X41803Y101834D01*
X41891Y101870D01*
X41963Y101913D01*
X42019Y101964D01*
X42059Y102023D01*
X42083Y102090D01*
X42091Y102165D01*
Y100590D01*
D02*
G37*
G36*
X25980Y99873D02*
X26004Y99858D01*
X26043Y99845D01*
X26098Y99834D01*
X26169Y99825D01*
X26358Y99811D01*
X26760Y99803D01*
Y99015D01*
X26610Y99015D01*
X26098Y98984D01*
X26043Y98973D01*
X26004Y98960D01*
X25980Y98946D01*
X25972Y98929D01*
Y99890D01*
X25980Y99873D01*
D02*
G37*
G36*
X4343Y98929D02*
X4335Y98946D01*
X4311Y98960D01*
X4272Y98973D01*
X4217Y98984D01*
X4146Y98994D01*
X3957Y99008D01*
X3555Y99015D01*
Y99803D01*
X3705Y99804D01*
X4217Y99834D01*
X4272Y99845D01*
X4311Y99858D01*
X4335Y99873D01*
X4343Y99890D01*
Y98929D01*
D02*
G37*
G36*
X25980Y97905D02*
X26004Y97890D01*
X26043Y97877D01*
X26098Y97865D01*
X26169Y97856D01*
X26358Y97842D01*
X26760Y97834D01*
Y97047D01*
X26610Y97046D01*
X26098Y97016D01*
X26043Y97005D01*
X26004Y96992D01*
X25980Y96977D01*
X25972Y96961D01*
Y97921D01*
X25980Y97905D01*
D02*
G37*
G36*
X4343Y96961D02*
X4335Y96977D01*
X4311Y96992D01*
X4272Y97005D01*
X4217Y97016D01*
X4146Y97025D01*
X3957Y97039D01*
X3555Y97047D01*
Y97834D01*
X3705Y97835D01*
X4217Y97865D01*
X4272Y97877D01*
X4311Y97890D01*
X4335Y97905D01*
X4343Y97921D01*
Y96961D01*
D02*
G37*
G36*
X42091Y96653D02*
X42083Y96728D01*
X42059Y96795D01*
X42019Y96854D01*
X41963Y96905D01*
X41891Y96949D01*
X41803Y96984D01*
X41699Y97012D01*
X41579Y97031D01*
X41443Y97043D01*
X41291Y97047D01*
Y97835D01*
X41443Y97839D01*
X41579Y97850D01*
X41699Y97870D01*
X41803Y97898D01*
X41891Y97933D01*
X41963Y97976D01*
X42019Y98027D01*
X42059Y98087D01*
X42083Y98154D01*
X42091Y98228D01*
Y96653D01*
D02*
G37*
G36*
X-11768Y98153D02*
X-11744Y98086D01*
X-11704Y98027D01*
X-11648Y97976D01*
X-11576Y97932D01*
X-11488Y97897D01*
X-11384Y97869D01*
X-11264Y97850D01*
X-11129Y97838D01*
X-10977Y97834D01*
Y97047D01*
X-11129Y97043D01*
X-11264Y97031D01*
X-11384Y97011D01*
X-11488Y96984D01*
X-11576Y96948D01*
X-11648Y96905D01*
X-11704Y96854D01*
X-11744Y96795D01*
X-11768Y96728D01*
X-11776Y96653D01*
Y98228D01*
X-11768Y98153D01*
D02*
G37*
G36*
X25980Y95936D02*
X26004Y95921D01*
X26043Y95908D01*
X26098Y95897D01*
X26169Y95888D01*
X26358Y95874D01*
X26760Y95866D01*
Y95078D01*
X26610Y95078D01*
X26098Y95047D01*
X26043Y95036D01*
X26004Y95023D01*
X25980Y95009D01*
X25972Y94992D01*
Y95953D01*
X25980Y95936D01*
D02*
G37*
G36*
X4343Y94992D02*
X4335Y95009D01*
X4311Y95023D01*
X4272Y95036D01*
X4217Y95047D01*
X4146Y95057D01*
X3957Y95071D01*
X3555Y95078D01*
Y95866D01*
X3705Y95867D01*
X4217Y95897D01*
X4272Y95908D01*
X4311Y95921D01*
X4335Y95936D01*
X4343Y95953D01*
Y94992D01*
D02*
G37*
G36*
X2534Y96105D02*
X2599Y96055D01*
X2667Y96011D01*
X2740Y95972D01*
X2817Y95940D01*
X2898Y95913D01*
X2983Y95892D01*
X3073Y95878D01*
X3166Y95869D01*
X3264Y95866D01*
Y95078D01*
X3166Y95076D01*
X3073Y95067D01*
X2983Y95052D01*
X2898Y95031D01*
X2817Y95005D01*
X2740Y94972D01*
X2667Y94934D01*
X2599Y94889D01*
X2534Y94839D01*
X2475Y94783D01*
Y96161D01*
X2534Y96105D01*
D02*
G37*
G36*
X11725Y92126D02*
X11717Y92200D01*
X11693Y92267D01*
X11654Y92326D01*
X11599Y92378D01*
X11528Y92421D01*
X11441Y92456D01*
X11339Y92484D01*
X11221Y92504D01*
X11218Y92504D01*
X11216Y92504D01*
X11096Y92484D01*
X10992Y92456D01*
X10904Y92421D01*
X10832Y92378D01*
X10776Y92326D01*
X10736Y92267D01*
X10712Y92200D01*
X10704Y92126D01*
Y93700D01*
X10712Y93626D01*
X10736Y93559D01*
X10776Y93500D01*
X10832Y93449D01*
X10904Y93405D01*
X10992Y93370D01*
X11096Y93342D01*
X11216Y93322D01*
X11218Y93322D01*
X11221Y93322D01*
X11339Y93342D01*
X11441Y93370D01*
X11528Y93405D01*
X11599Y93449D01*
X11654Y93500D01*
X11693Y93559D01*
X11717Y93626D01*
X11725Y93700D01*
Y92126D01*
D02*
G37*
G36*
X42091Y92716D02*
X42083Y92791D01*
X42059Y92858D01*
X42019Y92917D01*
X41963Y92968D01*
X41891Y93012D01*
X41803Y93047D01*
X41699Y93075D01*
X41579Y93094D01*
X41443Y93106D01*
X41291Y93110D01*
Y93898D01*
X41443Y93902D01*
X41579Y93913D01*
X41699Y93933D01*
X41803Y93961D01*
X41891Y93996D01*
X41963Y94039D01*
X42019Y94090D01*
X42059Y94150D01*
X42083Y94217D01*
X42091Y94291D01*
Y92716D01*
D02*
G37*
G36*
X-11768Y94216D02*
X-11744Y94149D01*
X-11704Y94090D01*
X-11648Y94039D01*
X-11576Y93995D01*
X-11488Y93960D01*
X-11384Y93932D01*
X-11264Y93913D01*
X-11129Y93901D01*
X-10977Y93897D01*
Y93110D01*
X-11129Y93106D01*
X-11264Y93094D01*
X-11384Y93074D01*
X-11488Y93047D01*
X-11576Y93011D01*
X-11648Y92968D01*
X-11704Y92917D01*
X-11744Y92858D01*
X-11768Y92791D01*
X-11776Y92716D01*
Y94291D01*
X-11768Y94216D01*
D02*
G37*
G36*
X22511Y91540D02*
X22496Y91516D01*
X22483Y91477D01*
X22472Y91422D01*
X22463Y91351D01*
X22449Y91162D01*
X22441Y90760D01*
X21654D01*
X21653Y90910D01*
X21622Y91422D01*
X21611Y91477D01*
X21598Y91516D01*
X21584Y91540D01*
X21567Y91547D01*
X22527D01*
X22511Y91540D01*
D02*
G37*
G36*
X20542D02*
X20528Y91516D01*
X20515Y91477D01*
X20504Y91422D01*
X20494Y91351D01*
X20480Y91162D01*
X20472Y90760D01*
X19685D01*
X19684Y90910D01*
X19654Y91422D01*
X19643Y91477D01*
X19630Y91516D01*
X19615Y91540D01*
X19599Y91547D01*
X20559D01*
X20542Y91540D01*
D02*
G37*
G36*
X16605D02*
X16591Y91516D01*
X16578Y91477D01*
X16567Y91422D01*
X16557Y91351D01*
X16543Y91162D01*
X16535Y90760D01*
X15748D01*
X15747Y90910D01*
X15717Y91422D01*
X15706Y91477D01*
X15693Y91516D01*
X15678Y91540D01*
X15662Y91547D01*
X16622D01*
X16605Y91540D01*
D02*
G37*
G36*
X14637D02*
X14622Y91516D01*
X14609Y91477D01*
X14598Y91422D01*
X14589Y91351D01*
X14575Y91162D01*
X14567Y90760D01*
X13780D01*
X13779Y90910D01*
X13748Y91422D01*
X13737Y91477D01*
X13724Y91516D01*
X13710Y91540D01*
X13693Y91547D01*
X14653D01*
X14637Y91540D01*
D02*
G37*
G36*
X12668D02*
X12654Y91516D01*
X12641Y91477D01*
X12630Y91422D01*
X12620Y91351D01*
X12606Y91162D01*
X12598Y90760D01*
X11811D01*
X11810Y90910D01*
X11780Y91422D01*
X11769Y91477D01*
X11756Y91516D01*
X11741Y91540D01*
X11725Y91547D01*
X12685D01*
X12668Y91540D01*
D02*
G37*
G36*
X8731D02*
X8717Y91516D01*
X8704Y91477D01*
X8692Y91422D01*
X8683Y91351D01*
X8669Y91162D01*
X8661Y90760D01*
X7874D01*
X7873Y90910D01*
X7843Y91422D01*
X7832Y91477D01*
X7819Y91516D01*
X7804Y91540D01*
X7788Y91547D01*
X8748D01*
X8731Y91540D01*
D02*
G37*
G36*
X12601Y90371D02*
X12610Y90277D01*
X12625Y90188D01*
X12646Y90102D01*
X12672Y90021D01*
X12705Y89944D01*
X12743Y89872D01*
X12787Y89803D01*
X12838Y89739D01*
X12894Y89679D01*
X11516D01*
X11572Y89739D01*
X11622Y89803D01*
X11666Y89872D01*
X11705Y89944D01*
X11737Y90021D01*
X11764Y90102D01*
X11784Y90188D01*
X11799Y90277D01*
X11808Y90371D01*
X11811Y90469D01*
X12598D01*
X12601Y90371D01*
D02*
G37*
G36*
X8664D02*
X8673Y90277D01*
X8688Y90188D01*
X8709Y90102D01*
X8735Y90021D01*
X8768Y89944D01*
X8806Y89872D01*
X8850Y89803D01*
X8901Y89739D01*
X8957Y89679D01*
X7579D01*
X7635Y89739D01*
X7685Y89803D01*
X7729Y89872D01*
X7768Y89944D01*
X7800Y90021D01*
X7827Y90102D01*
X7847Y90188D01*
X7862Y90277D01*
X7871Y90371D01*
X7874Y90469D01*
X8661D01*
X8664Y90371D01*
D02*
G37*
G36*
X42091Y88779D02*
X42083Y88854D01*
X42059Y88921D01*
X42019Y88980D01*
X41963Y89031D01*
X41891Y89075D01*
X41803Y89110D01*
X41699Y89138D01*
X41579Y89157D01*
X41443Y89169D01*
X41291Y89173D01*
Y89961D01*
X41443Y89965D01*
X41579Y89976D01*
X41699Y89996D01*
X41803Y90024D01*
X41891Y90059D01*
X41963Y90102D01*
X42019Y90153D01*
X42059Y90213D01*
X42083Y90280D01*
X42091Y90354D01*
Y88779D01*
D02*
G37*
G36*
X10421Y78138D02*
X9213Y78126D01*
X9287Y78134D01*
X9354Y78159D01*
X9413Y78199D01*
X9465Y78255D01*
X9508Y78327D01*
X9543Y78415D01*
X9571Y78519D01*
X9591Y78638D01*
X9602Y78774D01*
X9606Y78925D01*
X10394D01*
X10421Y78138D01*
D02*
G37*
G36*
X26378Y80822D02*
X26381Y80725D01*
X26390Y80631D01*
X26405Y80541D01*
X26425Y80456D01*
X26452Y80375D01*
X26484Y80298D01*
X26523Y80225D01*
X26567Y80157D01*
X26617Y80093D01*
X26673Y80033D01*
X25984Y79330D01*
X26673Y78627D01*
X26617Y78567D01*
X26567Y78503D01*
X26523Y78435D01*
X26484Y78362D01*
X26452Y78285D01*
X26425Y78204D01*
X26405Y78119D01*
X26390Y78029D01*
X26386Y77993D01*
X26394Y77909D01*
X26413Y77789D01*
X26441Y77685D01*
X26476Y77597D01*
X26520Y77525D01*
X26571Y77469D01*
X26630Y77429D01*
X26697Y77405D01*
X26772Y77397D01*
X25197D01*
X25272Y77405D01*
X25339Y77429D01*
X25398Y77469D01*
X25449Y77525D01*
X25492Y77597D01*
X25528Y77685D01*
X25555Y77789D01*
X25575Y77909D01*
X25582Y77993D01*
X25579Y78029D01*
X25564Y78118D01*
X25543Y78204D01*
X25517Y78285D01*
X25484Y78362D01*
X25446Y78434D01*
X25401Y78503D01*
X25351Y78567D01*
X25295Y78627D01*
X25984Y79330D01*
X25295Y80033D01*
X25351Y80093D01*
X25401Y80157D01*
X25446Y80226D01*
X25484Y80298D01*
X25517Y80375D01*
X25543Y80456D01*
X25564Y80542D01*
X25579Y80631D01*
X25588Y80725D01*
X25591Y80823D01*
X26378Y80822D01*
D02*
G37*
G36*
X22445Y78045D02*
X22457Y77909D01*
X22476Y77789D01*
X22504Y77685D01*
X22539Y77597D01*
X22583Y77525D01*
X22634Y77469D01*
X22693Y77429D01*
X22760Y77405D01*
X22835Y77397D01*
X21260D01*
X21335Y77405D01*
X21402Y77429D01*
X21461Y77469D01*
X21512Y77525D01*
X21555Y77597D01*
X21590Y77685D01*
X21618Y77789D01*
X21638Y77909D01*
X21650Y78045D01*
X21654Y78197D01*
X22441D01*
X22445Y78045D01*
D02*
G37*
G36*
X18743Y78567D02*
X18693Y78503D01*
X18649Y78434D01*
X18610Y78362D01*
X18578Y78285D01*
X18551Y78204D01*
X18530Y78119D01*
X18516Y78029D01*
X18512Y77993D01*
X18520Y77909D01*
X18539Y77789D01*
X18567Y77685D01*
X18602Y77597D01*
X18646Y77525D01*
X18697Y77469D01*
X18756Y77429D01*
X18823Y77405D01*
X18898Y77397D01*
X17323D01*
X17398Y77405D01*
X17465Y77429D01*
X17524Y77469D01*
X17575Y77525D01*
X17618Y77597D01*
X17653Y77685D01*
X17681Y77789D01*
X17701Y77909D01*
X17708Y77993D01*
X17705Y78029D01*
X17690Y78119D01*
X17669Y78204D01*
X17643Y78285D01*
X17610Y78362D01*
X17572Y78434D01*
X17527Y78503D01*
X17477Y78567D01*
X17421Y78627D01*
X18799D01*
X18743Y78567D01*
D02*
G37*
G36*
X7701Y77136D02*
X8402Y77150D01*
Y76314D01*
X8385Y76319D01*
X8346Y76323D01*
X8197Y76330D01*
X7701Y76334D01*
Y75945D01*
X7693Y76020D01*
X7669Y76087D01*
X7629Y76146D01*
X7573Y76197D01*
X7501Y76240D01*
X7413Y76276D01*
X7309Y76303D01*
X7190Y76323D01*
X7108Y76330D01*
X7027Y76323D01*
X6909Y76303D01*
X6807Y76276D01*
X6720Y76240D01*
X6649Y76197D01*
X6594Y76146D01*
X6555Y76087D01*
X6531Y76020D01*
X6523Y75945D01*
Y76322D01*
X6165Y76314D01*
Y77150D01*
X6182Y77145D01*
X6221Y77141D01*
X6370Y77135D01*
X6523Y77133D01*
Y77409D01*
X6531Y77355D01*
X6555Y77307D01*
X6594Y77265D01*
X6649Y77228D01*
X6720Y77197D01*
X6807Y77171D01*
X6909Y77152D01*
X7027Y77137D01*
X7092Y77133D01*
X7190Y77142D01*
X7309Y77161D01*
X7413Y77189D01*
X7501Y77224D01*
X7573Y77268D01*
X7629Y77319D01*
X7669Y77378D01*
X7693Y77445D01*
X7701Y77520D01*
Y77136D01*
D02*
G37*
G36*
X17099Y75709D02*
X17091Y75783D01*
X17067Y75850D01*
X17028Y75910D01*
X16973Y75961D01*
X16902Y76004D01*
X16815Y76039D01*
X16713Y76067D01*
X16595Y76087D01*
X16513Y76094D01*
X16319Y76075D01*
X16216Y76054D01*
X16130Y76027D01*
X16059Y75993D01*
X16004Y75954D01*
X15964Y75908D01*
X15941Y75857D01*
X15933Y75799D01*
Y77284D01*
X15941Y77209D01*
X15964Y77142D01*
X16004Y77083D01*
X16059Y77031D01*
X16130Y76988D01*
X16216Y76953D01*
X16319Y76925D01*
X16437Y76906D01*
X16516Y76899D01*
X16595Y76906D01*
X16713Y76925D01*
X16815Y76953D01*
X16902Y76988D01*
X16973Y77031D01*
X17028Y77083D01*
X17067Y77142D01*
X17091Y77209D01*
X17099Y77284D01*
Y75709D01*
D02*
G37*
G36*
Y73285D02*
X17457Y73292D01*
Y72456D01*
X17440Y72461D01*
X17401Y72465D01*
X17252Y72472D01*
X17099Y72473D01*
Y72197D01*
X17091Y72251D01*
X17067Y72299D01*
X17028Y72342D01*
X16973Y72378D01*
X16902Y72409D01*
X16815Y72435D01*
X16713Y72455D01*
X16595Y72469D01*
X16532Y72473D01*
X16437Y72465D01*
X16319Y72445D01*
X16216Y72417D01*
X16130Y72382D01*
X16059Y72339D01*
X16004Y72287D01*
X15964Y72228D01*
X15941Y72161D01*
X15933Y72087D01*
Y72470D01*
X15221Y72456D01*
Y73292D01*
X15237Y73287D01*
X15276Y73283D01*
X15425Y73276D01*
X15933Y73272D01*
Y73661D01*
X15941Y73587D01*
X15964Y73520D01*
X16004Y73461D01*
X16059Y73409D01*
X16130Y73366D01*
X16216Y73331D01*
X16319Y73303D01*
X16437Y73283D01*
X16516Y73277D01*
X16595Y73283D01*
X16713Y73303D01*
X16815Y73331D01*
X16902Y73366D01*
X16973Y73409D01*
X17028Y73461D01*
X17067Y73520D01*
X17091Y73587D01*
X17099Y73661D01*
Y73285D01*
D02*
G37*
G36*
X13363Y74207D02*
X13655Y73959D01*
X13783Y73869D01*
X13900Y73801D01*
X14006Y73755D01*
X14100Y73732D01*
X14183Y73730D01*
X14254Y73752D01*
X14314Y73795D01*
X13213Y72693D01*
X13256Y72754D01*
X13277Y72825D01*
X13276Y72908D01*
X13253Y73002D01*
X13207Y73108D01*
X13139Y73225D01*
X13049Y73353D01*
X12936Y73493D01*
X12644Y73807D01*
X13201Y74364D01*
X13363Y74207D01*
D02*
G37*
G36*
X41885Y59412D02*
X41949Y59362D01*
X42018Y59318D01*
X42090Y59280D01*
X42167Y59247D01*
X42248Y59220D01*
X42333Y59200D01*
X42423Y59185D01*
X42517Y59176D01*
X42615Y59173D01*
Y58386D01*
X42517Y58383D01*
X42423Y58374D01*
X42333Y58359D01*
X42248Y58339D01*
X42167Y58312D01*
X42090Y58280D01*
X42018Y58241D01*
X41949Y58197D01*
X41885Y58147D01*
X41825Y58091D01*
Y59469D01*
X41885Y59412D01*
D02*
G37*
G36*
X18490Y58091D02*
X18430Y58147D01*
X18366Y58197D01*
X18297Y58241D01*
X18225Y58280D01*
X18148Y58312D01*
X18067Y58339D01*
X17981Y58359D01*
X17892Y58374D01*
X17798Y58383D01*
X17700Y58386D01*
Y59173D01*
X17798Y59176D01*
X17892Y59185D01*
X17981Y59200D01*
X18067Y59220D01*
X18148Y59247D01*
X18225Y59280D01*
X18297Y59318D01*
X18366Y59362D01*
X18430Y59412D01*
X18490Y59469D01*
Y58091D01*
D02*
G37*
G36*
X8490D02*
X8430Y58147D01*
X8366Y58197D01*
X8297Y58241D01*
X8225Y58280D01*
X8148Y58312D01*
X8067Y58339D01*
X7982Y58359D01*
X7892Y58374D01*
X7798Y58383D01*
X7700Y58386D01*
Y59173D01*
X7798Y59176D01*
X7892Y59185D01*
X7982Y59200D01*
X8067Y59220D01*
X8148Y59247D01*
X8225Y59280D01*
X8297Y59318D01*
X8366Y59362D01*
X8430Y59412D01*
X8490Y59469D01*
Y58091D01*
D02*
G37*
G36*
X-1510D02*
X-1570Y58147D01*
X-1634Y58197D01*
X-1703Y58241D01*
X-1775Y58280D01*
X-1852Y58312D01*
X-1933Y58339D01*
X-2018Y58359D01*
X-2108Y58374D01*
X-2202Y58383D01*
X-2300Y58386D01*
Y59173D01*
X-2202Y59176D01*
X-2108Y59185D01*
X-2018Y59200D01*
X-1933Y59220D01*
X-1852Y59247D01*
X-1775Y59280D01*
X-1703Y59318D01*
X-1634Y59362D01*
X-1570Y59412D01*
X-1510Y59469D01*
Y58091D01*
D02*
G37*
G36*
X-11510D02*
X-11570Y58147D01*
X-11634Y58197D01*
X-11703Y58241D01*
X-11775Y58280D01*
X-11852Y58312D01*
X-11933Y58339D01*
X-12019Y58359D01*
X-12108Y58374D01*
X-12202Y58383D01*
X-12300Y58386D01*
Y59173D01*
X-12202Y59176D01*
X-12108Y59185D01*
X-12019Y59200D01*
X-11933Y59220D01*
X-11852Y59247D01*
X-11775Y59280D01*
X-11703Y59318D01*
X-11634Y59362D01*
X-11570Y59412D01*
X-11510Y59469D01*
Y58091D01*
D02*
G37*
G36*
X45110Y57992D02*
X45103Y58067D01*
X45079Y58134D01*
X45040Y58193D01*
X44984Y58244D01*
X44914Y58287D01*
X44827Y58323D01*
X44725Y58350D01*
X44607Y58370D01*
X44473Y58382D01*
X44323Y58386D01*
Y59173D01*
X44473Y59177D01*
X44607Y59189D01*
X44725Y59209D01*
X44827Y59236D01*
X44914Y59272D01*
X44984Y59315D01*
X45040Y59366D01*
X45079Y59425D01*
X45103Y59492D01*
X45110Y59567D01*
Y57992D01*
D02*
G37*
G36*
X15212Y59492D02*
X15236Y59425D01*
X15275Y59366D01*
X15330Y59315D01*
X15401Y59272D01*
X15488Y59236D01*
X15590Y59209D01*
X15709Y59189D01*
X15842Y59177D01*
X15992Y59173D01*
Y58386D01*
X15842Y58382D01*
X15709Y58370D01*
X15590Y58350D01*
X15488Y58323D01*
X15401Y58287D01*
X15330Y58244D01*
X15275Y58193D01*
X15236Y58134D01*
X15212Y58067D01*
X15204Y57992D01*
Y59567D01*
X15212Y59492D01*
D02*
G37*
G36*
X5212D02*
X5236Y59425D01*
X5275Y59366D01*
X5331Y59315D01*
X5401Y59272D01*
X5488Y59236D01*
X5590Y59209D01*
X5708Y59189D01*
X5842Y59177D01*
X5992Y59173D01*
Y58386D01*
X5842Y58382D01*
X5708Y58370D01*
X5590Y58350D01*
X5488Y58323D01*
X5401Y58287D01*
X5331Y58244D01*
X5275Y58193D01*
X5236Y58134D01*
X5212Y58067D01*
X5204Y57992D01*
Y59567D01*
X5212Y59492D01*
D02*
G37*
G36*
X-4788D02*
X-4764Y59425D01*
X-4725Y59366D01*
X-4670Y59315D01*
X-4599Y59272D01*
X-4512Y59236D01*
X-4410Y59209D01*
X-4292Y59189D01*
X-4158Y59177D01*
X-4008Y59173D01*
Y58386D01*
X-4158Y58382D01*
X-4292Y58370D01*
X-4410Y58350D01*
X-4512Y58323D01*
X-4599Y58287D01*
X-4670Y58244D01*
X-4725Y58193D01*
X-4764Y58134D01*
X-4788Y58067D01*
X-4795Y57992D01*
Y59567D01*
X-4788Y59492D01*
D02*
G37*
G36*
X-14788D02*
X-14764Y59425D01*
X-14725Y59366D01*
X-14670Y59315D01*
X-14599Y59272D01*
X-14512Y59236D01*
X-14410Y59209D01*
X-14291Y59189D01*
X-14158Y59177D01*
X-14008Y59173D01*
Y58386D01*
X-14158Y58382D01*
X-14291Y58370D01*
X-14410Y58350D01*
X-14512Y58323D01*
X-14599Y58287D01*
X-14670Y58244D01*
X-14725Y58193D01*
X-14764Y58134D01*
X-14788Y58067D01*
X-14796Y57992D01*
Y59567D01*
X-14788Y59492D01*
D02*
G37*
G36*
X41755Y54631D02*
X41705Y54567D01*
X41660Y54498D01*
X41622Y54426D01*
X41590Y54349D01*
X41563Y54268D01*
X41542Y54182D01*
X41528Y54093D01*
X41519Y53999D01*
X41516Y53901D01*
X40728D01*
X40725Y53999D01*
X40716Y54093D01*
X40702Y54182D01*
X40681Y54268D01*
X40655Y54349D01*
X40622Y54426D01*
X40584Y54498D01*
X40539Y54567D01*
X40489Y54631D01*
X40433Y54691D01*
X41811D01*
X41755Y54631D01*
D02*
G37*
G36*
X36755D02*
X36705Y54567D01*
X36660Y54498D01*
X36622Y54426D01*
X36590Y54349D01*
X36563Y54268D01*
X36542Y54182D01*
X36528Y54093D01*
X36519Y53999D01*
X36516Y53901D01*
X35728D01*
X35725Y53999D01*
X35717Y54093D01*
X35702Y54182D01*
X35681Y54268D01*
X35655Y54349D01*
X35622Y54426D01*
X35584Y54498D01*
X35539Y54567D01*
X35489Y54631D01*
X35433Y54691D01*
X36811D01*
X36755Y54631D01*
D02*
G37*
G36*
X31755D02*
X31705Y54567D01*
X31660Y54498D01*
X31622Y54426D01*
X31590Y54349D01*
X31563Y54268D01*
X31542Y54182D01*
X31528Y54093D01*
X31519Y53999D01*
X31516Y53901D01*
X30728D01*
X30725Y53999D01*
X30716Y54093D01*
X30702Y54182D01*
X30681Y54268D01*
X30654Y54349D01*
X30622Y54426D01*
X30584Y54498D01*
X30539Y54567D01*
X30489Y54631D01*
X30433Y54691D01*
X31811D01*
X31755Y54631D01*
D02*
G37*
G36*
X19587Y54691D02*
X19882D01*
X19826Y54631D01*
X19776Y54567D01*
X19731Y54498D01*
X19693Y54426D01*
X19660Y54349D01*
X19634Y54268D01*
X19633Y54264D01*
X19650Y54201D01*
X19685Y54113D01*
X19728Y54041D01*
X19780Y53985D01*
X19839Y53945D01*
X19906Y53921D01*
X19980Y53913D01*
X19587D01*
X19587Y53901D01*
X18799D01*
X18799Y53913D01*
X18406D01*
X18480Y53921D01*
X18547Y53945D01*
X18606Y53985D01*
X18657Y54041D01*
X18701Y54113D01*
X18736Y54201D01*
X18753Y54264D01*
X18752Y54268D01*
X18725Y54349D01*
X18693Y54426D01*
X18655Y54498D01*
X18610Y54567D01*
X18560Y54631D01*
X18504Y54691D01*
X18799D01*
X18799Y54712D01*
X19587D01*
X19587Y54691D01*
D02*
G37*
G36*
X9587D02*
X9882D01*
X9826Y54631D01*
X9776Y54567D01*
X9731Y54498D01*
X9693Y54426D01*
X9661Y54349D01*
X9634Y54268D01*
X9633Y54264D01*
X9650Y54201D01*
X9685Y54113D01*
X9728Y54041D01*
X9780Y53985D01*
X9839Y53945D01*
X9905Y53921D01*
X9980Y53913D01*
X9587D01*
X9587Y53901D01*
X8799D01*
X8799Y53913D01*
X8405D01*
X8480Y53921D01*
X8547Y53945D01*
X8606Y53985D01*
X8658Y54041D01*
X8701Y54113D01*
X8736Y54201D01*
X8753Y54264D01*
X8752Y54268D01*
X8725Y54349D01*
X8693Y54426D01*
X8655Y54498D01*
X8610Y54567D01*
X8560Y54631D01*
X8504Y54691D01*
X8799D01*
X8799Y54712D01*
X9587D01*
X9587Y54691D01*
D02*
G37*
G36*
X-413D02*
X-118D01*
X-174Y54631D01*
X-224Y54567D01*
X-269Y54498D01*
X-307Y54426D01*
X-340Y54349D01*
X-366Y54268D01*
X-367Y54264D01*
X-350Y54201D01*
X-315Y54113D01*
X-272Y54041D01*
X-221Y53985D01*
X-161Y53945D01*
X-94Y53921D01*
X-20Y53913D01*
X-413D01*
X-413Y53901D01*
X-1201D01*
X-1201Y53913D01*
X-1595D01*
X-1520Y53921D01*
X-1453Y53945D01*
X-1394Y53985D01*
X-1343Y54041D01*
X-1299Y54113D01*
X-1264Y54201D01*
X-1247Y54264D01*
X-1248Y54268D01*
X-1275Y54349D01*
X-1307Y54426D01*
X-1345Y54498D01*
X-1390Y54567D01*
X-1440Y54631D01*
X-1496Y54691D01*
X-1201D01*
X-1201Y54712D01*
X-413D01*
X-413Y54691D01*
D02*
G37*
G36*
X-10413D02*
X-10118D01*
X-10174Y54631D01*
X-10224Y54567D01*
X-10269Y54498D01*
X-10307Y54426D01*
X-10340Y54349D01*
X-10366Y54268D01*
X-10367Y54264D01*
X-10350Y54201D01*
X-10315Y54113D01*
X-10272Y54041D01*
X-10221Y53985D01*
X-10161Y53945D01*
X-10095Y53921D01*
X-10020Y53913D01*
X-10413D01*
X-10413Y53901D01*
X-11201D01*
X-11201Y53913D01*
X-11594D01*
X-11520Y53921D01*
X-11453Y53945D01*
X-11394Y53985D01*
X-11343Y54041D01*
X-11299Y54113D01*
X-11264Y54201D01*
X-11247Y54264D01*
X-11248Y54268D01*
X-11275Y54349D01*
X-11307Y54426D01*
X-11345Y54498D01*
X-11390Y54567D01*
X-11440Y54631D01*
X-11496Y54691D01*
X-11201D01*
X-11201Y54712D01*
X-10413D01*
X-10413Y54691D01*
D02*
G37*
G36*
X14591Y54561D02*
X14596Y54492D01*
X14980D01*
X14906Y54484D01*
X14839Y54461D01*
X14780Y54421D01*
X14728Y54365D01*
X14685Y54293D01*
X14650Y54205D01*
X14649Y54203D01*
X14650Y54201D01*
X14685Y54113D01*
X14728Y54041D01*
X14780Y53985D01*
X14839Y53945D01*
X14906Y53921D01*
X14980Y53913D01*
X14596D01*
X14591Y53845D01*
X14587Y53693D01*
X13799D01*
X13795Y53845D01*
X13789Y53913D01*
X13406D01*
X13480Y53921D01*
X13547Y53945D01*
X13606Y53985D01*
X13657Y54041D01*
X13701Y54113D01*
X13736Y54201D01*
X13737Y54203D01*
X13736Y54205D01*
X13701Y54293D01*
X13657Y54365D01*
X13606Y54421D01*
X13547Y54461D01*
X13480Y54484D01*
X13406Y54492D01*
X13789D01*
X13795Y54561D01*
X13799Y54712D01*
X14587D01*
X14591Y54561D01*
D02*
G37*
G36*
X4591D02*
X4597Y54492D01*
X4980D01*
X4905Y54484D01*
X4839Y54461D01*
X4780Y54421D01*
X4728Y54365D01*
X4685Y54293D01*
X4650Y54205D01*
X4649Y54203D01*
X4650Y54201D01*
X4685Y54113D01*
X4728Y54041D01*
X4780Y53985D01*
X4839Y53945D01*
X4905Y53921D01*
X4980Y53913D01*
X4597D01*
X4591Y53845D01*
X4587Y53693D01*
X3799D01*
X3795Y53845D01*
X3789Y53913D01*
X3405D01*
X3480Y53921D01*
X3547Y53945D01*
X3606Y53985D01*
X3658Y54041D01*
X3701Y54113D01*
X3736Y54201D01*
X3737Y54203D01*
X3736Y54205D01*
X3701Y54293D01*
X3658Y54365D01*
X3606Y54421D01*
X3547Y54461D01*
X3480Y54484D01*
X3405Y54492D01*
X3789D01*
X3795Y54561D01*
X3799Y54712D01*
X4587D01*
X4591Y54561D01*
D02*
G37*
G36*
X-5409D02*
X-5404Y54492D01*
X-5020D01*
X-5094Y54484D01*
X-5161Y54461D01*
X-5221Y54421D01*
X-5272Y54365D01*
X-5315Y54293D01*
X-5350Y54205D01*
X-5351Y54203D01*
X-5350Y54201D01*
X-5315Y54113D01*
X-5272Y54041D01*
X-5221Y53985D01*
X-5161Y53945D01*
X-5094Y53921D01*
X-5020Y53913D01*
X-5404D01*
X-5409Y53845D01*
X-5413Y53693D01*
X-6201D01*
X-6205Y53845D01*
X-6211Y53913D01*
X-6594D01*
X-6520Y53921D01*
X-6453Y53945D01*
X-6394Y53985D01*
X-6342Y54041D01*
X-6299Y54113D01*
X-6264Y54201D01*
X-6263Y54203D01*
X-6264Y54205D01*
X-6299Y54293D01*
X-6342Y54365D01*
X-6394Y54421D01*
X-6453Y54461D01*
X-6520Y54484D01*
X-6594Y54492D01*
X-6211D01*
X-6205Y54561D01*
X-6201Y54712D01*
X-5413D01*
X-5409Y54561D01*
D02*
G37*
G36*
X-15409D02*
X-15404Y54492D01*
X-15020D01*
X-15094Y54484D01*
X-15161Y54461D01*
X-15220Y54421D01*
X-15272Y54365D01*
X-15315Y54293D01*
X-15350Y54205D01*
X-15351Y54203D01*
X-15350Y54201D01*
X-15315Y54113D01*
X-15272Y54041D01*
X-15220Y53985D01*
X-15161Y53945D01*
X-15094Y53921D01*
X-15020Y53913D01*
X-15404D01*
X-15409Y53845D01*
X-15413Y53693D01*
X-16201D01*
X-16205Y53845D01*
X-16211Y53913D01*
X-16594D01*
X-16520Y53921D01*
X-16453Y53945D01*
X-16394Y53985D01*
X-16342Y54041D01*
X-16299Y54113D01*
X-16264Y54201D01*
X-16263Y54203D01*
X-16264Y54205D01*
X-16299Y54293D01*
X-16342Y54365D01*
X-16394Y54421D01*
X-16453Y54461D01*
X-16520Y54484D01*
X-16594Y54492D01*
X-16211D01*
X-16205Y54561D01*
X-16201Y54712D01*
X-15413D01*
X-15409Y54561D01*
D02*
G37*
G36*
X46835Y54484D02*
X46768Y54461D01*
X46709Y54421D01*
X46657Y54365D01*
X46614Y54293D01*
X46579Y54205D01*
X46551Y54101D01*
X46536Y54007D01*
X46542Y53967D01*
X46563Y53882D01*
X46590Y53801D01*
X46622Y53724D01*
X46660Y53651D01*
X46705Y53583D01*
X46755Y53519D01*
X46811Y53459D01*
X45433D01*
X45489Y53519D01*
X45539Y53583D01*
X45584Y53651D01*
X45622Y53724D01*
X45654Y53801D01*
X45681Y53882D01*
X45702Y53967D01*
X45708Y54007D01*
X45693Y54101D01*
X45665Y54205D01*
X45630Y54293D01*
X45587Y54365D01*
X45535Y54421D01*
X45476Y54461D01*
X45409Y54484D01*
X45335Y54492D01*
X46909D01*
X46835Y54484D01*
D02*
G37*
G36*
X46755Y51993D02*
X46705Y51929D01*
X46660Y51860D01*
X46622Y51788D01*
X46590Y51711D01*
X46563Y51630D01*
X46542Y51544D01*
X46528Y51455D01*
X46519Y51361D01*
X46517Y51311D01*
X46520Y51216D01*
X46532Y51082D01*
X46551Y50964D01*
X46579Y50862D01*
X46614Y50775D01*
X46657Y50704D01*
X46709Y50649D01*
X46768Y50610D01*
X46835Y50586D01*
X46909Y50578D01*
X45335D01*
X45409Y50586D01*
X45476Y50610D01*
X45535Y50649D01*
X45587Y50704D01*
X45630Y50775D01*
X45665Y50862D01*
X45693Y50964D01*
X45713Y51082D01*
X45724Y51216D01*
X45727Y51311D01*
X45725Y51361D01*
X45717Y51455D01*
X45702Y51544D01*
X45681Y51630D01*
X45654Y51711D01*
X45622Y51788D01*
X45584Y51860D01*
X45539Y51929D01*
X45489Y51993D01*
X45433Y52053D01*
X46811D01*
X46755Y51993D01*
D02*
G37*
G36*
X41520Y51216D02*
X41532Y51082D01*
X41551Y50964D01*
X41579Y50862D01*
X41614Y50775D01*
X41658Y50704D01*
X41709Y50649D01*
X41768Y50610D01*
X41835Y50586D01*
X41909Y50578D01*
X40335D01*
X40409Y50586D01*
X40476Y50610D01*
X40535Y50649D01*
X40587Y50704D01*
X40630Y50775D01*
X40665Y50862D01*
X40693Y50964D01*
X40713Y51082D01*
X40724Y51216D01*
X40728Y51366D01*
X41516D01*
X41520Y51216D01*
D02*
G37*
G36*
X36520D02*
X36531Y51082D01*
X36551Y50964D01*
X36579Y50862D01*
X36614Y50775D01*
X36658Y50704D01*
X36709Y50649D01*
X36768Y50610D01*
X36835Y50586D01*
X36909Y50578D01*
X35335D01*
X35409Y50586D01*
X35476Y50610D01*
X35535Y50649D01*
X35587Y50704D01*
X35630Y50775D01*
X35665Y50862D01*
X35693Y50964D01*
X35713Y51082D01*
X35724Y51216D01*
X35728Y51366D01*
X36516D01*
X36520Y51216D01*
D02*
G37*
G36*
X31520D02*
X31532Y51082D01*
X31551Y50964D01*
X31579Y50862D01*
X31614Y50775D01*
X31657Y50704D01*
X31709Y50649D01*
X31768Y50610D01*
X31835Y50586D01*
X31909Y50578D01*
X30335D01*
X30409Y50586D01*
X30476Y50610D01*
X30535Y50649D01*
X30587Y50704D01*
X30630Y50775D01*
X30665Y50862D01*
X30693Y50964D01*
X30713Y51082D01*
X30724Y51216D01*
X30728Y51366D01*
X31516D01*
X31520Y51216D01*
D02*
G37*
G36*
X46540Y48449D02*
X45704D01*
X45709Y48465D01*
X45713Y48505D01*
X45720Y48653D01*
X45728Y49653D01*
X46516D01*
X46540Y48449D01*
D02*
G37*
G36*
X73209Y807D02*
X68898D01*
X68873Y802D01*
X68848Y805D01*
X68540Y790D01*
X68468Y772D01*
X68393D01*
X67788Y652D01*
X67696Y614D01*
X67599Y595D01*
X67029Y358D01*
X66947Y303D01*
X66855Y266D01*
X66342Y-77D01*
X66272Y-147D01*
X66190Y-202D01*
X65753Y-639D01*
X65698Y-721D01*
X65629Y-791D01*
X65286Y-1304D01*
X65248Y-1396D01*
X65193Y-1478D01*
X65003Y-1936D01*
X43720D01*
Y-1413D01*
X43733Y-1382D01*
X43734Y-1278D01*
X43741Y-1105D01*
X43754Y-978D01*
X43760Y-944D01*
X43765Y-924D01*
X43769Y-916D01*
X43769Y-911D01*
X43773Y-899D01*
X44014Y-538D01*
X44122Y0D01*
X44014Y538D01*
X43710Y993D01*
X43254Y1298D01*
X42717Y1405D01*
X42179Y1298D01*
X41723Y993D01*
X41418Y538D01*
X41397Y428D01*
X40887D01*
X40865Y538D01*
X40560Y993D01*
X40105Y1298D01*
X39567Y1405D01*
X39029Y1298D01*
X38574Y993D01*
X38269Y538D01*
X38247Y428D01*
X37737D01*
X37715Y538D01*
X37411Y993D01*
X36955Y1298D01*
X36417Y1405D01*
X35880Y1298D01*
X35424Y993D01*
X35119Y538D01*
X35097Y428D01*
X34588D01*
X34566Y538D01*
X34261Y993D01*
X33805Y1298D01*
X33268Y1405D01*
X32730Y1298D01*
X32274Y993D01*
X31970Y538D01*
X31948Y428D01*
X31438D01*
X31416Y538D01*
X31112Y993D01*
X30656Y1298D01*
X30118Y1405D01*
X29581Y1298D01*
X29125Y993D01*
X28820Y538D01*
X28798Y428D01*
X28288D01*
X28267Y538D01*
X27962Y993D01*
X27506Y1298D01*
X26969Y1405D01*
X26431Y1298D01*
X25975Y993D01*
X25670Y538D01*
X25649Y428D01*
X25139D01*
X25117Y538D01*
X24812Y993D01*
X24356Y1298D01*
X23819Y1405D01*
X23281Y1298D01*
X22825Y993D01*
X22521Y538D01*
X22499Y428D01*
X21989D01*
X21967Y538D01*
X21663Y993D01*
X21207Y1298D01*
X20669Y1405D01*
X20132Y1298D01*
X19676Y993D01*
X19371Y538D01*
X19264Y0D01*
X19371Y-538D01*
X19613Y-899D01*
X19617Y-911D01*
X19617Y-916D01*
X19621Y-924D01*
X19626Y-944D01*
X19631Y-971D01*
X19652Y-1283D01*
X19653Y-1382D01*
X19666Y-1413D01*
Y-1936D01*
X15374D01*
Y-1413D01*
X15387Y-1382D01*
X15388Y-1278D01*
X15395Y-1105D01*
X15408Y-978D01*
X15414Y-944D01*
X15418Y-924D01*
X15422Y-916D01*
X15423Y-911D01*
X15427Y-899D01*
X15668Y-538D01*
X15775Y0D01*
X15668Y538D01*
X15363Y993D01*
X14908Y1298D01*
X14370Y1405D01*
X13832Y1298D01*
X13377Y993D01*
X13072Y538D01*
X13050Y428D01*
X12540D01*
X12518Y538D01*
X12214Y993D01*
X11758Y1298D01*
X11220Y1405D01*
X10683Y1298D01*
X10227Y993D01*
X9922Y538D01*
X9815Y0D01*
X9922Y-538D01*
X10164Y-899D01*
X10168Y-911D01*
X10168Y-916D01*
X10172Y-924D01*
X10177Y-944D01*
X10182Y-971D01*
X10203Y-1283D01*
X10204Y-1382D01*
X10217Y-1413D01*
Y-1936D01*
X3956D01*
Y0D01*
X3950Y33D01*
X3954Y66D01*
X3929Y451D01*
X3903Y546D01*
X3897Y645D01*
X3697Y1390D01*
X3639Y1508D01*
X3597Y1632D01*
X3212Y2299D01*
X3125Y2398D01*
X3052Y2507D01*
X2507Y3052D01*
X2398Y3125D01*
X2299Y3212D01*
X1632Y3597D01*
X1507Y3639D01*
X1390Y3697D01*
X645Y3897D01*
X514Y3905D01*
X385Y3931D01*
X-385D01*
X-514Y3905D01*
X-645Y3897D01*
X-1390Y3697D01*
X-1508Y3639D01*
X-1632Y3597D01*
X-2299Y3212D01*
X-2398Y3125D01*
X-2507Y3052D01*
X-3052Y2507D01*
X-3125Y2398D01*
X-3212Y2299D01*
X-3597Y1632D01*
X-3639Y1507D01*
X-3697Y1390D01*
X-3897Y645D01*
X-3903Y546D01*
X-3929Y451D01*
X-3954Y66D01*
X-3950Y33D01*
X-3956Y0D01*
Y-1936D01*
X-19272D01*
Y-1413D01*
X-19259Y-1382D01*
X-19258Y-1278D01*
X-19251Y-1105D01*
X-19238Y-978D01*
X-19232Y-944D01*
X-19227Y-924D01*
X-19223Y-916D01*
X-19223Y-911D01*
X-19219Y-899D01*
X-18978Y-538D01*
X-18871Y0D01*
X-18978Y538D01*
X-19282Y993D01*
X-19738Y1298D01*
X-20276Y1405D01*
X-20813Y1298D01*
X-21269Y993D01*
X-21574Y538D01*
X-21680Y0D01*
X-21574Y-538D01*
X-21332Y-899D01*
X-21328Y-911D01*
X-21328Y-916D01*
X-21324Y-924D01*
X-21319Y-944D01*
X-21314Y-971D01*
X-21293Y-1283D01*
X-21292Y-1382D01*
X-21279Y-1413D01*
Y-1936D01*
X-34688D01*
X-34878Y-1478D01*
X-34933Y-1396D01*
X-34971Y-1304D01*
X-35314Y-791D01*
X-35383Y-721D01*
X-35438Y-639D01*
X-35875Y-202D01*
X-35957Y-147D01*
X-36027Y-77D01*
X-36540Y266D01*
X-36632Y303D01*
X-36714Y358D01*
X-37284Y595D01*
X-37381Y614D01*
X-37473Y652D01*
X-38078Y772D01*
X-38153D01*
X-38225Y790D01*
X-38533Y805D01*
X-38558Y802D01*
X-38583Y807D01*
X-42894D01*
Y39370D01*
X73209D01*
Y807D01*
D02*
G37*
G36*
X43387Y-727D02*
X43370Y-761D01*
X43355Y-804D01*
X43343Y-857D01*
X43332Y-920D01*
X43316Y-1074D01*
X43308Y-1267D01*
X43307Y-1378D01*
X42126D01*
X42125Y-1267D01*
X42101Y-920D01*
X42091Y-857D01*
X42078Y-804D01*
X42063Y-761D01*
X42046Y-727D01*
X42028Y-703D01*
X43406D01*
X43387Y-727D01*
D02*
G37*
G36*
X40237D02*
X40220Y-761D01*
X40206Y-804D01*
X40193Y-857D01*
X40182Y-920D01*
X40166Y-1074D01*
X40159Y-1267D01*
X40157Y-1378D01*
X38976D01*
X38975Y-1267D01*
X38952Y-920D01*
X38941Y-857D01*
X38928Y-804D01*
X38913Y-761D01*
X38897Y-727D01*
X38878Y-703D01*
X40256D01*
X40237Y-727D01*
D02*
G37*
G36*
X37088D02*
X37071Y-761D01*
X37056Y-804D01*
X37043Y-857D01*
X37032Y-920D01*
X37017Y-1074D01*
X37009Y-1267D01*
X37008Y-1378D01*
X35827D01*
X35826Y-1267D01*
X35802Y-920D01*
X35791Y-857D01*
X35778Y-804D01*
X35764Y-761D01*
X35747Y-727D01*
X35728Y-703D01*
X37106D01*
X37088Y-727D01*
D02*
G37*
G36*
X33938D02*
X33921Y-761D01*
X33906Y-804D01*
X33894Y-857D01*
X33883Y-920D01*
X33867Y-1074D01*
X33859Y-1267D01*
X33858Y-1378D01*
X32677D01*
X32676Y-1267D01*
X32653Y-920D01*
X32642Y-857D01*
X32629Y-804D01*
X32614Y-761D01*
X32597Y-727D01*
X32579Y-703D01*
X33957D01*
X33938Y-727D01*
D02*
G37*
G36*
X30788D02*
X30772Y-761D01*
X30757Y-804D01*
X30744Y-857D01*
X30733Y-920D01*
X30718Y-1074D01*
X30710Y-1267D01*
X30709Y-1378D01*
X29528D01*
X29527Y-1267D01*
X29503Y-920D01*
X29492Y-857D01*
X29479Y-804D01*
X29465Y-761D01*
X29448Y-727D01*
X29429Y-703D01*
X30807D01*
X30788Y-727D01*
D02*
G37*
G36*
X27639D02*
X27622Y-761D01*
X27607Y-804D01*
X27595Y-857D01*
X27584Y-920D01*
X27568Y-1074D01*
X27560Y-1267D01*
X27559Y-1378D01*
X26378D01*
X26377Y-1267D01*
X26353Y-920D01*
X26342Y-857D01*
X26330Y-804D01*
X26315Y-761D01*
X26298Y-727D01*
X26280Y-703D01*
X27657D01*
X27639Y-727D01*
D02*
G37*
G36*
X24489D02*
X24472Y-761D01*
X24458Y-804D01*
X24445Y-857D01*
X24434Y-920D01*
X24418Y-1074D01*
X24410Y-1267D01*
X24409Y-1378D01*
X23228D01*
X23227Y-1267D01*
X23204Y-920D01*
X23193Y-857D01*
X23180Y-804D01*
X23165Y-761D01*
X23149Y-727D01*
X23130Y-703D01*
X24508D01*
X24489Y-727D01*
D02*
G37*
G36*
X21340D02*
X21323Y-761D01*
X21308Y-804D01*
X21295Y-857D01*
X21284Y-920D01*
X21269Y-1074D01*
X21261Y-1267D01*
X21260Y-1378D01*
X20079D01*
X20078Y-1267D01*
X20054Y-920D01*
X20043Y-857D01*
X20030Y-804D01*
X20016Y-761D01*
X19999Y-727D01*
X19980Y-703D01*
X21358D01*
X21340Y-727D01*
D02*
G37*
G36*
X15040D02*
X15024Y-761D01*
X15009Y-804D01*
X14996Y-857D01*
X14985Y-920D01*
X14969Y-1074D01*
X14962Y-1267D01*
X14961Y-1378D01*
X13780D01*
X13779Y-1267D01*
X13755Y-920D01*
X13744Y-857D01*
X13731Y-804D01*
X13716Y-761D01*
X13700Y-727D01*
X13681Y-703D01*
X15059D01*
X15040Y-727D01*
D02*
G37*
G36*
X11891D02*
X11874Y-761D01*
X11859Y-804D01*
X11846Y-857D01*
X11836Y-920D01*
X11820Y-1074D01*
X11812Y-1267D01*
X11811Y-1378D01*
X10630D01*
X10629Y-1267D01*
X10605Y-920D01*
X10594Y-857D01*
X10582Y-804D01*
X10567Y-761D01*
X10550Y-727D01*
X10531Y-703D01*
X11909D01*
X11891Y-727D01*
D02*
G37*
G36*
X-19605D02*
X-19622Y-761D01*
X-19637Y-804D01*
X-19650Y-857D01*
X-19660Y-920D01*
X-19676Y-1074D01*
X-19684Y-1267D01*
X-19685Y-1378D01*
X-20866D01*
X-20867Y-1267D01*
X-20891Y-920D01*
X-20902Y-857D01*
X-20914Y-804D01*
X-20929Y-761D01*
X-20946Y-727D01*
X-20965Y-703D01*
X-19587D01*
X-19605Y-727D01*
D02*
G37*
%LPC*%
G36*
X47697Y137402D02*
X46772D01*
Y136378D01*
X47697D01*
Y137402D01*
D02*
G37*
G36*
X45984D02*
X45059D01*
Y136378D01*
X45984D01*
Y137402D01*
D02*
G37*
G36*
X37854D02*
X36929D01*
Y136378D01*
X37854D01*
Y137402D01*
D02*
G37*
G36*
X36142D02*
X35217D01*
Y136378D01*
X36142D01*
Y137402D01*
D02*
G37*
G36*
X28012D02*
X27087D01*
Y136378D01*
X28012D01*
Y137402D01*
D02*
G37*
G36*
X26299D02*
X25374D01*
Y136378D01*
X26299D01*
Y137402D01*
D02*
G37*
G36*
X-14744Y135276D02*
X-15669D01*
Y134252D01*
X-14744D01*
Y135276D01*
D02*
G37*
G36*
X-16457D02*
X-17382D01*
Y134252D01*
X-16457D01*
Y135276D01*
D02*
G37*
G36*
X-14744Y133465D02*
X-15669D01*
Y132847D01*
X-15150D01*
X-15174Y132831D01*
X-15195Y132784D01*
X-15214Y132705D01*
X-15230Y132595D01*
X-15243Y132441D01*
X-14744D01*
Y133465D01*
D02*
G37*
G36*
X-16457D02*
X-17382D01*
Y132441D01*
X-16908D01*
X-16931Y132784D01*
X-16952Y132831D01*
X-16976Y132847D01*
X-16457D01*
Y133465D01*
D02*
G37*
G36*
X44311Y131339D02*
X43386D01*
Y130315D01*
X44311D01*
Y131339D01*
D02*
G37*
G36*
X42598D02*
X41673D01*
Y130315D01*
X42598D01*
Y131339D01*
D02*
G37*
G36*
X34468D02*
X33543D01*
Y130315D01*
X34468D01*
Y131339D01*
D02*
G37*
G36*
X32756D02*
X31831D01*
Y130315D01*
X32756D01*
Y131339D01*
D02*
G37*
G36*
X24626D02*
X23701D01*
Y130315D01*
X24626D01*
Y131339D01*
D02*
G37*
G36*
X22913D02*
X21988D01*
Y130315D01*
X22913D01*
Y131339D01*
D02*
G37*
G36*
X-14744D02*
X-15217D01*
X-15195Y130996D01*
X-15174Y130949D01*
X-15150Y130933D01*
X-15669D01*
Y130315D01*
X-14744D01*
Y131339D01*
D02*
G37*
G36*
X-16883D02*
X-17382D01*
Y130315D01*
X-16457D01*
Y130933D01*
X-16976D01*
X-16952Y130949D01*
X-16931Y130996D01*
X-16912Y131075D01*
X-16896Y131185D01*
X-16883Y131339D01*
D02*
G37*
G36*
X44311Y129528D02*
X43386D01*
Y128504D01*
X44311D01*
Y129528D01*
D02*
G37*
G36*
X42598D02*
X41673D01*
Y128504D01*
X42598D01*
Y129528D01*
D02*
G37*
G36*
X34468D02*
X33543D01*
Y128504D01*
X34468D01*
Y129528D01*
D02*
G37*
G36*
X32756D02*
X31831D01*
Y128504D01*
X32756D01*
Y129528D01*
D02*
G37*
G36*
X24626D02*
X23701D01*
Y128504D01*
X24626D01*
Y129528D01*
D02*
G37*
G36*
X22913D02*
X21988D01*
Y128504D01*
X22913D01*
Y129528D01*
D02*
G37*
G36*
X-14744D02*
X-15669D01*
Y128910D01*
X-15150D01*
X-15174Y128894D01*
X-15195Y128847D01*
X-15214Y128768D01*
X-15230Y128658D01*
X-15243Y128504D01*
X-14744D01*
Y129528D01*
D02*
G37*
G36*
X-16457D02*
X-17382D01*
Y128504D01*
X-16908D01*
X-16931Y128847D01*
X-16952Y128894D01*
X-16976Y128910D01*
X-16457D01*
Y129528D01*
D02*
G37*
G36*
X44311Y127402D02*
X43386D01*
Y126378D01*
X44311D01*
Y127402D01*
D02*
G37*
G36*
X42598D02*
X41673D01*
Y126378D01*
X42598D01*
Y127402D01*
D02*
G37*
G36*
X34468D02*
X33543D01*
Y126378D01*
X34468D01*
Y127402D01*
D02*
G37*
G36*
X32756D02*
X31831D01*
Y126378D01*
X32756D01*
Y127402D01*
D02*
G37*
G36*
X24626D02*
X23701D01*
Y126378D01*
X24626D01*
Y127402D01*
D02*
G37*
G36*
X22913D02*
X21988D01*
Y126378D01*
X22913D01*
Y127402D01*
D02*
G37*
G36*
X-14744D02*
X-15217D01*
X-15195Y127059D01*
X-15174Y127012D01*
X-15150Y126996D01*
X-15669D01*
Y126378D01*
X-14744D01*
Y127402D01*
D02*
G37*
G36*
X-16883D02*
X-17382D01*
Y126378D01*
X-16457D01*
Y126996D01*
X-16976D01*
X-16952Y127012D01*
X-16931Y127059D01*
X-16912Y127138D01*
X-16896Y127248D01*
X-16883Y127402D01*
D02*
G37*
G36*
X44311Y125591D02*
X43386D01*
Y124567D01*
X44311D01*
Y125591D01*
D02*
G37*
G36*
X42598D02*
X41673D01*
Y124567D01*
X42598D01*
Y125591D01*
D02*
G37*
G36*
X34468D02*
X33543D01*
Y124567D01*
X34468D01*
Y125591D01*
D02*
G37*
G36*
X32756D02*
X31831D01*
Y124567D01*
X32756D01*
Y125591D01*
D02*
G37*
G36*
X24626D02*
X23701D01*
Y124567D01*
X24626D01*
Y125591D01*
D02*
G37*
G36*
X22913D02*
X21988D01*
Y124567D01*
X22913D01*
Y125591D01*
D02*
G37*
G36*
X-14744D02*
X-15669D01*
Y124567D01*
X-14744D01*
Y125591D01*
D02*
G37*
G36*
X-16457D02*
X-17382D01*
Y124567D01*
X-16457D01*
Y125591D01*
D02*
G37*
G36*
X-17382Y114606D02*
X-17882Y114423D01*
X-18230Y114567D01*
X-18778D01*
X-19285Y114357D01*
X-19672Y113970D01*
X-19882Y113463D01*
Y112915D01*
X-19672Y112408D01*
X-19285Y112021D01*
X-18778Y111811D01*
X-18230D01*
X-17882Y111955D01*
X-17382Y111772D01*
Y111772D01*
X-14744D01*
Y114606D01*
X-17382D01*
X-17382Y114606D01*
D02*
G37*
G36*
X-11358Y114606D02*
X-12284D01*
Y113583D01*
X-11358D01*
Y114606D01*
D02*
G37*
G36*
X-13071D02*
X-13996D01*
Y113583D01*
X-13071D01*
Y114606D01*
D02*
G37*
G36*
X22441Y113583D02*
Y112205D01*
X22933D01*
Y113583D01*
X22441D01*
D02*
G37*
G36*
X-11358Y112795D02*
X-12284D01*
Y111772D01*
X-11358D01*
Y112795D01*
D02*
G37*
G36*
X-13071D02*
X-13996D01*
Y111772D01*
X-13071D01*
Y112795D01*
D02*
G37*
G36*
X47697Y114606D02*
X45059D01*
Y112277D01*
X45046Y112258D01*
X45054Y112214D01*
X45039Y112177D01*
X45059Y111772D01*
X45286D01*
Y111772D01*
X45286D01*
X45351Y111314D01*
X45355Y111249D01*
X45351Y111127D01*
X45286Y110669D01*
X45286D01*
Y110669D01*
X45059D01*
X45039Y110264D01*
X45054Y110227D01*
X45046Y110183D01*
X45059Y110164D01*
Y108340D01*
X45046Y108321D01*
X45054Y108277D01*
X45039Y108240D01*
X45059Y107835D01*
X45286D01*
Y107835D01*
X45286D01*
X45351Y107377D01*
X45355Y107312D01*
X45351Y107190D01*
X45286Y106732D01*
X45286D01*
Y106732D01*
X45059D01*
X45039Y106327D01*
X45054Y106290D01*
X45046Y106246D01*
X45059Y106227D01*
Y104403D01*
X45046Y104384D01*
X45054Y104340D01*
X45039Y104303D01*
X45059Y103898D01*
X45286D01*
Y103898D01*
X45286D01*
X45351Y103440D01*
X45355Y103375D01*
X45351Y103253D01*
X45286Y102795D01*
X45286D01*
Y102795D01*
X45059D01*
X45039Y102390D01*
X45054Y102353D01*
X45046Y102309D01*
X45059Y102290D01*
Y100466D01*
X45046Y100447D01*
X45054Y100403D01*
X45039Y100366D01*
X45059Y99961D01*
X45286D01*
Y99961D01*
X45286D01*
X45351Y99502D01*
X45355Y99438D01*
X45351Y99316D01*
X45286Y98858D01*
X45286D01*
Y98858D01*
X45059D01*
X45039Y98453D01*
X45054Y98416D01*
X45046Y98372D01*
X45059Y98353D01*
Y96529D01*
X45046Y96510D01*
X45054Y96466D01*
X45039Y96429D01*
X45059Y96024D01*
X45286D01*
Y96024D01*
X45286D01*
X45351Y95565D01*
X45355Y95501D01*
X45351Y95379D01*
X45286Y94921D01*
X45286D01*
Y94921D01*
X45059D01*
X45039Y94516D01*
X45054Y94479D01*
X45046Y94435D01*
X45059Y94416D01*
Y92592D01*
X45046Y92573D01*
X45054Y92529D01*
X45039Y92492D01*
X45059Y92087D01*
X45286D01*
Y92087D01*
X45286D01*
X45351Y91628D01*
X45355Y91564D01*
X45351Y91442D01*
X45286Y90984D01*
X45286D01*
Y90984D01*
X45059D01*
X45039Y90579D01*
X45054Y90542D01*
X45046Y90498D01*
X45059Y90479D01*
Y88150D01*
X45059Y88150D01*
X45059D01*
X45103Y87650D01*
X45000Y87400D01*
Y86852D01*
X45210Y86345D01*
X45597Y85958D01*
X46104Y85748D01*
X46652D01*
X47159Y85958D01*
X47546Y86345D01*
X47756Y86852D01*
Y87400D01*
X47653Y87650D01*
X47697Y88150D01*
X47697Y88150D01*
Y90479D01*
X47710Y90498D01*
X47702Y90542D01*
X47717Y90579D01*
X47697Y90984D01*
X47470D01*
Y90984D01*
X47470D01*
X47405Y91442D01*
X47401Y91507D01*
X47405Y91629D01*
X47470Y92087D01*
X47470D01*
Y92087D01*
X47697D01*
X47717Y92492D01*
X47702Y92529D01*
X47710Y92573D01*
X47697Y92592D01*
Y94416D01*
X47710Y94435D01*
X47702Y94479D01*
X47717Y94516D01*
X47697Y94921D01*
X47470D01*
Y94921D01*
X47470D01*
X47405Y95379D01*
X47401Y95444D01*
X47405Y95566D01*
X47470Y96024D01*
X47470D01*
Y96024D01*
X47697D01*
X47717Y96429D01*
X47702Y96466D01*
X47710Y96510D01*
X47697Y96529D01*
Y98353D01*
X47710Y98372D01*
X47702Y98416D01*
X47717Y98453D01*
X47697Y98858D01*
X47470D01*
Y98858D01*
X47470D01*
X47405Y99316D01*
X47401Y99381D01*
X47405Y99503D01*
X47470Y99961D01*
X47470D01*
Y99961D01*
X47697D01*
X47717Y100366D01*
X47702Y100403D01*
X47710Y100447D01*
X47697Y100466D01*
Y102290D01*
X47710Y102309D01*
X47702Y102353D01*
X47717Y102390D01*
X47697Y102795D01*
X47470D01*
Y102795D01*
X47470D01*
X47405Y103253D01*
X47401Y103318D01*
X47405Y103440D01*
X47470Y103898D01*
X47470D01*
Y103898D01*
X47697D01*
X47717Y104303D01*
X47702Y104340D01*
X47710Y104384D01*
X47697Y104403D01*
Y106227D01*
X47710Y106246D01*
X47702Y106290D01*
X47717Y106327D01*
X47697Y106732D01*
X47470D01*
Y106732D01*
X47470D01*
X47405Y107190D01*
X47401Y107255D01*
X47405Y107377D01*
X47470Y107835D01*
X47470D01*
Y107835D01*
X47697D01*
X47717Y108240D01*
X47702Y108277D01*
X47710Y108321D01*
X47697Y108340D01*
Y110164D01*
X47710Y110183D01*
X47702Y110227D01*
X47717Y110264D01*
X47697Y110669D01*
X47470D01*
Y110669D01*
X47470D01*
X47405Y111127D01*
X47401Y111192D01*
X47405Y111314D01*
X47470Y111772D01*
X47470D01*
Y111772D01*
X47697D01*
X47717Y112177D01*
X47702Y112214D01*
X47710Y112258D01*
X47697Y112277D01*
Y114606D01*
D02*
G37*
G36*
X-17382Y110669D02*
X-17882Y110486D01*
X-18230Y110630D01*
X-18778D01*
X-19285Y110420D01*
X-19672Y110032D01*
X-19882Y109526D01*
Y108978D01*
X-19672Y108471D01*
X-19285Y108084D01*
X-18778Y107874D01*
X-18230D01*
X-17882Y108018D01*
X-17382Y107835D01*
Y107835D01*
X-14744D01*
Y110669D01*
X-17382D01*
X-17382Y110669D01*
D02*
G37*
G36*
X5315Y110138D02*
X3937D01*
Y109646D01*
X5315D01*
Y110138D01*
D02*
G37*
G36*
X-17382Y106732D02*
X-17882Y106549D01*
X-18230Y106693D01*
X-18778D01*
X-19285Y106483D01*
X-19672Y106096D01*
X-19882Y105589D01*
Y105041D01*
X-19672Y104534D01*
X-19285Y104147D01*
X-18778Y103937D01*
X-18230D01*
X-17882Y104081D01*
X-17382Y103898D01*
X-17155Y103898D01*
X-17090Y103440D01*
X-17086Y103375D01*
X-17089Y103253D01*
X-17155Y102795D01*
X-17155D01*
Y102795D01*
X-17382D01*
X-17402Y102390D01*
X-17387Y102353D01*
X-17395Y102309D01*
X-17382Y102290D01*
Y100466D01*
X-17395Y100447D01*
X-17387Y100403D01*
X-17402Y100366D01*
X-17382Y99961D01*
X-17155D01*
Y99961D01*
X-17155D01*
X-17090Y99502D01*
X-17086Y99438D01*
X-17089Y99316D01*
X-17155Y98858D01*
X-17155D01*
Y98858D01*
X-17382D01*
X-17402Y98453D01*
X-17387Y98416D01*
X-17395Y98372D01*
X-17382Y98353D01*
Y96529D01*
X-17395Y96510D01*
X-17387Y96466D01*
X-17402Y96429D01*
X-17382Y96024D01*
X-17155D01*
Y96024D01*
X-17155D01*
X-17090Y95565D01*
X-17086Y95501D01*
X-17089Y95379D01*
X-17155Y94921D01*
X-17155D01*
Y94921D01*
X-17382D01*
X-17402Y94516D01*
X-17387Y94479D01*
X-17395Y94435D01*
X-17382Y94416D01*
Y92087D01*
X-14744D01*
Y94416D01*
X-14731Y94435D01*
X-14739Y94479D01*
X-14724Y94516D01*
X-14744Y94921D01*
X-14971D01*
Y94921D01*
X-14971D01*
X-15036Y95379D01*
X-15040Y95444D01*
X-15036Y95566D01*
X-14971Y96024D01*
X-14971D01*
Y96024D01*
X-14744D01*
X-14724Y96429D01*
X-14739Y96466D01*
X-14731Y96510D01*
X-14744Y96529D01*
Y98353D01*
X-14731Y98372D01*
X-14739Y98416D01*
X-14724Y98453D01*
X-14744Y98858D01*
X-14971D01*
Y98858D01*
X-14971D01*
X-15036Y99316D01*
X-15040Y99381D01*
X-15036Y99503D01*
X-14971Y99961D01*
X-14971D01*
Y99961D01*
X-14744D01*
X-14724Y100366D01*
X-14739Y100403D01*
X-14731Y100447D01*
X-14744Y100466D01*
Y102290D01*
X-14731Y102309D01*
X-14739Y102353D01*
X-14724Y102390D01*
X-14744Y102795D01*
X-14971D01*
Y102795D01*
X-14971D01*
X-15036Y103253D01*
X-15040Y103318D01*
X-15036Y103440D01*
X-14971Y103898D01*
X-14971D01*
Y103898D01*
X-14744D01*
X-14724Y104303D01*
X-14739Y104340D01*
X-14731Y104384D01*
X-14744Y104403D01*
Y106732D01*
X-17382D01*
X-17382Y106732D01*
D02*
G37*
G36*
X-11272Y91339D02*
X-11586D01*
X-11875Y91219D01*
X-12097Y90997D01*
X-12217Y90708D01*
Y90395D01*
X-12097Y90105D01*
X-11875Y89884D01*
X-11586Y89764D01*
X-11272D01*
X-10983Y89884D01*
X-10762Y90105D01*
X-10642Y90395D01*
Y90708D01*
X-10762Y90997D01*
X-10983Y91219D01*
X-11272Y91339D01*
D02*
G37*
G36*
X-19528D02*
X-19842D01*
X-20131Y91219D01*
X-20353Y90997D01*
X-20472Y90708D01*
Y90395D01*
X-20353Y90105D01*
X-20131Y89884D01*
X-19842Y89764D01*
X-19528D01*
X-19239Y89884D01*
X-19017Y90105D01*
X-18898Y90395D01*
Y90708D01*
X-19017Y90997D01*
X-19239Y91219D01*
X-19528Y91339D01*
D02*
G37*
G36*
X-17382Y87047D02*
X-17882Y86864D01*
X-18230Y87008D01*
X-18778D01*
X-19285Y86798D01*
X-19672Y86410D01*
X-19882Y85904D01*
Y85356D01*
X-19672Y84849D01*
X-19285Y84462D01*
X-18778Y84252D01*
X-18230D01*
X-17882Y84396D01*
X-17382Y84213D01*
X-17155Y84213D01*
X-17090Y83754D01*
X-17086Y83690D01*
X-17089Y83568D01*
X-17155Y83110D01*
X-17155D01*
Y83110D01*
X-17382D01*
X-17402Y82705D01*
X-17387Y82668D01*
X-17395Y82624D01*
X-17382Y82605D01*
Y80276D01*
X-14744D01*
Y82605D01*
X-14731Y82624D01*
X-14739Y82668D01*
X-14724Y82705D01*
X-14744Y83110D01*
X-14971D01*
Y83110D01*
X-14971D01*
X-15036Y83568D01*
X-15040Y83633D01*
X-15036Y83755D01*
X-14971Y84213D01*
X-14971D01*
Y84213D01*
X-14744D01*
X-14724Y84618D01*
X-14739Y84655D01*
X-14731Y84699D01*
X-14744Y84718D01*
Y87047D01*
X-17382D01*
X-17382Y87047D01*
D02*
G37*
G36*
X-11358Y87047D02*
X-13996D01*
Y84213D01*
X-13541D01*
X-13539Y84208D01*
X-13523Y84149D01*
X-13510Y84066D01*
X-13500Y83959D01*
X-13497Y83820D01*
X-13480Y83782D01*
Y83541D01*
X-13497Y83503D01*
X-13500Y83367D01*
X-13510Y83262D01*
X-13523Y83181D01*
X-13538Y83125D01*
X-13544Y83110D01*
X-13996D01*
Y80276D01*
X-11358D01*
Y83110D01*
X-11810D01*
X-11816Y83125D01*
X-11831Y83181D01*
X-11845Y83262D01*
X-11854Y83367D01*
X-11857Y83503D01*
X-11874Y83541D01*
Y83782D01*
X-11857Y83820D01*
X-11854Y83959D01*
X-11845Y84066D01*
X-11831Y84149D01*
X-11815Y84208D01*
X-11813Y84213D01*
X-11358D01*
Y84363D01*
X-11323Y84431D01*
X-11289Y84481D01*
X-10836Y84630D01*
X-10764Y84602D01*
X-10623Y84462D01*
X-10117Y84252D01*
X-9568D01*
X-9062Y84462D01*
X-8674Y84849D01*
X-8465Y85356D01*
Y85904D01*
X-8674Y86410D01*
X-9062Y86798D01*
X-9568Y87008D01*
X-10117D01*
X-10623Y86798D01*
X-10764Y86658D01*
X-10836Y86630D01*
X-11289Y86778D01*
X-11323Y86829D01*
X-11358Y86897D01*
Y87047D01*
D02*
G37*
G36*
X49369Y80709D02*
X49056D01*
X48767Y80589D01*
X48545Y80367D01*
X48425Y80078D01*
Y79765D01*
X48545Y79475D01*
X48767Y79254D01*
X49056Y79134D01*
X49369D01*
X49659Y79254D01*
X49880Y79475D01*
X50000Y79765D01*
Y80078D01*
X49880Y80367D01*
X49659Y80589D01*
X49369Y80709D01*
D02*
G37*
G36*
X31885D02*
X31572D01*
X31282Y80589D01*
X31061Y80367D01*
X30941Y80078D01*
Y79765D01*
X31061Y79475D01*
X31282Y79254D01*
X31572Y79134D01*
X31885D01*
X32174Y79254D01*
X32396Y79475D01*
X32516Y79765D01*
Y80078D01*
X32396Y80367D01*
X32174Y80589D01*
X31885Y80709D01*
D02*
G37*
G36*
X24973Y74450D02*
X24567Y74429D01*
Y74202D01*
X24567D01*
Y74202D01*
X24109Y74138D01*
X24044Y74133D01*
X23923Y74137D01*
X23465Y74202D01*
Y74202D01*
X23465D01*
Y74429D01*
X23059Y74450D01*
X23022Y74435D01*
X22978Y74442D01*
X22959Y74429D01*
X20630D01*
Y71791D01*
X22959D01*
X22978Y71779D01*
X23022Y71786D01*
X23059Y71771D01*
X23465Y71791D01*
Y72018D01*
X23465D01*
Y72018D01*
X23923Y72083D01*
X23988Y72087D01*
X24109Y72084D01*
X24567Y72018D01*
Y71791D01*
X24803Y71779D01*
X24848Y71756D01*
X24898Y71723D01*
X25047Y71270D01*
X25020Y71197D01*
X24879Y71056D01*
X24669Y70550D01*
Y70002D01*
X24879Y69495D01*
X25267Y69107D01*
X25773Y68898D01*
X26321D01*
X26828Y69107D01*
X27215Y69495D01*
X27425Y70002D01*
Y70550D01*
X27215Y71056D01*
X27075Y71197D01*
X27047Y71270D01*
X27196Y71722D01*
X27246Y71756D01*
X27314Y71791D01*
X27402D01*
Y74429D01*
X25073D01*
X25053Y74442D01*
X25009Y74435D01*
X24973Y74450D01*
D02*
G37*
G36*
X-11272Y73622D02*
X-11586D01*
X-11875Y73502D01*
X-12097Y73281D01*
X-12217Y72991D01*
Y72678D01*
X-12097Y72389D01*
X-11875Y72167D01*
X-11586Y72047D01*
X-11272D01*
X-10983Y72167D01*
X-10762Y72389D01*
X-10642Y72678D01*
Y72991D01*
X-10762Y73281D01*
X-10983Y73502D01*
X-11272Y73622D01*
D02*
G37*
G36*
X-16273D02*
X-16586D01*
X-16875Y73502D01*
X-17097Y73281D01*
X-17217Y72991D01*
Y72678D01*
X-17097Y72389D01*
X-16875Y72167D01*
X-16586Y72047D01*
X-16273D01*
X-15983Y72167D01*
X-15762Y72389D01*
X-15642Y72678D01*
Y72991D01*
X-15762Y73281D01*
X-15983Y73502D01*
X-16273Y73622D01*
D02*
G37*
G36*
X6929Y74429D02*
Y74429D01*
X4095D01*
Y71791D01*
X6929D01*
X7283Y71440D01*
Y71063D01*
X7349D01*
X7683Y70563D01*
X7677Y70550D01*
Y70002D01*
X7887Y69495D01*
X8275Y69107D01*
X8781Y68898D01*
X9329D01*
X9836Y69107D01*
X10223Y69495D01*
X10433Y70002D01*
Y70550D01*
X10428Y70563D01*
X10762Y71063D01*
X10827D01*
Y74213D01*
X7775D01*
X7747Y74229D01*
X7700Y74227D01*
X7686Y74233D01*
X7283Y74213D01*
X6929Y74429D01*
D02*
G37*
%LPD*%
G36*
X-16964Y112402D02*
X-16972Y112476D01*
X-16996Y112543D01*
X-17036Y112602D01*
X-17092Y112654D01*
X-17164Y112697D01*
X-17252Y112732D01*
X-17343Y112756D01*
X-17378Y112748D01*
X-17459Y112722D01*
X-17536Y112689D01*
X-17608Y112651D01*
X-17677Y112606D01*
X-17741Y112556D01*
X-17801Y112500D01*
Y113878D01*
X-17741Y113822D01*
X-17677Y113772D01*
X-17608Y113727D01*
X-17536Y113689D01*
X-17459Y113656D01*
X-17378Y113630D01*
X-17343Y113621D01*
X-17252Y113646D01*
X-17164Y113681D01*
X-17092Y113724D01*
X-17036Y113776D01*
X-16996Y113835D01*
X-16972Y113902D01*
X-16964Y113976D01*
Y112402D01*
D02*
G37*
G36*
X47230Y112166D02*
X47175Y112130D01*
X47127Y112071D01*
X47085Y111988D01*
X47049Y111882D01*
X47020Y111752D01*
X46998Y111599D01*
X46981Y111422D01*
X46974Y111184D01*
X46998Y110842D01*
X47020Y110689D01*
X47049Y110559D01*
X47085Y110453D01*
X47127Y110370D01*
X47175Y110311D01*
X47230Y110275D01*
X47291Y110264D01*
X45465D01*
X45526Y110275D01*
X45581Y110311D01*
X45629Y110370D01*
X45671Y110453D01*
X45707Y110559D01*
X45736Y110689D01*
X45758Y110842D01*
X45774Y111020D01*
X45782Y111257D01*
X45758Y111599D01*
X45736Y111752D01*
X45707Y111882D01*
X45671Y111988D01*
X45629Y112071D01*
X45581Y112130D01*
X45526Y112166D01*
X45465Y112177D01*
X47291D01*
X47230Y112166D01*
D02*
G37*
G36*
Y108229D02*
X47175Y108193D01*
X47127Y108134D01*
X47085Y108051D01*
X47049Y107945D01*
X47020Y107815D01*
X46998Y107662D01*
X46981Y107484D01*
X46974Y107247D01*
X46998Y106905D01*
X47020Y106752D01*
X47049Y106622D01*
X47085Y106516D01*
X47127Y106433D01*
X47175Y106374D01*
X47230Y106338D01*
X47291Y106327D01*
X45465D01*
X45526Y106338D01*
X45581Y106374D01*
X45629Y106433D01*
X45671Y106516D01*
X45707Y106622D01*
X45736Y106752D01*
X45758Y106905D01*
X45774Y107082D01*
X45782Y107320D01*
X45758Y107662D01*
X45736Y107815D01*
X45707Y107945D01*
X45671Y108051D01*
X45629Y108134D01*
X45581Y108193D01*
X45526Y108229D01*
X45465Y108240D01*
X47291D01*
X47230Y108229D01*
D02*
G37*
G36*
Y104291D02*
X47175Y104256D01*
X47127Y104197D01*
X47085Y104114D01*
X47049Y104008D01*
X47020Y103878D01*
X46998Y103725D01*
X46981Y103547D01*
X46974Y103310D01*
X46998Y102968D01*
X47020Y102815D01*
X47049Y102685D01*
X47085Y102578D01*
X47127Y102496D01*
X47175Y102437D01*
X47230Y102401D01*
X47291Y102390D01*
X45465D01*
X45526Y102401D01*
X45581Y102437D01*
X45629Y102496D01*
X45671Y102578D01*
X45707Y102685D01*
X45736Y102815D01*
X45758Y102968D01*
X45774Y103146D01*
X45782Y103383D01*
X45758Y103725D01*
X45736Y103878D01*
X45707Y104008D01*
X45671Y104114D01*
X45629Y104197D01*
X45581Y104256D01*
X45526Y104291D01*
X45465Y104303D01*
X47291D01*
X47230Y104291D01*
D02*
G37*
G36*
Y100355D02*
X47175Y100319D01*
X47127Y100260D01*
X47085Y100177D01*
X47049Y100071D01*
X47020Y99941D01*
X46998Y99788D01*
X46981Y99610D01*
X46974Y99373D01*
X46998Y99031D01*
X47020Y98878D01*
X47049Y98748D01*
X47085Y98642D01*
X47127Y98559D01*
X47175Y98500D01*
X47230Y98464D01*
X47291Y98453D01*
X45465D01*
X45526Y98464D01*
X45581Y98500D01*
X45629Y98559D01*
X45671Y98642D01*
X45707Y98748D01*
X45736Y98878D01*
X45758Y99031D01*
X45774Y99208D01*
X45782Y99446D01*
X45758Y99788D01*
X45736Y99941D01*
X45707Y100071D01*
X45671Y100177D01*
X45629Y100260D01*
X45581Y100319D01*
X45526Y100355D01*
X45465Y100366D01*
X47291D01*
X47230Y100355D01*
D02*
G37*
G36*
Y96417D02*
X47175Y96382D01*
X47127Y96323D01*
X47085Y96240D01*
X47049Y96134D01*
X47020Y96004D01*
X46998Y95851D01*
X46981Y95673D01*
X46974Y95436D01*
X46998Y95094D01*
X47020Y94941D01*
X47049Y94811D01*
X47085Y94705D01*
X47127Y94622D01*
X47175Y94563D01*
X47230Y94527D01*
X47291Y94516D01*
X45465D01*
X45526Y94527D01*
X45581Y94563D01*
X45629Y94622D01*
X45671Y94705D01*
X45707Y94811D01*
X45736Y94941D01*
X45758Y95094D01*
X45774Y95271D01*
X45782Y95509D01*
X45758Y95851D01*
X45736Y96004D01*
X45707Y96134D01*
X45671Y96240D01*
X45629Y96323D01*
X45581Y96382D01*
X45526Y96417D01*
X45465Y96429D01*
X47291D01*
X47230Y96417D01*
D02*
G37*
G36*
Y92480D02*
X47175Y92445D01*
X47127Y92386D01*
X47085Y92303D01*
X47049Y92197D01*
X47020Y92067D01*
X46998Y91914D01*
X46981Y91736D01*
X46974Y91499D01*
X46998Y91157D01*
X47020Y91004D01*
X47049Y90874D01*
X47085Y90768D01*
X47127Y90685D01*
X47175Y90626D01*
X47230Y90590D01*
X47291Y90579D01*
X45465D01*
X45526Y90590D01*
X45581Y90626D01*
X45629Y90685D01*
X45671Y90768D01*
X45707Y90874D01*
X45736Y91004D01*
X45758Y91157D01*
X45774Y91334D01*
X45782Y91572D01*
X45758Y91914D01*
X45736Y92067D01*
X45707Y92197D01*
X45671Y92303D01*
X45629Y92386D01*
X45581Y92445D01*
X45526Y92480D01*
X45465Y92492D01*
X47291D01*
X47230Y92480D01*
D02*
G37*
G36*
X46791Y89133D02*
X46787Y89094D01*
X46780Y88945D01*
X46777Y88567D01*
X47165D01*
X47091Y88559D01*
X47024Y88535D01*
X46965Y88495D01*
X46913Y88439D01*
X46870Y88367D01*
X46835Y88279D01*
X46824Y88238D01*
X46845Y88171D01*
X46878Y88094D01*
X46916Y88021D01*
X46961Y87953D01*
X47011Y87889D01*
X47067Y87829D01*
X46773D01*
X46772Y87768D01*
X45984D01*
X45983Y87829D01*
X45689D01*
X45745Y87889D01*
X45795Y87953D01*
X45840Y88021D01*
X45878Y88094D01*
X45910Y88171D01*
X45932Y88238D01*
X45921Y88279D01*
X45886Y88367D01*
X45842Y88439D01*
X45791Y88495D01*
X45732Y88535D01*
X45665Y88559D01*
X45591Y88567D01*
X45972D01*
X45960Y89150D01*
X46796D01*
X46791Y89133D01*
D02*
G37*
G36*
X-16964Y108465D02*
X-16972Y108539D01*
X-16996Y108606D01*
X-17036Y108665D01*
X-17092Y108716D01*
X-17164Y108760D01*
X-17252Y108795D01*
X-17343Y108819D01*
X-17378Y108811D01*
X-17459Y108784D01*
X-17536Y108752D01*
X-17608Y108714D01*
X-17677Y108669D01*
X-17741Y108619D01*
X-17801Y108563D01*
Y109941D01*
X-17741Y109885D01*
X-17677Y109835D01*
X-17608Y109790D01*
X-17536Y109752D01*
X-17459Y109720D01*
X-17378Y109693D01*
X-17343Y109685D01*
X-17252Y109709D01*
X-17164Y109744D01*
X-17092Y109787D01*
X-17036Y109839D01*
X-16996Y109898D01*
X-16972Y109965D01*
X-16964Y110039D01*
Y108465D01*
D02*
G37*
G36*
Y105723D02*
X-16480Y105733D01*
Y104897D01*
X-16497Y104902D01*
X-16536Y104906D01*
X-16684Y104913D01*
X-16964Y104915D01*
Y104528D01*
X-16972Y104602D01*
X-16996Y104669D01*
X-17036Y104728D01*
X-17092Y104780D01*
X-17164Y104823D01*
X-17252Y104858D01*
X-17343Y104882D01*
X-17378Y104874D01*
X-17459Y104848D01*
X-17536Y104815D01*
X-17608Y104777D01*
X-17677Y104732D01*
X-17741Y104682D01*
X-17801Y104626D01*
Y106004D01*
X-17741Y105948D01*
X-17677Y105898D01*
X-17608Y105853D01*
X-17536Y105815D01*
X-17459Y105782D01*
X-17378Y105756D01*
X-17343Y105747D01*
X-17252Y105772D01*
X-17164Y105807D01*
X-17092Y105850D01*
X-17036Y105902D01*
X-16996Y105961D01*
X-16972Y106028D01*
X-16964Y106102D01*
Y105723D01*
D02*
G37*
G36*
X-15211Y104291D02*
X-15266Y104256D01*
X-15314Y104197D01*
X-15356Y104114D01*
X-15392Y104008D01*
X-15421Y103878D01*
X-15443Y103725D01*
X-15460Y103547D01*
X-15467Y103310D01*
X-15443Y102968D01*
X-15421Y102815D01*
X-15392Y102685D01*
X-15356Y102578D01*
X-15314Y102496D01*
X-15266Y102437D01*
X-15211Y102401D01*
X-15150Y102390D01*
X-16976D01*
X-16915Y102401D01*
X-16860Y102437D01*
X-16812Y102496D01*
X-16770Y102578D01*
X-16734Y102685D01*
X-16705Y102815D01*
X-16683Y102968D01*
X-16666Y103146D01*
X-16659Y103383D01*
X-16683Y103725D01*
X-16705Y103878D01*
X-16734Y104008D01*
X-16770Y104114D01*
X-16812Y104197D01*
X-16860Y104256D01*
X-16915Y104291D01*
X-16976Y104303D01*
X-15150D01*
X-15211Y104291D01*
D02*
G37*
G36*
Y100355D02*
X-15266Y100319D01*
X-15314Y100260D01*
X-15356Y100177D01*
X-15392Y100071D01*
X-15421Y99941D01*
X-15443Y99788D01*
X-15460Y99610D01*
X-15467Y99373D01*
X-15443Y99031D01*
X-15421Y98878D01*
X-15392Y98748D01*
X-15356Y98642D01*
X-15314Y98559D01*
X-15266Y98500D01*
X-15211Y98464D01*
X-15150Y98453D01*
X-16976D01*
X-16915Y98464D01*
X-16860Y98500D01*
X-16812Y98559D01*
X-16770Y98642D01*
X-16734Y98748D01*
X-16705Y98878D01*
X-16683Y99031D01*
X-16666Y99208D01*
X-16659Y99446D01*
X-16683Y99788D01*
X-16705Y99941D01*
X-16734Y100071D01*
X-16770Y100177D01*
X-16812Y100260D01*
X-16860Y100319D01*
X-16915Y100355D01*
X-16976Y100366D01*
X-15150D01*
X-15211Y100355D01*
D02*
G37*
G36*
Y96417D02*
X-15266Y96382D01*
X-15314Y96323D01*
X-15356Y96240D01*
X-15392Y96134D01*
X-15421Y96004D01*
X-15443Y95851D01*
X-15460Y95673D01*
X-15467Y95436D01*
X-15443Y95094D01*
X-15421Y94941D01*
X-15392Y94811D01*
X-15356Y94705D01*
X-15314Y94622D01*
X-15266Y94563D01*
X-15211Y94527D01*
X-15150Y94516D01*
X-16976D01*
X-16915Y94527D01*
X-16860Y94563D01*
X-16812Y94622D01*
X-16770Y94705D01*
X-16734Y94811D01*
X-16705Y94941D01*
X-16683Y95094D01*
X-16666Y95271D01*
X-16659Y95509D01*
X-16683Y95851D01*
X-16705Y96004D01*
X-16734Y96134D01*
X-16770Y96240D01*
X-16812Y96323D01*
X-16860Y96382D01*
X-16915Y96417D01*
X-16976Y96429D01*
X-15150D01*
X-15211Y96417D01*
D02*
G37*
G36*
X-16964Y86038D02*
X-16480Y86048D01*
Y85212D01*
X-16497Y85217D01*
X-16536Y85221D01*
X-16684Y85228D01*
X-16964Y85230D01*
Y84842D01*
X-16972Y84917D01*
X-16996Y84984D01*
X-17036Y85043D01*
X-17092Y85094D01*
X-17164Y85138D01*
X-17252Y85173D01*
X-17343Y85197D01*
X-17378Y85189D01*
X-17459Y85162D01*
X-17536Y85130D01*
X-17608Y85092D01*
X-17677Y85047D01*
X-17741Y84997D01*
X-17801Y84941D01*
Y86319D01*
X-17741Y86263D01*
X-17677Y86213D01*
X-17608Y86168D01*
X-17536Y86130D01*
X-17459Y86097D01*
X-17378Y86071D01*
X-17343Y86063D01*
X-17252Y86087D01*
X-17164Y86122D01*
X-17092Y86165D01*
X-17036Y86216D01*
X-16996Y86276D01*
X-16972Y86343D01*
X-16964Y86417D01*
Y86038D01*
D02*
G37*
G36*
X-15211Y84606D02*
X-15266Y84571D01*
X-15314Y84512D01*
X-15356Y84429D01*
X-15392Y84323D01*
X-15421Y84193D01*
X-15443Y84040D01*
X-15460Y83862D01*
X-15467Y83625D01*
X-15443Y83283D01*
X-15421Y83130D01*
X-15392Y83000D01*
X-15356Y82894D01*
X-15314Y82811D01*
X-15266Y82752D01*
X-15211Y82716D01*
X-15150Y82705D01*
X-16976D01*
X-16915Y82716D01*
X-16860Y82752D01*
X-16812Y82811D01*
X-16770Y82894D01*
X-16734Y83000D01*
X-16705Y83130D01*
X-16683Y83283D01*
X-16666Y83460D01*
X-16659Y83698D01*
X-16683Y84040D01*
X-16705Y84193D01*
X-16734Y84323D01*
X-16770Y84429D01*
X-16812Y84512D01*
X-16860Y84571D01*
X-16915Y84606D01*
X-16976Y84618D01*
X-15150D01*
X-15211Y84606D01*
D02*
G37*
G36*
X-11768Y86343D02*
X-11744Y86276D01*
X-11704Y86216D01*
X-11648Y86165D01*
X-11576Y86122D01*
X-11488Y86087D01*
X-11384Y86059D01*
X-11264Y86039D01*
X-11180Y86032D01*
X-11144Y86035D01*
X-11054Y86050D01*
X-10969Y86071D01*
X-10888Y86097D01*
X-10811Y86130D01*
X-10738Y86168D01*
X-10670Y86213D01*
X-10605Y86263D01*
X-10545Y86319D01*
Y84941D01*
X-10605Y84997D01*
X-10670Y85047D01*
X-10738Y85092D01*
X-10811Y85130D01*
X-10888Y85162D01*
X-10969Y85189D01*
X-11054Y85210D01*
X-11144Y85224D01*
X-11180Y85228D01*
X-11264Y85220D01*
X-11384Y85201D01*
X-11488Y85173D01*
X-11576Y85138D01*
X-11648Y85094D01*
X-11704Y85043D01*
X-11744Y84984D01*
X-11768Y84917D01*
X-11776Y84842D01*
Y86417D01*
X-11768Y86343D01*
D02*
G37*
G36*
X-11965Y84622D02*
X-12032Y84598D01*
X-12091Y84558D01*
X-12142Y84502D01*
X-12185Y84430D01*
X-12220Y84342D01*
X-12248Y84239D01*
X-12268Y84119D01*
X-12280Y83983D01*
X-12284Y83831D01*
X-13071D01*
X-13075Y83983D01*
X-13087Y84119D01*
X-13106Y84239D01*
X-13134Y84342D01*
X-13169Y84430D01*
X-13213Y84502D01*
X-13264Y84558D01*
X-13323Y84598D01*
X-13390Y84622D01*
X-13465Y84630D01*
X-11890D01*
X-11965Y84622D01*
D02*
G37*
G36*
X-12280Y83342D02*
X-12268Y83209D01*
X-12248Y83090D01*
X-12220Y82988D01*
X-12185Y82901D01*
X-12142Y82831D01*
X-12091Y82775D01*
X-12032Y82736D01*
X-11965Y82712D01*
X-11890Y82705D01*
X-13465D01*
X-13390Y82712D01*
X-13323Y82736D01*
X-13264Y82775D01*
X-13213Y82831D01*
X-13169Y82901D01*
X-13134Y82988D01*
X-13106Y83090D01*
X-13087Y83209D01*
X-13075Y83342D01*
X-13071Y83492D01*
X-12284D01*
X-12280Y83342D01*
D02*
G37*
G36*
X24973Y72197D02*
X24961Y72258D01*
X24925Y72313D01*
X24866Y72362D01*
X24784Y72404D01*
X24677Y72439D01*
X24547Y72468D01*
X24394Y72491D01*
X24217Y72507D01*
X23979Y72514D01*
X23638Y72491D01*
X23484Y72468D01*
X23354Y72439D01*
X23248Y72404D01*
X23165Y72362D01*
X23106Y72313D01*
X23071Y72258D01*
X23059Y72197D01*
Y74023D01*
X23071Y73962D01*
X23106Y73907D01*
X23165Y73859D01*
X23248Y73817D01*
X23354Y73781D01*
X23484Y73752D01*
X23638Y73730D01*
X23815Y73714D01*
X24052Y73707D01*
X24394Y73730D01*
X24547Y73752D01*
X24677Y73781D01*
X24784Y73817D01*
X24866Y73859D01*
X24925Y73907D01*
X24961Y73962D01*
X24973Y74023D01*
Y72197D01*
D02*
G37*
G36*
X26760Y72201D02*
X26693Y72177D01*
X26634Y72137D01*
X26583Y72081D01*
X26539Y72009D01*
X26504Y71921D01*
X26476Y71817D01*
X26457Y71697D01*
X26449Y71613D01*
X26453Y71576D01*
X26467Y71487D01*
X26488Y71402D01*
X26515Y71321D01*
X26547Y71244D01*
X26586Y71171D01*
X26630Y71103D01*
X26680Y71039D01*
X26736Y70978D01*
X25358D01*
X25414Y71039D01*
X25465Y71103D01*
X25509Y71171D01*
X25547Y71244D01*
X25580Y71321D01*
X25606Y71402D01*
X25627Y71487D01*
X25642Y71576D01*
X25645Y71613D01*
X25638Y71697D01*
X25618Y71817D01*
X25591Y71921D01*
X25555Y72009D01*
X25512Y72081D01*
X25461Y72137D01*
X25402Y72177D01*
X25335Y72201D01*
X25260Y72209D01*
X26835D01*
X26760Y72201D01*
D02*
G37*
G36*
X6531Y73823D02*
X6555Y73756D01*
X6594Y73697D01*
X6649Y73646D01*
X6720Y73602D01*
X6807Y73567D01*
X6909Y73539D01*
X7027Y73520D01*
X7109Y73513D01*
X7303Y73531D01*
X7406Y73552D01*
X7492Y73580D01*
X7563Y73613D01*
X7618Y73652D01*
X7658Y73698D01*
X7681Y73749D01*
X7689Y73807D01*
X7701Y72323D01*
X7693Y72398D01*
X7668Y72465D01*
X7628Y72524D01*
X7572Y72575D01*
X7500Y72618D01*
X7412Y72654D01*
X7308Y72681D01*
X7188Y72701D01*
X7107Y72708D01*
X7027Y72701D01*
X6909Y72681D01*
X6807Y72654D01*
X6720Y72618D01*
X6649Y72575D01*
X6594Y72524D01*
X6555Y72465D01*
X6531Y72398D01*
X6523Y72323D01*
Y73898D01*
X6531Y73823D01*
D02*
G37*
G36*
X9452Y71670D02*
X9461Y71576D01*
X9475Y71487D01*
X9477Y71481D01*
X9843D01*
X9768Y71473D01*
X9701Y71449D01*
X9642Y71409D01*
X9590Y71353D01*
X9547Y71281D01*
X9543Y71271D01*
X9555Y71244D01*
X9594Y71171D01*
X9638Y71103D01*
X9688Y71039D01*
X9744Y70978D01*
X9466D01*
X9465Y70969D01*
X9453Y70833D01*
X9449Y70681D01*
X8661D01*
X8658Y70833D01*
X8646Y70969D01*
X8644Y70978D01*
X8366D01*
X8422Y71039D01*
X8472Y71103D01*
X8517Y71171D01*
X8555Y71244D01*
X8567Y71271D01*
X8563Y71281D01*
X8520Y71353D01*
X8468Y71409D01*
X8409Y71449D01*
X8343Y71473D01*
X8268Y71481D01*
X8633D01*
X8635Y71487D01*
X8650Y71576D01*
X8659Y71670D01*
X8661Y71768D01*
X9449D01*
X9452Y71670D01*
D02*
G37*
%LPC*%
G36*
X-4902Y135276D02*
X-5827D01*
Y134252D01*
X-4902D01*
Y135276D01*
D02*
G37*
G36*
X-6614D02*
X-7539D01*
Y134252D01*
X-6614D01*
Y135276D01*
D02*
G37*
G36*
X-4902Y133465D02*
X-5827D01*
Y132847D01*
X-5307D01*
X-5331Y132831D01*
X-5353Y132784D01*
X-5371Y132705D01*
X-5388Y132595D01*
X-5400Y132441D01*
X-4902D01*
Y133465D01*
D02*
G37*
G36*
X-6614D02*
X-7539D01*
Y132441D01*
X-7066D01*
X-7088Y132784D01*
X-7110Y132831D01*
X-7134Y132847D01*
X-6614D01*
Y133465D01*
D02*
G37*
G36*
X-4902Y131339D02*
X-5375D01*
X-5353Y130996D01*
X-5331Y130949D01*
X-5307Y130933D01*
X-5827D01*
Y130315D01*
X-4902D01*
Y131339D01*
D02*
G37*
G36*
X-7041D02*
X-7539D01*
Y130315D01*
X-6614D01*
Y130933D01*
X-7134D01*
X-7110Y130949D01*
X-7088Y130996D01*
X-7069Y131075D01*
X-7053Y131185D01*
X-7041Y131339D01*
D02*
G37*
G36*
X-4902Y129528D02*
X-5827D01*
Y128910D01*
X-5307D01*
X-5331Y128894D01*
X-5353Y128847D01*
X-5371Y128768D01*
X-5388Y128658D01*
X-5400Y128504D01*
X-4902D01*
Y129528D01*
D02*
G37*
G36*
X-6614D02*
X-7539D01*
Y128504D01*
X-7066D01*
X-7088Y128847D01*
X-7110Y128894D01*
X-7134Y128910D01*
X-6614D01*
Y129528D01*
D02*
G37*
G36*
X-4902Y127402D02*
X-5375D01*
X-5353Y127059D01*
X-5331Y127012D01*
X-5307Y126996D01*
X-5827D01*
Y126378D01*
X-4902D01*
Y127402D01*
D02*
G37*
G36*
X-7041D02*
X-7539D01*
Y126378D01*
X-6614D01*
Y126996D01*
X-7134D01*
X-7110Y127012D01*
X-7088Y127059D01*
X-7069Y127138D01*
X-7053Y127248D01*
X-7041Y127402D01*
D02*
G37*
G36*
X-4902Y125591D02*
X-5827D01*
Y125428D01*
X-5663D01*
X-5694Y125381D01*
X-5722Y125307D01*
X-5747Y125206D01*
X-5768Y125077D01*
X-5778Y124973D01*
X-5433D01*
X-5508Y124965D01*
X-5575Y124941D01*
X-5634Y124902D01*
X-5685Y124847D01*
X-5728Y124776D01*
X-5764Y124689D01*
X-5774Y124652D01*
X-5753Y124588D01*
X-5744Y124567D01*
X-4902D01*
Y125591D01*
D02*
G37*
G36*
X-6614D02*
X-7539D01*
Y124567D01*
X-6697D01*
X-6688Y124588D01*
X-6667Y124652D01*
X-6677Y124689D01*
X-6713Y124776D01*
X-6756Y124847D01*
X-6807Y124902D01*
X-6866Y124941D01*
X-6933Y124965D01*
X-7008Y124973D01*
X-6679D01*
X-6694Y125206D01*
X-6719Y125307D01*
X-6746Y125381D01*
X-6778Y125428D01*
X-6614D01*
Y125591D01*
D02*
G37*
G36*
X4941Y135276D02*
X4016D01*
Y134252D01*
X4941D01*
Y135276D01*
D02*
G37*
G36*
X3228D02*
X2303D01*
Y134252D01*
X3228D01*
Y135276D01*
D02*
G37*
G36*
X4941Y133465D02*
X4016D01*
Y132847D01*
X4535D01*
X4511Y132831D01*
X4490Y132784D01*
X4471Y132705D01*
X4455Y132595D01*
X4442Y132441D01*
X4941D01*
Y133465D01*
D02*
G37*
G36*
X3228D02*
X2303D01*
Y132441D01*
X2777D01*
X2754Y132784D01*
X2733Y132831D01*
X2709Y132847D01*
X3228D01*
Y133465D01*
D02*
G37*
G36*
X4941Y131339D02*
X4468D01*
X4490Y130996D01*
X4511Y130949D01*
X4535Y130933D01*
X4016D01*
Y130315D01*
X4941D01*
Y131339D01*
D02*
G37*
G36*
X2802D02*
X2303D01*
Y130315D01*
X3228D01*
Y130933D01*
X2709D01*
X2733Y130949D01*
X2754Y130996D01*
X2773Y131075D01*
X2789Y131185D01*
X2802Y131339D01*
D02*
G37*
G36*
X4941Y129528D02*
X4016D01*
Y128910D01*
X4535D01*
X4511Y128894D01*
X4490Y128847D01*
X4471Y128768D01*
X4455Y128658D01*
X4442Y128504D01*
X4941D01*
Y129528D01*
D02*
G37*
G36*
X3228D02*
X2303D01*
Y128504D01*
X2777D01*
X2754Y128847D01*
X2733Y128894D01*
X2709Y128910D01*
X3228D01*
Y129528D01*
D02*
G37*
G36*
X4941Y127402D02*
X4468D01*
X4490Y127059D01*
X4511Y127012D01*
X4535Y126996D01*
X4016D01*
Y126378D01*
X4941D01*
Y127402D01*
D02*
G37*
G36*
X2802D02*
X2303D01*
Y126378D01*
X3228D01*
Y126996D01*
X2709D01*
X2733Y127012D01*
X2754Y127059D01*
X2773Y127138D01*
X2789Y127248D01*
X2802Y127402D01*
D02*
G37*
G36*
X4941Y125591D02*
X4016D01*
Y125428D01*
X4179D01*
X4148Y125381D01*
X4120Y125307D01*
X4096Y125206D01*
X4075Y125077D01*
X4064Y124973D01*
X4409D01*
X4335Y124965D01*
X4268Y124941D01*
X4209Y124902D01*
X4157Y124847D01*
X4114Y124776D01*
X4079Y124689D01*
X4069Y124652D01*
X4090Y124588D01*
X4099Y124567D01*
X4941D01*
Y125591D01*
D02*
G37*
G36*
X3228D02*
X2303D01*
Y124567D01*
X3145D01*
X3154Y124588D01*
X3175Y124652D01*
X3165Y124689D01*
X3130Y124776D01*
X3087Y124847D01*
X3035Y124902D01*
X2976Y124941D01*
X2909Y124965D01*
X2835Y124973D01*
X3164D01*
X3148Y125206D01*
X3124Y125307D01*
X3096Y125381D01*
X3065Y125428D01*
X3228D01*
Y125591D01*
D02*
G37*
G36*
X32697Y29724D02*
X31516D01*
Y27165D01*
X32697D01*
Y29724D01*
D02*
G37*
G36*
X30728D02*
X29547D01*
Y27165D01*
X30728D01*
Y29724D01*
D02*
G37*
G36*
X32697Y26378D02*
X31516D01*
Y23819D01*
X32697D01*
Y26378D01*
D02*
G37*
G36*
X30728D02*
X29547D01*
Y23819D01*
X30728D01*
Y26378D01*
D02*
G37*
G36*
X14193Y29948D02*
X13655Y29841D01*
X13200Y29537D01*
X12895Y29081D01*
X12788Y28543D01*
X12895Y28006D01*
X13184Y27574D01*
X13193Y27549D01*
X13236Y27503D01*
X13263Y27469D01*
X13287Y27432D01*
X13307Y27392D01*
X13326Y27349D01*
X13342Y27300D01*
X13355Y27247D01*
X13255Y27051D01*
X13111Y26868D01*
X13012Y26772D01*
X12421D01*
Y22047D01*
X15965D01*
Y26772D01*
X15374D01*
X15275Y26868D01*
X15130Y27051D01*
X15031Y27247D01*
X15044Y27301D01*
X15060Y27349D01*
X15078Y27392D01*
X15099Y27432D01*
X15123Y27469D01*
X15150Y27503D01*
X15193Y27549D01*
X15202Y27574D01*
X15491Y28006D01*
X15598Y28543D01*
X15491Y29081D01*
X15186Y29537D01*
X14731Y29841D01*
X14193Y29948D01*
D02*
G37*
G36*
X4193D02*
X3655Y29841D01*
X3199Y29537D01*
X2895Y29081D01*
X2788Y28543D01*
X2895Y28006D01*
X3184Y27574D01*
X3193Y27549D01*
X3236Y27503D01*
X3263Y27469D01*
X3287Y27432D01*
X3308Y27392D01*
X3326Y27349D01*
X3342Y27300D01*
X3355Y27247D01*
X3255Y27051D01*
X3111Y26868D01*
X3012Y26772D01*
X2421D01*
Y22047D01*
X5965D01*
Y26772D01*
X5374D01*
X5275Y26868D01*
X5130Y27051D01*
X5031Y27247D01*
X5044Y27301D01*
X5060Y27349D01*
X5078Y27392D01*
X5099Y27432D01*
X5123Y27469D01*
X5150Y27503D01*
X5193Y27549D01*
X5202Y27574D01*
X5491Y28006D01*
X5598Y28543D01*
X5491Y29081D01*
X5186Y29537D01*
X4731Y29841D01*
X4193Y29948D01*
D02*
G37*
G36*
X-5807D02*
X-6345Y29841D01*
X-6801Y29537D01*
X-7105Y29081D01*
X-7212Y28543D01*
X-7105Y28006D01*
X-6816Y27574D01*
X-6807Y27549D01*
X-6764Y27503D01*
X-6737Y27469D01*
X-6713Y27432D01*
X-6692Y27392D01*
X-6674Y27349D01*
X-6658Y27300D01*
X-6645Y27247D01*
X-6745Y27051D01*
X-6889Y26868D01*
X-6989Y26772D01*
X-7579D01*
Y22047D01*
X-4035D01*
Y26772D01*
X-4626D01*
X-4725Y26868D01*
X-4870Y27051D01*
X-4969Y27247D01*
X-4956Y27301D01*
X-4940Y27349D01*
X-4922Y27392D01*
X-4901Y27432D01*
X-4877Y27469D01*
X-4850Y27503D01*
X-4807Y27549D01*
X-4798Y27574D01*
X-4509Y28006D01*
X-4402Y28543D01*
X-4509Y29081D01*
X-4814Y29537D01*
X-5269Y29841D01*
X-5807Y29948D01*
D02*
G37*
G36*
X-15807D02*
X-16345Y29841D01*
X-16801Y29537D01*
X-17105Y29081D01*
X-17212Y28543D01*
X-17105Y28006D01*
X-16816Y27574D01*
X-16807Y27549D01*
X-16764Y27503D01*
X-16737Y27469D01*
X-16713Y27432D01*
X-16692Y27392D01*
X-16674Y27349D01*
X-16658Y27300D01*
X-16645Y27247D01*
X-16745Y27051D01*
X-16890Y26868D01*
X-16988Y26772D01*
X-17579D01*
Y22047D01*
X-14035D01*
Y26772D01*
X-14626D01*
X-14725Y26868D01*
X-14870Y27051D01*
X-14969Y27247D01*
X-14956Y27301D01*
X-14940Y27349D01*
X-14922Y27392D01*
X-14901Y27432D01*
X-14877Y27469D01*
X-14850Y27503D01*
X-14807Y27549D01*
X-14798Y27574D01*
X-14509Y28006D01*
X-14402Y28543D01*
X-14509Y29081D01*
X-14814Y29537D01*
X-15269Y29841D01*
X-15807Y29948D01*
D02*
G37*
G36*
X47697Y29724D02*
X44547D01*
Y24319D01*
X44547Y24303D01*
X44529Y24270D01*
X44531Y24234D01*
X44527Y24225D01*
X44547Y23819D01*
X44774Y23819D01*
X45042Y23413D01*
X45066Y23343D01*
X45065Y23340D01*
X44824Y22979D01*
X44717Y22441D01*
X44824Y21903D01*
X45065Y21542D01*
X45070Y21530D01*
X45070Y21525D01*
X45074Y21517D01*
X45079Y21497D01*
X45083Y21470D01*
X45098Y21248D01*
X45094Y21176D01*
X44932Y20728D01*
X44932D01*
X44932Y20728D01*
X44705Y20728D01*
X44684Y20323D01*
X44690Y20308D01*
X44689Y20260D01*
X44705Y20234D01*
Y18091D01*
X47539D01*
Y20228D01*
X47539Y20234D01*
X47555Y20260D01*
X47554Y20308D01*
X47560Y20323D01*
X47539Y20728D01*
X47312D01*
X47312Y20728D01*
X47312D01*
X47154Y21177D01*
X47144Y21281D01*
X47147Y21336D01*
X47160Y21463D01*
X47166Y21497D01*
X47170Y21517D01*
X47174Y21525D01*
X47175Y21530D01*
X47179Y21542D01*
X47420Y21903D01*
X47527Y22441D01*
X47420Y22979D01*
X47179Y23340D01*
X47178Y23343D01*
X47202Y23413D01*
X47470Y23819D01*
X47697D01*
X47717Y24225D01*
X47713Y24234D01*
X47715Y24270D01*
X47697Y24303D01*
Y29724D01*
D02*
G37*
G36*
X20965Y26772D02*
X17421D01*
Y22047D01*
X17421D01*
X17806Y21547D01*
X17788Y21457D01*
X17833Y21228D01*
X17776Y20728D01*
D01*
X17712Y20256D01*
X17629Y20242D01*
X17522Y20233D01*
X17383Y20229D01*
X17345Y20212D01*
X16041D01*
X16003Y20229D01*
X15867Y20233D01*
X15762Y20242D01*
X15681Y20256D01*
X15625Y20271D01*
X15610Y20277D01*
Y20728D01*
X12776D01*
Y18091D01*
X15610D01*
Y18542D01*
X15625Y18548D01*
X15681Y18563D01*
X15762Y18577D01*
X15867Y18586D01*
X16003Y18590D01*
X16041Y18607D01*
X17345D01*
X17383Y18590D01*
X17522Y18586D01*
X17629Y18577D01*
X17712Y18563D01*
X17771Y18548D01*
X17776Y18546D01*
Y18091D01*
X20610D01*
Y20728D01*
X20610Y20728D01*
X20610D01*
X20552Y21228D01*
X20598Y21457D01*
X20580Y21547D01*
X20965Y22047D01*
X20965D01*
Y26772D01*
D02*
G37*
G36*
X10965D02*
X7421D01*
Y22047D01*
X7421D01*
X7806Y21547D01*
X7788Y21457D01*
X7833Y21228D01*
X7776Y20728D01*
D01*
X7712Y20256D01*
X7629Y20242D01*
X7522Y20233D01*
X7383Y20229D01*
X7345Y20212D01*
X6041D01*
X6003Y20229D01*
X5867Y20233D01*
X5762Y20242D01*
X5681Y20256D01*
X5625Y20271D01*
X5610Y20277D01*
Y20728D01*
X2776D01*
Y18091D01*
X5610D01*
Y18542D01*
X5625Y18548D01*
X5681Y18563D01*
X5762Y18577D01*
X5867Y18586D01*
X6003Y18590D01*
X6041Y18607D01*
X7345D01*
X7383Y18590D01*
X7522Y18586D01*
X7629Y18577D01*
X7712Y18563D01*
X7771Y18548D01*
X7776Y18546D01*
Y18091D01*
X10610D01*
Y20728D01*
X10610Y20728D01*
X10610D01*
X10553Y21228D01*
X10598Y21457D01*
X10580Y21547D01*
X10965Y22047D01*
X10965D01*
Y26772D01*
D02*
G37*
G36*
X965D02*
X-2579D01*
Y22047D01*
X-2579D01*
X-2194Y21547D01*
X-2212Y21457D01*
X-2167Y21228D01*
X-2224Y20728D01*
D01*
X-2288Y20256D01*
X-2371Y20242D01*
X-2478Y20233D01*
X-2617Y20229D01*
X-2655Y20212D01*
X-3959D01*
X-3997Y20229D01*
X-4133Y20233D01*
X-4238Y20242D01*
X-4319Y20256D01*
X-4375Y20271D01*
X-4390Y20277D01*
Y20728D01*
X-7224D01*
Y18091D01*
X-4390D01*
Y18542D01*
X-4375Y18548D01*
X-4319Y18563D01*
X-4238Y18577D01*
X-4133Y18586D01*
X-3997Y18590D01*
X-3959Y18607D01*
X-2655D01*
X-2617Y18590D01*
X-2478Y18586D01*
X-2371Y18577D01*
X-2288Y18563D01*
X-2229Y18548D01*
X-2224Y18546D01*
Y18091D01*
X610D01*
Y20728D01*
X610Y20728D01*
X610D01*
X552Y21228D01*
X598Y21457D01*
X580Y21547D01*
X965Y22047D01*
X965D01*
Y26772D01*
D02*
G37*
G36*
X-9035D02*
X-12579D01*
Y22047D01*
X-12579D01*
X-12194Y21547D01*
X-12212Y21457D01*
X-12167Y21228D01*
X-12224Y20728D01*
D01*
X-12288Y20256D01*
X-12371Y20242D01*
X-12478Y20233D01*
X-12617Y20229D01*
X-12655Y20212D01*
X-13959D01*
X-13997Y20229D01*
X-14133Y20233D01*
X-14238Y20242D01*
X-14319Y20256D01*
X-14375Y20271D01*
X-14390Y20277D01*
Y20728D01*
X-17224D01*
Y18091D01*
X-14390D01*
Y18542D01*
X-14375Y18548D01*
X-14319Y18563D01*
X-14238Y18577D01*
X-14133Y18586D01*
X-13997Y18590D01*
X-13959Y18607D01*
X-12655D01*
X-12617Y18590D01*
X-12478Y18586D01*
X-12371Y18577D01*
X-12288Y18563D01*
X-12229Y18548D01*
X-12224Y18546D01*
Y18091D01*
X-9390D01*
Y20728D01*
X-9390Y20728D01*
X-9390D01*
X-9448Y21228D01*
X-9402Y21457D01*
X-9420Y21547D01*
X-9035Y22047D01*
X-9035D01*
Y26772D01*
D02*
G37*
G36*
X42697Y29724D02*
X39547D01*
Y23819D01*
X40258D01*
X40260Y23814D01*
X40276Y23756D01*
X40290Y23672D01*
X40299Y23565D01*
X40302Y23426D01*
X40319Y23388D01*
Y20952D01*
X40302Y20915D01*
X40300Y20831D01*
X40294Y20765D01*
X40284Y20706D01*
X40271Y20652D01*
X40255Y20604D01*
X40237Y20560D01*
X40216Y20521D01*
X40192Y20484D01*
X40165Y20450D01*
X40122Y20403D01*
X40113Y20379D01*
X39824Y19947D01*
X39717Y19409D01*
X39824Y18872D01*
X40129Y18416D01*
X40584Y18111D01*
X41122Y18004D01*
X41660Y18111D01*
X42116Y18416D01*
X42420Y18872D01*
X42527Y19409D01*
X42420Y19947D01*
X42131Y20379D01*
X42122Y20403D01*
X42079Y20450D01*
X42052Y20484D01*
X42028Y20521D01*
X42007Y20560D01*
X41989Y20604D01*
X41973Y20652D01*
X41960Y20706D01*
X41950Y20765D01*
X41944Y20831D01*
X41942Y20915D01*
X41925Y20952D01*
Y23388D01*
X41942Y23426D01*
X41945Y23565D01*
X41955Y23672D01*
X41968Y23755D01*
X41984Y23814D01*
X41986Y23819D01*
X42697D01*
Y29724D01*
D02*
G37*
G36*
X37697D02*
X34547D01*
Y23819D01*
X35258D01*
X35260Y23814D01*
X35276Y23756D01*
X35289Y23672D01*
X35299Y23565D01*
X35302Y23426D01*
X35319Y23388D01*
Y20952D01*
X35302Y20915D01*
X35300Y20831D01*
X35294Y20765D01*
X35284Y20706D01*
X35271Y20652D01*
X35255Y20604D01*
X35237Y20560D01*
X35216Y20521D01*
X35192Y20484D01*
X35165Y20450D01*
X35122Y20403D01*
X35113Y20379D01*
X34824Y19947D01*
X34717Y19409D01*
X34824Y18872D01*
X35129Y18416D01*
X35584Y18111D01*
X36122Y18004D01*
X36660Y18111D01*
X37115Y18416D01*
X37420Y18872D01*
X37527Y19409D01*
X37420Y19947D01*
X37131Y20379D01*
X37122Y20403D01*
X37079Y20450D01*
X37052Y20484D01*
X37028Y20521D01*
X37007Y20560D01*
X36989Y20604D01*
X36973Y20652D01*
X36960Y20706D01*
X36950Y20765D01*
X36944Y20831D01*
X36942Y20915D01*
X36925Y20952D01*
Y23388D01*
X36942Y23426D01*
X36945Y23565D01*
X36955Y23672D01*
X36968Y23755D01*
X36984Y23814D01*
X36986Y23819D01*
X37697D01*
Y29724D01*
D02*
G37*
G36*
X47539Y17343D02*
X46516D01*
Y16417D01*
X47539D01*
Y17343D01*
D02*
G37*
G36*
X45728D02*
X44705D01*
Y16417D01*
X45728D01*
Y17343D01*
D02*
G37*
G36*
X20610D02*
X19587D01*
Y16417D01*
X20610D01*
Y17343D01*
D02*
G37*
G36*
X15610D02*
X14587D01*
Y16417D01*
X15610D01*
Y17343D01*
D02*
G37*
G36*
X10610D02*
X9587D01*
Y16417D01*
X10610D01*
Y17343D01*
D02*
G37*
G36*
X5610D02*
X4587D01*
Y16417D01*
X5610D01*
Y17343D01*
D02*
G37*
G36*
X610D02*
X-413D01*
Y16417D01*
X610D01*
Y17343D01*
D02*
G37*
G36*
X-4390D02*
X-5413D01*
Y16417D01*
X-4390D01*
Y17343D01*
D02*
G37*
G36*
X-9390D02*
X-10413D01*
Y16417D01*
X-9390D01*
Y17343D01*
D02*
G37*
G36*
X-14390D02*
X-15413D01*
Y16417D01*
X-14390D01*
Y17343D01*
D02*
G37*
G36*
X18799D02*
X17776D01*
Y16417D01*
X18799D01*
Y17343D01*
D02*
G37*
G36*
X13799D02*
X12776D01*
Y16417D01*
X13799D01*
Y17343D01*
D02*
G37*
G36*
X8799D02*
X7776D01*
Y16417D01*
X8799D01*
Y17343D01*
D02*
G37*
G36*
X3799D02*
X2776D01*
Y16417D01*
X3799D01*
Y17343D01*
D02*
G37*
G36*
X-1201D02*
X-2224D01*
Y16417D01*
X-1201D01*
Y17343D01*
D02*
G37*
G36*
X-6201D02*
X-7224D01*
Y16417D01*
X-6201D01*
Y17343D01*
D02*
G37*
G36*
X-11201D02*
X-12224D01*
Y16417D01*
X-11201D01*
Y17343D01*
D02*
G37*
G36*
X-16201D02*
X-17224D01*
Y16417D01*
X-16201D01*
Y17343D01*
D02*
G37*
G36*
X47539Y15630D02*
X46516D01*
Y14705D01*
X47539D01*
Y15630D01*
D02*
G37*
G36*
X45728D02*
X44705D01*
Y14705D01*
X45728D01*
Y15630D01*
D02*
G37*
G36*
X20610Y15630D02*
X19587D01*
Y14705D01*
X20610D01*
Y15630D01*
D02*
G37*
G36*
X18799D02*
X17776D01*
Y14705D01*
X18799D01*
Y15630D01*
D02*
G37*
G36*
X15610D02*
X14587D01*
Y14705D01*
X15610D01*
Y15630D01*
D02*
G37*
G36*
X13799D02*
X12776D01*
Y14705D01*
X13799D01*
Y15630D01*
D02*
G37*
G36*
X10610D02*
X9587D01*
Y14705D01*
X10610D01*
Y15630D01*
D02*
G37*
G36*
X8799D02*
X7776D01*
Y14705D01*
X8799D01*
Y15630D01*
D02*
G37*
G36*
X5610D02*
X4587D01*
Y14705D01*
X5610D01*
Y15630D01*
D02*
G37*
G36*
X3799D02*
X2776D01*
Y14705D01*
X3799D01*
Y15630D01*
D02*
G37*
G36*
X610D02*
X-413D01*
Y14705D01*
X610D01*
Y15630D01*
D02*
G37*
G36*
X-1201D02*
X-2224D01*
Y14705D01*
X-1201D01*
Y15630D01*
D02*
G37*
G36*
X-4390D02*
X-5413D01*
Y14705D01*
X-4390D01*
Y15630D01*
D02*
G37*
G36*
X-6201D02*
X-7224D01*
Y14705D01*
X-6201D01*
Y15630D01*
D02*
G37*
G36*
X-9390D02*
X-10413D01*
Y14705D01*
X-9390D01*
Y15630D01*
D02*
G37*
G36*
X-11201D02*
X-12224D01*
Y14705D01*
X-11201D01*
Y15630D01*
D02*
G37*
G36*
X-14390D02*
X-15413D01*
Y14705D01*
X-14390D01*
Y15630D01*
D02*
G37*
G36*
X-16201D02*
X-17224D01*
Y14705D01*
X-16201D01*
Y15630D01*
D02*
G37*
%LPD*%
G36*
X14826Y27780D02*
X14776Y27716D01*
X14731Y27648D01*
X14693Y27575D01*
X14660Y27498D01*
X14634Y27417D01*
X14613Y27332D01*
X14598Y27242D01*
X14590Y27149D01*
X14588Y27098D01*
X14591Y27002D01*
X14602Y26866D01*
X14622Y26746D01*
X14650Y26642D01*
X14685Y26554D01*
X14728Y26482D01*
X14780Y26426D01*
X14839Y26386D01*
X14906Y26362D01*
X14980Y26354D01*
X13406D01*
X13480Y26362D01*
X13547Y26386D01*
X13606Y26426D01*
X13657Y26482D01*
X13701Y26554D01*
X13736Y26642D01*
X13764Y26746D01*
X13783Y26866D01*
X13795Y27002D01*
X13798Y27098D01*
X13796Y27149D01*
X13787Y27242D01*
X13773Y27332D01*
X13752Y27417D01*
X13725Y27498D01*
X13693Y27575D01*
X13655Y27648D01*
X13610Y27716D01*
X13560Y27780D01*
X13504Y27840D01*
X14882D01*
X14826Y27780D01*
D02*
G37*
G36*
X4826D02*
X4776Y27716D01*
X4731Y27648D01*
X4693Y27575D01*
X4660Y27498D01*
X4634Y27417D01*
X4613Y27332D01*
X4598Y27242D01*
X4590Y27149D01*
X4588Y27098D01*
X4591Y27002D01*
X4602Y26866D01*
X4622Y26746D01*
X4650Y26642D01*
X4685Y26554D01*
X4728Y26482D01*
X4780Y26426D01*
X4839Y26386D01*
X4905Y26362D01*
X4980Y26354D01*
X3405D01*
X3480Y26362D01*
X3547Y26386D01*
X3606Y26426D01*
X3658Y26482D01*
X3701Y26554D01*
X3736Y26642D01*
X3764Y26746D01*
X3783Y26866D01*
X3795Y27002D01*
X3798Y27098D01*
X3796Y27149D01*
X3787Y27242D01*
X3773Y27332D01*
X3752Y27417D01*
X3725Y27498D01*
X3693Y27575D01*
X3655Y27648D01*
X3610Y27716D01*
X3560Y27780D01*
X3504Y27840D01*
X4882D01*
X4826Y27780D01*
D02*
G37*
G36*
X-5174D02*
X-5224Y27716D01*
X-5269Y27648D01*
X-5307Y27575D01*
X-5339Y27498D01*
X-5366Y27417D01*
X-5387Y27332D01*
X-5402Y27242D01*
X-5410Y27149D01*
X-5412Y27098D01*
X-5409Y27002D01*
X-5398Y26866D01*
X-5378Y26746D01*
X-5350Y26642D01*
X-5315Y26554D01*
X-5272Y26482D01*
X-5221Y26426D01*
X-5161Y26386D01*
X-5094Y26362D01*
X-5020Y26354D01*
X-6594D01*
X-6520Y26362D01*
X-6453Y26386D01*
X-6394Y26426D01*
X-6342Y26482D01*
X-6299Y26554D01*
X-6264Y26642D01*
X-6236Y26746D01*
X-6216Y26866D01*
X-6205Y27002D01*
X-6202Y27098D01*
X-6204Y27149D01*
X-6213Y27242D01*
X-6227Y27332D01*
X-6248Y27417D01*
X-6275Y27498D01*
X-6307Y27575D01*
X-6346Y27648D01*
X-6390Y27716D01*
X-6440Y27780D01*
X-6496Y27840D01*
X-5118D01*
X-5174Y27780D01*
D02*
G37*
G36*
X-15174D02*
X-15224Y27716D01*
X-15269Y27648D01*
X-15307Y27575D01*
X-15339Y27498D01*
X-15366Y27417D01*
X-15387Y27332D01*
X-15402Y27242D01*
X-15410Y27149D01*
X-15412Y27098D01*
X-15409Y27002D01*
X-15398Y26866D01*
X-15378Y26746D01*
X-15350Y26642D01*
X-15315Y26554D01*
X-15272Y26482D01*
X-15221Y26426D01*
X-15161Y26386D01*
X-15094Y26362D01*
X-15020Y26354D01*
X-16594D01*
X-16520Y26362D01*
X-16453Y26386D01*
X-16394Y26426D01*
X-16342Y26482D01*
X-16299Y26554D01*
X-16264Y26642D01*
X-16236Y26746D01*
X-16217Y26866D01*
X-16205Y27002D01*
X-16202Y27098D01*
X-16204Y27149D01*
X-16213Y27242D01*
X-16227Y27332D01*
X-16248Y27417D01*
X-16275Y27498D01*
X-16307Y27575D01*
X-16345Y27648D01*
X-16390Y27716D01*
X-16440Y27780D01*
X-16496Y27840D01*
X-15118D01*
X-15174Y27780D01*
D02*
G37*
G36*
X47181Y24213D02*
X47083Y24177D01*
X46996Y24118D01*
X46921Y24036D01*
X46857Y23929D01*
X46805Y23799D01*
X46765Y23646D01*
X46736Y23469D01*
X46733Y23431D01*
X46737Y23361D01*
X46748Y23298D01*
X46761Y23245D01*
X46776Y23202D01*
X46792Y23168D01*
X46811Y23144D01*
X46715D01*
X46713Y23043D01*
X45531D01*
X45529Y23144D01*
X45433D01*
X45452Y23168D01*
X45469Y23202D01*
X45483Y23245D01*
X45496Y23298D01*
X45507Y23361D01*
X45513Y23418D01*
X45508Y23469D01*
X45479Y23646D01*
X45439Y23799D01*
X45387Y23929D01*
X45323Y24036D01*
X45248Y24118D01*
X45161Y24177D01*
X45063Y24213D01*
X44953Y24225D01*
X47291D01*
X47181Y24213D01*
D02*
G37*
G36*
X46792Y21714D02*
X46776Y21680D01*
X46761Y21637D01*
X46748Y21584D01*
X46737Y21521D01*
X46722Y21367D01*
X46718Y21271D01*
X46751Y20901D01*
X46780Y20748D01*
X46818Y20618D01*
X46864Y20512D01*
X46919Y20429D01*
X46982Y20370D01*
X47054Y20335D01*
X47134Y20323D01*
X45110D01*
X45190Y20335D01*
X45262Y20370D01*
X45325Y20429D01*
X45380Y20512D01*
X45426Y20618D01*
X45464Y20748D01*
X45494Y20901D01*
X45515Y21079D01*
X45525Y21249D01*
X45507Y21521D01*
X45496Y21584D01*
X45483Y21637D01*
X45469Y21680D01*
X45452Y21714D01*
X45433Y21738D01*
X46811D01*
X46792Y21714D01*
D02*
G37*
G36*
X19590Y22851D02*
X19598Y22758D01*
X19613Y22668D01*
X19634Y22583D01*
X19660Y22502D01*
X19681Y22453D01*
X19980D01*
X19906Y22445D01*
X19839Y22421D01*
X19780Y22382D01*
X19740Y22339D01*
X19776Y22284D01*
X19826Y22220D01*
X19882Y22160D01*
X19647D01*
X19622Y22067D01*
X19602Y21949D01*
X19591Y21815D01*
X19587Y21666D01*
X18799D01*
X18795Y21815D01*
X18783Y21949D01*
X18764Y22067D01*
X18739Y22160D01*
X18504D01*
X18560Y22220D01*
X18610Y22284D01*
X18646Y22339D01*
X18606Y22382D01*
X18547Y22421D01*
X18480Y22445D01*
X18406Y22453D01*
X18705D01*
X18725Y22502D01*
X18752Y22583D01*
X18773Y22668D01*
X18787Y22758D01*
X18796Y22851D01*
X18799Y22949D01*
X19587D01*
X19590Y22851D01*
D02*
G37*
G36*
X19591Y20958D02*
X19602Y20822D01*
X19614Y20754D01*
X19882D01*
X19826Y20694D01*
X19776Y20630D01*
X19731Y20561D01*
X19695Y20493D01*
X19728Y20438D01*
X19780Y20383D01*
X19839Y20343D01*
X19906Y20319D01*
X19980Y20311D01*
X19629D01*
X19613Y20245D01*
X19598Y20156D01*
X19590Y20062D01*
X19587Y19964D01*
X18799D01*
X18796Y20062D01*
X18787Y20156D01*
X18773Y20245D01*
X18757Y20311D01*
X18406D01*
X18480Y20319D01*
X18547Y20343D01*
X18606Y20383D01*
X18657Y20438D01*
X18690Y20493D01*
X18655Y20561D01*
X18610Y20630D01*
X18560Y20694D01*
X18504Y20754D01*
X18772D01*
X18783Y20822D01*
X18795Y20958D01*
X18799Y21110D01*
X19587D01*
X19591Y20958D01*
D02*
G37*
G36*
X18193Y18622D02*
X18185Y18697D01*
X18161Y18764D01*
X18121Y18823D01*
X18065Y18874D01*
X17993Y18917D01*
X17906Y18953D01*
X17802Y18980D01*
X17682Y19000D01*
X17546Y19012D01*
X17394Y19016D01*
Y19803D01*
X17546Y19807D01*
X17682Y19819D01*
X17802Y19839D01*
X17906Y19866D01*
X17993Y19902D01*
X18065Y19945D01*
X18121Y19996D01*
X18161Y20055D01*
X18185Y20122D01*
X18193Y20197D01*
Y18622D01*
D02*
G37*
G36*
X15212Y20122D02*
X15236Y20055D01*
X15275Y19996D01*
X15330Y19945D01*
X15401Y19902D01*
X15488Y19866D01*
X15590Y19839D01*
X15709Y19819D01*
X15842Y19807D01*
X15992Y19803D01*
Y19016D01*
X15842Y19012D01*
X15709Y19000D01*
X15590Y18980D01*
X15488Y18953D01*
X15401Y18917D01*
X15330Y18874D01*
X15275Y18823D01*
X15236Y18764D01*
X15212Y18697D01*
X15204Y18622D01*
Y20197D01*
X15212Y20122D01*
D02*
G37*
G36*
X9590Y22851D02*
X9598Y22758D01*
X9613Y22668D01*
X9634Y22583D01*
X9661Y22502D01*
X9681Y22453D01*
X9980D01*
X9905Y22445D01*
X9839Y22421D01*
X9780Y22382D01*
X9740Y22339D01*
X9776Y22284D01*
X9826Y22220D01*
X9882Y22160D01*
X9647D01*
X9622Y22067D01*
X9602Y21949D01*
X9591Y21815D01*
X9587Y21666D01*
X8799D01*
X8795Y21815D01*
X8783Y21949D01*
X8764Y22067D01*
X8739Y22160D01*
X8504D01*
X8560Y22220D01*
X8610Y22284D01*
X8646Y22339D01*
X8606Y22382D01*
X8547Y22421D01*
X8480Y22445D01*
X8405Y22453D01*
X8705D01*
X8725Y22502D01*
X8752Y22583D01*
X8773Y22668D01*
X8787Y22758D01*
X8796Y22851D01*
X8799Y22949D01*
X9587D01*
X9590Y22851D01*
D02*
G37*
G36*
X9591Y20958D02*
X9602Y20822D01*
X9614Y20754D01*
X9882D01*
X9826Y20694D01*
X9776Y20630D01*
X9731Y20561D01*
X9695Y20493D01*
X9728Y20438D01*
X9780Y20383D01*
X9839Y20343D01*
X9905Y20319D01*
X9980Y20311D01*
X9629D01*
X9613Y20245D01*
X9598Y20156D01*
X9590Y20062D01*
X9587Y19964D01*
X8799D01*
X8796Y20062D01*
X8787Y20156D01*
X8773Y20245D01*
X8757Y20311D01*
X8405D01*
X8480Y20319D01*
X8547Y20343D01*
X8606Y20383D01*
X8658Y20438D01*
X8690Y20493D01*
X8655Y20561D01*
X8610Y20630D01*
X8560Y20694D01*
X8504Y20754D01*
X8772D01*
X8783Y20822D01*
X8795Y20958D01*
X8799Y21110D01*
X9587D01*
X9591Y20958D01*
D02*
G37*
G36*
X8193Y18622D02*
X8185Y18697D01*
X8161Y18764D01*
X8121Y18823D01*
X8065Y18874D01*
X7993Y18917D01*
X7905Y18953D01*
X7802Y18980D01*
X7682Y19000D01*
X7546Y19012D01*
X7394Y19016D01*
Y19803D01*
X7546Y19807D01*
X7682Y19819D01*
X7802Y19839D01*
X7905Y19866D01*
X7993Y19902D01*
X8065Y19945D01*
X8121Y19996D01*
X8161Y20055D01*
X8185Y20122D01*
X8193Y20197D01*
Y18622D01*
D02*
G37*
G36*
X5212Y20122D02*
X5236Y20055D01*
X5275Y19996D01*
X5331Y19945D01*
X5401Y19902D01*
X5488Y19866D01*
X5590Y19839D01*
X5708Y19819D01*
X5842Y19807D01*
X5992Y19803D01*
Y19016D01*
X5842Y19012D01*
X5708Y19000D01*
X5590Y18980D01*
X5488Y18953D01*
X5401Y18917D01*
X5331Y18874D01*
X5275Y18823D01*
X5236Y18764D01*
X5212Y18697D01*
X5204Y18622D01*
Y20197D01*
X5212Y20122D01*
D02*
G37*
G36*
X-410Y22851D02*
X-402Y22758D01*
X-387Y22668D01*
X-366Y22583D01*
X-340Y22502D01*
X-319Y22453D01*
X-20D01*
X-94Y22445D01*
X-161Y22421D01*
X-220Y22382D01*
X-260Y22339D01*
X-224Y22284D01*
X-174Y22220D01*
X-118Y22160D01*
X-353D01*
X-378Y22067D01*
X-398Y21949D01*
X-409Y21815D01*
X-413Y21666D01*
X-1201D01*
X-1205Y21815D01*
X-1216Y21949D01*
X-1236Y22067D01*
X-1261Y22160D01*
X-1496D01*
X-1440Y22220D01*
X-1390Y22284D01*
X-1354Y22339D01*
X-1394Y22382D01*
X-1453Y22421D01*
X-1520Y22445D01*
X-1595Y22453D01*
X-1295D01*
X-1275Y22502D01*
X-1248Y22583D01*
X-1227Y22668D01*
X-1213Y22758D01*
X-1204Y22851D01*
X-1201Y22949D01*
X-413D01*
X-410Y22851D01*
D02*
G37*
G36*
X-409Y20958D02*
X-398Y20822D01*
X-386Y20754D01*
X-118D01*
X-174Y20694D01*
X-224Y20630D01*
X-269Y20561D01*
X-305Y20493D01*
X-272Y20438D01*
X-220Y20383D01*
X-161Y20343D01*
X-94Y20319D01*
X-20Y20311D01*
X-371D01*
X-387Y20245D01*
X-402Y20156D01*
X-410Y20062D01*
X-413Y19964D01*
X-1201D01*
X-1204Y20062D01*
X-1213Y20156D01*
X-1227Y20245D01*
X-1243Y20311D01*
X-1595D01*
X-1520Y20319D01*
X-1453Y20343D01*
X-1394Y20383D01*
X-1343Y20438D01*
X-1310Y20493D01*
X-1345Y20561D01*
X-1390Y20630D01*
X-1440Y20694D01*
X-1496Y20754D01*
X-1228D01*
X-1216Y20822D01*
X-1205Y20958D01*
X-1201Y21110D01*
X-413D01*
X-409Y20958D01*
D02*
G37*
G36*
X-1807Y18622D02*
X-1815Y18697D01*
X-1839Y18764D01*
X-1879Y18823D01*
X-1935Y18874D01*
X-2007Y18917D01*
X-2094Y18953D01*
X-2198Y18980D01*
X-2318Y19000D01*
X-2454Y19012D01*
X-2606Y19016D01*
Y19803D01*
X-2454Y19807D01*
X-2318Y19819D01*
X-2198Y19839D01*
X-2094Y19866D01*
X-2007Y19902D01*
X-1935Y19945D01*
X-1879Y19996D01*
X-1839Y20055D01*
X-1815Y20122D01*
X-1807Y20197D01*
Y18622D01*
D02*
G37*
G36*
X-4788Y20122D02*
X-4764Y20055D01*
X-4725Y19996D01*
X-4670Y19945D01*
X-4599Y19902D01*
X-4512Y19866D01*
X-4410Y19839D01*
X-4292Y19819D01*
X-4158Y19807D01*
X-4008Y19803D01*
Y19016D01*
X-4158Y19012D01*
X-4292Y19000D01*
X-4410Y18980D01*
X-4512Y18953D01*
X-4599Y18917D01*
X-4670Y18874D01*
X-4725Y18823D01*
X-4764Y18764D01*
X-4788Y18697D01*
X-4795Y18622D01*
Y20197D01*
X-4788Y20122D01*
D02*
G37*
G36*
X-10410Y22851D02*
X-10402Y22758D01*
X-10387Y22668D01*
X-10366Y22583D01*
X-10340Y22502D01*
X-10319Y22453D01*
X-10020D01*
X-10095Y22445D01*
X-10161Y22421D01*
X-10220Y22382D01*
X-10260Y22339D01*
X-10224Y22284D01*
X-10174Y22220D01*
X-10118Y22160D01*
X-10353D01*
X-10378Y22067D01*
X-10398Y21949D01*
X-10409Y21815D01*
X-10413Y21666D01*
X-11201D01*
X-11205Y21815D01*
X-11216Y21949D01*
X-11236Y22067D01*
X-11261Y22160D01*
X-11496D01*
X-11440Y22220D01*
X-11390Y22284D01*
X-11354Y22339D01*
X-11394Y22382D01*
X-11453Y22421D01*
X-11520Y22445D01*
X-11594Y22453D01*
X-11295D01*
X-11275Y22502D01*
X-11248Y22583D01*
X-11227Y22668D01*
X-11213Y22758D01*
X-11204Y22851D01*
X-11201Y22949D01*
X-10413D01*
X-10410Y22851D01*
D02*
G37*
G36*
X-10409Y20958D02*
X-10398Y20822D01*
X-10386Y20754D01*
X-10118D01*
X-10174Y20694D01*
X-10224Y20630D01*
X-10269Y20561D01*
X-10305Y20493D01*
X-10272Y20438D01*
X-10220Y20383D01*
X-10161Y20343D01*
X-10095Y20319D01*
X-10020Y20311D01*
X-10371D01*
X-10387Y20245D01*
X-10402Y20156D01*
X-10410Y20062D01*
X-10413Y19964D01*
X-11201D01*
X-11204Y20062D01*
X-11213Y20156D01*
X-11227Y20245D01*
X-11243Y20311D01*
X-11594D01*
X-11520Y20319D01*
X-11453Y20343D01*
X-11394Y20383D01*
X-11343Y20438D01*
X-11310Y20493D01*
X-11345Y20561D01*
X-11390Y20630D01*
X-11440Y20694D01*
X-11496Y20754D01*
X-11228D01*
X-11216Y20822D01*
X-11205Y20958D01*
X-11201Y21110D01*
X-10413D01*
X-10409Y20958D01*
D02*
G37*
G36*
X-11807Y18622D02*
X-11815Y18697D01*
X-11839Y18764D01*
X-11879Y18823D01*
X-11935Y18874D01*
X-12007Y18917D01*
X-12094Y18953D01*
X-12198Y18980D01*
X-12318Y19000D01*
X-12454Y19012D01*
X-12606Y19016D01*
Y19803D01*
X-12454Y19807D01*
X-12318Y19819D01*
X-12198Y19839D01*
X-12094Y19866D01*
X-12007Y19902D01*
X-11935Y19945D01*
X-11879Y19996D01*
X-11839Y20055D01*
X-11815Y20122D01*
X-11807Y20197D01*
Y18622D01*
D02*
G37*
G36*
X-14788Y20122D02*
X-14764Y20055D01*
X-14725Y19996D01*
X-14670Y19945D01*
X-14599Y19902D01*
X-14512Y19866D01*
X-14410Y19839D01*
X-14291Y19819D01*
X-14158Y19807D01*
X-14008Y19803D01*
Y19016D01*
X-14158Y19012D01*
X-14291Y19000D01*
X-14410Y18980D01*
X-14512Y18953D01*
X-14599Y18917D01*
X-14670Y18874D01*
X-14725Y18823D01*
X-14764Y18764D01*
X-14788Y18697D01*
X-14796Y18622D01*
Y20197D01*
X-14788Y20122D01*
D02*
G37*
G36*
X41835Y24229D02*
X41768Y24205D01*
X41709Y24165D01*
X41658Y24109D01*
X41614Y24037D01*
X41579Y23949D01*
X41551Y23845D01*
X41532Y23725D01*
X41520Y23589D01*
X41516Y23437D01*
X40728D01*
X40724Y23589D01*
X40713Y23725D01*
X40693Y23845D01*
X40665Y23949D01*
X40630Y24037D01*
X40587Y24109D01*
X40535Y24165D01*
X40476Y24205D01*
X40409Y24229D01*
X40335Y24237D01*
X41909D01*
X41835Y24229D01*
D02*
G37*
G36*
X41519Y20804D02*
X41528Y20710D01*
X41542Y20621D01*
X41563Y20536D01*
X41590Y20455D01*
X41622Y20378D01*
X41660Y20305D01*
X41705Y20236D01*
X41755Y20172D01*
X41811Y20112D01*
X40433D01*
X40489Y20172D01*
X40539Y20236D01*
X40584Y20305D01*
X40622Y20378D01*
X40655Y20455D01*
X40681Y20536D01*
X40702Y20621D01*
X40716Y20710D01*
X40725Y20804D01*
X40728Y20902D01*
X41516D01*
X41519Y20804D01*
D02*
G37*
G36*
X36835Y24229D02*
X36768Y24205D01*
X36709Y24165D01*
X36658Y24109D01*
X36614Y24037D01*
X36579Y23949D01*
X36551Y23845D01*
X36531Y23725D01*
X36520Y23589D01*
X36516Y23437D01*
X35728D01*
X35724Y23589D01*
X35713Y23725D01*
X35693Y23845D01*
X35665Y23949D01*
X35630Y24037D01*
X35587Y24109D01*
X35535Y24165D01*
X35476Y24205D01*
X35409Y24229D01*
X35335Y24237D01*
X36909D01*
X36835Y24229D01*
D02*
G37*
G36*
X36519Y20804D02*
X36528Y20710D01*
X36542Y20621D01*
X36563Y20536D01*
X36590Y20455D01*
X36622Y20378D01*
X36660Y20305D01*
X36705Y20236D01*
X36755Y20172D01*
X36811Y20112D01*
X35433D01*
X35489Y20172D01*
X35539Y20236D01*
X35584Y20305D01*
X35622Y20378D01*
X35655Y20455D01*
X35681Y20536D01*
X35702Y20621D01*
X35717Y20710D01*
X35725Y20804D01*
X35728Y20902D01*
X36516D01*
X36519Y20804D01*
D02*
G37*
D10*
X14567Y76968D02*
X15039Y76496D01*
X18110D01*
X8583Y73110D02*
X9055Y72638D01*
X5512Y73110D02*
X8583D01*
X3622Y123543D02*
Y125984D01*
X-6221Y123543D02*
Y125984D01*
X14193Y19410D02*
X19193D01*
X-5807D02*
X-807D01*
X-5807Y58780D02*
X-807D01*
X41122Y58780D02*
X46122D01*
X-12676Y93503D02*
X-6102D01*
X-2165Y97441D02*
X5709D01*
X19193Y21457D02*
Y25000D01*
X-12677Y105315D02*
X-6103D01*
X36418Y105315D02*
X42992D01*
X25984Y76496D02*
Y83070D01*
X14193Y51968D02*
Y55394D01*
Y58780D02*
X19193D01*
X-5807Y51968D02*
Y55394D01*
X14193Y25000D02*
Y28543D01*
X46378Y87126D02*
Y89567D01*
X26047Y70276D02*
Y73110D01*
X46122Y52756D02*
Y55394D01*
Y48031D02*
Y52756D01*
X-10807Y21457D02*
Y25000D01*
Y19410D02*
Y21457D01*
X-807D02*
Y25000D01*
Y19410D02*
Y21457D01*
X9193D02*
Y25000D01*
Y19410D02*
Y21457D01*
X19193Y19410D02*
Y21457D01*
X-9843Y101378D02*
X5709D01*
X-12677D02*
X-9843D01*
X41122Y19409D02*
Y26772D01*
X36122Y19409D02*
Y26772D01*
X41122Y48031D02*
Y55394D01*
X36122Y48031D02*
Y55394D01*
X31122Y48031D02*
Y55394D01*
X19193Y51968D02*
Y55394D01*
X4193Y58780D02*
X9193D01*
Y51968D02*
Y55394D01*
X-807Y51968D02*
Y55394D01*
X-10807Y51968D02*
Y55394D01*
X-15807Y58780D02*
X-10807D01*
X4193Y25000D02*
Y28543D01*
X-5807Y25000D02*
Y28543D01*
X-15807Y25000D02*
Y28543D01*
X-18504Y85630D02*
X-16063D01*
X-18504Y105315D02*
X-16063D01*
X-18504Y113189D02*
X-16063D01*
X10236Y92913D02*
X12205D01*
Y88976D02*
Y92913D01*
X9055Y70276D02*
Y72638D01*
X18110Y76496D02*
Y79331D01*
X7008Y124193D02*
X8201Y123000D01*
X-2835Y122224D02*
X-1642Y121031D01*
X-12677Y120256D02*
X-11484Y119063D01*
X-12677Y120256D02*
Y125984D01*
X-2835Y122224D02*
Y125984D01*
X7008Y124193D02*
Y125984D01*
X-11484Y119063D02*
X6921D01*
X-1642Y121031D02*
X8889D01*
X8201Y123000D02*
X10858D01*
X6921Y119063D02*
X8268Y117716D01*
X8889Y121031D02*
X10236Y119685D01*
X10858Y123000D02*
X12205Y121653D01*
X45185Y119063D02*
X46378Y120256D01*
X35342Y121031D02*
X36535Y122224D01*
X20079Y117716D02*
X21426Y119063D01*
X45185D01*
X46378Y120256D02*
Y125984D01*
X18110Y119685D02*
X19457Y121031D01*
X35342D01*
X36535Y122224D02*
Y125984D01*
X25500Y123000D02*
X26693Y124193D01*
Y125984D01*
X17489Y123000D02*
X25500D01*
X16142Y121653D02*
X17489Y123000D01*
X20079Y111811D02*
Y117716D01*
X18110Y111811D02*
Y119685D01*
X16142Y111811D02*
Y121653D01*
X12205Y111811D02*
Y121653D01*
X10236Y111811D02*
Y119685D01*
X8268Y111811D02*
Y117716D01*
X22047Y76496D02*
Y83070D01*
X20079Y85039D02*
X22047Y83070D01*
X24606Y97441D02*
X32480D01*
X36418Y93504D02*
X42992D01*
X32480Y97441D02*
X36418Y93504D01*
X20079Y85039D02*
Y92913D01*
X22047Y87008D02*
X25984Y83070D01*
X22047Y87008D02*
Y92913D01*
X-12677Y81693D02*
Y85630D01*
X-9843D01*
X-18504Y109252D02*
X-16063D01*
X10000Y82500D02*
X14173Y86673D01*
Y92913D01*
X10000Y77756D02*
Y82500D01*
X9055Y76968D02*
X9213D01*
X10000Y77756D01*
X12565Y74443D02*
X14370Y72638D01*
X12000Y75000D02*
X12557Y74443D01*
X14370Y72638D02*
X14567D01*
X12557Y74443D02*
X12565D01*
X12000Y75000D02*
Y81500D01*
X16142Y85642D01*
Y92913D01*
X8268Y88976D02*
Y92913D01*
X1772Y95472D02*
X5709D01*
X1772Y107283D02*
X5709D01*
X24606Y109252D02*
X28543D01*
X-6102Y93503D02*
X-2165Y97441D01*
X-12677Y97440D02*
X-6103D01*
X-4134Y99409D01*
X5709D01*
X-2165Y105315D02*
X5709D01*
X-6103Y109252D02*
X-2165Y105315D01*
X-12677Y109252D02*
X-6103D01*
Y105315D02*
X-4134Y103346D01*
X5709D01*
X30512Y95473D02*
X36418Y89567D01*
X34449Y99410D02*
X36418Y97441D01*
X36418Y89567D02*
X42992D01*
X36418Y97441D02*
X42992D01*
X24606Y95472D02*
X30512D01*
X24606Y99409D02*
X34449D01*
X30512Y107283D02*
X36418Y113189D01*
X32480Y105315D02*
X36418Y109252D01*
X36418Y113189D02*
X42992D01*
X36418Y109252D02*
X42992D01*
X34449Y103346D02*
X36418Y105315D01*
X24606Y101378D02*
X42992D01*
X42992Y101378D01*
X24606Y103346D02*
X34449D01*
X24606Y105315D02*
X32480D01*
X24606Y107283D02*
X30512D01*
X19193Y25000D02*
X19193Y25000D01*
X9193Y25000D02*
X9193Y25000D01*
X4193Y19410D02*
X9193D01*
X-807Y25000D02*
X-807Y25000D01*
X-15807Y19410D02*
X-10807D01*
X-10807Y25000D02*
X-10807Y25000D01*
X4193Y51968D02*
Y55394D01*
X-15807Y51968D02*
Y55394D01*
X5748Y76732D02*
X8819D01*
X14803Y72874D02*
X17874D01*
D11*
X68898Y-197D02*
G03*
X65748Y-3347I0J-3150D01*
G01*
X-35433D02*
G03*
X-38583Y-197I-3150J0D01*
G01*
X2953Y0D02*
G03*
X-2953Y0I-2953J0D01*
G01*
X68898Y-197D02*
G03*
X65748Y-3347I0J-3150D01*
G01*
X-35433D02*
G03*
X-38583Y-197I-3150J0D01*
G01*
X2953Y0D02*
G03*
X-2953Y0I-2953J0D01*
G01*
X-35433Y-12795D02*
X-2953D01*
X65748D02*
Y-3347D01*
X68898Y-197D02*
X74213D01*
X-43898D02*
X-38583D01*
X2953Y-12795D02*
Y0D01*
X-2953Y-12795D02*
Y0D01*
X-35433Y-12795D02*
Y-3347D01*
X2953Y-12795D02*
X65748D01*
X-43898Y187795D02*
X74213D01*
X-35433Y-12795D02*
Y-3347D01*
X74213Y-197D02*
Y187795D01*
X-2953Y-12795D02*
Y0D01*
X65748Y-12795D02*
Y-3347D01*
X2953Y-12795D02*
Y0D01*
X-35433Y-12795D02*
X-2953D01*
X2953D02*
X65748D01*
X68898Y-197D02*
X74213D01*
X-43898D02*
X-38583D01*
X-43898D02*
Y187795D01*
D13*
X3557Y90762D02*
X26757D01*
X3557Y113962D02*
X26757D01*
X3557Y90762D02*
Y113962D01*
X26757Y90762D02*
Y113962D01*
X15157Y101181D02*
Y103543D01*
X13976Y102362D02*
X16339D01*
X3557Y113962D02*
X26757D01*
Y90762D02*
Y113962D01*
X3557Y90762D02*
X26757D01*
X3557D02*
Y113962D01*
D14*
X-1181Y10433D02*
X31496D01*
Y60433D01*
X-1181D02*
X31496D01*
X-1181Y10433D02*
Y60433D01*
X-12905Y113189D02*
X-9953D01*
Y119095D01*
X-12905Y113189D02*
Y119095D01*
X-9953D01*
X-17906Y113189D02*
X-14953D01*
Y119095D01*
X-17906Y113189D02*
Y119095D01*
X-14953D01*
X22724Y80709D02*
Y112205D01*
X-20583Y80709D02*
Y112205D01*
X22724D01*
X-20583Y80709D02*
X22724D01*
X17095Y73819D02*
X20047D01*
Y79724D01*
X17095Y73819D02*
Y79724D01*
X20047D01*
X7095Y73819D02*
X10047D01*
Y79724D01*
X7095Y73819D02*
Y79724D01*
X10047D01*
X-2905Y73819D02*
X47D01*
Y79724D01*
X-2905Y73819D02*
Y79724D01*
X47D01*
X-17906D02*
X-14953D01*
X-17906Y73819D02*
Y79724D01*
X-14953Y73819D02*
Y79724D01*
X-17906Y73819D02*
X-14953D01*
X58465Y141732D02*
Y190945D01*
X-28150Y141732D02*
Y190945D01*
Y141732D02*
X58465D01*
X-28150Y190945D02*
X58465D01*
X39591Y130709D02*
Y137008D01*
Y130709D02*
X50614D01*
X39591Y137008D02*
X50614D01*
Y130709D02*
Y137008D01*
X42150Y126476D02*
Y129429D01*
X48055Y126476D02*
Y129429D01*
X42150Y126476D02*
X48055D01*
X42150Y129429D02*
X48055D01*
X9646Y130709D02*
Y137008D01*
Y130709D02*
X20669D01*
X9646Y137008D02*
X20669D01*
Y130709D02*
Y137008D01*
X12205Y126476D02*
Y129429D01*
X18110Y126476D02*
Y129429D01*
X12205Y126476D02*
X18110D01*
X12205Y129429D02*
X18110D01*
X-19882Y130709D02*
Y137008D01*
Y130709D02*
X-8858D01*
X-19882Y137008D02*
X-8858D01*
Y130709D02*
Y137008D01*
X-17323Y126476D02*
Y129429D01*
X-11417Y126476D02*
Y129429D01*
X-17323Y126476D02*
X-11417D01*
X-17323Y129429D02*
X-11417D01*
X32791Y78445D02*
Y81398D01*
X38697Y78445D02*
Y81398D01*
X32791Y78445D02*
X38697D01*
X32791Y81398D02*
X38697D01*
X46571Y78445D02*
Y81398D01*
X40665D02*
X46571D01*
X40665Y78445D02*
X46571D01*
X40665D02*
Y81398D01*
X-11417Y111713D02*
Y114665D01*
X-17323Y111713D02*
X-11417D01*
X-17323Y114665D02*
X-11417D01*
X-17323Y111713D02*
Y114665D01*
X-17323Y107776D02*
Y110728D01*
X-11417D01*
X-17323Y107776D02*
X-11417D01*
Y110728D01*
Y92028D02*
Y94980D01*
X-17323Y92028D02*
X-11417D01*
X-17323Y94980D02*
X-11417D01*
X-17323Y92028D02*
Y94980D01*
X41732Y107776D02*
Y110728D01*
X47638D01*
X41732Y107776D02*
X47638D01*
Y110728D01*
X41732Y95965D02*
Y98917D01*
X47638D01*
X41732Y95965D02*
X47638D01*
Y98917D01*
X-17284Y54134D02*
X-14331D01*
X-17284D02*
Y60039D01*
X-14331Y54134D02*
Y60039D01*
X-17284D02*
X-14331D01*
X-7283Y54134D02*
X-4331D01*
X-7283D02*
Y60039D01*
X-4331Y54134D02*
Y60039D01*
X-7283D02*
X-4331D01*
X2716Y54134D02*
X5669D01*
X2716D02*
Y60039D01*
X5669Y54134D02*
Y60039D01*
X2716D02*
X5669D01*
X12717Y54134D02*
X15669D01*
X12717D02*
Y60039D01*
X15669Y54134D02*
Y60039D01*
X12717D02*
X15669D01*
X-17284Y14764D02*
X-14331D01*
X-17284D02*
Y20669D01*
X-14331Y14764D02*
Y20669D01*
X-17284D02*
X-14331D01*
X-7283Y14764D02*
X-4331D01*
X-7283D02*
Y20669D01*
X-4331Y14764D02*
Y20669D01*
X-7283D02*
X-4331D01*
X2716Y14764D02*
X5669D01*
X2716D02*
Y20669D01*
X5669Y14764D02*
Y20669D01*
X2716D02*
X5669D01*
X12717Y14764D02*
X15669D01*
X12717D02*
Y20669D01*
X15669Y14764D02*
Y20669D01*
X12717D02*
X15669D01*
X41732Y143815D02*
Y146768D01*
X47638D01*
X41732Y143815D02*
X47638D01*
Y146768D01*
X27953Y140256D02*
Y143209D01*
X22047Y140256D02*
X27953D01*
X22047Y143209D02*
X27953D01*
X22047Y140256D02*
Y143209D01*
X37795Y140256D02*
Y143209D01*
X31890Y140256D02*
X37795D01*
X31890Y143209D02*
X37795D01*
X31890Y140256D02*
Y143209D01*
X-17520Y147244D02*
X-11220D01*
Y136221D02*
Y147244D01*
X-17520Y136221D02*
Y147244D01*
Y136221D02*
X-11220D01*
X-7677Y147244D02*
X-1378D01*
Y136221D02*
Y147244D01*
X-7677Y136221D02*
Y147244D01*
Y136221D02*
X-1378D01*
X2165Y147244D02*
X8465D01*
Y136221D02*
Y147244D01*
X2165Y136221D02*
Y147244D01*
Y136221D02*
X8465D01*
X2362Y124508D02*
Y127461D01*
X8268D01*
X2362Y124508D02*
X8268D01*
Y127461D01*
X-7480Y124508D02*
Y127461D01*
X-1575D01*
X-7480Y124508D02*
X-1575D01*
Y127461D01*
X-17323Y124508D02*
Y127461D01*
X-11417D01*
X-17323Y124508D02*
X-11417D01*
Y127461D01*
Y99902D02*
Y102854D01*
X-17323Y99902D02*
X-11417D01*
X-17323Y102854D02*
X-11417D01*
X-17323Y99902D02*
Y102854D01*
X24508Y77756D02*
X27461D01*
Y71850D02*
Y77756D01*
X24508Y71850D02*
Y77756D01*
Y71850D02*
X27461D01*
X-11417Y103839D02*
Y106791D01*
X-17323Y103839D02*
X-11417D01*
X-17323Y106791D02*
X-11417D01*
X-17323Y103839D02*
Y106791D01*
X41732Y103839D02*
Y106791D01*
X47638D01*
X41732Y103839D02*
X47638D01*
Y106791D01*
X20571Y71850D02*
X23524D01*
X20571D02*
Y77756D01*
X23524Y71850D02*
Y77756D01*
X20571D02*
X23524D01*
X47638Y111713D02*
Y114665D01*
X41732Y111713D02*
X47638D01*
X41732Y114665D02*
X47638D01*
X41732Y111713D02*
Y114665D01*
X47638Y92028D02*
Y94980D01*
X41732Y92028D02*
X47638D01*
X41732Y94980D02*
X47638D01*
X41732Y92028D02*
Y94980D01*
X47638Y99902D02*
Y102854D01*
X41732Y99902D02*
X47638D01*
X41732Y102854D02*
X47638D01*
X41732Y99902D02*
Y102854D01*
X47638Y88090D02*
Y91043D01*
X41732Y88090D02*
X47638D01*
X41732Y91043D02*
X47638D01*
X41732Y88090D02*
Y91043D01*
X-17323Y95965D02*
Y98917D01*
X-11417D01*
X-17323Y95965D02*
X-11417D01*
Y98917D01*
X-19961Y22441D02*
Y53937D01*
X23346Y22441D02*
Y53937D01*
X-19961D02*
X23346D01*
X-19961Y22441D02*
X23346D01*
X28780Y53150D02*
X48465D01*
X28780Y21654D02*
X48465D01*
X28780D02*
Y53150D01*
X48465Y21654D02*
Y53150D01*
X47638Y140256D02*
Y143209D01*
X41732Y140256D02*
X47638D01*
X41732Y143209D02*
X47638D01*
X41732Y140256D02*
Y143209D01*
X47638Y132382D02*
Y135335D01*
X41732Y132382D02*
X47638D01*
X41732Y135335D02*
X47638D01*
X41732Y132382D02*
Y135335D01*
X37795Y132382D02*
Y135335D01*
X31890Y132382D02*
X37795D01*
X31890Y135335D02*
X37795D01*
X31890Y132382D02*
Y135335D01*
Y143815D02*
Y146768D01*
X37795D01*
X31890Y143815D02*
X37795D01*
Y146768D01*
X27953Y132382D02*
Y135335D01*
X22047Y132382D02*
X27953D01*
X22047Y135335D02*
X27953D01*
X22047Y132382D02*
Y135335D01*
Y143815D02*
Y146768D01*
X27953D01*
X22047Y143815D02*
X27953D01*
Y146768D01*
X7087Y78740D02*
X16535D01*
X7087Y70866D02*
X16535D01*
X7087D02*
Y78740D01*
X16535Y70866D02*
Y78740D01*
X15157Y34449D02*
Y36417D01*
X14173Y35433D02*
X16142D01*
X-2165Y9449D02*
Y17402D01*
X32480Y53465D02*
Y61417D01*
X-2165D02*
X32480D01*
X-2165Y9449D02*
X32480D01*
Y17402D01*
X-2165Y53425D02*
Y61417D01*
X-9843Y53425D02*
X-2165D01*
X32480Y17402D02*
X40157D01*
X-9843D02*
Y53425D01*
X40157Y17402D02*
Y53465D01*
X-9843Y17402D02*
X-2165D01*
X32480Y53465D02*
X40157D01*
X-12905Y113189D02*
X-9953D01*
X-12905Y119095D02*
X-9953D01*
Y113189D02*
Y119095D01*
X-12905Y113189D02*
Y119095D01*
X-11429Y115157D02*
Y117126D01*
X-12413Y116142D02*
X-10445D01*
X-17906Y113189D02*
X-14953D01*
X-17906Y119095D02*
X-14953D01*
Y113189D02*
Y119095D01*
X-17906Y113189D02*
Y119095D01*
X-16429Y115157D02*
Y117126D01*
X-17413Y116142D02*
X-15445D01*
X1071Y95472D02*
Y97441D01*
X87Y96457D02*
X2055D01*
X-20583Y80709D02*
X22724D01*
Y112205D01*
X-20583Y80709D02*
Y112205D01*
X22724D01*
X17095Y73819D02*
X20047D01*
X17095Y79724D02*
X20047D01*
Y73819D02*
Y79724D01*
X17095Y73819D02*
Y79724D01*
X18571Y75787D02*
Y77756D01*
X17587Y76772D02*
X19555D01*
X7095Y73819D02*
X10047D01*
X7095Y79724D02*
X10047D01*
Y73819D02*
Y79724D01*
X7095Y73819D02*
Y79724D01*
X8571Y75787D02*
Y77756D01*
X7587Y76772D02*
X9555D01*
X-2905Y73819D02*
X47D01*
X-2905Y79724D02*
X47D01*
Y73819D02*
Y79724D01*
X-2905Y73819D02*
Y79724D01*
X-1429Y75787D02*
Y77756D01*
X-2413Y76772D02*
X-445D01*
X-17906Y79724D02*
X-14953D01*
X-17906Y73819D02*
X-14953D01*
X-17906D02*
Y79724D01*
X-14953Y73819D02*
Y79724D01*
X-16429Y75787D02*
Y77756D01*
X-17413Y76772D02*
X-15445D01*
X-28150Y141732D02*
X58465D01*
X-28150D02*
Y190945D01*
X58465D01*
Y141732D02*
Y190945D01*
X15157Y152559D02*
Y154528D01*
X14173Y153543D02*
X16142D01*
X45102Y132874D02*
Y134843D01*
X44118Y133858D02*
X46087D01*
X39591Y130709D02*
X50614D01*
X39591Y137008D02*
X50614D01*
X39591Y130709D02*
Y137008D01*
X50614Y130709D02*
Y137008D01*
X42150Y126476D02*
X48055D01*
X42150Y129429D02*
X48055D01*
X42150Y126476D02*
Y129429D01*
X48055Y126476D02*
Y129429D01*
X45102Y126969D02*
Y128937D01*
X44118Y127953D02*
X46087D01*
X15157Y132874D02*
Y134843D01*
X14173Y133858D02*
X16142D01*
X9646Y130709D02*
X20669D01*
X9646Y137008D02*
X20669D01*
X9646Y130709D02*
Y137008D01*
X20669Y130709D02*
Y137008D01*
X12205Y126476D02*
X18110D01*
X12205Y129429D02*
X18110D01*
X12205Y126476D02*
Y129429D01*
X18110Y126476D02*
Y129429D01*
X15157Y126969D02*
Y128937D01*
X14173Y127953D02*
X16142D01*
X-14370Y132874D02*
Y134843D01*
X-15354Y133858D02*
X-13386D01*
X-19882Y130709D02*
X-8858D01*
X-19882Y137008D02*
X-8858D01*
X-19882Y130709D02*
Y137008D01*
X-8858Y130709D02*
Y137008D01*
X-17323Y126476D02*
X-11417D01*
X-17323Y129429D02*
X-11417D01*
X-17323Y126476D02*
Y129429D01*
X-11417Y126476D02*
Y129429D01*
X-14370Y126969D02*
Y128937D01*
X-15354Y127953D02*
X-13386D01*
X32791Y78445D02*
X38697D01*
X32791Y81398D02*
X38697D01*
X32791Y78445D02*
Y81398D01*
X38697Y78445D02*
Y81398D01*
X35744Y78937D02*
Y80905D01*
X34760Y79921D02*
X36728D01*
X46571Y78445D02*
Y81398D01*
X40665Y78445D02*
Y81398D01*
X46571D01*
X40665Y78445D02*
X46571D01*
X42634Y79921D02*
X44602D01*
X43618Y78937D02*
Y80905D01*
X-11417Y111713D02*
Y114665D01*
X-17323Y111713D02*
Y114665D01*
Y111713D02*
X-11417D01*
X-17323Y114665D02*
X-11417D01*
X-15354Y113189D02*
X-13386D01*
X-14370Y112205D02*
Y114173D01*
X-17323Y107776D02*
Y110728D01*
X-11417Y107776D02*
Y110728D01*
X-17323D02*
X-11417D01*
X-17323Y107776D02*
X-11417D01*
X-15354Y109252D02*
X-13386D01*
X-14370Y108268D02*
Y110236D01*
X-11417Y92028D02*
Y94980D01*
X-17323Y92028D02*
Y94980D01*
Y92028D02*
X-11417D01*
X-17323Y94980D02*
X-11417D01*
X-15354Y93504D02*
X-13386D01*
X-14370Y92520D02*
Y94488D01*
X41732Y107776D02*
Y110728D01*
X47638Y107776D02*
Y110728D01*
X41732D02*
X47638D01*
X41732Y107776D02*
X47638D01*
X43701Y109252D02*
X45669D01*
X44685Y108268D02*
Y110236D01*
X41732Y95965D02*
Y98917D01*
X47638Y95965D02*
Y98917D01*
X41732D02*
X47638D01*
X41732Y95965D02*
X47638D01*
X43701Y97441D02*
X45669D01*
X44685Y96457D02*
Y98425D01*
X-17284Y54134D02*
X-14331D01*
X-17284Y60039D02*
X-14331D01*
X-17284Y54134D02*
Y60039D01*
X-14331Y54134D02*
Y60039D01*
X-15807Y56102D02*
Y58071D01*
X-16791Y57087D02*
X-14823D01*
X-7283Y54134D02*
X-4331D01*
X-7283Y60039D02*
X-4331D01*
X-7283Y54134D02*
Y60039D01*
X-4331Y54134D02*
Y60039D01*
X-5807Y56102D02*
Y58071D01*
X-6791Y57087D02*
X-4823D01*
X2716Y54134D02*
X5669D01*
X2716Y60039D02*
X5669D01*
X2716Y54134D02*
Y60039D01*
X5669Y54134D02*
Y60039D01*
X4193Y56102D02*
Y58071D01*
X3209Y57087D02*
X5177D01*
X12717Y54134D02*
X15669D01*
X12717Y60039D02*
X15669D01*
X12717Y54134D02*
Y60039D01*
X15669Y54134D02*
Y60039D01*
X14193Y56102D02*
Y58071D01*
X13209Y57087D02*
X15177D01*
X-17284Y14764D02*
X-14331D01*
X-17284Y20669D02*
X-14331D01*
X-17284Y14764D02*
Y20669D01*
X-14331Y14764D02*
Y20669D01*
X-15807Y16732D02*
Y18701D01*
X-16791Y17717D02*
X-14823D01*
X-7283Y14764D02*
X-4331D01*
X-7283Y20669D02*
X-4331D01*
X-7283Y14764D02*
Y20669D01*
X-4331Y14764D02*
Y20669D01*
X-5807Y16732D02*
Y18701D01*
X-6791Y17717D02*
X-4823D01*
X2716Y14764D02*
X5669D01*
X2716Y20669D02*
X5669D01*
X2716Y14764D02*
Y20669D01*
X5669Y14764D02*
Y20669D01*
X4193Y16732D02*
Y18701D01*
X3209Y17717D02*
X5177D01*
X12717Y14764D02*
X15669D01*
X12717Y20669D02*
X15669D01*
X12717Y14764D02*
Y20669D01*
X15669Y14764D02*
Y20669D01*
X14193Y16732D02*
Y18701D01*
X13209Y17717D02*
X15177D01*
X41732Y143815D02*
Y146768D01*
X47638Y143815D02*
Y146768D01*
X41732D02*
X47638D01*
X41732Y143815D02*
X47638D01*
X43701Y145291D02*
X45669D01*
X44685Y144307D02*
Y146276D01*
X27953Y140256D02*
Y143209D01*
X22047Y140256D02*
Y143209D01*
Y140256D02*
X27953D01*
X22047Y143209D02*
X27953D01*
X24016Y141732D02*
X25984D01*
X25000Y140748D02*
Y142717D01*
X37795Y140256D02*
Y143209D01*
X31890Y140256D02*
Y143209D01*
Y140256D02*
X37795D01*
X31890Y143209D02*
X37795D01*
X33858Y141732D02*
X35827D01*
X34843Y140748D02*
Y142717D01*
X-15354Y141732D02*
X-13386D01*
X-14370Y140748D02*
Y142717D01*
X-11220Y136221D02*
Y147244D01*
X-17520Y136221D02*
Y147244D01*
X-11220D01*
X-17520Y136221D02*
X-11220D01*
X-5512Y141732D02*
X-3543D01*
X-4528Y140748D02*
Y142717D01*
X-1378Y136221D02*
Y147244D01*
X-7677Y136221D02*
Y147244D01*
X-1378D01*
X-7677Y136221D02*
X-1378D01*
X4331Y141732D02*
X6299D01*
X5315Y140748D02*
Y142717D01*
X8465Y136221D02*
Y147244D01*
X2165Y136221D02*
Y147244D01*
X8465D01*
X2165Y136221D02*
X8465D01*
X2362Y124508D02*
Y127461D01*
X8268Y124508D02*
Y127461D01*
X2362D02*
X8268D01*
X2362Y124508D02*
X8268D01*
X4331Y125984D02*
X6299D01*
X5315Y125000D02*
Y126969D01*
X-7480Y124508D02*
Y127461D01*
X-1575Y124508D02*
Y127461D01*
X-7480D02*
X-1575D01*
X-7480Y124508D02*
X-1575D01*
X-5512Y125984D02*
X-3543D01*
X-4528Y125000D02*
Y126969D01*
X-17323Y124508D02*
Y127461D01*
X-11417Y124508D02*
Y127461D01*
X-17323D02*
X-11417D01*
X-17323Y124508D02*
X-11417D01*
X-15354Y125984D02*
X-13386D01*
X-14370Y125000D02*
Y126969D01*
X-11417Y99902D02*
Y102854D01*
X-17323Y99902D02*
Y102854D01*
Y99902D02*
X-11417D01*
X-17323Y102854D02*
X-11417D01*
X-15354Y101378D02*
X-13386D01*
X-14370Y100394D02*
Y102362D01*
X24508Y77756D02*
X27461D01*
X24508Y71850D02*
X27461D01*
Y77756D01*
X24508Y71850D02*
Y77756D01*
X25984Y73819D02*
Y75787D01*
X25000Y74803D02*
X26969D01*
X-11417Y103839D02*
Y106791D01*
X-17323Y103839D02*
Y106791D01*
Y103839D02*
X-11417D01*
X-17323Y106791D02*
X-11417D01*
X-15354Y105315D02*
X-13386D01*
X-14370Y104331D02*
Y106299D01*
X41732Y103839D02*
Y106791D01*
X47638Y103839D02*
Y106791D01*
X41732D02*
X47638D01*
X41732Y103839D02*
X47638D01*
X43701Y105315D02*
X45669D01*
X44685Y104331D02*
Y106299D01*
X20571Y71850D02*
X23524D01*
X20571Y77756D02*
X23524D01*
X20571Y71850D02*
Y77756D01*
X23524Y71850D02*
Y77756D01*
X22047Y73819D02*
Y75787D01*
X21063Y74803D02*
X23031D01*
X47638Y111713D02*
Y114665D01*
X41732Y111713D02*
Y114665D01*
Y111713D02*
X47638D01*
X41732Y114665D02*
X47638D01*
X43701Y113189D02*
X45669D01*
X44685Y112205D02*
Y114173D01*
X47638Y92028D02*
Y94980D01*
X41732Y92028D02*
Y94980D01*
Y92028D02*
X47638D01*
X41732Y94980D02*
X47638D01*
X43701Y93504D02*
X45669D01*
X44685Y92520D02*
Y94488D01*
X47638Y99902D02*
Y102854D01*
X41732Y99902D02*
Y102854D01*
Y99902D02*
X47638D01*
X41732Y102854D02*
X47638D01*
X43701Y101378D02*
X45669D01*
X44685Y100394D02*
Y102362D01*
X47638Y88090D02*
Y91043D01*
X41732Y88090D02*
Y91043D01*
Y88090D02*
X47638D01*
X41732Y91043D02*
X47638D01*
X43701Y89567D02*
X45669D01*
X44685Y88583D02*
Y90551D01*
X-17323Y95965D02*
Y98917D01*
X-11417Y95965D02*
Y98917D01*
X-17323D02*
X-11417D01*
X-17323Y95965D02*
X-11417D01*
X-15354Y97441D02*
X-13386D01*
X-14370Y96457D02*
Y98425D01*
X1693Y37205D02*
Y39173D01*
X709Y38189D02*
X2677D01*
X-19961Y22441D02*
X23346D01*
X-19961D02*
Y53937D01*
X23346Y22441D02*
Y53937D01*
X-19961D02*
X23346D01*
X28780Y21654D02*
X48465D01*
X28780D02*
Y53150D01*
X48465Y21654D02*
Y53150D01*
X28780D02*
X48465D01*
X37638Y37402D02*
X39606D01*
X38622Y36417D02*
Y38386D01*
X47638Y140256D02*
Y143209D01*
X41732Y140256D02*
Y143209D01*
Y140256D02*
X47638D01*
X41732Y143209D02*
X47638D01*
X43701Y141732D02*
X45669D01*
X44685Y140748D02*
Y142717D01*
X47638Y132382D02*
Y135335D01*
X41732Y132382D02*
Y135335D01*
Y132382D02*
X47638D01*
X41732Y135335D02*
X47638D01*
X43701Y133858D02*
X45669D01*
X44685Y132874D02*
Y134843D01*
X37795Y132382D02*
Y135335D01*
X31890Y132382D02*
Y135335D01*
Y132382D02*
X37795D01*
X31890Y135335D02*
X37795D01*
X33858Y133858D02*
X35827D01*
X34843Y132874D02*
Y134843D01*
X31890Y143815D02*
Y146768D01*
X37795Y143815D02*
Y146768D01*
X31890D02*
X37795D01*
X31890Y143815D02*
X37795D01*
X33858Y145291D02*
X35827D01*
X34843Y144307D02*
Y146276D01*
X27953Y132382D02*
Y135335D01*
X22047Y132382D02*
Y135335D01*
Y132382D02*
X27953D01*
X22047Y135335D02*
X27953D01*
X24016Y133858D02*
X25984D01*
X25000Y132874D02*
Y134843D01*
X22047Y143815D02*
Y146768D01*
X27953Y143815D02*
Y146768D01*
X22047D02*
X27953D01*
X22047Y143815D02*
X27953D01*
X24016Y145291D02*
X25984D01*
X25000Y144307D02*
Y146276D01*
X10827Y74803D02*
X12795D01*
X11811Y73819D02*
Y75787D01*
X7087Y70866D02*
X16535D01*
X7087Y78740D02*
X16535D01*
Y70866D02*
Y78740D01*
X7087Y70866D02*
Y78740D01*
D15*
X15047Y73819D02*
Y79724D01*
X12094Y73819D02*
Y79724D01*
X15047D01*
X12094Y73819D02*
X15047D01*
X5047D02*
Y79724D01*
X2094Y73819D02*
Y79724D01*
X5047D01*
X2094Y73819D02*
X5047D01*
X-4953D02*
Y79724D01*
X-7905Y73819D02*
Y79724D01*
X-4953D01*
X-7905Y73819D02*
X-4953D01*
X-9953D02*
Y79724D01*
X-12905Y73819D02*
Y79724D01*
X-9953D01*
X-12905Y73819D02*
X-9953D01*
X43307Y31909D02*
X49213D01*
X43307Y28957D02*
X49213D01*
X43307D02*
Y31909D01*
X49213Y28957D02*
Y31909D01*
X43307Y27972D02*
X49213D01*
X43307Y25020D02*
X49213D01*
X43307D02*
Y27972D01*
X49213Y25020D02*
Y27972D01*
X-18701Y48957D02*
X-12795D01*
X-18701Y51910D02*
X-12795D01*
Y48957D02*
Y51910D01*
X-18701Y48957D02*
Y51910D01*
Y45020D02*
X-12795D01*
X-18701Y47972D02*
X-12795D01*
Y45020D02*
Y47972D01*
X-18701Y45020D02*
Y47972D01*
X-17323Y84153D02*
X-11417D01*
X-17323Y87106D02*
X-11417D01*
X-17323Y84153D02*
Y87106D01*
X-11417Y84153D02*
Y87106D01*
X-17323Y80216D02*
X-11417D01*
X-17323Y83169D02*
X-11417D01*
X-17323Y80216D02*
Y83169D01*
X-11417Y80216D02*
Y83169D01*
X19587Y71850D02*
Y77756D01*
X16634Y71850D02*
Y77756D01*
Y71850D02*
X19587D01*
X16634Y77756D02*
X19587D01*
X47598Y54134D02*
Y60039D01*
X44646Y54134D02*
Y60039D01*
Y54134D02*
X47598D01*
X44646Y60039D02*
X47598D01*
X-12284Y14764D02*
Y20669D01*
X-9331Y14764D02*
Y20669D01*
X-12284D02*
X-9331D01*
X-12284Y14764D02*
X-9331D01*
X-2283D02*
Y20669D01*
X669Y14764D02*
Y20669D01*
X-2283D02*
X669D01*
X-2283Y14764D02*
X669D01*
X7717D02*
Y20669D01*
X10669Y14764D02*
Y20669D01*
X7717D02*
X10669D01*
X7717Y14764D02*
X10669D01*
X17717D02*
Y20669D01*
X20669Y14764D02*
Y20669D01*
X17717D02*
X20669D01*
X17717Y14764D02*
X20669D01*
X44646D02*
Y20669D01*
X47598Y14764D02*
Y20669D01*
X44646D02*
X47598D01*
X44646Y14764D02*
X47598D01*
X4035Y71850D02*
Y77756D01*
X6988Y71850D02*
Y77756D01*
X4035D02*
X6988D01*
X4035Y71850D02*
X6988D01*
X22047Y127461D02*
X27953D01*
X22047Y124508D02*
X27953D01*
Y127461D01*
X22047Y124508D02*
Y127461D01*
X31890D02*
X37795D01*
X31890Y124508D02*
X37795D01*
Y127461D01*
X31890Y124508D02*
Y127461D01*
X41732D02*
X47638D01*
X41732Y124508D02*
X47638D01*
Y127461D01*
X41732Y124508D02*
Y127461D01*
X22047Y131398D02*
X27953D01*
X22047Y128445D02*
X27953D01*
Y131398D01*
X22047Y128445D02*
Y131398D01*
X31890D02*
X37795D01*
X31890Y128445D02*
X37795D01*
Y131398D01*
X31890Y128445D02*
Y131398D01*
X41732D02*
X47638D01*
X41732Y128445D02*
X47638D01*
Y131398D01*
X41732Y128445D02*
Y131398D01*
X22047Y136319D02*
X27953D01*
X22047Y139272D02*
X27953D01*
X22047Y136319D02*
Y139272D01*
X27953Y136319D02*
Y139272D01*
X31890Y136319D02*
X37795D01*
X31890Y139272D02*
X37795D01*
X31890Y136319D02*
Y139272D01*
X37795Y136319D02*
Y139272D01*
X41732Y136319D02*
X47638D01*
X41732Y139272D02*
X47638D01*
X41732Y136319D02*
Y139272D01*
X47638Y136319D02*
Y139272D01*
X-17323Y135335D02*
X-11417D01*
X-17323Y132382D02*
X-11417D01*
Y135335D01*
X-17323Y132382D02*
Y135335D01*
X-7480D02*
X-1575D01*
X-7480Y132382D02*
X-1575D01*
Y135335D01*
X-7480Y132382D02*
Y135335D01*
X2362D02*
X8268D01*
X2362Y132382D02*
X8268D01*
Y135335D01*
X2362Y132382D02*
Y135335D01*
X-17323Y131398D02*
X-11417D01*
X-17323Y128445D02*
X-11417D01*
Y131398D01*
X-17323Y128445D02*
Y131398D01*
X-7480D02*
X-1575D01*
X-7480Y128445D02*
X-1575D01*
Y131398D01*
X-7480Y128445D02*
Y131398D01*
X2362D02*
X8268D01*
X2362Y128445D02*
X8268D01*
Y131398D01*
X2362Y128445D02*
Y131398D01*
X12094Y79724D02*
X15047D01*
X12587Y76772D02*
X14555D01*
X13571Y75787D02*
Y77756D01*
X15047Y73819D02*
Y79724D01*
X12094Y73819D02*
Y79724D01*
Y73819D02*
X15047D01*
X2094Y79724D02*
X5047D01*
X2587Y76772D02*
X4555D01*
X3571Y75787D02*
Y77756D01*
X5047Y73819D02*
Y79724D01*
X2094Y73819D02*
Y79724D01*
Y73819D02*
X5047D01*
X-7905Y79724D02*
X-4953D01*
X-7413Y76772D02*
X-5445D01*
X-6429Y75787D02*
Y77756D01*
X-4953Y73819D02*
Y79724D01*
X-7905Y73819D02*
Y79724D01*
Y73819D02*
X-4953D01*
X-12905Y79724D02*
X-9953D01*
X-12413Y76772D02*
X-10445D01*
X-11429Y75787D02*
Y77756D01*
X-9953Y73819D02*
Y79724D01*
X-12905Y73819D02*
Y79724D01*
Y73819D02*
X-9953D01*
X43307Y28957D02*
Y31909D01*
X46260Y29449D02*
Y31417D01*
X45276Y30433D02*
X47244D01*
X43307Y31909D02*
X49213D01*
X43307Y28957D02*
X49213D01*
Y31909D01*
X43307Y25020D02*
Y27972D01*
X46260Y25512D02*
Y27480D01*
X45276Y26496D02*
X47244D01*
X43307Y27972D02*
X49213D01*
X43307Y25020D02*
X49213D01*
Y27972D01*
X-12795Y48957D02*
Y51910D01*
X-15748Y49449D02*
Y51417D01*
X-16732Y50433D02*
X-14764D01*
X-18701Y48957D02*
X-12795D01*
X-18701Y51910D02*
X-12795D01*
X-18701Y48957D02*
Y51910D01*
X-12795Y45020D02*
Y47972D01*
X-15748Y45512D02*
Y47480D01*
X-16732Y46496D02*
X-14764D01*
X-18701Y45020D02*
X-12795D01*
X-18701Y47972D02*
X-12795D01*
X-18701Y45020D02*
Y47972D01*
X-17323Y84153D02*
Y87106D01*
X-14370Y84646D02*
Y86614D01*
X-15354Y85630D02*
X-13386D01*
X-17323Y84153D02*
X-11417D01*
X-17323Y87106D02*
X-11417D01*
Y84153D02*
Y87106D01*
X-17323Y80216D02*
Y83169D01*
X-14370Y80709D02*
Y82677D01*
X-15354Y81693D02*
X-13386D01*
X-17323Y80216D02*
X-11417D01*
X-17323Y83169D02*
X-11417D01*
Y80216D02*
Y83169D01*
X16634Y71850D02*
X19587D01*
X17126Y74803D02*
X19094D01*
X18110Y73819D02*
Y75787D01*
X19587Y71850D02*
Y77756D01*
X16634Y71850D02*
Y77756D01*
X19587D01*
X44646Y54134D02*
X47598D01*
X45138Y57087D02*
X47106D01*
X46122Y56102D02*
Y58071D01*
X47598Y54134D02*
Y60039D01*
X44646Y54134D02*
Y60039D01*
X47598D01*
X-12284Y20669D02*
X-9331D01*
X-11791Y17717D02*
X-9823D01*
X-10807Y16732D02*
Y18701D01*
X-12284Y14764D02*
Y20669D01*
X-9331Y14764D02*
Y20669D01*
X-12284Y14764D02*
X-9331D01*
X-2283Y20669D02*
X669D01*
X-1791Y17717D02*
X177D01*
X-807Y16732D02*
Y18701D01*
X-2283Y14764D02*
Y20669D01*
X669Y14764D02*
Y20669D01*
X-2283Y14764D02*
X669D01*
X7717Y20669D02*
X10669D01*
X8209Y17717D02*
X10177D01*
X9193Y16732D02*
Y18701D01*
X7717Y14764D02*
Y20669D01*
X10669Y14764D02*
Y20669D01*
X7717Y14764D02*
X10669D01*
X17717Y20669D02*
X20669D01*
X18209Y17717D02*
X20177D01*
X19193Y16732D02*
Y18701D01*
X17717Y14764D02*
Y20669D01*
X20669Y14764D02*
Y20669D01*
X17717Y14764D02*
X20669D01*
X44646Y20669D02*
X47598D01*
X45138Y17717D02*
X47106D01*
X46122Y16732D02*
Y18701D01*
X44646Y14764D02*
Y20669D01*
X47598Y14764D02*
Y20669D01*
X44646Y14764D02*
X47598D01*
X4035Y77756D02*
X6988D01*
X4528Y74803D02*
X6496D01*
X5512Y73819D02*
Y75787D01*
X4035Y71850D02*
Y77756D01*
X6988Y71850D02*
Y77756D01*
X4035Y71850D02*
X6988D01*
X27953Y124508D02*
Y127461D01*
X25000Y125000D02*
Y126969D01*
X24016Y125984D02*
X25984D01*
X22047Y127461D02*
X27953D01*
X22047Y124508D02*
X27953D01*
X22047D02*
Y127461D01*
X37795Y124508D02*
Y127461D01*
X34843Y125000D02*
Y126969D01*
X33858Y125984D02*
X35827D01*
X31890Y127461D02*
X37795D01*
X31890Y124508D02*
X37795D01*
X31890D02*
Y127461D01*
X47638Y124508D02*
Y127461D01*
X44685Y125000D02*
Y126969D01*
X43701Y125984D02*
X45669D01*
X41732Y127461D02*
X47638D01*
X41732Y124508D02*
X47638D01*
X41732D02*
Y127461D01*
X27953Y128445D02*
Y131398D01*
X25000Y128937D02*
Y130905D01*
X24016Y129921D02*
X25984D01*
X22047Y131398D02*
X27953D01*
X22047Y128445D02*
X27953D01*
X22047D02*
Y131398D01*
X37795Y128445D02*
Y131398D01*
X34843Y128937D02*
Y130905D01*
X33858Y129921D02*
X35827D01*
X31890Y131398D02*
X37795D01*
X31890Y128445D02*
X37795D01*
X31890D02*
Y131398D01*
X47638Y128445D02*
Y131398D01*
X44685Y128937D02*
Y130905D01*
X43701Y129921D02*
X45669D01*
X41732Y131398D02*
X47638D01*
X41732Y128445D02*
X47638D01*
X41732D02*
Y131398D01*
X22047Y136319D02*
Y139272D01*
X25000Y136811D02*
Y138779D01*
X24016Y137795D02*
X25984D01*
X22047Y136319D02*
X27953D01*
X22047Y139272D02*
X27953D01*
Y136319D02*
Y139272D01*
X31890Y136319D02*
Y139272D01*
X34843Y136811D02*
Y138779D01*
X33858Y137795D02*
X35827D01*
X31890Y136319D02*
X37795D01*
X31890Y139272D02*
X37795D01*
Y136319D02*
Y139272D01*
X41732Y136319D02*
Y139272D01*
X44685Y136811D02*
Y138779D01*
X43701Y137795D02*
X45669D01*
X41732Y136319D02*
X47638D01*
X41732Y139272D02*
X47638D01*
Y136319D02*
Y139272D01*
X-11417Y132382D02*
Y135335D01*
X-14370Y132874D02*
Y134843D01*
X-15354Y133858D02*
X-13386D01*
X-17323Y135335D02*
X-11417D01*
X-17323Y132382D02*
X-11417D01*
X-17323D02*
Y135335D01*
X-1575Y132382D02*
Y135335D01*
X-4528Y132874D02*
Y134843D01*
X-5512Y133858D02*
X-3543D01*
X-7480Y135335D02*
X-1575D01*
X-7480Y132382D02*
X-1575D01*
X-7480D02*
Y135335D01*
X8268Y132382D02*
Y135335D01*
X5315Y132874D02*
Y134843D01*
X4331Y133858D02*
X6299D01*
X2362Y135335D02*
X8268D01*
X2362Y132382D02*
X8268D01*
X2362D02*
Y135335D01*
X-11417Y128445D02*
Y131398D01*
X-14370Y128937D02*
Y130905D01*
X-15354Y129921D02*
X-13386D01*
X-17323Y131398D02*
X-11417D01*
X-17323Y128445D02*
X-11417D01*
X-17323D02*
Y131398D01*
X-1575Y128445D02*
Y131398D01*
X-4528Y128937D02*
Y130905D01*
X-5512Y129921D02*
X-3543D01*
X-7480Y131398D02*
X-1575D01*
X-7480Y128445D02*
X-1575D01*
X-7480D02*
Y131398D01*
X8268Y128445D02*
Y131398D01*
X5315Y128937D02*
Y130905D01*
X4331Y129921D02*
X6299D01*
X2362Y131398D02*
X8268D01*
X2362Y128445D02*
X8268D01*
X2362D02*
Y131398D01*
D17*
X18110Y73110D02*
D03*
Y76496D02*
D03*
X46122Y55394D02*
D03*
Y58780D02*
D03*
X-15807Y55394D02*
D03*
Y58780D02*
D03*
X-5807Y55394D02*
D03*
Y58780D02*
D03*
X4193Y55394D02*
D03*
Y58780D02*
D03*
X14193Y55394D02*
D03*
Y58780D02*
D03*
X-15807Y16024D02*
D03*
Y19410D02*
D03*
X-10807D02*
D03*
Y16024D02*
D03*
X-5807D02*
D03*
Y19410D02*
D03*
X-807D02*
D03*
Y16024D02*
D03*
X4193D02*
D03*
Y19410D02*
D03*
X9193D02*
D03*
Y16024D02*
D03*
X14193D02*
D03*
Y19410D02*
D03*
X19193D02*
D03*
Y16024D02*
D03*
X46122Y19410D02*
D03*
Y16024D02*
D03*
X5512Y76496D02*
D03*
Y73110D02*
D03*
X25984Y76496D02*
D03*
Y73110D02*
D03*
X22047D02*
D03*
Y76496D02*
D03*
D18*
X19193Y24409D02*
D03*
Y51968D02*
D03*
X-15807Y24409D02*
D03*
Y51968D02*
D03*
X-10807Y24409D02*
D03*
X14193D02*
D03*
Y51968D02*
D03*
X-10807D02*
D03*
X-5807D02*
D03*
X-807D02*
D03*
X4193D02*
D03*
X9193D02*
D03*
Y24409D02*
D03*
X4193D02*
D03*
X-807D02*
D03*
X-5807D02*
D03*
D19*
X-12677Y113189D02*
D03*
X-16063D02*
D03*
X-16063Y109252D02*
D03*
X-12677D02*
D03*
Y93504D02*
D03*
X-16063D02*
D03*
Y85630D02*
D03*
X-12677D02*
D03*
X-16063Y81693D02*
D03*
X-12677D02*
D03*
X42992Y109252D02*
D03*
X46378D02*
D03*
X42992Y97441D02*
D03*
X46378D02*
D03*
X26693Y125984D02*
D03*
X23307D02*
D03*
X36535D02*
D03*
X33150D02*
D03*
X46378D02*
D03*
X42992D02*
D03*
Y145291D02*
D03*
X46378D02*
D03*
X26693Y129921D02*
D03*
X23307D02*
D03*
X36535D02*
D03*
X33150D02*
D03*
X46378D02*
D03*
X42992D02*
D03*
X23307Y137795D02*
D03*
X26693D02*
D03*
X33150D02*
D03*
X36535D02*
D03*
X42992D02*
D03*
X46378D02*
D03*
X26693Y141732D02*
D03*
X23307D02*
D03*
X36535D02*
D03*
X33150D02*
D03*
X-12677Y133858D02*
D03*
X-16063D02*
D03*
X-2835D02*
D03*
X-6221D02*
D03*
X7008D02*
D03*
X3622D02*
D03*
X-12677Y129921D02*
D03*
X-16063D02*
D03*
X-2835D02*
D03*
X-6221D02*
D03*
X7008D02*
D03*
X3622D02*
D03*
X3622Y125984D02*
D03*
X7008D02*
D03*
X-6221D02*
D03*
X-2835D02*
D03*
X-16063D02*
D03*
X-12677D02*
D03*
Y101378D02*
D03*
X-16063D02*
D03*
X-12677Y105315D02*
D03*
X-16063D02*
D03*
X42992D02*
D03*
X46378D02*
D03*
Y113189D02*
D03*
X42992D02*
D03*
X46378Y93504D02*
D03*
X42992D02*
D03*
X46378Y101378D02*
D03*
X42992D02*
D03*
X46378Y89567D02*
D03*
X42992D02*
D03*
X-16063Y97441D02*
D03*
X-12677D02*
D03*
X46378Y141732D02*
D03*
X42992D02*
D03*
X46378Y133858D02*
D03*
X42992D02*
D03*
X36535D02*
D03*
X33150D02*
D03*
Y145291D02*
D03*
X36535D02*
D03*
X26693Y133858D02*
D03*
X23307D02*
D03*
Y145291D02*
D03*
X26693D02*
D03*
D35*
X61614Y-7283D02*
D03*
X58465D02*
D03*
X55315D02*
D03*
X52165D02*
D03*
X49016D02*
D03*
X45866D02*
D03*
X42717D02*
D03*
X39567D02*
D03*
X36417D02*
D03*
X33268D02*
D03*
X30118D02*
D03*
X26969D02*
D03*
X23819D02*
D03*
X20669D02*
D03*
X17520D02*
D03*
X14370D02*
D03*
X11220D02*
D03*
X8071D02*
D03*
X-7677D02*
D03*
X-10827D02*
D03*
X-13976D02*
D03*
X-17126D02*
D03*
X-20276D02*
D03*
X-23425D02*
D03*
X-26575D02*
D03*
X-29724D02*
D03*
D36*
X5315Y145473D02*
Y153543D01*
X-4528Y145473D02*
Y153543D01*
X-14370Y145473D02*
Y153543D01*
D37*
X26693Y125984D02*
Y133858D01*
X42992Y133858D02*
Y145292D01*
X42717Y-7283D02*
Y0D01*
X33268Y-7283D02*
Y0D01*
X-16063Y93504D02*
Y101378D01*
X46378D02*
Y113189D01*
Y93504D02*
Y101378D01*
X46122Y22441D02*
Y26772D01*
Y19410D02*
Y22441D01*
X8071Y-7283D02*
Y2559D01*
X17520Y-7283D02*
Y2559D01*
X45866Y-7283D02*
Y2559D01*
X52165Y-7283D02*
Y2559D01*
X61614Y-7283D02*
Y2559D01*
X-20276Y-7283D02*
Y0D01*
X-7677Y-7283D02*
Y2559D01*
X20669Y-7283D02*
Y0D01*
X11220Y-7283D02*
Y0D01*
X14370Y-7283D02*
Y0D01*
X39567Y-7283D02*
Y0D01*
X36417Y-7283D02*
Y0D01*
X30118Y-7283D02*
Y0D01*
X26969Y-7283D02*
Y0D01*
X23819Y-7283D02*
Y0D01*
X46122Y48031D02*
X46122Y48031D01*
Y19410D02*
X46122Y19410D01*
X8819Y76732D02*
X9055Y76968D01*
X5512Y76496D02*
X5748Y76732D01*
X17874Y72874D02*
X18110Y73110D01*
X14567Y72638D02*
X14803Y72874D01*
X22047Y73110D02*
X25984D01*
X-16063Y81693D02*
Y85630D01*
Y101378D02*
Y105315D01*
X46378Y89567D02*
Y93504D01*
Y137795D02*
Y141732D01*
X46378Y125984D02*
Y129921D01*
Y133858D01*
X36535Y137795D02*
Y141732D01*
X36535Y125984D02*
Y129921D01*
Y133858D01*
X33150Y133858D02*
Y145292D01*
X23307Y133858D02*
Y145292D01*
Y133858D02*
X23307Y133858D01*
X26693Y137795D02*
Y141732D01*
X7008Y125984D02*
Y129921D01*
Y133858D01*
Y137402D01*
X-2835Y125984D02*
Y129921D01*
Y133858D01*
Y137402D01*
X-12677Y133858D02*
Y137402D01*
Y129921D02*
Y133858D01*
Y125984D02*
Y129921D01*
X-14370Y145473D02*
X-14370Y145473D01*
D38*
X-16063Y125984D02*
Y129921D01*
X44685Y149000D02*
X46316Y147369D01*
Y145354D02*
Y147369D01*
Y145354D02*
X46378Y145292D01*
X44685Y149000D02*
Y153543D01*
X34843Y149000D02*
X36473Y147369D01*
Y145354D02*
Y147369D01*
Y145354D02*
X36535Y145292D01*
X34843Y149000D02*
Y153543D01*
X25000Y149000D02*
Y153543D01*
X26631Y145354D02*
X26693Y145292D01*
X26631Y145354D02*
Y147369D01*
X25000Y149000D02*
X26631Y147369D01*
X3622Y125984D02*
Y129921D01*
Y133858D01*
X-6221Y125984D02*
Y129921D01*
Y133858D01*
X-16063Y129921D02*
Y133858D01*
D39*
X44685Y153543D02*
D03*
D40*
X34843D02*
D03*
X25000D02*
D03*
X15157D02*
D03*
X5315D02*
D03*
X-4528D02*
D03*
X-14370D02*
D03*
D41*
X62795Y176378D02*
D03*
X-32480D02*
D03*
D42*
X14193Y28543D02*
D03*
X42992Y123543D02*
D03*
X33150D02*
D03*
X3622Y123543D02*
D03*
X-6221D02*
D03*
X39787Y127953D02*
D03*
X9843Y127756D02*
D03*
X-19685Y127953D02*
D03*
X-20276Y0D02*
D03*
X65744Y33622D02*
D03*
Y21811D02*
D03*
Y10000D02*
D03*
X53933Y33622D02*
D03*
Y21811D02*
D03*
X42122Y33622D02*
D03*
X30311Y10000D02*
D03*
X18500Y33622D02*
D03*
Y10000D02*
D03*
X6689Y33622D02*
D03*
Y10000D02*
D03*
X-5122Y33622D02*
D03*
Y10000D02*
D03*
X-29472Y33622D02*
D03*
Y21811D02*
D03*
Y10000D02*
D03*
X-40555Y33622D02*
D03*
Y21811D02*
D03*
Y10000D02*
D03*
X46122Y52756D02*
D03*
X-15807Y28543D02*
D03*
X14370Y0D02*
D03*
X20669D02*
D03*
X36417D02*
D03*
X42717D02*
D03*
X39567D02*
D03*
X-807Y58780D02*
D03*
X8268Y88976D02*
D03*
X41122Y58780D02*
D03*
X19193Y58780D02*
D03*
X46378Y87126D02*
D03*
X26047Y70276D02*
D03*
X11220Y0D02*
D03*
X33268D02*
D03*
X30118D02*
D03*
X26969D02*
D03*
X23819D02*
D03*
X46122Y22441D02*
D03*
X41122Y19409D02*
D03*
X36122D02*
D03*
X41122Y55394D02*
D03*
X36122D02*
D03*
X31122D02*
D03*
X19193D02*
D03*
X9193Y58780D02*
D03*
Y55394D02*
D03*
X-807D02*
D03*
X-10807D02*
D03*
Y58780D02*
D03*
X-10807Y21457D02*
D03*
X-807D02*
D03*
X19193D02*
D03*
X9193D02*
D03*
X4193Y28543D02*
D03*
X-5807D02*
D03*
X-18504Y85630D02*
D03*
Y105315D02*
D03*
Y113189D02*
D03*
X12205Y88976D02*
D03*
X9055Y70276D02*
D03*
X18110Y79330D02*
D03*
X25984D02*
D03*
X-9843Y85630D02*
D03*
X-18504Y109252D02*
D03*
X1772Y95472D02*
D03*
X40158Y105315D02*
D03*
X-9843Y101378D02*
D03*
Y105315D02*
D03*
X1772Y107283D02*
D03*
X28543Y109252D02*
D03*
D44*
X15157Y102362D02*
D03*
D45*
X8268Y111811D02*
D03*
X10236D02*
D03*
X12205D02*
D03*
X14173D02*
D03*
X16142D02*
D03*
X18110D02*
D03*
X20079D02*
D03*
X22047D02*
D03*
Y92913D02*
D03*
X20079D02*
D03*
X18110D02*
D03*
X16142D02*
D03*
X14173D02*
D03*
X12205D02*
D03*
X10236D02*
D03*
X8268D02*
D03*
D46*
X24606Y109252D02*
D03*
Y107283D02*
D03*
Y105315D02*
D03*
Y103347D02*
D03*
Y101378D02*
D03*
Y99409D02*
D03*
Y97441D02*
D03*
Y95472D02*
D03*
X5709D02*
D03*
Y97441D02*
D03*
Y99409D02*
D03*
Y101378D02*
D03*
Y103347D02*
D03*
Y105315D02*
D03*
Y107283D02*
D03*
Y109252D02*
D03*
D47*
X-14370Y145413D02*
D03*
Y138051D02*
D03*
X-4528Y145413D02*
D03*
Y138051D02*
D03*
X5315Y145413D02*
D03*
Y138051D02*
D03*
D48*
X46122Y48031D02*
D03*
X41122D02*
D03*
X36122D02*
D03*
X31122D02*
D03*
Y26772D02*
D03*
X36122D02*
D03*
X41122D02*
D03*
X46122D02*
D03*
D49*
X14567Y72638D02*
D03*
X9055D02*
D03*
Y76968D02*
D03*
X14567D02*
D03*
M02*
