G04*
G04 #@! TF.GenerationSoftware,Altium Limited,Altium Designer,24.7.2 (38)*
G04*
G04 Layer_Color=2752767*
%FSLAX25Y25*%
%MOIN*%
G70*
G04*
G04 #@! TF.SameCoordinates,9FCA0B9A-1E75-4BBE-B044-08948AB4E25D*
G04*
G04*
G04 #@! TF.FilePolarity,Positive*
G04*
G01*
G75*
%ADD11C,0.00394*%
%ADD13C,0.00197*%
%ADD14C,0.00039*%
%ADD15C,0.00079*%
%ADD56C,0.00267*%
%ADD57C,0.00200*%
D11*
X68898Y-197D02*
G03*
X65748Y-3347I0J-3150D01*
G01*
X-35433D02*
G03*
X-38583Y-197I-3150J0D01*
G01*
X2953Y0D02*
G03*
X-2953Y0I-2953J0D01*
G01*
X68898Y-197D02*
G03*
X65748Y-3347I0J-3150D01*
G01*
X-35433D02*
G03*
X-38583Y-197I-3150J0D01*
G01*
X2953Y0D02*
G03*
X-2953Y0I-2953J0D01*
G01*
X-35433Y-12795D02*
X-2953D01*
X65748D02*
Y-3347D01*
X68898Y-197D02*
X74213D01*
X-43898D02*
X-38583D01*
X2953Y-12795D02*
Y0D01*
X-2953Y-12795D02*
Y0D01*
X-35433Y-12795D02*
Y-3347D01*
X2953Y-12795D02*
X65748D01*
X-43898Y187795D02*
X74213D01*
X-35433Y-12795D02*
Y-3347D01*
X74213Y-197D02*
Y187795D01*
X-2953Y-12795D02*
Y0D01*
X65748Y-12795D02*
Y-3347D01*
X2953Y-12795D02*
Y0D01*
X-35433Y-12795D02*
X-2953D01*
X2953D02*
X65748D01*
X68898Y-197D02*
X74213D01*
X-43898D02*
X-38583D01*
X-43898D02*
Y187795D01*
D13*
X3557Y90762D02*
X26757D01*
X3557Y113962D02*
X26757D01*
X3557Y90762D02*
Y113962D01*
X26757Y90762D02*
Y113962D01*
X15157Y101181D02*
Y103543D01*
X13976Y102362D02*
X16339D01*
X3557Y113962D02*
X26757D01*
Y90762D02*
Y113962D01*
X3557Y90762D02*
X26757D01*
X3557D02*
Y113962D01*
D14*
X-1181Y10433D02*
X31496D01*
Y60433D01*
X-1181D02*
X31496D01*
X-1181Y10433D02*
Y60433D01*
X-12905Y113189D02*
X-9953D01*
Y119095D01*
X-12905Y113189D02*
Y119095D01*
X-9953D01*
X-17906Y113189D02*
X-14953D01*
Y119095D01*
X-17906Y113189D02*
Y119095D01*
X-14953D01*
X22724Y80709D02*
Y112205D01*
X-20583Y80709D02*
Y112205D01*
X22724D01*
X-20583Y80709D02*
X22724D01*
X17095Y73819D02*
X20047D01*
Y79724D01*
X17095Y73819D02*
Y79724D01*
X20047D01*
X7095Y73819D02*
X10047D01*
Y79724D01*
X7095Y73819D02*
Y79724D01*
X10047D01*
X-2905Y73819D02*
X47D01*
Y79724D01*
X-2905Y73819D02*
Y79724D01*
X47D01*
X-17906D02*
X-14953D01*
X-17906Y73819D02*
Y79724D01*
X-14953Y73819D02*
Y79724D01*
X-17906Y73819D02*
X-14953D01*
X58465Y141732D02*
Y190945D01*
X-28150Y141732D02*
Y190945D01*
Y141732D02*
X58465D01*
X-28150Y190945D02*
X58465D01*
X39591Y130709D02*
Y137008D01*
Y130709D02*
X50614D01*
X39591Y137008D02*
X50614D01*
Y130709D02*
Y137008D01*
X42150Y126476D02*
Y129429D01*
X48055Y126476D02*
Y129429D01*
X42150Y126476D02*
X48055D01*
X42150Y129429D02*
X48055D01*
X9646Y130709D02*
Y137008D01*
Y130709D02*
X20669D01*
X9646Y137008D02*
X20669D01*
Y130709D02*
Y137008D01*
X12205Y126476D02*
Y129429D01*
X18110Y126476D02*
Y129429D01*
X12205Y126476D02*
X18110D01*
X12205Y129429D02*
X18110D01*
X-19882Y130709D02*
Y137008D01*
Y130709D02*
X-8858D01*
X-19882Y137008D02*
X-8858D01*
Y130709D02*
Y137008D01*
X-17323Y126476D02*
Y129429D01*
X-11417Y126476D02*
Y129429D01*
X-17323Y126476D02*
X-11417D01*
X-17323Y129429D02*
X-11417D01*
X32791Y78445D02*
Y81398D01*
X38697Y78445D02*
Y81398D01*
X32791Y78445D02*
X38697D01*
X32791Y81398D02*
X38697D01*
X46571Y78445D02*
Y81398D01*
X40665D02*
X46571D01*
X40665Y78445D02*
X46571D01*
X40665D02*
Y81398D01*
X-11417Y111713D02*
Y114665D01*
X-17323Y111713D02*
X-11417D01*
X-17323Y114665D02*
X-11417D01*
X-17323Y111713D02*
Y114665D01*
X-17323Y107776D02*
Y110728D01*
X-11417D01*
X-17323Y107776D02*
X-11417D01*
Y110728D01*
Y92028D02*
Y94980D01*
X-17323Y92028D02*
X-11417D01*
X-17323Y94980D02*
X-11417D01*
X-17323Y92028D02*
Y94980D01*
X41732Y107776D02*
Y110728D01*
X47638D01*
X41732Y107776D02*
X47638D01*
Y110728D01*
X41732Y95965D02*
Y98917D01*
X47638D01*
X41732Y95965D02*
X47638D01*
Y98917D01*
X-17284Y54134D02*
X-14331D01*
X-17284D02*
Y60039D01*
X-14331Y54134D02*
Y60039D01*
X-17284D02*
X-14331D01*
X-7283Y54134D02*
X-4331D01*
X-7283D02*
Y60039D01*
X-4331Y54134D02*
Y60039D01*
X-7283D02*
X-4331D01*
X2716Y54134D02*
X5669D01*
X2716D02*
Y60039D01*
X5669Y54134D02*
Y60039D01*
X2716D02*
X5669D01*
X12717Y54134D02*
X15669D01*
X12717D02*
Y60039D01*
X15669Y54134D02*
Y60039D01*
X12717D02*
X15669D01*
X-17284Y14764D02*
X-14331D01*
X-17284D02*
Y20669D01*
X-14331Y14764D02*
Y20669D01*
X-17284D02*
X-14331D01*
X-7283Y14764D02*
X-4331D01*
X-7283D02*
Y20669D01*
X-4331Y14764D02*
Y20669D01*
X-7283D02*
X-4331D01*
X2716Y14764D02*
X5669D01*
X2716D02*
Y20669D01*
X5669Y14764D02*
Y20669D01*
X2716D02*
X5669D01*
X12717Y14764D02*
X15669D01*
X12717D02*
Y20669D01*
X15669Y14764D02*
Y20669D01*
X12717D02*
X15669D01*
X41732Y143815D02*
Y146768D01*
X47638D01*
X41732Y143815D02*
X47638D01*
Y146768D01*
X27953Y140256D02*
Y143209D01*
X22047Y140256D02*
X27953D01*
X22047Y143209D02*
X27953D01*
X22047Y140256D02*
Y143209D01*
X37795Y140256D02*
Y143209D01*
X31890Y140256D02*
X37795D01*
X31890Y143209D02*
X37795D01*
X31890Y140256D02*
Y143209D01*
X-17520Y147244D02*
X-11220D01*
Y136221D02*
Y147244D01*
X-17520Y136221D02*
Y147244D01*
Y136221D02*
X-11220D01*
X-7677Y147244D02*
X-1378D01*
Y136221D02*
Y147244D01*
X-7677Y136221D02*
Y147244D01*
Y136221D02*
X-1378D01*
X2165Y147244D02*
X8465D01*
Y136221D02*
Y147244D01*
X2165Y136221D02*
Y147244D01*
Y136221D02*
X8465D01*
X2362Y124508D02*
Y127461D01*
X8268D01*
X2362Y124508D02*
X8268D01*
Y127461D01*
X-7480Y124508D02*
Y127461D01*
X-1575D01*
X-7480Y124508D02*
X-1575D01*
Y127461D01*
X-17323Y124508D02*
Y127461D01*
X-11417D01*
X-17323Y124508D02*
X-11417D01*
Y127461D01*
Y99902D02*
Y102854D01*
X-17323Y99902D02*
X-11417D01*
X-17323Y102854D02*
X-11417D01*
X-17323Y99902D02*
Y102854D01*
X24508Y77756D02*
X27461D01*
Y71850D02*
Y77756D01*
X24508Y71850D02*
Y77756D01*
Y71850D02*
X27461D01*
X-11417Y103839D02*
Y106791D01*
X-17323Y103839D02*
X-11417D01*
X-17323Y106791D02*
X-11417D01*
X-17323Y103839D02*
Y106791D01*
X41732Y103839D02*
Y106791D01*
X47638D01*
X41732Y103839D02*
X47638D01*
Y106791D01*
X20571Y71850D02*
X23524D01*
X20571D02*
Y77756D01*
X23524Y71850D02*
Y77756D01*
X20571D02*
X23524D01*
X47638Y111713D02*
Y114665D01*
X41732Y111713D02*
X47638D01*
X41732Y114665D02*
X47638D01*
X41732Y111713D02*
Y114665D01*
X47638Y92028D02*
Y94980D01*
X41732Y92028D02*
X47638D01*
X41732Y94980D02*
X47638D01*
X41732Y92028D02*
Y94980D01*
X47638Y99902D02*
Y102854D01*
X41732Y99902D02*
X47638D01*
X41732Y102854D02*
X47638D01*
X41732Y99902D02*
Y102854D01*
X47638Y88090D02*
Y91043D01*
X41732Y88090D02*
X47638D01*
X41732Y91043D02*
X47638D01*
X41732Y88090D02*
Y91043D01*
X-17323Y95965D02*
Y98917D01*
X-11417D01*
X-17323Y95965D02*
X-11417D01*
Y98917D01*
X-19961Y22441D02*
Y53937D01*
X23346Y22441D02*
Y53937D01*
X-19961D02*
X23346D01*
X-19961Y22441D02*
X23346D01*
X28780Y53150D02*
X48465D01*
X28780Y21654D02*
X48465D01*
X28780D02*
Y53150D01*
X48465Y21654D02*
Y53150D01*
X47638Y140256D02*
Y143209D01*
X41732Y140256D02*
X47638D01*
X41732Y143209D02*
X47638D01*
X41732Y140256D02*
Y143209D01*
X47638Y132382D02*
Y135335D01*
X41732Y132382D02*
X47638D01*
X41732Y135335D02*
X47638D01*
X41732Y132382D02*
Y135335D01*
X37795Y132382D02*
Y135335D01*
X31890Y132382D02*
X37795D01*
X31890Y135335D02*
X37795D01*
X31890Y132382D02*
Y135335D01*
Y143815D02*
Y146768D01*
X37795D01*
X31890Y143815D02*
X37795D01*
Y146768D01*
X27953Y132382D02*
Y135335D01*
X22047Y132382D02*
X27953D01*
X22047Y135335D02*
X27953D01*
X22047Y132382D02*
Y135335D01*
Y143815D02*
Y146768D01*
X27953D01*
X22047Y143815D02*
X27953D01*
Y146768D01*
X7087Y78740D02*
X16535D01*
X7087Y70866D02*
X16535D01*
X7087D02*
Y78740D01*
X16535Y70866D02*
Y78740D01*
X15157Y34449D02*
Y36417D01*
X14173Y35433D02*
X16142D01*
X-2165Y9449D02*
Y17402D01*
X32480Y53465D02*
Y61417D01*
X-2165D02*
X32480D01*
X-2165Y9449D02*
X32480D01*
Y17402D01*
X-2165Y53425D02*
Y61417D01*
X-9843Y53425D02*
X-2165D01*
X32480Y17402D02*
X40157D01*
X-9843D02*
Y53425D01*
X40157Y17402D02*
Y53465D01*
X-9843Y17402D02*
X-2165D01*
X32480Y53465D02*
X40157D01*
X-12905Y113189D02*
X-9953D01*
X-12905Y119095D02*
X-9953D01*
Y113189D02*
Y119095D01*
X-12905Y113189D02*
Y119095D01*
X-11429Y115157D02*
Y117126D01*
X-12413Y116142D02*
X-10445D01*
X-17906Y113189D02*
X-14953D01*
X-17906Y119095D02*
X-14953D01*
Y113189D02*
Y119095D01*
X-17906Y113189D02*
Y119095D01*
X-16429Y115157D02*
Y117126D01*
X-17413Y116142D02*
X-15445D01*
X1071Y95472D02*
Y97441D01*
X87Y96457D02*
X2055D01*
X-20583Y80709D02*
X22724D01*
Y112205D01*
X-20583Y80709D02*
Y112205D01*
X22724D01*
X17095Y73819D02*
X20047D01*
X17095Y79724D02*
X20047D01*
Y73819D02*
Y79724D01*
X17095Y73819D02*
Y79724D01*
X18571Y75787D02*
Y77756D01*
X17587Y76772D02*
X19555D01*
X7095Y73819D02*
X10047D01*
X7095Y79724D02*
X10047D01*
Y73819D02*
Y79724D01*
X7095Y73819D02*
Y79724D01*
X8571Y75787D02*
Y77756D01*
X7587Y76772D02*
X9555D01*
X-2905Y73819D02*
X47D01*
X-2905Y79724D02*
X47D01*
Y73819D02*
Y79724D01*
X-2905Y73819D02*
Y79724D01*
X-1429Y75787D02*
Y77756D01*
X-2413Y76772D02*
X-445D01*
X-17906Y79724D02*
X-14953D01*
X-17906Y73819D02*
X-14953D01*
X-17906D02*
Y79724D01*
X-14953Y73819D02*
Y79724D01*
X-16429Y75787D02*
Y77756D01*
X-17413Y76772D02*
X-15445D01*
X-28150Y141732D02*
X58465D01*
X-28150D02*
Y190945D01*
X58465D01*
Y141732D02*
Y190945D01*
X15157Y152559D02*
Y154528D01*
X14173Y153543D02*
X16142D01*
X45102Y132874D02*
Y134843D01*
X44118Y133858D02*
X46087D01*
X39591Y130709D02*
X50614D01*
X39591Y137008D02*
X50614D01*
X39591Y130709D02*
Y137008D01*
X50614Y130709D02*
Y137008D01*
X42150Y126476D02*
X48055D01*
X42150Y129429D02*
X48055D01*
X42150Y126476D02*
Y129429D01*
X48055Y126476D02*
Y129429D01*
X45102Y126969D02*
Y128937D01*
X44118Y127953D02*
X46087D01*
X15157Y132874D02*
Y134843D01*
X14173Y133858D02*
X16142D01*
X9646Y130709D02*
X20669D01*
X9646Y137008D02*
X20669D01*
X9646Y130709D02*
Y137008D01*
X20669Y130709D02*
Y137008D01*
X12205Y126476D02*
X18110D01*
X12205Y129429D02*
X18110D01*
X12205Y126476D02*
Y129429D01*
X18110Y126476D02*
Y129429D01*
X15157Y126969D02*
Y128937D01*
X14173Y127953D02*
X16142D01*
X-14370Y132874D02*
Y134843D01*
X-15354Y133858D02*
X-13386D01*
X-19882Y130709D02*
X-8858D01*
X-19882Y137008D02*
X-8858D01*
X-19882Y130709D02*
Y137008D01*
X-8858Y130709D02*
Y137008D01*
X-17323Y126476D02*
X-11417D01*
X-17323Y129429D02*
X-11417D01*
X-17323Y126476D02*
Y129429D01*
X-11417Y126476D02*
Y129429D01*
X-14370Y126969D02*
Y128937D01*
X-15354Y127953D02*
X-13386D01*
X32791Y78445D02*
X38697D01*
X32791Y81398D02*
X38697D01*
X32791Y78445D02*
Y81398D01*
X38697Y78445D02*
Y81398D01*
X35744Y78937D02*
Y80905D01*
X34760Y79921D02*
X36728D01*
X46571Y78445D02*
Y81398D01*
X40665Y78445D02*
Y81398D01*
X46571D01*
X40665Y78445D02*
X46571D01*
X42634Y79921D02*
X44602D01*
X43618Y78937D02*
Y80905D01*
X-11417Y111713D02*
Y114665D01*
X-17323Y111713D02*
Y114665D01*
Y111713D02*
X-11417D01*
X-17323Y114665D02*
X-11417D01*
X-15354Y113189D02*
X-13386D01*
X-14370Y112205D02*
Y114173D01*
X-17323Y107776D02*
Y110728D01*
X-11417Y107776D02*
Y110728D01*
X-17323D02*
X-11417D01*
X-17323Y107776D02*
X-11417D01*
X-15354Y109252D02*
X-13386D01*
X-14370Y108268D02*
Y110236D01*
X-11417Y92028D02*
Y94980D01*
X-17323Y92028D02*
Y94980D01*
Y92028D02*
X-11417D01*
X-17323Y94980D02*
X-11417D01*
X-15354Y93504D02*
X-13386D01*
X-14370Y92520D02*
Y94488D01*
X41732Y107776D02*
Y110728D01*
X47638Y107776D02*
Y110728D01*
X41732D02*
X47638D01*
X41732Y107776D02*
X47638D01*
X43701Y109252D02*
X45669D01*
X44685Y108268D02*
Y110236D01*
X41732Y95965D02*
Y98917D01*
X47638Y95965D02*
Y98917D01*
X41732D02*
X47638D01*
X41732Y95965D02*
X47638D01*
X43701Y97441D02*
X45669D01*
X44685Y96457D02*
Y98425D01*
X-17284Y54134D02*
X-14331D01*
X-17284Y60039D02*
X-14331D01*
X-17284Y54134D02*
Y60039D01*
X-14331Y54134D02*
Y60039D01*
X-15807Y56102D02*
Y58071D01*
X-16791Y57087D02*
X-14823D01*
X-7283Y54134D02*
X-4331D01*
X-7283Y60039D02*
X-4331D01*
X-7283Y54134D02*
Y60039D01*
X-4331Y54134D02*
Y60039D01*
X-5807Y56102D02*
Y58071D01*
X-6791Y57087D02*
X-4823D01*
X2716Y54134D02*
X5669D01*
X2716Y60039D02*
X5669D01*
X2716Y54134D02*
Y60039D01*
X5669Y54134D02*
Y60039D01*
X4193Y56102D02*
Y58071D01*
X3209Y57087D02*
X5177D01*
X12717Y54134D02*
X15669D01*
X12717Y60039D02*
X15669D01*
X12717Y54134D02*
Y60039D01*
X15669Y54134D02*
Y60039D01*
X14193Y56102D02*
Y58071D01*
X13209Y57087D02*
X15177D01*
X-17284Y14764D02*
X-14331D01*
X-17284Y20669D02*
X-14331D01*
X-17284Y14764D02*
Y20669D01*
X-14331Y14764D02*
Y20669D01*
X-15807Y16732D02*
Y18701D01*
X-16791Y17717D02*
X-14823D01*
X-7283Y14764D02*
X-4331D01*
X-7283Y20669D02*
X-4331D01*
X-7283Y14764D02*
Y20669D01*
X-4331Y14764D02*
Y20669D01*
X-5807Y16732D02*
Y18701D01*
X-6791Y17717D02*
X-4823D01*
X2716Y14764D02*
X5669D01*
X2716Y20669D02*
X5669D01*
X2716Y14764D02*
Y20669D01*
X5669Y14764D02*
Y20669D01*
X4193Y16732D02*
Y18701D01*
X3209Y17717D02*
X5177D01*
X12717Y14764D02*
X15669D01*
X12717Y20669D02*
X15669D01*
X12717Y14764D02*
Y20669D01*
X15669Y14764D02*
Y20669D01*
X14193Y16732D02*
Y18701D01*
X13209Y17717D02*
X15177D01*
X41732Y143815D02*
Y146768D01*
X47638Y143815D02*
Y146768D01*
X41732D02*
X47638D01*
X41732Y143815D02*
X47638D01*
X43701Y145291D02*
X45669D01*
X44685Y144307D02*
Y146276D01*
X27953Y140256D02*
Y143209D01*
X22047Y140256D02*
Y143209D01*
Y140256D02*
X27953D01*
X22047Y143209D02*
X27953D01*
X24016Y141732D02*
X25984D01*
X25000Y140748D02*
Y142717D01*
X37795Y140256D02*
Y143209D01*
X31890Y140256D02*
Y143209D01*
Y140256D02*
X37795D01*
X31890Y143209D02*
X37795D01*
X33858Y141732D02*
X35827D01*
X34843Y140748D02*
Y142717D01*
X-15354Y141732D02*
X-13386D01*
X-14370Y140748D02*
Y142717D01*
X-11220Y136221D02*
Y147244D01*
X-17520Y136221D02*
Y147244D01*
X-11220D01*
X-17520Y136221D02*
X-11220D01*
X-5512Y141732D02*
X-3543D01*
X-4528Y140748D02*
Y142717D01*
X-1378Y136221D02*
Y147244D01*
X-7677Y136221D02*
Y147244D01*
X-1378D01*
X-7677Y136221D02*
X-1378D01*
X4331Y141732D02*
X6299D01*
X5315Y140748D02*
Y142717D01*
X8465Y136221D02*
Y147244D01*
X2165Y136221D02*
Y147244D01*
X8465D01*
X2165Y136221D02*
X8465D01*
X2362Y124508D02*
Y127461D01*
X8268Y124508D02*
Y127461D01*
X2362D02*
X8268D01*
X2362Y124508D02*
X8268D01*
X4331Y125984D02*
X6299D01*
X5315Y125000D02*
Y126969D01*
X-7480Y124508D02*
Y127461D01*
X-1575Y124508D02*
Y127461D01*
X-7480D02*
X-1575D01*
X-7480Y124508D02*
X-1575D01*
X-5512Y125984D02*
X-3543D01*
X-4528Y125000D02*
Y126969D01*
X-17323Y124508D02*
Y127461D01*
X-11417Y124508D02*
Y127461D01*
X-17323D02*
X-11417D01*
X-17323Y124508D02*
X-11417D01*
X-15354Y125984D02*
X-13386D01*
X-14370Y125000D02*
Y126969D01*
X-11417Y99902D02*
Y102854D01*
X-17323Y99902D02*
Y102854D01*
Y99902D02*
X-11417D01*
X-17323Y102854D02*
X-11417D01*
X-15354Y101378D02*
X-13386D01*
X-14370Y100394D02*
Y102362D01*
X24508Y77756D02*
X27461D01*
X24508Y71850D02*
X27461D01*
Y77756D01*
X24508Y71850D02*
Y77756D01*
X25984Y73819D02*
Y75787D01*
X25000Y74803D02*
X26969D01*
X-11417Y103839D02*
Y106791D01*
X-17323Y103839D02*
Y106791D01*
Y103839D02*
X-11417D01*
X-17323Y106791D02*
X-11417D01*
X-15354Y105315D02*
X-13386D01*
X-14370Y104331D02*
Y106299D01*
X41732Y103839D02*
Y106791D01*
X47638Y103839D02*
Y106791D01*
X41732D02*
X47638D01*
X41732Y103839D02*
X47638D01*
X43701Y105315D02*
X45669D01*
X44685Y104331D02*
Y106299D01*
X20571Y71850D02*
X23524D01*
X20571Y77756D02*
X23524D01*
X20571Y71850D02*
Y77756D01*
X23524Y71850D02*
Y77756D01*
X22047Y73819D02*
Y75787D01*
X21063Y74803D02*
X23031D01*
X47638Y111713D02*
Y114665D01*
X41732Y111713D02*
Y114665D01*
Y111713D02*
X47638D01*
X41732Y114665D02*
X47638D01*
X43701Y113189D02*
X45669D01*
X44685Y112205D02*
Y114173D01*
X47638Y92028D02*
Y94980D01*
X41732Y92028D02*
Y94980D01*
Y92028D02*
X47638D01*
X41732Y94980D02*
X47638D01*
X43701Y93504D02*
X45669D01*
X44685Y92520D02*
Y94488D01*
X47638Y99902D02*
Y102854D01*
X41732Y99902D02*
Y102854D01*
Y99902D02*
X47638D01*
X41732Y102854D02*
X47638D01*
X43701Y101378D02*
X45669D01*
X44685Y100394D02*
Y102362D01*
X47638Y88090D02*
Y91043D01*
X41732Y88090D02*
Y91043D01*
Y88090D02*
X47638D01*
X41732Y91043D02*
X47638D01*
X43701Y89567D02*
X45669D01*
X44685Y88583D02*
Y90551D01*
X-17323Y95965D02*
Y98917D01*
X-11417Y95965D02*
Y98917D01*
X-17323D02*
X-11417D01*
X-17323Y95965D02*
X-11417D01*
X-15354Y97441D02*
X-13386D01*
X-14370Y96457D02*
Y98425D01*
X1693Y37205D02*
Y39173D01*
X709Y38189D02*
X2677D01*
X-19961Y22441D02*
X23346D01*
X-19961D02*
Y53937D01*
X23346Y22441D02*
Y53937D01*
X-19961D02*
X23346D01*
X28780Y21654D02*
X48465D01*
X28780D02*
Y53150D01*
X48465Y21654D02*
Y53150D01*
X28780D02*
X48465D01*
X37638Y37402D02*
X39606D01*
X38622Y36417D02*
Y38386D01*
X47638Y140256D02*
Y143209D01*
X41732Y140256D02*
Y143209D01*
Y140256D02*
X47638D01*
X41732Y143209D02*
X47638D01*
X43701Y141732D02*
X45669D01*
X44685Y140748D02*
Y142717D01*
X47638Y132382D02*
Y135335D01*
X41732Y132382D02*
Y135335D01*
Y132382D02*
X47638D01*
X41732Y135335D02*
X47638D01*
X43701Y133858D02*
X45669D01*
X44685Y132874D02*
Y134843D01*
X37795Y132382D02*
Y135335D01*
X31890Y132382D02*
Y135335D01*
Y132382D02*
X37795D01*
X31890Y135335D02*
X37795D01*
X33858Y133858D02*
X35827D01*
X34843Y132874D02*
Y134843D01*
X31890Y143815D02*
Y146768D01*
X37795Y143815D02*
Y146768D01*
X31890D02*
X37795D01*
X31890Y143815D02*
X37795D01*
X33858Y145291D02*
X35827D01*
X34843Y144307D02*
Y146276D01*
X27953Y132382D02*
Y135335D01*
X22047Y132382D02*
Y135335D01*
Y132382D02*
X27953D01*
X22047Y135335D02*
X27953D01*
X24016Y133858D02*
X25984D01*
X25000Y132874D02*
Y134843D01*
X22047Y143815D02*
Y146768D01*
X27953Y143815D02*
Y146768D01*
X22047D02*
X27953D01*
X22047Y143815D02*
X27953D01*
X24016Y145291D02*
X25984D01*
X25000Y144307D02*
Y146276D01*
X10827Y74803D02*
X12795D01*
X11811Y73819D02*
Y75787D01*
X7087Y70866D02*
X16535D01*
X7087Y78740D02*
X16535D01*
Y70866D02*
Y78740D01*
X7087Y70866D02*
Y78740D01*
D15*
X15047Y73819D02*
Y79724D01*
X12094Y73819D02*
Y79724D01*
X15047D01*
X12094Y73819D02*
X15047D01*
X5047D02*
Y79724D01*
X2094Y73819D02*
Y79724D01*
X5047D01*
X2094Y73819D02*
X5047D01*
X-4953D02*
Y79724D01*
X-7905Y73819D02*
Y79724D01*
X-4953D01*
X-7905Y73819D02*
X-4953D01*
X-9953D02*
Y79724D01*
X-12905Y73819D02*
Y79724D01*
X-9953D01*
X-12905Y73819D02*
X-9953D01*
X43307Y31909D02*
X49213D01*
X43307Y28957D02*
X49213D01*
X43307D02*
Y31909D01*
X49213Y28957D02*
Y31909D01*
X43307Y27972D02*
X49213D01*
X43307Y25020D02*
X49213D01*
X43307D02*
Y27972D01*
X49213Y25020D02*
Y27972D01*
X-18701Y48957D02*
X-12795D01*
X-18701Y51910D02*
X-12795D01*
Y48957D02*
Y51910D01*
X-18701Y48957D02*
Y51910D01*
Y45020D02*
X-12795D01*
X-18701Y47972D02*
X-12795D01*
Y45020D02*
Y47972D01*
X-18701Y45020D02*
Y47972D01*
X-17323Y84153D02*
X-11417D01*
X-17323Y87106D02*
X-11417D01*
X-17323Y84153D02*
Y87106D01*
X-11417Y84153D02*
Y87106D01*
X-17323Y80216D02*
X-11417D01*
X-17323Y83169D02*
X-11417D01*
X-17323Y80216D02*
Y83169D01*
X-11417Y80216D02*
Y83169D01*
X19587Y71850D02*
Y77756D01*
X16634Y71850D02*
Y77756D01*
Y71850D02*
X19587D01*
X16634Y77756D02*
X19587D01*
X47598Y54134D02*
Y60039D01*
X44646Y54134D02*
Y60039D01*
Y54134D02*
X47598D01*
X44646Y60039D02*
X47598D01*
X-12284Y14764D02*
Y20669D01*
X-9331Y14764D02*
Y20669D01*
X-12284D02*
X-9331D01*
X-12284Y14764D02*
X-9331D01*
X-2283D02*
Y20669D01*
X669Y14764D02*
Y20669D01*
X-2283D02*
X669D01*
X-2283Y14764D02*
X669D01*
X7717D02*
Y20669D01*
X10669Y14764D02*
Y20669D01*
X7717D02*
X10669D01*
X7717Y14764D02*
X10669D01*
X17717D02*
Y20669D01*
X20669Y14764D02*
Y20669D01*
X17717D02*
X20669D01*
X17717Y14764D02*
X20669D01*
X44646D02*
Y20669D01*
X47598Y14764D02*
Y20669D01*
X44646D02*
X47598D01*
X44646Y14764D02*
X47598D01*
X4035Y71850D02*
Y77756D01*
X6988Y71850D02*
Y77756D01*
X4035D02*
X6988D01*
X4035Y71850D02*
X6988D01*
X22047Y127461D02*
X27953D01*
X22047Y124508D02*
X27953D01*
Y127461D01*
X22047Y124508D02*
Y127461D01*
X31890D02*
X37795D01*
X31890Y124508D02*
X37795D01*
Y127461D01*
X31890Y124508D02*
Y127461D01*
X41732D02*
X47638D01*
X41732Y124508D02*
X47638D01*
Y127461D01*
X41732Y124508D02*
Y127461D01*
X22047Y131398D02*
X27953D01*
X22047Y128445D02*
X27953D01*
Y131398D01*
X22047Y128445D02*
Y131398D01*
X31890D02*
X37795D01*
X31890Y128445D02*
X37795D01*
Y131398D01*
X31890Y128445D02*
Y131398D01*
X41732D02*
X47638D01*
X41732Y128445D02*
X47638D01*
Y131398D01*
X41732Y128445D02*
Y131398D01*
X22047Y136319D02*
X27953D01*
X22047Y139272D02*
X27953D01*
X22047Y136319D02*
Y139272D01*
X27953Y136319D02*
Y139272D01*
X31890Y136319D02*
X37795D01*
X31890Y139272D02*
X37795D01*
X31890Y136319D02*
Y139272D01*
X37795Y136319D02*
Y139272D01*
X41732Y136319D02*
X47638D01*
X41732Y139272D02*
X47638D01*
X41732Y136319D02*
Y139272D01*
X47638Y136319D02*
Y139272D01*
X-17323Y135335D02*
X-11417D01*
X-17323Y132382D02*
X-11417D01*
Y135335D01*
X-17323Y132382D02*
Y135335D01*
X-7480D02*
X-1575D01*
X-7480Y132382D02*
X-1575D01*
Y135335D01*
X-7480Y132382D02*
Y135335D01*
X2362D02*
X8268D01*
X2362Y132382D02*
X8268D01*
Y135335D01*
X2362Y132382D02*
Y135335D01*
X-17323Y131398D02*
X-11417D01*
X-17323Y128445D02*
X-11417D01*
Y131398D01*
X-17323Y128445D02*
Y131398D01*
X-7480D02*
X-1575D01*
X-7480Y128445D02*
X-1575D01*
Y131398D01*
X-7480Y128445D02*
Y131398D01*
X2362D02*
X8268D01*
X2362Y128445D02*
X8268D01*
Y131398D01*
X2362Y128445D02*
Y131398D01*
X12094Y79724D02*
X15047D01*
X12587Y76772D02*
X14555D01*
X13571Y75787D02*
Y77756D01*
X15047Y73819D02*
Y79724D01*
X12094Y73819D02*
Y79724D01*
Y73819D02*
X15047D01*
X2094Y79724D02*
X5047D01*
X2587Y76772D02*
X4555D01*
X3571Y75787D02*
Y77756D01*
X5047Y73819D02*
Y79724D01*
X2094Y73819D02*
Y79724D01*
Y73819D02*
X5047D01*
X-7905Y79724D02*
X-4953D01*
X-7413Y76772D02*
X-5445D01*
X-6429Y75787D02*
Y77756D01*
X-4953Y73819D02*
Y79724D01*
X-7905Y73819D02*
Y79724D01*
Y73819D02*
X-4953D01*
X-12905Y79724D02*
X-9953D01*
X-12413Y76772D02*
X-10445D01*
X-11429Y75787D02*
Y77756D01*
X-9953Y73819D02*
Y79724D01*
X-12905Y73819D02*
Y79724D01*
Y73819D02*
X-9953D01*
X43307Y28957D02*
Y31909D01*
X46260Y29449D02*
Y31417D01*
X45276Y30433D02*
X47244D01*
X43307Y31909D02*
X49213D01*
X43307Y28957D02*
X49213D01*
Y31909D01*
X43307Y25020D02*
Y27972D01*
X46260Y25512D02*
Y27480D01*
X45276Y26496D02*
X47244D01*
X43307Y27972D02*
X49213D01*
X43307Y25020D02*
X49213D01*
Y27972D01*
X-12795Y48957D02*
Y51910D01*
X-15748Y49449D02*
Y51417D01*
X-16732Y50433D02*
X-14764D01*
X-18701Y48957D02*
X-12795D01*
X-18701Y51910D02*
X-12795D01*
X-18701Y48957D02*
Y51910D01*
X-12795Y45020D02*
Y47972D01*
X-15748Y45512D02*
Y47480D01*
X-16732Y46496D02*
X-14764D01*
X-18701Y45020D02*
X-12795D01*
X-18701Y47972D02*
X-12795D01*
X-18701Y45020D02*
Y47972D01*
X-17323Y84153D02*
Y87106D01*
X-14370Y84646D02*
Y86614D01*
X-15354Y85630D02*
X-13386D01*
X-17323Y84153D02*
X-11417D01*
X-17323Y87106D02*
X-11417D01*
Y84153D02*
Y87106D01*
X-17323Y80216D02*
Y83169D01*
X-14370Y80709D02*
Y82677D01*
X-15354Y81693D02*
X-13386D01*
X-17323Y80216D02*
X-11417D01*
X-17323Y83169D02*
X-11417D01*
Y80216D02*
Y83169D01*
X16634Y71850D02*
X19587D01*
X17126Y74803D02*
X19094D01*
X18110Y73819D02*
Y75787D01*
X19587Y71850D02*
Y77756D01*
X16634Y71850D02*
Y77756D01*
X19587D01*
X44646Y54134D02*
X47598D01*
X45138Y57087D02*
X47106D01*
X46122Y56102D02*
Y58071D01*
X47598Y54134D02*
Y60039D01*
X44646Y54134D02*
Y60039D01*
X47598D01*
X-12284Y20669D02*
X-9331D01*
X-11791Y17717D02*
X-9823D01*
X-10807Y16732D02*
Y18701D01*
X-12284Y14764D02*
Y20669D01*
X-9331Y14764D02*
Y20669D01*
X-12284Y14764D02*
X-9331D01*
X-2283Y20669D02*
X669D01*
X-1791Y17717D02*
X177D01*
X-807Y16732D02*
Y18701D01*
X-2283Y14764D02*
Y20669D01*
X669Y14764D02*
Y20669D01*
X-2283Y14764D02*
X669D01*
X7717Y20669D02*
X10669D01*
X8209Y17717D02*
X10177D01*
X9193Y16732D02*
Y18701D01*
X7717Y14764D02*
Y20669D01*
X10669Y14764D02*
Y20669D01*
X7717Y14764D02*
X10669D01*
X17717Y20669D02*
X20669D01*
X18209Y17717D02*
X20177D01*
X19193Y16732D02*
Y18701D01*
X17717Y14764D02*
Y20669D01*
X20669Y14764D02*
Y20669D01*
X17717Y14764D02*
X20669D01*
X44646Y20669D02*
X47598D01*
X45138Y17717D02*
X47106D01*
X46122Y16732D02*
Y18701D01*
X44646Y14764D02*
Y20669D01*
X47598Y14764D02*
Y20669D01*
X44646Y14764D02*
X47598D01*
X4035Y77756D02*
X6988D01*
X4528Y74803D02*
X6496D01*
X5512Y73819D02*
Y75787D01*
X4035Y71850D02*
Y77756D01*
X6988Y71850D02*
Y77756D01*
X4035Y71850D02*
X6988D01*
X27953Y124508D02*
Y127461D01*
X25000Y125000D02*
Y126969D01*
X24016Y125984D02*
X25984D01*
X22047Y127461D02*
X27953D01*
X22047Y124508D02*
X27953D01*
X22047D02*
Y127461D01*
X37795Y124508D02*
Y127461D01*
X34843Y125000D02*
Y126969D01*
X33858Y125984D02*
X35827D01*
X31890Y127461D02*
X37795D01*
X31890Y124508D02*
X37795D01*
X31890D02*
Y127461D01*
X47638Y124508D02*
Y127461D01*
X44685Y125000D02*
Y126969D01*
X43701Y125984D02*
X45669D01*
X41732Y127461D02*
X47638D01*
X41732Y124508D02*
X47638D01*
X41732D02*
Y127461D01*
X27953Y128445D02*
Y131398D01*
X25000Y128937D02*
Y130905D01*
X24016Y129921D02*
X25984D01*
X22047Y131398D02*
X27953D01*
X22047Y128445D02*
X27953D01*
X22047D02*
Y131398D01*
X37795Y128445D02*
Y131398D01*
X34843Y128937D02*
Y130905D01*
X33858Y129921D02*
X35827D01*
X31890Y131398D02*
X37795D01*
X31890Y128445D02*
X37795D01*
X31890D02*
Y131398D01*
X47638Y128445D02*
Y131398D01*
X44685Y128937D02*
Y130905D01*
X43701Y129921D02*
X45669D01*
X41732Y131398D02*
X47638D01*
X41732Y128445D02*
X47638D01*
X41732D02*
Y131398D01*
X22047Y136319D02*
Y139272D01*
X25000Y136811D02*
Y138779D01*
X24016Y137795D02*
X25984D01*
X22047Y136319D02*
X27953D01*
X22047Y139272D02*
X27953D01*
Y136319D02*
Y139272D01*
X31890Y136319D02*
Y139272D01*
X34843Y136811D02*
Y138779D01*
X33858Y137795D02*
X35827D01*
X31890Y136319D02*
X37795D01*
X31890Y139272D02*
X37795D01*
Y136319D02*
Y139272D01*
X41732Y136319D02*
Y139272D01*
X44685Y136811D02*
Y138779D01*
X43701Y137795D02*
X45669D01*
X41732Y136319D02*
X47638D01*
X41732Y139272D02*
X47638D01*
Y136319D02*
Y139272D01*
X-11417Y132382D02*
Y135335D01*
X-14370Y132874D02*
Y134843D01*
X-15354Y133858D02*
X-13386D01*
X-17323Y135335D02*
X-11417D01*
X-17323Y132382D02*
X-11417D01*
X-17323D02*
Y135335D01*
X-1575Y132382D02*
Y135335D01*
X-4528Y132874D02*
Y134843D01*
X-5512Y133858D02*
X-3543D01*
X-7480Y135335D02*
X-1575D01*
X-7480Y132382D02*
X-1575D01*
X-7480D02*
Y135335D01*
X8268Y132382D02*
Y135335D01*
X5315Y132874D02*
Y134843D01*
X4331Y133858D02*
X6299D01*
X2362Y135335D02*
X8268D01*
X2362Y132382D02*
X8268D01*
X2362D02*
Y135335D01*
X-11417Y128445D02*
Y131398D01*
X-14370Y128937D02*
Y130905D01*
X-15354Y129921D02*
X-13386D01*
X-17323Y131398D02*
X-11417D01*
X-17323Y128445D02*
X-11417D01*
X-17323D02*
Y131398D01*
X-1575Y128445D02*
Y131398D01*
X-4528Y128937D02*
Y130905D01*
X-5512Y129921D02*
X-3543D01*
X-7480Y131398D02*
X-1575D01*
X-7480Y128445D02*
X-1575D01*
X-7480D02*
Y131398D01*
X8268Y128445D02*
Y131398D01*
X5315Y128937D02*
Y130905D01*
X4331Y129921D02*
X6299D01*
X2362Y131398D02*
X8268D01*
X2362Y128445D02*
X8268D01*
X2362D02*
Y131398D01*
D56*
X-31680Y176378D02*
G03*
X-31680Y176378I-800J0D01*
G01*
X63595D02*
G03*
X63595Y176378I-800J0D01*
G01*
D57*
X43885Y152743D02*
X44285Y153543D01*
X43885Y154343D01*
X44685Y153943D01*
X45485Y154343D01*
X45085Y153543D01*
X45485Y152743D01*
X44685Y153143D01*
X43885Y152743D01*
X34043D02*
X34442Y153543D01*
X34043Y154343D01*
X34843Y153943D01*
X35642Y154343D01*
X35243Y153543D01*
X35642Y152743D01*
X34843Y153143D01*
X34043Y152743D01*
X24200D02*
X24600Y153543D01*
X24200Y154343D01*
X25000Y153943D01*
X25800Y154343D01*
X25400Y153543D01*
X25800Y152743D01*
X25000Y153143D01*
X24200Y152743D01*
X14357D02*
X14758Y153543D01*
X14357Y154343D01*
X15157Y153943D01*
X15958Y154343D01*
X15558Y153543D01*
X15958Y152743D01*
X15157Y153143D01*
X14357Y152743D01*
X4515D02*
X4915Y153543D01*
X4515Y154343D01*
X5315Y153943D01*
X6115Y154343D01*
X5715Y153543D01*
X6115Y152743D01*
X5315Y153143D01*
X4515Y152743D01*
X-5328D02*
X-4928Y153543D01*
X-5328Y154343D01*
X-4528Y153943D01*
X-3728Y154343D01*
X-4128Y153543D01*
X-3728Y152743D01*
X-4528Y153143D01*
X-5328Y152743D01*
X-15170D02*
X-14770Y153543D01*
X-15170Y154343D01*
X-14370Y153943D01*
X-13570Y154343D01*
X-13970Y153543D01*
X-13570Y152743D01*
X-14370Y153143D01*
X-15170Y152743D01*
X14193Y27743D02*
X14593Y28143D01*
X14993D01*
X14593Y28543D01*
X14993Y28943D01*
X14593D01*
X14193Y29343D01*
X13793Y28943D01*
X13393D01*
X13793Y28543D01*
X13393Y28143D01*
X13793D01*
X14193Y27743D01*
X42992Y122743D02*
X43392Y123143D01*
X43792D01*
X43392Y123543D01*
X43792Y123943D01*
X43392D01*
X42992Y124343D01*
X42592Y123943D01*
X42192D01*
X42592Y123543D01*
X42192Y123143D01*
X42592D01*
X42992Y122743D01*
X33150D02*
X33550Y123143D01*
X33950D01*
X33550Y123543D01*
X33950Y123943D01*
X33550D01*
X33150Y124343D01*
X32750Y123943D01*
X32350D01*
X32750Y123543D01*
X32350Y123143D01*
X32750D01*
X33150Y122743D01*
X3622Y122743D02*
X4022Y123143D01*
X4422D01*
X4022Y123543D01*
X4422Y123943D01*
X4022D01*
X3622Y124343D01*
X3222Y123943D01*
X2822D01*
X3222Y123543D01*
X2822Y123143D01*
X3222D01*
X3622Y122743D01*
X-6221D02*
X-5821Y123143D01*
X-5421D01*
X-5821Y123543D01*
X-5421Y123943D01*
X-5821D01*
X-6221Y124343D01*
X-6621Y123943D01*
X-7021D01*
X-6621Y123543D01*
X-7021Y123143D01*
X-6621D01*
X-6221Y122743D01*
X39787Y127153D02*
X40187Y127553D01*
X40587D01*
X40187Y127953D01*
X40587Y128353D01*
X40187D01*
X39787Y128753D01*
X39387Y128353D01*
X38987D01*
X39387Y127953D01*
X38987Y127553D01*
X39387D01*
X39787Y127153D01*
X9843Y126956D02*
X10243Y127356D01*
X10643D01*
X10243Y127756D01*
X10643Y128156D01*
X10243D01*
X9843Y128556D01*
X9443Y128156D01*
X9042D01*
X9443Y127756D01*
X9042Y127356D01*
X9443D01*
X9843Y126956D01*
X-19685Y127153D02*
X-19285Y127553D01*
X-18885D01*
X-19285Y127953D01*
X-18885Y128353D01*
X-19285D01*
X-19685Y128753D01*
X-20085Y128353D01*
X-20485D01*
X-20085Y127953D01*
X-20485Y127553D01*
X-20085D01*
X-19685Y127153D01*
X-20276Y-800D02*
X-19876Y-400D01*
X-19476D01*
X-19876Y0D01*
X-19476Y400D01*
X-19876D01*
X-20276Y800D01*
X-20676Y400D01*
X-21076D01*
X-20676Y0D01*
X-21076Y-400D01*
X-20676D01*
X-20276Y-800D01*
X65744Y32822D02*
X66144Y33222D01*
X66544D01*
X66144Y33622D01*
X66544Y34022D01*
X66144D01*
X65744Y34422D01*
X65344Y34022D01*
X64944D01*
X65344Y33622D01*
X64944Y33222D01*
X65344D01*
X65744Y32822D01*
Y21011D02*
X66144Y21411D01*
X66544D01*
X66144Y21811D01*
X66544Y22211D01*
X66144D01*
X65744Y22611D01*
X65344Y22211D01*
X64944D01*
X65344Y21811D01*
X64944Y21411D01*
X65344D01*
X65744Y21011D01*
Y9200D02*
X66144Y9600D01*
X66544D01*
X66144Y10000D01*
X66544Y10400D01*
X66144D01*
X65744Y10800D01*
X65344Y10400D01*
X64944D01*
X65344Y10000D01*
X64944Y9600D01*
X65344D01*
X65744Y9200D01*
X53933Y32822D02*
X54333Y33222D01*
X54733D01*
X54333Y33622D01*
X54733Y34022D01*
X54333D01*
X53933Y34422D01*
X53533Y34022D01*
X53133D01*
X53533Y33622D01*
X53133Y33222D01*
X53533D01*
X53933Y32822D01*
Y21011D02*
X54333Y21411D01*
X54733D01*
X54333Y21811D01*
X54733Y22211D01*
X54333D01*
X53933Y22611D01*
X53533Y22211D01*
X53133D01*
X53533Y21811D01*
X53133Y21411D01*
X53533D01*
X53933Y21011D01*
X42122Y32822D02*
X42522Y33222D01*
X42922D01*
X42522Y33622D01*
X42922Y34022D01*
X42522D01*
X42122Y34422D01*
X41722Y34022D01*
X41322D01*
X41722Y33622D01*
X41322Y33222D01*
X41722D01*
X42122Y32822D01*
X30311Y9200D02*
X30711Y9600D01*
X31111D01*
X30711Y10000D01*
X31111Y10400D01*
X30711D01*
X30311Y10800D01*
X29911Y10400D01*
X29511D01*
X29911Y10000D01*
X29511Y9600D01*
X29911D01*
X30311Y9200D01*
X18500Y32822D02*
X18900Y33222D01*
X19300D01*
X18900Y33622D01*
X19300Y34022D01*
X18900D01*
X18500Y34422D01*
X18100Y34022D01*
X17700D01*
X18100Y33622D01*
X17700Y33222D01*
X18100D01*
X18500Y32822D01*
Y9200D02*
X18900Y9600D01*
X19300D01*
X18900Y10000D01*
X19300Y10400D01*
X18900D01*
X18500Y10800D01*
X18100Y10400D01*
X17700D01*
X18100Y10000D01*
X17700Y9600D01*
X18100D01*
X18500Y9200D01*
X6689Y32822D02*
X7089Y33222D01*
X7489D01*
X7089Y33622D01*
X7489Y34022D01*
X7089D01*
X6689Y34422D01*
X6289Y34022D01*
X5889D01*
X6289Y33622D01*
X5889Y33222D01*
X6289D01*
X6689Y32822D01*
Y9200D02*
X7089Y9600D01*
X7489D01*
X7089Y10000D01*
X7489Y10400D01*
X7089D01*
X6689Y10800D01*
X6289Y10400D01*
X5889D01*
X6289Y10000D01*
X5889Y9600D01*
X6289D01*
X6689Y9200D01*
X-5122Y32822D02*
X-4722Y33222D01*
X-4322D01*
X-4722Y33622D01*
X-4322Y34022D01*
X-4722D01*
X-5122Y34422D01*
X-5522Y34022D01*
X-5922D01*
X-5522Y33622D01*
X-5922Y33222D01*
X-5522D01*
X-5122Y32822D01*
Y9200D02*
X-4722Y9600D01*
X-4322D01*
X-4722Y10000D01*
X-4322Y10400D01*
X-4722D01*
X-5122Y10800D01*
X-5522Y10400D01*
X-5922D01*
X-5522Y10000D01*
X-5922Y9600D01*
X-5522D01*
X-5122Y9200D01*
X-29472Y32822D02*
X-29072Y33222D01*
X-28672D01*
X-29072Y33622D01*
X-28672Y34022D01*
X-29072D01*
X-29472Y34422D01*
X-29872Y34022D01*
X-30272D01*
X-29872Y33622D01*
X-30272Y33222D01*
X-29872D01*
X-29472Y32822D01*
Y21011D02*
X-29072Y21411D01*
X-28672D01*
X-29072Y21811D01*
X-28672Y22211D01*
X-29072D01*
X-29472Y22611D01*
X-29872Y22211D01*
X-30272D01*
X-29872Y21811D01*
X-30272Y21411D01*
X-29872D01*
X-29472Y21011D01*
Y9200D02*
X-29072Y9600D01*
X-28672D01*
X-29072Y10000D01*
X-28672Y10400D01*
X-29072D01*
X-29472Y10800D01*
X-29872Y10400D01*
X-30272D01*
X-29872Y10000D01*
X-30272Y9600D01*
X-29872D01*
X-29472Y9200D01*
X-40555Y32822D02*
X-40155Y33222D01*
X-39755D01*
X-40155Y33622D01*
X-39755Y34022D01*
X-40155D01*
X-40555Y34422D01*
X-40955Y34022D01*
X-41355D01*
X-40955Y33622D01*
X-41355Y33222D01*
X-40955D01*
X-40555Y32822D01*
Y21011D02*
X-40155Y21411D01*
X-39755D01*
X-40155Y21811D01*
X-39755Y22211D01*
X-40155D01*
X-40555Y22611D01*
X-40955Y22211D01*
X-41355D01*
X-40955Y21811D01*
X-41355Y21411D01*
X-40955D01*
X-40555Y21011D01*
Y9200D02*
X-40155Y9600D01*
X-39755D01*
X-40155Y10000D01*
X-39755Y10400D01*
X-40155D01*
X-40555Y10800D01*
X-40955Y10400D01*
X-41355D01*
X-40955Y10000D01*
X-41355Y9600D01*
X-40955D01*
X-40555Y9200D01*
X46122Y51956D02*
X46522Y52356D01*
X46922D01*
X46522Y52756D01*
X46922Y53156D01*
X46522D01*
X46122Y53556D01*
X45722Y53156D01*
X45322D01*
X45722Y52756D01*
X45322Y52356D01*
X45722D01*
X46122Y51956D01*
X-16429Y72035D02*
X-16029Y72435D01*
X-15629D01*
X-16029Y72835D01*
X-15629Y73235D01*
X-16029D01*
X-16429Y73635D01*
X-16829Y73235D01*
X-17229D01*
X-16829Y72835D01*
X-17229Y72435D01*
X-16829D01*
X-16429Y72035D01*
X-15807Y27743D02*
X-15407Y28143D01*
X-15007D01*
X-15407Y28543D01*
X-15007Y28943D01*
X-15407D01*
X-15807Y29343D01*
X-16207Y28943D01*
X-16607D01*
X-16207Y28543D01*
X-16607Y28143D01*
X-16207D01*
X-15807Y27743D01*
X-11429Y89751D02*
X-11029Y90151D01*
X-10629D01*
X-11029Y90551D01*
X-10629Y90951D01*
X-11029D01*
X-11429Y91351D01*
X-11829Y90951D01*
X-12229D01*
X-11829Y90551D01*
X-12229Y90151D01*
X-11829D01*
X-11429Y89751D01*
X31728Y79121D02*
X32128Y79521D01*
X32528D01*
X32128Y79921D01*
X32528Y80321D01*
X32128D01*
X31728Y80721D01*
X31328Y80321D01*
X30928D01*
X31328Y79921D01*
X30928Y79521D01*
X31328D01*
X31728Y79121D01*
X49213D02*
X49613Y79521D01*
X50013D01*
X49613Y79921D01*
X50013Y80321D01*
X49613D01*
X49213Y80721D01*
X48813Y80321D01*
X48413D01*
X48813Y79921D01*
X48413Y79521D01*
X48813D01*
X49213Y79121D01*
X25500Y46700D02*
X25900Y47100D01*
X26300D01*
X25900Y47500D01*
X26300Y47900D01*
X25900D01*
X25500Y48300D01*
X25100Y47900D01*
X24700D01*
X25100Y47500D01*
X24700Y47100D01*
X25100D01*
X25500Y46700D01*
X-23622Y49633D02*
X-23222Y50033D01*
X-22822D01*
X-23222Y50433D01*
X-22822Y50833D01*
X-23222D01*
X-23622Y51233D01*
X-24022Y50833D01*
X-24422D01*
X-24022Y50433D01*
X-24422Y50033D01*
X-24022D01*
X-23622Y49633D01*
X20669Y-800D02*
X21069Y-400D01*
X21469D01*
X21069Y0D01*
X21469Y400D01*
X21069D01*
X20669Y800D01*
X20269Y400D01*
X19869D01*
X20269Y0D01*
X19869Y-400D01*
X20269D01*
X20669Y-800D01*
X36417D02*
X36817Y-400D01*
X37217D01*
X36817Y0D01*
X37217Y400D01*
X36817D01*
X36417Y800D01*
X36017Y400D01*
X35617D01*
X36017Y0D01*
X35617Y-400D01*
X36017D01*
X36417Y-800D01*
X42717D02*
X43117Y-400D01*
X43516D01*
X43117Y0D01*
X43516Y400D01*
X43117D01*
X42717Y800D01*
X42316Y400D01*
X41916D01*
X42316Y0D01*
X41916Y-400D01*
X42316D01*
X42717Y-800D01*
X39567D02*
X39967Y-400D01*
X40367D01*
X39967Y0D01*
X40367Y400D01*
X39967D01*
X39567Y800D01*
X39167Y400D01*
X38767D01*
X39167Y0D01*
X38767Y-400D01*
X39167D01*
X39567Y-800D01*
X-19685Y89751D02*
X-19285Y90151D01*
X-18885D01*
X-19285Y90551D01*
X-18885Y90951D01*
X-19285D01*
X-19685Y91351D01*
X-20085Y90951D01*
X-20485D01*
X-20085Y90551D01*
X-20485Y90151D01*
X-20085D01*
X-19685Y89751D01*
X-11429Y72035D02*
X-11029Y72435D01*
X-10629D01*
X-11029Y72835D01*
X-10629Y73235D01*
X-11029D01*
X-11429Y73635D01*
X-11829Y73235D01*
X-12229D01*
X-11829Y72835D01*
X-12229Y72435D01*
X-11829D01*
X-11429Y72035D01*
X46378Y86326D02*
X46778Y86726D01*
X47178D01*
X46778Y87126D01*
X47178Y87526D01*
X46778D01*
X46378Y87926D01*
X45978Y87526D01*
X45578D01*
X45978Y87126D01*
X45578Y86726D01*
X45978D01*
X46378Y86326D01*
X26047Y69476D02*
X26447Y69876D01*
X26847D01*
X26447Y70276D01*
X26847Y70676D01*
X26447D01*
X26047Y71076D01*
X25647Y70676D01*
X25247D01*
X25647Y70276D01*
X25247Y69876D01*
X25647D01*
X26047Y69476D01*
X33268Y-800D02*
X33668Y-400D01*
X34068D01*
X33668Y0D01*
X34068Y400D01*
X33668D01*
X33268Y800D01*
X32868Y400D01*
X32468D01*
X32868Y0D01*
X32468Y-400D01*
X32868D01*
X33268Y-800D01*
X30118D02*
X30518Y-400D01*
X30918D01*
X30518Y0D01*
X30918Y400D01*
X30518D01*
X30118Y800D01*
X29718Y400D01*
X29318D01*
X29718Y0D01*
X29318Y-400D01*
X29718D01*
X30118Y-800D01*
X26969D02*
X27369Y-400D01*
X27768D01*
X27369Y0D01*
X27768Y400D01*
X27369D01*
X26969Y800D01*
X26568Y400D01*
X26169D01*
X26568Y0D01*
X26169Y-400D01*
X26568D01*
X26969Y-800D01*
X23819D02*
X24219Y-400D01*
X24619D01*
X24219Y0D01*
X24619Y400D01*
X24219D01*
X23819Y800D01*
X23419Y400D01*
X23019D01*
X23419Y0D01*
X23019Y-400D01*
X23419D01*
X23819Y-800D01*
X46122Y21641D02*
X46522Y22041D01*
X46922D01*
X46522Y22441D01*
X46922Y22841D01*
X46522D01*
X46122Y23241D01*
X45722Y22841D01*
X45322D01*
X45722Y22441D01*
X45322Y22041D01*
X45722D01*
X46122Y21641D01*
X4193Y27743D02*
X4593Y28143D01*
X4993D01*
X4593Y28543D01*
X4993Y28943D01*
X4593D01*
X4193Y29343D01*
X3793Y28943D01*
X3393D01*
X3793Y28543D01*
X3393Y28143D01*
X3793D01*
X4193Y27743D01*
X-5807D02*
X-5407Y28143D01*
X-5007D01*
X-5407Y28543D01*
X-5007Y28943D01*
X-5407D01*
X-5807Y29343D01*
X-6207Y28943D01*
X-6607D01*
X-6207Y28543D01*
X-6607Y28143D01*
X-6207D01*
X-5807Y27743D01*
X-18504Y104515D02*
X-18104Y104915D01*
X-17704D01*
X-18104Y105315D01*
X-17704Y105715D01*
X-18104D01*
X-18504Y106115D01*
X-18904Y105715D01*
X-19304D01*
X-18904Y105315D01*
X-19304Y104915D01*
X-18904D01*
X-18504Y104515D01*
Y112389D02*
X-18104Y112789D01*
X-17704D01*
X-18104Y113189D01*
X-17704Y113589D01*
X-18104D01*
X-18504Y113989D01*
X-18904Y113589D01*
X-19304D01*
X-18904Y113189D01*
X-19304Y112789D01*
X-18904D01*
X-18504Y112389D01*
M02*
