%TF.GenerationSoftware,Altium Limited,Altium Designer,22.1.2 (22)*%
G04 Layer_Physical_Order=2*
G04 Layer_Color=36540*
%FSLAX26Y26*%
%MOIN*%
%TF.SameCoordinates,E27AF617-6D1A-405A-B533-5A9FBCB34AAC*%
%TF.FilePolarity,Positive*%
%TF.FileFunction,Copper,L2,Inr,Signal*%
%TF.Part,Single*%
G01*
G75*
%TA.AperFunction,Conductor*%
%ADD13C,0.011811*%
%TA.AperFunction,ComponentPad*%
%ADD14C,0.053150*%
%TA.AperFunction,ViaPad*%
%ADD16R,0.208661X0.208661*%
%ADD17C,0.019685*%
G36*
X-270463Y1065564D02*
X-270630Y1065227D01*
X-270778Y1064793D01*
X-270906Y1064263D01*
X-271014Y1063636D01*
X-271171Y1062093D01*
X-271250Y1060164D01*
X-271260Y1059055D01*
X-283071D01*
X-283081Y1060164D01*
X-283317Y1063636D01*
X-283425Y1064263D01*
X-283553Y1064793D01*
X-283701Y1065227D01*
X-283868Y1065564D01*
X-284055Y1065806D01*
X-270276D01*
X-270463Y1065564D01*
D02*
G37*
G36*
X-241329Y947710D02*
X-241093Y944238D01*
X-240984Y943611D01*
X-240856Y943081D01*
X-240709Y942647D01*
X-240541Y942309D01*
X-240354Y942068D01*
X-254134D01*
X-253947Y942309D01*
X-253780Y942647D01*
X-253632Y943081D01*
X-253504Y943611D01*
X-253396Y944238D01*
X-253238Y945781D01*
X-253159Y947710D01*
X-253150Y948819D01*
X-241339D01*
X-241329Y947710D01*
D02*
G37*
G36*
X-239974Y941742D02*
X-239636Y941575D01*
X-239202Y941427D01*
X-238672Y941299D01*
X-238045Y941191D01*
X-236502Y941034D01*
X-234573Y940955D01*
X-233465Y940945D01*
Y929134D01*
X-234573Y929124D01*
X-238045Y928888D01*
X-238672Y928780D01*
X-239202Y928652D01*
X-239636Y928504D01*
X-239974Y928337D01*
X-240215Y928150D01*
Y941929D01*
X-239974Y941742D01*
D02*
G37*
G36*
X-240541Y927769D02*
X-240709Y927432D01*
X-240856Y926998D01*
X-240984Y926467D01*
X-241093Y925840D01*
X-241250Y924298D01*
X-241329Y922369D01*
X-241339Y921260D01*
X-253150D01*
X-253159Y922369D01*
X-253396Y925840D01*
X-253504Y926467D01*
X-253632Y926998D01*
X-253780Y927432D01*
X-253947Y927769D01*
X-254134Y928010D01*
X-240354D01*
X-240541Y927769D01*
D02*
G37*
G36*
X252026Y888780D02*
X251785Y888967D01*
X251447Y889134D01*
X251013Y889282D01*
X250483Y889409D01*
X249856Y889518D01*
X248313Y889675D01*
X246385Y889754D01*
X245276Y889764D01*
Y901575D01*
X246385Y901585D01*
X249856Y901821D01*
X250483Y901929D01*
X251013Y902057D01*
X251447Y902205D01*
X251785Y902372D01*
X252026Y902559D01*
Y888780D01*
D02*
G37*
G36*
X355000Y640000D02*
X-211566D01*
X-211773Y640088D01*
X-212815Y640097D01*
X-214544Y640168D01*
X-215244Y640239D01*
X-215415Y642757D01*
X-215424Y643739D01*
X-215555Y644048D01*
Y800591D01*
X-216319Y804431D01*
X-218494Y807687D01*
X-237209Y826401D01*
Y920913D01*
X-237077Y921222D01*
X-237068Y922263D01*
X-236998Y923993D01*
X-236926Y924693D01*
X-234409Y924864D01*
X-233427Y924873D01*
X-233117Y925004D01*
X-221943D01*
X-219872Y920004D01*
X-220061Y919815D01*
X-221260Y916920D01*
Y913788D01*
X-220061Y910894D01*
X-217846Y908679D01*
X-214952Y907480D01*
X-211820D01*
X-208926Y908679D01*
X-206711Y910894D01*
X-205512Y913788D01*
Y916920D01*
X-206711Y919815D01*
X-206900Y920004D01*
X-204829Y925004D01*
X125804D01*
X162235Y888573D01*
X165490Y886398D01*
X169331Y885634D01*
X244929D01*
X245238Y885503D01*
X246279Y885493D01*
X248008Y885423D01*
X249277Y885293D01*
X249619Y885234D01*
X249815Y885187D01*
X249893Y885148D01*
X249941Y885145D01*
X250075Y885099D01*
X250134Y885103D01*
X251250Y883988D01*
X256314Y881890D01*
X261796D01*
X266861Y883988D01*
X270737Y887864D01*
X272835Y892928D01*
Y898410D01*
X270737Y903475D01*
X266861Y907351D01*
X261796Y909449D01*
X256314D01*
X251250Y907351D01*
X250134Y906235D01*
X250075Y906239D01*
X249941Y906194D01*
X249893Y906190D01*
X249815Y906152D01*
X249619Y906104D01*
X249348Y906058D01*
X246220Y905845D01*
X245238Y905836D01*
X244928Y905705D01*
X173487D01*
X137057Y942135D01*
X133801Y944311D01*
X129961Y945075D01*
X-233118D01*
X-233427Y945206D01*
X-234468Y945215D01*
X-236197Y945286D01*
X-236897Y945357D01*
X-237069Y947875D01*
X-237077Y948857D01*
X-237209Y949166D01*
Y987244D01*
X-237973Y991085D01*
X-240148Y994340D01*
X-267130Y1021322D01*
Y1058708D01*
X-266999Y1059017D01*
X-266990Y1060059D01*
X-266919Y1061788D01*
X-266789Y1063057D01*
X-266730Y1063399D01*
X-266683Y1063594D01*
X-266644Y1063672D01*
X-266641Y1063721D01*
X-266596Y1063855D01*
X-266599Y1063914D01*
X-265484Y1065029D01*
X-263386Y1070094D01*
Y1075000D01*
X355000D01*
Y640000D01*
D02*
G37*
G36*
X-290945Y1070094D02*
X-288847Y1065029D01*
X-287731Y1063914D01*
X-287735Y1063855D01*
X-287690Y1063721D01*
X-287686Y1063672D01*
X-287648Y1063594D01*
X-287601Y1063399D01*
X-287554Y1063128D01*
X-287341Y1059999D01*
X-287332Y1059017D01*
X-287201Y1058708D01*
Y1017165D01*
X-286437Y1013325D01*
X-284261Y1010069D01*
X-257279Y983087D01*
Y949166D01*
X-257411Y948856D01*
X-257420Y947815D01*
X-257491Y946086D01*
X-257620Y944817D01*
X-257679Y944475D01*
X-257726Y944280D01*
X-257765Y944202D01*
X-257768Y944153D01*
X-257814Y944019D01*
X-257810Y943961D01*
X-258926Y942845D01*
X-261024Y937780D01*
Y932298D01*
X-258926Y927234D01*
X-257810Y926118D01*
X-257814Y926060D01*
X-257768Y925925D01*
X-257765Y925877D01*
X-257726Y925799D01*
X-257679Y925604D01*
X-257632Y925332D01*
X-257420Y922204D01*
X-257411Y921222D01*
X-257279Y920913D01*
Y822244D01*
X-256515Y818404D01*
X-254340Y815148D01*
X-235626Y796434D01*
Y644048D01*
X-235757Y643738D01*
X-235766Y642697D01*
X-235837Y640968D01*
X-235936Y640000D01*
X-370000D01*
Y1075000D01*
X-290945D01*
Y1070094D01*
D02*
G37*
G36*
X-219675Y642592D02*
X-219439Y639120D01*
X-219331Y638493D01*
X-219203Y637963D01*
X-219055Y637529D01*
X-218888Y637191D01*
X-218701Y636950D01*
X-232480D01*
X-232293Y637191D01*
X-232126Y637529D01*
X-231978Y637963D01*
X-231850Y638493D01*
X-231742Y639120D01*
X-231585Y640663D01*
X-231506Y642592D01*
X-231496Y643701D01*
X-219685D01*
X-219675Y642592D01*
D02*
G37*
G36*
X-218320Y636624D02*
X-217983Y636457D01*
X-217549Y636309D01*
X-217018Y636181D01*
X-216392Y636073D01*
X-214849Y635915D01*
X-212920Y635837D01*
X-211811Y635827D01*
Y624016D01*
X-212920Y624006D01*
X-216392Y623770D01*
X-217018Y623662D01*
X-217549Y623534D01*
X-217983Y623386D01*
X-218320Y623219D01*
X-218561Y623032D01*
Y636811D01*
X-218320Y636624D01*
D02*
G37*
G36*
X66939Y592316D02*
X67175Y588845D01*
X67283Y588218D01*
X67411Y587687D01*
X67559Y587253D01*
X67726Y586916D01*
X67913Y586675D01*
X54134D01*
X54321Y586916D01*
X54488Y587253D01*
X54636Y587687D01*
X54764Y588218D01*
X54872Y588845D01*
X55029Y590388D01*
X55108Y592316D01*
X55118Y593425D01*
X66929D01*
X66939Y592316D01*
D02*
G37*
G36*
X-159982Y563976D02*
X-160223Y564163D01*
X-160560Y564331D01*
X-160994Y564478D01*
X-161525Y564606D01*
X-162152Y564715D01*
X-163695Y564872D01*
X-165623Y564951D01*
X-166732Y564961D01*
Y576772D01*
X-165623Y576782D01*
X-162152Y577018D01*
X-161525Y577126D01*
X-160994Y577254D01*
X-160560Y577402D01*
X-160223Y577569D01*
X-159982Y577756D01*
Y563976D01*
D02*
G37*
G36*
X-145356Y577199D02*
X-145014Y577011D01*
X-144577Y576844D01*
X-144045Y576699D01*
X-143416Y576577D01*
X-142692Y576477D01*
X-140958Y576344D01*
X-138840Y576299D01*
X-139551Y564488D01*
X-140663Y564480D01*
X-144753Y564185D01*
X-145277Y564076D01*
X-145704Y563950D01*
X-146032Y563807D01*
X-146263Y563647D01*
X-145601Y577411D01*
X-145356Y577199D01*
D02*
G37*
G36*
X196466Y515230D02*
X196299Y514892D01*
X196152Y514458D01*
X196024Y513928D01*
X195915Y513301D01*
X195758Y511758D01*
X195679Y509829D01*
X195669Y508721D01*
X183858D01*
X183849Y509829D01*
X183612Y513301D01*
X183504Y513928D01*
X183376Y514458D01*
X183228Y514892D01*
X183061Y515230D01*
X182874Y515471D01*
X196654D01*
X196466Y515230D01*
D02*
G37*
G36*
X-348415Y141765D02*
X-348179Y138293D01*
X-348071Y137667D01*
X-347943Y137136D01*
X-347795Y136702D01*
X-347628Y136365D01*
X-347441Y136124D01*
X-361220D01*
X-361033Y136365D01*
X-360866Y136702D01*
X-360719Y137136D01*
X-360591Y137667D01*
X-360482Y138293D01*
X-360325Y139836D01*
X-360246Y141765D01*
X-360236Y142874D01*
X-348425D01*
X-348415Y141765D01*
D02*
G37*
%LPC*%
G36*
X-92922Y883858D02*
X-96054D01*
X-98948Y882660D01*
X-101163Y880445D01*
X-102362Y877551D01*
Y874418D01*
X-101163Y871524D01*
X-98948Y869309D01*
X-96054Y868110D01*
X-92922D01*
X-90028Y869309D01*
X-87813Y871524D01*
X-86614Y874418D01*
Y877551D01*
X-87813Y880445D01*
X-90028Y882660D01*
X-92922Y883858D01*
D02*
G37*
G36*
X119676Y864173D02*
X116544D01*
X113650Y862975D01*
X111435Y860760D01*
X110236Y857865D01*
Y854733D01*
X111435Y851839D01*
X113650Y849624D01*
X116544Y848425D01*
X119676D01*
X122570Y849624D01*
X124785Y851839D01*
X125984Y854733D01*
Y857865D01*
X124785Y860760D01*
X122570Y862975D01*
X119676Y864173D01*
D02*
G37*
G36*
X-67331Y858268D02*
X-70464D01*
X-73358Y857069D01*
X-75573Y854854D01*
X-76772Y851960D01*
Y848827D01*
X-75573Y845933D01*
X-73358Y843718D01*
X-70464Y842520D01*
X-67331D01*
X-64437Y843718D01*
X-62222Y845933D01*
X-61024Y848827D01*
Y851960D01*
X-62222Y854854D01*
X-64437Y857069D01*
X-67331Y858268D01*
D02*
G37*
G36*
X32660Y866142D02*
X26395D01*
X20607Y863744D01*
X16177Y859314D01*
X13780Y853526D01*
Y847261D01*
X16177Y841473D01*
X20607Y837043D01*
X26395Y834646D01*
X32660D01*
X38448Y837043D01*
X42878Y841473D01*
X45276Y847261D01*
Y853526D01*
X42878Y859314D01*
X38448Y863744D01*
X32660Y866142D01*
D02*
G37*
%LPD*%
D13*
X-354331Y500669D02*
X-284134Y570866D01*
X-152953D01*
X-354331Y129095D02*
Y500669D01*
X160000Y400000D02*
X189764Y429764D01*
Y522500D01*
X-90000Y400000D02*
X160000D01*
X-115000Y425000D02*
X-90000Y400000D01*
X-115000Y425000D02*
Y560000D01*
X-152480Y570394D02*
X-125394D01*
X-115000Y560000D01*
X-152953Y570866D02*
X-152480Y570394D01*
X61024Y579646D02*
Y603976D01*
X-225590Y629921D02*
X35079D01*
X61024Y603976D01*
X-247244Y935039D02*
Y987244D01*
X169331Y895669D02*
X259055D01*
X129961Y935039D02*
X169331Y895669D01*
X-247244Y935039D02*
X129961D01*
X-277165Y1017165D02*
X-247244Y987244D01*
X-277165Y1017165D02*
Y1072835D01*
X-247244Y822244D02*
Y935039D01*
Y822244D02*
X-225590Y800591D01*
Y629921D02*
Y800591D01*
D14*
X-295276Y1663386D02*
D03*
X-196850D02*
D03*
X-98425D02*
D03*
X0D02*
D03*
X98425D02*
D03*
X196850D02*
D03*
X295276D02*
D03*
D16*
X-476378Y1891732D02*
D03*
X476378D02*
D03*
D17*
X-354331Y129095D02*
D03*
X-152953Y570866D02*
D03*
X189764Y522500D02*
D03*
X204724Y935039D02*
D03*
X-277165Y1072835D02*
D03*
X-225590Y629921D02*
D03*
X-314960Y942975D02*
D03*
Y1023622D02*
D03*
X-247244Y935039D02*
D03*
X259055Y895669D02*
D03*
X62992Y708662D02*
D03*
X65000Y825000D02*
D03*
X118110Y885315D02*
D03*
X137795Y816929D02*
D03*
X61024Y579646D02*
D03*
X-35000Y850394D02*
D03*
X-130000D02*
D03*
X-188976Y787402D02*
D03*
X-177165Y974409D02*
D03*
Y1023622D02*
D03*
X-314960Y866142D02*
D03*
Y787402D02*
D03*
X-314961Y708662D02*
D03*
X-188976D02*
D03*
X-62992D02*
D03*
X188976D02*
D03*
X196850Y777559D02*
D03*
Y816929D02*
D03*
Y856299D02*
D03*
X190000Y974409D02*
D03*
Y1013779D02*
D03*
X314960Y708662D02*
D03*
X314961Y787402D02*
D03*
Y866142D02*
D03*
Y944882D02*
D03*
X147638Y1062992D02*
D03*
X314961Y1023622D02*
D03*
%TF.MD5,6d3f9f70c6205b2c7fbb715b8885f25b*%
M02*
