%TF.GenerationSoftware,Altium Limited,Altium Designer,22.1.2 (22)*%
G04 Layer_Color=8388736*
%FSLAX26Y26*%
%MOIN*%
%TF.SameCoordinates,4CB55538-D73B-4A6B-AD5D-0D58206D9AAC*%
%TF.FilePolarity,Positive*%
%TF.FileFunction,Other,Top_Assembly*%
%TF.Part,Single*%
G01*
G75*
%TA.AperFunction,NonConductor*%
%ADD56C,0.000394*%
%ADD57C,0.000787*%
D56*
X350394Y1415354D02*
Y1478347D01*
X240157D02*
X350394D01*
X240157Y1415354D02*
X350394D01*
X240157D02*
Y1478347D01*
X-80630Y925197D02*
X-51102D01*
X-80630Y866142D02*
Y925197D01*
X-51102Y866142D02*
Y925197D01*
X-80630Y866142D02*
X-51102D01*
X-280630D02*
X-251102D01*
Y925197D01*
X-280630Y866142D02*
Y925197D01*
X-251102D01*
X-180630D02*
X-151102D01*
X-180630Y866142D02*
Y925197D01*
X-151102Y866142D02*
Y925197D01*
X-180630Y866142D02*
X-151102D01*
X19370Y925197D02*
X48898D01*
X19370Y866142D02*
Y925197D01*
X48898Y866142D02*
Y925197D01*
X19370Y866142D02*
X48898D01*
X-357401Y935039D02*
X75669D01*
X-357401Y1250000D02*
X75669D01*
X-357401Y935039D02*
Y1250000D01*
X75669Y935039D02*
Y1250000D01*
X163386Y324803D02*
Y639764D01*
X360236Y324803D02*
Y639764D01*
X163386Y324803D02*
X360236D01*
X163386Y639764D02*
X360236D01*
X176339Y979331D02*
X235394D01*
X176339Y949803D02*
X235394D01*
Y979331D01*
X176339Y949803D02*
Y979331D01*
X314134Y949803D02*
Y979331D01*
X255079D02*
X314134D01*
X255079Y949803D02*
X314134D01*
X255079D02*
Y979331D01*
X-275591Y232284D02*
Y732284D01*
X51181D01*
Y232284D02*
Y732284D01*
X-275591Y232284D02*
X51181D01*
X433071Y1545276D02*
Y2037402D01*
X-433071Y1545276D02*
Y2037402D01*
Y1545276D02*
X433071D01*
X-433071Y2037402D02*
X433071D01*
X265748Y1373032D02*
Y1402559D01*
X324803Y1373032D02*
Y1402559D01*
X265748Y1373032D02*
X324803D01*
X265748Y1402559D02*
X324803D01*
X-55118Y1415354D02*
Y1478347D01*
Y1415354D02*
X55118D01*
X-55118Y1478347D02*
X55118D01*
Y1415354D02*
Y1478347D01*
X-29528Y1373032D02*
Y1402559D01*
X29528Y1373032D02*
Y1402559D01*
X-29528Y1373032D02*
X29528D01*
X-29528Y1402559D02*
X29528D01*
X-350394Y1415354D02*
Y1478347D01*
Y1415354D02*
X-240157D01*
X-350394Y1478347D02*
X-240157D01*
Y1415354D02*
Y1478347D01*
X-324803Y1373032D02*
Y1402559D01*
X-265748Y1373032D02*
Y1402559D01*
X-324803Y1373032D02*
X-265748D01*
X-324803Y1402559D02*
X-265748D01*
X176339Y1148622D02*
Y1178150D01*
X235394Y1148622D02*
Y1178150D01*
X176339Y1148622D02*
X235394D01*
X176339Y1178150D02*
X235394D01*
X314134Y1148622D02*
Y1178150D01*
X255079D02*
X314134D01*
X255079Y1148622D02*
X314134D01*
X255079D02*
Y1178150D01*
D57*
X-230630Y866142D02*
X-201102D01*
X-230630Y925197D02*
X-201102D01*
X-230630Y866142D02*
Y925197D01*
X-201102Y866142D02*
Y925197D01*
X-130630Y866142D02*
X-101102D01*
X-130630Y925197D02*
X-101102D01*
X-130630Y866142D02*
Y925197D01*
X-101102Y866142D02*
Y925197D01*
X-301102Y866142D02*
Y925197D01*
X-330630Y866142D02*
Y925197D01*
X-301102D01*
X-330630Y866142D02*
X-301102D01*
X-30630D02*
X-1102D01*
X-30630Y925197D02*
X-1102D01*
X-30630Y866142D02*
Y925197D01*
X-1102Y866142D02*
Y925197D01*
X233268Y626968D02*
Y656496D01*
X174213Y626968D02*
Y656496D01*
Y626968D02*
X233268D01*
X174213Y656496D02*
X233268D01*
Y308071D02*
Y337599D01*
X174213Y308071D02*
Y337599D01*
Y308071D02*
X233268D01*
X174213Y337599D02*
X233268D01*
X68898Y536417D02*
X127953D01*
X68898Y506890D02*
X127953D01*
X68898D02*
Y536417D01*
X127953Y506890D02*
Y536417D01*
X68898Y575788D02*
X127953D01*
X68898Y546260D02*
X127953D01*
X68898D02*
Y575788D01*
X127953Y546260D02*
Y575788D01*
X-350394Y536417D02*
X-291339D01*
X-350394Y506890D02*
X-291339D01*
X-350394D02*
Y536417D01*
X-291339Y506890D02*
Y536417D01*
X-350394Y575788D02*
X-291339D01*
X-350394Y546260D02*
X-291339D01*
X-350394D02*
Y575788D01*
X-291339Y546260D02*
Y575788D01*
%TF.MD5,132169b0eb8d18a4414abdd872c56615*%
M02*
