%TF.GenerationSoftware,Altium Limited,Altium Designer,22.1.2 (22)*%
G04 Layer_Color=32768*
%FSLAX26Y26*%
%MOIN*%
%TF.SameCoordinates,E27AF617-6D1A-405A-B533-5A9FBCB34AAC*%
%TF.FilePolarity,Positive*%
%TF.FileFunction,Other,Bottom_Assembly*%
%TF.Part,Single*%
G01*
G75*
%TA.AperFunction,NonConductor*%
%ADD31C,0.001968*%
%ADD49C,0.000394*%
%ADD50C,0.000787*%
D31*
X-116000Y878095D02*
X116000D01*
X-116000Y1110094D02*
X116000D01*
X-116000Y878095D02*
Y1110094D01*
X116000Y878095D02*
Y1110094D01*
D49*
X-137795Y393701D02*
X137795D01*
X-137795Y590551D02*
X137795D01*
X-137795Y393701D02*
Y590551D01*
X137795Y393701D02*
Y590551D01*
X-226378Y437992D02*
Y467520D01*
X-167323D01*
X-226378Y437992D02*
X-167323D01*
Y467520D01*
Y516732D02*
Y546260D01*
X-226378Y516732D02*
X-167323D01*
X-226378Y546260D02*
X-167323D01*
X-226378Y516732D02*
Y546260D01*
X-265748Y1254921D02*
Y1284449D01*
X-324803Y1254921D02*
X-265748D01*
X-324803Y1284449D02*
X-265748D01*
X-324803Y1254921D02*
Y1284449D01*
X-47244Y816929D02*
X47244D01*
X-47244Y738189D02*
X47244D01*
X-47244D02*
Y816929D01*
X47244Y738189D02*
Y816929D01*
X68898Y1412401D02*
Y1441929D01*
X127953D01*
X68898Y1412401D02*
X127953D01*
Y1441929D01*
X68898Y1333661D02*
Y1363189D01*
X127953D01*
X68898Y1333661D02*
X127953D01*
Y1363189D01*
X-326772Y1372047D02*
X-263780D01*
X-326772D02*
Y1482284D01*
X-263780Y1372047D02*
Y1482284D01*
X-326772D02*
X-263780D01*
X167323Y1333661D02*
Y1363189D01*
X226378D01*
X167323Y1333661D02*
X226378D01*
Y1363189D01*
X-228347Y1372047D02*
X-165354D01*
X-228347D02*
Y1482284D01*
X-165354Y1372047D02*
Y1482284D01*
X-228347D02*
X-165354D01*
X265748Y1333661D02*
Y1363189D01*
X324803D01*
X265748Y1333661D02*
X324803D01*
Y1363189D01*
X-129921Y1372047D02*
X-66929D01*
X-129921D02*
Y1482284D01*
X-66929Y1372047D02*
Y1482284D01*
X-129921D02*
X-66929D01*
X271654Y821850D02*
Y851378D01*
X212598Y821850D02*
X271654D01*
X212598Y851378D02*
X271654D01*
X212598Y821850D02*
Y851378D01*
X271654Y900591D02*
Y930118D01*
X212598Y900591D02*
X271654D01*
X212598Y930118D02*
X271654D01*
X212598Y900591D02*
Y930118D01*
Y861220D02*
Y890748D01*
X271654D01*
X212598Y861220D02*
X271654D01*
Y890748D01*
X-259843Y979331D02*
Y1008858D01*
X-200787D01*
X-259843Y979331D02*
X-200787D01*
Y1008858D01*
X271654Y743110D02*
Y772638D01*
X212598Y743110D02*
X271654D01*
X212598Y772638D02*
X271654D01*
X212598Y743110D02*
Y772638D01*
X-200787Y821850D02*
Y851378D01*
X-259843Y821850D02*
X-200787D01*
X-259843Y851378D02*
X-200787D01*
X-259843Y821850D02*
Y851378D01*
X212598Y979331D02*
Y1008858D01*
X271654D01*
X212598Y979331D02*
X271654D01*
Y1008858D01*
X212598Y1058071D02*
Y1087598D01*
X271654D01*
X212598Y1058071D02*
X271654D01*
Y1087598D01*
X-259843Y939961D02*
Y969488D01*
X-200787D01*
X-259843Y939961D02*
X-200787D01*
Y969488D01*
X271654Y782480D02*
Y812008D01*
X212598Y782480D02*
X271654D01*
X212598Y812008D02*
X271654D01*
X212598Y782480D02*
Y812008D01*
X271654Y1018701D02*
Y1048228D01*
X212598Y1018701D02*
X271654D01*
X212598Y1048228D02*
X271654D01*
X212598Y1018701D02*
Y1048228D01*
X271654Y939961D02*
Y969488D01*
X212598Y939961D02*
X271654D01*
X212598Y969488D02*
X271654D01*
X212598Y939961D02*
Y969488D01*
X-259843Y861220D02*
Y890748D01*
X-200787D01*
X-259843Y861220D02*
X-200787D01*
Y890748D01*
X-68898Y1254921D02*
Y1284449D01*
X-127953Y1254921D02*
X-68898D01*
X-127953Y1284449D02*
X-68898D01*
X-127953Y1254921D02*
Y1284449D01*
X-226378Y1254921D02*
Y1284449D01*
X-167323D01*
X-226378Y1254921D02*
X-167323D01*
Y1284449D01*
X-200787Y1058071D02*
Y1087598D01*
X-259843Y1058071D02*
X-200787D01*
X-259843Y1087598D02*
X-200787D01*
X-259843Y1058071D02*
Y1087598D01*
X127953Y1451772D02*
Y1481299D01*
X68898Y1451772D02*
X127953D01*
X68898Y1481299D02*
X127953D01*
X68898Y1451772D02*
Y1481299D01*
X226378Y1451772D02*
Y1481299D01*
X167323Y1451772D02*
X226378D01*
X167323Y1481299D02*
X226378D01*
X167323Y1451772D02*
Y1481299D01*
X324803Y1451772D02*
Y1481299D01*
X265748Y1451772D02*
X324803D01*
X265748Y1481299D02*
X324803D01*
X265748Y1451772D02*
Y1481299D01*
X265748Y1412402D02*
Y1441929D01*
X324803D01*
X265748Y1412402D02*
X324803D01*
Y1441929D01*
X167323Y1412402D02*
Y1441929D01*
X226378D01*
X167323Y1412402D02*
X226378D01*
Y1441929D01*
D50*
X167323Y556102D02*
X226378D01*
X167323Y585630D02*
X226378D01*
X167323Y556102D02*
Y585630D01*
X226378Y556102D02*
Y585630D01*
X-226378D02*
X-167323D01*
X-226378Y556102D02*
X-167323D01*
Y585630D01*
X-226378Y556102D02*
Y585630D01*
Y506890D02*
X-167323D01*
X-226378Y477362D02*
X-167323D01*
Y506890D01*
X-226378Y477362D02*
Y506890D01*
Y398622D02*
Y428150D01*
X-167323Y398622D02*
Y428150D01*
X-226378Y398622D02*
X-167323D01*
X-226378Y428150D02*
X-167323D01*
X50197Y807087D02*
X79724D01*
X50197Y748031D02*
X79724D01*
X50197D02*
Y807087D01*
X79724Y748031D02*
Y807087D01*
X-324803Y1294291D02*
Y1323819D01*
X-265748Y1294291D02*
Y1323819D01*
X-324803Y1294291D02*
X-265748D01*
X-324803Y1323819D02*
X-265748D01*
X-226378Y1294291D02*
Y1323819D01*
X-167323Y1294291D02*
Y1323819D01*
X-226378Y1294291D02*
X-167323D01*
X-226378Y1323819D02*
X-167323D01*
X-127953Y1333661D02*
Y1363189D01*
X-68898Y1333661D02*
Y1363189D01*
X-127953Y1333661D02*
X-68898D01*
X-127953Y1363189D02*
X-68898D01*
X-226378Y1333661D02*
Y1363189D01*
X-167323Y1333661D02*
Y1363189D01*
X-226378Y1333661D02*
X-167323D01*
X-226378Y1363189D02*
X-167323D01*
X-127953Y1294291D02*
Y1323819D01*
X-68898Y1294291D02*
Y1323819D01*
X-127953Y1294291D02*
X-68898D01*
X-127953Y1323819D02*
X-68898D01*
X-324803Y1333661D02*
Y1363189D01*
X-265748Y1333661D02*
Y1363189D01*
X-324803Y1333661D02*
X-265748D01*
X-324803Y1363189D02*
X-265748D01*
X324803Y1373032D02*
Y1402559D01*
X265748Y1373032D02*
Y1402559D01*
X324803D01*
X265748Y1373032D02*
X324803D01*
X265748Y1294291D02*
Y1323819D01*
X324803Y1294291D02*
Y1323819D01*
X265748Y1294291D02*
X324803D01*
X265748Y1323819D02*
X324803D01*
X167323Y1254921D02*
Y1284449D01*
X226378Y1254921D02*
Y1284449D01*
X167323Y1254921D02*
X226378D01*
X167323Y1284449D02*
X226378D01*
X-259843Y1018701D02*
Y1048228D01*
X-200787Y1018701D02*
Y1048228D01*
X-259843Y1018701D02*
X-200787D01*
X-259843Y1048228D02*
X-200787D01*
X265748Y1254921D02*
Y1284449D01*
X324803Y1254921D02*
Y1284449D01*
X265748Y1254921D02*
X324803D01*
X265748Y1284449D02*
X324803D01*
X167323Y1294291D02*
Y1323819D01*
X226378Y1294291D02*
Y1323819D01*
X167323Y1294291D02*
X226378D01*
X167323Y1323819D02*
X226378D01*
X-259843Y743110D02*
X-200787D01*
X-259843Y772638D02*
X-200787D01*
X-259843Y743110D02*
Y772638D01*
X-200787Y743110D02*
Y772638D01*
X-259843Y782480D02*
X-200787D01*
X-259843Y812008D02*
X-200787D01*
X-259843Y782480D02*
Y812008D01*
X-200787Y782480D02*
Y812008D01*
X127953Y1373032D02*
Y1402559D01*
X68898Y1373032D02*
Y1402559D01*
X127953D01*
X68898Y1373032D02*
X127953D01*
X226378D02*
Y1402559D01*
X167323Y1373032D02*
Y1402559D01*
X226378D01*
X167323Y1373032D02*
X226378D01*
X68898Y1254921D02*
Y1284449D01*
X127953Y1254921D02*
Y1284449D01*
X68898Y1254921D02*
X127953D01*
X68898Y1284449D02*
X127953D01*
X68898Y1294291D02*
Y1323819D01*
X127953Y1294291D02*
Y1323819D01*
X68898Y1294291D02*
X127953D01*
X68898Y1323819D02*
X127953D01*
X-79724Y748031D02*
X-50197D01*
X-79724Y807087D02*
X-50197D01*
Y748031D02*
Y807087D01*
X-79724Y748031D02*
Y807087D01*
%TF.MD5,eb7a34c73de294bbc055c8408c8b8767*%
M02*
