%TF.GenerationSoftware,Altium Limited,Altium Designer,22.1.2 (22)*%
G04 Layer_Color=8388736*
%FSLAX26Y26*%
%MOIN*%
%TF.SameCoordinates,E27AF617-6D1A-405A-B533-5A9FBCB34AAC*%
%TF.FilePolarity,Positive*%
%TF.FileFunction,Other,Top_Assembly*%
%TF.Part,Single*%
G01*
G75*
%TA.AperFunction,NonConductor*%
%ADD49C,0.000394*%
%ADD50C,0.000787*%
D49*
X-163386Y271654D02*
Y771654D01*
X163386D01*
Y271654D02*
Y771654D01*
X-163386Y271654D02*
X163386D01*
X-433071Y2037402D02*
X433071D01*
X-433071Y1545276D02*
X433071D01*
X-433071D02*
Y2037402D01*
X433071Y1545276D02*
Y2037402D01*
D50*
X236220Y584173D02*
Y613701D01*
X177165Y584173D02*
Y613701D01*
Y584173D02*
X236220D01*
X177165Y613701D02*
X236220D01*
X-179134Y575787D02*
Y605315D01*
X-238189Y575787D02*
Y605315D01*
Y575787D02*
X-179134D01*
X-238189Y605315D02*
X-179134D01*
X236220Y544803D02*
Y574331D01*
X177165Y544803D02*
Y574331D01*
Y544803D02*
X236220D01*
X177165Y574331D02*
X236220D01*
X-179134Y536417D02*
Y565945D01*
X-238189Y536417D02*
Y565945D01*
Y536417D02*
X-179134D01*
X-238189Y565945D02*
X-179134D01*
%TF.MD5,4ac663c04c8f06dfc7deb75c46bbb04d*%
M02*
