%TF.GenerationSoftware,Altium Limited,Altium Designer,22.1.2 (22)*%
G04 Layer_Physical_Order=4*
G04 Layer_Color=16711680*
%FSLAX26Y26*%
%MOIN*%
%TF.SameCoordinates,4CB55538-D73B-4A6B-AD5D-0D58206D9AAC*%
%TF.FilePolarity,Positive*%
%TF.FileFunction,Copper,L4,Bot,Signal*%
%TF.Part,Single*%
G01*
G75*
%TA.AperFunction,SMDPad,CuDef*%
%ADD11R,0.020472X0.018504*%
%ADD13R,0.018504X0.020472*%
%TA.AperFunction,ConnectorPad*%
%ADD17R,0.023622X0.090551*%
%TA.AperFunction,Conductor*%
%ADD18C,0.019685*%
%ADD19C,0.011811*%
%ADD20C,0.007874*%
%TA.AperFunction,ViaPad*%
%ADD21R,0.208661X0.208661*%
%TA.AperFunction,ComponentPad*%
%ADD22R,0.053150X0.053150*%
%ADD23C,0.053150*%
%TA.AperFunction,ViaPad*%
%ADD24C,0.019685*%
%TA.AperFunction,SMDPad,CuDef*%
%ADD26R,0.055118X0.027559*%
%ADD27R,0.027559X0.009842*%
%ADD28R,0.009842X0.027559*%
%ADD29R,0.135827X0.135827*%
%ADD30R,0.027559X0.023622*%
%TA.AperFunction,Conductor*%
%ADD31C,0.009842*%
G36*
X355000Y1200000D02*
X279429Y1124429D01*
X273209Y1125112D01*
X272244Y1126378D01*
X272918Y1131099D01*
X273104Y1132035D01*
X272035Y1137412D01*
X268990Y1141970D01*
X264432Y1145015D01*
X259055Y1146085D01*
X253679Y1145015D01*
X249120Y1141970D01*
X246075Y1137412D01*
X245006Y1132035D01*
X245192Y1131099D01*
X245866Y1126378D01*
X245866Y1126378D01*
X245866Y1126378D01*
Y1098032D01*
X246634D01*
X248031Y1093032D01*
X240947Y1085947D01*
X238386Y1087008D01*
Y1087008D01*
X212008D01*
Y1080863D01*
X202835D01*
X202835Y1080863D01*
X199762Y1080252D01*
X197158Y1078512D01*
X169982Y1051335D01*
X157668D01*
X154612Y1056335D01*
X155936Y1062992D01*
X154255Y1071441D01*
X149470Y1078603D01*
X142307Y1083389D01*
X133858Y1085070D01*
X125409Y1083389D01*
X119924Y1079724D01*
X77756D01*
Y1084646D01*
X68897D01*
Y1088583D01*
X64960D01*
Y1106299D01*
X60039D01*
X59248Y1110971D01*
Y1135056D01*
X104157Y1179965D01*
X270000D01*
X273840Y1180729D01*
X277096Y1182904D01*
X319301Y1225109D01*
X321476Y1228364D01*
X322240Y1232205D01*
Y1255512D01*
X325394D01*
Y1283858D01*
X322240D01*
Y1294882D01*
X325393D01*
Y1323228D01*
X322240D01*
Y1334252D01*
X325394D01*
Y1362599D01*
X299016D01*
Y1334252D01*
X302169D01*
Y1323228D01*
X299016D01*
Y1294882D01*
X302169D01*
Y1283858D01*
X299016D01*
Y1255512D01*
X302169D01*
Y1236361D01*
X265843Y1200035D01*
X200760D01*
X198847Y1204655D01*
X220875Y1226684D01*
X223051Y1229939D01*
X223815Y1233780D01*
Y1255512D01*
X226968D01*
Y1283858D01*
X223815D01*
Y1294882D01*
X226968D01*
Y1323228D01*
X223815D01*
Y1334252D01*
X226968D01*
Y1362599D01*
X200591D01*
Y1334252D01*
X203744D01*
Y1323228D01*
X200591D01*
Y1294882D01*
X203744D01*
Y1283858D01*
X200591D01*
Y1255512D01*
X203744D01*
Y1237936D01*
X181591Y1215783D01*
X101966D01*
X100053Y1220403D01*
X121884Y1242234D01*
X124060Y1245490D01*
X124823Y1249330D01*
Y1255512D01*
X128543D01*
Y1283858D01*
X125390D01*
Y1294882D01*
X128543D01*
Y1323228D01*
X125390D01*
Y1334252D01*
X128543D01*
Y1362599D01*
X102165D01*
Y1334252D01*
X105319D01*
Y1323228D01*
X102165D01*
Y1294882D01*
X105319D01*
Y1283858D01*
X102165D01*
Y1255512D01*
X102165D01*
X101891Y1250625D01*
X2747Y1151480D01*
X571Y1148225D01*
X-193Y1144384D01*
Y1110971D01*
X-984Y1106299D01*
X-5193Y1106299D01*
X-5906D01*
Y1088583D01*
X-13780D01*
Y1106299D01*
X-18701D01*
X-20496Y1110556D01*
Y1143501D01*
X-20496Y1143502D01*
X-21183Y1146958D01*
X-23141Y1149888D01*
X-23142Y1149889D01*
X-72464Y1199211D01*
Y1255512D01*
X-68307D01*
Y1283858D01*
X-72465D01*
Y1294882D01*
X-68307D01*
Y1323228D01*
X-72465D01*
Y1334252D01*
X-68307D01*
Y1362599D01*
X-72465D01*
Y1372638D01*
X-66929D01*
Y1391142D01*
X-11811D01*
Y1490000D01*
X105319D01*
Y1480709D01*
X102165D01*
Y1452362D01*
X128543D01*
Y1480709D01*
X125390D01*
Y1490000D01*
X203744D01*
Y1480709D01*
X200591D01*
Y1452362D01*
X226968D01*
Y1480709D01*
X223815D01*
Y1490000D01*
X302169D01*
Y1480709D01*
X299016D01*
Y1452362D01*
X325394D01*
Y1480709D01*
X322240D01*
Y1490000D01*
X355000D01*
Y1200000D01*
D02*
G37*
G36*
X-129921Y1372638D02*
X-90528D01*
Y1362599D01*
X-94685D01*
Y1334252D01*
X-90528D01*
Y1323228D01*
X-94685D01*
Y1294882D01*
X-90528D01*
Y1283858D01*
X-94685D01*
Y1255512D01*
X-90528D01*
Y1195470D01*
X-89840Y1192014D01*
X-87882Y1189084D01*
X-86229Y1187431D01*
X-88143Y1182811D01*
X-160038D01*
X-170890Y1193662D01*
Y1255512D01*
X-166732D01*
Y1283858D01*
X-170890D01*
Y1294882D01*
X-166732D01*
Y1323228D01*
X-170890D01*
Y1334252D01*
X-166733D01*
Y1362599D01*
X-170890D01*
Y1372638D01*
X-165355D01*
Y1391142D01*
X-129921D01*
Y1372638D01*
D02*
G37*
G36*
X-228346D02*
X-188953D01*
Y1362599D01*
X-193110D01*
Y1334252D01*
X-188953D01*
Y1323228D01*
X-193110D01*
Y1294882D01*
X-188953D01*
Y1283858D01*
X-193110D01*
Y1255512D01*
X-188953D01*
Y1189921D01*
X-188266Y1186465D01*
X-186308Y1183535D01*
X-176424Y1173651D01*
X-178337Y1169032D01*
X-264354D01*
X-269315Y1173992D01*
Y1255512D01*
X-265158D01*
Y1283858D01*
X-269315D01*
Y1294882D01*
X-265158D01*
Y1323228D01*
X-269315D01*
Y1334252D01*
X-265158D01*
Y1362599D01*
X-269315D01*
Y1372638D01*
X-263780D01*
Y1391142D01*
X-228346D01*
Y1372638D01*
D02*
G37*
G36*
X355000Y1176437D02*
Y720000D01*
X272835D01*
Y721796D01*
X270737Y726861D01*
X269090Y728507D01*
Y743701D01*
X272244D01*
Y772047D01*
X269090D01*
Y783071D01*
X272244D01*
Y811417D01*
X269090D01*
Y822441D01*
X272244D01*
Y850787D01*
X269090D01*
Y861811D01*
X272244D01*
Y890157D01*
X269090D01*
Y901181D01*
X272244D01*
Y929528D01*
X272244D01*
X271900Y930042D01*
X272834Y932298D01*
Y937780D01*
X271900Y940036D01*
X272244Y940551D01*
X272244D01*
Y968898D01*
X269090D01*
Y979921D01*
X272244D01*
Y1008268D01*
X269090D01*
Y1019291D01*
X272244D01*
Y1047638D01*
X269090D01*
Y1058661D01*
X272244D01*
Y1087008D01*
X269090D01*
Y1098032D01*
X272244D01*
Y1109357D01*
X275967Y1112694D01*
X278114Y1112458D01*
X278776Y1112516D01*
X279429Y1112386D01*
X281099Y1112718D01*
X282795Y1112866D01*
X283385Y1113173D01*
X284037Y1113303D01*
X285453Y1114249D01*
X286963Y1115035D01*
X287391Y1115544D01*
X287944Y1115913D01*
X350381Y1178350D01*
X355000Y1176437D01*
D02*
G37*
G36*
X-278172Y1086139D02*
X-280000Y1081512D01*
X-284048Y1081094D01*
X-287470Y1084516D01*
X-292535Y1086614D01*
X-298017D01*
X-303081Y1084516D01*
X-306957Y1080640D01*
X-309055Y1075575D01*
Y1070094D01*
X-306957Y1065029D01*
X-303081Y1061153D01*
X-298017Y1059055D01*
X-292535D01*
X-287470Y1061153D01*
X-283817Y1064806D01*
X-260433D01*
Y1058661D01*
X-234055D01*
Y1072957D01*
X-226575D01*
Y1058661D01*
X-221414D01*
Y1047638D01*
X-226575D01*
Y1019291D01*
X-200197D01*
Y1047638D01*
X-205358D01*
Y1058661D01*
X-200197D01*
Y1064806D01*
X-151160D01*
X-123984Y1037630D01*
X-121613Y1036046D01*
X-121275Y1033655D01*
X-121243Y1032953D01*
X-121491Y1030814D01*
X-123758Y1029299D01*
X-123758Y1029299D01*
X-150934Y1002123D01*
X-200197D01*
Y1008268D01*
X-226575D01*
Y979921D01*
X-200197D01*
Y986066D01*
X-156821D01*
X-154907Y981447D01*
X-173601Y962753D01*
X-200197D01*
Y968898D01*
X-226575D01*
Y940551D01*
X-200197D01*
Y946696D01*
X-179487D01*
X-177574Y942077D01*
X-195197Y924454D01*
X-200197Y925968D01*
Y929528D01*
X-226575D01*
Y901181D01*
X-200197D01*
Y907326D01*
X-192942D01*
X-189870Y907937D01*
X-187266Y909677D01*
X-182648Y914295D01*
X-178028Y912382D01*
Y893325D01*
X-187341Y884013D01*
X-200197D01*
Y890157D01*
X-226575D01*
Y861811D01*
X-200197D01*
Y867956D01*
X-184016D01*
X-180944Y868567D01*
X-178339Y870307D01*
X-170837Y877809D01*
X-166217Y875896D01*
Y855136D01*
X-176711Y844642D01*
X-200197D01*
Y850787D01*
X-226575D01*
Y822441D01*
X-200197D01*
Y828586D01*
X-173386D01*
X-170314Y829197D01*
X-167709Y830937D01*
X-152512Y846134D01*
X-152512Y846134D01*
X-150772Y848739D01*
X-150161Y851811D01*
X-150161Y851812D01*
Y913376D01*
X-126683Y936854D01*
X-116046D01*
X-112205Y934055D01*
X-112205Y931024D01*
Y916339D01*
X-102516D01*
Y903837D01*
X-104102Y902252D01*
X-105842Y899647D01*
X-106454Y896575D01*
Y877601D01*
X-110107Y873947D01*
X-112205Y868883D01*
Y863401D01*
X-110107Y858336D01*
X-106231Y854460D01*
X-101166Y852362D01*
X-95684D01*
X-90620Y854460D01*
X-86743Y858336D01*
X-84646Y863401D01*
Y868883D01*
X-86743Y873947D01*
X-90397Y877601D01*
Y893249D01*
X-88812Y894835D01*
X-88811Y894835D01*
X-87071Y897439D01*
X-86460Y900512D01*
X-86460Y900512D01*
Y912803D01*
X-82924Y916339D01*
X-77756Y916339D01*
X-77756Y912730D01*
Y881890D01*
X-76926D01*
Y853979D01*
X-80579Y850325D01*
X-82677Y845261D01*
Y839779D01*
X-80579Y834714D01*
X-76703Y830838D01*
X-71638Y828740D01*
X-66157D01*
X-61092Y830838D01*
X-57216Y834714D01*
X-55118Y839779D01*
Y845261D01*
X-57216Y850325D01*
X-60869Y853979D01*
Y878049D01*
X-58071Y881890D01*
X-55039Y881890D01*
X-53150D01*
Y899606D01*
X-45276D01*
Y881890D01*
X-40354D01*
X-35354Y881890D01*
X-33465D01*
Y899606D01*
X-25591D01*
Y881890D01*
X-20669D01*
X-18874Y877633D01*
Y818702D01*
X-22615Y814961D01*
X-45276D01*
Y805882D01*
X-50787D01*
Y807677D01*
X-79134D01*
Y781299D01*
X-50787D01*
Y787819D01*
X-45276D01*
Y783465D01*
X-9843D01*
Y783464D01*
X-5095Y782856D01*
Y777559D01*
X-4407Y774103D01*
X-2449Y771173D01*
X9843Y758881D01*
Y740158D01*
X45276D01*
Y749236D01*
X50787D01*
Y747441D01*
X79134D01*
Y773819D01*
X50787D01*
Y767299D01*
X45276D01*
Y771654D01*
X22615D01*
X15804Y778465D01*
X17875Y783465D01*
X23622D01*
Y799212D01*
Y814961D01*
X12969D01*
Y821923D01*
X17969Y823870D01*
X25221Y820866D01*
X33835D01*
X41793Y824163D01*
X47885Y830254D01*
X51181Y838213D01*
Y846827D01*
X47885Y854785D01*
X45584Y857086D01*
Y865147D01*
X50203Y867061D01*
X165067Y752197D01*
X167672Y750457D01*
X170744Y749846D01*
X212008D01*
Y743701D01*
X238386D01*
Y772047D01*
X212008D01*
Y765902D01*
X174069D01*
X155375Y784596D01*
X157289Y789216D01*
X212008D01*
Y783071D01*
X238386D01*
Y811417D01*
X212008D01*
Y805272D01*
X151403D01*
X79191Y877484D01*
X77756Y881890D01*
X77756Y881890D01*
X77756D01*
X77756Y881890D01*
Y912730D01*
X77756Y916339D01*
X81364Y916339D01*
X112205D01*
Y916339D01*
X117196Y916318D01*
X202577Y830938D01*
X202577Y830937D01*
X205182Y829197D01*
X208254Y828586D01*
X212008Y825538D01*
Y822441D01*
X238386D01*
Y850787D01*
X212008D01*
Y850788D01*
X207008Y849214D01*
X192886Y863337D01*
X194799Y867956D01*
X212008D01*
Y861811D01*
X238386D01*
Y890157D01*
X212008D01*
Y884013D01*
X188913D01*
X170219Y902707D01*
X172132Y907326D01*
X212008D01*
Y901181D01*
X238386D01*
Y929528D01*
X212008D01*
Y923383D01*
X166246D01*
X147933Y941696D01*
X150004Y946696D01*
X212008D01*
Y940551D01*
X238386D01*
Y968898D01*
X212008D01*
Y962753D01*
X147127D01*
X119955Y989924D01*
X119955Y989944D01*
X121474Y994924D01*
X193722D01*
X200229Y988418D01*
X202833Y986677D01*
X205905Y986066D01*
X205906Y986066D01*
X212008D01*
Y979921D01*
X238386D01*
Y1008268D01*
X212008D01*
Y1006417D01*
X207008Y1004346D01*
X202724Y1008630D01*
X200120Y1010370D01*
X197047Y1010981D01*
X196061D01*
X195569Y1015981D01*
X196694Y1016205D01*
X199299Y1017945D01*
X205806Y1024452D01*
X212008D01*
Y1019291D01*
X238386D01*
Y1047638D01*
X212008D01*
Y1040509D01*
X202481D01*
X202480Y1040509D01*
X199408Y1039898D01*
X196803Y1038157D01*
X190297Y1031650D01*
X178744D01*
X177518Y1036650D01*
X178984Y1037630D01*
X206160Y1064806D01*
X212008D01*
Y1058661D01*
X238386D01*
Y1069543D01*
X241315Y1070992D01*
X241493Y1070945D01*
X245866Y1067884D01*
Y1058661D01*
X249020D01*
Y1047638D01*
X245866D01*
Y1019291D01*
X249020D01*
Y1008268D01*
X245866D01*
Y979921D01*
X249020D01*
Y968898D01*
X245866D01*
Y940551D01*
X245866D01*
X246210Y940037D01*
X245275Y937780D01*
Y932298D01*
X246210Y930042D01*
X245866Y929528D01*
X245866D01*
Y901181D01*
X249020D01*
Y890157D01*
X245866D01*
Y861811D01*
X249020D01*
Y850787D01*
X245866D01*
Y822441D01*
X249020D01*
Y811417D01*
X245866D01*
Y783071D01*
X249020D01*
Y772047D01*
X245866D01*
Y743701D01*
X249020D01*
Y728507D01*
X247373Y726861D01*
X245276Y721796D01*
Y720000D01*
X-237209D01*
Y743701D01*
X-234055D01*
Y772047D01*
X-237209D01*
Y783071D01*
X-234055D01*
Y811417D01*
X-234055D01*
X-234399Y811932D01*
X-233465Y814188D01*
Y819670D01*
X-234399Y821926D01*
X-234055Y822441D01*
X-234055D01*
Y850787D01*
X-237209D01*
Y861811D01*
X-234055D01*
Y890157D01*
X-260433D01*
Y861811D01*
X-257279D01*
Y850787D01*
X-260433D01*
Y822441D01*
X-260433D01*
X-260089Y821926D01*
X-261024Y819670D01*
Y814188D01*
X-260089Y811932D01*
X-260433Y811417D01*
X-260433D01*
Y783071D01*
X-257279D01*
Y772047D01*
X-260433D01*
Y743701D01*
X-257279D01*
Y720000D01*
X-355000D01*
Y1156437D01*
X-350380Y1158351D01*
X-278172Y1086139D01*
D02*
G37*
G36*
X-326772Y1372638D02*
X-287378D01*
Y1362599D01*
X-291536D01*
Y1334252D01*
X-287378D01*
Y1323228D01*
X-291535D01*
Y1294882D01*
X-287378D01*
Y1283858D01*
X-291535D01*
Y1255512D01*
X-287378D01*
Y1170251D01*
X-286691Y1166795D01*
X-284733Y1163865D01*
X-274482Y1153614D01*
X-271551Y1151656D01*
X-268095Y1150968D01*
X-88741D01*
X-77929Y1140157D01*
Y1088583D01*
X-77756Y1087710D01*
Y1075459D01*
X-77756Y1071850D01*
X-81364Y1071850D01*
X-90551D01*
Y1062992D01*
X-94488D01*
Y1059055D01*
X-112205D01*
Y1055630D01*
X-116798Y1053152D01*
X-142158Y1078512D01*
X-144762Y1080252D01*
X-147835Y1080863D01*
X-200197D01*
Y1087008D01*
X-226575D01*
Y1084999D01*
X-234055D01*
Y1087008D01*
X-260433D01*
X-260433Y1087008D01*
Y1087008D01*
X-261549Y1086546D01*
X-355000Y1180001D01*
Y1391142D01*
X-326772D01*
Y1372638D01*
D02*
G37*
G36*
X580516Y136019D02*
X537402D01*
X537156Y135970D01*
X536909Y136007D01*
X533822Y135855D01*
X533101Y135675D01*
X532357D01*
X526301Y134470D01*
X525388Y134092D01*
X524418Y133899D01*
X518714Y131536D01*
X517893Y130987D01*
X516979Y130609D01*
X511846Y127179D01*
X511147Y126480D01*
X510325Y125931D01*
X505959Y121565D01*
X505410Y120743D01*
X504711Y120044D01*
X501281Y114910D01*
X500902Y113997D01*
X500353Y113175D01*
X498455Y108592D01*
X159642D01*
Y119311D01*
X162586Y123718D01*
X163656Y129095D01*
X162586Y134471D01*
X159541Y139029D01*
X154983Y142075D01*
X149606Y143144D01*
X144230Y142075D01*
X139672Y139029D01*
X136626Y134471D01*
X136407Y133370D01*
X131309D01*
X131090Y134471D01*
X128045Y139029D01*
X123487Y142075D01*
X118110Y143144D01*
X112734Y142075D01*
X108176Y139029D01*
X105130Y134471D01*
X104911Y133370D01*
X99813D01*
X99594Y134471D01*
X96549Y139029D01*
X91991Y142075D01*
X86614Y143144D01*
X81238Y142075D01*
X76680Y139029D01*
X73634Y134471D01*
X73415Y133370D01*
X68317D01*
X68098Y134471D01*
X65053Y139029D01*
X60495Y142075D01*
X55118Y143144D01*
X49742Y142075D01*
X45184Y139029D01*
X42138Y134471D01*
X41069Y129095D01*
X42138Y123718D01*
X45083Y119311D01*
Y108592D01*
X2161D01*
Y119311D01*
X5106Y123718D01*
X6175Y129095D01*
X5106Y134471D01*
X2060Y139029D01*
X-2498Y142075D01*
X-7874Y143144D01*
X-13251Y142075D01*
X-17809Y139029D01*
X-20854Y134471D01*
X-21073Y133370D01*
X-26171D01*
X-26390Y134471D01*
X-29436Y139029D01*
X-33994Y142075D01*
X-39370Y143144D01*
X-44747Y142075D01*
X-49305Y139029D01*
X-52350Y134471D01*
X-53420Y129095D01*
X-52350Y123718D01*
X-49405Y119311D01*
Y108592D01*
X-112012D01*
Y127953D01*
X-112077Y128279D01*
X-112034Y128609D01*
X-112287Y132463D01*
X-112542Y133418D01*
X-112607Y134404D01*
X-114602Y141850D01*
X-115183Y143027D01*
X-115605Y144270D01*
X-119459Y150945D01*
X-120324Y151932D01*
X-121053Y153024D01*
X-126504Y158474D01*
X-127595Y159203D01*
X-128582Y160069D01*
X-135258Y163923D01*
X-136501Y164345D01*
X-137678Y164926D01*
X-145123Y166921D01*
X-146433Y167006D01*
X-147721Y167262D01*
X-155429D01*
X-156716Y167006D01*
X-158026Y166921D01*
X-165472Y164926D01*
X-166649Y164345D01*
X-167892Y163923D01*
X-174567Y160069D01*
X-175554Y159204D01*
X-176646Y158474D01*
X-182096Y153024D01*
X-182826Y151932D01*
X-183691Y150945D01*
X-187545Y144270D01*
X-187967Y143027D01*
X-188548Y141850D01*
X-190543Y134404D01*
X-190607Y133418D01*
X-190863Y132463D01*
X-191116Y128609D01*
X-191072Y128279D01*
X-191137Y127953D01*
Y108592D01*
X-340904D01*
Y113970D01*
X-341974Y119346D01*
X-345019Y123904D01*
X-360144Y139029D01*
X-364702Y142075D01*
X-370079Y143144D01*
X-375455Y142075D01*
X-380013Y139029D01*
X-383059Y134471D01*
X-384128Y129095D01*
X-383059Y123718D01*
X-380013Y119160D01*
X-374065Y113212D01*
X-375978Y108592D01*
X-498455D01*
X-500354Y113175D01*
X-500903Y113997D01*
X-501281Y114910D01*
X-504711Y120044D01*
X-505410Y120743D01*
X-505959Y121565D01*
X-510325Y125931D01*
X-511147Y126480D01*
X-511846Y127179D01*
X-516979Y130609D01*
X-517893Y130987D01*
X-518714Y131536D01*
X-524419Y133899D01*
X-525388Y134092D01*
X-526301Y134470D01*
X-532357Y135675D01*
X-533101D01*
X-533822Y135855D01*
X-536909Y136007D01*
X-537156Y135970D01*
X-537402Y136019D01*
X-580516D01*
Y1358268D01*
X-433071D01*
Y472441D01*
X433071D01*
Y1358268D01*
X580516D01*
Y136019D01*
D02*
G37*
%LPC*%
G36*
X226969Y1441339D02*
X217717D01*
Y1431102D01*
X226969D01*
Y1441339D01*
D02*
G37*
G36*
X325394D02*
X316142D01*
Y1431102D01*
X325394D01*
Y1441339D01*
D02*
G37*
G36*
X209843D02*
X200591D01*
Y1431102D01*
X209843D01*
Y1441339D01*
D02*
G37*
G36*
X308268D02*
X299016D01*
Y1431102D01*
X308268D01*
Y1441339D01*
D02*
G37*
G36*
X128543Y1441339D02*
X119291D01*
Y1431102D01*
X128543D01*
Y1441339D01*
D02*
G37*
G36*
X111418D02*
X102165D01*
Y1431102D01*
X111418D01*
Y1441339D01*
D02*
G37*
G36*
X325394Y1423228D02*
X316142D01*
Y1412992D01*
X325394D01*
Y1423228D01*
D02*
G37*
G36*
X308268D02*
X299016D01*
Y1412992D01*
X308268D01*
Y1423228D01*
D02*
G37*
G36*
X226969D02*
X217717D01*
Y1412992D01*
X226969D01*
Y1423228D01*
D02*
G37*
G36*
X209843D02*
X200591D01*
Y1412992D01*
X209843D01*
Y1423228D01*
D02*
G37*
G36*
X128543Y1423228D02*
X119291D01*
Y1412992D01*
X128543D01*
Y1423228D01*
D02*
G37*
G36*
X111418D02*
X102165D01*
Y1412992D01*
X111418D01*
Y1423228D01*
D02*
G37*
G36*
X128543Y1401969D02*
X119291D01*
Y1391732D01*
X128543D01*
Y1401969D01*
D02*
G37*
G36*
X226968D02*
X217717D01*
Y1391732D01*
X226968D01*
Y1401969D01*
D02*
G37*
G36*
X325394D02*
X316142D01*
Y1391732D01*
X325394D01*
Y1401969D01*
D02*
G37*
G36*
X111418D02*
X102165D01*
Y1391732D01*
X111418D01*
Y1401969D01*
D02*
G37*
G36*
X308268D02*
X299016D01*
Y1391732D01*
X308268D01*
Y1401969D01*
D02*
G37*
G36*
X209843D02*
X200591D01*
Y1391732D01*
X209843D01*
Y1401969D01*
D02*
G37*
G36*
X325394Y1383858D02*
X316142D01*
Y1373622D01*
X325394D01*
Y1383858D01*
D02*
G37*
G36*
X308268D02*
X299016D01*
Y1373622D01*
X308268D01*
Y1383858D01*
D02*
G37*
G36*
X226968D02*
X217717D01*
Y1373622D01*
X226968D01*
Y1383858D01*
D02*
G37*
G36*
X209843D02*
X200591D01*
Y1373622D01*
X209843D01*
Y1383858D01*
D02*
G37*
G36*
X128543D02*
X119291D01*
Y1373622D01*
X128543D01*
Y1383858D01*
D02*
G37*
G36*
X111418D02*
X102165D01*
Y1373622D01*
X111418D01*
Y1383858D01*
D02*
G37*
G36*
X291535Y1480709D02*
X265158D01*
Y1452362D01*
X268311D01*
Y1441339D01*
X265158D01*
Y1412992D01*
X268311D01*
Y1401969D01*
X265158D01*
Y1373622D01*
X268311D01*
Y1362599D01*
X265158D01*
Y1334252D01*
X291535D01*
Y1362599D01*
X288382D01*
Y1373622D01*
X291535D01*
Y1401969D01*
X288382D01*
Y1412992D01*
X291536D01*
Y1441339D01*
X288382D01*
Y1452362D01*
X291535D01*
Y1480709D01*
D02*
G37*
G36*
X193110D02*
X166732D01*
Y1452362D01*
X169886D01*
Y1441339D01*
X166732D01*
Y1412992D01*
X169886D01*
Y1401969D01*
X166732D01*
Y1373622D01*
X169886D01*
Y1362599D01*
X166732D01*
Y1334252D01*
X193110D01*
Y1362599D01*
X189957D01*
Y1373622D01*
X193110D01*
Y1401969D01*
X189957D01*
Y1412992D01*
X193110D01*
Y1441339D01*
X189957D01*
Y1452362D01*
X193110D01*
Y1480709D01*
D02*
G37*
G36*
X94685D02*
X68307D01*
Y1452362D01*
X71461D01*
Y1441339D01*
X68307D01*
Y1412992D01*
X71461D01*
Y1401969D01*
X68307D01*
Y1373622D01*
X71461D01*
Y1362599D01*
X68307D01*
Y1334252D01*
X94685D01*
Y1362599D01*
X91531D01*
Y1373622D01*
X94685D01*
Y1401969D01*
X91531D01*
Y1412992D01*
X94685D01*
Y1441339D01*
X91531D01*
Y1452362D01*
X94685D01*
Y1480709D01*
D02*
G37*
G36*
X291535Y1323228D02*
X282283D01*
Y1312992D01*
X291535D01*
Y1323228D01*
D02*
G37*
G36*
X274409D02*
X265157D01*
Y1312992D01*
X274409D01*
Y1323228D01*
D02*
G37*
G36*
X193110D02*
X183858D01*
Y1312992D01*
X193110D01*
Y1323228D01*
D02*
G37*
G36*
X175984D02*
X166732D01*
Y1312992D01*
X175984D01*
Y1323228D01*
D02*
G37*
G36*
X94685D02*
X85433D01*
Y1312992D01*
X94685D01*
Y1323228D01*
D02*
G37*
G36*
X77559D02*
X68307D01*
Y1312992D01*
X77559D01*
Y1323228D01*
D02*
G37*
G36*
X291535Y1305118D02*
X282283D01*
Y1294882D01*
X291535D01*
Y1305118D01*
D02*
G37*
G36*
X274409D02*
X265157D01*
Y1294882D01*
X274409D01*
Y1305118D01*
D02*
G37*
G36*
X193110D02*
X183858D01*
Y1294882D01*
X193110D01*
Y1305118D01*
D02*
G37*
G36*
X175984D02*
X166732D01*
Y1294882D01*
X175984D01*
Y1305118D01*
D02*
G37*
G36*
X94685D02*
X85433D01*
Y1294882D01*
X94685D01*
Y1305118D01*
D02*
G37*
G36*
X77559D02*
X68307D01*
Y1294882D01*
X77559D01*
Y1305118D01*
D02*
G37*
G36*
X291535Y1283858D02*
X282284D01*
Y1273622D01*
X291535D01*
Y1283858D01*
D02*
G37*
G36*
X274409D02*
X265158D01*
Y1273622D01*
X274409D01*
Y1283858D01*
D02*
G37*
G36*
X193110D02*
X183858D01*
Y1273622D01*
X193110D01*
Y1283858D01*
D02*
G37*
G36*
X175984D02*
X166732D01*
Y1273622D01*
X175984D01*
Y1283858D01*
D02*
G37*
G36*
X94685D02*
X85433D01*
Y1273622D01*
X94685D01*
Y1283858D01*
D02*
G37*
G36*
X77559D02*
X68307D01*
Y1273622D01*
X77559D01*
Y1283858D01*
D02*
G37*
G36*
X291535Y1265748D02*
X282284D01*
Y1255512D01*
X291535D01*
Y1265748D01*
D02*
G37*
G36*
X274409D02*
X265158D01*
Y1255512D01*
X274409D01*
Y1265748D01*
D02*
G37*
G36*
X193110D02*
X183858D01*
Y1255512D01*
X193110D01*
Y1265748D01*
D02*
G37*
G36*
X175984D02*
X166732D01*
Y1255512D01*
X175984D01*
Y1265748D01*
D02*
G37*
G36*
X94685D02*
X85433D01*
Y1255512D01*
X94685D01*
Y1265748D01*
D02*
G37*
G36*
X77559D02*
X68307D01*
Y1255512D01*
X77559D01*
Y1265748D01*
D02*
G37*
G36*
X238386Y1126378D02*
X229134D01*
Y1116142D01*
X238386D01*
Y1126378D01*
D02*
G37*
G36*
X221260D02*
X212008D01*
Y1116142D01*
X221260D01*
Y1126378D01*
D02*
G37*
G36*
X238386Y1108268D02*
X229134D01*
Y1098032D01*
X238386D01*
Y1108268D01*
D02*
G37*
G36*
X221260D02*
X212008D01*
Y1098032D01*
X221260D01*
Y1108268D01*
D02*
G37*
G36*
X72835Y1106299D02*
Y1092520D01*
X77756D01*
Y1106299D01*
X72835D01*
D02*
G37*
G36*
X-102166Y1362599D02*
X-111418D01*
Y1352362D01*
X-102166D01*
Y1362599D01*
D02*
G37*
G36*
X-119291D02*
X-128543D01*
Y1352362D01*
X-119291D01*
Y1362599D01*
D02*
G37*
G36*
X-102166Y1344488D02*
X-111418D01*
Y1334252D01*
X-102166D01*
Y1344488D01*
D02*
G37*
G36*
X-119291D02*
X-128543D01*
Y1334252D01*
X-119291D01*
Y1344488D01*
D02*
G37*
G36*
X-102166Y1323228D02*
X-111418D01*
Y1312992D01*
X-102166D01*
Y1323228D01*
D02*
G37*
G36*
X-119291D02*
X-128543D01*
Y1312992D01*
X-119291D01*
Y1323228D01*
D02*
G37*
G36*
X-102166Y1305118D02*
X-111418D01*
Y1294882D01*
X-102166D01*
Y1305118D01*
D02*
G37*
G36*
X-119291D02*
X-128543D01*
Y1294882D01*
X-119291D01*
Y1305118D01*
D02*
G37*
G36*
X-102166Y1283858D02*
X-111418D01*
Y1273622D01*
X-102166D01*
Y1283858D01*
D02*
G37*
G36*
X-119291D02*
X-128543D01*
Y1273622D01*
X-119291D01*
Y1283858D01*
D02*
G37*
G36*
X-102166Y1265748D02*
X-111418D01*
Y1255512D01*
X-102166D01*
Y1265748D01*
D02*
G37*
G36*
X-119291D02*
X-128543D01*
Y1255512D01*
X-119291D01*
Y1265748D01*
D02*
G37*
G36*
X-200591Y1362599D02*
X-209843D01*
Y1352362D01*
X-200591D01*
Y1362599D01*
D02*
G37*
G36*
X-217717D02*
X-226969D01*
Y1352362D01*
X-217717D01*
Y1362599D01*
D02*
G37*
G36*
X-200591Y1344488D02*
X-209843D01*
Y1334252D01*
X-200591D01*
Y1344488D01*
D02*
G37*
G36*
X-217717D02*
X-226969D01*
Y1334252D01*
X-217717D01*
Y1344488D01*
D02*
G37*
G36*
X-200591Y1323228D02*
X-209843D01*
Y1312992D01*
X-200591D01*
Y1323228D01*
D02*
G37*
G36*
X-217716D02*
X-226968D01*
Y1312992D01*
X-217716D01*
Y1323228D01*
D02*
G37*
G36*
X-200591Y1305118D02*
X-209843D01*
Y1294882D01*
X-200591D01*
Y1305118D01*
D02*
G37*
G36*
X-217716D02*
X-226968D01*
Y1294882D01*
X-217716D01*
Y1305118D01*
D02*
G37*
G36*
X-200591Y1283858D02*
X-209843D01*
Y1273622D01*
X-200591D01*
Y1283858D01*
D02*
G37*
G36*
X-217716D02*
X-226968D01*
Y1273622D01*
X-217716D01*
Y1283858D01*
D02*
G37*
G36*
X-200591Y1265748D02*
X-209843D01*
Y1255512D01*
X-200591D01*
Y1265748D01*
D02*
G37*
G36*
X-217716D02*
X-226968D01*
Y1255512D01*
X-217716D01*
Y1265748D01*
D02*
G37*
G36*
X-234055Y1047638D02*
X-243307D01*
Y1037402D01*
X-234055D01*
Y1047638D01*
D02*
G37*
G36*
X-251181D02*
X-260433D01*
Y1037402D01*
X-251181D01*
Y1047638D01*
D02*
G37*
G36*
X-234055Y1029528D02*
X-260433D01*
Y1019291D01*
X-255272D01*
Y1008268D01*
X-260433D01*
Y998031D01*
X-234055D01*
Y1008268D01*
X-239216D01*
Y1019291D01*
X-234055D01*
Y1029528D01*
D02*
G37*
G36*
Y990157D02*
X-243307D01*
Y979921D01*
X-234055D01*
Y990157D01*
D02*
G37*
G36*
X-251181D02*
X-260433D01*
Y979921D01*
X-251181D01*
Y990157D01*
D02*
G37*
G36*
X-234055Y968898D02*
X-260433D01*
Y962753D01*
X-275155D01*
X-278809Y966406D01*
X-283873Y968504D01*
X-289355D01*
X-294420Y966406D01*
X-298296Y962530D01*
X-300394Y957465D01*
Y951984D01*
X-298296Y946919D01*
X-294420Y943043D01*
X-289355Y940945D01*
X-283873D01*
X-278809Y943043D01*
X-275155Y946696D01*
X-260433D01*
Y940551D01*
X-234055D01*
Y968898D01*
D02*
G37*
G36*
Y929528D02*
X-260433D01*
Y923383D01*
X-275155D01*
X-278809Y927036D01*
X-283873Y929134D01*
X-289355D01*
X-294420Y927036D01*
X-298296Y923160D01*
X-300394Y918095D01*
Y912613D01*
X-298296Y907549D01*
X-294420Y903673D01*
X-289355Y901575D01*
X-283873D01*
X-278809Y903673D01*
X-275155Y907326D01*
X-260433D01*
Y901181D01*
X-234055D01*
Y929528D01*
D02*
G37*
G36*
X-200197Y811417D02*
X-209449D01*
Y801181D01*
X-200197D01*
Y811417D01*
D02*
G37*
G36*
X-217323D02*
X-226575D01*
Y801181D01*
X-217323D01*
Y811417D01*
D02*
G37*
G36*
X79134Y807677D02*
X68898D01*
Y798425D01*
X79134D01*
Y807677D01*
D02*
G37*
G36*
Y790551D02*
X68898D01*
Y781299D01*
X79134D01*
Y790551D01*
D02*
G37*
G36*
X45276Y814961D02*
X31496D01*
Y799212D01*
Y783465D01*
X45276D01*
Y786460D01*
X50787D01*
Y781299D01*
X61024D01*
Y794488D01*
Y807677D01*
X50787D01*
Y802516D01*
X45276D01*
Y814961D01*
D02*
G37*
G36*
X-68897Y773819D02*
X-79134D01*
Y764567D01*
X-68897D01*
Y773819D01*
D02*
G37*
G36*
X-200197Y793307D02*
X-213386D01*
X-226575D01*
Y783071D01*
X-221414D01*
Y772047D01*
X-226575D01*
Y761811D01*
X-213386D01*
X-200197D01*
Y772047D01*
X-205358D01*
Y783071D01*
X-200197D01*
Y793307D01*
D02*
G37*
G36*
X-9842Y771654D02*
X-23622D01*
Y759843D01*
X-9842D01*
Y771654D01*
D02*
G37*
G36*
X-68897Y756693D02*
X-79134D01*
Y747441D01*
X-68897D01*
Y756693D01*
D02*
G37*
G36*
X-200197Y753937D02*
X-209449D01*
Y743701D01*
X-200197D01*
Y753937D01*
D02*
G37*
G36*
X-217323D02*
X-226575D01*
Y743701D01*
X-217323D01*
Y753937D01*
D02*
G37*
G36*
X-9842Y751969D02*
X-23622D01*
Y740158D01*
X-9842D01*
Y751969D01*
D02*
G37*
G36*
X-50787Y773819D02*
X-61023D01*
Y760630D01*
Y747441D01*
X-50787D01*
Y752602D01*
X-45276D01*
Y740158D01*
X-31496D01*
Y755906D01*
Y771654D01*
X-45276D01*
Y768658D01*
X-50787D01*
Y773819D01*
D02*
G37*
G36*
X-299016Y1362599D02*
X-308268D01*
Y1352362D01*
X-299016D01*
Y1362599D01*
D02*
G37*
G36*
X-316142D02*
X-325394D01*
Y1352362D01*
X-316142D01*
Y1362599D01*
D02*
G37*
G36*
X-299016Y1344488D02*
X-308268D01*
Y1334252D01*
X-299016D01*
Y1344488D01*
D02*
G37*
G36*
X-316142D02*
X-325394D01*
Y1334252D01*
X-316142D01*
Y1344488D01*
D02*
G37*
G36*
X-299016Y1323228D02*
X-308268D01*
Y1312992D01*
X-299016D01*
Y1323228D01*
D02*
G37*
G36*
X-316142D02*
X-325394D01*
Y1312992D01*
X-316142D01*
Y1323228D01*
D02*
G37*
G36*
X-299016Y1305118D02*
X-308268D01*
Y1294882D01*
X-299016D01*
Y1305118D01*
D02*
G37*
G36*
X-316142D02*
X-325394D01*
Y1294882D01*
X-316142D01*
Y1305118D01*
D02*
G37*
G36*
X-299016Y1283858D02*
X-308268D01*
Y1273622D01*
X-299016D01*
Y1283858D01*
D02*
G37*
G36*
X-316142D02*
X-325394D01*
Y1273622D01*
X-316142D01*
Y1283858D01*
D02*
G37*
G36*
X-299016Y1265748D02*
X-308268D01*
Y1255512D01*
X-299016D01*
Y1265748D01*
D02*
G37*
G36*
X-316142D02*
X-325394D01*
Y1255512D01*
X-316142D01*
Y1265748D01*
D02*
G37*
G36*
X-265866Y1128028D02*
X-268938Y1127417D01*
X-271543Y1125677D01*
X-273283Y1123072D01*
X-273894Y1120000D01*
X-273283Y1116928D01*
X-271543Y1114323D01*
X-268938Y1112583D01*
X-265866Y1111972D01*
X-262794Y1112583D01*
X-260189Y1114323D01*
X-258449Y1116928D01*
X-257838Y1120000D01*
X-258449Y1123072D01*
X-260189Y1125677D01*
X-262794Y1127417D01*
X-265866Y1128028D01*
D02*
G37*
G36*
X-98425Y1071850D02*
X-112205D01*
Y1066929D01*
X-98425D01*
Y1071850D01*
D02*
G37*
G36*
X286811Y433225D02*
X283739Y432614D01*
X281134Y430874D01*
X279394Y428269D01*
X278783Y425197D01*
X279394Y422125D01*
X281134Y419520D01*
X283739Y417780D01*
X286811Y417169D01*
X289883Y417780D01*
X292488Y419520D01*
X294228Y422125D01*
X294839Y425197D01*
X294228Y428269D01*
X292488Y430874D01*
X289883Y432614D01*
X286811Y433225D01*
D02*
G37*
G36*
X236811D02*
X233739Y432614D01*
X231134Y430874D01*
X229394Y428269D01*
X228783Y425197D01*
X229394Y422125D01*
X231134Y419520D01*
X233739Y417780D01*
X236811Y417169D01*
X239883Y417780D01*
X242488Y419520D01*
X244228Y422125D01*
X244839Y425197D01*
X244228Y428269D01*
X242488Y430874D01*
X239883Y432614D01*
X236811Y433225D01*
D02*
G37*
%LPD*%
D11*
X64961Y760630D02*
D03*
Y794488D02*
D03*
X-64961D02*
D03*
Y760630D02*
D03*
D13*
X-312205Y1269685D02*
D03*
X-278346D02*
D03*
X213780Y1427165D02*
D03*
X179921D02*
D03*
X312205D02*
D03*
X278347D02*
D03*
X81496Y1466535D02*
D03*
X115354D02*
D03*
X278346D02*
D03*
X312205D02*
D03*
X179921D02*
D03*
X213780D02*
D03*
X-179921Y1269685D02*
D03*
X-213780D02*
D03*
X-213386Y915354D02*
D03*
X-247244D02*
D03*
Y1072835D02*
D03*
X-213386D02*
D03*
X225197Y757874D02*
D03*
X259055D02*
D03*
X225197Y836614D02*
D03*
X259055D02*
D03*
X225197Y797244D02*
D03*
X259055D02*
D03*
Y915354D02*
D03*
X225197D02*
D03*
Y875984D02*
D03*
X259055D02*
D03*
X-247244Y836614D02*
D03*
X-213386D02*
D03*
Y797244D02*
D03*
X-247244D02*
D03*
X-213386Y757874D02*
D03*
X-247244D02*
D03*
X-213386Y875984D02*
D03*
X-247244D02*
D03*
X-213386Y994094D02*
D03*
X-247244D02*
D03*
X-213386Y954724D02*
D03*
X-247244D02*
D03*
X259055Y1112205D02*
D03*
X225197D02*
D03*
X225197Y994095D02*
D03*
X259055D02*
D03*
X225197Y954724D02*
D03*
X259055D02*
D03*
Y1033465D02*
D03*
X225197D02*
D03*
Y1072835D02*
D03*
X259055D02*
D03*
X-213386Y1033465D02*
D03*
X-247244D02*
D03*
X115354Y1269685D02*
D03*
X81496D02*
D03*
X213780D02*
D03*
X179921D02*
D03*
X312205D02*
D03*
X278346D02*
D03*
X115354Y1309055D02*
D03*
X81496D02*
D03*
X213780D02*
D03*
X179921D02*
D03*
X312204D02*
D03*
X278346D02*
D03*
X81496Y1387795D02*
D03*
X115354D02*
D03*
X179921D02*
D03*
X213780D02*
D03*
X278346D02*
D03*
X312205D02*
D03*
X-115355Y1269685D02*
D03*
X-81496D02*
D03*
X-278347Y1348425D02*
D03*
X-312205D02*
D03*
X-179922D02*
D03*
X-213780D02*
D03*
X-81496D02*
D03*
X-115355D02*
D03*
X-278346Y1309055D02*
D03*
X-312205D02*
D03*
X-179921D02*
D03*
X-213780D02*
D03*
X-81496D02*
D03*
X-115355D02*
D03*
X312205Y1348425D02*
D03*
X278346D02*
D03*
X213780D02*
D03*
X179921D02*
D03*
X115354D02*
D03*
X81496D02*
D03*
X115354Y1427165D02*
D03*
X81496D02*
D03*
D17*
X464567Y55118D02*
D03*
X433071D02*
D03*
X401575D02*
D03*
X370079D02*
D03*
X338583D02*
D03*
X307087D02*
D03*
X275591D02*
D03*
X244095D02*
D03*
X212598D02*
D03*
X181102D02*
D03*
X149606D02*
D03*
X118110D02*
D03*
X86614D02*
D03*
X55118D02*
D03*
X23622D02*
D03*
X-7874D02*
D03*
X-39370D02*
D03*
X-70866D02*
D03*
X-228346D02*
D03*
X-259842D02*
D03*
X-291339D02*
D03*
X-322835D02*
D03*
X-354331D02*
D03*
X-385827D02*
D03*
X-417323D02*
D03*
X-448819D02*
D03*
D18*
X-196851Y1463976D02*
Y1663386D01*
X-196850Y1663386D01*
X-196851Y1463976D02*
X-196851Y1463976D01*
X-354954Y55741D02*
X-354331Y55118D01*
X-370079Y129095D02*
X-354954Y113970D01*
Y55741D02*
Y113970D01*
X-98425Y1463976D02*
Y1663386D01*
X-295276Y1463976D02*
Y1663386D01*
X-295276Y1463976D02*
X-295276Y1463976D01*
Y1663386D02*
X-295276Y1663386D01*
D19*
X259055Y935039D02*
Y1112205D01*
Y1132035D01*
X259055Y719055D02*
Y757874D01*
Y703044D02*
Y719055D01*
X246011Y690000D02*
X259055Y703044D01*
X-247244Y690000D02*
X246011D01*
X-247244D02*
Y757874D01*
Y612756D02*
Y690000D01*
X259055Y757874D02*
Y935039D01*
X-270236Y589764D02*
X-247244Y612756D01*
X-337795Y589764D02*
X-270236D01*
X-247244Y816929D02*
Y836614D01*
Y797244D02*
Y816929D01*
X149606Y55118D02*
Y129095D01*
X118110Y55118D02*
Y129095D01*
X86614Y55118D02*
Y129095D01*
X55118Y55118D02*
Y129095D01*
X-7874Y55118D02*
Y129095D01*
X-39370Y55118D02*
Y129095D01*
X114788Y1269119D02*
X115354Y1269685D01*
Y1309055D01*
X114788Y1249330D02*
Y1269119D01*
X9842Y1144384D02*
X114788Y1249330D01*
X29528Y1088583D02*
Y1141799D01*
X100000Y1190000D02*
X270000D01*
X93477Y1205748D02*
X185748D01*
X29528Y1141799D02*
X93477Y1205748D01*
X49213Y1088583D02*
Y1139213D01*
X100000Y1190000D01*
X9842Y1088583D02*
Y1144384D01*
X185748Y1205748D02*
X213780Y1233780D01*
X270000Y1190000D02*
X312205Y1232205D01*
Y1309055D02*
Y1348425D01*
Y1269685D02*
Y1309055D01*
Y1232205D02*
Y1269685D01*
X213780Y1233780D02*
Y1269685D01*
X-247244Y836614D02*
Y875984D01*
Y757874D02*
Y797244D01*
X259055Y757874D02*
X259055Y757874D01*
X278346Y1348425D02*
Y1387795D01*
Y1462756D01*
X179921Y1348425D02*
Y1387795D01*
Y1462756D01*
X213780Y1269685D02*
Y1309055D01*
Y1348425D01*
X115354Y1309055D02*
Y1348425D01*
X81496Y1387795D02*
Y1462756D01*
Y1348425D02*
Y1387795D01*
X295276Y1546575D02*
Y1663386D01*
Y1546575D02*
X312205Y1529646D01*
Y1462756D02*
Y1529646D01*
X196850Y1546575D02*
Y1663386D01*
Y1546575D02*
X213780Y1529646D01*
Y1462756D02*
Y1529646D01*
X115354Y1462756D02*
Y1529646D01*
X98425Y1546575D02*
X115354Y1529646D01*
X98425Y1546575D02*
Y1663386D01*
X464567Y55118D02*
Y129095D01*
X370079Y55118D02*
Y129095D01*
X307087Y55118D02*
Y129095D01*
X23622Y55118D02*
Y129095D01*
X-70866Y55118D02*
Y129095D01*
X-228346Y55118D02*
Y129095D01*
D20*
X-286614Y954724D02*
X-247244D01*
X49213Y879405D02*
Y899606D01*
Y879405D02*
X170744Y757874D01*
X148077Y797244D02*
X225197D01*
X170744Y757874D02*
X225197D01*
X68898Y876423D02*
X148077Y797244D01*
X-98425Y866142D02*
Y896575D01*
X-94488Y900512D01*
Y925197D01*
X-118307Y1043307D02*
X-94488D01*
X-213386Y1072835D02*
X-147835D01*
X-118307Y1043307D01*
X-68898Y842520D02*
Y899606D01*
X-295276Y1072835D02*
X-247244D01*
Y994094D02*
Y1033465D01*
X-286614Y915354D02*
X-247244D01*
X-213386Y757874D02*
Y797244D01*
X94488Y1062992D02*
X133858D01*
X29528Y842520D02*
Y899606D01*
X202835Y1072835D02*
X225197D01*
X173307Y1043307D02*
X202835Y1072835D01*
X94488Y1043307D02*
X173307D01*
X95472Y1002953D02*
X197047D01*
X205905Y994095D02*
X225197D01*
X197047Y1002953D02*
X205905Y994095D01*
X202480Y1032480D02*
X225197D01*
X94488Y1023622D02*
X193622D01*
X202480Y1032480D01*
X94488Y1003937D02*
X95472Y1002953D01*
X94488Y984252D02*
X114274D01*
X143801Y954724D02*
X225197D01*
X114274Y984252D02*
X143801Y954724D01*
X113926Y964349D02*
X162921Y915354D01*
X94488Y925197D02*
X119672D01*
X185588Y875984D02*
X225197D01*
X208254Y836614D02*
X225197D01*
X94488Y964567D02*
X94706Y964349D01*
X162921Y915354D02*
X225197D01*
X94706Y964349D02*
X113926D01*
X116690Y944882D02*
X185588Y875984D01*
X94488Y944882D02*
X116690D01*
X119672Y925197D02*
X208254Y836614D01*
X68898Y876423D02*
Y899606D01*
X32284Y794488D02*
X64961D01*
X27559Y799212D02*
X32284Y794488D01*
X-32283Y760630D02*
X-27559Y755905D01*
X-64961Y760630D02*
X-32283D01*
X-118081Y1023622D02*
X-94488D01*
X-147609Y994094D02*
X-118081Y1023622D01*
X-170276Y954724D02*
X-121063Y1003937D01*
X-94488D01*
X-213386Y994094D02*
X-147609D01*
X-170000Y890000D02*
Y921594D01*
X-124045Y984252D02*
X-94488D01*
X-192942Y915354D02*
X-124045Y984252D01*
X-127027Y964567D02*
X-94488D01*
X-170000Y921594D02*
X-127027Y964567D01*
X-213386Y915354D02*
X-192942D01*
X-158189Y851811D02*
Y916701D01*
X-213386Y954724D02*
X-170276D01*
X-158189Y916701D02*
X-130008Y944882D01*
X-94488D01*
X-213386Y875984D02*
X-184016D01*
X-170000Y890000D01*
X-173386Y836614D02*
X-158189Y851811D01*
X-213386Y836614D02*
X-173386D01*
X-213386Y1033464D02*
Y1072835D01*
D21*
X-476378Y1891732D02*
D03*
X476378D02*
D03*
D22*
X295276Y1663386D02*
D03*
D23*
X196850D02*
D03*
X98425D02*
D03*
X0D02*
D03*
X-98425D02*
D03*
X-196850D02*
D03*
X-295276D02*
D03*
D24*
X-45000Y1375000D02*
D03*
X-140000D02*
D03*
X485000Y1045000D02*
D03*
X-485000D02*
D03*
X480000Y1325000D02*
D03*
X-485000D02*
D03*
X511811Y511811D02*
D03*
Y354331D02*
D03*
Y196850D02*
D03*
X-511811Y511811D02*
D03*
Y354331D02*
D03*
Y196850D02*
D03*
X-340000Y1125000D02*
D03*
X-307099Y1220489D02*
D03*
X-286614Y954724D02*
D03*
X-285315Y1013779D02*
D03*
X259055Y719055D02*
D03*
X259055Y1132035D02*
D03*
X23622Y129095D02*
D03*
X-337795Y589764D02*
D03*
X-247244Y816929D02*
D03*
X259055Y935039D02*
D03*
X-130000Y760630D02*
D03*
X149606Y129095D02*
D03*
X118110D02*
D03*
X86614D02*
D03*
X55118D02*
D03*
X-7874D02*
D03*
X-39370D02*
D03*
X-370079D02*
D03*
X342520Y760630D02*
D03*
Y890000D02*
D03*
Y980000D02*
D03*
Y1120000D02*
D03*
X-185000Y760630D02*
D03*
X-286614Y777559D02*
D03*
Y856299D02*
D03*
X-185000D02*
D03*
Y975000D02*
D03*
X200000Y895000D02*
D03*
X185000Y935000D02*
D03*
X165000Y980000D02*
D03*
X170000Y825000D02*
D03*
X105000Y890000D02*
D03*
X95000Y794488D02*
D03*
X-40000Y865000D02*
D03*
X-130000Y900000D02*
D03*
X-165000Y1033465D02*
D03*
X278346Y1160000D02*
D03*
X175000Y1165000D02*
D03*
X342520Y1235000D02*
D03*
Y1427165D02*
D03*
Y1309055D02*
D03*
X49213Y1462756D02*
D03*
Y1377953D02*
D03*
Y1309055D02*
D03*
X246063D02*
D03*
Y1427165D02*
D03*
X147638D02*
D03*
Y1309055D02*
D03*
Y1235000D02*
D03*
X246063D02*
D03*
X179921Y1102362D02*
D03*
X115354D02*
D03*
X-49213Y1309055D02*
D03*
X-9842Y1200787D02*
D03*
X-115354Y1120000D02*
D03*
X-213780D02*
D03*
X-245000Y1377953D02*
D03*
X-340000D02*
D03*
X-140000Y1309055D02*
D03*
X-240000D02*
D03*
X-340000D02*
D03*
X-213780Y1200787D02*
D03*
X-115354D02*
D03*
X-68898Y842520D02*
D03*
X-98425Y866142D02*
D03*
X-295276Y1072835D02*
D03*
X-286614Y915354D02*
D03*
X133858Y1062992D02*
D03*
X29528Y842520D02*
D03*
D26*
X-196851Y1463976D02*
D03*
Y1390354D02*
D03*
X-98425Y1463976D02*
D03*
Y1390354D02*
D03*
X-295276Y1463976D02*
D03*
Y1390354D02*
D03*
D27*
X-94488Y1062992D02*
D03*
Y1043307D02*
D03*
Y1023622D02*
D03*
Y1003937D02*
D03*
Y984252D02*
D03*
Y964567D02*
D03*
Y944882D02*
D03*
Y925197D02*
D03*
X94488D02*
D03*
Y944882D02*
D03*
Y964567D02*
D03*
Y984252D02*
D03*
Y1003937D02*
D03*
Y1023622D02*
D03*
Y1043307D02*
D03*
Y1062992D02*
D03*
D28*
X-68898Y899606D02*
D03*
X-49213D02*
D03*
X-29528D02*
D03*
X-9842D02*
D03*
X9842D02*
D03*
X29528D02*
D03*
X49213D02*
D03*
X68898D02*
D03*
Y1088583D02*
D03*
X49213D02*
D03*
X29528D02*
D03*
X9842D02*
D03*
X-9842D02*
D03*
X-29528D02*
D03*
X-49213D02*
D03*
X-68898D02*
D03*
D29*
X0Y994095D02*
D03*
D30*
X27559Y799212D02*
D03*
X-27559D02*
D03*
Y755905D02*
D03*
X27559D02*
D03*
D31*
X-268095Y1160000D02*
X-85000D01*
X-278346Y1170251D02*
X-268095Y1160000D01*
X-278346Y1170251D02*
Y1269685D01*
X-278347Y1309055D02*
Y1348425D01*
Y1269685D02*
Y1309055D01*
X-68898Y1088583D02*
Y1143898D01*
X-79292Y1173780D02*
X-49213Y1143700D01*
X-81496Y1195470D02*
X-29528Y1143502D01*
X-49213Y1088583D02*
Y1143700D01*
X-85000Y1160000D02*
X-68898Y1143898D01*
X-81496Y1195470D02*
Y1269685D01*
X-163780Y1173780D02*
X-79292D01*
X-29528Y1088583D02*
Y1143502D01*
X-179921Y1189921D02*
X-163780Y1173780D01*
X-81496Y1309055D02*
Y1348425D01*
Y1269685D02*
Y1309055D01*
X3937Y777559D02*
Y865000D01*
X-25590Y799212D02*
X-9842Y814960D01*
Y899606D01*
X-27559Y799212D02*
X-25590D01*
X3937Y865000D02*
X9842Y870905D01*
Y899606D01*
X3937Y777559D02*
X25591Y755905D01*
X-179921Y1309055D02*
Y1348425D01*
Y1269685D02*
Y1309055D01*
X-179921Y1189921D02*
Y1269685D01*
X25591Y755905D02*
X27559D01*
X-62598Y796850D02*
X-29921D01*
X-64961Y794488D02*
X-62598Y796850D01*
X-29921D02*
X-27559Y799212D01*
X29921Y758268D02*
X62598D01*
X64961Y760630D01*
X27559Y755905D02*
X29921Y758268D01*
X-81496Y1348425D02*
Y1386811D01*
X-179922Y1348425D02*
Y1386811D01*
X-278347Y1348425D02*
Y1386811D01*
%TF.MD5,ae457f2e1f4d753054b84f7fb34e1d0d*%
M02*
