%TF.GenerationSoftware,Altium Limited,Altium Designer,22.1.2 (22)*%
G04 Layer_Physical_Order=4*
G04 Layer_Color=16711680*
%FSLAX26Y26*%
%MOIN*%
%TF.SameCoordinates,654C00B4-3322-4B45-B6E3-0FD47356756A*%
%TF.FilePolarity,Positive*%
%TF.FileFunction,Copper,L4,Bot,Signal*%
%TF.Part,Single*%
G01*
G75*
%TA.AperFunction,ConnectorPad*%
%ADD11R,0.023622X0.090551*%
%TA.AperFunction,SMDPad,CuDef*%
%ADD12R,0.018504X0.020472*%
%TA.AperFunction,Conductor*%
%ADD13C,0.011811*%
%TA.AperFunction,ComponentPad*%
%ADD14C,0.053150*%
%ADD15R,0.053150X0.053150*%
%TA.AperFunction,ViaPad*%
%ADD16R,0.208661X0.208661*%
%ADD17C,0.019685*%
%TA.AperFunction,Conductor*%
%ADD18C,0.007874*%
%TA.AperFunction,SMDPad,CuDef*%
%ADD19R,0.135827X0.135827*%
%ADD20R,0.009842X0.027559*%
%ADD21R,0.027559X0.009842*%
%ADD22R,0.039370X0.015748*%
%ADD23R,0.055118X0.027559*%
%ADD24R,0.027559X0.023622*%
%ADD25R,0.020472X0.018504*%
%TA.AperFunction,Conductor*%
%ADD26C,0.019685*%
%ADD27C,0.009842*%
G36*
X305965Y1636813D02*
X304961Y1636459D01*
X304075Y1635868D01*
X303307Y1635041D01*
X302658Y1633978D01*
X302126Y1632679D01*
X301713Y1631144D01*
X301417Y1629372D01*
X301240Y1627364D01*
X301181Y1625120D01*
X289370D01*
X289311Y1627364D01*
X289134Y1629372D01*
X288839Y1631144D01*
X288425Y1632679D01*
X287894Y1633978D01*
X287244Y1635041D01*
X286476Y1635868D01*
X285591Y1636459D01*
X284587Y1636813D01*
X283465Y1636931D01*
X307087D01*
X305965Y1636813D01*
D02*
G37*
G36*
X-81487Y1642646D02*
X-82976Y1640794D01*
X-84290Y1638853D01*
X-85429Y1636822D01*
X-86393Y1634702D01*
X-87181Y1632492D01*
X-87794Y1630192D01*
X-88232Y1627803D01*
X-88495Y1625324D01*
X-88583Y1622756D01*
X-108268D01*
X-108355Y1625324D01*
X-108618Y1627803D01*
X-109056Y1630192D01*
X-109669Y1632492D01*
X-110458Y1634702D01*
X-111421Y1636822D01*
X-112560Y1638853D01*
X-113874Y1640794D01*
X-115363Y1642646D01*
X-117028Y1644408D01*
X-79823D01*
X-81487Y1642646D01*
D02*
G37*
G36*
X-178248Y1644408D02*
X-179912Y1642646D01*
X-181402Y1640794D01*
X-182716Y1638853D01*
X-183854Y1636822D01*
X-184818Y1634702D01*
X-185606Y1632492D01*
X-186220Y1630192D01*
X-186658Y1627803D01*
X-186920Y1625324D01*
X-187008Y1622756D01*
X-206693D01*
X-206781Y1625324D01*
X-207043Y1627803D01*
X-207481Y1630192D01*
X-208095Y1632492D01*
X-208883Y1634702D01*
X-209846Y1636822D01*
X-210985Y1638853D01*
X-212299Y1640794D01*
X-213788Y1642646D01*
X-215453Y1644408D01*
X-178248Y1644408D01*
D02*
G37*
G36*
X-276673D02*
X-278338Y1642646D01*
X-279827Y1640794D01*
X-281141Y1638853D01*
X-282280Y1636822D01*
X-283243Y1634702D01*
X-284032Y1632492D01*
X-284645Y1630192D01*
X-285083Y1627803D01*
X-285346Y1625324D01*
X-285433Y1622756D01*
X-305118D01*
X-305206Y1625324D01*
X-305469Y1627803D01*
X-305907Y1630192D01*
X-306520Y1632492D01*
X-307308Y1634702D01*
X-308272Y1636822D01*
X-309411Y1638853D01*
X-310724Y1640794D01*
X-312214Y1642646D01*
X-313878Y1644408D01*
X-276673Y1644408D01*
D02*
G37*
G36*
X213040Y1641939D02*
X208977Y1637122D01*
X207327Y1634774D01*
X205930Y1632466D01*
X204787Y1630198D01*
X203899Y1627971D01*
X203264Y1625784D01*
X202883Y1623637D01*
X202756Y1621531D01*
X190945D01*
X190818Y1623637D01*
X190437Y1625784D01*
X189802Y1627971D01*
X188913Y1630198D01*
X187771Y1632466D01*
X186374Y1634774D01*
X184723Y1637122D01*
X182819Y1639510D01*
X180660Y1641939D01*
X178248Y1644408D01*
X215453D01*
X213040Y1641939D01*
D02*
G37*
G36*
X114615D02*
X110552Y1637122D01*
X108902Y1634774D01*
X107505Y1632466D01*
X106362Y1630198D01*
X105473Y1627971D01*
X104839Y1625784D01*
X104458Y1623637D01*
X104331Y1621531D01*
X92520D01*
X92393Y1623637D01*
X92012Y1625784D01*
X91377Y1627971D01*
X90488Y1630198D01*
X89346Y1632466D01*
X87949Y1634774D01*
X86298Y1637122D01*
X84394Y1639510D01*
X82235Y1641939D01*
X79823Y1644408D01*
X117028D01*
X114615Y1641939D01*
D02*
G37*
G36*
X355000Y1054999D02*
X275473Y1054999D01*
X272244Y1058661D01*
X272448Y1062718D01*
X272297Y1063084D01*
X272371Y1063525D01*
X272244Y1063718D01*
Y1087008D01*
X245866D01*
Y1063718D01*
X245738Y1063525D01*
X245775Y1063310D01*
X244469Y1058653D01*
X243347Y1058569D01*
X242509Y1058811D01*
X238386Y1063208D01*
Y1068898D01*
X212008D01*
Y1059999D01*
X208778Y1054999D01*
X172066Y1054999D01*
X168894Y1058864D01*
X169715Y1062992D01*
X168035Y1071441D01*
X163249Y1078603D01*
X156087Y1083389D01*
X147638Y1085070D01*
X139189Y1083389D01*
X132693Y1079049D01*
X120079D01*
Y1079724D01*
X108708D01*
X108148Y1079836D01*
X107823Y1079771D01*
X107495Y1079818D01*
X107129Y1079724D01*
X77756D01*
Y1084646D01*
X68897D01*
Y1088583D01*
X64960D01*
Y1106299D01*
X60039D01*
X59248Y1110971D01*
Y1135056D01*
X73409Y1149217D01*
X264252D01*
X268092Y1149981D01*
X271348Y1152156D01*
X319301Y1200109D01*
X321476Y1203364D01*
X322240Y1207205D01*
Y1247341D01*
X322370Y1247629D01*
X322470Y1250932D01*
X323122Y1255512D01*
X323123D01*
Y1255512D01*
X325394D01*
X325598Y1259569D01*
X325447Y1259934D01*
X325521Y1260375D01*
X325394Y1260568D01*
Y1278802D01*
X325521Y1278995D01*
X325447Y1279437D01*
X325598Y1279801D01*
X325394Y1283859D01*
X323123D01*
Y1283858D01*
X323122D01*
X322477Y1288439D01*
X322433Y1289088D01*
X322470Y1290302D01*
X323122Y1294882D01*
X323123D01*
Y1294882D01*
X325394D01*
X325598Y1298939D01*
X325447Y1299304D01*
X325521Y1299745D01*
X325393Y1299938D01*
Y1318172D01*
X325521Y1318365D01*
X325447Y1318807D01*
X325598Y1319171D01*
X325394Y1323229D01*
X323123D01*
Y1323228D01*
X323122D01*
X322477Y1327809D01*
X322433Y1328457D01*
X322470Y1329672D01*
X323122Y1334252D01*
X323123D01*
Y1334252D01*
X325394D01*
X325598Y1338309D01*
X325447Y1338674D01*
X325521Y1339115D01*
X325394Y1339309D01*
Y1362599D01*
X299016D01*
Y1339309D01*
X298888Y1339115D01*
X298962Y1338674D01*
X298811Y1338309D01*
X299016Y1334252D01*
X301286D01*
Y1334252D01*
X301287D01*
X301932Y1329671D01*
X301976Y1329023D01*
X301940Y1327809D01*
X301287Y1323228D01*
X301286D01*
Y1323229D01*
X299015D01*
X298811Y1319171D01*
X298962Y1318807D01*
X298888Y1318365D01*
X299016Y1318172D01*
Y1299938D01*
X298888Y1299745D01*
X298962Y1299304D01*
X298811Y1298939D01*
X299015Y1294882D01*
X301286D01*
Y1294882D01*
X301287D01*
X301932Y1290301D01*
X301976Y1289653D01*
X301940Y1288438D01*
X301287Y1283858D01*
X301286D01*
Y1283859D01*
X299016D01*
X298811Y1279801D01*
X298962Y1279437D01*
X298888Y1278995D01*
X299016Y1278802D01*
Y1260568D01*
X298888Y1260375D01*
X298962Y1259934D01*
X298811Y1259569D01*
X299016Y1255512D01*
X301286D01*
Y1255512D01*
X301287D01*
X301932Y1250931D01*
X302007Y1249827D01*
X302038Y1247697D01*
X302169Y1247392D01*
Y1211361D01*
X260095Y1169287D01*
X195012D01*
X193099Y1173907D01*
X220875Y1201684D01*
X223051Y1204939D01*
X223815Y1208780D01*
Y1247341D01*
X223944Y1247629D01*
X224045Y1250932D01*
X224697Y1255512D01*
X224698D01*
Y1255512D01*
X226969D01*
X227173Y1259569D01*
X227022Y1259934D01*
X227096Y1260375D01*
X226968Y1260568D01*
Y1278802D01*
X227096Y1278995D01*
X227022Y1279437D01*
X227173Y1279801D01*
X226969Y1283859D01*
X224698D01*
Y1283858D01*
X224697D01*
X224052Y1288439D01*
X224008Y1289087D01*
X224045Y1290302D01*
X224697Y1294882D01*
X224698D01*
Y1294882D01*
X226969D01*
X227173Y1298939D01*
X227022Y1299304D01*
X227096Y1299745D01*
X226968Y1299938D01*
Y1318172D01*
X227096Y1318365D01*
X227022Y1318807D01*
X227173Y1319171D01*
X226969Y1323229D01*
X224698D01*
Y1323228D01*
X224697D01*
X224052Y1327809D01*
X224008Y1328457D01*
X224045Y1329672D01*
X224697Y1334252D01*
X224698D01*
Y1334252D01*
X226969D01*
X227173Y1338309D01*
X227022Y1338674D01*
X227096Y1339115D01*
X226968Y1339309D01*
Y1362599D01*
X200591D01*
Y1339309D01*
X200463Y1339115D01*
X200537Y1338674D01*
X200386Y1338309D01*
X200590Y1334252D01*
X202861D01*
Y1334252D01*
X202862D01*
X203507Y1329671D01*
X203551Y1329023D01*
X203514Y1327809D01*
X202862Y1323228D01*
X202861D01*
Y1323229D01*
X200590D01*
X200386Y1319171D01*
X200537Y1318807D01*
X200463Y1318365D01*
X200591Y1318172D01*
Y1299938D01*
X200463Y1299745D01*
X200537Y1299304D01*
X200386Y1298939D01*
X200590Y1294882D01*
X202861D01*
Y1294882D01*
X202862D01*
X203507Y1290301D01*
X203551Y1289653D01*
X203514Y1288438D01*
X202862Y1283858D01*
X202861D01*
Y1283859D01*
X200590D01*
X200386Y1279801D01*
X200537Y1279437D01*
X200463Y1278995D01*
X200591Y1278802D01*
Y1260568D01*
X200463Y1260375D01*
X200537Y1259934D01*
X200386Y1259569D01*
X200590Y1255512D01*
X202861D01*
Y1255512D01*
X202862D01*
X203507Y1250931D01*
X203582Y1249827D01*
X203613Y1247697D01*
X203744Y1247392D01*
Y1212936D01*
X175843Y1185035D01*
X70760D01*
X68847Y1189655D01*
X121655Y1242463D01*
X123831Y1245719D01*
X124454Y1248851D01*
X124725Y1249469D01*
X124758Y1251029D01*
X126272Y1255512D01*
X128543D01*
X128748Y1259569D01*
X128696Y1259694D01*
X128712Y1260122D01*
X128543Y1260415D01*
Y1278802D01*
X128671Y1278995D01*
X128597Y1279437D01*
X128748Y1279801D01*
X128543Y1283859D01*
X126272D01*
Y1283858D01*
X126272D01*
X125627Y1288439D01*
X125583Y1289087D01*
X125620Y1290302D01*
X126272Y1294882D01*
X126272D01*
Y1294882D01*
X128543D01*
X128748Y1298939D01*
X128597Y1299304D01*
X128671Y1299745D01*
X128543Y1299938D01*
Y1318172D01*
X128671Y1318365D01*
X128597Y1318807D01*
X128748Y1319171D01*
X128543Y1323229D01*
X126272D01*
Y1323228D01*
X126272D01*
X125627Y1327809D01*
X125583Y1328457D01*
X125620Y1329672D01*
X126272Y1334252D01*
X126272D01*
Y1334252D01*
X128543D01*
X128748Y1338309D01*
X128597Y1338674D01*
X128671Y1339115D01*
X128543Y1339309D01*
Y1362599D01*
X102165D01*
Y1339309D01*
X102038Y1339115D01*
X102112Y1338674D01*
X101961Y1338309D01*
X102165Y1334252D01*
X104436D01*
Y1334252D01*
X104437D01*
X105082Y1329671D01*
X105126Y1329023D01*
X105089Y1327809D01*
X104437Y1323228D01*
X104436D01*
Y1323229D01*
X102165D01*
X101961Y1319171D01*
X102112Y1318807D01*
X102038Y1318365D01*
X102165Y1318172D01*
Y1299938D01*
X102038Y1299745D01*
X102112Y1299304D01*
X101961Y1298939D01*
X102165Y1294882D01*
X104436D01*
Y1294882D01*
X104437D01*
X105082Y1290301D01*
X105126Y1289653D01*
X105089Y1288438D01*
X104437Y1283858D01*
X104436D01*
Y1283859D01*
X102165D01*
X101961Y1279801D01*
X102112Y1279437D01*
X102038Y1278995D01*
X102165Y1278802D01*
Y1260627D01*
X102058Y1260471D01*
X102142Y1260006D01*
X101961Y1259569D01*
X102165Y1255512D01*
X101567Y1250759D01*
X2747Y1151938D01*
X571Y1148683D01*
X-193Y1144842D01*
Y1110971D01*
X-984Y1106299D01*
X-5193Y1106299D01*
X-5906D01*
Y1088583D01*
X-13780D01*
Y1106299D01*
X-18701D01*
X-20496Y1110556D01*
Y1143501D01*
X-20496Y1143502D01*
X-21183Y1146958D01*
X-23141Y1149888D01*
X-23142Y1149889D01*
X-72464Y1199211D01*
Y1249290D01*
X-72314Y1249630D01*
X-72282Y1251052D01*
X-70579Y1255512D01*
X-68307D01*
X-68103Y1259569D01*
X-68150Y1259683D01*
X-68135Y1260089D01*
X-68307Y1260394D01*
Y1278858D01*
X-68307Y1278976D01*
X-68135Y1279281D01*
X-68150Y1279688D01*
X-68103Y1279801D01*
X-68307Y1283859D01*
X-70579Y1283858D01*
X-72283Y1288318D01*
X-72306Y1289370D01*
X-72283Y1290422D01*
X-70579Y1294882D01*
X-68307D01*
X-68103Y1298939D01*
X-68150Y1299053D01*
X-68135Y1299459D01*
X-68307Y1299764D01*
Y1318228D01*
X-68307Y1318346D01*
X-68135Y1318651D01*
X-68150Y1319058D01*
X-68103Y1319171D01*
X-68307Y1323229D01*
X-70579Y1323228D01*
X-72283Y1327688D01*
X-72306Y1328740D01*
X-72283Y1329793D01*
X-70579Y1334252D01*
X-68307D01*
X-68103Y1338309D01*
X-68150Y1338423D01*
X-68135Y1338829D01*
X-68307Y1339134D01*
Y1357599D01*
X-68307Y1357716D01*
X-68135Y1358021D01*
X-68150Y1358428D01*
X-68103Y1358541D01*
X-68307Y1362599D01*
X-70579Y1362599D01*
X-72283Y1367058D01*
X-72294Y1367555D01*
X-72269Y1368505D01*
X-72147Y1369907D01*
X-71961Y1371038D01*
X-71737Y1371878D01*
X-71521Y1372412D01*
X-71437Y1372553D01*
X-71202Y1372578D01*
X-71091Y1372638D01*
X-66929D01*
Y1391142D01*
X-11811D01*
Y1490000D01*
X100611D01*
X100810Y1489938D01*
X104468Y1485709D01*
X104467Y1485613D01*
X103332Y1480709D01*
X102165D01*
X101961Y1476651D01*
X102112Y1476287D01*
X102038Y1475845D01*
X102165Y1475652D01*
Y1452362D01*
X128543D01*
Y1475652D01*
X128671Y1475845D01*
X128597Y1476287D01*
X128748Y1476651D01*
X128543Y1480709D01*
X127553D01*
X126087Y1485498D01*
X126081Y1485663D01*
X127745Y1488206D01*
X129785Y1489893D01*
X130119Y1490000D01*
X199036D01*
X199236Y1489938D01*
X202893Y1485709D01*
X202892Y1485613D01*
X201758Y1480709D01*
X200590D01*
X200386Y1476651D01*
X200537Y1476287D01*
X200463Y1475845D01*
X200591Y1475652D01*
Y1452362D01*
X226968D01*
Y1475652D01*
X227096Y1475845D01*
X227022Y1476287D01*
X227173Y1476651D01*
X226969Y1480709D01*
X225978D01*
X224512Y1485498D01*
X224506Y1485663D01*
X226170Y1488206D01*
X228210Y1489893D01*
X228545Y1490000D01*
X297461D01*
X297661Y1489938D01*
X301318Y1485709D01*
X301317Y1485613D01*
X300183Y1480709D01*
X299016D01*
X298811Y1476651D01*
X298962Y1476287D01*
X298888Y1475845D01*
X299016Y1475652D01*
Y1452362D01*
X325394D01*
Y1475652D01*
X325521Y1475845D01*
X325447Y1476287D01*
X325598Y1476651D01*
X325394Y1480709D01*
X324404D01*
X322937Y1485498D01*
X322931Y1485663D01*
X324595Y1488206D01*
X326635Y1489893D01*
X326970Y1490000D01*
X355000D01*
Y1054999D01*
D02*
G37*
G36*
X318142Y1486218D02*
X318401Y1482439D01*
X318626Y1480904D01*
X318917Y1479604D01*
X319272Y1478541D01*
X319691Y1477715D01*
X320175Y1477124D01*
X320724Y1476770D01*
X321337Y1476652D01*
X303073D01*
X303686Y1476770D01*
X304234Y1477124D01*
X304718Y1477715D01*
X305138Y1478541D01*
X305493Y1479604D01*
X305783Y1480904D01*
X306009Y1482439D01*
X306170Y1484211D01*
X306299Y1488463D01*
X318110D01*
X318142Y1486218D01*
D02*
G37*
G36*
X219717D02*
X219975Y1482439D01*
X220201Y1480904D01*
X220492Y1479604D01*
X220846Y1478541D01*
X221266Y1477715D01*
X221750Y1477124D01*
X222298Y1476770D01*
X222911Y1476652D01*
X204648D01*
X205261Y1476770D01*
X205809Y1477124D01*
X206293Y1477715D01*
X206713Y1478541D01*
X207067Y1479604D01*
X207358Y1480904D01*
X207584Y1482439D01*
X207745Y1484211D01*
X207874Y1488463D01*
X219685D01*
X219717Y1486218D01*
D02*
G37*
G36*
X121292D02*
X121550Y1482439D01*
X121776Y1480904D01*
X122066Y1479604D01*
X122421Y1478541D01*
X122841Y1477715D01*
X123325Y1477124D01*
X123873Y1476770D01*
X124486Y1476652D01*
X106222D01*
X106835Y1476770D01*
X107384Y1477124D01*
X107868Y1477715D01*
X108287Y1478541D01*
X108642Y1479604D01*
X108933Y1480904D01*
X109158Y1482439D01*
X109320Y1484211D01*
X109449Y1488463D01*
X121260D01*
X121292Y1486218D01*
D02*
G37*
G36*
X-72589Y1376715D02*
X-73425Y1376416D01*
X-74164Y1375918D01*
X-74803Y1375221D01*
X-75345Y1374324D01*
X-75788Y1373228D01*
X-76132Y1371933D01*
X-76378Y1370439D01*
X-76526Y1368745D01*
X-76556Y1367563D01*
X-76533Y1366514D01*
X-76407Y1364841D01*
X-76196Y1363364D01*
X-75901Y1362085D01*
X-75522Y1361002D01*
X-75059Y1360116D01*
X-74512Y1359427D01*
X-73880Y1358935D01*
X-73164Y1358640D01*
X-72364Y1358542D01*
X-90628D01*
X-89828Y1358640D01*
X-89112Y1358935D01*
X-88481Y1359427D01*
X-87933Y1360116D01*
X-87470Y1361002D01*
X-87091Y1362085D01*
X-86796Y1363364D01*
X-86586Y1364841D01*
X-86460Y1366514D01*
X-86436Y1367563D01*
X-86467Y1368745D01*
X-86614Y1370439D01*
X-86861Y1371933D01*
X-87205Y1373228D01*
X-87648Y1374324D01*
X-88189Y1375221D01*
X-88829Y1375918D01*
X-89567Y1376416D01*
X-90404Y1376715D01*
X-91339Y1376815D01*
X-71654D01*
X-72589Y1376715D01*
D02*
G37*
G36*
X-171014D02*
X-171851Y1376416D01*
X-172589Y1375918D01*
X-173229Y1375221D01*
X-173770Y1374324D01*
X-174213Y1373228D01*
X-174557Y1371933D01*
X-174803Y1370439D01*
X-174951Y1368745D01*
X-174982Y1367563D01*
X-174958Y1366514D01*
X-174832Y1364841D01*
X-174621Y1363364D01*
X-174327Y1362085D01*
X-173948Y1361002D01*
X-173484Y1360116D01*
X-172937Y1359427D01*
X-172305Y1358935D01*
X-171590Y1358640D01*
X-170790Y1358542D01*
X-189053D01*
X-188253Y1358640D01*
X-187538Y1358935D01*
X-186906Y1359427D01*
X-186359Y1360116D01*
X-185895Y1361002D01*
X-185517Y1362085D01*
X-185222Y1363364D01*
X-185011Y1364841D01*
X-184885Y1366514D01*
X-184861Y1367563D01*
X-184892Y1368745D01*
X-185040Y1370439D01*
X-185286Y1371933D01*
X-185630Y1373228D01*
X-186073Y1374324D01*
X-186614Y1375221D01*
X-187254Y1375918D01*
X-187992Y1376416D01*
X-188829Y1376715D01*
X-189764Y1376815D01*
X-170079D01*
X-171014Y1376715D01*
D02*
G37*
G36*
X-269439D02*
X-270276Y1376416D01*
X-271014Y1375918D01*
X-271654Y1375221D01*
X-272195Y1374324D01*
X-272638Y1373228D01*
X-272983Y1371933D01*
X-273229Y1370439D01*
X-273376Y1368745D01*
X-273407Y1367563D01*
X-273383Y1366514D01*
X-273257Y1364841D01*
X-273046Y1363364D01*
X-272752Y1362085D01*
X-272373Y1361002D01*
X-271910Y1360116D01*
X-271362Y1359427D01*
X-270731Y1358935D01*
X-270015Y1358640D01*
X-269215Y1358542D01*
X-287479D01*
X-286679Y1358640D01*
X-285963Y1358935D01*
X-285331Y1359427D01*
X-284784Y1360116D01*
X-284321Y1361002D01*
X-283942Y1362085D01*
X-283647Y1363364D01*
X-283436Y1364841D01*
X-283310Y1366514D01*
X-283286Y1367563D01*
X-283317Y1368745D01*
X-283465Y1370439D01*
X-283711Y1371933D01*
X-284055Y1373228D01*
X-284498Y1374324D01*
X-285040Y1375221D01*
X-285679Y1375918D01*
X-286418Y1376416D01*
X-287254Y1376715D01*
X-288189Y1376815D01*
X-268504D01*
X-269439Y1376715D01*
D02*
G37*
G36*
X320724Y1338191D02*
X320175Y1337837D01*
X319691Y1337246D01*
X319272Y1336419D01*
X318917Y1335356D01*
X318626Y1334057D01*
X318401Y1332522D01*
X318239Y1330750D01*
X318167Y1328376D01*
X318401Y1324959D01*
X318626Y1323423D01*
X318917Y1322124D01*
X319272Y1321061D01*
X319691Y1320234D01*
X320175Y1319644D01*
X320723Y1319290D01*
X321336Y1319171D01*
X303073D01*
X303686Y1319290D01*
X304234Y1319644D01*
X304718Y1320234D01*
X305138Y1321061D01*
X305493Y1322124D01*
X305783Y1323423D01*
X306009Y1324959D01*
X306170Y1326730D01*
X306242Y1329104D01*
X306009Y1332522D01*
X305783Y1334057D01*
X305493Y1335356D01*
X305138Y1336419D01*
X304718Y1337246D01*
X304234Y1337837D01*
X303686Y1338191D01*
X303073Y1338309D01*
X321337D01*
X320724Y1338191D01*
D02*
G37*
G36*
X222298D02*
X221750Y1337837D01*
X221266Y1337246D01*
X220846Y1336419D01*
X220492Y1335356D01*
X220201Y1334057D01*
X219975Y1332522D01*
X219814Y1330750D01*
X219742Y1328376D01*
X219975Y1324959D01*
X220201Y1323423D01*
X220492Y1322124D01*
X220846Y1321061D01*
X221266Y1320234D01*
X221750Y1319644D01*
X222298Y1319290D01*
X222911Y1319171D01*
X204648D01*
X205261Y1319290D01*
X205809Y1319644D01*
X206293Y1320234D01*
X206713Y1321061D01*
X207067Y1322124D01*
X207358Y1323423D01*
X207584Y1324959D01*
X207745Y1326730D01*
X207817Y1329104D01*
X207584Y1332522D01*
X207358Y1334057D01*
X207067Y1335356D01*
X206713Y1336419D01*
X206293Y1337246D01*
X205809Y1337837D01*
X205261Y1338191D01*
X204648Y1338309D01*
X222911D01*
X222298Y1338191D01*
D02*
G37*
G36*
X123873D02*
X123325Y1337837D01*
X122841Y1337246D01*
X122421Y1336419D01*
X122066Y1335356D01*
X121776Y1334057D01*
X121550Y1332522D01*
X121389Y1330750D01*
X121317Y1328376D01*
X121550Y1324959D01*
X121776Y1323423D01*
X122066Y1322124D01*
X122421Y1321061D01*
X122841Y1320234D01*
X123325Y1319644D01*
X123873Y1319290D01*
X124486Y1319171D01*
X106222D01*
X106835Y1319290D01*
X107384Y1319644D01*
X107868Y1320234D01*
X108287Y1321061D01*
X108642Y1322124D01*
X108933Y1323423D01*
X109158Y1324959D01*
X109320Y1326730D01*
X109392Y1329104D01*
X109158Y1332522D01*
X108933Y1334057D01*
X108642Y1335356D01*
X108287Y1336419D01*
X107868Y1337246D01*
X107384Y1337837D01*
X106835Y1338191D01*
X106222Y1338309D01*
X124486D01*
X123873Y1338191D01*
D02*
G37*
G36*
X-73164Y1338211D02*
X-73880Y1337915D01*
X-74512Y1337423D01*
X-75059Y1336734D01*
X-75522Y1335849D01*
X-75901Y1334766D01*
X-76196Y1333486D01*
X-76406Y1332010D01*
X-76533Y1330337D01*
X-76569Y1328740D01*
X-76533Y1327144D01*
X-76406Y1325471D01*
X-76196Y1323994D01*
X-75901Y1322715D01*
X-75522Y1321632D01*
X-75059Y1320746D01*
X-74512Y1320057D01*
X-73880Y1319565D01*
X-73164Y1319270D01*
X-72364Y1319171D01*
X-90628D01*
X-89828Y1319270D01*
X-89112Y1319565D01*
X-88481Y1320057D01*
X-87933Y1320746D01*
X-87470Y1321632D01*
X-87091Y1322715D01*
X-86796Y1323994D01*
X-86586Y1325471D01*
X-86460Y1327144D01*
X-86424Y1328740D01*
X-86460Y1330337D01*
X-86586Y1332010D01*
X-86796Y1333486D01*
X-87091Y1334766D01*
X-87470Y1335849D01*
X-87933Y1336734D01*
X-88481Y1337423D01*
X-89112Y1337915D01*
X-89828Y1338211D01*
X-90628Y1338309D01*
X-72364D01*
X-73164Y1338211D01*
D02*
G37*
G36*
X-171590D02*
X-172305Y1337915D01*
X-172937Y1337423D01*
X-173484Y1336734D01*
X-173947Y1335849D01*
X-174327Y1334766D01*
X-174621Y1333486D01*
X-174832Y1332010D01*
X-174958Y1330337D01*
X-174994Y1328740D01*
X-174958Y1327144D01*
X-174832Y1325471D01*
X-174621Y1323994D01*
X-174326Y1322715D01*
X-173947Y1321632D01*
X-173484Y1320746D01*
X-172937Y1320057D01*
X-172305Y1319565D01*
X-171589Y1319270D01*
X-170789Y1319171D01*
X-189053D01*
X-188253Y1319270D01*
X-187537Y1319565D01*
X-186906Y1320057D01*
X-186358Y1320746D01*
X-185895Y1321632D01*
X-185516Y1322715D01*
X-185222Y1323994D01*
X-185011Y1325471D01*
X-184885Y1327144D01*
X-184849Y1328740D01*
X-184885Y1330337D01*
X-185011Y1332010D01*
X-185222Y1333486D01*
X-185516Y1334766D01*
X-185895Y1335849D01*
X-186358Y1336734D01*
X-186906Y1337423D01*
X-187537Y1337915D01*
X-188253Y1338211D01*
X-189053Y1338309D01*
X-170790D01*
X-171590Y1338211D01*
D02*
G37*
G36*
X-270015D02*
X-270731Y1337915D01*
X-271362Y1337423D01*
X-271910Y1336734D01*
X-272373Y1335849D01*
X-272752Y1334766D01*
X-273046Y1333486D01*
X-273257Y1332010D01*
X-273383Y1330337D01*
X-273419Y1328740D01*
X-273383Y1327144D01*
X-273257Y1325471D01*
X-273046Y1323994D01*
X-272752Y1322715D01*
X-272373Y1321632D01*
X-271909Y1320746D01*
X-271362Y1320057D01*
X-270731Y1319565D01*
X-270015Y1319270D01*
X-269215Y1319171D01*
X-287478D01*
X-286678Y1319270D01*
X-285963Y1319565D01*
X-285331Y1320057D01*
X-284784Y1320746D01*
X-284320Y1321632D01*
X-283942Y1322715D01*
X-283647Y1323994D01*
X-283436Y1325471D01*
X-283310Y1327144D01*
X-283274Y1328740D01*
X-283310Y1330337D01*
X-283436Y1332010D01*
X-283647Y1333486D01*
X-283942Y1334766D01*
X-284320Y1335849D01*
X-284784Y1336734D01*
X-285331Y1337423D01*
X-285963Y1337915D01*
X-286679Y1338211D01*
X-287479Y1338309D01*
X-269215D01*
X-270015Y1338211D01*
D02*
G37*
G36*
X320723Y1298821D02*
X320175Y1298467D01*
X319691Y1297876D01*
X319272Y1297049D01*
X318917Y1295986D01*
X318626Y1294687D01*
X318401Y1293152D01*
X318239Y1291380D01*
X318167Y1289007D01*
X318401Y1285589D01*
X318626Y1284053D01*
X318917Y1282754D01*
X319272Y1281691D01*
X319691Y1280864D01*
X320175Y1280274D01*
X320724Y1279919D01*
X321337Y1279801D01*
X303073D01*
X303686Y1279919D01*
X304234Y1280274D01*
X304718Y1280864D01*
X305138Y1281691D01*
X305493Y1282754D01*
X305783Y1284053D01*
X306009Y1285589D01*
X306170Y1287360D01*
X306242Y1289734D01*
X306009Y1293152D01*
X305783Y1294687D01*
X305493Y1295986D01*
X305138Y1297049D01*
X304718Y1297876D01*
X304234Y1298467D01*
X303686Y1298821D01*
X303073Y1298939D01*
X321336D01*
X320723Y1298821D01*
D02*
G37*
G36*
X222298D02*
X221750Y1298467D01*
X221266Y1297876D01*
X220846Y1297049D01*
X220492Y1295986D01*
X220201Y1294687D01*
X219975Y1293152D01*
X219814Y1291380D01*
X219742Y1289006D01*
X219975Y1285589D01*
X220201Y1284053D01*
X220492Y1282754D01*
X220846Y1281691D01*
X221266Y1280864D01*
X221750Y1280274D01*
X222298Y1279919D01*
X222911Y1279801D01*
X204648D01*
X205261Y1279919D01*
X205809Y1280274D01*
X206293Y1280864D01*
X206713Y1281691D01*
X207067Y1282754D01*
X207358Y1284053D01*
X207584Y1285589D01*
X207745Y1287360D01*
X207817Y1289734D01*
X207584Y1293152D01*
X207358Y1294687D01*
X207067Y1295986D01*
X206713Y1297049D01*
X206293Y1297876D01*
X205809Y1298467D01*
X205261Y1298821D01*
X204648Y1298939D01*
X222911D01*
X222298Y1298821D01*
D02*
G37*
G36*
X123873D02*
X123325Y1298467D01*
X122841Y1297876D01*
X122421Y1297049D01*
X122066Y1295986D01*
X121776Y1294687D01*
X121550Y1293152D01*
X121389Y1291380D01*
X121317Y1289006D01*
X121550Y1285589D01*
X121776Y1284053D01*
X122066Y1282754D01*
X122421Y1281691D01*
X122841Y1280864D01*
X123325Y1280274D01*
X123873Y1279919D01*
X124486Y1279801D01*
X106222D01*
X106835Y1279919D01*
X107384Y1280274D01*
X107868Y1280864D01*
X108287Y1281691D01*
X108642Y1282754D01*
X108933Y1284053D01*
X109158Y1285589D01*
X109320Y1287360D01*
X109392Y1289734D01*
X109158Y1293152D01*
X108933Y1294687D01*
X108642Y1295986D01*
X108287Y1297049D01*
X107868Y1297876D01*
X107384Y1298467D01*
X106835Y1298821D01*
X106222Y1298939D01*
X124486D01*
X123873Y1298821D01*
D02*
G37*
G36*
X-73164Y1298841D02*
X-73880Y1298545D01*
X-74512Y1298053D01*
X-75059Y1297364D01*
X-75522Y1296478D01*
X-75901Y1295396D01*
X-76196Y1294116D01*
X-76406Y1292640D01*
X-76533Y1290967D01*
X-76569Y1289370D01*
X-76533Y1287774D01*
X-76406Y1286101D01*
X-76196Y1284624D01*
X-75901Y1283345D01*
X-75522Y1282262D01*
X-75059Y1281376D01*
X-74512Y1280687D01*
X-73880Y1280195D01*
X-73164Y1279900D01*
X-72364Y1279801D01*
X-90628D01*
X-89828Y1279900D01*
X-89112Y1280195D01*
X-88481Y1280687D01*
X-87933Y1281376D01*
X-87470Y1282262D01*
X-87091Y1283345D01*
X-86796Y1284624D01*
X-86586Y1286101D01*
X-86460Y1287774D01*
X-86424Y1289370D01*
X-86460Y1290967D01*
X-86586Y1292640D01*
X-86796Y1294116D01*
X-87091Y1295396D01*
X-87470Y1296478D01*
X-87933Y1297364D01*
X-88481Y1298053D01*
X-89112Y1298545D01*
X-89828Y1298841D01*
X-90628Y1298939D01*
X-72364D01*
X-73164Y1298841D01*
D02*
G37*
G36*
X-171589D02*
X-172305Y1298545D01*
X-172937Y1298053D01*
X-173484Y1297364D01*
X-173947Y1296478D01*
X-174326Y1295396D01*
X-174621Y1294116D01*
X-174832Y1292640D01*
X-174958Y1290967D01*
X-174994Y1289370D01*
X-174958Y1287774D01*
X-174832Y1286101D01*
X-174621Y1284624D01*
X-174326Y1283345D01*
X-173947Y1282262D01*
X-173484Y1281376D01*
X-172937Y1280687D01*
X-172305Y1280195D01*
X-171589Y1279900D01*
X-170789Y1279801D01*
X-189053D01*
X-188253Y1279900D01*
X-187537Y1280195D01*
X-186906Y1280687D01*
X-186358Y1281376D01*
X-185895Y1282262D01*
X-185516Y1283345D01*
X-185222Y1284624D01*
X-185011Y1286101D01*
X-184885Y1287774D01*
X-184849Y1289370D01*
X-184885Y1290967D01*
X-185011Y1292640D01*
X-185222Y1294116D01*
X-185516Y1295396D01*
X-185895Y1296478D01*
X-186358Y1297364D01*
X-186906Y1298053D01*
X-187537Y1298545D01*
X-188253Y1298841D01*
X-189053Y1298939D01*
X-170789D01*
X-171589Y1298841D01*
D02*
G37*
G36*
X-270015D02*
X-270731Y1298545D01*
X-271362Y1298053D01*
X-271909Y1297364D01*
X-272373Y1296478D01*
X-272752Y1295396D01*
X-273046Y1294116D01*
X-273257Y1292640D01*
X-273383Y1290967D01*
X-273419Y1289370D01*
X-273383Y1287774D01*
X-273257Y1286101D01*
X-273046Y1284624D01*
X-272752Y1283345D01*
X-272373Y1282262D01*
X-271909Y1281376D01*
X-271362Y1280687D01*
X-270731Y1280195D01*
X-270015Y1279900D01*
X-269215Y1279801D01*
X-287478D01*
X-286678Y1279900D01*
X-285963Y1280195D01*
X-285331Y1280687D01*
X-284784Y1281376D01*
X-284320Y1282262D01*
X-283942Y1283345D01*
X-283647Y1284624D01*
X-283436Y1286101D01*
X-283310Y1287774D01*
X-283274Y1289370D01*
X-283310Y1290967D01*
X-283436Y1292640D01*
X-283647Y1294116D01*
X-283942Y1295396D01*
X-284320Y1296478D01*
X-284784Y1297364D01*
X-285331Y1298053D01*
X-285963Y1298545D01*
X-286678Y1298841D01*
X-287478Y1298939D01*
X-269215D01*
X-270015Y1298841D01*
D02*
G37*
G36*
X-73164Y1259470D02*
X-73880Y1259175D01*
X-74512Y1258683D01*
X-75059Y1257994D01*
X-75522Y1257108D01*
X-75901Y1256026D01*
X-76196Y1254746D01*
X-76406Y1253270D01*
X-76533Y1251597D01*
X-76575Y1249726D01*
X-86417D01*
X-86460Y1251597D01*
X-86586Y1253270D01*
X-86796Y1254746D01*
X-87091Y1256026D01*
X-87470Y1257108D01*
X-87933Y1257994D01*
X-88481Y1258683D01*
X-89112Y1259175D01*
X-89828Y1259470D01*
X-90628Y1259569D01*
X-72364D01*
X-73164Y1259470D01*
D02*
G37*
G36*
X-171589D02*
X-172305Y1259175D01*
X-172937Y1258683D01*
X-173484Y1257994D01*
X-173947Y1257108D01*
X-174326Y1256026D01*
X-174621Y1254746D01*
X-174832Y1253270D01*
X-174958Y1251597D01*
X-175000Y1249726D01*
X-184843D01*
X-184885Y1251597D01*
X-185011Y1253270D01*
X-185221Y1254746D01*
X-185516Y1256026D01*
X-185895Y1257108D01*
X-186358Y1257994D01*
X-186906Y1258683D01*
X-187537Y1259175D01*
X-188253Y1259470D01*
X-189053Y1259569D01*
X-170789D01*
X-171589Y1259470D01*
D02*
G37*
G36*
X-270015D02*
X-270730Y1259175D01*
X-271362Y1258683D01*
X-271909Y1257994D01*
X-272373Y1257108D01*
X-272752Y1256026D01*
X-273046Y1254746D01*
X-273257Y1253270D01*
X-273383Y1251597D01*
X-273425Y1249726D01*
X-283268D01*
X-283310Y1251597D01*
X-283436Y1253270D01*
X-283647Y1254746D01*
X-283942Y1256026D01*
X-284320Y1257108D01*
X-284784Y1257994D01*
X-285331Y1258683D01*
X-285963Y1259175D01*
X-286678Y1259470D01*
X-287478Y1259569D01*
X-269215D01*
X-270015Y1259470D01*
D02*
G37*
G36*
X123722Y1259469D02*
X123038Y1259168D01*
X122435Y1258668D01*
X121912Y1257967D01*
X121470Y1257066D01*
X121108Y1255965D01*
X120827Y1254664D01*
X120626Y1253163D01*
X120505Y1251461D01*
X120465Y1249559D01*
X108654D01*
X108629Y1251461D01*
X108265Y1255965D01*
X108046Y1257066D01*
X107778Y1257967D01*
X107462Y1258668D01*
X107098Y1259168D01*
X106684Y1259469D01*
X106222Y1259569D01*
X124486D01*
X123722Y1259469D01*
D02*
G37*
G36*
X320724Y1259451D02*
X320175Y1259097D01*
X319691Y1258506D01*
X319272Y1257679D01*
X318917Y1256616D01*
X318626Y1255317D01*
X318401Y1253782D01*
X318239Y1252010D01*
X318110Y1247758D01*
X306299D01*
X306267Y1250002D01*
X306009Y1253782D01*
X305783Y1255317D01*
X305493Y1256616D01*
X305138Y1257679D01*
X304718Y1258506D01*
X304234Y1259097D01*
X303686Y1259451D01*
X303073Y1259569D01*
X321337D01*
X320724Y1259451D01*
D02*
G37*
G36*
X222298D02*
X221750Y1259097D01*
X221266Y1258506D01*
X220846Y1257679D01*
X220492Y1256616D01*
X220201Y1255317D01*
X219975Y1253782D01*
X219814Y1252010D01*
X219685Y1247758D01*
X207874D01*
X207842Y1250002D01*
X207584Y1253782D01*
X207358Y1255317D01*
X207067Y1256616D01*
X206713Y1257679D01*
X206293Y1258506D01*
X205809Y1259097D01*
X205261Y1259451D01*
X204648Y1259569D01*
X222911D01*
X222298Y1259451D01*
D02*
G37*
G36*
X-129921Y1372638D02*
X-91901D01*
X-91790Y1372578D01*
X-91556Y1372553D01*
X-91471Y1372412D01*
X-91255Y1371878D01*
X-91032Y1371037D01*
X-90846Y1369906D01*
X-90723Y1368505D01*
X-90699Y1367555D01*
X-90710Y1367058D01*
X-92414Y1362599D01*
X-94685D01*
X-94890Y1358541D01*
X-94843Y1358428D01*
X-94858Y1358021D01*
X-94685Y1357716D01*
Y1339252D01*
X-94685Y1339134D01*
X-94858Y1338829D01*
X-94843Y1338423D01*
X-94890Y1338309D01*
X-94685Y1334252D01*
X-92414Y1334252D01*
X-90710Y1329793D01*
X-90686Y1328740D01*
X-90710Y1327688D01*
X-92414Y1323228D01*
X-94685D01*
X-94890Y1319171D01*
X-94843Y1319058D01*
X-94858Y1318651D01*
X-94685Y1318346D01*
Y1299882D01*
X-94685Y1299764D01*
X-94858Y1299459D01*
X-94843Y1299053D01*
X-94890Y1298939D01*
X-94685Y1294882D01*
X-92414Y1294882D01*
X-90710Y1290422D01*
X-90686Y1289370D01*
X-90710Y1288318D01*
X-92414Y1283858D01*
X-94685D01*
X-94890Y1279801D01*
X-94843Y1279688D01*
X-94858Y1279281D01*
X-94685Y1278976D01*
Y1260512D01*
X-94685Y1260394D01*
X-94858Y1260089D01*
X-94843Y1259683D01*
X-94890Y1259569D01*
X-94685Y1255512D01*
X-92414Y1255512D01*
X-90710Y1251053D01*
X-90678Y1249630D01*
X-90528Y1249290D01*
Y1195470D01*
X-89840Y1192014D01*
X-87882Y1189084D01*
X-86229Y1187431D01*
X-88143Y1182811D01*
X-160038D01*
X-170890Y1193662D01*
Y1249290D01*
X-170740Y1249630D01*
X-170708Y1251052D01*
X-169004Y1255512D01*
X-166732D01*
X-166528Y1259569D01*
X-166575Y1259683D01*
X-166560Y1260089D01*
X-166732Y1260394D01*
Y1278858D01*
X-166732Y1278976D01*
X-166560Y1279281D01*
X-166575Y1279688D01*
X-166528Y1279801D01*
X-166732Y1283859D01*
X-169004Y1283858D01*
X-170708Y1288318D01*
X-170732Y1289370D01*
X-170708Y1290422D01*
X-169004Y1294882D01*
X-166732D01*
X-166528Y1298939D01*
X-166575Y1299053D01*
X-166560Y1299459D01*
X-166732Y1299764D01*
Y1318228D01*
X-166732Y1318346D01*
X-166560Y1318651D01*
X-166575Y1319058D01*
X-166528Y1319171D01*
X-166732Y1323229D01*
X-169004Y1323228D01*
X-170708Y1327688D01*
X-170732Y1328740D01*
X-170708Y1329793D01*
X-169004Y1334252D01*
X-166732D01*
X-166528Y1338309D01*
X-166575Y1338423D01*
X-166560Y1338829D01*
X-166733Y1339134D01*
Y1357599D01*
X-166732Y1357716D01*
X-166560Y1358021D01*
X-166575Y1358428D01*
X-166528Y1358541D01*
X-166732Y1362599D01*
X-169004Y1362599D01*
X-170708Y1367058D01*
X-170719Y1367555D01*
X-170694Y1368505D01*
X-170572Y1369907D01*
X-170386Y1371038D01*
X-170162Y1371878D01*
X-169946Y1372412D01*
X-169862Y1372553D01*
X-169628Y1372578D01*
X-169517Y1372638D01*
X-165355D01*
Y1391142D01*
X-129921D01*
Y1372638D01*
D02*
G37*
G36*
X-228346D02*
X-190326D01*
X-190215Y1372578D01*
X-189981Y1372553D01*
X-189897Y1372412D01*
X-189680Y1371878D01*
X-189457Y1371037D01*
X-189271Y1369906D01*
X-189149Y1368505D01*
X-189124Y1367555D01*
X-189135Y1367058D01*
X-190839Y1362599D01*
X-193111D01*
X-193315Y1358541D01*
X-193268Y1358428D01*
X-193283Y1358021D01*
X-193110Y1357716D01*
Y1339252D01*
X-193111Y1339134D01*
X-193283Y1338829D01*
X-193268Y1338423D01*
X-193315Y1338309D01*
X-193111Y1334252D01*
X-190839Y1334252D01*
X-189135Y1329793D01*
X-189111Y1328740D01*
X-189135Y1327688D01*
X-190839Y1323228D01*
X-193110D01*
X-193315Y1319171D01*
X-193268Y1319058D01*
X-193283Y1318651D01*
X-193110Y1318346D01*
Y1299882D01*
X-193110Y1299764D01*
X-193283Y1299459D01*
X-193268Y1299053D01*
X-193315Y1298939D01*
X-193110Y1294882D01*
X-190839Y1294882D01*
X-189135Y1290422D01*
X-189111Y1289370D01*
X-189135Y1288318D01*
X-190839Y1283858D01*
X-193110D01*
X-193315Y1279801D01*
X-193268Y1279688D01*
X-193283Y1279281D01*
X-193110Y1278976D01*
Y1260512D01*
X-193110Y1260394D01*
X-193283Y1260089D01*
X-193268Y1259683D01*
X-193315Y1259569D01*
X-193110Y1255512D01*
X-190839Y1255512D01*
X-189135Y1251052D01*
X-189103Y1249630D01*
X-188953Y1249290D01*
Y1189921D01*
X-188266Y1186465D01*
X-186308Y1183535D01*
X-176424Y1173651D01*
X-178337Y1169032D01*
X-264354D01*
X-269315Y1173992D01*
Y1249290D01*
X-269165Y1249630D01*
X-269133Y1251052D01*
X-267429Y1255512D01*
X-265157D01*
X-264953Y1259569D01*
X-265000Y1259683D01*
X-264985Y1260089D01*
X-265158Y1260394D01*
Y1278858D01*
X-265157Y1278976D01*
X-264985Y1279281D01*
X-265000Y1279688D01*
X-264953Y1279801D01*
X-265157Y1283859D01*
X-267429Y1283858D01*
X-269133Y1288318D01*
X-269157Y1289370D01*
X-269133Y1290422D01*
X-267429Y1294882D01*
X-265157D01*
X-264953Y1298939D01*
X-265000Y1299053D01*
X-264985Y1299459D01*
X-265158Y1299764D01*
Y1318228D01*
X-265157Y1318346D01*
X-264985Y1318651D01*
X-265000Y1319058D01*
X-264953Y1319171D01*
X-265157Y1323229D01*
X-267429Y1323228D01*
X-269133Y1327688D01*
X-269157Y1328740D01*
X-269133Y1329793D01*
X-267429Y1334252D01*
X-265158D01*
X-264953Y1338309D01*
X-265000Y1338423D01*
X-264985Y1338829D01*
X-265158Y1339134D01*
Y1357599D01*
X-265158Y1357716D01*
X-264985Y1358021D01*
X-265000Y1358428D01*
X-264953Y1358541D01*
X-265158Y1362599D01*
X-267429Y1362599D01*
X-269133Y1367058D01*
X-269144Y1367555D01*
X-269120Y1368505D01*
X-268998Y1369907D01*
X-268811Y1371038D01*
X-268588Y1371878D01*
X-268372Y1372412D01*
X-268287Y1372553D01*
X-268053Y1372578D01*
X-267942Y1372638D01*
X-263780D01*
Y1391142D01*
X-228346D01*
Y1372638D01*
D02*
G37*
G36*
X-256376Y1062718D02*
X-256494Y1063518D01*
X-256848Y1064234D01*
X-257439Y1064866D01*
X-258266Y1065413D01*
X-259329Y1065876D01*
X-260628Y1066255D01*
X-262163Y1066550D01*
X-263935Y1066761D01*
X-265437Y1066855D01*
X-267966Y1066683D01*
X-268593Y1066575D01*
X-269124Y1066447D01*
X-269558Y1066299D01*
X-269895Y1066132D01*
X-270136Y1065945D01*
Y1079724D01*
X-269895Y1079537D01*
X-269558Y1079370D01*
X-269124Y1079222D01*
X-268593Y1079094D01*
X-267966Y1078986D01*
X-266423Y1078829D01*
X-265736Y1078801D01*
X-262163Y1079119D01*
X-260628Y1079414D01*
X-259329Y1079793D01*
X-258266Y1080256D01*
X-257439Y1080803D01*
X-256848Y1081435D01*
X-256494Y1082151D01*
X-256376Y1082951D01*
Y1062718D01*
D02*
G37*
G36*
X-204294Y1079961D02*
X-204054Y1079291D01*
X-203655Y1078701D01*
X-203095Y1078189D01*
X-202375Y1077756D01*
X-201496Y1077401D01*
X-200457Y1077126D01*
X-199258Y1076929D01*
X-197899Y1076811D01*
X-196380Y1076772D01*
Y1068898D01*
X-197899Y1068858D01*
X-199258Y1068740D01*
X-200457Y1068543D01*
X-201496Y1068268D01*
X-202375Y1067913D01*
X-203095Y1067480D01*
X-203655Y1066968D01*
X-204054Y1066378D01*
X-204294Y1065709D01*
X-204374Y1064961D01*
Y1080709D01*
X-204294Y1079961D01*
D02*
G37*
G36*
X-123984Y1037630D02*
X-121379Y1035890D01*
X-120706Y1035756D01*
X-120110Y1033517D01*
X-120178Y1030553D01*
X-122055Y1029299D01*
X-122055Y1029299D01*
X-149231Y1002123D01*
X-195890D01*
X-196269Y1002291D01*
X-197660Y1002327D01*
X-198728Y1002420D01*
X-199564Y1002558D01*
X-200149Y1002713D01*
X-200197Y1002732D01*
Y1008268D01*
X-226575D01*
Y979921D01*
X-200197D01*
Y985457D01*
X-200149Y985476D01*
X-199564Y985631D01*
X-198728Y985769D01*
X-197659Y985861D01*
X-196269Y985897D01*
X-195890Y986066D01*
X-152359D01*
X-150288Y981066D01*
X-168601Y962753D01*
X-195890D01*
X-196269Y962921D01*
X-197660Y962957D01*
X-198728Y963050D01*
X-199564Y963188D01*
X-200149Y963343D01*
X-200197Y963362D01*
Y968898D01*
X-226575D01*
Y940551D01*
X-200197D01*
Y946087D01*
X-200149Y946106D01*
X-199564Y946261D01*
X-198728Y946399D01*
X-197659Y946491D01*
X-196269Y946527D01*
X-195890Y946696D01*
X-174138D01*
X-172225Y942077D01*
X-190919Y923383D01*
X-197958D01*
X-198331Y923551D01*
X-199174Y923576D01*
X-199829Y923638D01*
X-200422Y923736D01*
X-200957Y923865D01*
X-201440Y924024D01*
X-201877Y924208D01*
X-202273Y924418D01*
X-202640Y924655D01*
X-202984Y924924D01*
X-203446Y925356D01*
X-204174Y925630D01*
X-205580Y927036D01*
X-210645Y929134D01*
X-216127D01*
X-221191Y927036D01*
X-225068Y923160D01*
X-227165Y918095D01*
Y912613D01*
X-225068Y907549D01*
X-221191Y903673D01*
X-216127Y901575D01*
X-210645D01*
X-205580Y903673D01*
X-204174Y905079D01*
X-203446Y905352D01*
X-202983Y905785D01*
X-202640Y906053D01*
X-202273Y906291D01*
X-201876Y906500D01*
X-201440Y906685D01*
X-200957Y906843D01*
X-200422Y906973D01*
X-199829Y907071D01*
X-199174Y907132D01*
X-198331Y907158D01*
X-197958Y907326D01*
X-192213D01*
X-189839Y904433D01*
Y892868D01*
X-195197Y887510D01*
X-200197Y889582D01*
Y890157D01*
X-226575D01*
Y861811D01*
X-200197D01*
Y867346D01*
X-200149Y867366D01*
X-199564Y867521D01*
X-198728Y867658D01*
X-197659Y867751D01*
X-196269Y867787D01*
X-195890Y867956D01*
X-195369D01*
X-192297Y868567D01*
X-189693Y870307D01*
X-182648Y877352D01*
X-178028Y875439D01*
Y854679D01*
X-188065Y844642D01*
X-195890D01*
X-196269Y844811D01*
X-197660Y844847D01*
X-198728Y844940D01*
X-199564Y845077D01*
X-200148Y845232D01*
X-200197Y845252D01*
Y850787D01*
X-226575D01*
Y822441D01*
X-200197D01*
Y827976D01*
X-200149Y827996D01*
X-199564Y828151D01*
X-198728Y828288D01*
X-197659Y828381D01*
X-196269Y828417D01*
X-195890Y828586D01*
X-184740D01*
X-181667Y829197D01*
X-179063Y830937D01*
X-164323Y845677D01*
X-162583Y848282D01*
X-161972Y851354D01*
X-161972Y851354D01*
Y896216D01*
X-121334Y936854D01*
X-116492D01*
X-116114Y936688D01*
X-115835Y936501D01*
X-112205Y934026D01*
X-112205Y931024D01*
Y916339D01*
X-103126D01*
X-103106Y916290D01*
X-102951Y915705D01*
X-102814Y914870D01*
X-102721Y913801D01*
X-102685Y912411D01*
X-102516Y912032D01*
Y891413D01*
X-102685Y891039D01*
X-102710Y890196D01*
X-102772Y889541D01*
X-102870Y888948D01*
X-102999Y888413D01*
X-103158Y887930D01*
X-103342Y887494D01*
X-103552Y887097D01*
X-103789Y886731D01*
X-104058Y886386D01*
X-104490Y885924D01*
X-104764Y885196D01*
X-106170Y883790D01*
X-108268Y878725D01*
Y873243D01*
X-106170Y868179D01*
X-102294Y864303D01*
X-97229Y862205D01*
X-91747D01*
X-86683Y864303D01*
X-83734Y867252D01*
X-79505Y867355D01*
X-77901Y866955D01*
X-77094Y865448D01*
X-77120Y864605D01*
X-77181Y863950D01*
X-77279Y863357D01*
X-77409Y862822D01*
X-77567Y862340D01*
X-77752Y861903D01*
X-77961Y861506D01*
X-78198Y861140D01*
X-78468Y860796D01*
X-78900Y860334D01*
X-79173Y859605D01*
X-80579Y858199D01*
X-82677Y853135D01*
Y847653D01*
X-80579Y842588D01*
X-76703Y838712D01*
X-71638Y836614D01*
X-66157D01*
X-61092Y838712D01*
X-57216Y842588D01*
X-55118Y847653D01*
Y853135D01*
X-57216Y858199D01*
X-58622Y859605D01*
X-58896Y860334D01*
X-59328Y860796D01*
X-59596Y861139D01*
X-59834Y861506D01*
X-60044Y861903D01*
X-60228Y862340D01*
X-60387Y862823D01*
X-60516Y863357D01*
X-60614Y863950D01*
X-60676Y864605D01*
X-60701Y865448D01*
X-60869Y865822D01*
Y877603D01*
X-60704Y877981D01*
X-60516Y878259D01*
X-58041Y881890D01*
X-55039Y881890D01*
X-53150D01*
Y899606D01*
X-45276D01*
Y881890D01*
X-40354D01*
X-35354Y881890D01*
X-33465D01*
Y899606D01*
X-25591D01*
Y881890D01*
X-20669D01*
X-18874Y877633D01*
Y818990D01*
X-21682Y816288D01*
X-23109Y815064D01*
X-23246Y814961D01*
X-45276D01*
Y810518D01*
X-49366Y807356D01*
X-50787Y807677D01*
X-54844Y807881D01*
X-55338Y807677D01*
X-55608D01*
X-55994Y807723D01*
X-56053Y807677D01*
X-79134D01*
Y781299D01*
X-50787D01*
Y781299D01*
X-46538Y783786D01*
X-45276Y783464D01*
X-41245Y783260D01*
X-41135Y783305D01*
X-40721Y783289D01*
X-40407Y783465D01*
X-9843D01*
Y783464D01*
X-5095Y782856D01*
Y777559D01*
X-4407Y774103D01*
X-2449Y771173D01*
X3696Y765028D01*
X3820Y764694D01*
X7358Y760890D01*
X8579Y759372D01*
X9518Y758034D01*
X9843Y757473D01*
Y753881D01*
X9758Y753677D01*
X9843Y753473D01*
Y753124D01*
X9813Y752997D01*
X9843Y752949D01*
Y740158D01*
X45276D01*
Y744593D01*
X49365Y747768D01*
X50787Y747441D01*
X54844Y747236D01*
X55338Y747441D01*
X55608D01*
X55994Y747395D01*
X56053Y747441D01*
X79134D01*
Y773819D01*
X50787D01*
Y773819D01*
X46538Y771332D01*
X45276Y771654D01*
X41219Y771858D01*
X41112Y771814D01*
X40721Y771829D01*
X40408Y771654D01*
X28547D01*
X28499Y771683D01*
X28373Y771654D01*
X28023D01*
X27819Y771738D01*
X27615Y771654D01*
X24024D01*
X23463Y771978D01*
X22171Y772885D01*
X18792Y775755D01*
X16861Y777621D01*
X17433Y782395D01*
X17875Y783465D01*
X23622D01*
Y799212D01*
Y814961D01*
X12969D01*
Y829797D01*
X17969Y831744D01*
X25221Y828740D01*
X33835D01*
X41793Y832037D01*
X47885Y838128D01*
X51181Y846087D01*
Y850394D01*
X56181Y852465D01*
X156449Y752197D01*
X159054Y750457D01*
X162126Y749846D01*
X207701D01*
X208081Y749677D01*
X209470Y749641D01*
X210539Y749548D01*
X211375Y749411D01*
X211959Y749256D01*
X212008Y749236D01*
Y743701D01*
X238386D01*
Y772047D01*
X212008D01*
Y766512D01*
X211959Y766492D01*
X211375Y766337D01*
X210539Y766200D01*
X209470Y766107D01*
X208081Y766071D01*
X207701Y765902D01*
X165452D01*
X88083Y843271D01*
X90154Y848271D01*
X102682D01*
X103056Y848103D01*
X103899Y848077D01*
X104553Y848015D01*
X105147Y847918D01*
X105682Y847788D01*
X106164Y847630D01*
X106601Y847445D01*
X106997Y847236D01*
X107364Y846998D01*
X107708Y846729D01*
X108170Y846297D01*
X108899Y846024D01*
X110305Y844617D01*
X115369Y842520D01*
X120851D01*
X125916Y844617D01*
X129792Y848494D01*
X131890Y853558D01*
Y859040D01*
X129792Y864105D01*
X125916Y867981D01*
X120851Y870079D01*
X115369D01*
X110305Y867981D01*
X108899Y866575D01*
X108170Y866301D01*
X107708Y865869D01*
X107365Y865600D01*
X106998Y865363D01*
X106601Y865153D01*
X106164Y864969D01*
X105681Y864810D01*
X105146Y864681D01*
X104553Y864583D01*
X103899Y864521D01*
X103056Y864496D01*
X102682Y864327D01*
X87026D01*
X76926Y874428D01*
Y876991D01*
X77756Y881890D01*
X77960Y885947D01*
X77756Y886440D01*
X77756Y886890D01*
Y912730D01*
X77756Y916339D01*
X81364Y916339D01*
X107205D01*
X107654Y916339D01*
X108148Y916134D01*
X112205Y916339D01*
X117071Y917169D01*
X134665D01*
X156972Y894862D01*
Y815000D01*
X157583Y811928D01*
X159323Y809323D01*
X177079Y791567D01*
X177079Y791567D01*
X179684Y789827D01*
X182756Y789216D01*
X207701D01*
X208081Y789047D01*
X209470Y789011D01*
X210539Y788918D01*
X211375Y788781D01*
X211959Y788626D01*
X212008Y788606D01*
Y783071D01*
X238386D01*
Y811417D01*
X212008D01*
Y805882D01*
X211959Y805862D01*
X211375Y805707D01*
X210539Y805570D01*
X209470Y805477D01*
X208081Y805441D01*
X207701Y805272D01*
X186081D01*
X173028Y818326D01*
Y834085D01*
X177648Y835999D01*
X182709Y830937D01*
X185314Y829197D01*
X188386Y828586D01*
X188386Y828586D01*
X207701D01*
X208081Y828417D01*
X209470Y828381D01*
X210539Y828288D01*
X211375Y828151D01*
X211959Y827996D01*
X212008Y827976D01*
Y822441D01*
X238386D01*
Y850787D01*
X212008D01*
Y845252D01*
X211959Y845232D01*
X211375Y845077D01*
X210539Y844940D01*
X209470Y844847D01*
X208081Y844811D01*
X207701Y844642D01*
X191711D01*
X184839Y851514D01*
Y867230D01*
X189839Y869305D01*
X190944Y868567D01*
X194016Y867956D01*
X194016Y867956D01*
X207701D01*
X208081Y867787D01*
X209470Y867751D01*
X210539Y867658D01*
X211375Y867521D01*
X211959Y867366D01*
X212008Y867346D01*
Y861811D01*
X238386D01*
Y890157D01*
X212008D01*
Y884622D01*
X211959Y884602D01*
X211375Y884447D01*
X210539Y884310D01*
X209470Y884217D01*
X208081Y884181D01*
X207701Y884013D01*
X197341D01*
X196650Y884703D01*
Y906265D01*
X197943Y907326D01*
X197943Y907326D01*
X207701D01*
X208081Y907157D01*
X209470Y907121D01*
X210539Y907028D01*
X211375Y906891D01*
X211959Y906736D01*
X212008Y906716D01*
Y901181D01*
X238386D01*
Y929528D01*
X212008D01*
Y923992D01*
X211959Y923972D01*
X211375Y923817D01*
X210539Y923680D01*
X209470Y923587D01*
X208081Y923551D01*
X207701Y923383D01*
X201268D01*
X182574Y942077D01*
X184487Y946696D01*
X207701D01*
X208081Y946527D01*
X209470Y946491D01*
X210539Y946399D01*
X211375Y946261D01*
X211959Y946106D01*
X212008Y946087D01*
Y940551D01*
X238386D01*
Y968898D01*
X212008D01*
Y963362D01*
X211959Y963343D01*
X211375Y963188D01*
X210539Y963050D01*
X209470Y962957D01*
X208081Y962921D01*
X207701Y962753D01*
X178601D01*
X160288Y981066D01*
X162359Y986066D01*
X207701D01*
X208081Y985897D01*
X209470Y985861D01*
X210539Y985769D01*
X211375Y985631D01*
X211959Y985476D01*
X212008Y985457D01*
Y979921D01*
X238386D01*
Y1008268D01*
X212008D01*
Y1002732D01*
X211959Y1002713D01*
X211375Y1002558D01*
X210539Y1002420D01*
X209470Y1002327D01*
X208081Y1002291D01*
X207701Y1002123D01*
X159231D01*
X132055Y1029299D01*
X130588Y1030279D01*
X131815Y1035279D01*
X153367D01*
X160858Y1027788D01*
X160859Y1027788D01*
X163463Y1026047D01*
X166536Y1025436D01*
X207701D01*
X208081Y1025267D01*
X209470Y1025231D01*
X210539Y1025139D01*
X211375Y1025001D01*
X211959Y1024847D01*
X212008Y1024827D01*
Y1019291D01*
X238386D01*
Y1042263D01*
X242307Y1043546D01*
X245866Y1040349D01*
Y1024348D01*
X245738Y1024155D01*
X245813Y1023713D01*
X245661Y1023348D01*
X245866Y1019291D01*
X248137D01*
Y1019291D01*
X248138D01*
X248782Y1014711D01*
X248827Y1014062D01*
X248790Y1012848D01*
X248138Y1008268D01*
X248137D01*
Y1008268D01*
X245866D01*
X245661Y1004211D01*
X245813Y1003846D01*
X245738Y1003404D01*
X245866Y1003211D01*
Y984978D01*
X245738Y984784D01*
X245813Y984343D01*
X245661Y983978D01*
X245866Y979921D01*
X248137D01*
Y979921D01*
X248138D01*
X248782Y975340D01*
X248827Y974692D01*
X248790Y973478D01*
X248138Y968898D01*
X248137D01*
Y968898D01*
X245866D01*
X245661Y964841D01*
X245813Y964476D01*
X245738Y964034D01*
X245866Y963841D01*
Y945608D01*
X245738Y945414D01*
X245813Y944973D01*
X245661Y944608D01*
X245866Y940551D01*
X248137D01*
Y940551D01*
X248138D01*
X248782Y935970D01*
X248827Y935322D01*
X248790Y934108D01*
X248138Y929528D01*
X248137D01*
Y929528D01*
X245866D01*
X245661Y925470D01*
X245813Y925106D01*
X245738Y924664D01*
X245866Y924471D01*
Y906238D01*
X245739Y906044D01*
X245824Y905629D01*
X245662Y905238D01*
X245866Y901181D01*
X245526Y899584D01*
X245275Y898410D01*
X245276Y896426D01*
X245275Y892928D01*
X245526Y891754D01*
X245866Y890158D01*
X245662Y886100D01*
X245824Y885709D01*
X245739Y885294D01*
X245866Y885101D01*
Y866867D01*
X245738Y866674D01*
X245813Y866233D01*
X245661Y865868D01*
X245866Y861811D01*
X248137D01*
Y861811D01*
X248138D01*
X248782Y857230D01*
X248827Y856582D01*
X248790Y855367D01*
X248138Y850787D01*
X248137D01*
Y850788D01*
X245866D01*
X245661Y846730D01*
X245813Y846365D01*
X245738Y845924D01*
X245866Y845731D01*
Y827497D01*
X245738Y827304D01*
X245813Y826863D01*
X245661Y826498D01*
X245866Y822441D01*
X248137D01*
Y822441D01*
X248138D01*
X248782Y817860D01*
X248827Y817212D01*
X248790Y815997D01*
X248138Y811417D01*
X248137D01*
Y811418D01*
X245866D01*
X245661Y807360D01*
X245813Y806995D01*
X245738Y806554D01*
X245866Y806361D01*
Y788127D01*
X245738Y787934D01*
X245813Y787493D01*
X245661Y787128D01*
X245866Y783071D01*
X248137D01*
Y783071D01*
X248138D01*
X248782Y778490D01*
X248827Y777842D01*
X248790Y776627D01*
X248138Y772047D01*
X248137D01*
Y772047D01*
X245866D01*
X245661Y767990D01*
X245813Y767625D01*
X245738Y767184D01*
X245866Y766991D01*
Y743701D01*
X272244D01*
Y766991D01*
X272372Y767184D01*
X272298Y767625D01*
X272449Y767990D01*
X272244Y772047D01*
X269973D01*
Y772047D01*
X269973D01*
X269328Y776628D01*
X269283Y777276D01*
X269320Y778491D01*
X269973Y783071D01*
X269973D01*
Y783071D01*
X272244D01*
X272449Y787128D01*
X272297Y787493D01*
X272372Y787934D01*
X272244Y788127D01*
Y806361D01*
X272372Y806554D01*
X272298Y806996D01*
X272449Y807360D01*
X272244Y811418D01*
X269973D01*
Y811417D01*
X269973D01*
X269328Y815998D01*
X269283Y816646D01*
X269320Y817861D01*
X269973Y822441D01*
X269973D01*
Y822441D01*
X272244D01*
X272449Y826498D01*
X272297Y826863D01*
X272372Y827304D01*
X272244Y827497D01*
Y845731D01*
X272372Y845924D01*
X272298Y846366D01*
X272449Y846730D01*
X272244Y850788D01*
X269973D01*
Y850787D01*
X269973D01*
X269328Y855368D01*
X269283Y856016D01*
X269320Y857231D01*
X269973Y861811D01*
X269973D01*
Y861811D01*
X272244D01*
X272449Y865868D01*
X272297Y866233D01*
X272372Y866674D01*
X272244Y866867D01*
Y885101D01*
X272372Y885294D01*
X272286Y885709D01*
X272449Y886100D01*
X272244Y890158D01*
X272584Y891754D01*
X272835Y892928D01*
X272835Y894913D01*
X272835Y898410D01*
X272584Y899584D01*
X272244Y901181D01*
X272449Y905238D01*
X272286Y905630D01*
X272371Y906044D01*
X272244Y906237D01*
Y924471D01*
X272372Y924664D01*
X272298Y925106D01*
X272449Y925470D01*
X272244Y929528D01*
X269973D01*
Y929528D01*
X269973D01*
X269328Y934108D01*
X269283Y934756D01*
X269320Y935971D01*
X269973Y940551D01*
X269973D01*
Y940551D01*
X272244D01*
X272449Y944608D01*
X272297Y944973D01*
X272372Y945414D01*
X272244Y945608D01*
Y963841D01*
X272372Y964034D01*
X272298Y964476D01*
X272449Y964841D01*
X272244Y968898D01*
X269973D01*
Y968898D01*
X269973D01*
X269328Y973478D01*
X269283Y974126D01*
X269320Y975341D01*
X269973Y979921D01*
X269973D01*
Y979921D01*
X272244D01*
X272449Y983978D01*
X272297Y984343D01*
X272372Y984784D01*
X272244Y984978D01*
Y1003211D01*
X272372Y1003404D01*
X272298Y1003846D01*
X272449Y1004211D01*
X272244Y1008268D01*
X269973D01*
Y1008268D01*
X269973D01*
X269328Y1012848D01*
X269283Y1013496D01*
X269320Y1014711D01*
X269973Y1019291D01*
X269973D01*
Y1019291D01*
X272244D01*
X272449Y1023348D01*
X272297Y1023713D01*
X272372Y1024155D01*
X272244Y1024348D01*
Y1038463D01*
X273021Y1039881D01*
X277087Y1042956D01*
X277111Y1042957D01*
X355000Y1042956D01*
Y690000D01*
X-355000D01*
Y1042959D01*
X-284258Y1042958D01*
X-283864Y1043037D01*
X-283465Y1042985D01*
X-281572Y1043493D01*
X-279650Y1043875D01*
X-279315Y1044099D01*
X-278927Y1044203D01*
X-277372Y1045397D01*
X-275743Y1046486D01*
X-275519Y1046820D01*
X-275200Y1047065D01*
X-274221Y1048763D01*
X-273132Y1050392D01*
X-273054Y1050787D01*
X-272853Y1051136D01*
X-271285Y1055762D01*
X-271190Y1056486D01*
X-270904Y1057159D01*
X-270891Y1058423D01*
X-268860Y1061307D01*
X-266377Y1062520D01*
X-265426Y1062585D01*
X-264911Y1062552D01*
X-260433Y1060933D01*
Y1060932D01*
X-260433Y1060932D01*
X-260433Y1058661D01*
X-256376Y1058457D01*
X-256227Y1058518D01*
X-255754Y1058502D01*
X-255488Y1058661D01*
X-250981D01*
X-246059Y1057704D01*
X-245548Y1055897D01*
X-245181Y1054052D01*
X-244911Y1053649D01*
X-244779Y1053183D01*
X-244348Y1052638D01*
X-245178Y1049776D01*
X-246908Y1047638D01*
X-260433D01*
Y1037402D01*
X-234055D01*
Y1038022D01*
X-230315Y1040475D01*
X-226575Y1038024D01*
Y1019291D01*
X-200197D01*
Y1047638D01*
X-204748D01*
X-204768Y1047686D01*
X-204923Y1048271D01*
X-205060Y1049107D01*
X-205153Y1050175D01*
X-205189Y1051565D01*
X-205358Y1051944D01*
Y1054354D01*
X-205189Y1054732D01*
X-205153Y1056097D01*
X-205061Y1057141D01*
X-204926Y1057953D01*
X-204774Y1058518D01*
X-204715Y1058661D01*
X-200197D01*
Y1064197D01*
X-200149Y1064216D01*
X-199564Y1064371D01*
X-198728Y1064509D01*
X-197659Y1064601D01*
X-196269Y1064638D01*
X-195890Y1064806D01*
X-151160D01*
X-123984Y1037630D01*
D02*
G37*
G36*
X108226Y1067629D02*
X108463Y1067482D01*
X108856Y1067353D01*
X109407Y1067240D01*
X110116Y1067145D01*
X112006Y1067007D01*
X116022Y1066929D01*
Y1059055D01*
X114526Y1059046D01*
X109407Y1058744D01*
X108856Y1058632D01*
X108463Y1058502D01*
X108226Y1058355D01*
X108148Y1058191D01*
Y1067793D01*
X108226Y1067629D01*
D02*
G37*
G36*
X140609Y1056102D02*
X140009Y1056663D01*
X139367Y1057165D01*
X138683Y1057608D01*
X137956Y1057992D01*
X137187Y1058317D01*
X136377Y1058583D01*
X135524Y1058789D01*
X134628Y1058937D01*
X133691Y1059026D01*
X132712Y1059055D01*
Y1066929D01*
X133691Y1066959D01*
X134628Y1067047D01*
X135524Y1067195D01*
X136377Y1067401D01*
X137187Y1067667D01*
X137956Y1067992D01*
X138683Y1068376D01*
X139367Y1068819D01*
X140009Y1069321D01*
X140609Y1069882D01*
Y1056102D01*
D02*
G37*
G36*
X-326772Y1372638D02*
X-288752D01*
X-288641Y1372578D01*
X-288406Y1372553D01*
X-288322Y1372412D01*
X-288106Y1371878D01*
X-287882Y1371037D01*
X-287696Y1369906D01*
X-287574Y1368505D01*
X-287549Y1367555D01*
X-287560Y1367058D01*
X-289264Y1362599D01*
X-291536D01*
X-291740Y1358541D01*
X-291693Y1358428D01*
X-291708Y1358021D01*
X-291536Y1357716D01*
Y1339252D01*
X-291536Y1339134D01*
X-291708Y1338829D01*
X-291693Y1338423D01*
X-291740Y1338309D01*
X-291536Y1334252D01*
X-289264Y1334252D01*
X-287560Y1329793D01*
X-287536Y1328740D01*
X-287560Y1327688D01*
X-289264Y1323228D01*
X-291536D01*
X-291740Y1319171D01*
X-291693Y1319058D01*
X-291708Y1318651D01*
X-291535Y1318346D01*
Y1299882D01*
X-291536Y1299764D01*
X-291708Y1299459D01*
X-291693Y1299053D01*
X-291740Y1298939D01*
X-291536Y1294882D01*
X-289264Y1294882D01*
X-287560Y1290422D01*
X-287536Y1289370D01*
X-287560Y1288318D01*
X-289264Y1283858D01*
X-291536D01*
X-291740Y1279801D01*
X-291693Y1279688D01*
X-291708Y1279281D01*
X-291535Y1278976D01*
Y1260512D01*
X-291536Y1260394D01*
X-291708Y1260089D01*
X-291693Y1259683D01*
X-291740Y1259569D01*
X-291536Y1255512D01*
X-289264Y1255512D01*
X-287560Y1251052D01*
X-287528Y1249630D01*
X-287378Y1249290D01*
Y1170251D01*
X-286691Y1166795D01*
X-284733Y1163865D01*
X-274482Y1153614D01*
X-271551Y1151656D01*
X-268095Y1150968D01*
X-88741D01*
X-77929Y1140157D01*
Y1088583D01*
X-77756Y1087710D01*
Y1071850D01*
X-90551D01*
Y1062992D01*
X-94488D01*
Y1059055D01*
X-112205D01*
Y1058160D01*
X-117205Y1055000D01*
X-118647D01*
X-142158Y1078512D01*
X-144762Y1080252D01*
X-147835Y1080863D01*
X-195890D01*
X-196269Y1081032D01*
X-197660Y1081068D01*
X-198728Y1081160D01*
X-199564Y1081298D01*
X-200149Y1081453D01*
X-200197Y1081472D01*
Y1087008D01*
X-226575D01*
Y1060349D01*
X-226575Y1058661D01*
X-230270Y1055512D01*
X-230360D01*
X-234055Y1058661D01*
X-234055Y1060512D01*
Y1087008D01*
X-255433D01*
X-255488Y1087008D01*
X-255754Y1087167D01*
X-256227Y1087151D01*
X-256376Y1087213D01*
X-260433Y1087008D01*
Y1084737D01*
X-260433Y1084737D01*
Y1084736D01*
X-264915Y1083152D01*
X-265839Y1083070D01*
X-266119Y1083081D01*
X-267387Y1083211D01*
X-267730Y1083270D01*
X-267925Y1083317D01*
X-268003Y1083356D01*
X-268051Y1083359D01*
X-268178Y1083402D01*
X-271789Y1085815D01*
X-277165Y1086884D01*
X-282542Y1085815D01*
X-287100Y1082769D01*
X-290145Y1078211D01*
X-291215Y1072835D01*
X-290145Y1067458D01*
X-287100Y1062900D01*
X-282761Y1060001D01*
X-282690Y1059627D01*
X-284258Y1055001D01*
X-355000Y1055001D01*
X-355000Y1391142D01*
X-326772D01*
Y1372638D01*
D02*
G37*
G36*
X-206260Y1062640D02*
X-206929Y1062403D01*
X-207520Y1062010D01*
X-208032Y1061459D01*
X-208465Y1060750D01*
X-208819Y1059884D01*
X-209095Y1058860D01*
X-209291Y1057679D01*
X-209410Y1056341D01*
X-209449Y1054844D01*
X-217323D01*
X-217362Y1056341D01*
X-217480Y1057679D01*
X-217677Y1058860D01*
X-217953Y1059884D01*
X-218307Y1060750D01*
X-218740Y1061459D01*
X-219252Y1062010D01*
X-219843Y1062403D01*
X-220512Y1062640D01*
X-221260Y1062718D01*
X-205512D01*
X-206260Y1062640D01*
D02*
G37*
G36*
X267574Y1062600D02*
X267025Y1062246D01*
X266541Y1061655D01*
X266122Y1060829D01*
X265767Y1059766D01*
X265477Y1058466D01*
X265251Y1056931D01*
X265090Y1055159D01*
X265017Y1052785D01*
X265251Y1049368D01*
X265477Y1047833D01*
X265767Y1046533D01*
X266122Y1045470D01*
X266541Y1044644D01*
X267026Y1044053D01*
X267574Y1043699D01*
X268187Y1043581D01*
X249923D01*
X250536Y1043699D01*
X251085Y1044053D01*
X251569Y1044644D01*
X251988Y1045470D01*
X252343Y1046533D01*
X252633Y1047833D01*
X252859Y1049368D01*
X253020Y1051140D01*
X253093Y1053514D01*
X252859Y1056931D01*
X252633Y1058466D01*
X252343Y1059766D01*
X251988Y1060829D01*
X251569Y1061655D01*
X251085Y1062246D01*
X250536Y1062600D01*
X249923Y1062718D01*
X268187D01*
X267574Y1062600D01*
D02*
G37*
G36*
X-209410Y1049936D02*
X-209291Y1048577D01*
X-209095Y1047378D01*
X-208819Y1046339D01*
X-208465Y1045459D01*
X-208032Y1044740D01*
X-207520Y1044180D01*
X-206929Y1043781D01*
X-206260Y1043541D01*
X-205512Y1043461D01*
X-221260D01*
X-220512Y1043541D01*
X-219843Y1043781D01*
X-219252Y1044180D01*
X-218740Y1044740D01*
X-218307Y1045459D01*
X-217953Y1046339D01*
X-217677Y1047378D01*
X-217480Y1048577D01*
X-217362Y1049936D01*
X-217323Y1051455D01*
X-209449D01*
X-209410Y1049936D01*
D02*
G37*
G36*
X108226Y1047944D02*
X108463Y1047797D01*
X108856Y1047668D01*
X109407Y1047555D01*
X110116Y1047460D01*
X112006Y1047322D01*
X116022Y1047244D01*
Y1039370D01*
X114526Y1039361D01*
X109407Y1039059D01*
X108856Y1038947D01*
X108463Y1038817D01*
X108226Y1038670D01*
X108148Y1038506D01*
Y1048108D01*
X108226Y1047944D01*
D02*
G37*
G36*
X-108148Y1038506D02*
X-108226Y1038670D01*
X-108463Y1038817D01*
X-108856Y1038947D01*
X-109407Y1039059D01*
X-110116Y1039154D01*
X-112006Y1039292D01*
X-116022Y1039370D01*
Y1047244D01*
X-114526Y1047253D01*
X-109407Y1047555D01*
X-108856Y1047668D01*
X-108463Y1047797D01*
X-108226Y1047944D01*
X-108148Y1048108D01*
Y1038506D01*
D02*
G37*
G36*
X216185Y1025591D02*
X216105Y1026339D01*
X215865Y1027008D01*
X215465Y1027598D01*
X214906Y1028110D01*
X214186Y1028543D01*
X213307Y1028898D01*
X212268Y1029173D01*
X211069Y1029370D01*
X209710Y1029488D01*
X208191Y1029527D01*
Y1037401D01*
X209710Y1037441D01*
X211069Y1037559D01*
X212268Y1037756D01*
X213307Y1038031D01*
X214186Y1038386D01*
X214906Y1038819D01*
X215465Y1039331D01*
X215865Y1039921D01*
X216105Y1040591D01*
X216185Y1041339D01*
Y1025591D01*
D02*
G37*
G36*
X108226Y1028259D02*
X108463Y1028112D01*
X108856Y1027983D01*
X109407Y1027870D01*
X110116Y1027775D01*
X112006Y1027637D01*
X116022Y1027559D01*
Y1019685D01*
X114526Y1019677D01*
X109407Y1019374D01*
X108856Y1019262D01*
X108463Y1019132D01*
X108226Y1018985D01*
X108148Y1018821D01*
Y1028423D01*
X108226Y1028259D01*
D02*
G37*
G36*
X-108148Y1018821D02*
X-108226Y1018985D01*
X-108463Y1019132D01*
X-108856Y1019262D01*
X-109407Y1019374D01*
X-110116Y1019469D01*
X-112006Y1019607D01*
X-116022Y1019685D01*
Y1027559D01*
X-114526Y1027568D01*
X-109407Y1027870D01*
X-108856Y1027983D01*
X-108463Y1028112D01*
X-108226Y1028259D01*
X-108148Y1028423D01*
Y1018821D01*
D02*
G37*
G36*
X267574Y1023230D02*
X267026Y1022876D01*
X266541Y1022285D01*
X266122Y1021458D01*
X265767Y1020396D01*
X265477Y1019096D01*
X265251Y1017561D01*
X265090Y1015789D01*
X265017Y1013415D01*
X265251Y1009998D01*
X265477Y1008463D01*
X265767Y1007163D01*
X266122Y1006100D01*
X266541Y1005274D01*
X267026Y1004683D01*
X267574Y1004329D01*
X268187Y1004211D01*
X249923D01*
X250536Y1004329D01*
X251085Y1004683D01*
X251569Y1005274D01*
X251988Y1006100D01*
X252343Y1007163D01*
X252633Y1008463D01*
X252859Y1009998D01*
X253020Y1011770D01*
X253093Y1014144D01*
X252859Y1017561D01*
X252633Y1019096D01*
X252343Y1020396D01*
X251988Y1021458D01*
X251569Y1022285D01*
X251085Y1022876D01*
X250536Y1023230D01*
X249923Y1023348D01*
X268187D01*
X267574Y1023230D01*
D02*
G37*
G36*
X108226Y1008574D02*
X108463Y1008427D01*
X108856Y1008298D01*
X109407Y1008185D01*
X110116Y1008090D01*
X112006Y1007952D01*
X116022Y1007874D01*
Y1000000D01*
X114526Y999991D01*
X109407Y999689D01*
X108856Y999577D01*
X108463Y999447D01*
X108226Y999300D01*
X108148Y999136D01*
Y1008738D01*
X108226Y1008574D01*
D02*
G37*
G36*
X-108148Y999136D02*
X-108226Y999300D01*
X-108463Y999447D01*
X-108856Y999577D01*
X-109407Y999689D01*
X-110116Y999784D01*
X-112006Y999922D01*
X-116022Y1000000D01*
Y1007874D01*
X-114526Y1007883D01*
X-109407Y1008185D01*
X-108856Y1008298D01*
X-108463Y1008427D01*
X-108226Y1008574D01*
X-108148Y1008738D01*
Y999136D01*
D02*
G37*
G36*
X216185Y986220D02*
X216105Y986968D01*
X215865Y987638D01*
X215465Y988228D01*
X214906Y988740D01*
X214186Y989173D01*
X213307Y989528D01*
X212268Y989803D01*
X211069Y990000D01*
X209710Y990118D01*
X208191Y990157D01*
Y998031D01*
X209710Y998071D01*
X211069Y998189D01*
X212268Y998386D01*
X213307Y998661D01*
X214186Y999016D01*
X214906Y999449D01*
X215465Y999961D01*
X215865Y1000551D01*
X216105Y1001220D01*
X216185Y1001968D01*
Y986220D01*
D02*
G37*
G36*
X-204294Y1001220D02*
X-204054Y1000551D01*
X-203655Y999961D01*
X-203095Y999449D01*
X-202375Y999016D01*
X-201496Y998661D01*
X-200457Y998386D01*
X-199258Y998189D01*
X-197899Y998071D01*
X-196380Y998031D01*
Y990157D01*
X-197899Y990118D01*
X-199258Y990000D01*
X-200457Y989803D01*
X-201496Y989528D01*
X-202375Y989173D01*
X-203095Y988740D01*
X-203655Y988228D01*
X-204054Y987638D01*
X-204294Y986968D01*
X-204374Y986220D01*
Y1001968D01*
X-204294Y1001220D01*
D02*
G37*
G36*
X108226Y988889D02*
X108463Y988742D01*
X108856Y988612D01*
X109407Y988500D01*
X110116Y988405D01*
X112006Y988267D01*
X116022Y988189D01*
Y980315D01*
X114526Y980306D01*
X109407Y980004D01*
X108856Y979891D01*
X108463Y979762D01*
X108226Y979615D01*
X108148Y979451D01*
Y989053D01*
X108226Y988889D01*
D02*
G37*
G36*
X-108148Y979451D02*
X-108226Y979615D01*
X-108463Y979762D01*
X-108856Y979891D01*
X-109407Y980004D01*
X-110116Y980099D01*
X-112006Y980237D01*
X-116022Y980315D01*
Y988189D01*
X-114526Y988198D01*
X-109407Y988500D01*
X-108856Y988612D01*
X-108463Y988742D01*
X-108226Y988889D01*
X-108148Y989053D01*
Y979451D01*
D02*
G37*
G36*
X267574Y983860D02*
X267026Y983506D01*
X266541Y982915D01*
X266122Y982088D01*
X265767Y981025D01*
X265477Y979726D01*
X265251Y978191D01*
X265090Y976419D01*
X265017Y974045D01*
X265251Y970628D01*
X265477Y969093D01*
X265767Y967793D01*
X266122Y966730D01*
X266541Y965904D01*
X267026Y965313D01*
X267574Y964959D01*
X268187Y964841D01*
X249923D01*
X250536Y964959D01*
X251085Y965313D01*
X251569Y965904D01*
X251988Y966730D01*
X252343Y967793D01*
X252633Y969093D01*
X252859Y970628D01*
X253020Y972400D01*
X253093Y974773D01*
X252859Y978191D01*
X252633Y979726D01*
X252343Y981025D01*
X251988Y982088D01*
X251569Y982915D01*
X251085Y983506D01*
X250536Y983860D01*
X249923Y983978D01*
X268187D01*
X267574Y983860D01*
D02*
G37*
G36*
X108226Y969204D02*
X108463Y969057D01*
X108856Y968927D01*
X109407Y968815D01*
X110116Y968720D01*
X112006Y968582D01*
X116022Y968504D01*
Y960630D01*
X114526Y960621D01*
X109407Y960319D01*
X108856Y960206D01*
X108463Y960077D01*
X108226Y959930D01*
X108148Y959766D01*
Y969368D01*
X108226Y969204D01*
D02*
G37*
G36*
X-108148Y959766D02*
X-108226Y959930D01*
X-108463Y960077D01*
X-108856Y960206D01*
X-109407Y960319D01*
X-110116Y960414D01*
X-112006Y960552D01*
X-116022Y960630D01*
Y968504D01*
X-114526Y968513D01*
X-109407Y968815D01*
X-108856Y968927D01*
X-108463Y969057D01*
X-108226Y969204D01*
X-108148Y969368D01*
Y959766D01*
D02*
G37*
G36*
X216185Y946850D02*
X216105Y947598D01*
X215865Y948268D01*
X215465Y948858D01*
X214906Y949370D01*
X214186Y949803D01*
X213307Y950158D01*
X212268Y950433D01*
X211069Y950630D01*
X209710Y950748D01*
X208191Y950787D01*
Y958661D01*
X209710Y958701D01*
X211069Y958819D01*
X212268Y959016D01*
X213307Y959291D01*
X214186Y959646D01*
X214906Y960079D01*
X215465Y960591D01*
X215865Y961181D01*
X216105Y961850D01*
X216185Y962598D01*
Y946850D01*
D02*
G37*
G36*
X-204294Y961850D02*
X-204054Y961181D01*
X-203655Y960591D01*
X-203095Y960079D01*
X-202375Y959646D01*
X-201496Y959291D01*
X-200457Y959016D01*
X-199258Y958819D01*
X-197899Y958701D01*
X-196380Y958661D01*
Y950787D01*
X-197899Y950748D01*
X-199258Y950630D01*
X-200457Y950433D01*
X-201496Y950158D01*
X-202375Y949803D01*
X-203095Y949370D01*
X-203655Y948858D01*
X-204054Y948268D01*
X-204294Y947598D01*
X-204374Y946850D01*
Y962598D01*
X-204294Y961850D01*
D02*
G37*
G36*
X108226Y949519D02*
X108463Y949372D01*
X108856Y949242D01*
X109407Y949130D01*
X110116Y949035D01*
X112006Y948897D01*
X116022Y948819D01*
Y940945D01*
X114526Y940936D01*
X109407Y940634D01*
X108856Y940521D01*
X108463Y940392D01*
X108226Y940245D01*
X108148Y940081D01*
Y949683D01*
X108226Y949519D01*
D02*
G37*
G36*
X-108148Y940081D02*
X-108226Y940245D01*
X-108463Y940392D01*
X-108856Y940521D01*
X-109407Y940634D01*
X-110116Y940729D01*
X-112006Y940867D01*
X-116022Y940945D01*
Y948819D01*
X-114526Y948827D01*
X-109407Y949130D01*
X-108856Y949242D01*
X-108463Y949372D01*
X-108226Y949519D01*
X-108148Y949683D01*
Y940081D01*
D02*
G37*
G36*
X267574Y944490D02*
X267026Y944136D01*
X266541Y943545D01*
X266122Y942718D01*
X265767Y941655D01*
X265477Y940356D01*
X265251Y938821D01*
X265090Y937049D01*
X265017Y934675D01*
X265251Y931258D01*
X265477Y929722D01*
X265767Y928423D01*
X266122Y927360D01*
X266541Y926534D01*
X267026Y925943D01*
X267574Y925589D01*
X268187Y925471D01*
X249923D01*
X250536Y925589D01*
X251085Y925943D01*
X251569Y926534D01*
X251988Y927360D01*
X252343Y928423D01*
X252633Y929722D01*
X252859Y931258D01*
X253020Y933029D01*
X253093Y935403D01*
X252859Y938821D01*
X252633Y940356D01*
X252343Y941655D01*
X251988Y942718D01*
X251569Y943545D01*
X251085Y944136D01*
X250536Y944490D01*
X249923Y944608D01*
X268187D01*
X267574Y944490D01*
D02*
G37*
G36*
X108226Y929834D02*
X108463Y929687D01*
X108856Y929557D01*
X109407Y929445D01*
X110116Y929350D01*
X112006Y929212D01*
X116022Y929134D01*
Y921260D01*
X114526Y921251D01*
X109407Y920949D01*
X108856Y920836D01*
X108463Y920707D01*
X108226Y920560D01*
X108148Y920396D01*
Y929998D01*
X108226Y929834D01*
D02*
G37*
G36*
X-87362Y920436D02*
X-88031Y920196D01*
X-88622Y919796D01*
X-89134Y919237D01*
X-89567Y918517D01*
X-89921Y917638D01*
X-90197Y916599D01*
X-90394Y915399D01*
X-90512Y914041D01*
X-90551Y912522D01*
X-98425D01*
X-98465Y914041D01*
X-98583Y915399D01*
X-98779Y916599D01*
X-99055Y917638D01*
X-99409Y918517D01*
X-99843Y919237D01*
X-100354Y919796D01*
X-100945Y920196D01*
X-101614Y920436D01*
X-102362Y920516D01*
X-86614D01*
X-87362Y920436D01*
D02*
G37*
G36*
X-205757Y921683D02*
X-205115Y921181D01*
X-204431Y920738D01*
X-203704Y920354D01*
X-202935Y920029D01*
X-202125Y919764D01*
X-201272Y919557D01*
X-200376Y919409D01*
X-199439Y919321D01*
X-198460Y919291D01*
Y911417D01*
X-199439Y911388D01*
X-200376Y911299D01*
X-201272Y911152D01*
X-202125Y910945D01*
X-202935Y910679D01*
X-203704Y910354D01*
X-204431Y909971D01*
X-205115Y909528D01*
X-205757Y909026D01*
X-206357Y908465D01*
Y922244D01*
X-205757Y921683D01*
D02*
G37*
G36*
X216185Y907480D02*
X216105Y908228D01*
X215865Y908898D01*
X215465Y909488D01*
X214906Y910000D01*
X214186Y910433D01*
X213307Y910787D01*
X212268Y911063D01*
X211069Y911260D01*
X209710Y911378D01*
X208191Y911417D01*
Y919291D01*
X209710Y919331D01*
X211069Y919449D01*
X212268Y919646D01*
X213307Y919921D01*
X214186Y920276D01*
X214906Y920709D01*
X215465Y921220D01*
X215865Y921811D01*
X216105Y922480D01*
X216185Y923228D01*
Y907480D01*
D02*
G37*
G36*
X-90522Y889931D02*
X-90433Y888994D01*
X-90285Y888098D01*
X-90079Y887245D01*
X-89813Y886435D01*
X-89488Y885666D01*
X-89104Y884940D01*
X-88661Y884255D01*
X-88159Y883613D01*
X-87598Y883013D01*
X-101378D01*
X-100817Y883613D01*
X-100315Y884255D01*
X-99872Y884940D01*
X-99488Y885666D01*
X-99163Y886435D01*
X-98898Y887245D01*
X-98691Y888098D01*
X-98543Y888994D01*
X-98455Y889931D01*
X-98425Y890911D01*
X-90551D01*
X-90522Y889931D01*
D02*
G37*
G36*
X264970Y908340D02*
X265181Y905238D01*
X268187D01*
X267574Y905120D01*
X267026Y904766D01*
X266541Y904175D01*
X266122Y903348D01*
X265917Y902734D01*
X265945Y902698D01*
X265884Y902637D01*
X265767Y902285D01*
X265477Y900986D01*
X265251Y899451D01*
X265090Y897679D01*
X265017Y895305D01*
X265251Y891888D01*
X265477Y890352D01*
X265767Y889053D01*
X265884Y888702D01*
X265945Y888640D01*
X265917Y888604D01*
X266122Y887990D01*
X266541Y887163D01*
X267026Y886573D01*
X267574Y886218D01*
X268187Y886100D01*
X265181D01*
X264970Y882999D01*
X264961Y881890D01*
X253149Y881890D01*
X253140Y882999D01*
X253061Y884928D01*
X252941Y886100D01*
X249923D01*
X250536Y886218D01*
X251085Y886573D01*
X251569Y887163D01*
X251988Y887990D01*
X252193Y888605D01*
X252165Y888640D01*
X252226Y888702D01*
X252343Y889053D01*
X252633Y890352D01*
X252859Y891888D01*
X253020Y893659D01*
X253093Y896033D01*
X252859Y899451D01*
X252633Y900986D01*
X252343Y902285D01*
X252226Y902637D01*
X252165Y902698D01*
X252193Y902734D01*
X251988Y903348D01*
X251569Y904175D01*
X251085Y904766D01*
X250536Y905120D01*
X249923Y905238D01*
X252941D01*
X253061Y906411D01*
X253140Y908340D01*
X253149Y909449D01*
X264961Y909449D01*
X264970Y908340D01*
D02*
G37*
G36*
X73535Y885868D02*
X73388Y885632D01*
X73258Y885238D01*
X73146Y884687D01*
X73051Y883978D01*
X72912Y882088D01*
X72835Y878073D01*
X64961D01*
X64952Y879569D01*
X64650Y884687D01*
X64537Y885238D01*
X64407Y885632D01*
X64261Y885868D01*
X64096Y885947D01*
X73699D01*
X73535Y885868D01*
D02*
G37*
G36*
X53850D02*
X53703Y885632D01*
X53573Y885238D01*
X53461Y884687D01*
X53366Y883978D01*
X53227Y882088D01*
X53150Y878073D01*
X45276D01*
X45267Y879569D01*
X44965Y884687D01*
X44852Y885238D01*
X44722Y885632D01*
X44576Y885868D01*
X44411Y885947D01*
X54014D01*
X53850Y885868D01*
D02*
G37*
G36*
X34165D02*
X34018Y885632D01*
X33888Y885238D01*
X33776Y884687D01*
X33681Y883978D01*
X33542Y882088D01*
X33465Y878073D01*
X25591D01*
X25582Y879569D01*
X25279Y884687D01*
X25167Y885238D01*
X25038Y885632D01*
X24891Y885868D01*
X24726Y885947D01*
X34329D01*
X34165Y885868D01*
D02*
G37*
G36*
X-64261D02*
X-64407Y885632D01*
X-64537Y885238D01*
X-64650Y884687D01*
X-64745Y883978D01*
X-64883Y882088D01*
X-64961Y878073D01*
X-72835D01*
X-72843Y879569D01*
X-73146Y884687D01*
X-73258Y885238D01*
X-73388Y885632D01*
X-73535Y885868D01*
X-73699Y885947D01*
X-64096D01*
X-64261Y885868D01*
D02*
G37*
G36*
X216185Y868110D02*
X216105Y868858D01*
X215865Y869528D01*
X215465Y870118D01*
X214906Y870630D01*
X214186Y871063D01*
X213307Y871417D01*
X212268Y871693D01*
X211069Y871890D01*
X209710Y872008D01*
X208191Y872047D01*
Y879921D01*
X209710Y879961D01*
X211069Y880079D01*
X212268Y880275D01*
X213307Y880551D01*
X214186Y880905D01*
X214906Y881338D01*
X215465Y881850D01*
X215865Y882441D01*
X216105Y883110D01*
X216185Y883858D01*
Y868110D01*
D02*
G37*
G36*
X-204294Y883110D02*
X-204054Y882441D01*
X-203655Y881850D01*
X-203095Y881338D01*
X-202375Y880905D01*
X-201496Y880551D01*
X-200457Y880275D01*
X-199258Y880079D01*
X-197899Y879961D01*
X-196380Y879921D01*
Y872047D01*
X-197899Y872008D01*
X-199258Y871890D01*
X-200457Y871693D01*
X-201496Y871417D01*
X-202375Y871063D01*
X-203095Y870630D01*
X-203655Y870118D01*
X-204054Y869528D01*
X-204294Y868858D01*
X-204374Y868110D01*
Y883858D01*
X-204294Y883110D01*
D02*
G37*
G36*
X33494Y864341D02*
X33583Y863403D01*
X33730Y862508D01*
X33937Y861655D01*
X34203Y860844D01*
X34528Y860076D01*
X34911Y859349D01*
X35354Y858665D01*
X35856Y858023D01*
X36417Y857423D01*
X22638D01*
X23199Y858023D01*
X23701Y858665D01*
X24144Y859349D01*
X24528Y860076D01*
X24852Y860844D01*
X25118Y861655D01*
X25325Y862508D01*
X25473Y863403D01*
X25561Y864341D01*
X25591Y865320D01*
X33465D01*
X33494Y864341D01*
D02*
G37*
G36*
X-64931D02*
X-64843Y863403D01*
X-64695Y862508D01*
X-64488Y861655D01*
X-64222Y860844D01*
X-63898Y860076D01*
X-63514Y859349D01*
X-63071Y858665D01*
X-62569Y858023D01*
X-62008Y857423D01*
X-75787D01*
X-75226Y858023D01*
X-74724Y858665D01*
X-74281Y859349D01*
X-73898Y860076D01*
X-73573Y860844D01*
X-73307Y861655D01*
X-73100Y862508D01*
X-72953Y863403D01*
X-72864Y864341D01*
X-72835Y865320D01*
X-64961D01*
X-64931Y864341D01*
D02*
G37*
G36*
X111081Y849409D02*
X110481Y849971D01*
X109839Y850472D01*
X109155Y850915D01*
X108428Y851299D01*
X107660Y851624D01*
X106849Y851890D01*
X105996Y852096D01*
X105101Y852244D01*
X104163Y852333D01*
X103184Y852362D01*
Y860236D01*
X104163Y860266D01*
X105101Y860354D01*
X105996Y860502D01*
X106849Y860709D01*
X107660Y860974D01*
X108428Y861299D01*
X109155Y861683D01*
X109839Y862126D01*
X110481Y862628D01*
X111081Y863189D01*
Y849409D01*
D02*
G37*
G36*
X267574Y865750D02*
X267026Y865396D01*
X266541Y864805D01*
X266122Y863978D01*
X265767Y862915D01*
X265477Y861616D01*
X265251Y860081D01*
X265090Y858309D01*
X265017Y855935D01*
X265251Y852518D01*
X265477Y850982D01*
X265767Y849683D01*
X266122Y848620D01*
X266541Y847793D01*
X267026Y847203D01*
X267574Y846848D01*
X268187Y846730D01*
X249923D01*
X250536Y846848D01*
X251085Y847203D01*
X251569Y847793D01*
X251988Y848620D01*
X252343Y849683D01*
X252633Y850982D01*
X252859Y852518D01*
X253020Y854289D01*
X253093Y856663D01*
X252859Y860081D01*
X252633Y861616D01*
X252343Y862915D01*
X251988Y863978D01*
X251569Y864805D01*
X251085Y865396D01*
X250536Y865750D01*
X249923Y865868D01*
X268187D01*
X267574Y865750D01*
D02*
G37*
G36*
X216185Y828740D02*
X216105Y829488D01*
X215865Y830157D01*
X215465Y830748D01*
X214906Y831260D01*
X214186Y831693D01*
X213307Y832047D01*
X212268Y832323D01*
X211069Y832520D01*
X209710Y832638D01*
X208191Y832677D01*
Y840551D01*
X209710Y840591D01*
X211069Y840709D01*
X212268Y840905D01*
X213307Y841181D01*
X214186Y841535D01*
X214906Y841968D01*
X215465Y842480D01*
X215865Y843071D01*
X216105Y843740D01*
X216185Y844488D01*
Y828740D01*
D02*
G37*
G36*
X-204294Y843740D02*
X-204054Y843071D01*
X-203655Y842480D01*
X-203095Y841968D01*
X-202375Y841535D01*
X-201496Y841181D01*
X-200457Y840905D01*
X-199258Y840709D01*
X-197899Y840591D01*
X-196380Y840551D01*
Y832677D01*
X-197899Y832638D01*
X-199258Y832520D01*
X-200457Y832323D01*
X-201496Y832047D01*
X-202375Y831693D01*
X-203095Y831260D01*
X-203655Y830748D01*
X-204054Y830157D01*
X-204294Y829488D01*
X-204374Y828740D01*
Y844488D01*
X-204294Y843740D01*
D02*
G37*
G36*
X-6940Y810904D02*
X-8366Y809466D01*
X-13806Y803299D01*
X-13934Y802975D01*
X-13899Y802790D01*
X-22013Y810904D01*
X-21828Y810869D01*
X-21504Y810997D01*
X-21041Y811288D01*
X-20438Y811740D01*
X-18815Y813132D01*
X-13899Y817863D01*
X-6940Y810904D01*
D02*
G37*
G36*
X267574Y826380D02*
X267026Y826025D01*
X266541Y825435D01*
X266122Y824608D01*
X265767Y823545D01*
X265477Y822246D01*
X265251Y820711D01*
X265090Y818939D01*
X265017Y816565D01*
X265251Y813148D01*
X265477Y811612D01*
X265767Y810313D01*
X266122Y809250D01*
X266541Y808423D01*
X267026Y807833D01*
X267574Y807478D01*
X268187Y807360D01*
X249923D01*
X250536Y807478D01*
X251085Y807833D01*
X251569Y808423D01*
X251988Y809250D01*
X252343Y810313D01*
X252633Y811612D01*
X252859Y813148D01*
X253020Y814919D01*
X253093Y817293D01*
X252859Y820711D01*
X252633Y822246D01*
X252343Y823545D01*
X251988Y824608D01*
X251569Y825435D01*
X251085Y826025D01*
X250536Y826380D01*
X249923Y826498D01*
X268187D01*
X267574Y826380D01*
D02*
G37*
G36*
X-41218Y787521D02*
X-41317Y788359D01*
X-41612Y789108D01*
X-42104Y789769D01*
X-42793Y790342D01*
X-43679Y790827D01*
X-44762Y791224D01*
X-46041Y791532D01*
X-47518Y791753D01*
X-47937Y791786D01*
X-48545Y791732D01*
X-50022Y791486D01*
X-51301Y791142D01*
X-52384Y790699D01*
X-53270Y790157D01*
X-53959Y789518D01*
X-54451Y788779D01*
X-54746Y787943D01*
X-54844Y787008D01*
Y803620D01*
X-54746Y803269D01*
X-54451Y802955D01*
X-53959Y802677D01*
X-53270Y802437D01*
X-52384Y802234D01*
X-51301Y802067D01*
X-48725Y801860D01*
X-47484Y801968D01*
X-45993Y802215D01*
X-44700Y802559D01*
X-43605Y803002D01*
X-42707Y803543D01*
X-42008Y804183D01*
X-41507Y804921D01*
X-41204Y805758D01*
X-41099Y806693D01*
X-41218Y787521D01*
D02*
G37*
G36*
X216185Y789370D02*
X216105Y790118D01*
X215865Y790787D01*
X215465Y791378D01*
X214906Y791890D01*
X214186Y792323D01*
X213307Y792677D01*
X212268Y792953D01*
X211069Y793150D01*
X209710Y793268D01*
X208191Y793307D01*
Y801181D01*
X209710Y801221D01*
X211069Y801339D01*
X212268Y801535D01*
X213307Y801811D01*
X214186Y802165D01*
X214906Y802598D01*
X215465Y803110D01*
X215865Y803701D01*
X216105Y804370D01*
X216185Y805118D01*
Y789370D01*
D02*
G37*
G36*
X267574Y787010D02*
X267026Y786655D01*
X266541Y786065D01*
X266122Y785238D01*
X265767Y784175D01*
X265477Y782876D01*
X265251Y781341D01*
X265090Y779569D01*
X265017Y777195D01*
X265251Y773778D01*
X265477Y772242D01*
X265767Y770943D01*
X266122Y769880D01*
X266541Y769053D01*
X267026Y768463D01*
X267574Y768108D01*
X268187Y767990D01*
X249923D01*
X250536Y768108D01*
X251085Y768463D01*
X251569Y769053D01*
X251988Y769880D01*
X252343Y770943D01*
X252633Y772242D01*
X252859Y773778D01*
X253020Y775549D01*
X253093Y777923D01*
X252859Y781341D01*
X252633Y782876D01*
X252343Y784175D01*
X251988Y785238D01*
X251569Y786065D01*
X251085Y786655D01*
X250536Y787010D01*
X249923Y787128D01*
X268187D01*
X267574Y787010D01*
D02*
G37*
G36*
X54844Y751498D02*
X54746Y751849D01*
X54451Y752163D01*
X53959Y752441D01*
X53270Y752681D01*
X52384Y752884D01*
X51301Y753051D01*
X48736Y753257D01*
X47518Y753150D01*
X46041Y752904D01*
X44762Y752559D01*
X43679Y752116D01*
X42794Y751575D01*
X42105Y750935D01*
X41612Y750197D01*
X41317Y749360D01*
X41219Y748425D01*
Y767596D01*
X41317Y766759D01*
X41612Y766010D01*
X42105Y765349D01*
X42794Y764776D01*
X43679Y764291D01*
X44762Y763894D01*
X46041Y763586D01*
X47518Y763365D01*
X47937Y763332D01*
X48545Y763386D01*
X50022Y763632D01*
X51301Y763976D01*
X52384Y764419D01*
X53270Y764961D01*
X53959Y765600D01*
X54451Y766339D01*
X54746Y767175D01*
X54844Y768110D01*
Y751498D01*
D02*
G37*
G36*
X15929Y772596D02*
X19562Y769509D01*
X21167Y768384D01*
X22629Y767537D01*
X23951Y766968D01*
X25130Y766677D01*
X26168Y766665D01*
X27064Y766932D01*
X27819Y767476D01*
X14020Y753677D01*
X14565Y754432D01*
X14831Y755328D01*
X14819Y756366D01*
X14528Y757546D01*
X13960Y758867D01*
X13113Y760330D01*
X11987Y761934D01*
X10583Y763680D01*
X6940Y767596D01*
X13900Y774556D01*
X15929Y772596D01*
D02*
G37*
G36*
X216185Y750000D02*
X216105Y750748D01*
X215865Y751417D01*
X215465Y752008D01*
X214906Y752520D01*
X214186Y752953D01*
X213307Y753307D01*
X212268Y753583D01*
X211069Y753779D01*
X209710Y753898D01*
X208191Y753937D01*
Y761811D01*
X209710Y761850D01*
X211069Y761968D01*
X212268Y762165D01*
X213307Y762441D01*
X214186Y762795D01*
X214906Y763228D01*
X215465Y763740D01*
X215865Y764331D01*
X216105Y765000D01*
X216185Y765748D01*
Y750000D01*
D02*
G37*
G36*
X580516Y136019D02*
X537402D01*
X537156Y135970D01*
X536909Y136007D01*
X533822Y135855D01*
X533101Y135675D01*
X532357D01*
X526301Y134470D01*
X525388Y134092D01*
X524418Y133899D01*
X518714Y131536D01*
X517893Y130987D01*
X516979Y130609D01*
X511846Y127179D01*
X511147Y126480D01*
X510325Y125931D01*
X505959Y121565D01*
X505410Y120743D01*
X504711Y120044D01*
X501281Y114910D01*
X500902Y113997D01*
X500353Y113175D01*
X498455Y108592D01*
X96649D01*
Y114968D01*
X96781Y115277D01*
X96790Y116319D01*
X96861Y118048D01*
X96990Y119317D01*
X97049Y119659D01*
X97096Y119854D01*
X97135Y119932D01*
X97138Y119981D01*
X97181Y120107D01*
X99594Y123718D01*
X100664Y129095D01*
X99594Y134471D01*
X96549Y139029D01*
X91991Y142075D01*
X86614Y143144D01*
X81238Y142075D01*
X76680Y139029D01*
X73634Y134471D01*
X73415Y133370D01*
X68317D01*
X68098Y134471D01*
X65053Y139029D01*
X60495Y142075D01*
X55118Y143144D01*
X49742Y142075D01*
X45184Y139029D01*
X42138Y134471D01*
X41069Y129095D01*
X42138Y123718D01*
X44551Y120107D01*
X44594Y119981D01*
X44597Y119932D01*
X44636Y119854D01*
X44683Y119659D01*
X44730Y119388D01*
X44943Y116259D01*
X44951Y115277D01*
X45083Y114968D01*
Y108592D01*
X2161D01*
Y114968D01*
X2293Y115277D01*
X2302Y116319D01*
X2373Y118048D01*
X2502Y119317D01*
X2561Y119659D01*
X2608Y119854D01*
X2647Y119932D01*
X2650Y119981D01*
X2693Y120107D01*
X5106Y123718D01*
X6175Y129095D01*
X5106Y134471D01*
X2060Y139029D01*
X-2498Y142075D01*
X-7874Y143144D01*
X-13251Y142075D01*
X-17809Y139029D01*
X-20854Y134471D01*
X-21073Y133370D01*
X-26171D01*
X-26390Y134471D01*
X-29436Y139029D01*
X-33994Y142075D01*
X-39370Y143144D01*
X-44747Y142075D01*
X-49305Y139029D01*
X-52350Y134471D01*
X-53420Y129095D01*
X-52350Y123718D01*
X-49937Y120107D01*
X-49894Y119981D01*
X-49891Y119932D01*
X-49852Y119854D01*
X-49805Y119659D01*
X-49758Y119388D01*
X-49545Y116259D01*
X-49537Y115277D01*
X-49405Y114968D01*
Y108592D01*
X-112012D01*
Y127953D01*
X-112077Y128279D01*
X-112034Y128609D01*
X-112287Y132463D01*
X-112542Y133418D01*
X-112607Y134404D01*
X-114602Y141850D01*
X-115183Y143027D01*
X-115605Y144270D01*
X-119459Y150945D01*
X-120324Y151932D01*
X-121053Y153024D01*
X-126504Y158474D01*
X-127595Y159203D01*
X-128582Y160069D01*
X-135258Y163923D01*
X-136501Y164345D01*
X-137678Y164926D01*
X-145123Y166921D01*
X-146433Y167006D01*
X-147721Y167262D01*
X-155429D01*
X-156716Y167006D01*
X-158026Y166921D01*
X-165472Y164926D01*
X-166649Y164345D01*
X-167892Y163923D01*
X-174567Y160069D01*
X-175554Y159204D01*
X-176646Y158474D01*
X-182096Y153024D01*
X-182826Y151932D01*
X-183691Y150945D01*
X-187545Y144270D01*
X-187967Y143027D01*
X-188548Y141850D01*
X-190543Y134404D01*
X-190607Y133418D01*
X-190863Y132463D01*
X-191116Y128609D01*
X-191072Y128279D01*
X-191137Y127953D01*
Y108592D01*
X-344295D01*
Y114968D01*
X-344164Y115277D01*
X-344155Y116319D01*
X-344084Y118048D01*
X-343955Y119317D01*
X-343896Y119659D01*
X-343848Y119854D01*
X-343810Y119932D01*
X-343806Y119981D01*
X-343763Y120107D01*
X-341351Y123718D01*
X-340281Y129095D01*
X-341351Y134471D01*
X-344396Y139029D01*
X-348954Y142075D01*
X-354331Y143144D01*
X-359707Y142075D01*
X-364265Y139029D01*
X-367311Y134471D01*
X-368380Y129095D01*
X-367311Y123718D01*
X-364898Y120107D01*
X-364855Y119981D01*
X-364852Y119932D01*
X-364813Y119854D01*
X-364766Y119659D01*
X-364719Y119388D01*
X-364506Y116259D01*
X-364497Y115277D01*
X-364366Y114968D01*
Y108592D01*
X-498455D01*
X-500354Y113175D01*
X-500903Y113997D01*
X-501281Y114910D01*
X-504711Y120044D01*
X-505410Y120743D01*
X-505959Y121565D01*
X-510325Y125931D01*
X-511147Y126480D01*
X-511846Y127179D01*
X-516979Y130609D01*
X-517893Y130987D01*
X-518714Y131536D01*
X-524419Y133899D01*
X-525388Y134092D01*
X-526301Y134470D01*
X-532357Y135675D01*
X-533101D01*
X-533822Y135855D01*
X-536909Y136007D01*
X-537156Y135970D01*
X-537402Y136019D01*
X-580516D01*
Y1358268D01*
X-433071D01*
Y630000D01*
X-233683D01*
X-233619Y629921D01*
X-233008Y626849D01*
X-231267Y624244D01*
X-228663Y622504D01*
X-225590Y621893D01*
X-222518Y622504D01*
X-219914Y624244D01*
X-218173Y626849D01*
X-217562Y629921D01*
X-217498Y630000D01*
X433071D01*
Y1358268D01*
X580516D01*
Y136019D01*
D02*
G37*
G36*
X93317Y121824D02*
X93150Y121487D01*
X93002Y121053D01*
X92874Y120522D01*
X92766Y119895D01*
X92608Y118353D01*
X92529Y116424D01*
X92520Y115315D01*
X80709D01*
X80699Y116424D01*
X80463Y119895D01*
X80354Y120522D01*
X80226Y121053D01*
X80079Y121487D01*
X79911Y121824D01*
X79724Y122066D01*
X93504D01*
X93317Y121824D01*
D02*
G37*
G36*
X61821D02*
X61654Y121487D01*
X61506Y121053D01*
X61378Y120522D01*
X61270Y119895D01*
X61112Y118353D01*
X61033Y116424D01*
X61024Y115315D01*
X49213D01*
X49203Y116424D01*
X48967Y119895D01*
X48858Y120522D01*
X48730Y121053D01*
X48583Y121487D01*
X48415Y121824D01*
X48228Y122066D01*
X62008D01*
X61821Y121824D01*
D02*
G37*
G36*
X-1171D02*
X-1339Y121487D01*
X-1486Y121053D01*
X-1614Y120522D01*
X-1722Y119895D01*
X-1880Y118353D01*
X-1959Y116424D01*
X-1969Y115315D01*
X-13780D01*
X-13789Y116424D01*
X-14026Y119895D01*
X-14134Y120522D01*
X-14262Y121053D01*
X-14409Y121487D01*
X-14577Y121824D01*
X-14764Y122066D01*
X-984D01*
X-1171Y121824D01*
D02*
G37*
G36*
X-32667D02*
X-32835Y121487D01*
X-32982Y121053D01*
X-33110Y120522D01*
X-33218Y119895D01*
X-33376Y118353D01*
X-33455Y116424D01*
X-33465Y115315D01*
X-45276D01*
X-45285Y116424D01*
X-45522Y119895D01*
X-45630Y120522D01*
X-45758Y121053D01*
X-45906Y121487D01*
X-46073Y121824D01*
X-46260Y122066D01*
X-32480D01*
X-32667Y121824D01*
D02*
G37*
G36*
X-347628D02*
X-347795Y121487D01*
X-347943Y121053D01*
X-348071Y120522D01*
X-348179Y119895D01*
X-348337Y118353D01*
X-348415Y116424D01*
X-348425Y115315D01*
X-360236D01*
X-360246Y116424D01*
X-360482Y119895D01*
X-360591Y120522D01*
X-360719Y121053D01*
X-360866Y121487D01*
X-361033Y121824D01*
X-361220Y122066D01*
X-347441D01*
X-347628Y121824D01*
D02*
G37*
%LPC*%
G36*
X291535Y1480709D02*
X265158D01*
Y1457419D01*
X265030Y1457226D01*
X265104Y1456784D01*
X264953Y1456419D01*
X265157Y1452362D01*
X267428D01*
Y1452362D01*
X267429D01*
X268074Y1447781D01*
X268118Y1447133D01*
X268081Y1445919D01*
X267429Y1441339D01*
X267428D01*
Y1441339D01*
X265158D01*
X264953Y1437282D01*
X265104Y1436917D01*
X265030Y1436475D01*
X265158Y1436282D01*
Y1418049D01*
X265030Y1417855D01*
X265104Y1417414D01*
X264953Y1417049D01*
X265158Y1412992D01*
X267428D01*
Y1412992D01*
X267429D01*
X268074Y1408411D01*
X268118Y1407763D01*
X268081Y1406549D01*
X267429Y1401969D01*
X267428D01*
Y1401969D01*
X265157D01*
X264953Y1397911D01*
X265104Y1397547D01*
X265030Y1397105D01*
X265158Y1396912D01*
Y1378679D01*
X265030Y1378486D01*
X265104Y1378044D01*
X264953Y1377679D01*
X265157Y1373622D01*
X267428D01*
Y1373622D01*
X267429D01*
X268074Y1369041D01*
X268118Y1368393D01*
X268081Y1367179D01*
X267429Y1362599D01*
X267428D01*
Y1362599D01*
X265157D01*
X264953Y1358541D01*
X265104Y1358177D01*
X265030Y1357735D01*
X265158Y1357542D01*
Y1334252D01*
X291535D01*
Y1357542D01*
X291663Y1357735D01*
X291589Y1358177D01*
X291740Y1358541D01*
X291536Y1362599D01*
X289265D01*
Y1362599D01*
X289264D01*
X288619Y1367179D01*
X288575Y1367827D01*
X288612Y1369042D01*
X289264Y1373622D01*
X289265D01*
Y1373622D01*
X291536D01*
X291740Y1377679D01*
X291589Y1378044D01*
X291663Y1378486D01*
X291535Y1378679D01*
Y1396912D01*
X291663Y1397105D01*
X291589Y1397547D01*
X291740Y1397911D01*
X291536Y1401969D01*
X289265D01*
Y1401969D01*
X289264D01*
X288619Y1406549D01*
X288575Y1407197D01*
X288612Y1408412D01*
X289264Y1412992D01*
X289265D01*
Y1412992D01*
X291536D01*
X291740Y1417049D01*
X291589Y1417414D01*
X291663Y1417855D01*
X291536Y1418049D01*
Y1436282D01*
X291663Y1436475D01*
X291589Y1436917D01*
X291740Y1437282D01*
X291536Y1441339D01*
X289265D01*
Y1441339D01*
X289264D01*
X288619Y1445919D01*
X288575Y1446568D01*
X288612Y1447782D01*
X289264Y1452362D01*
X289265D01*
Y1452362D01*
X291536D01*
X291740Y1456419D01*
X291589Y1456784D01*
X291663Y1457226D01*
X291535Y1457419D01*
Y1480709D01*
D02*
G37*
G36*
X193110D02*
X166732D01*
Y1457419D01*
X166605Y1457226D01*
X166679Y1456784D01*
X166528Y1456419D01*
X166732Y1452362D01*
X169003D01*
Y1452362D01*
X169004D01*
X169649Y1447781D01*
X169693Y1447133D01*
X169656Y1445919D01*
X169004Y1441339D01*
X169003D01*
Y1441339D01*
X166732D01*
X166528Y1437282D01*
X166679Y1436917D01*
X166605Y1436475D01*
X166732Y1436282D01*
Y1418049D01*
X166605Y1417855D01*
X166679Y1417414D01*
X166528Y1417049D01*
X166732Y1412992D01*
X169003D01*
Y1412992D01*
X169004D01*
X169649Y1408411D01*
X169693Y1407763D01*
X169656Y1406549D01*
X169004Y1401969D01*
X169003D01*
Y1401969D01*
X166732D01*
X166528Y1397911D01*
X166679Y1397547D01*
X166605Y1397105D01*
X166732Y1396912D01*
Y1378679D01*
X166605Y1378486D01*
X166679Y1378044D01*
X166528Y1377679D01*
X166732Y1373622D01*
X169003D01*
Y1373622D01*
X169004D01*
X169649Y1369041D01*
X169693Y1368393D01*
X169656Y1367179D01*
X169004Y1362599D01*
X169003D01*
Y1362599D01*
X166732D01*
X166528Y1358541D01*
X166679Y1358177D01*
X166605Y1357735D01*
X166732Y1357542D01*
Y1334252D01*
X193110D01*
Y1357542D01*
X193238Y1357735D01*
X193164Y1358177D01*
X193315Y1358541D01*
X193110Y1362599D01*
X190839D01*
Y1362599D01*
X190839D01*
X190194Y1367179D01*
X190150Y1367827D01*
X190186Y1369042D01*
X190839Y1373622D01*
X190839D01*
Y1373622D01*
X193110D01*
X193315Y1377679D01*
X193164Y1378044D01*
X193238Y1378486D01*
X193110Y1378679D01*
Y1396912D01*
X193238Y1397105D01*
X193164Y1397547D01*
X193315Y1397911D01*
X193110Y1401969D01*
X190839D01*
Y1401969D01*
X190839D01*
X190194Y1406549D01*
X190150Y1407197D01*
X190186Y1408412D01*
X190839Y1412992D01*
X190840D01*
Y1412992D01*
X193111D01*
X193315Y1417049D01*
X193164Y1417414D01*
X193238Y1417855D01*
X193110Y1418049D01*
Y1436282D01*
X193238Y1436475D01*
X193164Y1436917D01*
X193315Y1437282D01*
X193111Y1441339D01*
X190840D01*
Y1441339D01*
X190839D01*
X190194Y1445919D01*
X190150Y1446568D01*
X190186Y1447782D01*
X190839Y1452362D01*
X190839D01*
Y1452362D01*
X193110D01*
X193315Y1456419D01*
X193164Y1456784D01*
X193238Y1457226D01*
X193110Y1457419D01*
Y1480709D01*
D02*
G37*
G36*
X94685D02*
X68307D01*
Y1457419D01*
X68179Y1457226D01*
X68254Y1456784D01*
X68103Y1456419D01*
X68307Y1452362D01*
X70578D01*
Y1452362D01*
X70579D01*
X71224Y1447781D01*
X71268Y1447133D01*
X71231Y1445919D01*
X70579Y1441339D01*
X70578D01*
Y1441339D01*
X68307D01*
X68103Y1437281D01*
X68254Y1436917D01*
X68180Y1436475D01*
X68307Y1436282D01*
Y1418049D01*
X68179Y1417855D01*
X68254Y1417414D01*
X68103Y1417049D01*
X68307Y1412992D01*
X70578D01*
Y1412992D01*
X70579D01*
X71224Y1408411D01*
X71268Y1407763D01*
X71231Y1406549D01*
X70579Y1401969D01*
X70578D01*
Y1401969D01*
X68307D01*
X68103Y1397911D01*
X68254Y1397547D01*
X68180Y1397105D01*
X68307Y1396912D01*
Y1378679D01*
X68179Y1378486D01*
X68254Y1378044D01*
X68103Y1377679D01*
X68307Y1373622D01*
X70578D01*
Y1373622D01*
X70579D01*
X71224Y1369041D01*
X71268Y1368393D01*
X71231Y1367179D01*
X70579Y1362599D01*
X70578D01*
Y1362599D01*
X68307D01*
X68103Y1358541D01*
X68254Y1358177D01*
X68180Y1357735D01*
X68307Y1357542D01*
Y1334252D01*
X94685D01*
Y1357542D01*
X94813Y1357735D01*
X94739Y1358177D01*
X94890Y1358541D01*
X94685Y1362599D01*
X92414D01*
Y1362599D01*
X92414D01*
X91769Y1367179D01*
X91724Y1367827D01*
X91761Y1369042D01*
X92414Y1373622D01*
X92414D01*
Y1373622D01*
X94685D01*
X94890Y1377679D01*
X94738Y1378044D01*
X94813Y1378486D01*
X94685Y1378679D01*
Y1396912D01*
X94813Y1397105D01*
X94739Y1397547D01*
X94890Y1397911D01*
X94685Y1401969D01*
X92414D01*
Y1401969D01*
X92414D01*
X91769Y1406549D01*
X91724Y1407197D01*
X91761Y1408412D01*
X92414Y1412992D01*
X92414D01*
Y1412992D01*
X94685D01*
X94890Y1417049D01*
X94738Y1417414D01*
X94813Y1417855D01*
X94685Y1418049D01*
Y1436282D01*
X94813Y1436475D01*
X94739Y1436917D01*
X94890Y1437281D01*
X94685Y1441339D01*
X92414D01*
Y1441339D01*
X92414D01*
X91769Y1445919D01*
X91724Y1446567D01*
X91761Y1447782D01*
X92414Y1452362D01*
X92414D01*
Y1452362D01*
X94685D01*
X94890Y1456419D01*
X94738Y1456784D01*
X94813Y1457226D01*
X94685Y1457419D01*
Y1480709D01*
D02*
G37*
G36*
X226969Y1441339D02*
X217717D01*
Y1431102D01*
X226969D01*
Y1441339D01*
D02*
G37*
G36*
X325394D02*
X316142D01*
Y1431102D01*
X325394D01*
Y1441339D01*
D02*
G37*
G36*
X209843D02*
X200591D01*
Y1431102D01*
X209843D01*
Y1441339D01*
D02*
G37*
G36*
X308268D02*
X299016D01*
Y1431102D01*
X308268D01*
Y1441339D01*
D02*
G37*
G36*
X128543Y1441339D02*
X119291D01*
Y1431102D01*
X128543D01*
Y1441339D01*
D02*
G37*
G36*
X111418D02*
X102165D01*
Y1431102D01*
X111418D01*
Y1441339D01*
D02*
G37*
G36*
X325394Y1423228D02*
X316142D01*
Y1412992D01*
X325394D01*
Y1423228D01*
D02*
G37*
G36*
X308268D02*
X299016D01*
Y1412992D01*
X308268D01*
Y1423228D01*
D02*
G37*
G36*
X226969D02*
X217717D01*
Y1412992D01*
X226969D01*
Y1423228D01*
D02*
G37*
G36*
X209843D02*
X200591D01*
Y1412992D01*
X209843D01*
Y1423228D01*
D02*
G37*
G36*
X128543Y1423228D02*
X119291D01*
Y1412992D01*
X128543D01*
Y1423228D01*
D02*
G37*
G36*
X111418D02*
X102165D01*
Y1412992D01*
X111418D01*
Y1423228D01*
D02*
G37*
G36*
X128543Y1401969D02*
X119291D01*
Y1391732D01*
X128543D01*
Y1401969D01*
D02*
G37*
G36*
X226968D02*
X217717D01*
Y1391732D01*
X226968D01*
Y1401969D01*
D02*
G37*
G36*
X325394D02*
X316142D01*
Y1391732D01*
X325394D01*
Y1401969D01*
D02*
G37*
G36*
X111418D02*
X102165D01*
Y1391732D01*
X111418D01*
Y1401969D01*
D02*
G37*
G36*
X308268D02*
X299016D01*
Y1391732D01*
X308268D01*
Y1401969D01*
D02*
G37*
G36*
X209843D02*
X200591D01*
Y1391732D01*
X209843D01*
Y1401969D01*
D02*
G37*
G36*
X325394Y1383858D02*
X316142D01*
Y1373622D01*
X325394D01*
Y1383858D01*
D02*
G37*
G36*
X308268D02*
X299016D01*
Y1373622D01*
X308268D01*
Y1383858D01*
D02*
G37*
G36*
X226968D02*
X217717D01*
Y1373622D01*
X226968D01*
Y1383858D01*
D02*
G37*
G36*
X209843D02*
X200591D01*
Y1373622D01*
X209843D01*
Y1383858D01*
D02*
G37*
G36*
X128543D02*
X119291D01*
Y1373622D01*
X128543D01*
Y1383858D01*
D02*
G37*
G36*
X111418D02*
X102165D01*
Y1373622D01*
X111418D01*
Y1383858D01*
D02*
G37*
G36*
X291535Y1323228D02*
X282283D01*
Y1312992D01*
X291535D01*
Y1323228D01*
D02*
G37*
G36*
X274409D02*
X265157D01*
Y1312992D01*
X274409D01*
Y1323228D01*
D02*
G37*
G36*
X193110D02*
X183858D01*
Y1312992D01*
X193110D01*
Y1323228D01*
D02*
G37*
G36*
X175984D02*
X166732D01*
Y1312992D01*
X175984D01*
Y1323228D01*
D02*
G37*
G36*
X94685D02*
X85433D01*
Y1312992D01*
X94685D01*
Y1323228D01*
D02*
G37*
G36*
X77559D02*
X68307D01*
Y1312992D01*
X77559D01*
Y1323228D01*
D02*
G37*
G36*
X291535Y1305118D02*
X282283D01*
Y1294882D01*
X291535D01*
Y1305118D01*
D02*
G37*
G36*
X274409D02*
X265157D01*
Y1294882D01*
X274409D01*
Y1305118D01*
D02*
G37*
G36*
X193110D02*
X183858D01*
Y1294882D01*
X193110D01*
Y1305118D01*
D02*
G37*
G36*
X175984D02*
X166732D01*
Y1294882D01*
X175984D01*
Y1305118D01*
D02*
G37*
G36*
X94685D02*
X85433D01*
Y1294882D01*
X94685D01*
Y1305118D01*
D02*
G37*
G36*
X77559D02*
X68307D01*
Y1294882D01*
X77559D01*
Y1305118D01*
D02*
G37*
G36*
X291535Y1283858D02*
X282284D01*
Y1273622D01*
X291535D01*
Y1283858D01*
D02*
G37*
G36*
X274409D02*
X265158D01*
Y1273622D01*
X274409D01*
Y1283858D01*
D02*
G37*
G36*
X193110D02*
X183858D01*
Y1273622D01*
X193110D01*
Y1283858D01*
D02*
G37*
G36*
X175984D02*
X166732D01*
Y1273622D01*
X175984D01*
Y1283858D01*
D02*
G37*
G36*
X94685D02*
X85433D01*
Y1273622D01*
X94685D01*
Y1283858D01*
D02*
G37*
G36*
X77559D02*
X68307D01*
Y1273622D01*
X77559D01*
Y1283858D01*
D02*
G37*
G36*
X291535Y1265748D02*
X282284D01*
Y1255512D01*
X291535D01*
Y1265748D01*
D02*
G37*
G36*
X274409D02*
X265158D01*
Y1255512D01*
X274409D01*
Y1265748D01*
D02*
G37*
G36*
X193110D02*
X183858D01*
Y1255512D01*
X193110D01*
Y1265748D01*
D02*
G37*
G36*
X175984D02*
X166732D01*
Y1255512D01*
X175984D01*
Y1265748D01*
D02*
G37*
G36*
X94685D02*
X85433D01*
Y1255512D01*
X94685D01*
Y1265748D01*
D02*
G37*
G36*
X77559D02*
X68307D01*
Y1255512D01*
X77559D01*
Y1265748D01*
D02*
G37*
G36*
X72835Y1106299D02*
Y1092520D01*
X77756D01*
Y1106299D01*
X72835D01*
D02*
G37*
G36*
X238386Y1087008D02*
X229134D01*
Y1076772D01*
X238386D01*
Y1087008D01*
D02*
G37*
G36*
X221260D02*
X212008D01*
Y1076772D01*
X221260D01*
Y1087008D01*
D02*
G37*
%LPD*%
G36*
X286865Y1456301D02*
X286317Y1455947D01*
X285833Y1455356D01*
X285413Y1454529D01*
X285059Y1453466D01*
X284768Y1452167D01*
X284542Y1450632D01*
X284381Y1448860D01*
X284309Y1446486D01*
X284542Y1443069D01*
X284768Y1441534D01*
X285059Y1440234D01*
X285413Y1439171D01*
X285833Y1438345D01*
X286317Y1437754D01*
X286865Y1437400D01*
X287478Y1437282D01*
X269215D01*
X269828Y1437400D01*
X270376Y1437754D01*
X270860Y1438345D01*
X271279Y1439171D01*
X271634Y1440234D01*
X271925Y1441534D01*
X272151Y1443069D01*
X272312Y1444841D01*
X272384Y1447214D01*
X272151Y1450632D01*
X271925Y1452167D01*
X271634Y1453466D01*
X271279Y1454529D01*
X270860Y1455356D01*
X270376Y1455947D01*
X269828Y1456301D01*
X269215Y1456419D01*
X287478D01*
X286865Y1456301D01*
D02*
G37*
G36*
X286865Y1416931D02*
X286317Y1416577D01*
X285833Y1415986D01*
X285413Y1415159D01*
X285059Y1414096D01*
X284768Y1412797D01*
X284542Y1411262D01*
X284381Y1409490D01*
X284309Y1407116D01*
X284542Y1403699D01*
X284768Y1402164D01*
X285059Y1400864D01*
X285413Y1399801D01*
X285833Y1398975D01*
X286317Y1398384D01*
X286865Y1398030D01*
X287478Y1397912D01*
X269215D01*
X269828Y1398030D01*
X270376Y1398384D01*
X270860Y1398975D01*
X271279Y1399801D01*
X271634Y1400864D01*
X271925Y1402164D01*
X272151Y1403699D01*
X272312Y1405471D01*
X272384Y1407844D01*
X272151Y1411262D01*
X271925Y1412797D01*
X271634Y1414096D01*
X271279Y1415159D01*
X270860Y1415986D01*
X270376Y1416577D01*
X269828Y1416931D01*
X269215Y1417049D01*
X287478D01*
X286865Y1416931D01*
D02*
G37*
G36*
X286865Y1377561D02*
X286317Y1377207D01*
X285833Y1376616D01*
X285413Y1375789D01*
X285059Y1374726D01*
X284768Y1373427D01*
X284542Y1371892D01*
X284381Y1370120D01*
X284309Y1367746D01*
X284542Y1364329D01*
X284768Y1362793D01*
X285059Y1361494D01*
X285413Y1360431D01*
X285833Y1359604D01*
X286317Y1359014D01*
X286865Y1358660D01*
X287478Y1358542D01*
X269215D01*
X269828Y1358660D01*
X270376Y1359014D01*
X270860Y1359604D01*
X271279Y1360431D01*
X271634Y1361494D01*
X271925Y1362793D01*
X272151Y1364329D01*
X272312Y1366101D01*
X272384Y1368474D01*
X272151Y1371892D01*
X271925Y1373427D01*
X271634Y1374726D01*
X271279Y1375789D01*
X270860Y1376616D01*
X270376Y1377207D01*
X269828Y1377561D01*
X269215Y1377679D01*
X287478D01*
X286865Y1377561D01*
D02*
G37*
G36*
X188440Y1456301D02*
X187892Y1455947D01*
X187408Y1455356D01*
X186988Y1454529D01*
X186633Y1453466D01*
X186343Y1452167D01*
X186117Y1450632D01*
X185956Y1448860D01*
X185884Y1446486D01*
X186117Y1443069D01*
X186343Y1441534D01*
X186633Y1440234D01*
X186988Y1439171D01*
X187408Y1438345D01*
X187892Y1437754D01*
X188440Y1437400D01*
X189053Y1437282D01*
X170790D01*
X171403Y1437400D01*
X171951Y1437754D01*
X172435Y1438345D01*
X172854Y1439171D01*
X173209Y1440234D01*
X173500Y1441534D01*
X173725Y1443069D01*
X173887Y1444841D01*
X173959Y1447214D01*
X173725Y1450632D01*
X173500Y1452167D01*
X173209Y1453466D01*
X172854Y1454529D01*
X172435Y1455356D01*
X171951Y1455947D01*
X171402Y1456301D01*
X170789Y1456419D01*
X189053D01*
X188440Y1456301D01*
D02*
G37*
G36*
X188440Y1416931D02*
X187892Y1416577D01*
X187408Y1415986D01*
X186988Y1415159D01*
X186633Y1414096D01*
X186343Y1412797D01*
X186117Y1411262D01*
X185956Y1409490D01*
X185884Y1407116D01*
X186117Y1403699D01*
X186343Y1402164D01*
X186633Y1400864D01*
X186988Y1399801D01*
X187408Y1398975D01*
X187892Y1398384D01*
X188440Y1398030D01*
X189053Y1397912D01*
X170789D01*
X171402Y1398030D01*
X171951Y1398384D01*
X172435Y1398975D01*
X172854Y1399801D01*
X173209Y1400864D01*
X173500Y1402164D01*
X173725Y1403699D01*
X173887Y1405471D01*
X173959Y1407844D01*
X173725Y1411262D01*
X173500Y1412797D01*
X173209Y1414096D01*
X172854Y1415159D01*
X172435Y1415986D01*
X171951Y1416577D01*
X171403Y1416931D01*
X170790Y1417049D01*
X189053D01*
X188440Y1416931D01*
D02*
G37*
G36*
X188440Y1377561D02*
X187892Y1377207D01*
X187408Y1376616D01*
X186988Y1375789D01*
X186633Y1374726D01*
X186343Y1373427D01*
X186117Y1371892D01*
X185956Y1370120D01*
X185884Y1367746D01*
X186117Y1364329D01*
X186343Y1362793D01*
X186633Y1361494D01*
X186988Y1360431D01*
X187408Y1359604D01*
X187892Y1359014D01*
X188440Y1358660D01*
X189053Y1358542D01*
X170789D01*
X171402Y1358660D01*
X171951Y1359014D01*
X172435Y1359604D01*
X172854Y1360431D01*
X173209Y1361494D01*
X173500Y1362793D01*
X173725Y1364329D01*
X173887Y1366101D01*
X173959Y1368474D01*
X173725Y1371892D01*
X173500Y1373427D01*
X173209Y1374726D01*
X172854Y1375789D01*
X172435Y1376616D01*
X171951Y1377207D01*
X171402Y1377561D01*
X170789Y1377679D01*
X189053D01*
X188440Y1377561D01*
D02*
G37*
G36*
X90015Y1456301D02*
X89466Y1455947D01*
X88983Y1455356D01*
X88563Y1454529D01*
X88208Y1453466D01*
X87918Y1452167D01*
X87692Y1450632D01*
X87531Y1448860D01*
X87459Y1446486D01*
X87692Y1443069D01*
X87918Y1441534D01*
X88208Y1440234D01*
X88563Y1439171D01*
X88983Y1438344D01*
X89466Y1437754D01*
X90015Y1437400D01*
X90628Y1437282D01*
X72364D01*
X72977Y1437400D01*
X73526Y1437754D01*
X74010Y1438344D01*
X74429Y1439171D01*
X74784Y1440234D01*
X75074Y1441534D01*
X75300Y1443069D01*
X75462Y1444841D01*
X75534Y1447214D01*
X75300Y1450632D01*
X75074Y1452167D01*
X74784Y1453466D01*
X74429Y1454529D01*
X74010Y1455356D01*
X73526Y1455947D01*
X72977Y1456301D01*
X72364Y1456419D01*
X90628D01*
X90015Y1456301D01*
D02*
G37*
G36*
Y1416931D02*
X89466Y1416577D01*
X88983Y1415986D01*
X88563Y1415159D01*
X88208Y1414096D01*
X87918Y1412797D01*
X87692Y1411262D01*
X87531Y1409490D01*
X87459Y1407116D01*
X87692Y1403699D01*
X87918Y1402164D01*
X88208Y1400864D01*
X88563Y1399801D01*
X88983Y1398975D01*
X89466Y1398384D01*
X90015Y1398030D01*
X90628Y1397912D01*
X72364D01*
X72977Y1398030D01*
X73526Y1398384D01*
X74010Y1398975D01*
X74429Y1399801D01*
X74784Y1400864D01*
X75074Y1402164D01*
X75300Y1403699D01*
X75462Y1405471D01*
X75534Y1407844D01*
X75300Y1411262D01*
X75074Y1412797D01*
X74784Y1414096D01*
X74429Y1415159D01*
X74010Y1415986D01*
X73526Y1416577D01*
X72977Y1416931D01*
X72364Y1417049D01*
X90628D01*
X90015Y1416931D01*
D02*
G37*
G36*
Y1377561D02*
X89466Y1377207D01*
X88983Y1376616D01*
X88563Y1375789D01*
X88208Y1374726D01*
X87918Y1373427D01*
X87692Y1371892D01*
X87531Y1370120D01*
X87459Y1367746D01*
X87692Y1364329D01*
X87918Y1362793D01*
X88208Y1361494D01*
X88563Y1360431D01*
X88983Y1359604D01*
X89466Y1359014D01*
X90015Y1358660D01*
X90628Y1358542D01*
X72364D01*
X72977Y1358660D01*
X73526Y1359014D01*
X74010Y1359604D01*
X74429Y1360431D01*
X74784Y1361494D01*
X75074Y1362793D01*
X75300Y1364329D01*
X75462Y1366101D01*
X75534Y1368474D01*
X75300Y1371892D01*
X75074Y1373427D01*
X74784Y1374726D01*
X74429Y1375789D01*
X74010Y1376616D01*
X73526Y1377207D01*
X72977Y1377561D01*
X72364Y1377679D01*
X90628D01*
X90015Y1377561D01*
D02*
G37*
%LPC*%
G36*
X-102166Y1362599D02*
X-111418D01*
Y1352362D01*
X-102166D01*
Y1362599D01*
D02*
G37*
G36*
X-119291D02*
X-128543D01*
Y1352362D01*
X-119291D01*
Y1362599D01*
D02*
G37*
G36*
X-102166Y1344488D02*
X-111418D01*
Y1334252D01*
X-102166D01*
Y1344488D01*
D02*
G37*
G36*
X-119291D02*
X-128543D01*
Y1334252D01*
X-119291D01*
Y1344488D01*
D02*
G37*
G36*
X-102166Y1323228D02*
X-111418D01*
Y1312992D01*
X-102166D01*
Y1323228D01*
D02*
G37*
G36*
X-119291D02*
X-128543D01*
Y1312992D01*
X-119291D01*
Y1323228D01*
D02*
G37*
G36*
X-102166Y1305118D02*
X-111418D01*
Y1294882D01*
X-102166D01*
Y1305118D01*
D02*
G37*
G36*
X-119291D02*
X-128543D01*
Y1294882D01*
X-119291D01*
Y1305118D01*
D02*
G37*
G36*
X-102166Y1283858D02*
X-111418D01*
Y1273622D01*
X-102166D01*
Y1283858D01*
D02*
G37*
G36*
X-119291D02*
X-128543D01*
Y1273622D01*
X-119291D01*
Y1283858D01*
D02*
G37*
G36*
X-102166Y1265748D02*
X-111418D01*
Y1255512D01*
X-102166D01*
Y1265748D01*
D02*
G37*
G36*
X-119291D02*
X-128543D01*
Y1255512D01*
X-119291D01*
Y1265748D01*
D02*
G37*
G36*
X-200591Y1362599D02*
X-209843D01*
Y1352362D01*
X-200591D01*
Y1362599D01*
D02*
G37*
G36*
X-217717D02*
X-226969D01*
Y1352362D01*
X-217717D01*
Y1362599D01*
D02*
G37*
G36*
X-200591Y1344488D02*
X-209843D01*
Y1334252D01*
X-200591D01*
Y1344488D01*
D02*
G37*
G36*
X-217717D02*
X-226969D01*
Y1334252D01*
X-217717D01*
Y1344488D01*
D02*
G37*
G36*
X-200591Y1323228D02*
X-209843D01*
Y1312992D01*
X-200591D01*
Y1323228D01*
D02*
G37*
G36*
X-217716D02*
X-226968D01*
Y1312992D01*
X-217716D01*
Y1323228D01*
D02*
G37*
G36*
X-200591Y1305118D02*
X-209843D01*
Y1294882D01*
X-200591D01*
Y1305118D01*
D02*
G37*
G36*
X-217716D02*
X-226968D01*
Y1294882D01*
X-217716D01*
Y1305118D01*
D02*
G37*
G36*
X-200591Y1283858D02*
X-209843D01*
Y1273622D01*
X-200591D01*
Y1283858D01*
D02*
G37*
G36*
X-217716D02*
X-226968D01*
Y1273622D01*
X-217716D01*
Y1283858D01*
D02*
G37*
G36*
X-200591Y1265748D02*
X-209843D01*
Y1255512D01*
X-200591D01*
Y1265748D01*
D02*
G37*
G36*
X-217716D02*
X-226968D01*
Y1255512D01*
X-217716D01*
Y1265748D01*
D02*
G37*
G36*
X-234055Y1029528D02*
X-260433D01*
Y1019291D01*
X-255915D01*
X-255856Y1019148D01*
X-255705Y1018584D01*
X-255569Y1017771D01*
X-255477Y1016727D01*
X-255441Y1015362D01*
X-255272Y1014984D01*
Y1012574D01*
X-255441Y1012195D01*
X-255477Y1010805D01*
X-255570Y1009736D01*
X-255707Y1008901D01*
X-255862Y1008317D01*
X-255882Y1008268D01*
X-260433D01*
Y998031D01*
X-234055D01*
Y1008268D01*
X-238606D01*
X-238626Y1008316D01*
X-238781Y1008901D01*
X-238918Y1009737D01*
X-239011Y1010805D01*
X-239047Y1012195D01*
X-239216Y1012574D01*
Y1014984D01*
X-239047Y1015362D01*
X-239011Y1016727D01*
X-238919Y1017771D01*
X-238784Y1018583D01*
X-238632Y1019148D01*
X-238573Y1019291D01*
X-234055D01*
Y1029528D01*
D02*
G37*
G36*
Y990157D02*
X-243307D01*
Y979921D01*
X-234055D01*
Y990157D01*
D02*
G37*
G36*
X-251181D02*
X-260433D01*
Y979921D01*
X-251181D01*
Y990157D01*
D02*
G37*
G36*
X-234055Y968898D02*
X-260433D01*
Y945551D01*
X-260433Y945517D01*
X-260587Y945265D01*
X-260561Y944792D01*
X-260638Y944608D01*
X-260433Y940551D01*
X-260773Y938954D01*
X-261024Y937780D01*
X-261024Y935796D01*
Y932298D01*
X-258926Y927234D01*
X-257810Y926118D01*
X-257814Y926060D01*
X-257768Y925925D01*
X-257765Y925877D01*
X-257726Y925799D01*
X-257679Y925604D01*
X-257632Y925332D01*
X-257420Y922204D01*
X-257411Y921222D01*
X-257279Y920913D01*
Y898329D01*
X-257409Y898041D01*
X-257509Y894738D01*
X-258162Y890158D01*
X-258162D01*
Y890158D01*
X-260433D01*
X-260638Y886100D01*
X-260486Y885736D01*
X-260561Y885294D01*
X-260433Y885101D01*
Y866867D01*
X-260561Y866674D01*
X-260486Y866233D01*
X-260638Y865868D01*
X-260433Y861811D01*
X-258162D01*
Y861811D01*
X-258162D01*
X-257517Y857230D01*
X-257472Y856582D01*
X-257509Y855367D01*
X-258162Y850787D01*
X-258162D01*
Y850788D01*
X-260433D01*
X-260638Y846730D01*
X-260486Y846365D01*
X-260561Y845924D01*
X-260433Y845731D01*
Y827497D01*
X-260561Y827304D01*
X-260486Y826863D01*
X-260638Y826498D01*
X-260433Y822441D01*
X-258162D01*
Y822441D01*
X-258162D01*
X-257517Y817860D01*
X-257472Y817212D01*
X-257509Y815997D01*
X-258162Y811417D01*
X-258162D01*
Y811418D01*
X-260433D01*
X-260638Y807360D01*
X-260486Y806995D01*
X-260561Y806554D01*
X-260433Y806361D01*
Y788127D01*
X-260561Y787934D01*
X-260486Y787493D01*
X-260638Y787128D01*
X-260433Y783071D01*
X-258162D01*
Y783071D01*
X-258162D01*
X-257517Y778490D01*
X-257472Y777842D01*
X-257509Y776627D01*
X-258162Y772047D01*
X-258162D01*
Y772047D01*
X-260433D01*
X-260638Y767990D01*
X-260486Y767625D01*
X-260561Y767184D01*
X-260433Y766991D01*
Y743701D01*
X-234055D01*
Y766991D01*
X-233927Y767184D01*
X-234002Y767625D01*
X-233851Y767990D01*
X-234055Y772047D01*
X-236326D01*
Y772047D01*
X-236327D01*
X-236971Y776628D01*
X-237016Y777276D01*
X-236979Y778491D01*
X-236327Y783071D01*
X-236326D01*
Y783071D01*
X-234055D01*
X-233851Y787128D01*
X-234002Y787493D01*
X-233928Y787934D01*
X-234055Y788127D01*
Y806361D01*
X-233927Y806554D01*
X-234002Y806996D01*
X-233851Y807360D01*
X-234055Y811418D01*
X-236326D01*
Y811417D01*
X-236327D01*
X-236971Y815998D01*
X-237016Y816646D01*
X-236979Y817861D01*
X-236327Y822441D01*
X-236326D01*
Y822441D01*
X-234055D01*
X-233851Y826498D01*
X-234002Y826863D01*
X-233928Y827304D01*
X-234055Y827497D01*
Y845731D01*
X-233927Y845924D01*
X-234002Y846366D01*
X-233851Y846730D01*
X-234055Y850788D01*
X-236326D01*
Y850787D01*
X-236327D01*
X-236971Y855368D01*
X-237016Y856016D01*
X-236979Y857231D01*
X-236327Y861811D01*
X-236326D01*
Y861811D01*
X-234055D01*
X-233851Y865868D01*
X-234002Y866233D01*
X-233928Y866674D01*
X-234055Y866867D01*
Y885101D01*
X-233927Y885294D01*
X-234002Y885736D01*
X-233851Y886100D01*
X-234055Y890158D01*
X-236326D01*
Y890158D01*
X-236327D01*
X-236971Y894738D01*
X-237047Y895842D01*
X-237078Y897973D01*
X-237209Y898277D01*
Y920913D01*
X-237077Y921222D01*
X-237068Y922263D01*
X-236998Y923993D01*
X-236868Y925261D01*
X-236809Y925604D01*
X-236762Y925799D01*
X-236723Y925877D01*
X-236720Y925925D01*
X-236674Y926060D01*
X-236678Y926118D01*
X-235562Y927234D01*
X-233465Y932298D01*
Y935796D01*
X-233464Y937780D01*
X-233715Y938954D01*
X-234055Y940551D01*
X-233851Y944608D01*
X-233927Y944792D01*
X-233902Y945265D01*
X-234055Y945517D01*
X-234055Y945551D01*
Y968898D01*
D02*
G37*
G36*
X-200197Y811417D02*
X-209449D01*
Y801181D01*
X-200197D01*
Y811417D01*
D02*
G37*
G36*
X-217323D02*
X-226575D01*
Y801181D01*
X-217323D01*
Y811417D01*
D02*
G37*
G36*
X79134Y807677D02*
X68898D01*
Y798425D01*
X79134D01*
Y807677D01*
D02*
G37*
G36*
Y790551D02*
X68898D01*
Y781299D01*
X79134D01*
Y790551D01*
D02*
G37*
G36*
X45276Y814961D02*
X31496D01*
Y799212D01*
Y783465D01*
X40358D01*
X40641Y783299D01*
X41086Y783315D01*
X41219Y783260D01*
X45276Y783464D01*
X46448Y784090D01*
X50787Y781299D01*
Y781299D01*
X61024D01*
Y794488D01*
Y807677D01*
X50788D01*
X50787Y807677D01*
X49907Y807274D01*
X45276Y810159D01*
Y814961D01*
D02*
G37*
G36*
X-68897Y773819D02*
X-79134D01*
Y764567D01*
X-68897D01*
Y773819D01*
D02*
G37*
G36*
X-200197Y793307D02*
X-213386D01*
X-226575D01*
Y783071D01*
X-222024D01*
X-222004Y783022D01*
X-221849Y782438D01*
X-221712Y781602D01*
X-221619Y780533D01*
X-221583Y779143D01*
X-221414Y778764D01*
Y776355D01*
X-221583Y775976D01*
X-221619Y774612D01*
X-221711Y773567D01*
X-221846Y772755D01*
X-221998Y772191D01*
X-222057Y772047D01*
X-226575D01*
Y761811D01*
X-213386D01*
X-200197D01*
Y772047D01*
X-204715D01*
X-204774Y772191D01*
X-204925Y772755D01*
X-205061Y773568D01*
X-205153Y774612D01*
X-205189Y775976D01*
X-205358Y776355D01*
Y778764D01*
X-205189Y779143D01*
X-205153Y780533D01*
X-205060Y781602D01*
X-204923Y782437D01*
X-204768Y783022D01*
X-204748Y783071D01*
X-200197D01*
Y793307D01*
D02*
G37*
G36*
X-9842Y771654D02*
X-23622D01*
Y759843D01*
X-9842D01*
Y771654D01*
D02*
G37*
G36*
X-68897Y756693D02*
X-79134D01*
Y747441D01*
X-68897D01*
Y756693D01*
D02*
G37*
G36*
X-200197Y753937D02*
X-209449D01*
Y743701D01*
X-200197D01*
Y753937D01*
D02*
G37*
G36*
X-217323D02*
X-226575D01*
Y743701D01*
X-217323D01*
Y753937D01*
D02*
G37*
G36*
X-9842Y751969D02*
X-23622D01*
Y740158D01*
X-9842D01*
Y751969D01*
D02*
G37*
G36*
X-50787Y773819D02*
Y773819D01*
X-61023D01*
Y760630D01*
Y747441D01*
X-50788D01*
X-50787Y747441D01*
X-49908Y747843D01*
X-45276Y744964D01*
Y740158D01*
X-31496D01*
Y755906D01*
Y771654D01*
X-40358D01*
X-40641Y771819D01*
X-41115Y771802D01*
X-41253Y771858D01*
X-45276Y771654D01*
X-46448Y771028D01*
X-50787Y773819D01*
D02*
G37*
%LPD*%
G36*
X-240118Y1023270D02*
X-240787Y1023033D01*
X-241378Y1022640D01*
X-241890Y1022089D01*
X-242323Y1021380D01*
X-242677Y1020514D01*
X-242953Y1019490D01*
X-243150Y1018309D01*
X-243268Y1016971D01*
X-243307Y1015474D01*
X-251181D01*
X-251220Y1016971D01*
X-251339Y1018309D01*
X-251535Y1019490D01*
X-251811Y1020514D01*
X-252165Y1021380D01*
X-252598Y1022089D01*
X-253110Y1022640D01*
X-253701Y1023033D01*
X-254370Y1023270D01*
X-255118Y1023348D01*
X-239370D01*
X-240118Y1023270D01*
D02*
G37*
G36*
X-243268Y1010566D02*
X-243150Y1009207D01*
X-242953Y1008008D01*
X-242677Y1006968D01*
X-242323Y1006089D01*
X-241890Y1005370D01*
X-241378Y1004810D01*
X-240787Y1004410D01*
X-240118Y1004170D01*
X-239370Y1004091D01*
X-255118D01*
X-254370Y1004170D01*
X-253701Y1004410D01*
X-253110Y1004810D01*
X-252598Y1005370D01*
X-252165Y1006089D01*
X-251811Y1006968D01*
X-251535Y1008008D01*
X-251339Y1009207D01*
X-251220Y1010566D01*
X-251181Y1012085D01*
X-243307D01*
X-243268Y1010566D01*
D02*
G37*
G36*
X-241329Y947710D02*
X-241118Y944608D01*
X-238112D01*
X-238725Y944513D01*
X-239274Y944225D01*
X-239758Y943747D01*
X-240177Y943077D01*
X-240510Y942269D01*
X-240354Y942068D01*
X-240573D01*
X-240822Y941163D01*
X-241048Y939919D01*
X-241209Y938484D01*
X-241306Y936857D01*
X-241339Y935039D01*
X-253150D01*
X-253182Y936857D01*
X-253440Y939919D01*
X-253666Y941163D01*
X-253916Y942068D01*
X-254134D01*
X-253978Y942269D01*
X-254311Y943077D01*
X-254731Y943747D01*
X-255214Y944225D01*
X-255763Y944513D01*
X-256376Y944608D01*
X-253358D01*
X-253238Y945781D01*
X-253159Y947710D01*
X-253150Y948819D01*
X-241339D01*
X-241329Y947710D01*
D02*
G37*
G36*
X-240541Y927769D02*
X-240709Y927432D01*
X-240856Y926998D01*
X-240984Y926467D01*
X-241093Y925840D01*
X-241250Y924298D01*
X-241329Y922369D01*
X-241339Y921260D01*
X-253150D01*
X-253159Y922369D01*
X-253396Y925840D01*
X-253504Y926467D01*
X-253632Y926998D01*
X-253780Y927432D01*
X-253947Y927769D01*
X-254134Y928010D01*
X-240354D01*
X-240541Y927769D01*
D02*
G37*
G36*
X-241306Y895667D02*
X-241048Y891888D01*
X-240822Y890352D01*
X-240532Y889053D01*
X-240177Y887990D01*
X-239758Y887163D01*
X-239274Y886573D01*
X-238725Y886218D01*
X-238112Y886100D01*
X-256376D01*
X-255763Y886218D01*
X-255214Y886573D01*
X-254731Y887163D01*
X-254311Y887990D01*
X-253956Y889053D01*
X-253666Y890352D01*
X-253440Y891888D01*
X-253279Y893659D01*
X-253150Y897911D01*
X-241339D01*
X-241306Y895667D01*
D02*
G37*
G36*
X-238725Y865750D02*
X-239274Y865396D01*
X-239758Y864805D01*
X-240177Y863978D01*
X-240532Y862915D01*
X-240822Y861616D01*
X-241048Y860081D01*
X-241209Y858309D01*
X-241282Y855935D01*
X-241048Y852518D01*
X-240822Y850982D01*
X-240532Y849683D01*
X-240177Y848620D01*
X-239758Y847793D01*
X-239274Y847203D01*
X-238725Y846848D01*
X-238112Y846730D01*
X-256376D01*
X-255763Y846848D01*
X-255214Y847203D01*
X-254731Y847793D01*
X-254311Y848620D01*
X-253956Y849683D01*
X-253666Y850982D01*
X-253440Y852518D01*
X-253279Y854289D01*
X-253207Y856663D01*
X-253440Y860081D01*
X-253666Y861616D01*
X-253956Y862915D01*
X-254311Y863978D01*
X-254731Y864805D01*
X-255214Y865396D01*
X-255763Y865750D01*
X-256376Y865868D01*
X-238112D01*
X-238725Y865750D01*
D02*
G37*
G36*
Y826380D02*
X-239274Y826025D01*
X-239758Y825435D01*
X-240177Y824608D01*
X-240532Y823545D01*
X-240822Y822246D01*
X-241048Y820711D01*
X-241209Y818939D01*
X-241282Y816565D01*
X-241048Y813148D01*
X-240822Y811612D01*
X-240532Y810313D01*
X-240177Y809250D01*
X-239758Y808423D01*
X-239274Y807833D01*
X-238725Y807478D01*
X-238112Y807360D01*
X-256376D01*
X-255763Y807478D01*
X-255214Y807833D01*
X-254731Y808423D01*
X-254311Y809250D01*
X-253956Y810313D01*
X-253666Y811612D01*
X-253440Y813148D01*
X-253279Y814919D01*
X-253207Y817293D01*
X-253440Y820711D01*
X-253666Y822246D01*
X-253956Y823545D01*
X-254311Y824608D01*
X-254731Y825435D01*
X-255214Y826025D01*
X-255763Y826380D01*
X-256376Y826498D01*
X-238112D01*
X-238725Y826380D01*
D02*
G37*
G36*
Y787010D02*
X-239274Y786655D01*
X-239758Y786065D01*
X-240177Y785238D01*
X-240532Y784175D01*
X-240822Y782876D01*
X-241048Y781341D01*
X-241209Y779569D01*
X-241282Y777195D01*
X-241048Y773778D01*
X-240822Y772242D01*
X-240532Y770943D01*
X-240177Y769880D01*
X-239758Y769053D01*
X-239274Y768463D01*
X-238725Y768108D01*
X-238112Y767990D01*
X-256376D01*
X-255763Y768108D01*
X-255214Y768463D01*
X-254731Y769053D01*
X-254311Y769880D01*
X-253956Y770943D01*
X-253666Y772242D01*
X-253440Y773778D01*
X-253279Y775549D01*
X-253207Y777923D01*
X-253440Y781341D01*
X-253666Y782876D01*
X-253956Y784175D01*
X-254311Y785238D01*
X-254731Y786065D01*
X-255214Y786655D01*
X-255763Y787010D01*
X-256376Y787128D01*
X-238112D01*
X-238725Y787010D01*
D02*
G37*
G36*
X54844Y786614D02*
X54766Y787362D01*
X54529Y788031D01*
X54136Y788622D01*
X53585Y789134D01*
X52876Y789567D01*
X52010Y789921D01*
X50986Y790197D01*
X49805Y790394D01*
X48467Y790512D01*
X47893Y790527D01*
X47597Y790521D01*
X45077Y790278D01*
X44053Y790066D01*
X43187Y789794D01*
X42478Y789460D01*
X41927Y789067D01*
X41534Y788612D01*
X41297Y788097D01*
X41219Y787521D01*
Y802362D01*
X41297Y801614D01*
X41534Y800945D01*
X41927Y800354D01*
X42478Y799842D01*
X43187Y799409D01*
X44053Y799055D01*
X45077Y798779D01*
X46258Y798583D01*
X47597Y798465D01*
X48032Y798453D01*
X48467Y798465D01*
X49805Y798583D01*
X50986Y798779D01*
X52010Y799055D01*
X52876Y799409D01*
X53585Y799842D01*
X54136Y800354D01*
X54529Y800945D01*
X54766Y801614D01*
X54844Y802362D01*
Y786614D01*
D02*
G37*
G36*
X-206260Y787168D02*
X-206929Y786928D01*
X-207520Y786528D01*
X-208032Y785969D01*
X-208465Y785249D01*
X-208819Y784370D01*
X-209095Y783331D01*
X-209291Y782132D01*
X-209410Y780773D01*
X-209449Y779254D01*
X-217323D01*
X-217362Y780773D01*
X-217480Y782132D01*
X-217677Y783331D01*
X-217953Y784370D01*
X-218307Y785249D01*
X-218740Y785969D01*
X-219252Y786528D01*
X-219843Y786928D01*
X-220512Y787168D01*
X-221260Y787248D01*
X-205512D01*
X-206260Y787168D01*
D02*
G37*
G36*
X-209410Y774368D02*
X-209291Y773030D01*
X-209095Y771848D01*
X-208819Y770825D01*
X-208465Y769959D01*
X-208032Y769250D01*
X-207520Y768699D01*
X-206929Y768305D01*
X-206260Y768069D01*
X-205512Y767990D01*
X-221260D01*
X-220512Y768069D01*
X-219843Y768305D01*
X-219252Y768699D01*
X-218740Y769250D01*
X-218307Y769959D01*
X-217953Y770825D01*
X-217677Y771848D01*
X-217480Y773030D01*
X-217362Y774368D01*
X-217323Y775864D01*
X-209449D01*
X-209410Y774368D01*
D02*
G37*
G36*
X-54766Y767756D02*
X-54529Y767087D01*
X-54136Y766496D01*
X-53585Y765984D01*
X-52876Y765551D01*
X-52010Y765197D01*
X-50986Y764921D01*
X-49805Y764724D01*
X-48467Y764606D01*
X-47893Y764591D01*
X-47596Y764597D01*
X-45077Y764840D01*
X-44053Y765052D01*
X-43187Y765324D01*
X-42478Y765658D01*
X-41927Y766051D01*
X-41533Y766506D01*
X-41297Y767021D01*
X-41218Y767596D01*
X-41099Y752756D01*
X-41184Y753504D01*
X-41428Y754173D01*
X-41831Y754764D01*
X-42393Y755276D01*
X-43113Y755709D01*
X-43992Y756063D01*
X-45029Y756339D01*
X-46225Y756535D01*
X-47579Y756654D01*
X-48026Y756665D01*
X-48467Y756654D01*
X-49805Y756535D01*
X-50986Y756339D01*
X-52010Y756063D01*
X-52876Y755709D01*
X-53585Y755276D01*
X-54136Y754764D01*
X-54529Y754173D01*
X-54766Y753504D01*
X-54844Y752756D01*
Y768504D01*
X-54766Y767756D01*
D02*
G37*
%LPC*%
G36*
X-299016Y1362599D02*
X-308268D01*
Y1352362D01*
X-299016D01*
Y1362599D01*
D02*
G37*
G36*
X-316142D02*
X-325394D01*
Y1352362D01*
X-316142D01*
Y1362599D01*
D02*
G37*
G36*
X-299016Y1344488D02*
X-308268D01*
Y1334252D01*
X-299016D01*
Y1344488D01*
D02*
G37*
G36*
X-316142D02*
X-325394D01*
Y1334252D01*
X-316142D01*
Y1344488D01*
D02*
G37*
G36*
X-299016Y1323228D02*
X-308268D01*
Y1312992D01*
X-299016D01*
Y1323228D01*
D02*
G37*
G36*
X-316142D02*
X-325394D01*
Y1312992D01*
X-316142D01*
Y1323228D01*
D02*
G37*
G36*
X-299016Y1305118D02*
X-308268D01*
Y1294882D01*
X-299016D01*
Y1305118D01*
D02*
G37*
G36*
X-316142D02*
X-325394D01*
Y1294882D01*
X-316142D01*
Y1305118D01*
D02*
G37*
G36*
X-299016Y1283858D02*
X-308268D01*
Y1273622D01*
X-299016D01*
Y1283858D01*
D02*
G37*
G36*
X-316142D02*
X-325394D01*
Y1273622D01*
X-316142D01*
Y1283858D01*
D02*
G37*
G36*
X-299016Y1265748D02*
X-308268D01*
Y1255512D01*
X-299016D01*
Y1265748D01*
D02*
G37*
G36*
X-316142D02*
X-325394D01*
Y1255512D01*
X-316142D01*
Y1265748D01*
D02*
G37*
G36*
X-98425Y1071850D02*
X-112205D01*
Y1066929D01*
X-98425D01*
Y1071850D01*
D02*
G37*
G36*
X-86614Y591457D02*
X-133858D01*
Y587712D01*
X-133989D01*
X-137829Y586949D01*
X-141085Y584773D01*
X-143450Y582408D01*
X-145424D01*
X-147576Y583846D01*
X-152953Y584916D01*
X-158329Y583846D01*
X-161940Y581433D01*
X-162067Y581390D01*
X-162165Y581406D01*
X-163104Y581770D01*
X-164009Y582362D01*
X-166732Y584598D01*
X-166732Y585040D01*
X-170790Y585244D01*
X-170938Y585182D01*
X-171412Y585198D01*
X-171677Y585039D01*
X-193110D01*
Y556693D01*
X-171732D01*
X-171677Y556693D01*
X-171412Y556534D01*
X-170938Y556550D01*
X-170790Y556488D01*
X-166732Y556693D01*
Y557485D01*
X-165944Y558077D01*
X-163085Y559970D01*
X-162165Y560326D01*
X-162067Y560342D01*
X-161940Y560299D01*
X-158329Y557886D01*
X-152953Y556817D01*
X-147576Y557886D01*
X-143018Y560932D01*
X-137698Y561413D01*
X-134370Y558582D01*
X-110236D01*
X-86614D01*
Y566457D01*
X-86614Y566457D01*
Y567835D01*
X-86614D01*
X-86614Y571457D01*
Y591457D01*
D02*
G37*
G36*
X-200591Y585039D02*
X-209843D01*
Y574803D01*
X-200591D01*
Y585039D01*
D02*
G37*
G36*
X-217716D02*
X-226968D01*
Y574803D01*
X-217716D01*
Y585039D01*
D02*
G37*
G36*
X-200591Y566929D02*
X-209843D01*
Y556693D01*
X-200591D01*
Y566929D01*
D02*
G37*
G36*
X-217716D02*
X-226968D01*
Y556693D01*
X-217716D01*
Y566929D01*
D02*
G37*
G36*
X61024Y593695D02*
X55647Y592626D01*
X51089Y589580D01*
X48044Y585022D01*
X46974Y579646D01*
X48044Y574269D01*
X51089Y569711D01*
X49557Y568291D01*
X48251Y567419D01*
X44335Y561558D01*
X42960Y554646D01*
X44335Y547733D01*
X47661Y542756D01*
X48251Y541873D01*
X48954Y536376D01*
X48061Y535040D01*
X46992Y529663D01*
X48061Y524287D01*
X50711Y520321D01*
X51224Y518375D01*
Y515890D01*
X50704Y513984D01*
X48044Y510002D01*
X46974Y504626D01*
X48044Y499250D01*
X51089Y494692D01*
X51202Y494616D01*
Y489616D01*
X51089Y489541D01*
X48044Y484983D01*
X46974Y479606D01*
X48044Y474230D01*
X51089Y469672D01*
X51187Y469606D01*
Y464606D01*
X51089Y464541D01*
X48044Y459983D01*
X46974Y454606D01*
X48044Y449230D01*
X51089Y444672D01*
X49557Y443252D01*
X48251Y442379D01*
X44335Y436519D01*
X42960Y429606D01*
X44335Y422694D01*
X48251Y416833D01*
X54111Y412918D01*
X61024Y411543D01*
X67936Y412918D01*
X73796Y416833D01*
X74133Y417337D01*
X74149Y417346D01*
X74292Y417406D01*
X74484Y417469D01*
X74738Y417531D01*
X74939Y417564D01*
X82677D01*
Y388858D01*
X137795D01*
Y413858D01*
Y445354D01*
X133858D01*
Y466417D01*
X133858D01*
Y467796D01*
X133858D01*
Y491417D01*
X133858D01*
Y492815D01*
X133858D01*
Y516437D01*
X133858D01*
Y517835D01*
X133858D01*
Y538898D01*
X137795D01*
Y540714D01*
X196653D01*
X196654Y540713D01*
X201262Y541630D01*
X205169Y544241D01*
X211791Y550863D01*
X213043Y552028D01*
X213947Y552756D01*
X230905D01*
Y588976D01*
X196654D01*
Y588556D01*
X193110Y585039D01*
X171732D01*
X171677Y585040D01*
X171412Y585198D01*
X170938Y585182D01*
X170790Y585244D01*
X166732Y585040D01*
Y582769D01*
X166732Y582769D01*
Y582768D01*
X162250Y581184D01*
X160993Y581072D01*
X158899Y581032D01*
X158599Y580902D01*
X156873D01*
X151033Y586742D01*
X147778Y588917D01*
X143937Y589681D01*
X141988D01*
X141686Y589812D01*
X137538Y589884D01*
X134467Y590090D01*
X133858Y590168D01*
X133858Y591457D01*
X129801Y591661D01*
X129308Y591457D01*
X128858Y591457D01*
X91614D01*
X91165Y591457D01*
X90671Y591661D01*
X86614Y591457D01*
Y590210D01*
X80945Y589830D01*
X78825Y589812D01*
X78515Y589681D01*
X75150D01*
X74841Y589812D01*
X73800Y589822D01*
X72070Y589892D01*
X70802Y590022D01*
X70459Y590081D01*
X70264Y590128D01*
X70186Y590167D01*
X70138Y590170D01*
X70011Y590213D01*
X66400Y592626D01*
X61024Y593695D01*
D02*
G37*
G36*
X-86614Y550708D02*
X-110236D01*
X-133858D01*
X-133858Y543700D01*
X-133947Y542683D01*
X-136219Y538812D01*
X-136415Y538794D01*
X-137757Y538769D01*
X-138145Y538599D01*
X-162426D01*
X-162805Y538768D01*
X-164195Y538804D01*
X-165264Y538897D01*
X-166099Y539034D01*
X-166683Y539189D01*
X-166732Y539209D01*
Y545669D01*
X-193110D01*
Y517323D01*
X-188592D01*
X-188534Y517179D01*
X-188382Y516615D01*
X-188246Y515803D01*
X-188154Y514758D01*
X-188118Y513394D01*
X-187950Y513015D01*
Y510606D01*
X-188118Y510227D01*
X-188154Y508837D01*
X-188247Y507768D01*
X-188384Y506933D01*
X-188539Y506348D01*
X-188559Y506299D01*
X-193110D01*
Y477953D01*
X-166732D01*
Y506299D01*
X-171284D01*
X-171303Y506348D01*
X-171458Y506933D01*
X-171595Y507768D01*
X-171688Y508837D01*
X-171724Y510227D01*
X-171893Y510606D01*
Y513015D01*
X-171724Y513394D01*
X-171689Y514758D01*
X-171596Y515803D01*
X-171461Y516615D01*
X-171309Y517179D01*
X-171250Y517323D01*
X-166732D01*
Y521933D01*
X-166684Y521953D01*
X-166099Y522108D01*
X-165263Y522245D01*
X-164195Y522338D01*
X-162805Y522374D01*
X-162426Y522543D01*
X-138603D01*
X-133858Y520869D01*
X-133858Y517835D01*
X-134486Y513095D01*
X-134539Y513081D01*
X-135363Y512948D01*
X-136416Y512858D01*
X-137784Y512823D01*
X-138164Y512654D01*
X-145812D01*
X-145813Y512654D01*
X-148885Y512043D01*
X-151490Y510303D01*
X-151490Y510303D01*
X-158409Y503384D01*
X-160149Y500779D01*
X-160760Y497707D01*
Y468083D01*
X-163251Y466030D01*
X-166732Y466929D01*
Y466929D01*
X-193110D01*
Y438583D01*
X-188592D01*
X-188534Y438439D01*
X-188382Y437875D01*
X-188246Y437062D01*
X-188154Y436018D01*
X-188118Y434654D01*
X-187950Y434275D01*
Y431866D01*
X-188118Y431487D01*
X-188154Y430097D01*
X-188247Y429028D01*
X-188384Y428193D01*
X-188539Y427608D01*
X-188559Y427559D01*
X-193110D01*
Y399213D01*
X-166732D01*
Y427559D01*
X-171284D01*
X-171303Y427608D01*
X-171458Y428192D01*
X-171595Y429028D01*
X-171688Y430097D01*
X-171724Y431487D01*
X-171893Y431866D01*
Y434275D01*
X-171724Y434654D01*
X-171689Y436018D01*
X-171596Y437062D01*
X-171461Y437875D01*
X-171309Y438439D01*
X-171250Y438583D01*
X-166732D01*
Y444118D01*
X-166684Y444138D01*
X-166099Y444293D01*
X-165263Y444430D01*
X-164195Y444523D01*
X-162805Y444559D01*
X-162426Y444728D01*
X-159651D01*
X-156578Y445339D01*
X-153974Y447079D01*
X-147055Y453998D01*
X-147055Y453998D01*
X-145315Y456602D01*
X-144703Y459675D01*
X-144703Y459675D01*
Y494382D01*
X-142488Y496598D01*
X-138164D01*
X-137784Y496429D01*
X-136416Y496394D01*
X-135363Y496304D01*
X-134539Y496171D01*
X-134486Y496157D01*
X-133858Y491417D01*
X-133858Y490135D01*
Y467796D01*
X-133858D01*
Y466417D01*
X-133858D01*
Y446417D01*
X-133858Y442795D01*
X-133858Y437795D01*
Y433543D01*
X-110236D01*
X-86614D01*
Y437795D01*
X-86614Y441357D01*
X-86612Y441429D01*
X-85957Y446145D01*
X-85933Y446151D01*
X-85109Y446284D01*
X-84057Y446374D01*
X-82688Y446409D01*
X-82309Y446578D01*
X-76452D01*
X-76078Y446410D01*
X-75235Y446384D01*
X-74580Y446322D01*
X-73987Y446225D01*
X-73452Y446095D01*
X-72969Y445937D01*
X-72533Y445752D01*
X-72136Y445543D01*
X-71770Y445305D01*
X-71426Y445036D01*
X-70963Y444604D01*
X-70720Y444513D01*
X-66400Y441626D01*
X-61024Y440557D01*
X-55647Y441626D01*
X-51089Y444672D01*
X-48044Y449230D01*
X-46974Y454606D01*
X-48044Y459983D01*
X-51089Y464541D01*
X-51187Y464606D01*
Y469606D01*
X-51089Y469672D01*
X-48044Y474230D01*
X-46974Y479606D01*
X-48044Y484983D01*
X-51089Y489541D01*
X-51202Y489616D01*
Y494616D01*
X-51089Y494692D01*
X-48044Y499250D01*
X-46974Y504626D01*
X-48044Y510002D01*
X-51089Y514561D01*
X-51202Y514636D01*
Y519636D01*
X-51089Y519711D01*
X-48044Y524269D01*
X-46974Y529646D01*
X-48044Y535022D01*
X-51089Y539580D01*
X-55647Y542626D01*
X-61024Y543695D01*
X-66400Y542626D01*
X-70720Y539739D01*
X-70963Y539648D01*
X-71426Y539215D01*
X-71769Y538947D01*
X-72136Y538709D01*
X-72533Y538500D01*
X-72970Y538315D01*
X-73453Y538157D01*
X-73987Y538027D01*
X-74580Y537929D01*
X-75235Y537868D01*
X-76078Y537842D01*
X-76452Y537674D01*
X-82309D01*
X-82688Y537843D01*
X-84057Y537878D01*
X-85109Y537968D01*
X-85933Y538101D01*
X-85957Y538107D01*
X-86612Y542823D01*
X-86614Y542895D01*
X-86614Y546457D01*
Y550708D01*
D02*
G37*
G36*
X-200591Y545669D02*
X-209843D01*
Y535433D01*
X-200591D01*
Y545669D01*
D02*
G37*
G36*
X-217716D02*
X-226968D01*
Y535433D01*
X-217716D01*
Y545669D01*
D02*
G37*
G36*
X-200591Y527559D02*
X-209843D01*
Y517323D01*
X-200591D01*
Y527559D01*
D02*
G37*
G36*
X-217716D02*
X-226968D01*
Y517323D01*
X-217716D01*
Y527559D01*
D02*
G37*
G36*
X189764Y530528D02*
X186691Y529917D01*
X184087Y528177D01*
X182347Y525572D01*
X181736Y522500D01*
X182347Y519428D01*
X184087Y516823D01*
X186691Y515083D01*
X189764Y514472D01*
X192836Y515083D01*
X195441Y516823D01*
X197181Y519428D01*
X197792Y522500D01*
X197181Y525572D01*
X195441Y528177D01*
X192836Y529917D01*
X189764Y530528D01*
D02*
G37*
G36*
X-200591Y506299D02*
X-209843D01*
Y496063D01*
X-200591D01*
Y506299D01*
D02*
G37*
G36*
X-217716D02*
X-226968D01*
Y496063D01*
X-217716D01*
Y506299D01*
D02*
G37*
G36*
X-200591Y488189D02*
X-209843D01*
Y477953D01*
X-200591D01*
Y488189D01*
D02*
G37*
G36*
X-217716D02*
X-226968D01*
Y477953D01*
X-217716D01*
Y488189D01*
D02*
G37*
G36*
X-200591Y466929D02*
X-209843D01*
Y456693D01*
X-200591D01*
Y466929D01*
D02*
G37*
G36*
X-217716D02*
X-226968D01*
Y456693D01*
X-217716D01*
Y466929D01*
D02*
G37*
G36*
X-200591Y448819D02*
X-209843D01*
Y438583D01*
X-200591D01*
Y448819D01*
D02*
G37*
G36*
X-217716D02*
X-226968D01*
Y438583D01*
X-217716D01*
Y448819D01*
D02*
G37*
G36*
X-200591Y427559D02*
X-209843D01*
Y417323D01*
X-200591D01*
Y427559D01*
D02*
G37*
G36*
X-217716D02*
X-226968D01*
Y417323D01*
X-217716D01*
Y427559D01*
D02*
G37*
G36*
X-86614Y425670D02*
X-110236D01*
X-133858D01*
Y417795D01*
X-133858Y412795D01*
Y408543D01*
X-110236D01*
X-86614D01*
Y412795D01*
X-86614Y416417D01*
X-86614Y421417D01*
Y425670D01*
D02*
G37*
G36*
X-200591Y409449D02*
X-209843D01*
Y399213D01*
X-200591D01*
Y409449D01*
D02*
G37*
G36*
X-217716D02*
X-226968D01*
Y399213D01*
X-217716D01*
Y409449D01*
D02*
G37*
G36*
X-86614Y400670D02*
X-106299D01*
Y392795D01*
X-86614D01*
Y400670D01*
D02*
G37*
G36*
X-114173D02*
X-133858D01*
Y392795D01*
X-114173D01*
Y400670D01*
D02*
G37*
%LPD*%
G36*
X-170671Y580182D02*
X-170317Y579466D01*
X-169726Y578835D01*
X-168900Y578288D01*
X-167837Y577824D01*
X-166537Y577445D01*
X-165002Y577151D01*
X-163253Y576943D01*
X-162152Y577018D01*
X-161525Y577126D01*
X-160994Y577254D01*
X-160560Y577402D01*
X-160223Y577569D01*
X-159982Y577756D01*
Y576790D01*
X-158978Y576772D01*
Y564961D01*
X-159982Y564942D01*
Y563976D01*
X-160223Y564163D01*
X-160560Y564331D01*
X-160994Y564478D01*
X-161525Y564606D01*
X-162152Y564715D01*
X-162785Y564779D01*
X-165002Y564582D01*
X-166537Y564287D01*
X-167837Y563908D01*
X-168900Y563445D01*
X-169726Y562898D01*
X-170317Y562266D01*
X-170671Y561550D01*
X-170789Y560750D01*
Y580982D01*
X-170671Y580182D01*
D02*
G37*
G36*
X68294Y586348D02*
X68631Y586181D01*
X69065Y586034D01*
X69596Y585905D01*
X70223Y585797D01*
X71766Y585640D01*
X73694Y585561D01*
X74803Y585551D01*
Y573740D01*
X73694Y573730D01*
X70223Y573494D01*
X69596Y573386D01*
X69065Y573258D01*
X68631Y573110D01*
X68294Y572943D01*
X68053Y572756D01*
Y586535D01*
X68294Y586348D01*
D02*
G37*
G36*
X129919Y587048D02*
X130274Y586734D01*
X130864Y586457D01*
X131691Y586217D01*
X132754Y586013D01*
X134053Y585847D01*
X137360Y585625D01*
X141612Y585551D01*
Y573740D01*
X139368Y573722D01*
X132754Y573278D01*
X131691Y573075D01*
X130864Y572834D01*
X130274Y572557D01*
X129919Y572243D01*
X129801Y571892D01*
Y587400D01*
X129919Y587048D01*
D02*
G37*
G36*
X90671Y571892D02*
X90553Y572243D01*
X90199Y572557D01*
X89608Y572834D01*
X88781Y573075D01*
X87718Y573278D01*
X86419Y573444D01*
X83112Y573666D01*
X78860Y573740D01*
Y585551D01*
X81104Y585570D01*
X87718Y586013D01*
X88781Y586217D01*
X89608Y586457D01*
X90199Y586734D01*
X90553Y587048D01*
X90671Y587400D01*
Y571892D01*
D02*
G37*
G36*
X215783Y560870D02*
X215181Y561303D01*
X214466Y561514D01*
X213637Y561502D01*
X212694Y561267D01*
X211637Y560810D01*
X210467Y560130D01*
X209183Y559227D01*
X207785Y558101D01*
X204648Y555182D01*
X199080Y560750D01*
X200651Y562375D01*
X203125Y565285D01*
X204028Y566569D01*
X204708Y567740D01*
X205165Y568796D01*
X205400Y569739D01*
X205412Y570568D01*
X205201Y571284D01*
X204768Y571885D01*
X215783Y560870D01*
D02*
G37*
G36*
X170789Y560750D02*
X170671Y561550D01*
X170317Y562266D01*
X169726Y562898D01*
X168900Y563445D01*
X167837Y563908D01*
X166537Y564287D01*
X165002Y564582D01*
X163230Y564792D01*
X161222Y564919D01*
X158978Y564961D01*
Y576772D01*
X161222Y576814D01*
X165002Y577151D01*
X166537Y577445D01*
X167837Y577824D01*
X168900Y578288D01*
X169726Y578835D01*
X170317Y579466D01*
X170671Y580182D01*
X170789Y580982D01*
Y560750D01*
D02*
G37*
G36*
X68653Y560974D02*
X69295Y560472D01*
X69979Y560029D01*
X70705Y559646D01*
X71474Y559321D01*
X72285Y559055D01*
X73138Y558848D01*
X74033Y558701D01*
X74970Y558612D01*
X75950Y558583D01*
Y550709D01*
X74970Y550679D01*
X74033Y550591D01*
X73138Y550443D01*
X72285Y550236D01*
X71474Y549971D01*
X70705Y549646D01*
X69979Y549262D01*
X69295Y548819D01*
X68653Y548317D01*
X68053Y547756D01*
Y561535D01*
X68653Y560974D01*
D02*
G37*
G36*
X129767Y559882D02*
X130012Y559213D01*
X130415Y558622D01*
X130977Y558110D01*
X131697Y557677D01*
X132576Y557323D01*
X133613Y557047D01*
X134808Y556851D01*
X136162Y556732D01*
X137675Y556693D01*
Y548819D01*
X136179Y548800D01*
X132636Y548511D01*
X131770Y548337D01*
X131061Y548125D01*
X130510Y547875D01*
X130116Y547586D01*
X129880Y547258D01*
X129801Y546892D01*
X129681Y560630D01*
X129767Y559882D01*
D02*
G37*
G36*
X90671Y546892D02*
X90593Y547617D01*
X90356Y548266D01*
X89963Y548838D01*
X89411Y549335D01*
X88703Y549754D01*
X87837Y550098D01*
X86813Y550365D01*
X85632Y550556D01*
X84293Y550670D01*
X82797Y550709D01*
Y558583D01*
X84293Y558621D01*
X85632Y558735D01*
X86813Y558926D01*
X87837Y559193D01*
X88703Y559537D01*
X89411Y559957D01*
X89963Y560453D01*
X90356Y561026D01*
X90593Y561674D01*
X90671Y562400D01*
Y546892D01*
D02*
G37*
G36*
X68676Y535985D02*
X69317Y535483D01*
X70001Y535040D01*
X70728Y534655D01*
X71496Y534330D01*
X72306Y534064D01*
X73159Y533857D01*
X74054Y533710D01*
X74992Y533621D01*
X75971Y533591D01*
X75964Y525717D01*
X74984Y525688D01*
X74047Y525600D01*
X73152Y525452D01*
X72298Y525245D01*
X71487Y524980D01*
X70719Y524655D01*
X69992Y524272D01*
X69307Y523829D01*
X68664Y523328D01*
X68064Y522767D01*
X68076Y536547D01*
X68676Y535985D01*
D02*
G37*
G36*
X90671Y521892D02*
X90593Y522619D01*
X90356Y523269D01*
X89963Y523843D01*
X89411Y524340D01*
X88703Y524761D01*
X87837Y525105D01*
X86813Y525373D01*
X85632Y525564D01*
X84293Y525679D01*
X82797Y525717D01*
Y533591D01*
X84293Y533630D01*
X85632Y533744D01*
X86813Y533934D01*
X87837Y534201D01*
X88703Y534544D01*
X89411Y534962D01*
X89963Y535457D01*
X90356Y536029D01*
X90593Y536676D01*
X90671Y537400D01*
Y521892D01*
D02*
G37*
G36*
X68653Y510955D02*
X69295Y510453D01*
X69979Y510010D01*
X70705Y509626D01*
X71474Y509301D01*
X72285Y509035D01*
X73138Y508829D01*
X74033Y508681D01*
X74970Y508592D01*
X75950Y508563D01*
Y500689D01*
X74970Y500659D01*
X74033Y500571D01*
X73138Y500423D01*
X72285Y500217D01*
X71474Y499951D01*
X70705Y499626D01*
X69979Y499242D01*
X69295Y498799D01*
X68653Y498297D01*
X68053Y497736D01*
Y511516D01*
X68653Y510955D01*
D02*
G37*
G36*
X90671Y496872D02*
X90593Y497597D01*
X90356Y498246D01*
X89963Y498819D01*
X89411Y499315D01*
X88703Y499735D01*
X87837Y500078D01*
X86813Y500346D01*
X85632Y500536D01*
X84293Y500651D01*
X82797Y500689D01*
Y508563D01*
X84293Y508601D01*
X85632Y508716D01*
X86813Y508906D01*
X87837Y509174D01*
X88703Y509517D01*
X89411Y509937D01*
X89963Y510433D01*
X90356Y511006D01*
X90593Y511655D01*
X90671Y512380D01*
Y496872D01*
D02*
G37*
G36*
X68653Y485935D02*
X69295Y485433D01*
X69979Y484990D01*
X70705Y484606D01*
X71474Y484281D01*
X72285Y484016D01*
X73138Y483809D01*
X74033Y483661D01*
X74970Y483573D01*
X75950Y483543D01*
Y475669D01*
X74970Y475640D01*
X74033Y475551D01*
X73138Y475404D01*
X72285Y475197D01*
X71474Y474931D01*
X70705Y474606D01*
X69979Y474223D01*
X69295Y473779D01*
X68653Y473278D01*
X68053Y472717D01*
Y486496D01*
X68653Y485935D01*
D02*
G37*
G36*
X90671Y471852D02*
X90593Y472577D01*
X90356Y473226D01*
X89963Y473799D01*
X89411Y474295D01*
X88703Y474715D01*
X87837Y475059D01*
X86813Y475326D01*
X85632Y475517D01*
X84293Y475631D01*
X82797Y475669D01*
Y483543D01*
X84293Y483582D01*
X85632Y483696D01*
X86813Y483887D01*
X87837Y484154D01*
X88703Y484498D01*
X89411Y484917D01*
X89963Y485414D01*
X90356Y485986D01*
X90593Y486635D01*
X90671Y487360D01*
Y471852D01*
D02*
G37*
G36*
X68653Y460935D02*
X69295Y460433D01*
X69979Y459990D01*
X70705Y459606D01*
X71474Y459281D01*
X72285Y459016D01*
X73138Y458809D01*
X74033Y458661D01*
X74970Y458573D01*
X75950Y458543D01*
Y450669D01*
X74970Y450640D01*
X74033Y450551D01*
X73138Y450404D01*
X72285Y450197D01*
X71474Y449931D01*
X70705Y449606D01*
X69979Y449223D01*
X69295Y448779D01*
X68653Y448278D01*
X68053Y447717D01*
Y461496D01*
X68653Y460935D01*
D02*
G37*
G36*
X90671Y446852D02*
X90593Y447577D01*
X90356Y448226D01*
X89963Y448799D01*
X89411Y449295D01*
X88703Y449715D01*
X87837Y450059D01*
X86813Y450326D01*
X85632Y450517D01*
X84293Y450631D01*
X82797Y450669D01*
Y458543D01*
X84293Y458582D01*
X85632Y458696D01*
X86813Y458887D01*
X87837Y459154D01*
X88703Y459498D01*
X89411Y459917D01*
X89963Y460414D01*
X90356Y460986D01*
X90593Y461635D01*
X90671Y462360D01*
Y446852D01*
D02*
G37*
G36*
X68653Y435935D02*
X69295Y435433D01*
X69979Y434990D01*
X70705Y434606D01*
X71474Y434281D01*
X72285Y434016D01*
X73138Y433809D01*
X74033Y433661D01*
X74970Y433573D01*
X75950Y433543D01*
Y425669D01*
X74970Y425640D01*
X74033Y425551D01*
X73138Y425404D01*
X72285Y425197D01*
X71474Y424931D01*
X70705Y424606D01*
X69979Y424223D01*
X69295Y423779D01*
X68653Y423278D01*
X68053Y422717D01*
Y436496D01*
X68653Y435935D01*
D02*
G37*
G36*
X90671Y421852D02*
X90593Y422577D01*
X90356Y423226D01*
X89963Y423799D01*
X89411Y424295D01*
X88703Y424715D01*
X87837Y425059D01*
X86813Y425326D01*
X85632Y425517D01*
X84293Y425631D01*
X82797Y425669D01*
Y433543D01*
X84293Y433582D01*
X85632Y433696D01*
X86813Y433887D01*
X87837Y434154D01*
X88703Y434498D01*
X89411Y434917D01*
X89963Y435414D01*
X90356Y435986D01*
X90593Y436635D01*
X90671Y437360D01*
Y421852D01*
D02*
G37*
G36*
X117362Y421892D02*
X116693Y421652D01*
X116102Y421253D01*
X115591Y420693D01*
X115157Y419974D01*
X114803Y419094D01*
X114528Y418055D01*
X114376Y417130D01*
X114528Y416219D01*
X114803Y415195D01*
X115157Y414329D01*
X115591Y413620D01*
X116102Y413069D01*
X116693Y412675D01*
X117362Y412439D01*
X118110Y412360D01*
X102362D01*
X103110Y412439D01*
X103779Y412675D01*
X104370Y413069D01*
X104882Y413620D01*
X105315Y414329D01*
X105669Y415195D01*
X105945Y416219D01*
X106097Y417130D01*
X105945Y418055D01*
X105669Y419094D01*
X105315Y419974D01*
X104882Y420693D01*
X104370Y421253D01*
X103779Y421652D01*
X103110Y421892D01*
X102362Y421972D01*
X118110D01*
X117362Y421892D01*
D02*
G37*
G36*
X-68053Y522756D02*
X-68653Y523317D01*
X-69295Y523819D01*
X-69979Y524262D01*
X-70705Y524646D01*
X-71474Y524971D01*
X-72285Y525236D01*
X-73138Y525443D01*
X-74033Y525591D01*
X-74970Y525679D01*
X-75950Y525709D01*
Y533583D01*
X-74970Y533612D01*
X-74033Y533701D01*
X-73138Y533848D01*
X-72285Y534055D01*
X-71474Y534321D01*
X-70705Y534646D01*
X-69979Y535029D01*
X-69295Y535472D01*
X-68653Y535974D01*
X-68053Y536535D01*
Y522756D01*
D02*
G37*
G36*
X-129681Y522697D02*
X-129767Y523445D01*
X-130011Y524114D01*
X-130414Y524705D01*
X-130976Y525217D01*
X-131696Y525650D01*
X-132575Y526004D01*
X-133612Y526280D01*
X-134808Y526476D01*
X-136162Y526595D01*
X-137675Y526634D01*
Y534508D01*
X-136179Y534537D01*
X-133660Y534768D01*
X-132636Y534971D01*
X-131770Y535231D01*
X-131061Y535549D01*
X-130510Y535925D01*
X-130116Y536359D01*
X-129880Y536850D01*
X-129801Y537400D01*
X-129681Y522697D01*
D02*
G37*
G36*
X-170829Y537697D02*
X-170590Y537028D01*
X-170190Y536437D01*
X-169630Y535925D01*
X-168911Y535492D01*
X-168032Y535138D01*
X-166992Y534862D01*
X-165793Y534665D01*
X-164434Y534547D01*
X-162915Y534508D01*
Y526634D01*
X-164434Y526595D01*
X-165793Y526476D01*
X-166992Y526280D01*
X-168032Y526004D01*
X-168911Y525650D01*
X-169630Y525217D01*
X-170190Y524705D01*
X-170590Y524114D01*
X-170829Y523445D01*
X-170909Y522697D01*
Y538445D01*
X-170829Y537697D01*
D02*
G37*
G36*
X-90593Y536674D02*
X-90356Y536026D01*
X-89963Y535453D01*
X-89411Y534957D01*
X-88703Y534537D01*
X-87837Y534193D01*
X-86813Y533926D01*
X-85632Y533735D01*
X-84293Y533621D01*
X-82797Y533583D01*
Y525709D01*
X-84293Y525670D01*
X-85632Y525556D01*
X-86813Y525365D01*
X-87837Y525098D01*
X-88703Y524754D01*
X-89411Y524335D01*
X-89963Y523838D01*
X-90356Y523266D01*
X-90593Y522617D01*
X-90671Y521892D01*
Y537400D01*
X-90593Y536674D01*
D02*
G37*
G36*
X-172795Y521301D02*
X-173465Y521065D01*
X-174055Y520671D01*
X-174567Y520120D01*
X-175000Y519411D01*
X-175354Y518545D01*
X-175630Y517522D01*
X-175827Y516341D01*
X-175945Y515002D01*
X-175984Y513506D01*
X-183858D01*
X-183898Y515002D01*
X-184016Y516341D01*
X-184213Y517522D01*
X-184488Y518545D01*
X-184843Y519411D01*
X-185276Y520120D01*
X-185787Y520671D01*
X-186378Y521065D01*
X-187047Y521301D01*
X-187795Y521380D01*
X-172047D01*
X-172795Y521301D01*
D02*
G37*
G36*
X-175945Y508597D02*
X-175827Y507238D01*
X-175630Y506039D01*
X-175354Y505000D01*
X-175000Y504121D01*
X-174567Y503401D01*
X-174055Y502842D01*
X-173465Y502442D01*
X-172795Y502202D01*
X-172047Y502122D01*
X-187795D01*
X-187047Y502202D01*
X-186378Y502442D01*
X-185787Y502842D01*
X-185276Y503401D01*
X-184843Y504121D01*
X-184488Y505000D01*
X-184213Y506039D01*
X-184016Y507238D01*
X-183898Y508597D01*
X-183858Y510116D01*
X-175984D01*
X-175945Y508597D01*
D02*
G37*
G36*
X-68053Y497736D02*
X-68653Y498297D01*
X-69295Y498799D01*
X-69979Y499242D01*
X-70705Y499626D01*
X-71474Y499951D01*
X-72285Y500217D01*
X-73138Y500423D01*
X-74033Y500571D01*
X-74970Y500659D01*
X-75950Y500689D01*
Y508563D01*
X-74970Y508592D01*
X-74033Y508681D01*
X-73138Y508829D01*
X-72285Y509035D01*
X-71474Y509301D01*
X-70705Y509626D01*
X-69979Y510010D01*
X-69295Y510453D01*
X-68653Y510955D01*
X-68053Y511516D01*
Y497736D01*
D02*
G37*
G36*
X-90593Y511655D02*
X-90356Y511006D01*
X-89963Y510433D01*
X-89411Y509937D01*
X-88703Y509517D01*
X-87837Y509174D01*
X-86813Y508906D01*
X-85632Y508716D01*
X-84293Y508601D01*
X-82797Y508563D01*
Y500689D01*
X-84293Y500651D01*
X-85632Y500536D01*
X-86813Y500346D01*
X-87837Y500078D01*
X-88703Y499735D01*
X-89411Y499315D01*
X-89963Y498819D01*
X-90356Y498246D01*
X-90593Y497597D01*
X-90671Y496872D01*
Y512380D01*
X-90593Y511655D01*
D02*
G37*
G36*
X-129801Y496872D02*
X-129880Y497597D01*
X-130116Y498246D01*
X-130510Y498819D01*
X-131061Y499315D01*
X-131770Y499735D01*
X-132636Y500078D01*
X-133660Y500346D01*
X-134841Y500536D01*
X-136179Y500651D01*
X-137675Y500689D01*
Y508563D01*
X-136179Y508601D01*
X-134841Y508716D01*
X-133660Y508906D01*
X-132636Y509174D01*
X-131770Y509517D01*
X-131061Y509937D01*
X-130510Y510433D01*
X-130116Y511006D01*
X-129880Y511655D01*
X-129801Y512380D01*
Y496872D01*
D02*
G37*
G36*
X-68053Y472717D02*
X-68653Y473278D01*
X-69295Y473779D01*
X-69979Y474223D01*
X-70705Y474606D01*
X-71474Y474931D01*
X-72285Y475197D01*
X-73138Y475404D01*
X-74033Y475551D01*
X-74970Y475640D01*
X-75950Y475669D01*
Y483543D01*
X-74970Y483573D01*
X-74033Y483661D01*
X-73138Y483809D01*
X-72285Y484016D01*
X-71474Y484281D01*
X-70705Y484606D01*
X-69979Y484990D01*
X-69295Y485433D01*
X-68653Y485935D01*
X-68053Y486496D01*
Y472717D01*
D02*
G37*
G36*
X-90593Y486635D02*
X-90356Y485986D01*
X-89963Y485414D01*
X-89411Y484917D01*
X-88703Y484498D01*
X-87837Y484154D01*
X-86813Y483887D01*
X-85632Y483696D01*
X-84293Y483582D01*
X-82797Y483543D01*
Y475669D01*
X-84293Y475631D01*
X-85632Y475517D01*
X-86813Y475326D01*
X-87837Y475059D01*
X-88703Y474715D01*
X-89411Y474295D01*
X-89963Y473799D01*
X-90356Y473226D01*
X-90593Y472577D01*
X-90671Y471852D01*
Y487360D01*
X-90593Y486635D01*
D02*
G37*
G36*
X-68053Y447717D02*
X-68653Y448278D01*
X-69295Y448779D01*
X-69979Y449223D01*
X-70705Y449606D01*
X-71474Y449931D01*
X-72285Y450197D01*
X-73138Y450404D01*
X-74033Y450551D01*
X-74970Y450640D01*
X-75950Y450669D01*
Y458543D01*
X-74970Y458573D01*
X-74033Y458661D01*
X-73138Y458809D01*
X-72285Y459016D01*
X-71474Y459281D01*
X-70705Y459606D01*
X-69979Y459990D01*
X-69295Y460433D01*
X-68653Y460935D01*
X-68053Y461496D01*
Y447717D01*
D02*
G37*
G36*
X-90593Y461635D02*
X-90356Y460986D01*
X-89963Y460414D01*
X-89411Y459917D01*
X-88703Y459498D01*
X-87837Y459154D01*
X-86813Y458887D01*
X-85632Y458696D01*
X-84293Y458582D01*
X-82797Y458543D01*
Y450669D01*
X-84293Y450631D01*
X-85632Y450517D01*
X-86813Y450326D01*
X-87837Y450059D01*
X-88703Y449715D01*
X-89411Y449295D01*
X-89963Y448799D01*
X-90356Y448226D01*
X-90593Y447577D01*
X-90671Y446852D01*
Y462360D01*
X-90593Y461635D01*
D02*
G37*
G36*
X-170829Y459882D02*
X-170590Y459213D01*
X-170190Y458622D01*
X-169630Y458110D01*
X-168911Y457677D01*
X-168032Y457323D01*
X-166992Y457047D01*
X-165793Y456850D01*
X-164434Y456732D01*
X-162915Y456693D01*
Y448819D01*
X-164434Y448779D01*
X-165793Y448661D01*
X-166992Y448465D01*
X-168032Y448189D01*
X-168911Y447835D01*
X-169630Y447402D01*
X-170190Y446890D01*
X-170590Y446299D01*
X-170829Y445630D01*
X-170909Y444882D01*
Y460630D01*
X-170829Y459882D01*
D02*
G37*
G36*
X-172795Y442561D02*
X-173465Y442325D01*
X-174055Y441931D01*
X-174567Y441380D01*
X-175000Y440671D01*
X-175354Y439805D01*
X-175630Y438781D01*
X-175827Y437600D01*
X-175945Y436262D01*
X-175984Y434766D01*
X-183858D01*
X-183898Y436262D01*
X-184016Y437600D01*
X-184213Y438781D01*
X-184488Y439805D01*
X-184843Y440671D01*
X-185276Y441380D01*
X-185787Y441931D01*
X-186378Y442325D01*
X-187047Y442561D01*
X-187795Y442640D01*
X-172047D01*
X-172795Y442561D01*
D02*
G37*
G36*
X-175945Y429857D02*
X-175827Y428498D01*
X-175630Y427299D01*
X-175354Y426260D01*
X-175000Y425381D01*
X-174567Y424661D01*
X-174055Y424102D01*
X-173465Y423702D01*
X-172795Y423462D01*
X-172047Y423382D01*
X-187795D01*
X-187047Y423462D01*
X-186378Y423702D01*
X-185787Y424102D01*
X-185276Y424661D01*
X-184843Y425381D01*
X-184488Y426260D01*
X-184213Y427299D01*
X-184016Y428498D01*
X-183898Y429857D01*
X-183858Y431376D01*
X-175984D01*
X-175945Y429857D01*
D02*
G37*
D11*
X-448819Y55118D02*
D03*
X-417323D02*
D03*
X-385827D02*
D03*
X-354331D02*
D03*
X-322835D02*
D03*
X-291339D02*
D03*
X-259842D02*
D03*
X-228346D02*
D03*
X-70866D02*
D03*
X-39370D02*
D03*
X-7874D02*
D03*
X23622D02*
D03*
X55118D02*
D03*
X86614D02*
D03*
X118110D02*
D03*
X149606D02*
D03*
X181102D02*
D03*
X212598D02*
D03*
X244095D02*
D03*
X275591D02*
D03*
X307087D02*
D03*
X338583D02*
D03*
X370079D02*
D03*
X401575D02*
D03*
X433071D02*
D03*
X464567D02*
D03*
D12*
X-278346Y1269685D02*
D03*
X-312205D02*
D03*
X81496Y1427165D02*
D03*
X115354D02*
D03*
X81496Y1348425D02*
D03*
X115354D02*
D03*
X179921D02*
D03*
X213780D02*
D03*
X278346D02*
D03*
X312205D02*
D03*
X-312205Y1309055D02*
D03*
X-278346D02*
D03*
X-213780D02*
D03*
X-179921D02*
D03*
X-115355Y1348425D02*
D03*
X-81496D02*
D03*
X-213780D02*
D03*
X-179922D02*
D03*
X-115355Y1309055D02*
D03*
X-81496D02*
D03*
X179921Y570866D02*
D03*
X213780D02*
D03*
X-179921D02*
D03*
X-213780D02*
D03*
X-179921Y492126D02*
D03*
X-213780D02*
D03*
X-312205Y1348425D02*
D03*
X-278347D02*
D03*
X312205Y1387795D02*
D03*
X278346D02*
D03*
X278346Y1309055D02*
D03*
X312204D02*
D03*
X179921Y1269685D02*
D03*
X213780D02*
D03*
X-213780Y413386D02*
D03*
X-179921D02*
D03*
X-247244Y1033465D02*
D03*
X-213386D02*
D03*
X278346Y1269685D02*
D03*
X312205D02*
D03*
X179921Y1309055D02*
D03*
X213780D02*
D03*
X-247244Y757874D02*
D03*
X-213386D02*
D03*
X-247244Y797244D02*
D03*
X-213386D02*
D03*
X115354Y1387795D02*
D03*
X81496D02*
D03*
X213780D02*
D03*
X179921D02*
D03*
X81496Y1269685D02*
D03*
X115354D02*
D03*
X81496Y1309055D02*
D03*
X115354D02*
D03*
X259055Y836614D02*
D03*
X225197D02*
D03*
X259055Y915354D02*
D03*
X225197D02*
D03*
Y875984D02*
D03*
X259055D02*
D03*
X-247244Y994094D02*
D03*
X-213386D02*
D03*
X259055Y757874D02*
D03*
X225197D02*
D03*
X-213386Y836614D02*
D03*
X-247244D02*
D03*
X225197Y994094D02*
D03*
X259055D02*
D03*
X-179921Y531496D02*
D03*
X-213780D02*
D03*
X225197Y1072835D02*
D03*
X259055D02*
D03*
X-247244Y954724D02*
D03*
X-213386D02*
D03*
X259055Y797244D02*
D03*
X225197D02*
D03*
X259055Y1033465D02*
D03*
X225197D02*
D03*
X259055Y954724D02*
D03*
X225197D02*
D03*
X-247244Y875984D02*
D03*
X-213386D02*
D03*
X-81496Y1269685D02*
D03*
X-115355D02*
D03*
X-213780D02*
D03*
X-179921D02*
D03*
X-213780Y452756D02*
D03*
X-179921D02*
D03*
X-213386Y1072835D02*
D03*
X-247244D02*
D03*
X115354Y1466535D02*
D03*
X81496D02*
D03*
X213780D02*
D03*
X179921D02*
D03*
X312205D02*
D03*
X278346D02*
D03*
X278347Y1427165D02*
D03*
X312205D02*
D03*
X179921D02*
D03*
X213780D02*
D03*
D13*
X-354331Y55118D02*
Y129095D01*
X259055Y757874D02*
Y1072835D01*
X-247244Y935039D02*
Y954724D01*
Y875984D02*
Y935039D01*
X-277165Y1072835D02*
X-247244D01*
X-133989Y577677D02*
X-112205D01*
X-139293Y572373D02*
X-133989Y577677D01*
X-152953Y570866D02*
X-151446Y572373D01*
X-112205Y577677D02*
X-110236Y579646D01*
X-151446Y572373D02*
X-139293D01*
X-7874Y55118D02*
Y129095D01*
X-39370Y55118D02*
Y129095D01*
X61024Y579646D02*
X110236D01*
X114559Y1265354D02*
X115354Y1266149D01*
X9842Y1144842D02*
X114559Y1249559D01*
Y1265354D01*
X9842Y1088583D02*
Y1144842D01*
X115354Y1266149D02*
Y1309055D01*
X49213Y1139213D02*
X69252Y1159252D01*
X29528Y1141799D02*
X62729Y1175000D01*
X180000D01*
X29528Y1088583D02*
Y1141799D01*
X69252Y1159252D02*
X264252D01*
X49213Y1088583D02*
Y1139213D01*
X312205Y1207205D02*
Y1269685D01*
X264252Y1159252D02*
X312205Y1207205D01*
X213780Y1208780D02*
Y1269685D01*
X180000Y1175000D02*
X213780Y1208780D01*
X-247244Y836614D02*
Y875984D01*
Y797244D02*
Y836614D01*
Y757874D02*
Y797244D01*
X259055Y757874D02*
X259055Y757874D01*
X143937Y579646D02*
X152717Y570866D01*
X110236Y579646D02*
X143937D01*
X152717Y570866D02*
X179921D01*
X-179921D02*
X-152953D01*
X86614Y55118D02*
Y129095D01*
X55118Y55118D02*
Y129095D01*
X312205Y1309055D02*
Y1348425D01*
Y1269685D02*
Y1309055D01*
X278346Y1348425D02*
Y1387795D01*
Y1462756D01*
X179921Y1348425D02*
Y1387795D01*
Y1462756D01*
X213780Y1269685D02*
Y1309055D01*
Y1348425D01*
X115354Y1309055D02*
Y1348425D01*
X81496Y1387795D02*
Y1462756D01*
Y1348425D02*
Y1387795D01*
X295276Y1546575D02*
Y1663386D01*
Y1546575D02*
X312205Y1529646D01*
Y1462756D02*
Y1529646D01*
X196850Y1546575D02*
Y1663386D01*
Y1546575D02*
X213780Y1529646D01*
Y1462756D02*
Y1529646D01*
X115354Y1462756D02*
Y1529646D01*
X98425Y1546575D02*
X115354Y1529646D01*
X98425Y1546575D02*
Y1663386D01*
X464567Y55118D02*
Y129095D01*
X370079Y55118D02*
Y129095D01*
X307087Y55118D02*
Y129095D01*
X23622Y55118D02*
Y129095D01*
X-70866Y55118D02*
Y129095D01*
X-228346Y55118D02*
Y129095D01*
D14*
X-295276Y1663386D02*
D03*
X-196850D02*
D03*
X-98425D02*
D03*
X0D02*
D03*
X98425D02*
D03*
X196850D02*
D03*
D15*
X295276D02*
D03*
D16*
X-476378Y1891732D02*
D03*
X476378D02*
D03*
D17*
X472440Y216536D02*
D03*
X393700D02*
D03*
X314960D02*
D03*
X236220D02*
D03*
X157480D02*
D03*
X78740D02*
D03*
X-157481D02*
D03*
X-236221D02*
D03*
X-314961D02*
D03*
X-393701D02*
D03*
X-472441D02*
D03*
X551181Y1318898D02*
D03*
Y1240158D02*
D03*
Y1161417D02*
D03*
Y1082677D02*
D03*
Y1003937D02*
D03*
Y925197D02*
D03*
Y846457D02*
D03*
Y767717D02*
D03*
Y688977D02*
D03*
Y610237D02*
D03*
Y531497D02*
D03*
Y452757D02*
D03*
Y374016D02*
D03*
Y295276D02*
D03*
Y216536D02*
D03*
X-551181D02*
D03*
Y295276D02*
D03*
Y374016D02*
D03*
Y452757D02*
D03*
Y531497D02*
D03*
Y610237D02*
D03*
Y688977D02*
D03*
Y767717D02*
D03*
Y846457D02*
D03*
Y925197D02*
D03*
Y1003937D02*
D03*
Y1082677D02*
D03*
Y1161417D02*
D03*
Y1240158D02*
D03*
Y1318898D02*
D03*
X-354331Y129095D02*
D03*
X-152953Y570866D02*
D03*
X204724Y935039D02*
D03*
X-213386Y915354D02*
D03*
X-277165Y1072835D02*
D03*
X61024Y554646D02*
D03*
X61041Y529663D02*
D03*
X61024Y504626D02*
D03*
X-314960Y942975D02*
D03*
Y1023622D02*
D03*
X-247244Y935039D02*
D03*
X-61024Y504626D02*
D03*
Y529646D02*
D03*
Y479606D02*
D03*
Y454606D02*
D03*
X-7874Y129095D02*
D03*
X-39370D02*
D03*
X259055Y895669D02*
D03*
X62992Y708662D02*
D03*
X65000Y825000D02*
D03*
X118110Y885315D02*
D03*
Y856299D02*
D03*
X137795Y816929D02*
D03*
X61024Y429606D02*
D03*
Y579646D02*
D03*
Y454606D02*
D03*
Y479606D02*
D03*
X-35000Y850394D02*
D03*
X-94488Y875984D02*
D03*
X-68898Y850394D02*
D03*
X-130000D02*
D03*
X-188976Y787402D02*
D03*
X-177165Y974409D02*
D03*
X-314960Y1131923D02*
D03*
X-177165Y1023622D02*
D03*
X-314960Y866142D02*
D03*
Y787402D02*
D03*
X-314961Y708662D02*
D03*
X-188976D02*
D03*
X-62992D02*
D03*
X188976D02*
D03*
X196850Y777559D02*
D03*
Y816929D02*
D03*
Y856299D02*
D03*
X190000Y974409D02*
D03*
Y1013779D02*
D03*
X314960Y708662D02*
D03*
X314961Y787402D02*
D03*
Y866142D02*
D03*
Y944882D02*
D03*
X29528Y850394D02*
D03*
X147638Y1062992D02*
D03*
X342520Y1114173D02*
D03*
X314961Y1023622D02*
D03*
X246063Y1114173D02*
D03*
X147638D02*
D03*
X342520Y1456693D02*
D03*
X246063D02*
D03*
X147638D02*
D03*
X49213Y1220489D02*
D03*
X-232283Y1131923D02*
D03*
X-149606D02*
D03*
X-39370Y1377953D02*
D03*
X-149606D02*
D03*
X-314960Y1220489D02*
D03*
X23622Y129095D02*
D03*
X86614D02*
D03*
X55118D02*
D03*
X342520Y1220489D02*
D03*
Y1377953D02*
D03*
Y1309055D02*
D03*
X49213Y1456693D02*
D03*
Y1377953D02*
D03*
Y1309055D02*
D03*
X246063D02*
D03*
Y1377953D02*
D03*
X147638D02*
D03*
Y1309055D02*
D03*
Y1220489D02*
D03*
X246063D02*
D03*
X-39370Y1309055D02*
D03*
Y1220489D02*
D03*
X-248031Y1377953D02*
D03*
X-338583D02*
D03*
X-149606Y1309055D02*
D03*
X-248031D02*
D03*
X-338583D02*
D03*
X-232283Y1220489D02*
D03*
X-149606D02*
D03*
D18*
X112126Y552756D02*
X196654D01*
X110236Y554646D02*
X112126Y552756D01*
X196654D02*
X213780Y569882D01*
Y570866D01*
X-213386Y915354D02*
X-187593D01*
X61050Y529654D02*
X110227D01*
X61024Y554646D02*
X110236D01*
X61041Y529663D02*
X61050Y529654D01*
X61024Y504626D02*
X110236D01*
X110227Y529654D02*
X110236Y529646D01*
X-145813Y504626D02*
X-110236D01*
X-61024D01*
X-179921Y413386D02*
Y453740D01*
X-110236Y529646D02*
X-61024D01*
X-111161Y530571D02*
X-110236Y529646D01*
Y479606D02*
X-61024D01*
X-159651Y452756D02*
X-152732Y459675D01*
X-179921Y492126D02*
Y531496D01*
X-152732Y459675D02*
Y497707D01*
X-179921Y452756D02*
X-159651D01*
X-152732Y497707D02*
X-145813Y504626D01*
X-110236Y454606D02*
X-61024D01*
X83701Y856299D02*
X118110D01*
X110236Y404606D02*
Y429606D01*
X61024D02*
X110236D01*
X61024Y454606D02*
X110236D01*
X61024Y479606D02*
X110236D01*
X68898Y871102D02*
X83701Y856299D01*
X68898Y871102D02*
Y899606D01*
X162126Y757874D02*
X225197D01*
X49213Y870788D02*
Y899606D01*
Y870788D02*
X162126Y757874D01*
X-94488Y875984D02*
Y925197D01*
X-68898Y850394D02*
Y899606D01*
X29528Y850394D02*
Y899606D01*
X-184740Y836614D02*
X-170000Y851354D01*
Y899541D02*
X-124659Y944882D01*
X-181811Y904433D02*
X-121677Y964567D01*
X-170000Y851354D02*
Y899541D01*
X-195369Y875984D02*
X-181811Y889543D01*
Y904433D01*
X-213386Y836614D02*
X-184740D01*
X-213386Y954724D02*
X-165276D01*
X-116063Y1003937D01*
X-187593Y915354D02*
X-118695Y984252D01*
X-213386Y875984D02*
X-195369D01*
X-213386Y994094D02*
X-145906D01*
X-116378Y1023622D01*
X-94488D01*
X-121677Y964567D02*
X-94488D01*
X-116063Y1003937D02*
X-94488D01*
X-118695Y984252D02*
X-94488D01*
X-124659Y944882D02*
X-94488D01*
X126378Y1023622D02*
X155906Y994094D01*
X94488Y1023622D02*
X126378D01*
X155906Y994094D02*
X225197D01*
X188622Y881378D02*
Y907972D01*
X129045Y984252D02*
X197943Y915354D01*
X126063Y1003937D02*
X175276Y954724D01*
X132027Y964567D02*
X188622Y907972D01*
X94488Y984252D02*
X129045D01*
X94488Y964567D02*
X132027D01*
X94488Y1003937D02*
X126063D01*
X94488Y925197D02*
X137990D01*
X94488Y944882D02*
X135009D01*
X137990Y925197D02*
X165000Y898187D01*
X176811Y848189D02*
Y903080D01*
X175276Y954724D02*
X225197D01*
X135009Y944882D02*
X176811Y903080D01*
X197943Y915354D02*
X225197D01*
X165000Y815000D02*
Y898187D01*
X182756Y797244D02*
X225197D01*
X165000Y815000D02*
X182756Y797244D01*
X188622Y881378D02*
X194016Y875984D01*
X176811Y848189D02*
X188386Y836614D01*
X225197D01*
X194016Y875984D02*
X225197D01*
X166536Y1033465D02*
X225197D01*
X156693Y1043307D02*
X166536Y1033465D01*
X94488Y1043307D02*
X156693D01*
X-178996Y530571D02*
X-111161D01*
X-179921Y531496D02*
X-178996Y530571D01*
X-118307Y1043307D02*
X-94488D01*
X-213386Y1072835D02*
X-147835D01*
X-118307Y1043307D01*
X-247244Y994094D02*
Y1033465D01*
X-213386Y757874D02*
Y797244D01*
X94488Y1062992D02*
X147638D01*
X32284Y794488D02*
X64961D01*
X27559Y799212D02*
X32284Y794488D01*
X-32283Y760630D02*
X-27559Y755905D01*
X-64961Y760630D02*
X-32283D01*
X-213386Y1033464D02*
Y1072835D01*
D19*
X0Y994095D02*
D03*
D20*
X-68898Y1088583D02*
D03*
X-49213D02*
D03*
X-29528D02*
D03*
X-9842D02*
D03*
X9842D02*
D03*
X29528D02*
D03*
X49213D02*
D03*
X68898D02*
D03*
Y899606D02*
D03*
X49213D02*
D03*
X29528D02*
D03*
X9842D02*
D03*
X-9842D02*
D03*
X-29528D02*
D03*
X-49213D02*
D03*
X-68898D02*
D03*
D21*
X94488Y1062992D02*
D03*
Y1043307D02*
D03*
Y1023622D02*
D03*
Y1003937D02*
D03*
Y984252D02*
D03*
Y964567D02*
D03*
Y944882D02*
D03*
Y925197D02*
D03*
X-94488D02*
D03*
Y944882D02*
D03*
Y964567D02*
D03*
Y984252D02*
D03*
Y1003937D02*
D03*
Y1023622D02*
D03*
Y1043307D02*
D03*
Y1062992D02*
D03*
D22*
X-110236Y504626D02*
D03*
Y529646D02*
D03*
Y554646D02*
D03*
Y479606D02*
D03*
Y454606D02*
D03*
Y429606D02*
D03*
Y404606D02*
D03*
Y579646D02*
D03*
X110236Y504626D02*
D03*
Y529646D02*
D03*
Y554646D02*
D03*
Y479606D02*
D03*
Y454606D02*
D03*
Y429606D02*
D03*
Y404606D02*
D03*
Y579646D02*
D03*
D23*
X-98425Y1390354D02*
D03*
Y1463976D02*
D03*
X-295276Y1390354D02*
D03*
Y1463976D02*
D03*
X-196851Y1390354D02*
D03*
Y1463976D02*
D03*
D24*
X27559Y755905D02*
D03*
X-27559D02*
D03*
Y799212D02*
D03*
X27559D02*
D03*
D25*
X64961Y794488D02*
D03*
Y760630D02*
D03*
X-64961D02*
D03*
Y794488D02*
D03*
D26*
X-196851Y1463976D02*
Y1663386D01*
X-196850Y1663386D01*
X-196851Y1463976D02*
X-196851Y1463976D01*
X-98425Y1463976D02*
Y1663386D01*
X-295276Y1463976D02*
Y1663386D01*
X-295276Y1463976D02*
X-295276Y1463976D01*
Y1663386D02*
X-295276Y1663386D01*
D27*
X-268095Y1160000D02*
X-85000D01*
X-278346Y1170251D02*
X-268095Y1160000D01*
X-278346Y1170251D02*
Y1269685D01*
X-278347Y1309055D02*
Y1348425D01*
Y1269685D02*
Y1309055D01*
X-68898Y1088583D02*
Y1143898D01*
X-79292Y1173780D02*
X-49213Y1143700D01*
X-81496Y1195470D02*
X-29528Y1143502D01*
X-49213Y1088583D02*
Y1143700D01*
X-85000Y1160000D02*
X-68898Y1143898D01*
X-81496Y1195470D02*
Y1269685D01*
X-163780Y1173780D02*
X-79292D01*
X-29528Y1088583D02*
Y1143502D01*
X-179921Y1189921D02*
X-163780Y1173780D01*
X-81496Y1309055D02*
Y1348425D01*
Y1269685D02*
Y1309055D01*
X3937Y777559D02*
Y865000D01*
X-25590Y799212D02*
X-9842Y814960D01*
Y899606D01*
X-27559Y799212D02*
X-25590D01*
X3937Y865000D02*
X9842Y870905D01*
Y899606D01*
X3937Y777559D02*
X25591Y755905D01*
X-179921Y1309055D02*
Y1348425D01*
Y1269685D02*
Y1309055D01*
X-179921Y1189921D02*
Y1269685D01*
X25591Y755905D02*
X27559D01*
X-62598Y796850D02*
X-29921D01*
X-64961Y794488D02*
X-62598Y796850D01*
X-29921D02*
X-27559Y799212D01*
X29921Y758268D02*
X62598D01*
X64961Y760630D01*
X27559Y755905D02*
X29921Y758268D01*
X-81496Y1348425D02*
Y1386811D01*
X-179922Y1348425D02*
Y1386811D01*
X-278347Y1348425D02*
Y1386811D01*
%TF.MD5,1488260f4706109d37754411dd8d148e*%
M02*
