%TF.GenerationSoftware,Altium Limited,Altium Designer,22.1.2 (22)*%
G04 Layer_Color=2752767*
%FSLAX26Y26*%
%MOIN*%
%TF.SameCoordinates,4CB55538-D73B-4A6B-AD5D-0D58206D9AAC*%
%TF.FilePolarity,Positive*%
%TF.FileFunction,Drawing*%
%TF.Part,Single*%
G01*
G75*
%TA.AperFunction,NonConductor*%
%ADD64C,0.005000*%
%ADD65C,0.006667*%
D64*
X-496378Y1871732D02*
Y1911732D01*
X-456378D01*
Y1871732D01*
X-496378D01*
X456378D02*
Y1911732D01*
X496378D01*
Y1871732D01*
X456378D01*
X485000Y1025000D02*
X465000Y1065000D01*
X505000D01*
X485000Y1025000D01*
X-485000D02*
X-505000Y1065000D01*
X-465000D01*
X-485000Y1025000D01*
X480000Y1305000D02*
X460000Y1345000D01*
X500000D01*
X480000Y1305000D01*
X-485000D02*
X-505000Y1345000D01*
X-465000D01*
X-485000Y1305000D01*
X511811Y491811D02*
X491811Y531811D01*
X531811D01*
X511811Y491811D01*
Y334331D02*
X491811Y374331D01*
X531811D01*
X511811Y334331D01*
Y176850D02*
X491811Y216850D01*
X531811D01*
X511811Y176850D01*
X-511811Y491811D02*
X-531811Y531811D01*
X-491811D01*
X-511811Y491811D01*
Y334331D02*
X-531811Y374331D01*
X-491811D01*
X-511811Y334331D01*
Y176850D02*
X-531811Y216850D01*
X-491811D01*
X-511811Y176850D01*
X-340000Y1105000D02*
X-360000Y1145000D01*
X-320000D01*
X-340000Y1105000D01*
X-265866Y1100000D02*
X-285866Y1140000D01*
X-245866D01*
X-265866Y1100000D01*
X259055Y699055D02*
X239055Y739055D01*
X279055D01*
X259055Y699055D01*
X259055Y1112035D02*
X239055Y1152035D01*
X279055D01*
X259055Y1112035D01*
X23622Y109094D02*
X3622Y149095D01*
X43622D01*
X23622Y109094D01*
X-337795Y569764D02*
X-357795Y609764D01*
X-317795D01*
X-337795Y569764D01*
X235000Y655000D02*
X215000Y695000D01*
X255000D01*
X235000Y655000D01*
X340000Y515000D02*
X320000Y555000D01*
X360000D01*
X340000Y515000D01*
Y655000D02*
X320000Y695000D01*
X360000D01*
X340000Y655000D01*
X5000Y515000D02*
X-15000Y555000D01*
X25000D01*
X5000Y515000D01*
Y655000D02*
X-15000Y695000D01*
X25000D01*
X5000Y655000D01*
X-135000Y515000D02*
X-155000Y555000D01*
X-115000D01*
X-135000Y515000D01*
Y655000D02*
X-155000Y695000D01*
X-115000D01*
X-135000Y655000D01*
X-235000Y515000D02*
X-255000Y555000D01*
X-215000D01*
X-235000Y515000D01*
X-213386Y655000D02*
X-233386Y695000D01*
X-193386D01*
X-213386Y655000D01*
X236811Y519685D02*
X216811Y559685D01*
X256811D01*
X236811Y519685D01*
X286811Y519370D02*
X266811Y559370D01*
X306811D01*
X286811Y519370D01*
Y405197D02*
X266811Y445197D01*
X306811D01*
X286811Y405197D01*
X236811D02*
X216811Y445197D01*
X256811D01*
X236811Y405197D01*
X81496Y463858D02*
X61496Y503858D01*
X101496D01*
X81496Y463858D01*
X149606Y109094D02*
X129606Y149095D01*
X169606D01*
X149606Y109094D01*
X118110D02*
X98110Y149095D01*
X138110D01*
X118110Y109094D01*
X86614D02*
X66614Y149095D01*
X106614D01*
X86614Y109094D01*
X55118D02*
X35118Y149095D01*
X75118D01*
X55118Y109094D01*
X-7874D02*
X-27874Y149095D01*
X12126D01*
X-7874Y109094D01*
X-39370D02*
X-59370Y149095D01*
X-19370D01*
X-39370Y109094D01*
X-370079D02*
X-390079Y149095D01*
X-350079D01*
X-370079Y109094D01*
X342520Y1100000D02*
X322520Y1140000D01*
X362520D01*
X342520Y1100000D01*
D65*
X315276Y1663386D02*
G03*
X315276Y1663386I-20000J0D01*
G01*
X216850D02*
G03*
X216850Y1663386I-20000J0D01*
G01*
X118425D02*
G03*
X118425Y1663386I-20000J0D01*
G01*
X20000D02*
G03*
X20000Y1663386I-20000J0D01*
G01*
X-78425D02*
G03*
X-78425Y1663386I-20000J0D01*
G01*
X-176850D02*
G03*
X-176850Y1663386I-20000J0D01*
G01*
X-275276D02*
G03*
X-275276Y1663386I-20000J0D01*
G01*
%TF.MD5,6e5f5dd67b0238a29f7784a13087f567*%
M02*
