%TF.GenerationSoftware,Altium Limited,Altium Designer,22.1.2 (22)*%
G04 Layer_Color=128*
%FSLAX26Y26*%
%MOIN*%
%TF.SameCoordinates,4CB55538-D73B-4A6B-AD5D-0D58206D9AAC*%
%TF.FilePolarity,Positive*%
%TF.FileFunction,Paste,Bot*%
%TF.Part,Single*%
G01*
G75*
%TA.AperFunction,SMDPad,CuDef*%
%ADD11R,0.020472X0.018504*%
%ADD13R,0.018504X0.020472*%
%ADD26R,0.055118X0.027559*%
%ADD27R,0.027559X0.009842*%
%ADD28R,0.009842X0.027559*%
%ADD29R,0.135827X0.135827*%
%ADD30R,0.027559X0.023622*%
D11*
X64961Y760630D02*
D03*
Y794488D02*
D03*
X-64961D02*
D03*
Y760630D02*
D03*
D13*
X-312205Y1269685D02*
D03*
X-278346D02*
D03*
X213780Y1427165D02*
D03*
X179921D02*
D03*
X312205D02*
D03*
X278347D02*
D03*
X81496Y1466535D02*
D03*
X115354D02*
D03*
X278346D02*
D03*
X312205D02*
D03*
X179921D02*
D03*
X213780D02*
D03*
X-179921Y1269685D02*
D03*
X-213780D02*
D03*
X-213386Y915354D02*
D03*
X-247244D02*
D03*
Y1072835D02*
D03*
X-213386D02*
D03*
X225197Y757874D02*
D03*
X259055D02*
D03*
X225197Y836614D02*
D03*
X259055D02*
D03*
X225197Y797244D02*
D03*
X259055D02*
D03*
Y915354D02*
D03*
X225197D02*
D03*
Y875984D02*
D03*
X259055D02*
D03*
X-247244Y836614D02*
D03*
X-213386D02*
D03*
Y797244D02*
D03*
X-247244D02*
D03*
X-213386Y757874D02*
D03*
X-247244D02*
D03*
X-213386Y875984D02*
D03*
X-247244D02*
D03*
X-213386Y994094D02*
D03*
X-247244D02*
D03*
X-213386Y954724D02*
D03*
X-247244D02*
D03*
X259055Y1112205D02*
D03*
X225197D02*
D03*
X225197Y994095D02*
D03*
X259055D02*
D03*
X225197Y954724D02*
D03*
X259055D02*
D03*
Y1033465D02*
D03*
X225197D02*
D03*
Y1072835D02*
D03*
X259055D02*
D03*
X-213386Y1033465D02*
D03*
X-247244D02*
D03*
X115354Y1269685D02*
D03*
X81496D02*
D03*
X213780D02*
D03*
X179921D02*
D03*
X312205D02*
D03*
X278346D02*
D03*
X115354Y1309055D02*
D03*
X81496D02*
D03*
X213780D02*
D03*
X179921D02*
D03*
X312204D02*
D03*
X278346D02*
D03*
X81496Y1387795D02*
D03*
X115354D02*
D03*
X179921D02*
D03*
X213780D02*
D03*
X278346D02*
D03*
X312205D02*
D03*
X-115355Y1269685D02*
D03*
X-81496D02*
D03*
X-278347Y1348425D02*
D03*
X-312205D02*
D03*
X-179922D02*
D03*
X-213780D02*
D03*
X-81496D02*
D03*
X-115355D02*
D03*
X-278346Y1309055D02*
D03*
X-312205D02*
D03*
X-179921D02*
D03*
X-213780D02*
D03*
X-81496D02*
D03*
X-115355D02*
D03*
X312205Y1348425D02*
D03*
X278346D02*
D03*
X213780D02*
D03*
X179921D02*
D03*
X115354D02*
D03*
X81496D02*
D03*
X115354Y1427165D02*
D03*
X81496D02*
D03*
D26*
X-196851Y1463976D02*
D03*
Y1390354D02*
D03*
X-98425Y1463976D02*
D03*
Y1390354D02*
D03*
X-295276Y1463976D02*
D03*
Y1390354D02*
D03*
D27*
X-94488Y1062992D02*
D03*
Y1043307D02*
D03*
Y1023622D02*
D03*
Y1003937D02*
D03*
Y984252D02*
D03*
Y964567D02*
D03*
Y944882D02*
D03*
Y925197D02*
D03*
X94488D02*
D03*
Y944882D02*
D03*
Y964567D02*
D03*
Y984252D02*
D03*
Y1003937D02*
D03*
Y1023622D02*
D03*
Y1043307D02*
D03*
Y1062992D02*
D03*
D28*
X-68898Y899606D02*
D03*
X-49213D02*
D03*
X-29528D02*
D03*
X-9842D02*
D03*
X9842D02*
D03*
X29528D02*
D03*
X49213D02*
D03*
X68898D02*
D03*
Y1088583D02*
D03*
X49213D02*
D03*
X29528D02*
D03*
X9842D02*
D03*
X-9842D02*
D03*
X-29528D02*
D03*
X-49213D02*
D03*
X-68898D02*
D03*
D29*
X0Y994095D02*
D03*
D30*
X27559Y799212D02*
D03*
X-27559D02*
D03*
Y755905D02*
D03*
X27559D02*
D03*
%TF.MD5,7c4f354b14e8105b9e0171b1fbef45bc*%
M02*
