%TF.GenerationSoftware,Altium Limited,Altium Designer,22.1.2 (22)*%
G04 Layer_Color=255*
%FSLAX26Y26*%
%MOIN*%
%TF.SameCoordinates,654C00B4-3322-4B45-B6E3-0FD47356756A*%
%TF.FilePolarity,Positive*%
%TF.FileFunction,Pads,Bot*%
%TF.Part,Single*%
G01*
G75*
%TA.AperFunction,ConnectorPad*%
%ADD11R,0.023622X0.090551*%
%TA.AperFunction,SMDPad,CuDef*%
%ADD12R,0.018504X0.020472*%
%TA.AperFunction,ComponentPad*%
%ADD14C,0.053150*%
%ADD15R,0.053150X0.053150*%
%TA.AperFunction,ViaPad*%
%ADD16R,0.208661X0.208661*%
%TA.AperFunction,SMDPad,CuDef*%
%ADD19R,0.135827X0.135827*%
%ADD20R,0.009842X0.027559*%
%ADD21R,0.027559X0.009842*%
%ADD22R,0.039370X0.015748*%
%ADD23R,0.055118X0.027559*%
%ADD24R,0.027559X0.023622*%
%ADD25R,0.020472X0.018504*%
D11*
X-448819Y55118D02*
D03*
X-417323D02*
D03*
X-385827D02*
D03*
X-354331D02*
D03*
X-322835D02*
D03*
X-291339D02*
D03*
X-259842D02*
D03*
X-228346D02*
D03*
X-70866D02*
D03*
X-39370D02*
D03*
X-7874D02*
D03*
X23622D02*
D03*
X55118D02*
D03*
X86614D02*
D03*
X118110D02*
D03*
X149606D02*
D03*
X181102D02*
D03*
X212598D02*
D03*
X244095D02*
D03*
X275591D02*
D03*
X307087D02*
D03*
X338583D02*
D03*
X370079D02*
D03*
X401575D02*
D03*
X433071D02*
D03*
X464567D02*
D03*
D12*
X-278346Y1269685D02*
D03*
X-312205D02*
D03*
X81496Y1427165D02*
D03*
X115354D02*
D03*
X81496Y1348425D02*
D03*
X115354D02*
D03*
X179921D02*
D03*
X213780D02*
D03*
X278346D02*
D03*
X312205D02*
D03*
X-312205Y1309055D02*
D03*
X-278346D02*
D03*
X-213780D02*
D03*
X-179921D02*
D03*
X-115355Y1348425D02*
D03*
X-81496D02*
D03*
X-213780D02*
D03*
X-179922D02*
D03*
X-115355Y1309055D02*
D03*
X-81496D02*
D03*
X179921Y570866D02*
D03*
X213780D02*
D03*
X-179921D02*
D03*
X-213780D02*
D03*
X-179921Y492126D02*
D03*
X-213780D02*
D03*
X-312205Y1348425D02*
D03*
X-278347D02*
D03*
X312205Y1387795D02*
D03*
X278346D02*
D03*
X278346Y1309055D02*
D03*
X312204D02*
D03*
X179921Y1269685D02*
D03*
X213780D02*
D03*
X-213780Y413386D02*
D03*
X-179921D02*
D03*
X-247244Y1033465D02*
D03*
X-213386D02*
D03*
X278346Y1269685D02*
D03*
X312205D02*
D03*
X179921Y1309055D02*
D03*
X213780D02*
D03*
X-247244Y757874D02*
D03*
X-213386D02*
D03*
X-247244Y797244D02*
D03*
X-213386D02*
D03*
X115354Y1387795D02*
D03*
X81496D02*
D03*
X213780D02*
D03*
X179921D02*
D03*
X81496Y1269685D02*
D03*
X115354D02*
D03*
X81496Y1309055D02*
D03*
X115354D02*
D03*
X259055Y836614D02*
D03*
X225197D02*
D03*
X259055Y915354D02*
D03*
X225197D02*
D03*
Y875984D02*
D03*
X259055D02*
D03*
X-247244Y994094D02*
D03*
X-213386D02*
D03*
X259055Y757874D02*
D03*
X225197D02*
D03*
X-213386Y836614D02*
D03*
X-247244D02*
D03*
X225197Y994094D02*
D03*
X259055D02*
D03*
X-179921Y531496D02*
D03*
X-213780D02*
D03*
X225197Y1072835D02*
D03*
X259055D02*
D03*
X-247244Y954724D02*
D03*
X-213386D02*
D03*
X259055Y797244D02*
D03*
X225197D02*
D03*
X259055Y1033465D02*
D03*
X225197D02*
D03*
X259055Y954724D02*
D03*
X225197D02*
D03*
X-247244Y875984D02*
D03*
X-213386D02*
D03*
X-81496Y1269685D02*
D03*
X-115355D02*
D03*
X-213780D02*
D03*
X-179921D02*
D03*
X-213780Y452756D02*
D03*
X-179921D02*
D03*
X-213386Y1072835D02*
D03*
X-247244D02*
D03*
X115354Y1466535D02*
D03*
X81496D02*
D03*
X213780D02*
D03*
X179921D02*
D03*
X312205D02*
D03*
X278346D02*
D03*
X278347Y1427165D02*
D03*
X312205D02*
D03*
X179921D02*
D03*
X213780D02*
D03*
D14*
X-295276Y1663386D02*
D03*
X-196850D02*
D03*
X-98425D02*
D03*
X0D02*
D03*
X98425D02*
D03*
X196850D02*
D03*
D15*
X295276D02*
D03*
D16*
X-476378Y1891732D02*
D03*
X476378D02*
D03*
D19*
X0Y994095D02*
D03*
D20*
X-68898Y1088583D02*
D03*
X-49213D02*
D03*
X-29528D02*
D03*
X-9842D02*
D03*
X9842D02*
D03*
X29528D02*
D03*
X49213D02*
D03*
X68898D02*
D03*
Y899606D02*
D03*
X49213D02*
D03*
X29528D02*
D03*
X9842D02*
D03*
X-9842D02*
D03*
X-29528D02*
D03*
X-49213D02*
D03*
X-68898D02*
D03*
D21*
X94488Y1062992D02*
D03*
Y1043307D02*
D03*
Y1023622D02*
D03*
Y1003937D02*
D03*
Y984252D02*
D03*
Y964567D02*
D03*
Y944882D02*
D03*
Y925197D02*
D03*
X-94488D02*
D03*
Y944882D02*
D03*
Y964567D02*
D03*
Y984252D02*
D03*
Y1003937D02*
D03*
Y1023622D02*
D03*
Y1043307D02*
D03*
Y1062992D02*
D03*
D22*
X-110236Y504626D02*
D03*
Y529646D02*
D03*
Y554646D02*
D03*
Y479606D02*
D03*
Y454606D02*
D03*
Y429606D02*
D03*
Y404606D02*
D03*
Y579646D02*
D03*
X110236Y504626D02*
D03*
Y529646D02*
D03*
Y554646D02*
D03*
Y479606D02*
D03*
Y454606D02*
D03*
Y429606D02*
D03*
Y404606D02*
D03*
Y579646D02*
D03*
D23*
X-98425Y1390354D02*
D03*
Y1463976D02*
D03*
X-295276Y1390354D02*
D03*
Y1463976D02*
D03*
X-196851Y1390354D02*
D03*
Y1463976D02*
D03*
D24*
X27559Y755905D02*
D03*
X-27559D02*
D03*
Y799212D02*
D03*
X27559D02*
D03*
D25*
X64961Y794488D02*
D03*
Y760630D02*
D03*
X-64961D02*
D03*
Y794488D02*
D03*
%TF.MD5,9f6f1da0befa0b27c77bf2be2779b365*%
M02*
