%TF.GenerationSoftware,Altium Limited,Altium Designer,22.1.2 (22)*%
G04 Layer_Physical_Order=3*
G04 Layer_Color=16440176*
%FSLAX26Y26*%
%MOIN*%
%TF.SameCoordinates,4CB55538-D73B-4A6B-AD5D-0D58206D9AAC*%
%TF.FilePolarity,Positive*%
%TF.FileFunction,Copper,L3,Inr,Signal*%
%TF.Part,Single*%
G01*
G75*
%TA.AperFunction,Conductor*%
%ADD19C,0.011811*%
%TA.AperFunction,ViaPad*%
%ADD21R,0.208661X0.208661*%
%TA.AperFunction,ComponentPad*%
%ADD23C,0.053150*%
%TA.AperFunction,ViaPad*%
%ADD24C,0.019685*%
%TA.AperFunction,Conductor*%
%ADD25C,0.015748*%
G36*
X355000Y1180000D02*
X255000Y1080000D01*
X147379D01*
X142307Y1083389D01*
X133858Y1085070D01*
X125409Y1083389D01*
X120337Y1080000D01*
X-255003D01*
X-277693Y1102691D01*
X-276127Y1108195D01*
X-273815Y1108738D01*
X-271243Y1107020D01*
X-265866Y1105950D01*
X-260490Y1107020D01*
X-255932Y1110065D01*
X-252886Y1114623D01*
X-251817Y1120000D01*
X-252886Y1125377D01*
X-255932Y1129935D01*
X-260490Y1132980D01*
X-265866Y1134050D01*
X-271243Y1132980D01*
X-275650Y1130035D01*
X-293781D01*
X-297621Y1129271D01*
X-300877Y1127096D01*
X-302097Y1127096D01*
X-355000Y1180001D01*
Y1390000D01*
X-80000D01*
X-30000Y1440000D01*
X-30000Y1695000D01*
X-20000Y1705000D01*
X355000Y1705000D01*
X355000Y1180000D01*
D02*
G37*
G36*
X-310613Y1118582D02*
X-310613Y1118582D01*
X-313454Y1114518D01*
X-337096Y1090877D01*
X-339271Y1087621D01*
X-340035Y1083781D01*
Y958740D01*
X-339271Y954900D01*
X-337096Y951644D01*
X-300394Y914942D01*
Y912613D01*
X-298296Y907549D01*
X-294420Y903673D01*
X-289355Y901575D01*
X-283873D01*
X-278809Y903673D01*
X-274932Y907549D01*
X-272835Y912613D01*
Y918095D01*
X-273957Y920804D01*
X-269718Y923636D01*
X-257279Y911198D01*
Y826381D01*
X-258926Y824735D01*
X-261024Y819670D01*
Y814188D01*
X-258926Y809124D01*
X-255050Y805247D01*
X-249985Y803150D01*
X-244503D01*
X-239439Y805247D01*
X-235562Y809124D01*
X-233465Y814188D01*
Y819670D01*
X-235562Y824735D01*
X-237209Y826381D01*
Y915354D01*
X-237973Y919195D01*
X-240148Y922450D01*
X-272835Y955137D01*
Y957465D01*
X-274932Y962530D01*
X-278809Y966406D01*
X-283873Y968504D01*
X-286202D01*
X-304217Y986519D01*
Y1048570D01*
X-293732Y1059055D01*
X-292535D01*
X-287470Y1061153D01*
X-283594Y1065029D01*
X-281496Y1070094D01*
Y1075575D01*
X-283594Y1080640D01*
X-287470Y1084516D01*
X-292535Y1086614D01*
X-298017D01*
X-303081Y1084516D01*
X-306957Y1080640D01*
X-309055Y1075575D01*
Y1072116D01*
X-315345Y1065825D01*
X-319965Y1067739D01*
Y1079624D01*
X-294353Y1105235D01*
X-294215Y1105210D01*
X-289714Y1102804D01*
X-289736Y1102691D01*
X-289599Y1102004D01*
X-289656Y1101305D01*
X-289145Y1099719D01*
X-288819Y1098083D01*
X-288430Y1097500D01*
X-288215Y1096833D01*
X-287135Y1095562D01*
X-286209Y1094176D01*
X-263519Y1071485D01*
X-259612Y1068874D01*
X-255004Y1067957D01*
X-255003Y1067958D01*
X9457D01*
Y850648D01*
X7874Y846827D01*
Y838213D01*
X11171Y830254D01*
X17262Y824163D01*
X25221Y820866D01*
X33835D01*
X41793Y824163D01*
X47885Y830254D01*
X51181Y838213D01*
Y846827D01*
X49598Y850648D01*
Y1067958D01*
X120337D01*
X121500Y1068189D01*
X122686D01*
X123782Y1068643D01*
X124945Y1068874D01*
X125932Y1069533D01*
X127028Y1069987D01*
X130108Y1072045D01*
X133858Y1072792D01*
X137608Y1072045D01*
X140689Y1069987D01*
X141785Y1069533D01*
X142771Y1068874D01*
X143934Y1068643D01*
X145030Y1068189D01*
X146216D01*
X147379Y1067958D01*
X255000D01*
X259608Y1068874D01*
X263515Y1071485D01*
X350381Y1158350D01*
X355000Y1156437D01*
Y490000D01*
X86490D01*
X85956Y490534D01*
X83062Y491732D01*
X79930D01*
X77036Y490534D01*
X76502Y490000D01*
X-355000D01*
Y1156437D01*
X-350380Y1158350D01*
X-310613Y1118582D01*
D02*
G37*
%LPC*%
G36*
X295276Y1694161D02*
X287310Y1693112D01*
X279888Y1690038D01*
X273514Y1685147D01*
X268624Y1678773D01*
X265549Y1671351D01*
X264500Y1663386D01*
X265549Y1655421D01*
X268624Y1647998D01*
X273514Y1641625D01*
X279888Y1636734D01*
X287310Y1633659D01*
X295276Y1632611D01*
X303241Y1633659D01*
X310663Y1636734D01*
X317037Y1641625D01*
X321928Y1647998D01*
X325002Y1655421D01*
X326051Y1663386D01*
X325002Y1671351D01*
X321928Y1678773D01*
X317037Y1685147D01*
X310663Y1690038D01*
X303241Y1693112D01*
X295276Y1694161D01*
D02*
G37*
G36*
X196850D02*
X188885Y1693112D01*
X181463Y1690038D01*
X175089Y1685147D01*
X170198Y1678773D01*
X167124Y1671351D01*
X166075Y1663386D01*
X167124Y1655421D01*
X170198Y1647998D01*
X175089Y1641625D01*
X181463Y1636734D01*
X188885Y1633659D01*
X196850Y1632611D01*
X204816Y1633659D01*
X212238Y1636734D01*
X218612Y1641625D01*
X223502Y1647998D01*
X226577Y1655421D01*
X227625Y1663386D01*
X226577Y1671351D01*
X223502Y1678773D01*
X218612Y1685147D01*
X212238Y1690038D01*
X204816Y1693112D01*
X196850Y1694161D01*
D02*
G37*
G36*
X98425D02*
X90460Y1693112D01*
X83038Y1690038D01*
X76664Y1685147D01*
X71773Y1678773D01*
X68699Y1671351D01*
X67650Y1663386D01*
X68699Y1655421D01*
X71773Y1647998D01*
X76664Y1641625D01*
X83038Y1636734D01*
X90460Y1633659D01*
X98425Y1632611D01*
X106390Y1633659D01*
X113813Y1636734D01*
X120186Y1641625D01*
X125077Y1647998D01*
X128152Y1655421D01*
X129200Y1663386D01*
X128152Y1671351D01*
X125077Y1678773D01*
X120186Y1685147D01*
X113813Y1690038D01*
X106390Y1693112D01*
X98425Y1694161D01*
D02*
G37*
G36*
X259055Y1140064D02*
X255983Y1139453D01*
X253378Y1137712D01*
X251638Y1135108D01*
X251027Y1132035D01*
X251638Y1128963D01*
X253378Y1126359D01*
X255983Y1124618D01*
X259055Y1124007D01*
X262127Y1124618D01*
X264732Y1126359D01*
X266472Y1128963D01*
X267083Y1132035D01*
X266472Y1135108D01*
X264732Y1137712D01*
X262127Y1139453D01*
X259055Y1140064D01*
D02*
G37*
G36*
X260621Y942913D02*
X257489D01*
X254595Y941715D01*
X252380Y939500D01*
X251181Y936606D01*
Y933473D01*
X252380Y930579D01*
X254595Y928364D01*
X257489Y927165D01*
X260621D01*
X263515Y928364D01*
X265730Y930579D01*
X266929Y933473D01*
Y936606D01*
X265730Y939500D01*
X263515Y941715D01*
X260621Y942913D01*
D02*
G37*
G36*
X260621Y726929D02*
X257489D01*
X254595Y725730D01*
X252380Y723515D01*
X251181Y720621D01*
Y717489D01*
X252380Y714595D01*
X254595Y712380D01*
X257489Y711181D01*
X260621D01*
X263515Y712380D01*
X265730Y714595D01*
X266929Y717489D01*
Y720621D01*
X265730Y723515D01*
X263515Y725730D01*
X260621Y726929D01*
D02*
G37*
G36*
X-336229Y597638D02*
X-339361D01*
X-342255Y596439D01*
X-344471Y594224D01*
X-345669Y591330D01*
Y588198D01*
X-344471Y585303D01*
X-342255Y583088D01*
X-339361Y581890D01*
X-336229D01*
X-333335Y583088D01*
X-331120Y585303D01*
X-329921Y588198D01*
Y591330D01*
X-331120Y594224D01*
X-333335Y596439D01*
X-336229Y597638D01*
D02*
G37*
G36*
X-95684Y879921D02*
X-101166D01*
X-106231Y877823D01*
X-110107Y873947D01*
X-112205Y868883D01*
Y863401D01*
X-110107Y858336D01*
X-108460Y856690D01*
Y670000D01*
X-107697Y666160D01*
X-105521Y662904D01*
X-34773Y592156D01*
X-31518Y589981D01*
X-27677Y589217D01*
X179320D01*
X204965Y563572D01*
Y531919D01*
X205729Y528078D01*
X207904Y524823D01*
X219823Y512904D01*
X223078Y510729D01*
X226919Y509965D01*
X267441D01*
X271281Y510729D01*
X274537Y512904D01*
X287224Y525591D01*
X289552D01*
X294616Y527688D01*
X298493Y531565D01*
X300591Y536629D01*
Y542111D01*
X298493Y547176D01*
X294616Y551052D01*
X289552Y553150D01*
X284070D01*
X279005Y551052D01*
X275129Y547176D01*
X273031Y542111D01*
Y539783D01*
X263284Y530035D01*
X253141D01*
X249800Y535035D01*
X250590Y536944D01*
Y542426D01*
X248493Y547490D01*
X246846Y549137D01*
Y568189D01*
X246082Y572029D01*
X243907Y575285D01*
X197096Y622096D01*
X193840Y624271D01*
X190000Y625035D01*
X-16997D01*
X-58862Y666900D01*
Y833068D01*
X-57216Y834714D01*
X-55118Y839779D01*
Y845261D01*
X-57216Y850325D01*
X-61092Y854201D01*
X-66157Y856299D01*
X-71638D01*
X-76703Y854201D01*
X-80579Y850325D01*
X-82677Y845261D01*
Y839779D01*
X-80579Y834714D01*
X-78933Y833068D01*
Y671233D01*
X-83552Y669319D01*
X-88390Y674157D01*
Y856690D01*
X-86743Y858336D01*
X-84646Y863401D01*
Y868883D01*
X-86743Y873947D01*
X-90620Y877823D01*
X-95684Y879921D01*
D02*
G37*
%LPD*%
D19*
X-293781Y1120000D02*
X-265866D01*
X-330000Y958740D02*
Y1083781D01*
X-293781Y1120000D01*
X-314252Y982362D02*
X-247244Y915354D01*
X-330000Y958740D02*
X-286614Y915354D01*
X-314252Y982362D02*
Y1052727D01*
X-295276Y1071703D01*
Y1072835D01*
X-247244Y816929D02*
Y915354D01*
X226919Y520000D02*
X267441D01*
X286811Y539370D01*
X-21154Y615000D02*
X190000D01*
X183477Y599252D02*
X215000Y567729D01*
X236811Y539685D02*
Y568189D01*
X190000Y615000D02*
X236811Y568189D01*
X-27677Y599252D02*
X183477D01*
X215000Y531919D02*
Y567729D01*
X-98425Y670000D02*
Y866142D01*
X-68898Y662743D02*
X-21154Y615000D01*
X-98425Y670000D02*
X-27677Y599252D01*
X-68898Y662743D02*
Y842520D01*
X215000Y531919D02*
X226919Y520000D01*
X-23622Y384107D02*
X36523Y444252D01*
X235947Y425197D02*
X236811D01*
X216892Y444252D02*
X235947Y425197D01*
X252008Y460000D02*
X286811Y425197D01*
X30000Y460000D02*
X252008D01*
X-39370Y390630D02*
X30000Y460000D01*
X36523Y444252D02*
X216892D01*
X-39370Y129095D02*
Y390630D01*
X-23622Y175000D02*
Y384107D01*
X-7874Y129095D02*
Y159252D01*
X-23622Y175000D02*
X-7874Y159252D01*
D21*
X-476378Y1891732D02*
D03*
X476378D02*
D03*
D23*
X295276Y1663386D02*
D03*
X196850D02*
D03*
X98425D02*
D03*
X0D02*
D03*
X-98425D02*
D03*
X-196850D02*
D03*
X-295276D02*
D03*
D24*
X-45000Y1375000D02*
D03*
X-140000D02*
D03*
X-340000Y1125000D02*
D03*
X-307099Y1220489D02*
D03*
X-265866Y1120000D02*
D03*
X-286614Y954724D02*
D03*
X-285315Y1013779D02*
D03*
X-247244Y816929D02*
D03*
X235000Y675000D02*
D03*
X340000Y535000D02*
D03*
Y675000D02*
D03*
X5000Y535000D02*
D03*
Y675000D02*
D03*
X-135000Y535000D02*
D03*
Y675000D02*
D03*
X-235000Y535000D02*
D03*
X-213386Y675000D02*
D03*
X236811Y539685D02*
D03*
X-130000Y760630D02*
D03*
X286811Y539370D02*
D03*
Y425197D02*
D03*
X236811D02*
D03*
X-7874Y129095D02*
D03*
X-39370D02*
D03*
X342520Y760630D02*
D03*
Y890000D02*
D03*
Y980000D02*
D03*
Y1120000D02*
D03*
X-185000Y760630D02*
D03*
X-286614Y777559D02*
D03*
Y856299D02*
D03*
X-185000D02*
D03*
Y975000D02*
D03*
X200000Y895000D02*
D03*
X185000Y935000D02*
D03*
X165000Y980000D02*
D03*
X170000Y825000D02*
D03*
X105000Y890000D02*
D03*
X95000Y794488D02*
D03*
X-40000Y865000D02*
D03*
X-130000Y900000D02*
D03*
X-165000Y1033465D02*
D03*
X278346Y1160000D02*
D03*
X175000Y1165000D02*
D03*
X342520Y1235000D02*
D03*
Y1427165D02*
D03*
Y1309055D02*
D03*
X49213Y1462756D02*
D03*
Y1377953D02*
D03*
Y1309055D02*
D03*
X246063D02*
D03*
Y1427165D02*
D03*
X147638D02*
D03*
Y1309055D02*
D03*
Y1235000D02*
D03*
X246063D02*
D03*
X179921Y1102362D02*
D03*
X115354D02*
D03*
X-49213Y1309055D02*
D03*
X-9842Y1200787D02*
D03*
X-115354Y1120000D02*
D03*
X-213780D02*
D03*
X-245000Y1377953D02*
D03*
X-340000D02*
D03*
X-140000Y1309055D02*
D03*
X-240000D02*
D03*
X-340000D02*
D03*
X-213780Y1200787D02*
D03*
X-115354D02*
D03*
X-68898Y842520D02*
D03*
X-98425Y866142D02*
D03*
X-295276Y1072835D02*
D03*
X-286614Y915354D02*
D03*
X133858Y1062992D02*
D03*
X29528Y842520D02*
D03*
D25*
X-9842Y1200787D02*
X29528Y1161417D01*
Y842520D02*
Y1161417D01*
%TF.MD5,42825a635b3f6ab1590d1e66e30c791d*%
M02*
