%TF.GenerationSoftware,Altium Limited,Altium Designer,22.1.2 (22)*%
G04 Layer_Physical_Order=1*
G04 Layer_Color=255*
%FSLAX26Y26*%
%MOIN*%
%TF.SameCoordinates,4CB55538-D73B-4A6B-AD5D-0D58206D9AAC*%
%TF.FilePolarity,Positive*%
%TF.FileFunction,Copper,L1,Top,Signal*%
%TF.Part,Single*%
G01*
G75*
%TA.AperFunction,SMDPad,CuDef*%
%ADD10R,0.027559X0.055118*%
%ADD11R,0.020472X0.018504*%
%ADD12R,0.027559X0.039370*%
%ADD13R,0.018504X0.020472*%
%ADD14R,0.023622X0.051181*%
%ADD15R,0.019685X0.023622*%
%ADD16R,0.059055X0.039370*%
%TA.AperFunction,ConnectorPad*%
%ADD17R,0.023622X0.090551*%
%TA.AperFunction,Conductor*%
%ADD18C,0.019685*%
%ADD19C,0.011811*%
%ADD20C,0.007874*%
%TA.AperFunction,ViaPad*%
%ADD21R,0.208661X0.208661*%
%TA.AperFunction,ComponentPad*%
%ADD22R,0.053150X0.053150*%
%ADD23C,0.053150*%
%TA.AperFunction,ViaPad*%
%ADD24C,0.019685*%
G36*
X580516Y136019D02*
X537402D01*
X537156Y135970D01*
X536909Y136007D01*
X533822Y135855D01*
X533101Y135675D01*
X532357D01*
X526301Y134470D01*
X525388Y134092D01*
X524418Y133899D01*
X518714Y131536D01*
X517893Y130987D01*
X516979Y130609D01*
X511846Y127179D01*
X511147Y126480D01*
X510325Y125931D01*
X505959Y121565D01*
X505410Y120743D01*
X504711Y120044D01*
X501281Y114910D01*
X500902Y113997D01*
X500353Y113175D01*
X498455Y108592D01*
X-112012D01*
Y127953D01*
X-112077Y128279D01*
X-112034Y128609D01*
X-112287Y132463D01*
X-112542Y133418D01*
X-112607Y134404D01*
X-114602Y141850D01*
X-115183Y143027D01*
X-115605Y144270D01*
X-119459Y150945D01*
X-120324Y151932D01*
X-121053Y153024D01*
X-126504Y158474D01*
X-127595Y159203D01*
X-128582Y160069D01*
X-135258Y163923D01*
X-136501Y164345D01*
X-137678Y164926D01*
X-145123Y166921D01*
X-146433Y167006D01*
X-147721Y167262D01*
X-155429D01*
X-156716Y167006D01*
X-158026Y166921D01*
X-165472Y164926D01*
X-166649Y164345D01*
X-167892Y163923D01*
X-174567Y160069D01*
X-175554Y159204D01*
X-176646Y158474D01*
X-182096Y153024D01*
X-182826Y151932D01*
X-183691Y150945D01*
X-187545Y144270D01*
X-187967Y143027D01*
X-188548Y141850D01*
X-190543Y134404D01*
X-190607Y133418D01*
X-190863Y132463D01*
X-191116Y128609D01*
X-191072Y128279D01*
X-191137Y127953D01*
Y108592D01*
X-356029D01*
Y129095D01*
X-357099Y134471D01*
X-360144Y139029D01*
X-364702Y142075D01*
X-370079Y143144D01*
X-375455Y142075D01*
X-380013Y139029D01*
X-383059Y134471D01*
X-384128Y129095D01*
Y108592D01*
X-498455D01*
X-500354Y113175D01*
X-500903Y113997D01*
X-501281Y114910D01*
X-504711Y120044D01*
X-505410Y120743D01*
X-505959Y121565D01*
X-510325Y125931D01*
X-511147Y126480D01*
X-511846Y127179D01*
X-516979Y130609D01*
X-517893Y130987D01*
X-518714Y131536D01*
X-524419Y133899D01*
X-525388Y134092D01*
X-526301Y134470D01*
X-532357Y135675D01*
X-533101D01*
X-533822Y135855D01*
X-536909Y136007D01*
X-537156Y135970D01*
X-537402Y136019D01*
X-580516D01*
Y1358268D01*
X-433071D01*
Y1023622D01*
X433071D01*
Y1358268D01*
X580516D01*
Y136019D01*
D02*
G37*
G36*
X479436Y1689248D02*
X479727D01*
X480418Y1689175D01*
X481183Y1689066D01*
X481984Y1688884D01*
X482857Y1688666D01*
X483694Y1688374D01*
X483731D01*
X483804Y1688338D01*
X483913Y1688302D01*
X484058Y1688229D01*
X484459Y1688011D01*
X484968Y1687756D01*
X485514Y1687392D01*
X486097Y1686955D01*
X486643Y1686482D01*
X487152Y1685899D01*
X487225Y1685826D01*
X487371Y1685608D01*
X487589Y1685281D01*
X487880Y1684807D01*
X488172Y1684225D01*
X488499Y1683497D01*
X488827Y1682696D01*
X489082Y1681786D01*
X486060Y1680985D01*
Y1681022D01*
X486024Y1681058D01*
X485988Y1681167D01*
X485951Y1681313D01*
X485842Y1681640D01*
X485696Y1682077D01*
X485478Y1682587D01*
X485223Y1683060D01*
X484968Y1683570D01*
X484641Y1684006D01*
X484604Y1684043D01*
X484495Y1684188D01*
X484277Y1684370D01*
X484022Y1684625D01*
X483694Y1684917D01*
X483258Y1685208D01*
X482784Y1685499D01*
X482238Y1685754D01*
X482166Y1685790D01*
X481984Y1685863D01*
X481656Y1685972D01*
X481219Y1686118D01*
X480710Y1686227D01*
X480127Y1686336D01*
X479472Y1686409D01*
X478780Y1686445D01*
X478380D01*
X478198Y1686409D01*
X477980D01*
X477434Y1686372D01*
X476815Y1686263D01*
X476123Y1686154D01*
X475468Y1685972D01*
X474813Y1685717D01*
X474740Y1685681D01*
X474522Y1685608D01*
X474230Y1685426D01*
X473866Y1685244D01*
X473430Y1684953D01*
X472956Y1684662D01*
X472520Y1684298D01*
X472119Y1683897D01*
X472083Y1683861D01*
X471937Y1683715D01*
X471755Y1683460D01*
X471537Y1683169D01*
X471282Y1682805D01*
X471027Y1682369D01*
X470772Y1681895D01*
X470518Y1681386D01*
Y1681349D01*
X470481Y1681276D01*
X470445Y1681167D01*
X470372Y1680985D01*
X470299Y1680767D01*
X470226Y1680512D01*
X470117Y1680221D01*
X470044Y1679893D01*
X469862Y1679129D01*
X469717Y1678255D01*
X469608Y1677345D01*
X469571Y1676326D01*
Y1676290D01*
Y1676180D01*
Y1675998D01*
X469608Y1675780D01*
Y1675489D01*
X469644Y1675125D01*
X469680Y1674761D01*
X469717Y1674361D01*
X469862Y1673450D01*
X470044Y1672504D01*
X470336Y1671558D01*
X470700Y1670648D01*
Y1670611D01*
X470772Y1670539D01*
X470809Y1670429D01*
X470918Y1670284D01*
X471173Y1669883D01*
X471573Y1669374D01*
X472046Y1668828D01*
X472629Y1668282D01*
X473320Y1667772D01*
X474085Y1667299D01*
X474121D01*
X474194Y1667263D01*
X474303Y1667190D01*
X474485Y1667117D01*
X474667Y1667044D01*
X474922Y1666971D01*
X475504Y1666753D01*
X476232Y1666571D01*
X477033Y1666389D01*
X477907Y1666243D01*
X478817Y1666207D01*
X479181D01*
X479399Y1666243D01*
X479618D01*
X480164Y1666316D01*
X480819Y1666389D01*
X481510Y1666534D01*
X482275Y1666753D01*
X483039Y1667008D01*
X483076D01*
X483148Y1667044D01*
X483221Y1667081D01*
X483367Y1667153D01*
X483767Y1667335D01*
X484204Y1667554D01*
X484714Y1667809D01*
X485260Y1668100D01*
X485769Y1668427D01*
X486206Y1668791D01*
Y1673523D01*
X478780D01*
Y1676508D01*
X489482D01*
Y1667153D01*
X489446Y1667117D01*
X489373Y1667081D01*
X489227Y1666971D01*
X489045Y1666826D01*
X488827Y1666680D01*
X488572Y1666498D01*
X488244Y1666280D01*
X487917Y1666061D01*
X487152Y1665588D01*
X486279Y1665079D01*
X485369Y1664605D01*
X484386Y1664205D01*
X484350D01*
X484277Y1664168D01*
X484131Y1664132D01*
X483949Y1664059D01*
X483694Y1663986D01*
X483403Y1663877D01*
X483076Y1663804D01*
X482748Y1663732D01*
X481947Y1663550D01*
X481037Y1663368D01*
X480054Y1663258D01*
X479035Y1663222D01*
X478671D01*
X478416Y1663258D01*
X478089D01*
X477688Y1663295D01*
X477252Y1663368D01*
X476778Y1663404D01*
X475723Y1663622D01*
X474594Y1663877D01*
X473430Y1664278D01*
X472847Y1664496D01*
X472265Y1664787D01*
X472228Y1664824D01*
X472119Y1664860D01*
X471974Y1664969D01*
X471755Y1665079D01*
X471500Y1665261D01*
X471246Y1665443D01*
X470554Y1665952D01*
X469826Y1666607D01*
X469062Y1667408D01*
X468334Y1668318D01*
X467678Y1669374D01*
Y1669410D01*
X467606Y1669519D01*
X467533Y1669665D01*
X467424Y1669920D01*
X467314Y1670175D01*
X467205Y1670539D01*
X467060Y1670902D01*
X466914Y1671339D01*
X466768Y1671812D01*
X466623Y1672359D01*
X466514Y1672905D01*
X466404Y1673487D01*
X466222Y1674761D01*
X466150Y1676108D01*
Y1676144D01*
Y1676290D01*
Y1676472D01*
X466186Y1676726D01*
Y1677054D01*
X466222Y1677455D01*
X466295Y1677855D01*
X466332Y1678328D01*
X466441Y1678838D01*
X466514Y1679384D01*
X466805Y1680549D01*
X467169Y1681750D01*
X467678Y1682951D01*
X467715Y1682987D01*
X467751Y1683097D01*
X467824Y1683242D01*
X467970Y1683460D01*
X468115Y1683752D01*
X468297Y1684043D01*
X468807Y1684735D01*
X469426Y1685535D01*
X470190Y1686300D01*
X471064Y1687064D01*
X471573Y1687392D01*
X472083Y1687719D01*
X472119Y1687756D01*
X472228Y1687792D01*
X472374Y1687865D01*
X472592Y1687974D01*
X472884Y1688083D01*
X473211Y1688229D01*
X473575Y1688374D01*
X474012Y1688520D01*
X474485Y1688666D01*
X474995Y1688775D01*
X475541Y1688920D01*
X476123Y1689030D01*
X477397Y1689212D01*
X478052Y1689284D01*
X479217D01*
X479436Y1689248D01*
D02*
G37*
G36*
X461600Y1663659D02*
X458396D01*
Y1684735D01*
X451044Y1663659D01*
X448059D01*
X440779Y1685099D01*
Y1663659D01*
X437576D01*
Y1688848D01*
X442562D01*
X448532Y1670975D01*
Y1670939D01*
X448568Y1670866D01*
X448605Y1670757D01*
X448678Y1670575D01*
X448823Y1670138D01*
X449005Y1669592D01*
X449187Y1668973D01*
X449406Y1668354D01*
X449588Y1667772D01*
X449733Y1667263D01*
X449770Y1667335D01*
X449806Y1667517D01*
X449915Y1667845D01*
X450061Y1668282D01*
X450243Y1668864D01*
X450498Y1669556D01*
X450752Y1670357D01*
X451080Y1671303D01*
X457122Y1688848D01*
X461600D01*
Y1663659D01*
D02*
G37*
G36*
X515180D02*
X511395D01*
X508446Y1671303D01*
X497890D01*
X495160Y1663659D01*
X491630D01*
X501239Y1688848D01*
X504879D01*
X515180Y1663659D01*
D02*
G37*
G36*
X-413060Y1663823D02*
X-416846D01*
X-419794Y1671467D01*
X-430350D01*
X-433080Y1663823D01*
X-440324D01*
X-443272Y1671467D01*
X-453828D01*
X-456558Y1663823D01*
X-460089D01*
X-450479Y1689012D01*
X-446839D01*
X-436576Y1663915D01*
X-427001Y1689012D01*
X-423361D01*
X-413060Y1663823D01*
D02*
G37*
G36*
X-469225Y1689084D02*
X-468934Y1689048D01*
X-468570Y1689012D01*
X-468170Y1688939D01*
X-467769Y1688866D01*
X-466823Y1688611D01*
X-465877Y1688247D01*
X-465403Y1688029D01*
X-464930Y1687774D01*
X-464493Y1687446D01*
X-464093Y1687082D01*
X-464057Y1687046D01*
X-463984Y1687009D01*
X-463911Y1686864D01*
X-463765Y1686718D01*
X-463583Y1686536D01*
X-463401Y1686282D01*
X-463219Y1686027D01*
X-463001Y1685699D01*
X-462637Y1685007D01*
X-462273Y1684134D01*
X-462127Y1683697D01*
X-462055Y1683188D01*
X-461982Y1682678D01*
X-461945Y1682132D01*
Y1682059D01*
Y1681877D01*
X-461982Y1681586D01*
X-462018Y1681186D01*
X-462091Y1680749D01*
X-462236Y1680239D01*
X-462382Y1679693D01*
X-462601Y1679147D01*
X-462637Y1679074D01*
X-462710Y1678892D01*
X-462855Y1678601D01*
X-463074Y1678201D01*
X-463365Y1677764D01*
X-463729Y1677218D01*
X-464166Y1676672D01*
X-464675Y1676053D01*
X-464748Y1675980D01*
X-464930Y1675762D01*
X-465112Y1675580D01*
X-465294Y1675398D01*
X-465512Y1675179D01*
X-465804Y1674888D01*
X-466095Y1674597D01*
X-466459Y1674270D01*
X-466823Y1673906D01*
X-467260Y1673505D01*
X-467733Y1673105D01*
X-468243Y1672631D01*
X-468825Y1672158D01*
X-469407Y1671649D01*
X-469444Y1671612D01*
X-469517Y1671540D01*
X-469662Y1671430D01*
X-469844Y1671285D01*
X-470062Y1671066D01*
X-470317Y1670848D01*
X-470900Y1670375D01*
X-471519Y1669829D01*
X-472101Y1669283D01*
X-472611Y1668810D01*
X-472829Y1668628D01*
X-473011Y1668446D01*
X-473047Y1668409D01*
X-473156Y1668300D01*
X-473302Y1668154D01*
X-473484Y1667936D01*
X-473666Y1667681D01*
X-473885Y1667426D01*
X-474321Y1666807D01*
X-461909D01*
Y1663823D01*
X-478616D01*
Y1663859D01*
Y1664005D01*
Y1664223D01*
X-478580Y1664514D01*
X-478544Y1664842D01*
X-478471Y1665206D01*
X-478398Y1665570D01*
X-478252Y1665970D01*
Y1666007D01*
X-478216Y1666043D01*
X-478143Y1666262D01*
X-477998Y1666589D01*
X-477779Y1667026D01*
X-477488Y1667535D01*
X-477124Y1668118D01*
X-476724Y1668700D01*
X-476214Y1669319D01*
Y1669355D01*
X-476141Y1669392D01*
X-475959Y1669610D01*
X-475632Y1669938D01*
X-475159Y1670411D01*
X-474613Y1670957D01*
X-473921Y1671612D01*
X-473084Y1672340D01*
X-472174Y1673105D01*
X-472137Y1673141D01*
X-471992Y1673250D01*
X-471773Y1673432D01*
X-471519Y1673651D01*
X-471191Y1673942D01*
X-470791Y1674270D01*
X-470390Y1674633D01*
X-469917Y1675034D01*
X-469007Y1675908D01*
X-468097Y1676781D01*
X-467660Y1677218D01*
X-467260Y1677655D01*
X-466896Y1678055D01*
X-466604Y1678456D01*
Y1678492D01*
X-466532Y1678528D01*
X-466459Y1678638D01*
X-466386Y1678783D01*
X-466131Y1679184D01*
X-465840Y1679657D01*
X-465585Y1680239D01*
X-465330Y1680858D01*
X-465185Y1681550D01*
X-465112Y1682205D01*
Y1682241D01*
Y1682277D01*
X-465149Y1682496D01*
X-465185Y1682860D01*
X-465294Y1683260D01*
X-465440Y1683770D01*
X-465695Y1684280D01*
X-466022Y1684789D01*
X-466459Y1685299D01*
X-466532Y1685371D01*
X-466714Y1685517D01*
X-466969Y1685699D01*
X-467369Y1685954D01*
X-467878Y1686172D01*
X-468461Y1686391D01*
X-469152Y1686536D01*
X-469917Y1686573D01*
X-470135D01*
X-470281Y1686536D01*
X-470718Y1686500D01*
X-471227Y1686391D01*
X-471773Y1686245D01*
X-472392Y1685990D01*
X-472974Y1685663D01*
X-473521Y1685226D01*
X-473593Y1685153D01*
X-473739Y1684971D01*
X-473957Y1684680D01*
X-474176Y1684243D01*
X-474430Y1683734D01*
X-474649Y1683078D01*
X-474795Y1682350D01*
X-474867Y1681513D01*
X-478034Y1681841D01*
Y1681877D01*
X-477998Y1681986D01*
Y1682168D01*
X-477961Y1682423D01*
X-477889Y1682714D01*
X-477816Y1683042D01*
X-477707Y1683442D01*
X-477597Y1683843D01*
X-477306Y1684716D01*
X-476869Y1685590D01*
X-476615Y1686027D01*
X-476287Y1686464D01*
X-475959Y1686864D01*
X-475595Y1687228D01*
X-475559Y1687264D01*
X-475486Y1687301D01*
X-475377Y1687410D01*
X-475195Y1687519D01*
X-474976Y1687665D01*
X-474722Y1687810D01*
X-474430Y1687992D01*
X-474067Y1688174D01*
X-473666Y1688356D01*
X-473229Y1688538D01*
X-472756Y1688684D01*
X-472247Y1688830D01*
X-471700Y1688939D01*
X-471118Y1689048D01*
X-470499Y1689084D01*
X-469844Y1689121D01*
X-469480D01*
X-469225Y1689084D01*
D02*
G37*
G36*
X-508392D02*
X-508101Y1689048D01*
X-507736Y1689012D01*
X-507336Y1688939D01*
X-506936Y1688866D01*
X-505989Y1688611D01*
X-505043Y1688247D01*
X-504570Y1688029D01*
X-504096Y1687774D01*
X-503660Y1687446D01*
X-503259Y1687082D01*
X-503223Y1687046D01*
X-503150Y1687009D01*
X-503077Y1686864D01*
X-502932Y1686718D01*
X-502750Y1686536D01*
X-502568Y1686282D01*
X-502386Y1686027D01*
X-502167Y1685699D01*
X-501803Y1685007D01*
X-501439Y1684134D01*
X-501294Y1683697D01*
X-501221Y1683188D01*
X-501148Y1682678D01*
X-501112Y1682132D01*
Y1682059D01*
Y1681877D01*
X-501148Y1681586D01*
X-501185Y1681186D01*
X-501257Y1680749D01*
X-501403Y1680239D01*
X-501548Y1679693D01*
X-501767Y1679147D01*
X-501803Y1679074D01*
X-501876Y1678892D01*
X-502022Y1678601D01*
X-502240Y1678201D01*
X-502531Y1677764D01*
X-502895Y1677218D01*
X-503332Y1676672D01*
X-503842Y1676053D01*
X-503914Y1675980D01*
X-504096Y1675762D01*
X-504279Y1675580D01*
X-504461Y1675398D01*
X-504679Y1675179D01*
X-504970Y1674888D01*
X-505261Y1674597D01*
X-505625Y1674270D01*
X-505989Y1673906D01*
X-506426Y1673505D01*
X-506899Y1673105D01*
X-507409Y1672631D01*
X-507991Y1672158D01*
X-508574Y1671649D01*
X-508610Y1671612D01*
X-508683Y1671540D01*
X-508829Y1671430D01*
X-509010Y1671285D01*
X-509229Y1671066D01*
X-509484Y1670848D01*
X-510066Y1670375D01*
X-510685Y1669829D01*
X-511267Y1669283D01*
X-511777Y1668810D01*
X-511995Y1668628D01*
X-512177Y1668446D01*
X-512214Y1668409D01*
X-512323Y1668300D01*
X-512468Y1668154D01*
X-512650Y1667936D01*
X-512832Y1667681D01*
X-513051Y1667426D01*
X-513488Y1666807D01*
X-501075D01*
Y1663823D01*
X-517783D01*
Y1663859D01*
Y1664005D01*
Y1664223D01*
X-517746Y1664514D01*
X-517710Y1664842D01*
X-517637Y1665206D01*
X-517564Y1665570D01*
X-517419Y1665970D01*
Y1666007D01*
X-517383Y1666043D01*
X-517310Y1666262D01*
X-517164Y1666589D01*
X-516946Y1667026D01*
X-516654Y1667535D01*
X-516290Y1668118D01*
X-515890Y1668700D01*
X-515380Y1669319D01*
Y1669355D01*
X-515308Y1669392D01*
X-515126Y1669610D01*
X-514798Y1669938D01*
X-514325Y1670411D01*
X-513779Y1670957D01*
X-513087Y1671612D01*
X-512250Y1672340D01*
X-511340Y1673105D01*
X-511304Y1673141D01*
X-511158Y1673250D01*
X-510940Y1673432D01*
X-510685Y1673651D01*
X-510357Y1673942D01*
X-509957Y1674270D01*
X-509557Y1674633D01*
X-509083Y1675034D01*
X-508173Y1675908D01*
X-507263Y1676781D01*
X-506827Y1677218D01*
X-506426Y1677655D01*
X-506062Y1678055D01*
X-505771Y1678456D01*
Y1678492D01*
X-505698Y1678528D01*
X-505625Y1678638D01*
X-505553Y1678783D01*
X-505298Y1679184D01*
X-505007Y1679657D01*
X-504752Y1680239D01*
X-504497Y1680858D01*
X-504351Y1681550D01*
X-504279Y1682205D01*
Y1682241D01*
Y1682277D01*
X-504315Y1682496D01*
X-504351Y1682860D01*
X-504461Y1683260D01*
X-504606Y1683770D01*
X-504861Y1684280D01*
X-505188Y1684789D01*
X-505625Y1685299D01*
X-505698Y1685371D01*
X-505880Y1685517D01*
X-506135Y1685699D01*
X-506535Y1685954D01*
X-507045Y1686172D01*
X-507627Y1686391D01*
X-508319Y1686536D01*
X-509083Y1686573D01*
X-509302D01*
X-509447Y1686536D01*
X-509884Y1686500D01*
X-510394Y1686391D01*
X-510940Y1686245D01*
X-511558Y1685990D01*
X-512141Y1685663D01*
X-512687Y1685226D01*
X-512760Y1685153D01*
X-512905Y1684971D01*
X-513124Y1684680D01*
X-513342Y1684243D01*
X-513597Y1683734D01*
X-513815Y1683078D01*
X-513961Y1682350D01*
X-514034Y1681513D01*
X-517201Y1681841D01*
Y1681877D01*
X-517164Y1681986D01*
Y1682168D01*
X-517128Y1682423D01*
X-517055Y1682714D01*
X-516982Y1683042D01*
X-516873Y1683442D01*
X-516764Y1683843D01*
X-516472Y1684716D01*
X-516036Y1685590D01*
X-515781Y1686027D01*
X-515453Y1686464D01*
X-515126Y1686864D01*
X-514762Y1687228D01*
X-514725Y1687264D01*
X-514653Y1687301D01*
X-514543Y1687410D01*
X-514361Y1687519D01*
X-514143Y1687665D01*
X-513888Y1687810D01*
X-513597Y1687992D01*
X-513233Y1688174D01*
X-512832Y1688356D01*
X-512396Y1688538D01*
X-511923Y1688684D01*
X-511413Y1688830D01*
X-510867Y1688939D01*
X-510284Y1689048D01*
X-509666Y1689084D01*
X-509010Y1689121D01*
X-508647D01*
X-508392Y1689084D01*
D02*
G37*
G36*
X-529540Y1688975D02*
X-529249D01*
X-528594Y1688902D01*
X-527866Y1688830D01*
X-527101Y1688684D01*
X-526337Y1688502D01*
X-525645Y1688247D01*
X-525609D01*
X-525572Y1688211D01*
X-525354Y1688101D01*
X-525027Y1687919D01*
X-524663Y1687665D01*
X-524226Y1687337D01*
X-523753Y1686937D01*
X-523316Y1686427D01*
X-522915Y1685881D01*
X-522879Y1685808D01*
X-522770Y1685590D01*
X-522588Y1685299D01*
X-522406Y1684862D01*
X-522224Y1684352D01*
X-522042Y1683806D01*
X-521933Y1683188D01*
X-521896Y1682569D01*
Y1682496D01*
Y1682314D01*
X-521933Y1681986D01*
X-522005Y1681586D01*
X-522115Y1681113D01*
X-522297Y1680603D01*
X-522515Y1680093D01*
X-522806Y1679547D01*
X-522842Y1679475D01*
X-522952Y1679329D01*
X-523170Y1679038D01*
X-523461Y1678747D01*
X-523825Y1678383D01*
X-524262Y1677982D01*
X-524808Y1677618D01*
X-525427Y1677254D01*
X-525390D01*
X-525318Y1677218D01*
X-525208Y1677181D01*
X-525063Y1677109D01*
X-524626Y1676963D01*
X-524116Y1676708D01*
X-523571Y1676381D01*
X-522952Y1675980D01*
X-522406Y1675507D01*
X-521896Y1674925D01*
X-521860Y1674852D01*
X-521714Y1674633D01*
X-521496Y1674306D01*
X-521277Y1673869D01*
X-521059Y1673287D01*
X-520841Y1672668D01*
X-520695Y1671940D01*
X-520659Y1671139D01*
Y1671103D01*
Y1671066D01*
Y1670848D01*
X-520695Y1670484D01*
X-520768Y1670047D01*
X-520841Y1669537D01*
X-520986Y1668992D01*
X-521168Y1668409D01*
X-521423Y1667827D01*
X-521459Y1667754D01*
X-521568Y1667572D01*
X-521714Y1667317D01*
X-521933Y1666953D01*
X-522224Y1666589D01*
X-522515Y1666189D01*
X-522879Y1665788D01*
X-523279Y1665461D01*
X-523316Y1665424D01*
X-523461Y1665315D01*
X-523716Y1665169D01*
X-524044Y1665024D01*
X-524444Y1664805D01*
X-524917Y1664587D01*
X-525427Y1664405D01*
X-526046Y1664223D01*
X-526119D01*
X-526337Y1664150D01*
X-526701Y1664114D01*
X-527174Y1664041D01*
X-527756Y1663968D01*
X-528448Y1663896D01*
X-529212Y1663859D01*
X-530086Y1663823D01*
X-539696D01*
Y1689012D01*
X-529795D01*
X-529540Y1688975D01*
D02*
G37*
G36*
X-488808Y1689084D02*
X-488335Y1689012D01*
X-487789Y1688902D01*
X-487207Y1688757D01*
X-486588Y1688575D01*
X-486006Y1688284D01*
X-485969D01*
X-485933Y1688247D01*
X-485751Y1688138D01*
X-485460Y1687956D01*
X-485096Y1687701D01*
X-484695Y1687337D01*
X-484259Y1686937D01*
X-483858Y1686464D01*
X-483458Y1685918D01*
X-483421Y1685845D01*
X-483276Y1685663D01*
X-483130Y1685335D01*
X-482875Y1684862D01*
X-482657Y1684316D01*
X-482366Y1683697D01*
X-482111Y1682969D01*
X-481892Y1682168D01*
Y1682132D01*
X-481856Y1682059D01*
X-481820Y1681950D01*
X-481783Y1681768D01*
X-481747Y1681550D01*
X-481711Y1681295D01*
X-481638Y1680967D01*
X-481601Y1680603D01*
X-481529Y1680203D01*
X-481492Y1679766D01*
X-481456Y1679256D01*
X-481383Y1678747D01*
X-481346Y1678164D01*
Y1677582D01*
X-481310Y1676927D01*
Y1676235D01*
Y1676199D01*
Y1676053D01*
Y1675798D01*
Y1675507D01*
X-481346Y1675107D01*
Y1674670D01*
X-481383Y1674197D01*
X-481419Y1673687D01*
X-481529Y1672522D01*
X-481711Y1671321D01*
X-481929Y1670156D01*
X-482075Y1669610D01*
X-482257Y1669064D01*
Y1669028D01*
X-482293Y1668955D01*
X-482366Y1668810D01*
X-482438Y1668628D01*
X-482511Y1668373D01*
X-482657Y1668118D01*
X-482948Y1667499D01*
X-483312Y1666844D01*
X-483785Y1666116D01*
X-484331Y1665461D01*
X-484986Y1664842D01*
X-485023D01*
X-485059Y1664769D01*
X-485168Y1664696D01*
X-485314Y1664623D01*
X-485496Y1664514D01*
X-485678Y1664369D01*
X-486224Y1664114D01*
X-486879Y1663859D01*
X-487644Y1663604D01*
X-488554Y1663459D01*
X-489536Y1663386D01*
X-489901D01*
X-490155Y1663422D01*
X-490447Y1663459D01*
X-490810Y1663532D01*
X-491211Y1663604D01*
X-491648Y1663714D01*
X-492084Y1663859D01*
X-492558Y1664005D01*
X-493031Y1664223D01*
X-493504Y1664478D01*
X-493977Y1664769D01*
X-494450Y1665133D01*
X-494887Y1665534D01*
X-495288Y1665970D01*
X-495324Y1666007D01*
X-495397Y1666116D01*
X-495506Y1666298D01*
X-495688Y1666589D01*
X-495870Y1666917D01*
X-496052Y1667353D01*
X-496307Y1667863D01*
X-496525Y1668446D01*
X-496744Y1669101D01*
X-496962Y1669865D01*
X-497180Y1670702D01*
X-497363Y1671649D01*
X-497545Y1672668D01*
X-497654Y1673760D01*
X-497726Y1674961D01*
X-497763Y1676235D01*
Y1676272D01*
Y1676417D01*
Y1676672D01*
Y1676963D01*
X-497726Y1677363D01*
Y1677800D01*
X-497690Y1678274D01*
X-497654Y1678820D01*
X-497545Y1679948D01*
X-497363Y1681149D01*
X-497144Y1682350D01*
X-496998Y1682896D01*
X-496853Y1683442D01*
Y1683479D01*
X-496817Y1683552D01*
X-496744Y1683697D01*
X-496671Y1683879D01*
X-496598Y1684134D01*
X-496452Y1684389D01*
X-496161Y1685007D01*
X-495797Y1685663D01*
X-495324Y1686354D01*
X-494778Y1687046D01*
X-494123Y1687628D01*
X-494087D01*
X-494050Y1687701D01*
X-493941Y1687774D01*
X-493795Y1687847D01*
X-493613Y1687992D01*
X-493395Y1688101D01*
X-492849Y1688393D01*
X-492194Y1688648D01*
X-491429Y1688902D01*
X-490519Y1689048D01*
X-489536Y1689121D01*
X-489209D01*
X-488808Y1689084D01*
D02*
G37*
%LPC*%
G36*
X201929Y980315D02*
X174370D01*
Y974602D01*
X148721D01*
X144314Y977547D01*
X138937Y978616D01*
X133560Y977547D01*
X129002Y974501D01*
X125957Y969943D01*
X124888Y964567D01*
X125957Y959190D01*
X129002Y954632D01*
X133560Y951587D01*
X138937Y950517D01*
X144314Y951587D01*
X148721Y954532D01*
X174370D01*
Y948819D01*
X201929D01*
Y980315D01*
D02*
G37*
G36*
X314724Y978740D02*
X305472D01*
Y968504D01*
X314724D01*
Y978740D01*
D02*
G37*
G36*
X297598D02*
X288346D01*
Y968504D01*
X297598D01*
Y978740D01*
D02*
G37*
G36*
X314724Y960630D02*
X305472D01*
Y950394D01*
X314724D01*
Y960630D01*
D02*
G37*
G36*
X297598D02*
X288346D01*
Y950394D01*
X297598D01*
Y960630D01*
D02*
G37*
G36*
X237362Y980315D02*
X209803D01*
Y948819D01*
X237362D01*
Y954532D01*
X254488D01*
Y950394D01*
X280866D01*
Y978740D01*
X254488D01*
Y974602D01*
X237362D01*
Y980315D01*
D02*
G37*
G36*
X34134Y1017986D02*
X28757Y1016917D01*
X24199Y1013871D01*
X21154Y1009313D01*
X20084Y1003937D01*
X21154Y998561D01*
X24099Y994153D01*
Y978346D01*
X16417D01*
Y931102D01*
X51850D01*
Y978346D01*
X44169D01*
Y994153D01*
X47114Y998561D01*
X48183Y1003937D01*
X47114Y1009313D01*
X44068Y1013871D01*
X39510Y1016917D01*
X34134Y1017986D01*
D02*
G37*
G36*
X-65866D02*
X-71243Y1016917D01*
X-75801Y1013871D01*
X-78846Y1009313D01*
X-79916Y1003937D01*
X-78846Y998561D01*
X-75901Y994153D01*
Y978346D01*
X-83583D01*
Y931102D01*
X-48150D01*
Y978346D01*
X-55831D01*
Y994153D01*
X-52886Y998561D01*
X-51817Y1003937D01*
X-52886Y1009313D01*
X-55932Y1013871D01*
X-60490Y1016917D01*
X-65866Y1017986D01*
D02*
G37*
G36*
X-165866D02*
X-171243Y1016917D01*
X-175801Y1013871D01*
X-178846Y1009313D01*
X-179916Y1003937D01*
X-178846Y998561D01*
X-175901Y994153D01*
Y978346D01*
X-183583D01*
Y931102D01*
X-148150D01*
Y978346D01*
X-155831D01*
Y994153D01*
X-152886Y998561D01*
X-151817Y1003937D01*
X-152886Y1009313D01*
X-155932Y1013871D01*
X-160490Y1016917D01*
X-165866Y1017986D01*
D02*
G37*
G36*
X-265866D02*
X-271243Y1016917D01*
X-275801Y1013871D01*
X-278846Y1009313D01*
X-279916Y1003937D01*
X-278846Y998561D01*
X-275901Y994153D01*
Y978346D01*
X-283583D01*
Y931102D01*
X-248150D01*
Y978346D01*
X-255831D01*
Y994153D01*
X-252886Y998561D01*
X-251817Y1003937D01*
X-252886Y1009313D01*
X-255932Y1013871D01*
X-260490Y1016917D01*
X-265866Y1017986D01*
D02*
G37*
G36*
X1850Y978346D02*
X-33583D01*
Y931102D01*
X-25901D01*
Y925787D01*
X-30039D01*
Y899409D01*
X-1693D01*
Y899409D01*
X3307Y899919D01*
X3757Y899618D01*
X9134Y898549D01*
X14510Y899618D01*
X14961Y899919D01*
X19961Y899409D01*
Y899409D01*
X48307D01*
Y925787D01*
X19961D01*
Y925787D01*
X14961Y925278D01*
X14510Y925578D01*
X9134Y926648D01*
X3757Y925578D01*
X3307Y925278D01*
X-1693Y925788D01*
X-1693D01*
X-2319Y926102D01*
X-1132Y931102D01*
X1850D01*
Y978346D01*
D02*
G37*
G36*
X-98150D02*
X-133583D01*
Y931102D01*
X-125901D01*
Y925787D01*
X-130039D01*
Y899409D01*
X-101693D01*
Y899409D01*
X-96693Y899919D01*
X-96243Y899618D01*
X-90866Y898549D01*
X-85490Y899618D01*
X-85039Y899919D01*
X-80039Y899409D01*
Y899409D01*
X-51693D01*
Y925787D01*
X-80039D01*
Y925787D01*
X-85039Y925278D01*
X-85490Y925578D01*
X-90866Y926648D01*
X-96243Y925578D01*
X-96693Y925278D01*
X-101693Y925788D01*
X-101693D01*
X-102319Y926102D01*
X-101132Y931102D01*
X-98150D01*
Y978346D01*
D02*
G37*
G36*
X-198150D02*
X-233583D01*
Y931102D01*
X-225901D01*
Y925787D01*
X-230039D01*
Y899409D01*
X-201693D01*
Y899409D01*
X-196693Y899919D01*
X-196243Y899618D01*
X-190866Y898549D01*
X-185490Y899618D01*
X-185039Y899919D01*
X-180039Y899409D01*
Y899409D01*
X-151693D01*
Y925787D01*
X-180039D01*
Y925787D01*
X-185039Y925278D01*
X-185490Y925578D01*
X-190866Y926648D01*
X-196243Y925578D01*
X-196693Y925278D01*
X-201693Y925788D01*
X-201693D01*
X-202319Y926102D01*
X-201132Y931102D01*
X-198150D01*
Y978346D01*
D02*
G37*
G36*
X-298150D02*
X-333583D01*
Y931102D01*
X-325901D01*
Y925787D01*
X-330039D01*
Y899409D01*
X-301693D01*
Y899409D01*
X-296693Y899919D01*
X-296243Y899618D01*
X-290866Y898549D01*
X-285490Y899618D01*
X-285039Y899919D01*
X-280039Y899409D01*
Y899409D01*
X-251693D01*
Y925787D01*
X-280039D01*
Y925787D01*
X-285039Y925278D01*
X-285490Y925578D01*
X-290866Y926648D01*
X-296243Y925578D01*
X-296693Y925278D01*
X-301693Y925788D01*
X-301693D01*
X-302319Y926102D01*
X-301132Y931102D01*
X-298150D01*
Y978346D01*
D02*
G37*
G36*
X-251693Y891929D02*
X-261929D01*
Y882677D01*
X-251693D01*
Y891929D01*
D02*
G37*
G36*
X-269803D02*
X-280039D01*
Y882677D01*
X-269803D01*
Y891929D01*
D02*
G37*
G36*
X48307D02*
X38071D01*
Y882677D01*
X48307D01*
Y891929D01*
D02*
G37*
G36*
X-1693D02*
X-11929D01*
Y882677D01*
X-1693D01*
Y891929D01*
D02*
G37*
G36*
X-51693D02*
X-61929D01*
Y882677D01*
X-51693D01*
Y891929D01*
D02*
G37*
G36*
X-101693D02*
X-111929D01*
Y882677D01*
X-101693D01*
Y891929D01*
D02*
G37*
G36*
X-151693D02*
X-161929D01*
Y882677D01*
X-151693D01*
Y891929D01*
D02*
G37*
G36*
X-201693D02*
X-211929D01*
Y882677D01*
X-201693D01*
Y891929D01*
D02*
G37*
G36*
X-301693D02*
X-311929D01*
Y882677D01*
X-301693D01*
Y891929D01*
D02*
G37*
G36*
X30197D02*
X19961D01*
Y882677D01*
X30197D01*
Y891929D01*
D02*
G37*
G36*
X-19803D02*
X-30039D01*
Y882677D01*
X-19803D01*
Y891929D01*
D02*
G37*
G36*
X-69803D02*
X-80039D01*
Y882677D01*
X-69803D01*
Y891929D01*
D02*
G37*
G36*
X-119803D02*
X-130039D01*
Y882677D01*
X-119803D01*
Y891929D01*
D02*
G37*
G36*
X-169803D02*
X-180039D01*
Y882677D01*
X-169803D01*
Y891929D01*
D02*
G37*
G36*
X-219803D02*
X-230039D01*
Y882677D01*
X-219803D01*
Y891929D01*
D02*
G37*
G36*
X-319803D02*
X-330039D01*
Y882677D01*
X-319803D01*
Y891929D01*
D02*
G37*
G36*
X48307Y874803D02*
X38071D01*
Y865551D01*
X48307D01*
Y874803D01*
D02*
G37*
G36*
X30197D02*
X19961D01*
Y865551D01*
X30197D01*
Y874803D01*
D02*
G37*
G36*
X-1693D02*
X-11929D01*
Y865551D01*
X-1693D01*
Y874803D01*
D02*
G37*
G36*
X-19803D02*
X-30039D01*
Y865551D01*
X-19803D01*
Y874803D01*
D02*
G37*
G36*
X-51693D02*
X-61929D01*
Y865551D01*
X-51693D01*
Y874803D01*
D02*
G37*
G36*
X-69803D02*
X-80039D01*
Y865551D01*
X-69803D01*
Y874803D01*
D02*
G37*
G36*
X-101693D02*
X-111929D01*
Y865551D01*
X-101693D01*
Y874803D01*
D02*
G37*
G36*
X-119803D02*
X-130039D01*
Y865551D01*
X-119803D01*
Y874803D01*
D02*
G37*
G36*
X-151693D02*
X-161929D01*
Y865551D01*
X-151693D01*
Y874803D01*
D02*
G37*
G36*
X-169803D02*
X-180039D01*
Y865551D01*
X-169803D01*
Y874803D01*
D02*
G37*
G36*
X-201693D02*
X-211929D01*
Y865551D01*
X-201693D01*
Y874803D01*
D02*
G37*
G36*
X-219803D02*
X-230039D01*
Y865551D01*
X-219803D01*
Y874803D01*
D02*
G37*
G36*
X-251693Y874803D02*
X-261929D01*
Y865551D01*
X-251693D01*
Y874803D01*
D02*
G37*
G36*
X-269803D02*
X-280039D01*
Y865551D01*
X-269803D01*
Y874803D01*
D02*
G37*
G36*
X-301693Y874803D02*
X-311929D01*
Y865551D01*
X-301693D01*
Y874803D01*
D02*
G37*
G36*
X-319803D02*
X-330039D01*
Y865551D01*
X-319803D01*
Y874803D01*
D02*
G37*
G36*
X111418Y557087D02*
X102165D01*
Y546851D01*
X111418D01*
Y557087D01*
D02*
G37*
G36*
Y535827D02*
X102165D01*
Y525591D01*
X111418D01*
Y535827D01*
D02*
G37*
G36*
Y517717D02*
X102165D01*
Y507480D01*
X111418D01*
Y517717D01*
D02*
G37*
G36*
X393701Y748028D02*
X-393701D01*
X-396773Y747417D01*
X-399378Y745677D01*
X-401118Y743072D01*
X-401729Y740000D01*
Y492126D01*
X-401118Y489054D01*
X-399378Y486449D01*
X-396773Y484709D01*
X-393701Y484098D01*
X67250D01*
X67447Y483858D01*
X68516Y478482D01*
X71461Y474075D01*
Y455906D01*
X62992D01*
Y408661D01*
X129921D01*
Y422248D01*
X168560D01*
X176776Y414032D01*
Y405512D01*
X171063D01*
Y346457D01*
X176776D01*
Y337008D01*
X173622D01*
Y308661D01*
X200000D01*
Y337008D01*
X196846D01*
Y346457D01*
X202559D01*
Y405512D01*
X196846D01*
Y418189D01*
X196082Y422029D01*
X193907Y425285D01*
X179812Y439380D01*
X176557Y441555D01*
X172716Y442319D01*
X129921D01*
Y455906D01*
X91531D01*
Y474075D01*
X94476Y478482D01*
X95546Y483858D01*
X94476Y489235D01*
X91531Y493642D01*
Y507480D01*
X94685D01*
Y535827D01*
X91531D01*
Y546851D01*
X94685D01*
Y563746D01*
X96318Y565294D01*
X97609Y565780D01*
X98767Y564961D01*
X115355D01*
Y561024D01*
X119291D01*
Y546851D01*
X124452D01*
Y542914D01*
X124452Y542913D01*
Y539765D01*
X124452Y539764D01*
Y535827D01*
X119291D01*
Y521654D01*
Y505445D01*
X121376Y503543D01*
Y492126D01*
X121987Y489054D01*
X123727Y486449D01*
X126332Y484709D01*
X129404Y484098D01*
X393701D01*
X396773Y484709D01*
X399378Y486449D01*
X401118Y489054D01*
X401729Y492126D01*
Y740000D01*
X401118Y743072D01*
X399378Y745677D01*
X396773Y747417D01*
X393701Y748028D01*
D02*
G37*
G36*
X352559Y405512D02*
X340748D01*
Y379921D01*
X352559D01*
Y405512D01*
D02*
G37*
G36*
X332874D02*
X321063D01*
Y379921D01*
X332874D01*
Y405512D01*
D02*
G37*
G36*
X352559Y372047D02*
X340748D01*
Y346457D01*
X352559D01*
Y372047D01*
D02*
G37*
G36*
X332874D02*
X321063D01*
Y346457D01*
X332874D01*
Y372047D01*
D02*
G37*
G36*
X286811Y439246D02*
X281435Y438177D01*
X276877Y435131D01*
X273831Y430573D01*
X272762Y425197D01*
X273831Y419820D01*
X276776Y415413D01*
Y405512D01*
X271063D01*
Y346457D01*
X302559D01*
Y405512D01*
X296846D01*
Y415413D01*
X299791Y419820D01*
X300861Y425197D01*
X299791Y430573D01*
X296745Y435131D01*
X292188Y438177D01*
X286811Y439246D01*
D02*
G37*
G36*
X236811D02*
X231435Y438177D01*
X226876Y435131D01*
X223831Y430573D01*
X222762Y425197D01*
X223831Y419820D01*
X226776Y415413D01*
Y405512D01*
X221063D01*
Y346457D01*
X252559D01*
Y405512D01*
X246846D01*
Y415413D01*
X249791Y419820D01*
X250861Y425197D01*
X249791Y430573D01*
X246745Y435131D01*
X242188Y438177D01*
X236811Y439246D01*
D02*
G37*
G36*
X129921Y355906D02*
X100394D01*
Y336221D01*
X129921D01*
Y355906D01*
D02*
G37*
G36*
X92520D02*
X62992D01*
Y336221D01*
X92520D01*
Y355906D01*
D02*
G37*
G36*
X233858Y337008D02*
X224606D01*
Y326772D01*
X233858D01*
Y337008D01*
D02*
G37*
G36*
X216732D02*
X207480D01*
Y326772D01*
X216732D01*
Y337008D01*
D02*
G37*
G36*
X233858Y318898D02*
X224606D01*
Y308661D01*
X233858D01*
Y318898D01*
D02*
G37*
G36*
X216732D02*
X207480D01*
Y308661D01*
X216732D01*
Y318898D01*
D02*
G37*
G36*
X129921Y328347D02*
X100394D01*
Y308661D01*
X129921D01*
Y328347D01*
D02*
G37*
G36*
X92520D02*
X62992D01*
Y308661D01*
X92520D01*
Y328347D01*
D02*
G37*
G36*
X-287402Y355906D02*
X-354331D01*
Y308661D01*
X-287402D01*
Y355906D01*
D02*
G37*
G36*
X149606Y137123D02*
X146534Y136512D01*
X143929Y134771D01*
X142189Y132167D01*
X141578Y129095D01*
X142189Y126022D01*
X143929Y123418D01*
X146534Y121677D01*
X149606Y121066D01*
X152679Y121677D01*
X155283Y123418D01*
X157024Y126022D01*
X157635Y129095D01*
X157024Y132167D01*
X155283Y134771D01*
X152679Y136512D01*
X149606Y137123D01*
D02*
G37*
G36*
X118110D02*
X115038Y136512D01*
X112433Y134771D01*
X110693Y132167D01*
X110082Y129095D01*
X110693Y126022D01*
X112433Y123418D01*
X115038Y121677D01*
X118110Y121066D01*
X121183Y121677D01*
X123787Y123418D01*
X125527Y126022D01*
X126138Y129095D01*
X125527Y132167D01*
X123787Y134771D01*
X121183Y136512D01*
X118110Y137123D01*
D02*
G37*
G36*
X86614D02*
X83542Y136512D01*
X80937Y134771D01*
X79197Y132167D01*
X78586Y129095D01*
X79197Y126022D01*
X80937Y123418D01*
X83542Y121677D01*
X86614Y121066D01*
X89686Y121677D01*
X92291Y123418D01*
X94031Y126022D01*
X94642Y129095D01*
X94031Y132167D01*
X92291Y134771D01*
X89686Y136512D01*
X86614Y137123D01*
D02*
G37*
G36*
X55118D02*
X52046Y136512D01*
X49441Y134771D01*
X47701Y132167D01*
X47090Y129095D01*
X47701Y126022D01*
X49441Y123418D01*
X52046Y121677D01*
X55118Y121066D01*
X58190Y121677D01*
X60795Y123418D01*
X62535Y126022D01*
X63146Y129095D01*
X62535Y132167D01*
X60795Y134771D01*
X58190Y136512D01*
X55118Y137123D01*
D02*
G37*
G36*
X-7874D02*
X-10946Y136512D01*
X-13551Y134771D01*
X-15291Y132167D01*
X-15902Y129095D01*
X-15291Y126022D01*
X-13551Y123418D01*
X-10946Y121677D01*
X-7874Y121066D01*
X-4802Y121677D01*
X-2197Y123418D01*
X-457Y126022D01*
X154Y129095D01*
X-457Y132167D01*
X-2197Y134771D01*
X-4802Y136512D01*
X-7874Y137123D01*
D02*
G37*
G36*
X-39370D02*
X-42442Y136512D01*
X-45047Y134771D01*
X-46787Y132167D01*
X-47398Y129095D01*
X-46787Y126022D01*
X-45047Y123418D01*
X-42442Y121677D01*
X-39370Y121066D01*
X-36298Y121677D01*
X-33693Y123418D01*
X-31953Y126022D01*
X-31342Y129095D01*
X-31953Y132167D01*
X-33693Y134771D01*
X-36298Y136512D01*
X-39370Y137123D01*
D02*
G37*
%LPD*%
G36*
X393701Y492126D02*
X129404D01*
Y503543D01*
X132480D01*
Y539764D01*
X132480D01*
Y542914D01*
X132480D01*
Y579134D01*
X98228D01*
Y578713D01*
X94685Y575197D01*
X68307D01*
Y546851D01*
X71461D01*
Y535827D01*
X68307D01*
Y507480D01*
X71461D01*
Y493310D01*
X70276Y492126D01*
X-393701D01*
Y740000D01*
X393701D01*
Y492126D01*
D02*
G37*
%LPC*%
G36*
X261796Y732835D02*
X256314D01*
X251250Y730737D01*
X249603Y729090D01*
X209055D01*
X205215Y728327D01*
X201959Y726151D01*
X179715Y703907D01*
X177540Y700651D01*
X176776Y696811D01*
Y655905D01*
X173622D01*
Y627559D01*
X176776D01*
Y618110D01*
X171063D01*
Y559055D01*
X202559D01*
Y618110D01*
X196846D01*
Y627559D01*
X200000D01*
Y655905D01*
X196846D01*
Y692654D01*
X213212Y709020D01*
X249603D01*
X251250Y707373D01*
X256314Y705276D01*
X261796D01*
X266861Y707373D01*
X270737Y711250D01*
X272835Y716314D01*
Y721796D01*
X270737Y726861D01*
X266861Y730737D01*
X261796Y732835D01*
D02*
G37*
G36*
X233858Y655905D02*
X224606D01*
Y645669D01*
X233858D01*
Y655905D01*
D02*
G37*
G36*
X216732D02*
X207480D01*
Y645669D01*
X216732D01*
Y655905D01*
D02*
G37*
G36*
X129921D02*
X100394D01*
Y636221D01*
X129921D01*
Y655905D01*
D02*
G37*
G36*
X92520D02*
X62992D01*
Y636221D01*
X92520D01*
Y655905D01*
D02*
G37*
G36*
X233858Y637795D02*
X224606D01*
Y627559D01*
X233858D01*
Y637795D01*
D02*
G37*
G36*
X216732D02*
X207480D01*
Y627559D01*
X216732D01*
Y637795D01*
D02*
G37*
G36*
X129921Y628347D02*
X100394D01*
Y608662D01*
X129921D01*
Y628347D01*
D02*
G37*
G36*
X92520D02*
X62992D01*
Y608662D01*
X92520D01*
Y628347D01*
D02*
G37*
G36*
X352559Y618110D02*
X340748D01*
Y592520D01*
X352559D01*
Y618110D01*
D02*
G37*
G36*
X332874D02*
X321063D01*
Y592520D01*
X332874D01*
Y618110D01*
D02*
G37*
G36*
X-290748Y575197D02*
X-300000D01*
Y564961D01*
X-290748D01*
Y575197D01*
D02*
G37*
G36*
X-307874D02*
X-317126D01*
Y564961D01*
X-307874D01*
Y575197D01*
D02*
G37*
G36*
X352559Y584646D02*
X340748D01*
Y559055D01*
X352559D01*
Y584646D01*
D02*
G37*
G36*
X332874D02*
X321063D01*
Y559055D01*
X332874D01*
Y584646D01*
D02*
G37*
G36*
X-290748Y557087D02*
X-300000D01*
Y546851D01*
X-290748D01*
Y557087D01*
D02*
G37*
G36*
X-307874D02*
X-317126D01*
Y546851D01*
X-307874D01*
Y557087D01*
D02*
G37*
G36*
X252559Y618110D02*
X221063D01*
Y559055D01*
X226776D01*
Y549137D01*
X225129Y547490D01*
X223031Y542426D01*
Y536944D01*
X225129Y531880D01*
X229006Y528003D01*
X234070Y525905D01*
X239552D01*
X244617Y528003D01*
X248493Y531880D01*
X250590Y536944D01*
Y542426D01*
X248493Y547490D01*
X246846Y549137D01*
Y559055D01*
X252559D01*
Y618110D01*
D02*
G37*
G36*
X-290748Y535827D02*
X-300000D01*
Y525591D01*
X-290748D01*
Y535827D01*
D02*
G37*
G36*
X302559Y618110D02*
X271063D01*
Y559055D01*
X276776D01*
Y548822D01*
X275129Y547176D01*
X273031Y542111D01*
Y536629D01*
X275129Y531565D01*
X279005Y527688D01*
X284070Y525591D01*
X289552D01*
X294616Y527688D01*
X298493Y531565D01*
X300591Y536629D01*
Y542111D01*
X298493Y547176D01*
X296846Y548822D01*
Y559055D01*
X302559D01*
Y618110D01*
D02*
G37*
G36*
X-307874Y535827D02*
X-317126D01*
Y525591D01*
X-307874D01*
Y535827D01*
D02*
G37*
G36*
X-290748Y517717D02*
X-300000D01*
Y507480D01*
X-290748D01*
Y517717D01*
D02*
G37*
G36*
X-307874D02*
X-317126D01*
Y507480D01*
X-307874D01*
Y517717D01*
D02*
G37*
G36*
X-287402Y655905D02*
X-354331D01*
Y608662D01*
X-347830D01*
Y599216D01*
X-349477Y597569D01*
X-351575Y592505D01*
Y587023D01*
X-349477Y581958D01*
X-347830Y580312D01*
Y575197D01*
X-350984D01*
Y546851D01*
X-347830D01*
Y535827D01*
X-350984D01*
Y507480D01*
X-324606D01*
Y535827D01*
X-327760D01*
Y546851D01*
X-324606D01*
Y575197D01*
X-327760D01*
Y580312D01*
X-326113Y581958D01*
X-324016Y587023D01*
Y592505D01*
X-326113Y597569D01*
X-327760Y599216D01*
Y608662D01*
X-287402D01*
Y655905D01*
D02*
G37*
G36*
X502986Y1686227D02*
Y1686190D01*
X502950Y1686118D01*
Y1685972D01*
X502877Y1685826D01*
X502841Y1685572D01*
X502768Y1685317D01*
X502622Y1684698D01*
X502440Y1683970D01*
X502186Y1683169D01*
X501931Y1682296D01*
X501603Y1681386D01*
X498873Y1674033D01*
X507391D01*
X504770Y1680949D01*
Y1680985D01*
X504734Y1681094D01*
X504661Y1681276D01*
X504588Y1681495D01*
X504479Y1681750D01*
X504370Y1682077D01*
X504260Y1682441D01*
X504115Y1682805D01*
X503824Y1683642D01*
X503532Y1684516D01*
X503241Y1685390D01*
X502986Y1686227D01*
D02*
G37*
G36*
X-425254Y1686391D02*
Y1686354D01*
X-425291Y1686282D01*
Y1686136D01*
X-425363Y1685990D01*
X-425400Y1685736D01*
X-425473Y1685481D01*
X-425618Y1684862D01*
X-425800Y1684134D01*
X-426055Y1683333D01*
X-426310Y1682459D01*
X-426637Y1681550D01*
X-429367Y1674197D01*
X-420850D01*
X-423471Y1681113D01*
Y1681149D01*
X-423507Y1681258D01*
X-423580Y1681440D01*
X-423652Y1681659D01*
X-423762Y1681914D01*
X-423871Y1682241D01*
X-423980Y1682605D01*
X-424126Y1682969D01*
X-424417Y1683806D01*
X-424708Y1684680D01*
X-424999Y1685553D01*
X-425254Y1686391D01*
D02*
G37*
G36*
X-448732D02*
Y1686354D01*
X-448769Y1686282D01*
Y1686136D01*
X-448841Y1685990D01*
X-448878Y1685736D01*
X-448950Y1685481D01*
X-449096Y1684862D01*
X-449278Y1684134D01*
X-449533Y1683333D01*
X-449788Y1682459D01*
X-450115Y1681550D01*
X-452845Y1674197D01*
X-444328D01*
X-446949Y1681113D01*
Y1681149D01*
X-446985Y1681258D01*
X-447058Y1681440D01*
X-447130Y1681659D01*
X-447240Y1681914D01*
X-447349Y1682241D01*
X-447458Y1682605D01*
X-447604Y1682969D01*
X-447895Y1683806D01*
X-448186Y1684680D01*
X-448477Y1685553D01*
X-448732Y1686391D01*
D02*
G37*
G36*
X-530377Y1686027D02*
X-536347D01*
Y1678456D01*
X-530159D01*
X-529686Y1678492D01*
X-529176Y1678528D01*
X-528667Y1678565D01*
X-528157Y1678638D01*
X-527756Y1678710D01*
X-527684Y1678747D01*
X-527538Y1678783D01*
X-527320Y1678892D01*
X-527029Y1679038D01*
X-526737Y1679184D01*
X-526410Y1679402D01*
X-526082Y1679693D01*
X-525827Y1679984D01*
X-525791Y1680021D01*
X-525718Y1680130D01*
X-525609Y1680348D01*
X-525500Y1680603D01*
X-525390Y1680894D01*
X-525281Y1681258D01*
X-525208Y1681695D01*
X-525172Y1682168D01*
Y1682241D01*
Y1682387D01*
X-525208Y1682605D01*
X-525245Y1682896D01*
X-525318Y1683260D01*
X-525427Y1683624D01*
X-525572Y1683988D01*
X-525791Y1684352D01*
X-525827Y1684389D01*
X-525900Y1684498D01*
X-526046Y1684680D01*
X-526228Y1684862D01*
X-526482Y1685080D01*
X-526774Y1685299D01*
X-527138Y1685517D01*
X-527538Y1685663D01*
X-527574D01*
X-527756Y1685736D01*
X-528011Y1685772D01*
X-528412Y1685845D01*
X-528958Y1685918D01*
X-529577Y1685954D01*
X-530377Y1686027D01*
D02*
G37*
G36*
X-529722Y1675471D02*
X-536347D01*
Y1666807D01*
X-529176D01*
X-528412Y1666844D01*
X-528084Y1666880D01*
X-527793Y1666917D01*
X-527756D01*
X-527611Y1666953D01*
X-527393Y1666989D01*
X-527138Y1667062D01*
X-526519Y1667281D01*
X-525900Y1667572D01*
X-525864Y1667608D01*
X-525755Y1667681D01*
X-525609Y1667790D01*
X-525427Y1667936D01*
X-525245Y1668154D01*
X-524990Y1668373D01*
X-524808Y1668664D01*
X-524590Y1668992D01*
X-524553Y1669028D01*
X-524517Y1669137D01*
X-524444Y1669355D01*
X-524335Y1669610D01*
X-524226Y1669901D01*
X-524153Y1670265D01*
X-524116Y1670702D01*
X-524080Y1671139D01*
Y1671212D01*
Y1671358D01*
X-524116Y1671649D01*
X-524189Y1671976D01*
X-524262Y1672340D01*
X-524408Y1672741D01*
X-524590Y1673141D01*
X-524845Y1673542D01*
X-524881Y1673578D01*
X-524990Y1673724D01*
X-525136Y1673906D01*
X-525354Y1674124D01*
X-525645Y1674379D01*
X-526009Y1674633D01*
X-526410Y1674852D01*
X-526883Y1675034D01*
X-526956Y1675070D01*
X-527101Y1675107D01*
X-527429Y1675179D01*
X-527829Y1675252D01*
X-528339Y1675325D01*
X-528958Y1675398D01*
X-529722Y1675471D01*
D02*
G37*
G36*
X-489573Y1686573D02*
X-489791D01*
X-489937Y1686536D01*
X-490337Y1686464D01*
X-490810Y1686354D01*
X-491356Y1686136D01*
X-491939Y1685808D01*
X-492230Y1685590D01*
X-492521Y1685371D01*
X-492776Y1685080D01*
X-493031Y1684753D01*
Y1684716D01*
X-493104Y1684643D01*
X-493176Y1684498D01*
X-493286Y1684316D01*
X-493395Y1684025D01*
X-493541Y1683697D01*
X-493650Y1683297D01*
X-493795Y1682823D01*
X-493941Y1682277D01*
X-494087Y1681659D01*
X-494232Y1680967D01*
X-494341Y1680203D01*
X-494450Y1679329D01*
X-494523Y1678383D01*
X-494560Y1677363D01*
X-494596Y1676235D01*
Y1676162D01*
Y1675980D01*
Y1675653D01*
X-494560Y1675216D01*
Y1674743D01*
X-494523Y1674160D01*
X-494487Y1673542D01*
X-494414Y1672886D01*
X-494232Y1671467D01*
X-494123Y1670775D01*
X-493977Y1670120D01*
X-493832Y1669501D01*
X-493613Y1668919D01*
X-493395Y1668409D01*
X-493140Y1667972D01*
Y1667936D01*
X-493067Y1667899D01*
X-492885Y1667645D01*
X-492558Y1667317D01*
X-492157Y1666953D01*
X-491611Y1666589D01*
X-490993Y1666262D01*
X-490301Y1666007D01*
X-489937Y1665970D01*
X-489536Y1665934D01*
X-489318D01*
X-489173Y1665970D01*
X-488808Y1666043D01*
X-488299Y1666189D01*
X-487753Y1666444D01*
X-487134Y1666807D01*
X-486843Y1667026D01*
X-486552Y1667317D01*
X-486260Y1667608D01*
X-485969Y1667972D01*
Y1668009D01*
X-485897Y1668082D01*
X-485824Y1668191D01*
X-485751Y1668373D01*
X-485605Y1668628D01*
X-485496Y1668955D01*
X-485351Y1669319D01*
X-485205Y1669756D01*
X-485096Y1670302D01*
X-484950Y1670884D01*
X-484805Y1671576D01*
X-484695Y1672304D01*
X-484623Y1673178D01*
X-484550Y1674088D01*
X-484477Y1675107D01*
Y1676235D01*
Y1676272D01*
Y1676308D01*
Y1676490D01*
Y1676818D01*
X-484513Y1677254D01*
Y1677727D01*
X-484550Y1678310D01*
X-484586Y1678929D01*
X-484659Y1679620D01*
X-484841Y1681004D01*
X-484950Y1681695D01*
X-485096Y1682350D01*
X-485241Y1682969D01*
X-485460Y1683552D01*
X-485678Y1684061D01*
X-485933Y1684498D01*
Y1684534D01*
X-486006Y1684571D01*
X-486079Y1684680D01*
X-486188Y1684825D01*
X-486515Y1685153D01*
X-486916Y1685553D01*
X-487462Y1685918D01*
X-488080Y1686245D01*
X-488408Y1686391D01*
X-488772Y1686500D01*
X-489173Y1686536D01*
X-489573Y1686573D01*
D02*
G37*
%LPD*%
D10*
X332087Y1446850D02*
D03*
X258465D02*
D03*
X-36811Y1446851D02*
D03*
X36811D02*
D03*
X-332087Y1446850D02*
D03*
X-258465D02*
D03*
D11*
X-65866Y912598D02*
D03*
Y878740D02*
D03*
X-215866D02*
D03*
Y912598D02*
D03*
X-115866Y878740D02*
D03*
Y912598D02*
D03*
X-265866Y878740D02*
D03*
Y912598D02*
D03*
X-165866D02*
D03*
Y878740D02*
D03*
X-315866Y912598D02*
D03*
Y878740D02*
D03*
X-15866D02*
D03*
Y912598D02*
D03*
X34134D02*
D03*
Y878740D02*
D03*
D12*
X-65866Y954724D02*
D03*
X-115866D02*
D03*
X-165866D02*
D03*
X-215866D02*
D03*
Y1230315D02*
D03*
X-165866D02*
D03*
X-115866D02*
D03*
X-65866D02*
D03*
X-15866D02*
D03*
X-265866D02*
D03*
Y954724D02*
D03*
X-15866D02*
D03*
X34134Y1230315D02*
D03*
Y954724D02*
D03*
X-315866Y1230315D02*
D03*
Y954724D02*
D03*
D13*
X220669Y641732D02*
D03*
X186811D02*
D03*
X220669Y322835D02*
D03*
X186811D02*
D03*
X301535Y964567D02*
D03*
X267677D02*
D03*
X81496Y521654D02*
D03*
X115354D02*
D03*
X81496Y561024D02*
D03*
X115354D02*
D03*
X-337795Y521654D02*
D03*
X-303937D02*
D03*
X-337795Y561024D02*
D03*
X-303937D02*
D03*
X301535Y1163386D02*
D03*
X267677D02*
D03*
D14*
X186811Y375984D02*
D03*
X236811D02*
D03*
X286811D02*
D03*
X336811D02*
D03*
Y588583D02*
D03*
X286811D02*
D03*
X236811D02*
D03*
X186811D02*
D03*
D15*
X223583Y964567D02*
D03*
X188150D02*
D03*
X277559Y1387795D02*
D03*
X312992D02*
D03*
X-17716Y1387795D02*
D03*
X17716D02*
D03*
X-312992Y1387795D02*
D03*
X-277559D02*
D03*
X188150Y1163386D02*
D03*
X223583D02*
D03*
D16*
X-320866Y332284D02*
D03*
Y632284D02*
D03*
X96457D02*
D03*
Y432284D02*
D03*
Y332284D02*
D03*
D17*
X448819Y55118D02*
D03*
X417323D02*
D03*
X385827D02*
D03*
X354331D02*
D03*
X322835D02*
D03*
X291339D02*
D03*
X259843D02*
D03*
X228347D02*
D03*
X196850D02*
D03*
X165354D02*
D03*
X133858D02*
D03*
X102362D02*
D03*
X70866D02*
D03*
X39370D02*
D03*
X7874D02*
D03*
X-23622D02*
D03*
X-55118D02*
D03*
X-86614D02*
D03*
X-244095D02*
D03*
X-275591D02*
D03*
X-307087D02*
D03*
X-338583D02*
D03*
X-370079D02*
D03*
X-401575D02*
D03*
X-433071D02*
D03*
X-464567D02*
D03*
D18*
X258465Y1460000D02*
Y1541535D01*
X-98425Y1598425D02*
Y1663386D01*
Y1598425D02*
X-85000Y1585000D01*
X215000D01*
X258465Y1541535D01*
X-370079Y55118D02*
Y129095D01*
X-141260Y1506260D02*
X-48342D01*
X-36811Y1460000D02*
Y1494729D01*
X-48342Y1506260D02*
X-36811Y1494729D01*
X-196850Y1561850D02*
X-141260Y1506260D01*
X-196850Y1561850D02*
Y1663386D01*
X-332087Y1460000D02*
Y1522913D01*
X-295276Y1559724D01*
Y1663386D01*
D19*
X312992Y1389764D02*
X316929Y1393701D01*
X318898D01*
X332087Y1406890D01*
Y1446850D01*
X-340000Y1125000D02*
X-315866Y1149134D01*
Y1230315D01*
X-265433Y1120000D02*
Y1229882D01*
X-265866Y1230315D02*
X-265433Y1229882D01*
X186811Y696811D02*
X209055Y719055D01*
X259055D01*
X7874Y113347D02*
X23622Y129095D01*
X7874Y55118D02*
Y113347D01*
X186811Y641732D02*
Y696811D01*
X-337795Y589764D02*
Y618504D01*
Y561024D02*
Y589764D01*
X236811Y539685D02*
Y588583D01*
X286811Y539370D02*
Y588583D01*
Y375984D02*
Y425197D01*
X236811Y375984D02*
Y425197D01*
X-290866Y912598D02*
X-265866D01*
X-315866D02*
X-290866D01*
X9134D02*
X34134D01*
X-15866D02*
X9134D01*
X-90866D02*
X-65866D01*
X-115866D02*
X-90866D01*
X-190866D02*
X-165866D01*
X-215866D02*
X-190866D01*
X81496Y483858D02*
Y521654D01*
Y446063D02*
Y483858D01*
X138937Y964567D02*
X188150D01*
X34134Y954724D02*
Y1003937D01*
X-65866Y954724D02*
Y1003937D01*
X-165866Y954724D02*
Y1003937D01*
X-265866Y954724D02*
Y1003937D01*
X115354Y475354D02*
Y521654D01*
X115000Y475000D02*
X115354Y475354D01*
X-259252Y1304252D02*
X-229252D01*
X-215866Y1290866D01*
X-310000Y1355000D02*
X-259252Y1304252D01*
X-215866Y1230315D02*
Y1290866D01*
X-310000Y1355000D02*
Y1387795D01*
X-115866Y1230315D02*
Y1264134D01*
X-15000Y1365000D02*
Y1385079D01*
X-115866Y1264134D02*
X-15000Y1365000D01*
X260000Y1345000D02*
X280000Y1365000D01*
Y1387795D01*
X50000Y1345000D02*
X260000D01*
X-15866Y1279134D02*
X50000Y1345000D01*
X-15866Y1230315D02*
Y1279134D01*
X312992Y1357992D02*
Y1389764D01*
X21654Y1393701D02*
X23622D01*
X36811Y1406890D02*
Y1446851D01*
X17716Y1352716D02*
Y1389764D01*
X21654Y1393701D01*
X23622D02*
X36811Y1406890D01*
X-277559Y1389764D02*
X-273622Y1393701D01*
X-271654D02*
X-258465Y1406890D01*
X-277559Y1352559D02*
Y1389764D01*
X-258465Y1406890D02*
Y1446850D01*
X-273622Y1393701D02*
X-271654D01*
X-65866Y1269134D02*
X17716Y1352716D01*
X-65866Y1230315D02*
Y1269134D01*
X65000Y1320000D02*
X275000D01*
X312992Y1357992D01*
X-250000Y1325000D02*
X-190000D01*
X-165866Y1300866D01*
X-277559Y1352559D02*
X-250000Y1325000D01*
X34134Y1289134D02*
X65000Y1320000D01*
X34134Y1230315D02*
Y1289134D01*
X-165866Y1230315D02*
Y1300866D01*
X223583Y1163386D02*
X267677D01*
X186811Y588583D02*
Y641732D01*
X-337795Y521654D02*
Y561024D01*
Y618504D02*
X-324016Y632284D01*
X-320866D01*
X81496Y521654D02*
Y561024D01*
Y446063D02*
X95276Y432284D01*
X96457D01*
X115354Y521654D02*
Y561024D01*
X-315866Y912598D02*
Y954724D01*
X-215866Y912598D02*
Y954724D01*
X-115866Y912598D02*
Y954724D01*
X-15866Y912598D02*
Y954724D01*
X186811Y375984D02*
Y418189D01*
Y322835D02*
Y375984D01*
X96457Y432284D02*
X172716D01*
X186811Y418189D01*
X448819Y55118D02*
Y129095D01*
X354331Y55118D02*
Y129095D01*
X291339Y55118D02*
Y129095D01*
X-86614Y55118D02*
Y129095D01*
X-244095Y55118D02*
Y129095D01*
X223583Y964567D02*
X267677D01*
D20*
X197965Y1132035D02*
X259055D01*
X188150Y1141850D02*
X197965Y1132035D01*
X188150Y1141850D02*
Y1163386D01*
X342520Y1120000D02*
Y1152480D01*
X331614Y1163386D02*
X342520Y1152480D01*
X301535Y1163386D02*
X331614D01*
D21*
X-476378Y1891732D02*
D03*
X476378D02*
D03*
D22*
X295276Y1663386D02*
D03*
D23*
X196850D02*
D03*
X98425D02*
D03*
X0D02*
D03*
X-98425D02*
D03*
X-196850D02*
D03*
X-295276D02*
D03*
D24*
X485000Y1045000D02*
D03*
X-485000D02*
D03*
X480000Y1325000D02*
D03*
X-485000D02*
D03*
X511811Y511811D02*
D03*
Y354331D02*
D03*
Y196850D02*
D03*
X-511811Y511811D02*
D03*
Y354331D02*
D03*
Y196850D02*
D03*
X-340000Y1125000D02*
D03*
X-265866Y1120000D02*
D03*
X259055Y719055D02*
D03*
X259055Y1132035D02*
D03*
X23622Y129095D02*
D03*
X-15866Y1279134D02*
D03*
X-115866Y1264134D02*
D03*
X-215866Y1290866D02*
D03*
X-337795Y589764D02*
D03*
X235000Y675000D02*
D03*
X340000Y535000D02*
D03*
Y675000D02*
D03*
X5000Y535000D02*
D03*
Y675000D02*
D03*
X-135000Y535000D02*
D03*
Y675000D02*
D03*
X-235000Y535000D02*
D03*
X-213386Y675000D02*
D03*
X236811Y539685D02*
D03*
X286811Y539370D02*
D03*
Y425197D02*
D03*
X236811D02*
D03*
X81496Y483858D02*
D03*
X-370079Y129095D02*
D03*
X138937Y964567D02*
D03*
X34134Y1003937D02*
D03*
X-65866D02*
D03*
X-165866D02*
D03*
X-265866D02*
D03*
X9134Y912598D02*
D03*
X-90866D02*
D03*
X-190866D02*
D03*
X-290866D02*
D03*
X342520Y1120000D02*
D03*
%TF.MD5,8dea0d4af9d753a1b4b4c40fd0b576a6*%
M02*
