%TF.GenerationSoftware,Altium Limited,Altium Designer,22.1.2 (22)*%
G04 Layer_Color=32896*
%FSLAX26Y26*%
%MOIN*%
%TF.SameCoordinates,4CB55538-D73B-4A6B-AD5D-0D58206D9AAC*%
%TF.FilePolarity,Positive*%
%TF.FileFunction,Other,Top_Courtyard*%
%TF.Part,Single*%
G01*
G75*
%TA.AperFunction,NonConductor*%
%ADD56C,0.000394*%
%ADD57C,0.000787*%
D56*
X350394Y1415354D02*
Y1478347D01*
X240157Y1415354D02*
Y1478347D01*
X350394D01*
X240157Y1415354D02*
X350394D01*
X285433Y1446850D02*
X305118D01*
X295276Y1437008D02*
Y1456693D01*
X-75709Y895669D02*
X-56024D01*
X-65866Y885827D02*
Y905512D01*
X-80630Y866142D02*
Y925197D01*
X-51102Y866142D02*
Y925197D01*
X-80630D02*
X-51102D01*
X-80630Y866142D02*
X-51102D01*
X-280630D02*
X-251102D01*
X-280630Y925197D02*
X-251102D01*
Y866142D02*
Y925197D01*
X-280630Y866142D02*
Y925197D01*
X-265866Y885827D02*
Y905512D01*
X-275709Y895669D02*
X-256024D01*
X-175709D02*
X-156024D01*
X-165866Y885827D02*
Y905512D01*
X-180630Y866142D02*
Y925197D01*
X-151102Y866142D02*
Y925197D01*
X-180630D02*
X-151102D01*
X-180630Y866142D02*
X-151102D01*
X24291Y895669D02*
X43976D01*
X34134Y885827D02*
Y905512D01*
X19370Y866142D02*
Y925197D01*
X48898Y866142D02*
Y925197D01*
X19370D02*
X48898D01*
X19370Y866142D02*
X48898D01*
X-357401Y1250000D02*
X75669D01*
X-357401Y935039D02*
Y1250000D01*
X75669Y935039D02*
Y1250000D01*
X-357401Y935039D02*
X75669D01*
X-150709Y1092520D02*
X-131024D01*
X-140866Y1082677D02*
Y1102362D01*
X261811Y472441D02*
Y492126D01*
X251969Y482284D02*
X271654D01*
X163386Y639764D02*
X360236D01*
X163386Y324803D02*
Y639764D01*
X360236Y324803D02*
Y639764D01*
X163386Y324803D02*
X360236D01*
X196024Y964567D02*
X215709D01*
X205866Y954724D02*
Y974409D01*
X235394Y949803D02*
Y979331D01*
X176339Y949803D02*
Y979331D01*
X235394D01*
X176339Y949803D02*
X235394D01*
X314134D02*
Y979331D01*
X255079Y949803D02*
Y979331D01*
X314134D01*
X255079Y949803D02*
X314134D01*
X274764Y964567D02*
X294449D01*
X284606Y954724D02*
Y974409D01*
X61024Y662598D02*
X137795D01*
X-362205Y301969D02*
X-285433D01*
X137795D02*
Y662598D01*
X-362205Y301969D02*
Y662205D01*
X61024Y301969D02*
X137795D01*
X-362205Y662205D02*
X-285433D01*
Y742126D01*
X61024Y222441D02*
Y301969D01*
X-285433Y222441D02*
X61024D01*
X-285433Y742126D02*
X61024D01*
Y662598D02*
Y742126D01*
X-285433Y222441D02*
Y301969D01*
X-122047Y482284D02*
X-102362D01*
X-112205Y472441D02*
Y492126D01*
X-433071Y1545276D02*
X433071D01*
X-433071D02*
Y2037402D01*
X433071D01*
Y1545276D02*
Y2037402D01*
X0Y1653543D02*
Y1673228D01*
X-9842Y1663386D02*
X9842D01*
X265748Y1373032D02*
X324803D01*
X265748Y1402559D02*
X324803D01*
X265748Y1373032D02*
Y1402559D01*
X324803Y1373032D02*
Y1402559D01*
X295276Y1377953D02*
Y1397638D01*
X285433Y1387795D02*
X305118D01*
X0Y1437008D02*
Y1456693D01*
X-9842Y1446851D02*
X9842D01*
X-55118Y1415354D02*
X55118D01*
X-55118Y1478347D02*
X55118D01*
X-55118Y1415354D02*
Y1478347D01*
X55118Y1415354D02*
Y1478347D01*
X-29528Y1373032D02*
X29528D01*
X-29528Y1402559D02*
X29528D01*
X-29528Y1373032D02*
Y1402559D01*
X29528Y1373032D02*
Y1402559D01*
X0Y1377953D02*
Y1397638D01*
X-9842Y1387795D02*
X9842D01*
X-295276Y1437008D02*
Y1456693D01*
X-305118Y1446850D02*
X-285433D01*
X-350394Y1415354D02*
X-240157D01*
X-350394Y1478347D02*
X-240157D01*
X-350394Y1415354D02*
Y1478347D01*
X-240157Y1415354D02*
Y1478347D01*
X-324803Y1373032D02*
X-265748D01*
X-324803Y1402559D02*
X-265748D01*
X-324803Y1373032D02*
Y1402559D01*
X-265748Y1373032D02*
Y1402559D01*
X-295276Y1377953D02*
Y1397638D01*
X-305118Y1387795D02*
X-285433D01*
X176339Y1148622D02*
X235394D01*
X176339Y1178150D02*
X235394D01*
X176339Y1148622D02*
Y1178150D01*
X235394Y1148622D02*
Y1178150D01*
X205866Y1153543D02*
Y1173228D01*
X196024Y1163386D02*
X215709D01*
X314134Y1148622D02*
Y1178150D01*
X255079Y1148622D02*
Y1178150D01*
X314134D01*
X255079Y1148622D02*
X314134D01*
X274764Y1163386D02*
X294449D01*
X284606Y1153543D02*
Y1173228D01*
D57*
X-230630Y866142D02*
X-201102D01*
X-230630D02*
Y925197D01*
X-201102Y866142D02*
Y925197D01*
X-215866Y885827D02*
Y905512D01*
X-225709Y895669D02*
X-206024D01*
X-230630Y925197D02*
X-201102D01*
X-130630Y866142D02*
X-101102D01*
X-130630D02*
Y925197D01*
X-101102Y866142D02*
Y925197D01*
X-115866Y885827D02*
Y905512D01*
X-125709Y895669D02*
X-106024D01*
X-130630Y925197D02*
X-101102D01*
X-330630D02*
X-301102D01*
X-325709Y895669D02*
X-306024D01*
X-315866Y885827D02*
Y905512D01*
X-301102Y866142D02*
Y925197D01*
X-330630Y866142D02*
Y925197D01*
Y866142D02*
X-301102D01*
X-30630D02*
X-1102D01*
X-30630D02*
Y925197D01*
X-1102Y866142D02*
Y925197D01*
X-15866Y885827D02*
Y905512D01*
X-25709Y895669D02*
X-6024D01*
X-30630Y925197D02*
X-1102D01*
X233268Y626968D02*
Y656496D01*
X174213Y626968D02*
X233268D01*
X174213Y656496D02*
X233268D01*
X193898Y641732D02*
X213583D01*
X203740Y631890D02*
Y651575D01*
X174213Y626968D02*
Y656496D01*
X233268Y308071D02*
Y337599D01*
X174213Y308071D02*
X233268D01*
X174213Y337599D02*
X233268D01*
X193898Y322835D02*
X213583D01*
X203740Y312992D02*
Y332677D01*
X174213Y308071D02*
Y337599D01*
X68898Y506890D02*
Y536417D01*
X98425Y511811D02*
Y531496D01*
X88583Y521654D02*
X108268D01*
X68898Y536417D02*
X127953D01*
X68898Y506890D02*
X127953D01*
Y536417D01*
X68898Y546260D02*
Y575788D01*
X98425Y551181D02*
Y570866D01*
X88583Y561024D02*
X108268D01*
X68898Y575788D02*
X127953D01*
X68898Y546260D02*
X127953D01*
Y575788D01*
X-350394Y506890D02*
Y536417D01*
X-320866Y511811D02*
Y531496D01*
X-330709Y521654D02*
X-311024D01*
X-350394Y536417D02*
X-291339D01*
X-350394Y506890D02*
X-291339D01*
Y536417D01*
X-350394Y546260D02*
Y575788D01*
X-320866Y551181D02*
Y570866D01*
X-330709Y561024D02*
X-311024D01*
X-350394Y575788D02*
X-291339D01*
X-350394Y546260D02*
X-291339D01*
Y575788D01*
%TF.MD5,74010578ac98201757886a6a558f2f2c*%
M02*
