%TF.GenerationSoftware,Altium Limited,Altium Designer,22.1.2 (22)*%
G04 Layer_Color=32896*
%FSLAX26Y26*%
%MOIN*%
%TF.SameCoordinates,654C00B4-3322-4B45-B6E3-0FD47356756A*%
%TF.FilePolarity,Positive*%
%TF.FileFunction,Other,Top_Courtyard*%
%TF.Part,Single*%
G01*
G75*
%TA.AperFunction,NonConductor*%
%ADD49C,0.000394*%
%ADD50C,0.000787*%
D49*
X0Y511811D02*
Y531496D01*
X-9842Y521654D02*
X9842D01*
X-173228Y261811D02*
Y341339D01*
X173228Y701969D02*
Y781496D01*
X-173228D02*
X173228D01*
X-173228Y261811D02*
X173228D01*
Y341339D01*
X-173228Y701575D02*
Y781496D01*
X-250000Y701575D02*
X-173228D01*
X173228Y341339D02*
X250000D01*
X-250000D02*
Y701575D01*
X250000Y341339D02*
Y701969D01*
X-250000Y341339D02*
X-173228D01*
X173228Y701969D02*
X250000D01*
X-9842Y1663386D02*
X9842D01*
X0Y1653543D02*
Y1673228D01*
X433071Y1545276D02*
Y2037402D01*
X-433071D02*
X433071D01*
X-433071Y1545276D02*
Y2037402D01*
Y1545276D02*
X433071D01*
D50*
X236220Y584173D02*
Y613701D01*
X177165Y584173D02*
X236220D01*
X177165Y613701D02*
X236220D01*
X196850Y598937D02*
X216535D01*
X206693Y589095D02*
Y608779D01*
X177165Y584173D02*
Y613701D01*
X-179134Y575787D02*
Y605315D01*
X-238189Y575787D02*
X-179134D01*
X-238189Y605315D02*
X-179134D01*
X-218504Y590551D02*
X-198819D01*
X-208661Y580709D02*
Y600394D01*
X-238189Y575787D02*
Y605315D01*
X236220Y544803D02*
Y574331D01*
X177165Y544803D02*
X236220D01*
X177165Y574331D02*
X236220D01*
X196850Y559567D02*
X216535D01*
X206693Y549724D02*
Y569409D01*
X177165Y544803D02*
Y574331D01*
X-179134Y536417D02*
Y565945D01*
X-238189Y536417D02*
X-179134D01*
X-238189Y565945D02*
X-179134D01*
X-218504Y551181D02*
X-198819D01*
X-208661Y541339D02*
Y561024D01*
X-238189Y536417D02*
Y565945D01*
%TF.MD5,73c4d56d7464bfbe4bcc4343bf9b65e3*%
M02*
