%TF.GenerationSoftware,Altium Limited,Altium Designer,22.1.2 (22)*%
G04 Layer_Color=255*
%FSLAX26Y26*%
%MOIN*%
%TF.SameCoordinates,4CB55538-D73B-4A6B-AD5D-0D58206D9AAC*%
%TF.FilePolarity,Positive*%
%TF.FileFunction,Pads,Top*%
%TF.Part,Single*%
G01*
G75*
%TA.AperFunction,SMDPad,CuDef*%
%ADD10R,0.027559X0.055118*%
%ADD11R,0.020472X0.018504*%
%ADD12R,0.027559X0.039370*%
%ADD13R,0.018504X0.020472*%
%ADD14R,0.023622X0.051181*%
%ADD15R,0.019685X0.023622*%
%ADD16R,0.059055X0.039370*%
%TA.AperFunction,ConnectorPad*%
%ADD17R,0.023622X0.090551*%
%TA.AperFunction,ViaPad*%
%ADD21R,0.208661X0.208661*%
%TA.AperFunction,ComponentPad*%
%ADD22R,0.053150X0.053150*%
%ADD23C,0.053150*%
D10*
X332087Y1446850D02*
D03*
X258465D02*
D03*
X-36811Y1446851D02*
D03*
X36811D02*
D03*
X-332087Y1446850D02*
D03*
X-258465D02*
D03*
D11*
X-65866Y912598D02*
D03*
Y878740D02*
D03*
X-215866D02*
D03*
Y912598D02*
D03*
X-115866Y878740D02*
D03*
Y912598D02*
D03*
X-265866Y878740D02*
D03*
Y912598D02*
D03*
X-165866D02*
D03*
Y878740D02*
D03*
X-315866Y912598D02*
D03*
Y878740D02*
D03*
X-15866D02*
D03*
Y912598D02*
D03*
X34134D02*
D03*
Y878740D02*
D03*
D12*
X-65866Y954724D02*
D03*
X-115866D02*
D03*
X-165866D02*
D03*
X-215866D02*
D03*
Y1230315D02*
D03*
X-165866D02*
D03*
X-115866D02*
D03*
X-65866D02*
D03*
X-15866D02*
D03*
X-265866D02*
D03*
Y954724D02*
D03*
X-15866D02*
D03*
X34134Y1230315D02*
D03*
Y954724D02*
D03*
X-315866Y1230315D02*
D03*
Y954724D02*
D03*
D13*
X220669Y641732D02*
D03*
X186811D02*
D03*
X220669Y322835D02*
D03*
X186811D02*
D03*
X301535Y964567D02*
D03*
X267677D02*
D03*
X81496Y521654D02*
D03*
X115354D02*
D03*
X81496Y561024D02*
D03*
X115354D02*
D03*
X-337795Y521654D02*
D03*
X-303937D02*
D03*
X-337795Y561024D02*
D03*
X-303937D02*
D03*
X301535Y1163386D02*
D03*
X267677D02*
D03*
D14*
X186811Y375984D02*
D03*
X236811D02*
D03*
X286811D02*
D03*
X336811D02*
D03*
Y588583D02*
D03*
X286811D02*
D03*
X236811D02*
D03*
X186811D02*
D03*
D15*
X223583Y964567D02*
D03*
X188150D02*
D03*
X277559Y1387795D02*
D03*
X312992D02*
D03*
X-17716Y1387795D02*
D03*
X17716D02*
D03*
X-312992Y1387795D02*
D03*
X-277559D02*
D03*
X188150Y1163386D02*
D03*
X223583D02*
D03*
D16*
X-320866Y332284D02*
D03*
Y632284D02*
D03*
X96457D02*
D03*
Y432284D02*
D03*
Y332284D02*
D03*
D17*
X448819Y55118D02*
D03*
X417323D02*
D03*
X385827D02*
D03*
X354331D02*
D03*
X322835D02*
D03*
X291339D02*
D03*
X259843D02*
D03*
X228347D02*
D03*
X196850D02*
D03*
X165354D02*
D03*
X133858D02*
D03*
X102362D02*
D03*
X70866D02*
D03*
X39370D02*
D03*
X7874D02*
D03*
X-23622D02*
D03*
X-55118D02*
D03*
X-86614D02*
D03*
X-244095D02*
D03*
X-275591D02*
D03*
X-307087D02*
D03*
X-338583D02*
D03*
X-370079D02*
D03*
X-401575D02*
D03*
X-433071D02*
D03*
X-464567D02*
D03*
D21*
X-476378Y1891732D02*
D03*
X476378D02*
D03*
D22*
X295276Y1663386D02*
D03*
D23*
X196850D02*
D03*
X98425D02*
D03*
X0D02*
D03*
X-98425D02*
D03*
X-196850D02*
D03*
X-295276D02*
D03*
%TF.MD5,de7ce3cc4dde9695f2f666c5d659cf69*%
M02*
