%TF.GenerationSoftware,Altium Limited,Altium Designer,22.1.2 (22)*%
G04 Layer_Color=255*
%FSLAX26Y26*%
%MOIN*%
%TF.SameCoordinates,654C00B4-3322-4B45-B6E3-0FD47356756A*%
%TF.FilePolarity,Positive*%
%TF.FileFunction,Pads,Top*%
%TF.Part,Single*%
G01*
G75*
%TA.AperFunction,SMDPad,CuDef*%
%ADD10R,0.059055X0.039370*%
%TA.AperFunction,ConnectorPad*%
%ADD11R,0.023622X0.090551*%
%TA.AperFunction,SMDPad,CuDef*%
%ADD12R,0.018504X0.020472*%
%TA.AperFunction,ComponentPad*%
%ADD14C,0.053150*%
%ADD15R,0.053150X0.053150*%
%TA.AperFunction,ViaPad*%
%ADD16R,0.208661X0.208661*%
D10*
X208661Y371654D02*
D03*
Y471654D02*
D03*
Y671654D02*
D03*
X-208661D02*
D03*
Y371654D02*
D03*
D11*
X-464567Y55118D02*
D03*
X-433071D02*
D03*
X-401575D02*
D03*
X-370079D02*
D03*
X-338583D02*
D03*
X-307087D02*
D03*
X-275591D02*
D03*
X-244095D02*
D03*
X-86614D02*
D03*
X-55118D02*
D03*
X-23622D02*
D03*
X7874D02*
D03*
X39370D02*
D03*
X70866D02*
D03*
X102362D02*
D03*
X133858D02*
D03*
X165354D02*
D03*
X196850D02*
D03*
X228347D02*
D03*
X259843D02*
D03*
X291339D02*
D03*
X322835D02*
D03*
X354331D02*
D03*
X385827D02*
D03*
X417323D02*
D03*
X448819D02*
D03*
D12*
X223622Y598937D02*
D03*
X189764D02*
D03*
X-191732Y590551D02*
D03*
X-225590D02*
D03*
X223622Y559567D02*
D03*
X189764D02*
D03*
X-191732Y551181D02*
D03*
X-225590D02*
D03*
D14*
X-295276Y1663386D02*
D03*
X-196850D02*
D03*
X-98425D02*
D03*
X0D02*
D03*
X98425D02*
D03*
X196850D02*
D03*
D15*
X295276D02*
D03*
D16*
X-476378Y1891732D02*
D03*
X476378D02*
D03*
%TF.MD5,bfe8fd82da61410125810bf157a15856*%
M02*
