%TF.GenerationSoftware,Altium Limited,Altium Designer,22.1.2 (22)*%
G04 Layer_Color=128*
%FSLAX26Y26*%
%MOIN*%
%TF.SameCoordinates,4CB55538-D73B-4A6B-AD5D-0D58206D9AAC*%
%TF.FilePolarity,Positive*%
%TF.FileFunction,Drillmap*%
%TF.Part,Single*%
G01*
G75*
%TA.AperFunction,NonConductor*%
%ADD64C,0.005000*%
D64*
X-19803Y1279134D02*
X-11929D01*
X-15866Y1275197D02*
Y1283071D01*
X-119803Y1264134D02*
X-111929D01*
X-115866Y1260197D02*
Y1268071D01*
X-219803Y1290866D02*
X-211929D01*
X-215866Y1286929D02*
Y1294803D01*
X135000Y964567D02*
X142874D01*
X138937Y960630D02*
Y968504D01*
X30197Y1003937D02*
X38071D01*
X34134Y1000000D02*
Y1007874D01*
X-69803Y1003937D02*
X-61929D01*
X-65866Y1000000D02*
Y1007874D01*
X-169803Y1003937D02*
X-161929D01*
X-165866Y1000000D02*
Y1007874D01*
X-269803Y1003937D02*
X-261929D01*
X-265866Y1000000D02*
Y1007874D01*
X5197Y912598D02*
X13071D01*
X9134Y908661D02*
Y916535D01*
X-94803Y912598D02*
X-86929D01*
X-90866Y908661D02*
Y916535D01*
X-194803Y912598D02*
X-186929D01*
X-190866Y908661D02*
Y916535D01*
X-294803Y912598D02*
X-286929D01*
X-290866Y908661D02*
Y916535D01*
%TF.MD5,b18cc66837d5cc766e039f6775778c6d*%
M02*
