%TF.GenerationSoftware,Altium Limited,Altium Designer,22.1.2 (22)*%
G04 Layer_Color=2752767*
%FSLAX26Y26*%
%MOIN*%
%TF.SameCoordinates,4CB55538-D73B-4A6B-AD5D-0D58206D9AAC*%
%TF.FilePolarity,Positive*%
%TF.FileFunction,Drawing*%
%TF.Part,Single*%
G01*
G75*
%TA.AperFunction,NonConductor*%
%ADD64C,0.005000*%
D64*
X-45000Y1355000D02*
X-65000Y1395000D01*
X-25000D01*
X-45000Y1355000D01*
X-140000D02*
X-160000Y1395000D01*
X-120000D01*
X-140000Y1355000D01*
X-307099Y1200489D02*
X-327099Y1240489D01*
X-287099D01*
X-307099Y1200489D01*
X-286614Y934724D02*
X-306614Y974724D01*
X-266614D01*
X-286614Y934724D01*
X-285315Y993779D02*
X-305315Y1033780D01*
X-265315D01*
X-285315Y993779D01*
X-247244Y796929D02*
X-267244Y836929D01*
X-227244D01*
X-247244Y796929D01*
X259055Y915039D02*
X239055Y955039D01*
X279055D01*
X259055Y915039D01*
X-130000Y740630D02*
X-150000Y780630D01*
X-110000D01*
X-130000Y740630D01*
X342520D02*
X322520Y780630D01*
X362520D01*
X342520Y740630D01*
Y870000D02*
X322520Y910000D01*
X362520D01*
X342520Y870000D01*
Y960000D02*
X322520Y1000000D01*
X362520D01*
X342520Y960000D01*
X-185000Y740630D02*
X-205000Y780630D01*
X-165000D01*
X-185000Y740630D01*
X-286614Y757559D02*
X-306614Y797559D01*
X-266614D01*
X-286614Y757559D01*
Y836299D02*
X-306614Y876299D01*
X-266614D01*
X-286614Y836299D01*
X-185000D02*
X-205000Y876299D01*
X-165000D01*
X-185000Y836299D01*
Y955000D02*
X-205000Y995000D01*
X-165000D01*
X-185000Y955000D01*
X200000Y875000D02*
X180000Y915000D01*
X220000D01*
X200000Y875000D01*
X185000Y915000D02*
X165000Y955000D01*
X205000D01*
X185000Y915000D01*
X165000Y960000D02*
X145000Y1000000D01*
X185000D01*
X165000Y960000D01*
X170000Y805000D02*
X150000Y845000D01*
X190000D01*
X170000Y805000D01*
X105000Y870000D02*
X85000Y910000D01*
X125000D01*
X105000Y870000D01*
X95000Y774488D02*
X75000Y814488D01*
X115000D01*
X95000Y774488D01*
X-40000Y845000D02*
X-60000Y885000D01*
X-20000D01*
X-40000Y845000D01*
X-130000Y880000D02*
X-150000Y920000D01*
X-110000D01*
X-130000Y880000D01*
X-165000Y1013465D02*
X-185000Y1053465D01*
X-145000D01*
X-165000Y1013465D01*
X278346Y1140000D02*
X258346Y1180000D01*
X298346D01*
X278346Y1140000D01*
X175000Y1145000D02*
X155000Y1185000D01*
X195000D01*
X175000Y1145000D01*
X342520Y1215000D02*
X322520Y1255000D01*
X362520D01*
X342520Y1215000D01*
Y1407165D02*
X322520Y1447165D01*
X362520D01*
X342520Y1407165D01*
Y1289055D02*
X322520Y1329055D01*
X362520D01*
X342520Y1289055D01*
X49213Y1442756D02*
X29213Y1482756D01*
X69213D01*
X49213Y1442756D01*
Y1357953D02*
X29213Y1397953D01*
X69213D01*
X49213Y1357953D01*
Y1289055D02*
X29213Y1329055D01*
X69213D01*
X49213Y1289055D01*
X246063D02*
X226063Y1329055D01*
X266063D01*
X246063Y1289055D01*
Y1407165D02*
X226063Y1447165D01*
X266063D01*
X246063Y1407165D01*
X147638D02*
X127638Y1447165D01*
X167638D01*
X147638Y1407165D01*
Y1289055D02*
X127638Y1329055D01*
X167638D01*
X147638Y1289055D01*
Y1215000D02*
X127638Y1255000D01*
X167638D01*
X147638Y1215000D01*
X246063D02*
X226063Y1255000D01*
X266063D01*
X246063Y1215000D01*
X179921Y1082362D02*
X159921Y1122362D01*
X199921D01*
X179921Y1082362D01*
X115354D02*
X95354Y1122362D01*
X135354D01*
X115354Y1082362D01*
X-49213Y1289055D02*
X-69213Y1329055D01*
X-29213D01*
X-49213Y1289055D01*
X-9842Y1180787D02*
X-29843Y1220787D01*
X10158D01*
X-9842Y1180787D01*
X-115354Y1100000D02*
X-135354Y1140000D01*
X-95354D01*
X-115354Y1100000D01*
X-213780D02*
X-233780Y1140000D01*
X-193780D01*
X-213780Y1100000D01*
X-245000Y1357953D02*
X-265000Y1397953D01*
X-225000D01*
X-245000Y1357953D01*
X-340000D02*
X-360000Y1397953D01*
X-320000D01*
X-340000Y1357953D01*
X-140000Y1289055D02*
X-160000Y1329055D01*
X-120000D01*
X-140000Y1289055D01*
X-240000D02*
X-260000Y1329055D01*
X-220000D01*
X-240000Y1289055D01*
X-340000D02*
X-360000Y1329055D01*
X-320000D01*
X-340000Y1289055D01*
X-213780Y1180787D02*
X-233780Y1220787D01*
X-193780D01*
X-213780Y1180787D01*
X-115354D02*
X-135354Y1220787D01*
X-95354D01*
X-115354Y1180787D01*
X-68898Y822520D02*
X-88898Y862520D01*
X-48898D01*
X-68898Y822520D01*
X-98425Y846142D02*
X-118425Y886142D01*
X-78425D01*
X-98425Y846142D01*
X-295276Y1052835D02*
X-315276Y1092835D01*
X-275276D01*
X-295276Y1052835D01*
X-286614Y895354D02*
X-306614Y935354D01*
X-266614D01*
X-286614Y895354D01*
X133858Y1042992D02*
X113858Y1082992D01*
X153858D01*
X133858Y1042992D01*
X29528Y822520D02*
X9528Y862520D01*
X49528D01*
X29528Y822520D01*
%TF.MD5,2b30b07d2ea46ea459479418fe781e94*%
M02*
