%TF.GenerationSoftware,Altium Limited,Altium Designer,22.1.2 (22)*%
G04 Layer_Color=128*
%FSLAX26Y26*%
%MOIN*%
%TF.SameCoordinates,654C00B4-3322-4B45-B6E3-0FD47356756A*%
%TF.FilePolarity,Positive*%
%TF.FileFunction,Drillmap*%
%TF.Part,Single*%
G01*
G75*
%TA.AperFunction,NonConductor*%
%ADD57C,0.005000*%
D57*
X-314961Y1663386D02*
X-275591D01*
X-295276Y1643701D02*
Y1683071D01*
X-216535Y1663386D02*
X-177165D01*
X-196850Y1643701D02*
Y1683071D01*
X-118110Y1663386D02*
X-78740D01*
X-98425Y1643701D02*
Y1683071D01*
X-19685Y1663386D02*
X19685D01*
X0Y1643701D02*
Y1683071D01*
X78740Y1663386D02*
X118110D01*
X98425Y1643701D02*
Y1683071D01*
X177165Y1663386D02*
X216535D01*
X196850Y1643701D02*
Y1683071D01*
X275591Y1663386D02*
X314961D01*
X295276Y1643701D02*
Y1683071D01*
X-527559Y1891732D02*
X-425197D01*
X-476378Y1840551D02*
Y1942913D01*
X425197Y1891732D02*
X527559D01*
X476378Y1840551D02*
Y1942913D01*
X468503Y216536D02*
X476377D01*
X472440Y212599D02*
Y220473D01*
X389763Y216536D02*
X397637D01*
X393700Y212599D02*
Y220473D01*
X311023Y216536D02*
X318897D01*
X314960Y212599D02*
Y220473D01*
X232283Y216536D02*
X240157D01*
X236220Y212599D02*
Y220473D01*
X153543Y216536D02*
X161417D01*
X157480Y212599D02*
Y220473D01*
X74803Y216536D02*
X82677D01*
X78740Y212599D02*
Y220473D01*
X-161418Y216536D02*
X-153544D01*
X-157481Y212599D02*
Y220473D01*
X-240158Y216536D02*
X-232284D01*
X-236221Y212599D02*
Y220473D01*
X-318898Y216536D02*
X-311024D01*
X-314961Y212599D02*
Y220473D01*
X-397638Y216536D02*
X-389764D01*
X-393701Y212599D02*
Y220473D01*
X-476378Y216536D02*
X-468504D01*
X-472441Y212599D02*
Y220473D01*
X547244Y1318898D02*
X555118D01*
X551181Y1314961D02*
Y1322835D01*
X547244Y1240158D02*
X555118D01*
X551181Y1236220D02*
Y1244094D01*
X547244Y1161417D02*
X555118D01*
X551181Y1157480D02*
Y1165354D01*
X547244Y1082677D02*
X555118D01*
X551181Y1078740D02*
Y1086614D01*
X547244Y1003937D02*
X555118D01*
X551181Y1000000D02*
Y1007874D01*
X547244Y925197D02*
X555118D01*
X551181Y921260D02*
Y929134D01*
X547244Y846457D02*
X555118D01*
X551181Y842520D02*
Y850394D01*
X547244Y767717D02*
X555118D01*
X551181Y763780D02*
Y771654D01*
X547244Y688977D02*
X555118D01*
X551181Y685040D02*
Y692914D01*
X547244Y610237D02*
X555118D01*
X551181Y606300D02*
Y614174D01*
X547244Y531497D02*
X555118D01*
X551181Y527560D02*
Y535434D01*
X547244Y452757D02*
X555118D01*
X551181Y448820D02*
Y456693D01*
X547244Y374016D02*
X555118D01*
X551181Y370079D02*
Y377953D01*
X547244Y295276D02*
X555118D01*
X551181Y291339D02*
Y299213D01*
X547244Y216536D02*
X555118D01*
X551181Y212599D02*
Y220473D01*
X-555118Y216536D02*
X-547244D01*
X-551181Y212599D02*
Y220473D01*
X-555118Y295276D02*
X-547244D01*
X-551181Y291339D02*
Y299213D01*
X-555118Y374016D02*
X-547244D01*
X-551181Y370079D02*
Y377953D01*
X-555118Y452757D02*
X-547244D01*
X-551181Y448820D02*
Y456693D01*
X-555118Y531497D02*
X-547244D01*
X-551181Y527560D02*
Y535434D01*
X-555118Y610237D02*
X-547244D01*
X-551181Y606300D02*
Y614174D01*
X-555118Y688977D02*
X-547244D01*
X-551181Y685040D02*
Y692914D01*
X-555118Y767717D02*
X-547244D01*
X-551181Y763780D02*
Y771654D01*
X-555118Y846457D02*
X-547244D01*
X-551181Y842520D02*
Y850394D01*
X-555118Y925197D02*
X-547244D01*
X-551181Y921260D02*
Y929134D01*
X-555118Y1003937D02*
X-547244D01*
X-551181Y1000000D02*
Y1007874D01*
X-555118Y1082677D02*
X-547244D01*
X-551181Y1078740D02*
Y1086614D01*
X-555118Y1161417D02*
X-547244D01*
X-551181Y1157480D02*
Y1165354D01*
X-555118Y1240158D02*
X-547244D01*
X-551181Y1236220D02*
Y1244094D01*
X-555118Y1318898D02*
X-547244D01*
X-551181Y1314961D02*
Y1322835D01*
X-358268Y129095D02*
X-350394D01*
X-354331Y125157D02*
Y133031D01*
X-156890Y570866D02*
X-149016D01*
X-152953Y566929D02*
Y574803D01*
X185827Y522500D02*
X193701D01*
X189764Y518563D02*
Y526437D01*
X200787Y935039D02*
X208661D01*
X204724Y931102D02*
Y938976D01*
X-217323Y915354D02*
X-209449D01*
X-213386Y911417D02*
Y919291D01*
X-281102Y1072835D02*
X-273228D01*
X-277165Y1068898D02*
Y1076772D01*
X57087Y554646D02*
X64961D01*
X61024Y550709D02*
Y558583D01*
X57104Y529663D02*
X64978D01*
X61041Y525726D02*
Y533600D01*
X57087Y504626D02*
X64961D01*
X61024Y500689D02*
Y508563D01*
X-229528Y629921D02*
X-221654D01*
X-225590Y625984D02*
Y633858D01*
X-318897Y942975D02*
X-311023D01*
X-314960Y939038D02*
Y946912D01*
X-318897Y1023622D02*
X-311023D01*
X-314960Y1019685D02*
Y1027559D01*
X-251181Y935039D02*
X-243307D01*
X-247244Y931102D02*
Y938976D01*
X-64961Y504626D02*
X-57087D01*
X-61024Y500689D02*
Y508563D01*
X-64961Y529646D02*
X-57087D01*
X-61024Y525709D02*
Y533583D01*
X-64961Y479606D02*
X-57087D01*
X-61024Y475669D02*
Y483543D01*
X-64961Y454606D02*
X-57087D01*
X-61024Y450669D02*
Y458543D01*
X-11811Y129095D02*
X-3937D01*
X-7874Y125157D02*
Y133031D01*
X-43307Y129095D02*
X-35433D01*
X-39370Y125157D02*
Y133031D01*
X255118Y895669D02*
X262992D01*
X259055Y891732D02*
Y899606D01*
X59055Y708662D02*
X66929D01*
X62992Y704725D02*
Y712599D01*
X61063Y825000D02*
X68937D01*
X65000Y821063D02*
Y828937D01*
X114173Y885315D02*
X122047D01*
X118110Y881378D02*
Y889252D01*
X114173Y856299D02*
X122047D01*
X118110Y852362D02*
Y860236D01*
X133858Y816929D02*
X141732D01*
X137795Y812992D02*
Y820866D01*
X57087Y429606D02*
X64961D01*
X61024Y425669D02*
Y433543D01*
X57087Y579646D02*
X64961D01*
X61024Y575709D02*
Y583583D01*
X57087Y454606D02*
X64961D01*
X61024Y450669D02*
Y458543D01*
X57087Y479606D02*
X64961D01*
X61024Y475669D02*
Y483543D01*
X-38937Y850394D02*
X-31063D01*
X-35000Y846457D02*
Y854331D01*
X-98425Y875984D02*
X-90551D01*
X-94488Y872047D02*
Y879921D01*
X-72835Y850394D02*
X-64961D01*
X-68898Y846457D02*
Y854331D01*
X-133937Y850394D02*
X-126063D01*
X-130000Y846457D02*
Y854331D01*
X-192913Y787402D02*
X-185039D01*
X-188976Y783465D02*
Y791339D01*
X-181102Y974409D02*
X-173228D01*
X-177165Y970472D02*
Y978346D01*
X-318897Y1131923D02*
X-311023D01*
X-314960Y1127986D02*
Y1135860D01*
X-181102Y1023622D02*
X-173228D01*
X-177165Y1019685D02*
Y1027559D01*
X-318897Y866142D02*
X-311023D01*
X-314960Y862205D02*
Y870079D01*
X-318897Y787402D02*
X-311023D01*
X-314960Y783465D02*
Y791339D01*
X-318898Y708662D02*
X-311024D01*
X-314961Y704725D02*
Y712599D01*
X-192913Y708662D02*
X-185039D01*
X-188976Y704725D02*
Y712599D01*
X-66929Y708662D02*
X-59055D01*
X-62992Y704725D02*
Y712599D01*
X185039Y708662D02*
X192913D01*
X188976Y704725D02*
Y712599D01*
X192913Y777559D02*
X200787D01*
X196850Y773622D02*
Y781496D01*
X192913Y816929D02*
X200787D01*
X196850Y812992D02*
Y820866D01*
X192913Y856299D02*
X200787D01*
X196850Y852362D02*
Y860236D01*
X186063Y974409D02*
X193937D01*
X190000Y970472D02*
Y978346D01*
X186063Y1013779D02*
X193937D01*
X190000Y1009842D02*
Y1017716D01*
X311023Y708662D02*
X318897D01*
X314960Y704725D02*
Y712599D01*
X311024Y787402D02*
X318898D01*
X314961Y783465D02*
Y791339D01*
X311024Y866142D02*
X318898D01*
X314961Y862205D02*
Y870079D01*
X311024Y944882D02*
X318898D01*
X314961Y940945D02*
Y948819D01*
X25591Y850394D02*
X33465D01*
X29528Y846457D02*
Y854331D01*
X143701Y1062992D02*
X151575D01*
X147638Y1059055D02*
Y1066929D01*
X338583Y1114173D02*
X346457D01*
X342520Y1110236D02*
Y1118110D01*
X311024Y1023622D02*
X318898D01*
X314961Y1019685D02*
Y1027559D01*
X242126Y1114173D02*
X250000D01*
X246063Y1110236D02*
Y1118110D01*
X143701Y1114173D02*
X151575D01*
X147638Y1110236D02*
Y1118110D01*
X338583Y1456693D02*
X346457D01*
X342520Y1452756D02*
Y1460630D01*
X242126Y1456693D02*
X250000D01*
X246063Y1452756D02*
Y1460630D01*
X143701Y1456693D02*
X151575D01*
X147638Y1452756D02*
Y1460630D01*
X45276Y1220489D02*
X53150D01*
X49213Y1216552D02*
Y1224426D01*
X-236220Y1131923D02*
X-228346D01*
X-232283Y1127986D02*
Y1135860D01*
X-153543Y1131923D02*
X-145669D01*
X-149606Y1127986D02*
Y1135860D01*
X-43307Y1377953D02*
X-35433D01*
X-39370Y1374016D02*
Y1381890D01*
X-153543Y1377953D02*
X-145669D01*
X-149606Y1374016D02*
Y1381890D01*
X-318897Y1220489D02*
X-311023D01*
X-314960Y1216552D02*
Y1224426D01*
X19685Y129095D02*
X27559D01*
X23622Y125157D02*
Y133031D01*
X82677Y129095D02*
X90551D01*
X86614Y125157D02*
Y133031D01*
X51181Y129095D02*
X59055D01*
X55118Y125157D02*
Y133031D01*
X338583Y1220489D02*
X346457D01*
X342520Y1216552D02*
Y1224426D01*
X338583Y1377953D02*
X346457D01*
X342520Y1374016D02*
Y1381890D01*
X338583Y1309055D02*
X346457D01*
X342520Y1305118D02*
Y1312992D01*
X45276Y1456693D02*
X53150D01*
X49213Y1452756D02*
Y1460630D01*
X45276Y1377953D02*
X53150D01*
X49213Y1374016D02*
Y1381890D01*
X45276Y1309055D02*
X53150D01*
X49213Y1305118D02*
Y1312992D01*
X242126Y1309055D02*
X250000D01*
X246063Y1305118D02*
Y1312992D01*
X242126Y1377953D02*
X250000D01*
X246063Y1374016D02*
Y1381890D01*
X143701Y1377953D02*
X151575D01*
X147638Y1374016D02*
Y1381890D01*
X143701Y1309055D02*
X151575D01*
X147638Y1305118D02*
Y1312992D01*
X143701Y1220489D02*
X151575D01*
X147638Y1216552D02*
Y1224426D01*
X242126Y1220489D02*
X250000D01*
X246063Y1216552D02*
Y1224426D01*
X-43307Y1309055D02*
X-35433D01*
X-39370Y1305118D02*
Y1312992D01*
X-43307Y1220489D02*
X-35433D01*
X-39370Y1216552D02*
Y1224426D01*
X-251969Y1377953D02*
X-244095D01*
X-248031Y1374016D02*
Y1381890D01*
X-342520Y1377953D02*
X-334646D01*
X-338583Y1374016D02*
Y1381890D01*
X-153543Y1309055D02*
X-145669D01*
X-149606Y1305118D02*
Y1312992D01*
X-251969Y1309055D02*
X-244095D01*
X-248031Y1305118D02*
Y1312992D01*
X-342520Y1309055D02*
X-334646D01*
X-338583Y1305118D02*
Y1312992D01*
X-236220Y1220489D02*
X-228346D01*
X-232283Y1216552D02*
Y1224426D01*
X-153543Y1220489D02*
X-145669D01*
X-149606Y1216552D02*
Y1224426D01*
%TF.MD5,49822889197a7a821f73e5eb469e31d7*%
M02*
