%TF.GenerationSoftware,Altium Limited,Altium Designer,22.1.2 (22)*%
G04 Layer_Color=0*
%FSLAX26Y26*%
%MOIN*%
%TF.SameCoordinates,4CB55538-D73B-4A6B-AD5D-0D58206D9AAC*%
%TF.FilePolarity,Positive*%
%TF.FileFunction,Plated,1,4,PTH,Drill*%
%TF.Part,Single*%
G01*
G75*
%TA.AperFunction,OtherDrill,Pad Free-1 (-476.378mil,1891.732mil)*%
%ADD59C,0.102362*%
%TA.AperFunction,ComponentDrill*%
%ADD60C,0.039370*%
%TA.AperFunction,OtherDrill,Pad Free-2 (476.378mil,1891.732mil)*%
%ADD61C,0.102362*%
%TA.AperFunction,ViaDrill,NotFilled*%
%ADD62C,0.007874*%
D59*
X-476378Y1891732D02*
D03*
D60*
X295276Y1663386D02*
D03*
X196850D02*
D03*
X98425D02*
D03*
X0D02*
D03*
X-98425D02*
D03*
X-196850D02*
D03*
X-295276D02*
D03*
D61*
X476378Y1891732D02*
D03*
D62*
X485000Y1045000D02*
D03*
X-485000D02*
D03*
X480000Y1325000D02*
D03*
X-485000D02*
D03*
X511811Y511811D02*
D03*
Y354331D02*
D03*
Y196850D02*
D03*
X-511811Y511811D02*
D03*
Y354331D02*
D03*
Y196850D02*
D03*
X-340000Y1125000D02*
D03*
X-265866Y1120000D02*
D03*
X259055Y719055D02*
D03*
X259055Y1132035D02*
D03*
X23622Y129095D02*
D03*
X-337795Y589764D02*
D03*
X235000Y675000D02*
D03*
X340000Y535000D02*
D03*
Y675000D02*
D03*
X5000Y535000D02*
D03*
Y675000D02*
D03*
X-135000Y535000D02*
D03*
Y675000D02*
D03*
X-235000Y535000D02*
D03*
X-213386Y675000D02*
D03*
X236811Y539685D02*
D03*
X286811Y539370D02*
D03*
Y425197D02*
D03*
X236811D02*
D03*
X81496Y483858D02*
D03*
X149606Y129095D02*
D03*
X118110D02*
D03*
X86614D02*
D03*
X55118D02*
D03*
X-7874D02*
D03*
X-39370D02*
D03*
X-370079D02*
D03*
X342520Y1120000D02*
D03*
%TF.MD5,a8782dd11d52265e77b93aed978c781b*%
M02*
