%TF.GenerationSoftware,Altium Limited,Altium Designer,22.1.2 (22)*%
G04 Layer_Color=8388736*
%FSLAX26Y26*%
%MOIN*%
%TF.SameCoordinates,4CB55538-D73B-4A6B-AD5D-0D58206D9AAC*%
%TF.FilePolarity,Negative*%
%TF.FileFunction,Soldermask,Top*%
%TF.Part,Single*%
G01*
G75*
%TA.AperFunction,NonConductor*%
%ADD37R,1.031496X0.115157*%
%ADD38R,1.181102X0.106299*%
%TA.AperFunction,SMDPad,CuDef*%
%ADD40R,0.019291X0.021260*%
%ADD41R,0.021260X0.019291*%
%TA.AperFunction,ConnectorPad*%
%ADD46R,0.024409X0.091339*%
%TA.AperFunction,ViaPad*%
%ADD47R,0.209449X0.209449*%
%TA.AperFunction,ComponentPad*%
%ADD48R,0.059150X0.059150*%
%ADD49C,0.059150*%
%TA.AperFunction,NonConductor*%
%ADD50C,0.029575*%
%TA.AperFunction,SMDPad,CuDef*%
%ADD51R,0.028346X0.055906*%
%ADD52R,0.028346X0.040157*%
%ADD53R,0.024409X0.051968*%
%ADD54R,0.020472X0.024409*%
%ADD55R,0.059843X0.040157*%
G36*
X132912Y253311D02*
X134236D01*
Y252980D01*
X136885D01*
Y253311D01*
X140195D01*
Y252980D01*
X143506D01*
Y252649D01*
X145492D01*
Y252317D01*
X146817D01*
Y251986D01*
X147148D01*
Y251655D01*
X147810D01*
Y251324D01*
X148472D01*
Y250993D01*
X148803D01*
Y250662D01*
X149134D01*
Y250331D01*
X149465D01*
Y250000D01*
X149796D01*
Y249669D01*
X150127D01*
Y249338D01*
X150458D01*
Y249007D01*
Y248676D01*
X150127D01*
Y248345D01*
Y248014D01*
X150458D01*
Y248345D01*
X150789D01*
Y248676D01*
X151120D01*
Y248345D01*
Y248014D01*
X151452D01*
Y247683D01*
Y247351D01*
X152114D01*
Y247020D01*
X151783D01*
Y246689D01*
X152445D01*
Y246358D01*
X152776D01*
Y246027D01*
Y245696D01*
Y245365D01*
X153107D01*
Y245034D01*
X153438D01*
Y244703D01*
Y244372D01*
X153769D01*
Y244041D01*
Y243710D01*
Y243379D01*
X154100D01*
Y243048D01*
Y242716D01*
X154431D01*
Y242385D01*
Y242054D01*
X154762D01*
Y241723D01*
Y241392D01*
X155093D01*
Y241061D01*
X155424D01*
Y240730D01*
Y240399D01*
X155756D01*
Y240068D01*
Y239737D01*
X156087D01*
Y239406D01*
X156418D01*
Y239075D01*
X156087D01*
Y238744D01*
X156418D01*
Y238412D01*
X156749D01*
Y238082D01*
Y237750D01*
Y237419D01*
X157080D01*
Y237088D01*
Y236757D01*
Y236426D01*
X157411D01*
Y236095D01*
Y235764D01*
Y235433D01*
Y235102D01*
Y234771D01*
X157742D01*
Y234440D01*
Y234109D01*
X162046D01*
Y233778D01*
X161715D01*
Y233446D01*
X161053D01*
Y233115D01*
X159728D01*
Y232784D01*
X161715D01*
Y232453D01*
X161384D01*
Y232122D01*
X161053D01*
Y232453D01*
X160721D01*
Y232122D01*
X160390D01*
Y231791D01*
X158073D01*
Y231460D01*
Y231129D01*
Y230798D01*
Y230467D01*
Y230136D01*
Y229805D01*
Y229474D01*
Y229143D01*
Y228811D01*
Y228480D01*
X157742D01*
Y228149D01*
Y227818D01*
Y227487D01*
Y227156D01*
X157411D01*
Y226825D01*
X157080D01*
Y226494D01*
X157411D01*
Y226163D01*
X157080D01*
Y225832D01*
X156749D01*
Y225501D01*
X156418D01*
Y225170D01*
X156749D01*
Y224839D01*
X156418D01*
Y224508D01*
Y224177D01*
X156087D01*
Y224508D01*
X155756D01*
Y224177D01*
X156087D01*
Y223846D01*
Y223514D01*
X155756D01*
Y223183D01*
X155424D01*
Y222852D01*
Y222521D01*
X155093D01*
Y222190D01*
X154431D01*
Y221859D01*
Y221528D01*
X153769D01*
Y221197D01*
X153438D01*
Y220866D01*
X152776D01*
Y220535D01*
X151783D01*
Y220204D01*
X150127D01*
Y220535D01*
X149134D01*
Y220866D01*
X148472D01*
Y221197D01*
X148141D01*
Y221528D01*
X147810D01*
Y221859D01*
X147479D01*
Y222190D01*
Y222521D01*
Y222852D01*
X147148D01*
Y223183D01*
Y223514D01*
X146817D01*
Y223846D01*
Y224177D01*
Y224508D01*
Y224839D01*
X147148D01*
Y225170D01*
X147479D01*
Y225501D01*
X147148D01*
Y225832D01*
X147479D01*
Y226163D01*
Y226494D01*
X147810D01*
Y226825D01*
X148141D01*
Y227156D01*
X148472D01*
Y227487D01*
X149465D01*
Y227156D01*
X149796D01*
Y226825D01*
Y226494D01*
X149465D01*
Y226163D01*
X149796D01*
Y225832D01*
Y225501D01*
X149465D01*
Y225170D01*
X149134D01*
Y224839D01*
Y224508D01*
Y224177D01*
X149465D01*
Y223846D01*
X150127D01*
Y223514D01*
X151120D01*
Y223846D01*
X151783D01*
Y224177D01*
X152114D01*
Y224508D01*
X152445D01*
Y224839D01*
Y225170D01*
Y225501D01*
X152776D01*
Y225832D01*
X153107D01*
Y226163D01*
X152776D01*
Y226494D01*
X153107D01*
Y226825D01*
Y227156D01*
Y227487D01*
Y227818D01*
Y228149D01*
Y228480D01*
Y228811D01*
Y229143D01*
Y229474D01*
Y229805D01*
Y230136D01*
Y230467D01*
X153438D01*
Y230798D01*
X153107D01*
Y231129D01*
Y231460D01*
X152776D01*
Y231791D01*
Y232122D01*
X152445D01*
Y232453D01*
Y232784D01*
Y233115D01*
X152114D01*
Y233446D01*
Y233778D01*
X151783D01*
Y234109D01*
Y234440D01*
X151452D01*
Y234771D01*
X149465D01*
Y234440D01*
X148472D01*
Y234771D01*
X148141D01*
Y235102D01*
X147479D01*
Y235433D01*
X147148D01*
Y235764D01*
X146486D01*
Y236095D01*
X144168D01*
Y235764D01*
X143837D01*
Y235433D01*
X143175D01*
Y235102D01*
Y234771D01*
X142182D01*
Y234440D01*
Y234109D01*
X141519D01*
Y233778D01*
X140857D01*
Y234109D01*
X140526D01*
Y233778D01*
X139864D01*
Y234109D01*
X139202D01*
Y234440D01*
X138540D01*
Y234771D01*
X137878D01*
Y235102D01*
Y235433D01*
X137547D01*
Y235102D01*
X137216D01*
Y235433D01*
X136885D01*
Y235764D01*
X136553D01*
Y236095D01*
Y236426D01*
X136885D01*
Y236757D01*
X136222D01*
Y236426D01*
Y236095D01*
X135891D01*
Y236426D01*
X135560D01*
Y236757D01*
X135229D01*
Y237088D01*
X134898D01*
Y237419D01*
X134567D01*
Y237750D01*
X134236D01*
Y238082D01*
X133905D01*
Y238412D01*
X133574D01*
Y238744D01*
Y239075D01*
X133243D01*
Y239406D01*
X132912D01*
Y239737D01*
X132581D01*
Y240068D01*
Y240399D01*
X132250D01*
Y240730D01*
X131918D01*
Y241061D01*
Y241392D01*
X131587D01*
Y241061D01*
Y240730D01*
X131918D01*
Y240399D01*
Y240068D01*
X132250D01*
Y239737D01*
Y239406D01*
X132581D01*
Y239075D01*
X132912D01*
Y238744D01*
X133243D01*
Y238412D01*
Y238082D01*
X133574D01*
Y237750D01*
X133905D01*
Y237419D01*
X134236D01*
Y237088D01*
X134567D01*
Y236757D01*
X134898D01*
Y236426D01*
X135560D01*
Y236095D01*
X135891D01*
Y235764D01*
X136222D01*
Y235433D01*
X136553D01*
Y235102D01*
X137216D01*
Y234771D01*
X137547D01*
Y234440D01*
Y234109D01*
X138209D01*
Y233778D01*
Y233446D01*
Y233115D01*
Y232784D01*
Y232453D01*
Y232122D01*
Y231791D01*
Y231460D01*
X138540D01*
Y231129D01*
Y230798D01*
Y230467D01*
Y230136D01*
Y229805D01*
Y229474D01*
Y229143D01*
Y228811D01*
X138871D01*
Y228480D01*
X139202D01*
Y228149D01*
Y227818D01*
Y227487D01*
X139533D01*
Y227156D01*
Y226825D01*
X139864D01*
Y226494D01*
Y226163D01*
Y225832D01*
Y225501D01*
Y225170D01*
X140195D01*
Y224839D01*
Y224508D01*
Y224177D01*
X140526D01*
Y223846D01*
Y223514D01*
X140195D01*
Y223183D01*
X140526D01*
Y222852D01*
X140857D01*
Y222521D01*
Y222190D01*
X140526D01*
Y221859D01*
X140857D01*
Y221528D01*
Y221197D01*
X141188D01*
Y220866D01*
Y220535D01*
Y220204D01*
X141519D01*
Y219873D01*
Y219542D01*
Y219210D01*
Y218879D01*
X141851D01*
Y218548D01*
Y218217D01*
Y217886D01*
X142182D01*
Y217555D01*
X141851D01*
Y217224D01*
X142182D01*
Y216893D01*
X142513D01*
Y216562D01*
Y216231D01*
Y215900D01*
X142844D01*
Y215569D01*
Y215238D01*
Y214907D01*
X143175D01*
Y214576D01*
X142844D01*
Y214244D01*
X143175D01*
Y213913D01*
Y213582D01*
X143506D01*
Y213251D01*
X143175D01*
Y212920D01*
X143506D01*
Y212589D01*
Y212258D01*
Y211927D01*
Y211596D01*
Y211265D01*
X143837D01*
Y210934D01*
Y210603D01*
Y210272D01*
X144168D01*
Y209941D01*
Y209609D01*
X144499D01*
Y209278D01*
Y208947D01*
X144830D01*
Y208616D01*
Y208285D01*
X145161D01*
Y207954D01*
X145492D01*
Y207623D01*
Y207292D01*
X145823D01*
Y206961D01*
X146154D01*
Y206630D01*
X146486D01*
Y206299D01*
Y205968D01*
X146154D01*
Y205637D01*
X145161D01*
Y205306D01*
X142182D01*
Y204975D01*
X141851D01*
Y205306D01*
X139533D01*
Y205637D01*
Y205968D01*
X139202D01*
Y206299D01*
Y206630D01*
Y206961D01*
Y207292D01*
X139533D01*
Y207623D01*
Y207954D01*
X139864D01*
Y208285D01*
X140195D01*
Y208616D01*
Y208947D01*
X139864D01*
Y209278D01*
Y209609D01*
Y209941D01*
X139533D01*
Y210272D01*
Y210603D01*
Y210934D01*
X139202D01*
Y211265D01*
Y211596D01*
Y211927D01*
X138871D01*
Y212258D01*
Y212589D01*
X138540D01*
Y212920D01*
Y213251D01*
X138209D01*
Y213582D01*
Y213913D01*
X137878D01*
Y214244D01*
Y214576D01*
X137547D01*
Y214907D01*
X137216D01*
Y215238D01*
Y215569D01*
X136885D01*
Y215900D01*
X137216D01*
Y216231D01*
X136553D01*
Y216562D01*
Y216893D01*
Y217224D01*
X135891D01*
Y217555D01*
Y217886D01*
X135560D01*
Y218217D01*
Y218548D01*
X135229D01*
Y218879D01*
X134898D01*
Y219210D01*
X135560D01*
Y219542D01*
X134567D01*
Y219873D01*
X134236D01*
Y220204D01*
Y220535D01*
X133905D01*
Y220866D01*
X133574D01*
Y221197D01*
X133243D01*
Y221528D01*
X132912D01*
Y221859D01*
X132581D01*
Y222190D01*
X132250D01*
Y222521D01*
X131918D01*
Y222852D01*
X131587D01*
Y223183D01*
X131256D01*
Y223514D01*
X130925D01*
Y223846D01*
X130594D01*
Y224177D01*
Y224508D01*
X130263D01*
Y224839D01*
X129932D01*
Y225170D01*
Y225501D01*
X129601D01*
Y225832D01*
X129270D01*
Y226163D01*
Y226494D01*
X128939D01*
Y226825D01*
Y227156D01*
X128608D01*
Y227487D01*
Y227818D01*
X128277D01*
Y227487D01*
Y227156D01*
X128608D01*
Y226825D01*
Y226494D01*
X128939D01*
Y226163D01*
Y225832D01*
X129270D01*
Y225501D01*
Y225170D01*
X129601D01*
Y224839D01*
X129932D01*
Y224508D01*
Y224177D01*
X130263D01*
Y223846D01*
X130594D01*
Y223514D01*
Y223183D01*
X130925D01*
Y222852D01*
Y222521D01*
Y222190D01*
Y221859D01*
X130594D01*
Y221528D01*
Y221197D01*
Y220866D01*
X130263D01*
Y220535D01*
Y220204D01*
Y219873D01*
X129932D01*
Y219542D01*
Y219210D01*
X129601D01*
Y218879D01*
Y218548D01*
Y218217D01*
X129270D01*
Y217886D01*
Y217555D01*
Y217224D01*
X128939D01*
Y216893D01*
Y216562D01*
Y216231D01*
Y215900D01*
X128608D01*
Y215569D01*
Y215238D01*
Y214907D01*
Y214576D01*
X128277D01*
Y214244D01*
Y213913D01*
Y213582D01*
X127946D01*
Y213251D01*
Y212920D01*
X127615D01*
Y212589D01*
Y212258D01*
Y211927D01*
X127284D01*
Y211596D01*
Y211265D01*
X126952D01*
Y210934D01*
Y210603D01*
Y210272D01*
Y209941D01*
Y209609D01*
X126621D01*
Y209278D01*
Y208947D01*
X126952D01*
Y208616D01*
Y208285D01*
Y207954D01*
X127284D01*
Y207623D01*
X127615D01*
Y207292D01*
X127946D01*
Y206961D01*
X128277D01*
Y206630D01*
X128608D01*
Y206299D01*
Y205968D01*
X128939D01*
Y205637D01*
Y205306D01*
Y204975D01*
X128277D01*
Y204643D01*
X123973D01*
Y204975D01*
X122980D01*
Y204643D01*
X121324D01*
Y204975D01*
X120993D01*
Y205306D01*
Y205637D01*
Y205968D01*
Y206299D01*
X121324D01*
Y206630D01*
Y206961D01*
X121655D01*
Y207292D01*
X122317D01*
Y207623D01*
Y207954D01*
Y208285D01*
X122648D01*
Y208616D01*
X122317D01*
Y208947D01*
Y209278D01*
Y209609D01*
Y209941D01*
Y210272D01*
Y210603D01*
Y210934D01*
Y211265D01*
Y211596D01*
Y211927D01*
Y212258D01*
X122648D01*
Y212589D01*
Y212920D01*
Y213251D01*
Y213582D01*
Y213913D01*
Y214244D01*
Y214576D01*
Y214907D01*
X122980D01*
Y215238D01*
Y215569D01*
Y215900D01*
Y216231D01*
Y216562D01*
X123311D01*
Y216893D01*
Y217224D01*
Y217555D01*
Y217886D01*
Y218217D01*
Y218548D01*
X123642D01*
Y218879D01*
Y219210D01*
Y219542D01*
Y219873D01*
Y220204D01*
Y220535D01*
Y220866D01*
Y221197D01*
Y221528D01*
Y221859D01*
Y222190D01*
Y222521D01*
X123973D01*
Y222852D01*
X123642D01*
Y223183D01*
Y223514D01*
Y223846D01*
Y224177D01*
Y224508D01*
Y224839D01*
Y225170D01*
Y225501D01*
X123311D01*
Y225832D01*
Y226163D01*
Y226494D01*
X122648D01*
Y226163D01*
X121986D01*
Y225832D01*
X121324D01*
Y225501D01*
X120662D01*
Y225170D01*
X119669D01*
Y224839D01*
X118676D01*
Y224508D01*
X117020D01*
Y224177D01*
X116358D01*
Y224508D01*
X115365D01*
Y224177D01*
X113047D01*
Y224508D01*
X112716D01*
Y224177D01*
X113047D01*
Y223846D01*
X112385D01*
Y223514D01*
Y223183D01*
X112054D01*
Y222852D01*
X111723D01*
Y222521D01*
X111392D01*
Y222190D01*
X111061D01*
Y221859D01*
X110730D01*
Y221528D01*
X110399D01*
Y221197D01*
X110068D01*
Y220866D01*
X109737D01*
Y220535D01*
Y220204D01*
X109406D01*
Y219873D01*
Y219542D01*
Y219210D01*
X109075D01*
Y218879D01*
Y218548D01*
X108743D01*
Y218217D01*
Y217886D01*
Y217555D01*
X108412D01*
Y217224D01*
Y216893D01*
Y216562D01*
Y216231D01*
X108743D01*
Y215900D01*
Y215569D01*
Y215238D01*
Y214907D01*
Y214576D01*
Y214244D01*
Y213913D01*
Y213582D01*
Y213251D01*
Y212920D01*
Y212589D01*
Y212258D01*
Y211927D01*
Y211596D01*
Y211265D01*
Y210934D01*
X109075D01*
Y210603D01*
Y210272D01*
Y209941D01*
X109406D01*
Y209609D01*
Y209278D01*
X109737D01*
Y208947D01*
X110068D01*
Y208616D01*
X110399D01*
Y208285D01*
X110730D01*
Y207954D01*
X111061D01*
Y207623D01*
X111392D01*
Y207292D01*
X111723D01*
Y206961D01*
X112054D01*
Y206630D01*
Y206299D01*
Y205968D01*
X111723D01*
Y205637D01*
X104440D01*
Y205968D01*
X103778D01*
Y206299D01*
Y206630D01*
Y206961D01*
Y207292D01*
Y207623D01*
Y207954D01*
Y208285D01*
Y208616D01*
Y208947D01*
Y209278D01*
Y209609D01*
Y209941D01*
Y210272D01*
Y210603D01*
X104109D01*
Y210934D01*
Y211265D01*
Y211596D01*
Y211927D01*
Y212258D01*
X104440D01*
Y212589D01*
Y212920D01*
Y213251D01*
Y213582D01*
Y213913D01*
Y214244D01*
Y214576D01*
Y214907D01*
Y215238D01*
Y215569D01*
Y215900D01*
Y216231D01*
Y216562D01*
Y216893D01*
Y217224D01*
Y217555D01*
X104109D01*
Y217886D01*
Y218217D01*
Y218548D01*
Y218879D01*
Y219210D01*
Y219542D01*
Y219873D01*
X103778D01*
Y220204D01*
X103446D01*
Y220535D01*
X103115D01*
Y220866D01*
X103446D01*
Y221197D01*
X103778D01*
Y221528D01*
X104109D01*
Y221859D01*
X104440D01*
Y222190D01*
X104771D01*
Y222521D01*
Y222852D01*
X105102D01*
Y223183D01*
X105764D01*
Y223514D01*
Y223846D01*
Y224177D01*
X105433D01*
Y223846D01*
X105102D01*
Y223514D01*
X104771D01*
Y223183D01*
X104440D01*
Y222852D01*
Y222521D01*
X104109D01*
Y222190D01*
X103778D01*
Y222521D01*
X103115D01*
Y222190D01*
X103778D01*
Y221859D01*
X103446D01*
Y221528D01*
X103115D01*
Y221197D01*
X102784D01*
Y220866D01*
Y220535D01*
X102453D01*
Y220204D01*
X102122D01*
Y219873D01*
X101791D01*
Y219542D01*
X101460D01*
Y219210D01*
Y218879D01*
X101129D01*
Y218548D01*
X100798D01*
Y218217D01*
Y217886D01*
X100467D01*
Y217555D01*
Y217224D01*
X99805D01*
Y216893D01*
X100136D01*
Y216562D01*
X99805D01*
Y216231D01*
X99474D01*
Y215900D01*
Y215569D01*
Y215238D01*
X99142D01*
Y214907D01*
Y214576D01*
X98811D01*
Y214244D01*
Y213913D01*
X98480D01*
Y213582D01*
X98811D01*
Y213251D01*
X98480D01*
Y212920D01*
Y212589D01*
Y212258D01*
Y211927D01*
X98149D01*
Y212258D01*
X97818D01*
Y211927D01*
X98149D01*
Y211596D01*
Y211265D01*
Y210934D01*
Y210603D01*
X97818D01*
Y210272D01*
Y209941D01*
Y209609D01*
X97487D01*
Y209278D01*
Y208947D01*
Y208616D01*
X97156D01*
Y208285D01*
X97487D01*
Y207954D01*
Y207623D01*
Y207292D01*
X97818D01*
Y206961D01*
X97487D01*
Y207292D01*
X97156D01*
Y206961D01*
X97487D01*
Y206630D01*
Y206299D01*
Y205968D01*
X96825D01*
Y205637D01*
X96494D01*
Y205968D01*
X93514D01*
Y206299D01*
X93183D01*
Y206630D01*
X92852D01*
Y206961D01*
Y207292D01*
X92521D01*
Y207623D01*
Y207954D01*
Y208285D01*
Y208616D01*
Y208947D01*
Y209278D01*
X92852D01*
Y209609D01*
Y209941D01*
X93183D01*
Y210272D01*
X93514D01*
Y210603D01*
X93845D01*
Y210934D01*
X94176D01*
Y210603D01*
X94507D01*
Y210934D01*
X94176D01*
Y211265D01*
Y211596D01*
Y211927D01*
Y212258D01*
X94507D01*
Y212589D01*
Y212920D01*
Y213251D01*
X94839D01*
Y213582D01*
Y213913D01*
X95170D01*
Y214244D01*
Y214576D01*
X94507D01*
Y214244D01*
X94176D01*
Y214576D01*
Y214907D01*
X93514D01*
Y215238D01*
Y215569D01*
X93845D01*
Y215900D01*
Y216231D01*
Y216562D01*
Y216893D01*
Y217224D01*
X94176D01*
Y217555D01*
Y217886D01*
Y218217D01*
X94507D01*
Y218548D01*
Y218879D01*
Y219210D01*
Y219542D01*
X94839D01*
Y219873D01*
Y220204D01*
Y220535D01*
X95170D01*
Y220866D01*
Y221197D01*
Y221528D01*
X95501D01*
Y221859D01*
Y222190D01*
Y222521D01*
Y222852D01*
X95832D01*
Y222521D01*
X96163D01*
Y222190D01*
Y221859D01*
Y221528D01*
Y221197D01*
X95832D01*
Y220866D01*
Y220535D01*
Y220204D01*
Y219873D01*
X95501D01*
Y219542D01*
Y219210D01*
Y218879D01*
X95170D01*
Y218548D01*
Y218217D01*
Y217886D01*
Y217555D01*
Y217224D01*
Y216893D01*
Y216562D01*
Y216231D01*
Y215900D01*
Y215569D01*
Y215238D01*
X94839D01*
Y214907D01*
X95501D01*
Y215238D01*
Y215569D01*
Y215900D01*
X95832D01*
Y216231D01*
Y216562D01*
Y216893D01*
Y217224D01*
X96163D01*
Y217555D01*
Y217886D01*
Y218217D01*
Y218548D01*
Y218879D01*
X96494D01*
Y219210D01*
Y219542D01*
Y219873D01*
Y220204D01*
Y220535D01*
Y220866D01*
Y221197D01*
Y221528D01*
Y221859D01*
Y222190D01*
Y222521D01*
Y222852D01*
X96163D01*
Y223183D01*
X95832D01*
Y223514D01*
Y223846D01*
Y224177D01*
X96163D01*
Y224508D01*
Y224839D01*
Y225170D01*
Y225501D01*
Y225832D01*
Y226163D01*
Y226494D01*
Y226825D01*
X96494D01*
Y227156D01*
Y227487D01*
Y227818D01*
Y228149D01*
Y228480D01*
Y228811D01*
Y229143D01*
X96825D01*
Y229474D01*
Y229805D01*
Y230136D01*
Y230467D01*
Y230798D01*
Y231129D01*
Y231460D01*
Y231791D01*
Y232122D01*
Y232453D01*
Y232784D01*
Y233115D01*
Y233446D01*
Y233778D01*
Y234109D01*
Y234440D01*
Y234771D01*
Y235102D01*
Y235433D01*
X97156D01*
Y235764D01*
Y236095D01*
Y236426D01*
Y236757D01*
Y237088D01*
X97487D01*
Y237419D01*
Y237750D01*
X97818D01*
Y238082D01*
Y238412D01*
Y238744D01*
X98149D01*
Y239075D01*
X98480D01*
Y239406D01*
Y239737D01*
X98811D01*
Y240068D01*
Y240399D01*
X99474D01*
Y240730D01*
Y241061D01*
Y241392D01*
X99805D01*
Y241723D01*
X100136D01*
Y242054D01*
X100798D01*
Y242385D01*
X100467D01*
Y242716D01*
X100798D01*
Y243048D01*
X101129D01*
Y243379D01*
Y243710D01*
X101460D01*
Y244041D01*
X101791D01*
Y244372D01*
Y244703D01*
X102122D01*
Y245034D01*
X102453D01*
Y245365D01*
X102784D01*
Y245034D01*
X103115D01*
Y245365D01*
X102784D01*
Y245696D01*
Y246027D01*
X103115D01*
Y246358D01*
X103446D01*
Y246689D01*
X103778D01*
Y247020D01*
X104109D01*
Y247351D01*
X105102D01*
Y247683D01*
Y248014D01*
X105433D01*
Y247683D01*
X105764D01*
Y248014D01*
Y248345D01*
X106426D01*
Y248676D01*
X107088D01*
Y249007D01*
X108412D01*
Y249338D01*
X109406D01*
Y249007D01*
X109737D01*
Y249338D01*
X109406D01*
Y249669D01*
X112054D01*
Y250000D01*
X120000D01*
Y250331D01*
X121655D01*
Y250662D01*
X122648D01*
Y250993D01*
X123642D01*
Y251324D01*
X124635D01*
Y251655D01*
X125959D01*
Y251986D01*
X126952D01*
Y252317D01*
X128277D01*
Y252649D01*
X128939D01*
Y252980D01*
X129932D01*
Y253311D01*
X130263D01*
Y252980D01*
X130594D01*
Y253311D01*
X130925D01*
Y252980D01*
X131256D01*
Y253311D01*
X130925D01*
Y253642D01*
X132912D01*
Y253311D01*
D02*
G37*
G36*
X265701Y1692961D02*
X324850D01*
Y1633811D01*
X265701D01*
Y1692961D01*
D02*
G37*
G36*
X501884Y1264867D02*
X501829Y1263884D01*
X501774Y1262792D01*
X501665Y1261700D01*
X501501Y1260608D01*
X501338Y1259680D01*
Y1259625D01*
X501283Y1259516D01*
Y1259352D01*
X501174Y1259134D01*
X501010Y1258533D01*
X500737Y1257769D01*
X500355Y1256895D01*
X499863Y1255967D01*
X499317Y1255039D01*
X498608Y1254165D01*
X498553Y1254111D01*
X498498Y1254056D01*
X498335Y1253892D01*
X498171Y1253674D01*
X497625Y1253128D01*
X496860Y1252473D01*
X495932Y1251763D01*
X494840Y1250998D01*
X493584Y1250289D01*
X492165Y1249688D01*
X492110D01*
X492001Y1249633D01*
X491783Y1249524D01*
X491455Y1249470D01*
X491073Y1249306D01*
X490636Y1249197D01*
X490145Y1249087D01*
X489544Y1248924D01*
X488943Y1248760D01*
X488234Y1248651D01*
X486705Y1248378D01*
X485012Y1248214D01*
X483156Y1248159D01*
X483101D01*
X482992D01*
X482719D01*
X482446D01*
X482064Y1248214D01*
X481627D01*
X480590Y1248268D01*
X479388Y1248432D01*
X478133Y1248596D01*
X476822Y1248869D01*
X475512Y1249197D01*
X475457D01*
X475348Y1249251D01*
X475184Y1249306D01*
X474966Y1249360D01*
X474365Y1249579D01*
X473601Y1249906D01*
X472727Y1250234D01*
X471854Y1250671D01*
X470925Y1251217D01*
X470052Y1251763D01*
X469943Y1251817D01*
X469670Y1252036D01*
X469287Y1252363D01*
X468796Y1252800D01*
X468250Y1253292D01*
X467704Y1253892D01*
X467103Y1254493D01*
X466612Y1255203D01*
X466557Y1255312D01*
X466394Y1255530D01*
X466175Y1255912D01*
X465902Y1256458D01*
X465575Y1257114D01*
X465302Y1257878D01*
X464974Y1258752D01*
X464701Y1259734D01*
Y1259844D01*
X464646Y1260007D01*
X464592Y1260171D01*
X464537Y1260717D01*
X464428Y1261482D01*
X464319Y1262355D01*
X464210Y1263393D01*
X464155Y1264539D01*
X464100Y1265795D01*
Y1279390D01*
X501884D01*
Y1264867D01*
D02*
G37*
G36*
Y1231015D02*
Y1225555D01*
X464100Y1210103D01*
Y1215781D01*
X475566Y1220204D01*
Y1236038D01*
X464100Y1240133D01*
Y1245429D01*
X501884Y1231015D01*
D02*
G37*
G36*
Y1200985D02*
X472181Y1181165D01*
X501884D01*
Y1176360D01*
X464100D01*
Y1181547D01*
X493748Y1201312D01*
X464100D01*
Y1206117D01*
X501884D01*
Y1200985D01*
D02*
G37*
G36*
X483702Y1169208D02*
X484193D01*
X484794Y1169153D01*
X485394Y1169044D01*
X486104Y1168989D01*
X486869Y1168825D01*
X487688Y1168716D01*
X489435Y1168279D01*
X491237Y1167733D01*
X493038Y1166969D01*
X493093Y1166914D01*
X493257Y1166860D01*
X493475Y1166751D01*
X493803Y1166532D01*
X494240Y1166314D01*
X494676Y1166041D01*
X495714Y1165276D01*
X496915Y1164348D01*
X498062Y1163202D01*
X499208Y1161891D01*
X499700Y1161127D01*
X500191Y1160362D01*
X500246Y1160308D01*
X500300Y1160144D01*
X500409Y1159926D01*
X500573Y1159598D01*
X500737Y1159161D01*
X500955Y1158670D01*
X501174Y1158124D01*
X501392Y1157469D01*
X501611Y1156759D01*
X501774Y1155994D01*
X501993Y1155175D01*
X502157Y1154302D01*
X502430Y1152391D01*
X502539Y1151408D01*
Y1149661D01*
X502484Y1149333D01*
Y1148896D01*
X502375Y1147859D01*
X502211Y1146712D01*
X501938Y1145511D01*
X501611Y1144201D01*
X501174Y1142945D01*
Y1142890D01*
X501119Y1142781D01*
X501065Y1142617D01*
X500955Y1142399D01*
X500628Y1141798D01*
X500246Y1141034D01*
X499700Y1140215D01*
X499044Y1139341D01*
X498335Y1138522D01*
X497461Y1137758D01*
X497352Y1137649D01*
X497024Y1137430D01*
X496533Y1137103D01*
X495823Y1136666D01*
X494949Y1136229D01*
X493857Y1135738D01*
X492656Y1135246D01*
X491291Y1134864D01*
X490090Y1139396D01*
X490145D01*
X490199Y1139451D01*
X490363Y1139505D01*
X490581Y1139560D01*
X491073Y1139724D01*
X491728Y1139942D01*
X492492Y1140270D01*
X493202Y1140652D01*
X493967Y1141034D01*
X494622Y1141525D01*
X494676Y1141580D01*
X494895Y1141744D01*
X495168Y1142071D01*
X495550Y1142454D01*
X495987Y1142945D01*
X496424Y1143600D01*
X496860Y1144310D01*
X497243Y1145129D01*
X497297Y1145238D01*
X497406Y1145511D01*
X497570Y1146003D01*
X497789Y1146658D01*
X497952Y1147422D01*
X498116Y1148296D01*
X498225Y1149279D01*
X498280Y1150316D01*
Y1150917D01*
X498225Y1151190D01*
Y1151517D01*
X498171Y1152336D01*
X498007Y1153264D01*
X497843Y1154302D01*
X497570Y1155285D01*
X497188Y1156267D01*
X497133Y1156377D01*
X497024Y1156704D01*
X496751Y1157141D01*
X496478Y1157687D01*
X496041Y1158342D01*
X495605Y1159052D01*
X495059Y1159707D01*
X494458Y1160308D01*
X494403Y1160362D01*
X494185Y1160581D01*
X493803Y1160854D01*
X493366Y1161181D01*
X492820Y1161564D01*
X492165Y1161946D01*
X491455Y1162328D01*
X490691Y1162710D01*
X490636D01*
X490527Y1162765D01*
X490363Y1162819D01*
X490090Y1162929D01*
X489762Y1163038D01*
X489380Y1163147D01*
X488943Y1163311D01*
X488452Y1163420D01*
X487305Y1163693D01*
X485995Y1163911D01*
X484630Y1164075D01*
X483101Y1164130D01*
X483047D01*
X482883D01*
X482610D01*
X482282Y1164075D01*
X481845D01*
X481299Y1164021D01*
X480753Y1163966D01*
X480153Y1163911D01*
X478788Y1163693D01*
X477368Y1163420D01*
X475949Y1162983D01*
X474584Y1162437D01*
X474529D01*
X474420Y1162328D01*
X474256Y1162273D01*
X474038Y1162110D01*
X473437Y1161727D01*
X472673Y1161127D01*
X471854Y1160417D01*
X471035Y1159543D01*
X470270Y1158506D01*
X469560Y1157359D01*
Y1157305D01*
X469506Y1157196D01*
X469397Y1157032D01*
X469287Y1156759D01*
X469178Y1156486D01*
X469069Y1156104D01*
X468741Y1155230D01*
X468468Y1154138D01*
X468195Y1152937D01*
X467977Y1151626D01*
X467922Y1150261D01*
Y1149715D01*
X467977Y1149388D01*
Y1149060D01*
X468086Y1148241D01*
X468195Y1147258D01*
X468414Y1146221D01*
X468741Y1145074D01*
X469124Y1143928D01*
Y1143873D01*
X469178Y1143764D01*
X469233Y1143655D01*
X469342Y1143436D01*
X469615Y1142836D01*
X469943Y1142181D01*
X470325Y1141416D01*
X470762Y1140597D01*
X471253Y1139833D01*
X471799Y1139178D01*
X478897D01*
Y1150316D01*
X483374D01*
Y1134264D01*
X469342D01*
X469287Y1134318D01*
X469233Y1134427D01*
X469069Y1134646D01*
X468851Y1134919D01*
X468632Y1135246D01*
X468359Y1135629D01*
X468032Y1136120D01*
X467704Y1136611D01*
X466994Y1137758D01*
X466230Y1139068D01*
X465520Y1140433D01*
X464919Y1141908D01*
Y1141962D01*
X464865Y1142071D01*
X464810Y1142290D01*
X464701Y1142563D01*
X464592Y1142945D01*
X464428Y1143382D01*
X464319Y1143873D01*
X464210Y1144365D01*
X463937Y1145566D01*
X463664Y1146931D01*
X463500Y1148405D01*
X463445Y1149934D01*
Y1150480D01*
X463500Y1150862D01*
Y1151353D01*
X463554Y1151954D01*
X463664Y1152609D01*
X463718Y1153319D01*
X464046Y1154902D01*
X464428Y1156595D01*
X465029Y1158342D01*
X465356Y1159216D01*
X465793Y1160089D01*
X465848Y1160144D01*
X465902Y1160308D01*
X466066Y1160526D01*
X466230Y1160854D01*
X466503Y1161236D01*
X466776Y1161618D01*
X467540Y1162656D01*
X468523Y1163748D01*
X469724Y1164894D01*
X471089Y1165986D01*
X472673Y1166969D01*
X472727D01*
X472891Y1167078D01*
X473109Y1167187D01*
X473492Y1167351D01*
X473874Y1167515D01*
X474420Y1167679D01*
X474966Y1167897D01*
X475621Y1168116D01*
X476331Y1168334D01*
X477150Y1168552D01*
X477969Y1168716D01*
X478842Y1168880D01*
X480753Y1169153D01*
X482774Y1169262D01*
X482828D01*
X483047D01*
X483320D01*
X483702Y1169208D01*
D02*
G37*
G36*
X501884Y1099483D02*
X497406D01*
Y1121815D01*
X485886D01*
Y1100903D01*
X481409D01*
Y1121815D01*
X468578D01*
Y1098610D01*
X464100D01*
Y1126838D01*
X501884D01*
Y1099483D01*
D02*
G37*
G36*
Y1074094D02*
X501829Y1073658D01*
Y1073166D01*
X501774Y1072020D01*
X501611Y1070818D01*
X501447Y1069508D01*
X501174Y1068307D01*
X501010Y1067706D01*
X500846Y1067215D01*
Y1067160D01*
X500792Y1067106D01*
X500628Y1066778D01*
X500409Y1066287D01*
X500027Y1065686D01*
X499536Y1065031D01*
X498881Y1064321D01*
X498116Y1063666D01*
X497243Y1063011D01*
X497188D01*
X497133Y1062956D01*
X496806Y1062738D01*
X496260Y1062519D01*
X495550Y1062192D01*
X494731Y1061919D01*
X493748Y1061646D01*
X492711Y1061482D01*
X491564Y1061427D01*
X491510D01*
X491400D01*
X491182D01*
X490909Y1061482D01*
X490527D01*
X490145Y1061536D01*
X489216Y1061755D01*
X488124Y1062082D01*
X486978Y1062519D01*
X485831Y1063174D01*
X485285Y1063611D01*
X484739Y1064048D01*
X484685Y1064103D01*
X484630Y1064157D01*
X484466Y1064321D01*
X484302Y1064539D01*
X484084Y1064812D01*
X483866Y1065140D01*
X483593Y1065577D01*
X483265Y1066014D01*
X482992Y1066560D01*
X482719Y1067160D01*
X482391Y1067815D01*
X482118Y1068525D01*
X481900Y1069344D01*
X481627Y1070163D01*
X481463Y1071091D01*
X481299Y1072074D01*
X481245Y1071965D01*
X481136Y1071747D01*
X480917Y1071419D01*
X480699Y1070982D01*
X480098Y1069999D01*
X479716Y1069508D01*
X479388Y1069071D01*
X479279Y1068962D01*
X479006Y1068689D01*
X478569Y1068252D01*
X478023Y1067706D01*
X477259Y1067106D01*
X476440Y1066396D01*
X475457Y1065686D01*
X474365Y1064922D01*
X464100Y1058424D01*
Y1064649D01*
X471963Y1069617D01*
X472017D01*
X472127Y1069726D01*
X472290Y1069836D01*
X472509Y1069999D01*
X473109Y1070382D01*
X473874Y1070873D01*
X474693Y1071474D01*
X475566Y1072074D01*
X476385Y1072675D01*
X477150Y1073221D01*
X477204Y1073275D01*
X477423Y1073439D01*
X477750Y1073712D01*
X478133Y1074094D01*
X478952Y1074913D01*
X479334Y1075350D01*
X479661Y1075787D01*
X479716Y1075842D01*
X479771Y1075951D01*
X479880Y1076169D01*
X480044Y1076497D01*
X480207Y1076824D01*
X480371Y1077207D01*
X480644Y1078080D01*
Y1078135D01*
X480699Y1078244D01*
Y1078462D01*
X480753Y1078735D01*
X480808Y1079118D01*
Y1079554D01*
X480863Y1080155D01*
Y1086598D01*
X464100D01*
Y1091621D01*
X501884D01*
Y1074094D01*
D02*
G37*
G36*
Y1033690D02*
X486377D01*
Y1014144D01*
X501884D01*
Y1009120D01*
X464100D01*
Y1014144D01*
X481900D01*
Y1033690D01*
X464100D01*
Y1038714D01*
X501884D01*
Y1033690D01*
D02*
G37*
G36*
Y994924D02*
X464100D01*
Y999948D01*
X501884D01*
Y994924D01*
D02*
G37*
G36*
X483702Y987335D02*
X484193D01*
X484794Y987280D01*
X485394Y987171D01*
X486104Y987117D01*
X486869Y986953D01*
X487688Y986844D01*
X489435Y986407D01*
X491237Y985861D01*
X493038Y985096D01*
X493093Y985042D01*
X493257Y984987D01*
X493475Y984878D01*
X493803Y984660D01*
X494240Y984441D01*
X494676Y984168D01*
X495714Y983404D01*
X496915Y982476D01*
X498062Y981329D01*
X499208Y980019D01*
X499700Y979254D01*
X500191Y978490D01*
X500246Y978435D01*
X500300Y978271D01*
X500409Y978053D01*
X500573Y977725D01*
X500737Y977289D01*
X500955Y976797D01*
X501174Y976251D01*
X501392Y975596D01*
X501611Y974886D01*
X501774Y974122D01*
X501993Y973303D01*
X502157Y972429D01*
X502430Y970518D01*
X502539Y969535D01*
Y967788D01*
X502484Y967461D01*
Y967024D01*
X502375Y965986D01*
X502211Y964840D01*
X501938Y963639D01*
X501611Y962328D01*
X501174Y961072D01*
Y961018D01*
X501119Y960909D01*
X501065Y960745D01*
X500955Y960526D01*
X500628Y959926D01*
X500246Y959161D01*
X499700Y958342D01*
X499044Y957469D01*
X498335Y956650D01*
X497461Y955885D01*
X497352Y955776D01*
X497024Y955558D01*
X496533Y955230D01*
X495823Y954793D01*
X494949Y954357D01*
X493857Y953865D01*
X492656Y953374D01*
X491291Y952992D01*
X490090Y957523D01*
X490145D01*
X490199Y957578D01*
X490363Y957633D01*
X490581Y957687D01*
X491073Y957851D01*
X491728Y958069D01*
X492492Y958397D01*
X493202Y958779D01*
X493967Y959161D01*
X494622Y959653D01*
X494676Y959707D01*
X494895Y959871D01*
X495168Y960199D01*
X495550Y960581D01*
X495987Y961072D01*
X496424Y961728D01*
X496860Y962437D01*
X497243Y963256D01*
X497297Y963366D01*
X497406Y963639D01*
X497570Y964130D01*
X497789Y964785D01*
X497952Y965550D01*
X498116Y966423D01*
X498225Y967406D01*
X498280Y968443D01*
Y969044D01*
X498225Y969317D01*
Y969645D01*
X498171Y970464D01*
X498007Y971392D01*
X497843Y972429D01*
X497570Y973412D01*
X497188Y974395D01*
X497133Y974504D01*
X497024Y974832D01*
X496751Y975268D01*
X496478Y975814D01*
X496041Y976470D01*
X495605Y977179D01*
X495059Y977835D01*
X494458Y978435D01*
X494403Y978490D01*
X494185Y978708D01*
X493803Y978981D01*
X493366Y979309D01*
X492820Y979691D01*
X492165Y980073D01*
X491455Y980455D01*
X490691Y980838D01*
X490636D01*
X490527Y980892D01*
X490363Y980947D01*
X490090Y981056D01*
X489762Y981165D01*
X489380Y981274D01*
X488943Y981438D01*
X488452Y981547D01*
X487305Y981820D01*
X485995Y982039D01*
X484630Y982203D01*
X483101Y982257D01*
X483047D01*
X482883D01*
X482610D01*
X482282Y982203D01*
X481845D01*
X481299Y982148D01*
X480753Y982093D01*
X480153Y982039D01*
X478788Y981820D01*
X477368Y981547D01*
X475949Y981111D01*
X474584Y980565D01*
X474529D01*
X474420Y980455D01*
X474256Y980401D01*
X474038Y980237D01*
X473437Y979855D01*
X472673Y979254D01*
X471854Y978544D01*
X471035Y977671D01*
X470270Y976633D01*
X469560Y975487D01*
Y975432D01*
X469506Y975323D01*
X469397Y975159D01*
X469287Y974886D01*
X469178Y974613D01*
X469069Y974231D01*
X468741Y973357D01*
X468468Y972265D01*
X468195Y971064D01*
X467977Y969754D01*
X467922Y968389D01*
Y967843D01*
X467977Y967515D01*
Y967188D01*
X468086Y966369D01*
X468195Y965386D01*
X468414Y964348D01*
X468741Y963202D01*
X469124Y962055D01*
Y962001D01*
X469178Y961891D01*
X469233Y961782D01*
X469342Y961564D01*
X469615Y960963D01*
X469943Y960308D01*
X470325Y959544D01*
X470762Y958725D01*
X471253Y957960D01*
X471799Y957305D01*
X478897D01*
Y968443D01*
X483374D01*
Y952391D01*
X469342D01*
X469287Y952446D01*
X469233Y952555D01*
X469069Y952773D01*
X468851Y953046D01*
X468632Y953374D01*
X468359Y953756D01*
X468032Y954247D01*
X467704Y954739D01*
X466994Y955885D01*
X466230Y957196D01*
X465520Y958561D01*
X464919Y960035D01*
Y960090D01*
X464865Y960199D01*
X464810Y960417D01*
X464701Y960690D01*
X464592Y961072D01*
X464428Y961509D01*
X464319Y962001D01*
X464210Y962492D01*
X463937Y963693D01*
X463664Y965058D01*
X463500Y966532D01*
X463445Y968061D01*
Y968607D01*
X463500Y968989D01*
Y969481D01*
X463554Y970081D01*
X463664Y970737D01*
X463718Y971446D01*
X464046Y973030D01*
X464428Y974722D01*
X465029Y976470D01*
X465356Y977343D01*
X465793Y978217D01*
X465848Y978271D01*
X465902Y978435D01*
X466066Y978654D01*
X466230Y978981D01*
X466503Y979363D01*
X466776Y979746D01*
X467540Y980783D01*
X468523Y981875D01*
X469724Y983022D01*
X471089Y984114D01*
X472673Y985096D01*
X472727D01*
X472891Y985206D01*
X473109Y985315D01*
X473492Y985479D01*
X473874Y985642D01*
X474420Y985806D01*
X474966Y986025D01*
X475621Y986243D01*
X476331Y986461D01*
X477150Y986680D01*
X477969Y986844D01*
X478842Y987007D01*
X480753Y987280D01*
X482774Y987390D01*
X482828D01*
X483047D01*
X483320D01*
X483702Y987335D01*
D02*
G37*
G36*
X501884Y939833D02*
X486377D01*
Y920286D01*
X501884D01*
Y915263D01*
X464100D01*
Y920286D01*
X481900D01*
Y939833D01*
X464100D01*
Y944856D01*
X501884D01*
Y939833D01*
D02*
G37*
G36*
Y890693D02*
X474420Y880865D01*
X474365D01*
X474256Y880810D01*
X474092Y880756D01*
X473874Y880647D01*
X473546Y880592D01*
X473219Y880483D01*
X472400Y880210D01*
X471471Y879882D01*
X470434Y879555D01*
X468250Y878899D01*
X468305D01*
X468414Y878845D01*
X468578Y878790D01*
X468796Y878736D01*
X469397Y878572D01*
X470216Y878299D01*
X471144Y878026D01*
X472181Y877698D01*
X473273Y877316D01*
X474420Y876879D01*
X501884Y866614D01*
Y861537D01*
X464100Y876279D01*
Y881520D01*
X501884Y896153D01*
Y890693D01*
D02*
G37*
G36*
X483374Y858479D02*
X484029D01*
X484794Y858370D01*
X485722Y858261D01*
X486759Y858097D01*
X487851Y857878D01*
X488998Y857660D01*
X490199Y857332D01*
X491400Y856896D01*
X492656Y856404D01*
X493857Y855858D01*
X495059Y855148D01*
X496151Y854384D01*
X497188Y853510D01*
X497243Y853456D01*
X497406Y853292D01*
X497679Y852964D01*
X498007Y852582D01*
X498444Y852091D01*
X498881Y851490D01*
X499372Y850780D01*
X499863Y849961D01*
X500355Y849088D01*
X500846Y848105D01*
X501283Y847013D01*
X501720Y845866D01*
X502047Y844611D01*
X502320Y843300D01*
X502484Y841935D01*
X502539Y840461D01*
Y839970D01*
X502484Y839587D01*
Y839096D01*
X502430Y838605D01*
X502320Y837949D01*
X502211Y837294D01*
X501938Y835875D01*
X501501Y834237D01*
X500846Y832653D01*
X500464Y831834D01*
X500027Y831015D01*
X499973Y830961D01*
X499918Y830851D01*
X499754Y830633D01*
X499590Y830305D01*
X499317Y829978D01*
X498990Y829541D01*
X498225Y828613D01*
X497243Y827630D01*
X496041Y826538D01*
X494622Y825501D01*
X493038Y824627D01*
X492984D01*
X492820Y824518D01*
X492602Y824409D01*
X492274Y824299D01*
X491837Y824081D01*
X491346Y823917D01*
X490745Y823699D01*
X490090Y823480D01*
X489380Y823317D01*
X488616Y823098D01*
X487742Y822880D01*
X486869Y822716D01*
X484958Y822498D01*
X482883Y822388D01*
X482828D01*
X482610D01*
X482337D01*
X481900Y822443D01*
X481409D01*
X480808Y822498D01*
X480153Y822607D01*
X479443Y822661D01*
X477860Y822934D01*
X476112Y823371D01*
X474365Y823972D01*
X473492Y824299D01*
X472618Y824736D01*
X472563D01*
X472400Y824845D01*
X472181Y824955D01*
X471854Y825173D01*
X471471Y825391D01*
X471089Y825664D01*
X470052Y826429D01*
X468960Y827357D01*
X467813Y828449D01*
X466721Y829759D01*
X465738Y831288D01*
Y831343D01*
X465629Y831452D01*
X465520Y831725D01*
X465356Y832053D01*
X465192Y832435D01*
X465029Y832872D01*
X464810Y833418D01*
X464592Y834018D01*
X464373Y834673D01*
X464155Y835383D01*
X463827Y836967D01*
X463554Y838659D01*
X463445Y840461D01*
Y841007D01*
X463500Y841335D01*
Y841826D01*
X463609Y842372D01*
X463664Y842973D01*
X463773Y843682D01*
X464100Y845157D01*
X464537Y846740D01*
X465192Y848378D01*
X465575Y849197D01*
X466011Y850016D01*
X466066Y850071D01*
X466121Y850180D01*
X466284Y850398D01*
X466503Y850726D01*
X466721Y851053D01*
X467049Y851436D01*
X467868Y852364D01*
X468851Y853401D01*
X470052Y854493D01*
X471417Y855476D01*
X473000Y856404D01*
X473055D01*
X473219Y856513D01*
X473437Y856623D01*
X473765Y856732D01*
X474201Y856896D01*
X474693Y857059D01*
X475239Y857278D01*
X475839Y857442D01*
X476549Y857660D01*
X477259Y857878D01*
X478897Y858206D01*
X480590Y858424D01*
X482446Y858534D01*
X482501D01*
X482555D01*
X482883D01*
X483374Y858479D01*
D02*
G37*
G36*
X501884Y811141D02*
X468578D01*
Y792522D01*
X464100D01*
Y816164D01*
X501884D01*
Y811141D01*
D02*
G37*
G36*
Y759489D02*
X497406D01*
Y771938D01*
X464100D01*
Y776961D01*
X497406D01*
Y789410D01*
X501884D01*
Y759489D01*
D02*
G37*
G36*
Y744037D02*
Y738577D01*
X464100Y723126D01*
Y728804D01*
X475566Y733227D01*
Y749061D01*
X464100Y753156D01*
Y758452D01*
X501884Y744037D01*
D02*
G37*
G36*
X483702Y720341D02*
X484193D01*
X484794Y720286D01*
X485394Y720177D01*
X486104Y720123D01*
X486869Y719959D01*
X487688Y719850D01*
X489435Y719413D01*
X491237Y718867D01*
X493038Y718102D01*
X493093Y718048D01*
X493257Y717993D01*
X493475Y717884D01*
X493803Y717666D01*
X494240Y717447D01*
X494676Y717174D01*
X495714Y716410D01*
X496915Y715482D01*
X498062Y714335D01*
X499208Y713025D01*
X499700Y712260D01*
X500191Y711496D01*
X500246Y711441D01*
X500300Y711277D01*
X500409Y711059D01*
X500573Y710731D01*
X500737Y710295D01*
X500955Y709803D01*
X501174Y709257D01*
X501392Y708602D01*
X501611Y707892D01*
X501774Y707128D01*
X501993Y706309D01*
X502157Y705435D01*
X502430Y703524D01*
X502539Y702541D01*
Y700794D01*
X502484Y700467D01*
Y700030D01*
X502375Y698992D01*
X502211Y697846D01*
X501938Y696645D01*
X501611Y695334D01*
X501174Y694078D01*
Y694024D01*
X501119Y693915D01*
X501065Y693751D01*
X500955Y693532D01*
X500628Y692932D01*
X500246Y692167D01*
X499700Y691348D01*
X499044Y690475D01*
X498335Y689656D01*
X497461Y688891D01*
X497352Y688782D01*
X497024Y688564D01*
X496533Y688236D01*
X495823Y687799D01*
X494949Y687363D01*
X493857Y686871D01*
X492656Y686380D01*
X491291Y685998D01*
X490090Y690529D01*
X490145D01*
X490199Y690584D01*
X490363Y690639D01*
X490581Y690693D01*
X491073Y690857D01*
X491728Y691075D01*
X492492Y691403D01*
X493202Y691785D01*
X493967Y692167D01*
X494622Y692659D01*
X494676Y692713D01*
X494895Y692877D01*
X495168Y693205D01*
X495550Y693587D01*
X495987Y694078D01*
X496424Y694734D01*
X496860Y695443D01*
X497243Y696262D01*
X497297Y696372D01*
X497406Y696645D01*
X497570Y697136D01*
X497789Y697791D01*
X497952Y698556D01*
X498116Y699429D01*
X498225Y700412D01*
X498280Y701449D01*
Y702050D01*
X498225Y702323D01*
Y702651D01*
X498171Y703470D01*
X498007Y704398D01*
X497843Y705435D01*
X497570Y706418D01*
X497188Y707401D01*
X497133Y707510D01*
X497024Y707838D01*
X496751Y708274D01*
X496478Y708820D01*
X496041Y709476D01*
X495605Y710185D01*
X495059Y710841D01*
X494458Y711441D01*
X494403Y711496D01*
X494185Y711714D01*
X493803Y711987D01*
X493366Y712315D01*
X492820Y712697D01*
X492165Y713079D01*
X491455Y713461D01*
X490691Y713844D01*
X490636D01*
X490527Y713898D01*
X490363Y713953D01*
X490090Y714062D01*
X489762Y714171D01*
X489380Y714280D01*
X488943Y714444D01*
X488452Y714553D01*
X487305Y714826D01*
X485995Y715045D01*
X484630Y715209D01*
X483101Y715263D01*
X483047D01*
X482883D01*
X482610D01*
X482282Y715209D01*
X481845D01*
X481299Y715154D01*
X480753Y715099D01*
X480153Y715045D01*
X478788Y714826D01*
X477368Y714553D01*
X475949Y714117D01*
X474584Y713571D01*
X474529D01*
X474420Y713461D01*
X474256Y713407D01*
X474038Y713243D01*
X473437Y712861D01*
X472673Y712260D01*
X471854Y711550D01*
X471035Y710677D01*
X470270Y709639D01*
X469560Y708493D01*
Y708438D01*
X469506Y708329D01*
X469397Y708165D01*
X469287Y707892D01*
X469178Y707619D01*
X469069Y707237D01*
X468741Y706363D01*
X468468Y705271D01*
X468195Y704070D01*
X467977Y702760D01*
X467922Y701395D01*
Y700849D01*
X467977Y700521D01*
Y700194D01*
X468086Y699375D01*
X468195Y698392D01*
X468414Y697354D01*
X468741Y696208D01*
X469124Y695061D01*
Y695007D01*
X469178Y694897D01*
X469233Y694788D01*
X469342Y694570D01*
X469615Y693969D01*
X469943Y693314D01*
X470325Y692550D01*
X470762Y691731D01*
X471253Y690966D01*
X471799Y690311D01*
X478897D01*
Y701449D01*
X483374D01*
Y685397D01*
X469342D01*
X469287Y685452D01*
X469233Y685561D01*
X469069Y685779D01*
X468851Y686052D01*
X468632Y686380D01*
X468359Y686762D01*
X468032Y687253D01*
X467704Y687745D01*
X466994Y688891D01*
X466230Y690202D01*
X465520Y691567D01*
X464919Y693041D01*
Y693096D01*
X464865Y693205D01*
X464810Y693423D01*
X464701Y693696D01*
X464592Y694078D01*
X464428Y694515D01*
X464319Y695007D01*
X464210Y695498D01*
X463937Y696699D01*
X463664Y698064D01*
X463500Y699538D01*
X463445Y701067D01*
Y701613D01*
X463500Y701995D01*
Y702487D01*
X463554Y703087D01*
X463664Y703743D01*
X463718Y704452D01*
X464046Y706036D01*
X464428Y707728D01*
X465029Y709476D01*
X465356Y710349D01*
X465793Y711223D01*
X465848Y711277D01*
X465902Y711441D01*
X466066Y711660D01*
X466230Y711987D01*
X466503Y712369D01*
X466776Y712752D01*
X467540Y713789D01*
X468523Y714881D01*
X469724Y716028D01*
X471089Y717120D01*
X472673Y718102D01*
X472727D01*
X472891Y718212D01*
X473109Y718321D01*
X473492Y718485D01*
X473874Y718648D01*
X474420Y718812D01*
X474966Y719031D01*
X475621Y719249D01*
X476331Y719467D01*
X477150Y719686D01*
X477969Y719850D01*
X478842Y720013D01*
X480753Y720286D01*
X482774Y720396D01*
X482828D01*
X483047D01*
X483320D01*
X483702Y720341D01*
D02*
G37*
G36*
X501884Y650617D02*
X497406D01*
Y672948D01*
X485886D01*
Y652036D01*
X481409D01*
Y672948D01*
X468578D01*
Y649743D01*
X464100D01*
Y677971D01*
X501884D01*
Y650617D01*
D02*
G37*
G36*
X-464100Y1251162D02*
X-501883D01*
Y1278517D01*
X-497406D01*
Y1256186D01*
X-485885D01*
Y1277098D01*
X-481408D01*
Y1256186D01*
X-468577D01*
Y1279391D01*
X-464100D01*
Y1251162D01*
D02*
G37*
G36*
X-469287Y1243682D02*
X-469232Y1243573D01*
X-469069Y1243355D01*
X-468850Y1243082D01*
X-468632Y1242754D01*
X-468359Y1242372D01*
X-468031Y1241880D01*
X-467704Y1241389D01*
X-466994Y1240243D01*
X-466229Y1238932D01*
X-465520Y1237567D01*
X-464919Y1236093D01*
Y1236038D01*
X-464864Y1235929D01*
X-464810Y1235711D01*
X-464701Y1235438D01*
X-464591Y1235055D01*
X-464428Y1234619D01*
X-464318Y1234127D01*
X-464209Y1233636D01*
X-463936Y1232435D01*
X-463663Y1231070D01*
X-463499Y1229595D01*
X-463445Y1228067D01*
Y1227521D01*
X-463499Y1227139D01*
Y1226647D01*
X-463554Y1226046D01*
X-463663Y1225391D01*
X-463718Y1224681D01*
X-464045Y1223098D01*
X-464428Y1221406D01*
X-465028Y1219658D01*
X-465356Y1218785D01*
X-465793Y1217911D01*
X-465847Y1217857D01*
X-465902Y1217693D01*
X-466066Y1217474D01*
X-466229Y1217147D01*
X-466502Y1216764D01*
X-466775Y1216382D01*
X-467540Y1215345D01*
X-468523Y1214253D01*
X-469724Y1213106D01*
X-471089Y1212014D01*
X-472672Y1211032D01*
X-472727D01*
X-472891Y1210922D01*
X-473109Y1210813D01*
X-473491Y1210649D01*
X-473873Y1210486D01*
X-474419Y1210322D01*
X-474965Y1210103D01*
X-475621Y1209885D01*
X-476330Y1209667D01*
X-477149Y1209448D01*
X-477968Y1209284D01*
X-478842Y1209120D01*
X-480753Y1208848D01*
X-482773Y1208738D01*
X-482828D01*
X-483046D01*
X-483319D01*
X-483701Y1208793D01*
X-484193D01*
X-484793Y1208848D01*
X-485394Y1208957D01*
X-486104Y1209011D01*
X-486868Y1209175D01*
X-487687Y1209284D01*
X-489434Y1209721D01*
X-491236Y1210267D01*
X-493038Y1211032D01*
X-493093Y1211086D01*
X-493256Y1211141D01*
X-493475Y1211250D01*
X-493802Y1211468D01*
X-494239Y1211687D01*
X-494676Y1211960D01*
X-495713Y1212724D01*
X-496915Y1213652D01*
X-498061Y1214799D01*
X-499208Y1216109D01*
X-499699Y1216874D01*
X-500191Y1217638D01*
X-500245Y1217693D01*
X-500300Y1217857D01*
X-500409Y1218075D01*
X-500573Y1218402D01*
X-500737Y1218839D01*
X-500955Y1219331D01*
X-501173Y1219877D01*
X-501392Y1220532D01*
X-501610Y1221242D01*
X-501774Y1222006D01*
X-501992Y1222825D01*
X-502156Y1223699D01*
X-502429Y1225610D01*
X-502538Y1226592D01*
Y1228340D01*
X-502484Y1228667D01*
Y1229104D01*
X-502375Y1230141D01*
X-502211Y1231288D01*
X-501938Y1232489D01*
X-501610Y1233800D01*
X-501173Y1235055D01*
Y1235110D01*
X-501119Y1235219D01*
X-501064Y1235383D01*
X-500955Y1235601D01*
X-500627Y1236202D01*
X-500245Y1236966D01*
X-499699Y1237785D01*
X-499044Y1238659D01*
X-498334Y1239478D01*
X-497461Y1240243D01*
X-497351Y1240352D01*
X-497024Y1240570D01*
X-496532Y1240898D01*
X-495823Y1241334D01*
X-494949Y1241771D01*
X-493857Y1242263D01*
X-492656Y1242754D01*
X-491291Y1243136D01*
X-490090Y1238604D01*
X-490144D01*
X-490199Y1238550D01*
X-490363Y1238495D01*
X-490581Y1238441D01*
X-491072Y1238277D01*
X-491728Y1238059D01*
X-492492Y1237731D01*
X-493202Y1237349D01*
X-493966Y1236966D01*
X-494621Y1236475D01*
X-494676Y1236420D01*
X-494894Y1236257D01*
X-495167Y1235929D01*
X-495550Y1235547D01*
X-495986Y1235055D01*
X-496423Y1234400D01*
X-496860Y1233690D01*
X-497242Y1232871D01*
X-497297Y1232762D01*
X-497406Y1232489D01*
X-497570Y1231998D01*
X-497788Y1231343D01*
X-497952Y1230578D01*
X-498116Y1229705D01*
X-498225Y1228722D01*
X-498280Y1227685D01*
Y1227084D01*
X-498225Y1226811D01*
Y1226483D01*
X-498170Y1225664D01*
X-498007Y1224736D01*
X-497843Y1223699D01*
X-497570Y1222716D01*
X-497188Y1221733D01*
X-497133Y1221624D01*
X-497024Y1221296D01*
X-496751Y1220860D01*
X-496478Y1220313D01*
X-496041Y1219658D01*
X-495604Y1218948D01*
X-495058Y1218293D01*
X-494458Y1217693D01*
X-494403Y1217638D01*
X-494185Y1217420D01*
X-493802Y1217147D01*
X-493366Y1216819D01*
X-492820Y1216437D01*
X-492164Y1216055D01*
X-491455Y1215672D01*
X-490690Y1215290D01*
X-490636D01*
X-490526Y1215236D01*
X-490363Y1215181D01*
X-490090Y1215072D01*
X-489762Y1214963D01*
X-489380Y1214853D01*
X-488943Y1214690D01*
X-488452Y1214581D01*
X-487305Y1214307D01*
X-485995Y1214089D01*
X-484630Y1213925D01*
X-483101Y1213871D01*
X-483046D01*
X-482882D01*
X-482609D01*
X-482282Y1213925D01*
X-481845D01*
X-481299Y1213980D01*
X-480753Y1214034D01*
X-480152Y1214089D01*
X-478787Y1214307D01*
X-477368Y1214581D01*
X-475948Y1215017D01*
X-474583Y1215563D01*
X-474529D01*
X-474419Y1215672D01*
X-474256Y1215727D01*
X-474037Y1215891D01*
X-473437Y1216273D01*
X-472672Y1216874D01*
X-471853Y1217583D01*
X-471034Y1218457D01*
X-470270Y1219495D01*
X-469560Y1220641D01*
Y1220696D01*
X-469505Y1220805D01*
X-469396Y1220969D01*
X-469287Y1221242D01*
X-469178Y1221515D01*
X-469069Y1221897D01*
X-468741Y1222771D01*
X-468468Y1223862D01*
X-468195Y1225064D01*
X-467977Y1226374D01*
X-467922Y1227739D01*
Y1228285D01*
X-467977Y1228613D01*
Y1228940D01*
X-468086Y1229759D01*
X-468195Y1230742D01*
X-468413Y1231780D01*
X-468741Y1232926D01*
X-469123Y1234073D01*
Y1234127D01*
X-469178Y1234236D01*
X-469232Y1234346D01*
X-469342Y1234564D01*
X-469615Y1235165D01*
X-469942Y1235820D01*
X-470324Y1236584D01*
X-470761Y1237403D01*
X-471253Y1238168D01*
X-471799Y1238823D01*
X-478897D01*
Y1227685D01*
X-483374D01*
Y1243737D01*
X-469342D01*
X-469287Y1243682D01*
D02*
G37*
G36*
X-464100Y1200330D02*
X-475566Y1195907D01*
Y1180073D01*
X-464100Y1175978D01*
Y1170682D01*
X-501883Y1185097D01*
Y1190556D01*
X-464100Y1206008D01*
Y1200330D01*
D02*
G37*
G36*
X-497406Y1157196D02*
X-464100D01*
Y1152173D01*
X-497406D01*
Y1139724D01*
X-501883D01*
Y1169645D01*
X-497406D01*
Y1157196D01*
D02*
G37*
G36*
X-464100Y1112970D02*
X-501883D01*
Y1117993D01*
X-468577D01*
Y1136612D01*
X-464100D01*
Y1112970D01*
D02*
G37*
G36*
X-481900Y1106691D02*
X-481408D01*
X-480808Y1106636D01*
X-480152Y1106527D01*
X-479443Y1106473D01*
X-477859Y1106199D01*
X-476112Y1105763D01*
X-474365Y1105162D01*
X-473491Y1104834D01*
X-472618Y1104398D01*
X-472563D01*
X-472399Y1104289D01*
X-472181Y1104179D01*
X-471853Y1103961D01*
X-471471Y1103743D01*
X-471089Y1103469D01*
X-470051Y1102705D01*
X-468959Y1101777D01*
X-467813Y1100685D01*
X-466721Y1099374D01*
X-465738Y1097846D01*
Y1097791D01*
X-465629Y1097682D01*
X-465520Y1097409D01*
X-465356Y1097081D01*
X-465192Y1096699D01*
X-465028Y1096262D01*
X-464810Y1095716D01*
X-464591Y1095116D01*
X-464373Y1094460D01*
X-464155Y1093751D01*
X-463827Y1092167D01*
X-463554Y1090475D01*
X-463445Y1088673D01*
Y1088127D01*
X-463499Y1087799D01*
Y1087308D01*
X-463609Y1086762D01*
X-463663Y1086161D01*
X-463772Y1085451D01*
X-464100Y1083977D01*
X-464537Y1082394D01*
X-465192Y1080756D01*
X-465574Y1079937D01*
X-466011Y1079118D01*
X-466066Y1079063D01*
X-466120Y1078954D01*
X-466284Y1078736D01*
X-466502Y1078408D01*
X-466721Y1078081D01*
X-467048Y1077698D01*
X-467867Y1076770D01*
X-468850Y1075733D01*
X-470051Y1074641D01*
X-471416Y1073658D01*
X-473000Y1072730D01*
X-473054D01*
X-473218Y1072620D01*
X-473437Y1072511D01*
X-473764Y1072402D01*
X-474201Y1072238D01*
X-474692Y1072074D01*
X-475238Y1071856D01*
X-475839Y1071692D01*
X-476549Y1071474D01*
X-477259Y1071255D01*
X-478897Y1070928D01*
X-480589Y1070709D01*
X-482446Y1070600D01*
X-482500D01*
X-482555D01*
X-482882D01*
X-483374Y1070655D01*
X-484029D01*
X-484793Y1070764D01*
X-485722Y1070873D01*
X-486759Y1071037D01*
X-487851Y1071255D01*
X-488998Y1071474D01*
X-490199Y1071802D01*
X-491400Y1072238D01*
X-492656Y1072730D01*
X-493857Y1073276D01*
X-495058Y1073986D01*
X-496150Y1074750D01*
X-497188Y1075623D01*
X-497242Y1075678D01*
X-497406Y1075842D01*
X-497679Y1076169D01*
X-498007Y1076552D01*
X-498443Y1077043D01*
X-498880Y1077644D01*
X-499372Y1078353D01*
X-499863Y1079172D01*
X-500354Y1080046D01*
X-500846Y1081029D01*
X-501283Y1082121D01*
X-501719Y1083267D01*
X-502047Y1084523D01*
X-502320Y1085834D01*
X-502484Y1087199D01*
X-502538Y1088673D01*
Y1089164D01*
X-502484Y1089546D01*
Y1090038D01*
X-502429Y1090529D01*
X-502320Y1091185D01*
X-502211Y1091840D01*
X-501938Y1093259D01*
X-501501Y1094897D01*
X-500846Y1096481D01*
X-500464Y1097300D01*
X-500027Y1098119D01*
X-499972Y1098173D01*
X-499918Y1098283D01*
X-499754Y1098501D01*
X-499590Y1098829D01*
X-499317Y1099156D01*
X-498989Y1099593D01*
X-498225Y1100521D01*
X-497242Y1101504D01*
X-496041Y1102596D01*
X-494621Y1103633D01*
X-493038Y1104507D01*
X-492983D01*
X-492820Y1104616D01*
X-492601Y1104725D01*
X-492274Y1104834D01*
X-491837Y1105053D01*
X-491345Y1105217D01*
X-490745Y1105435D01*
X-490090Y1105653D01*
X-489380Y1105817D01*
X-488615Y1106036D01*
X-487742Y1106254D01*
X-486868Y1106418D01*
X-484957Y1106636D01*
X-482882Y1106745D01*
X-482828D01*
X-482609D01*
X-482336D01*
X-481900Y1106691D01*
D02*
G37*
G36*
X-464100Y1052855D02*
Y1047614D01*
X-501883Y1032981D01*
Y1038441D01*
X-474419Y1048269D01*
X-474365D01*
X-474256Y1048323D01*
X-474092Y1048378D01*
X-473873Y1048487D01*
X-473546Y1048542D01*
X-473218Y1048651D01*
X-472399Y1048924D01*
X-471471Y1049252D01*
X-470434Y1049579D01*
X-468250Y1050235D01*
X-468304D01*
X-468413Y1050289D01*
X-468577Y1050344D01*
X-468796Y1050398D01*
X-469396Y1050562D01*
X-470215Y1050835D01*
X-471143Y1051108D01*
X-472181Y1051436D01*
X-473273Y1051818D01*
X-474419Y1052255D01*
X-501883Y1062520D01*
Y1067597D01*
X-464100Y1052855D01*
D02*
G37*
G36*
Y1008848D02*
X-481900D01*
Y989301D01*
X-464100D01*
Y984278D01*
X-501883D01*
Y989301D01*
X-486377D01*
Y1008848D01*
X-501883D01*
Y1013871D01*
X-464100D01*
Y1008848D01*
D02*
G37*
G36*
X-469287Y976688D02*
X-469232Y976579D01*
X-469069Y976361D01*
X-468850Y976088D01*
X-468632Y975760D01*
X-468359Y975378D01*
X-468031Y974886D01*
X-467704Y974395D01*
X-466994Y973249D01*
X-466229Y971938D01*
X-465520Y970573D01*
X-464919Y969099D01*
Y969044D01*
X-464864Y968935D01*
X-464810Y968717D01*
X-464701Y968444D01*
X-464591Y968062D01*
X-464428Y967625D01*
X-464318Y967133D01*
X-464209Y966642D01*
X-463936Y965441D01*
X-463663Y964076D01*
X-463499Y962601D01*
X-463445Y961073D01*
Y960527D01*
X-463499Y960144D01*
Y959653D01*
X-463554Y959053D01*
X-463663Y958397D01*
X-463718Y957688D01*
X-464045Y956104D01*
X-464428Y954412D01*
X-465028Y952664D01*
X-465356Y951791D01*
X-465793Y950917D01*
X-465847Y950862D01*
X-465902Y950699D01*
X-466066Y950480D01*
X-466229Y950153D01*
X-466502Y949770D01*
X-466775Y949388D01*
X-467540Y948351D01*
X-468523Y947259D01*
X-469724Y946112D01*
X-471089Y945020D01*
X-472672Y944038D01*
X-472727D01*
X-472891Y943928D01*
X-473109Y943819D01*
X-473491Y943655D01*
X-473873Y943491D01*
X-474419Y943328D01*
X-474965Y943109D01*
X-475621Y942891D01*
X-476330Y942673D01*
X-477149Y942454D01*
X-477968Y942290D01*
X-478842Y942126D01*
X-480753Y941854D01*
X-482773Y941744D01*
X-482828D01*
X-483046D01*
X-483319D01*
X-483701Y941799D01*
X-484193D01*
X-484793Y941854D01*
X-485394Y941963D01*
X-486104Y942017D01*
X-486868Y942181D01*
X-487687Y942290D01*
X-489434Y942727D01*
X-491236Y943273D01*
X-493038Y944038D01*
X-493093Y944092D01*
X-493256Y944147D01*
X-493475Y944256D01*
X-493802Y944474D01*
X-494239Y944693D01*
X-494676Y944966D01*
X-495713Y945730D01*
X-496915Y946658D01*
X-498061Y947805D01*
X-499208Y949115D01*
X-499699Y949880D01*
X-500191Y950644D01*
X-500245Y950699D01*
X-500300Y950862D01*
X-500409Y951081D01*
X-500573Y951409D01*
X-500737Y951845D01*
X-500955Y952337D01*
X-501173Y952883D01*
X-501392Y953538D01*
X-501610Y954248D01*
X-501774Y955012D01*
X-501992Y955831D01*
X-502156Y956705D01*
X-502429Y958616D01*
X-502538Y959598D01*
Y961346D01*
X-502484Y961673D01*
Y962110D01*
X-502375Y963148D01*
X-502211Y964294D01*
X-501938Y965495D01*
X-501610Y966806D01*
X-501173Y968062D01*
Y968116D01*
X-501119Y968225D01*
X-501064Y968389D01*
X-500955Y968607D01*
X-500627Y969208D01*
X-500245Y969972D01*
X-499699Y970792D01*
X-499044Y971665D01*
X-498334Y972484D01*
X-497461Y973249D01*
X-497351Y973358D01*
X-497024Y973576D01*
X-496532Y973904D01*
X-495823Y974341D01*
X-494949Y974777D01*
X-493857Y975269D01*
X-492656Y975760D01*
X-491291Y976142D01*
X-490090Y971611D01*
X-490144D01*
X-490199Y971556D01*
X-490363Y971501D01*
X-490581Y971447D01*
X-491072Y971283D01*
X-491728Y971064D01*
X-492492Y970737D01*
X-493202Y970355D01*
X-493966Y969972D01*
X-494621Y969481D01*
X-494676Y969427D01*
X-494894Y969263D01*
X-495167Y968935D01*
X-495550Y968553D01*
X-495986Y968062D01*
X-496423Y967406D01*
X-496860Y966697D01*
X-497242Y965878D01*
X-497297Y965768D01*
X-497406Y965495D01*
X-497570Y965004D01*
X-497788Y964349D01*
X-497952Y963584D01*
X-498116Y962711D01*
X-498225Y961728D01*
X-498280Y960691D01*
Y960090D01*
X-498225Y959817D01*
Y959489D01*
X-498170Y958670D01*
X-498007Y957742D01*
X-497843Y956705D01*
X-497570Y955722D01*
X-497188Y954739D01*
X-497133Y954630D01*
X-497024Y954302D01*
X-496751Y953865D01*
X-496478Y953319D01*
X-496041Y952664D01*
X-495604Y951955D01*
X-495058Y951299D01*
X-494458Y950699D01*
X-494403Y950644D01*
X-494185Y950426D01*
X-493802Y950153D01*
X-493366Y949825D01*
X-492820Y949443D01*
X-492164Y949061D01*
X-491455Y948678D01*
X-490690Y948296D01*
X-490636D01*
X-490526Y948242D01*
X-490363Y948187D01*
X-490090Y948078D01*
X-489762Y947969D01*
X-489380Y947860D01*
X-488943Y947696D01*
X-488452Y947587D01*
X-487305Y947313D01*
X-485995Y947095D01*
X-484630Y946931D01*
X-483101Y946877D01*
X-483046D01*
X-482882D01*
X-482609D01*
X-482282Y946931D01*
X-481845D01*
X-481299Y946986D01*
X-480753Y947040D01*
X-480152Y947095D01*
X-478787Y947313D01*
X-477368Y947587D01*
X-475948Y948023D01*
X-474583Y948569D01*
X-474529D01*
X-474419Y948678D01*
X-474256Y948733D01*
X-474037Y948897D01*
X-473437Y949279D01*
X-472672Y949880D01*
X-471853Y950590D01*
X-471034Y951463D01*
X-470270Y952500D01*
X-469560Y953647D01*
Y953702D01*
X-469505Y953811D01*
X-469396Y953975D01*
X-469287Y954248D01*
X-469178Y954521D01*
X-469069Y954903D01*
X-468741Y955777D01*
X-468468Y956869D01*
X-468195Y958070D01*
X-467977Y959380D01*
X-467922Y960745D01*
Y961291D01*
X-467977Y961619D01*
Y961946D01*
X-468086Y962765D01*
X-468195Y963748D01*
X-468413Y964785D01*
X-468741Y965932D01*
X-469123Y967079D01*
Y967133D01*
X-469178Y967242D01*
X-469232Y967352D01*
X-469342Y967570D01*
X-469615Y968171D01*
X-469942Y968826D01*
X-470324Y969590D01*
X-470761Y970409D01*
X-471253Y971174D01*
X-471799Y971829D01*
X-478897D01*
Y960691D01*
X-483374D01*
Y976743D01*
X-469342D01*
X-469287Y976688D01*
D02*
G37*
G36*
X-464100Y929186D02*
X-501883D01*
Y934210D01*
X-464100D01*
Y929186D01*
D02*
G37*
G36*
Y914990D02*
X-481900D01*
Y895443D01*
X-464100D01*
Y890420D01*
X-501883D01*
Y895443D01*
X-486377D01*
Y914990D01*
X-501883D01*
Y920014D01*
X-464100D01*
Y914990D01*
D02*
G37*
G36*
Y864485D02*
X-471962Y859517D01*
X-472017D01*
X-472126Y859408D01*
X-472290Y859298D01*
X-472508Y859135D01*
X-473109Y858752D01*
X-473873Y858261D01*
X-474692Y857660D01*
X-475566Y857060D01*
X-476385Y856459D01*
X-477149Y855913D01*
X-477204Y855859D01*
X-477422Y855695D01*
X-477750Y855422D01*
X-478132Y855039D01*
X-478951Y854221D01*
X-479333Y853784D01*
X-479661Y853347D01*
X-479716Y853292D01*
X-479770Y853183D01*
X-479879Y852965D01*
X-480043Y852637D01*
X-480207Y852309D01*
X-480371Y851927D01*
X-480644Y851054D01*
Y850999D01*
X-480698Y850890D01*
Y850672D01*
X-480753Y850399D01*
X-480808Y850016D01*
Y849580D01*
X-480862Y848979D01*
Y842536D01*
X-464100D01*
Y837513D01*
X-501883D01*
Y855039D01*
X-501829Y855476D01*
Y855968D01*
X-501774Y857114D01*
X-501610Y858316D01*
X-501446Y859626D01*
X-501173Y860827D01*
X-501010Y861428D01*
X-500846Y861919D01*
Y861974D01*
X-500791Y862028D01*
X-500627Y862356D01*
X-500409Y862847D01*
X-500027Y863448D01*
X-499535Y864103D01*
X-498880Y864813D01*
X-498116Y865468D01*
X-497242Y866123D01*
X-497188D01*
X-497133Y866178D01*
X-496805Y866396D01*
X-496259Y866615D01*
X-495550Y866942D01*
X-494731Y867215D01*
X-493748Y867488D01*
X-492710Y867652D01*
X-491564Y867707D01*
X-491509D01*
X-491400D01*
X-491182D01*
X-490909Y867652D01*
X-490526D01*
X-490144Y867597D01*
X-489216Y867379D01*
X-488124Y867052D01*
X-486977Y866615D01*
X-485831Y865960D01*
X-485285Y865523D01*
X-484739Y865086D01*
X-484684Y865031D01*
X-484630Y864977D01*
X-484466Y864813D01*
X-484302Y864595D01*
X-484084Y864322D01*
X-483865Y863994D01*
X-483592Y863557D01*
X-483265Y863120D01*
X-482992Y862574D01*
X-482719Y861974D01*
X-482391Y861318D01*
X-482118Y860609D01*
X-481900Y859790D01*
X-481627Y858971D01*
X-481463Y858043D01*
X-481299Y857060D01*
X-481244Y857169D01*
X-481135Y857387D01*
X-480917Y857715D01*
X-480698Y858152D01*
X-480098Y859135D01*
X-479716Y859626D01*
X-479388Y860063D01*
X-479279Y860172D01*
X-479006Y860445D01*
X-478569Y860882D01*
X-478023Y861428D01*
X-477259Y862028D01*
X-476440Y862738D01*
X-475457Y863448D01*
X-474365Y864212D01*
X-464100Y870710D01*
Y864485D01*
D02*
G37*
G36*
Y802296D02*
X-501883D01*
Y829650D01*
X-497406D01*
Y807319D01*
X-485885D01*
Y828231D01*
X-481408D01*
Y807319D01*
X-468577D01*
Y830524D01*
X-464100D01*
Y802296D01*
D02*
G37*
G36*
X-469287Y794816D02*
X-469232Y794707D01*
X-469069Y794488D01*
X-468850Y794215D01*
X-468632Y793888D01*
X-468359Y793505D01*
X-468031Y793014D01*
X-467704Y792523D01*
X-466994Y791376D01*
X-466229Y790066D01*
X-465520Y788701D01*
X-464919Y787226D01*
Y787172D01*
X-464864Y787062D01*
X-464810Y786844D01*
X-464701Y786571D01*
X-464591Y786189D01*
X-464428Y785752D01*
X-464318Y785261D01*
X-464209Y784769D01*
X-463936Y783568D01*
X-463663Y782203D01*
X-463499Y780729D01*
X-463445Y779200D01*
Y778654D01*
X-463499Y778272D01*
Y777780D01*
X-463554Y777180D01*
X-463663Y776525D01*
X-463718Y775815D01*
X-464045Y774231D01*
X-464428Y772539D01*
X-465028Y770792D01*
X-465356Y769918D01*
X-465793Y769044D01*
X-465847Y768990D01*
X-465902Y768826D01*
X-466066Y768608D01*
X-466229Y768280D01*
X-466502Y767898D01*
X-466775Y767516D01*
X-467540Y766478D01*
X-468523Y765386D01*
X-469724Y764240D01*
X-471089Y763148D01*
X-472672Y762165D01*
X-472727D01*
X-472891Y762056D01*
X-473109Y761947D01*
X-473491Y761783D01*
X-473873Y761619D01*
X-474419Y761455D01*
X-474965Y761237D01*
X-475621Y761018D01*
X-476330Y760800D01*
X-477149Y760582D01*
X-477968Y760418D01*
X-478842Y760254D01*
X-480753Y759981D01*
X-482773Y759872D01*
X-482828D01*
X-483046D01*
X-483319D01*
X-483701Y759926D01*
X-484193D01*
X-484793Y759981D01*
X-485394Y760090D01*
X-486104Y760145D01*
X-486868Y760308D01*
X-487687Y760418D01*
X-489434Y760855D01*
X-491236Y761400D01*
X-493038Y762165D01*
X-493093Y762220D01*
X-493256Y762274D01*
X-493475Y762383D01*
X-493802Y762602D01*
X-494239Y762820D01*
X-494676Y763093D01*
X-495713Y763857D01*
X-496915Y764786D01*
X-498061Y765932D01*
X-499208Y767243D01*
X-499699Y768007D01*
X-500191Y768771D01*
X-500245Y768826D01*
X-500300Y768990D01*
X-500409Y769208D01*
X-500573Y769536D01*
X-500737Y769973D01*
X-500955Y770464D01*
X-501173Y771010D01*
X-501392Y771665D01*
X-501610Y772375D01*
X-501774Y773139D01*
X-501992Y773958D01*
X-502156Y774832D01*
X-502429Y776743D01*
X-502538Y777726D01*
Y779473D01*
X-502484Y779801D01*
Y780237D01*
X-502375Y781275D01*
X-502211Y782422D01*
X-501938Y783623D01*
X-501610Y784933D01*
X-501173Y786189D01*
Y786244D01*
X-501119Y786353D01*
X-501064Y786516D01*
X-500955Y786735D01*
X-500627Y787336D01*
X-500245Y788100D01*
X-499699Y788919D01*
X-499044Y789793D01*
X-498334Y790611D01*
X-497461Y791376D01*
X-497351Y791485D01*
X-497024Y791703D01*
X-496532Y792031D01*
X-495823Y792468D01*
X-494949Y792905D01*
X-493857Y793396D01*
X-492656Y793888D01*
X-491291Y794270D01*
X-490090Y789738D01*
X-490144D01*
X-490199Y789683D01*
X-490363Y789629D01*
X-490581Y789574D01*
X-491072Y789410D01*
X-491728Y789192D01*
X-492492Y788864D01*
X-493202Y788482D01*
X-493966Y788100D01*
X-494621Y787609D01*
X-494676Y787554D01*
X-494894Y787390D01*
X-495167Y787062D01*
X-495550Y786680D01*
X-495986Y786189D01*
X-496423Y785534D01*
X-496860Y784824D01*
X-497242Y784005D01*
X-497297Y783896D01*
X-497406Y783623D01*
X-497570Y783131D01*
X-497788Y782476D01*
X-497952Y781712D01*
X-498116Y780838D01*
X-498225Y779855D01*
X-498280Y778818D01*
Y778217D01*
X-498225Y777944D01*
Y777617D01*
X-498170Y776798D01*
X-498007Y775870D01*
X-497843Y774832D01*
X-497570Y773849D01*
X-497188Y772866D01*
X-497133Y772757D01*
X-497024Y772430D01*
X-496751Y771993D01*
X-496478Y771447D01*
X-496041Y770792D01*
X-495604Y770082D01*
X-495058Y769427D01*
X-494458Y768826D01*
X-494403Y768771D01*
X-494185Y768553D01*
X-493802Y768280D01*
X-493366Y767952D01*
X-492820Y767570D01*
X-492164Y767188D01*
X-491455Y766806D01*
X-490690Y766424D01*
X-490636D01*
X-490526Y766369D01*
X-490363Y766314D01*
X-490090Y766205D01*
X-489762Y766096D01*
X-489380Y765987D01*
X-488943Y765823D01*
X-488452Y765714D01*
X-487305Y765441D01*
X-485995Y765222D01*
X-484630Y765059D01*
X-483101Y765004D01*
X-483046D01*
X-482882D01*
X-482609D01*
X-482282Y765059D01*
X-481845D01*
X-481299Y765113D01*
X-480753Y765168D01*
X-480152Y765222D01*
X-478787Y765441D01*
X-477368Y765714D01*
X-475948Y766151D01*
X-474583Y766697D01*
X-474529D01*
X-474419Y766806D01*
X-474256Y766861D01*
X-474037Y767024D01*
X-473437Y767407D01*
X-472672Y768007D01*
X-471853Y768717D01*
X-471034Y769591D01*
X-470270Y770628D01*
X-469560Y771774D01*
Y771829D01*
X-469505Y771938D01*
X-469396Y772102D01*
X-469287Y772375D01*
X-469178Y772648D01*
X-469069Y773030D01*
X-468741Y773904D01*
X-468468Y774996D01*
X-468195Y776197D01*
X-467977Y777508D01*
X-467922Y778872D01*
Y779418D01*
X-467977Y779746D01*
Y780074D01*
X-468086Y780893D01*
X-468195Y781875D01*
X-468413Y782913D01*
X-468741Y784059D01*
X-469123Y785206D01*
Y785261D01*
X-469178Y785370D01*
X-469232Y785479D01*
X-469342Y785697D01*
X-469615Y786298D01*
X-469942Y786953D01*
X-470324Y787718D01*
X-470761Y788537D01*
X-471253Y789301D01*
X-471799Y789956D01*
X-478897D01*
Y778818D01*
X-483374D01*
Y794870D01*
X-469342D01*
X-469287Y794816D01*
D02*
G37*
G36*
X-464100Y747587D02*
X-493748Y727822D01*
X-464100D01*
Y723017D01*
X-501883D01*
Y728149D01*
X-472181Y747969D01*
X-501883D01*
Y752774D01*
X-464100D01*
Y747587D01*
D02*
G37*
G36*
Y713352D02*
X-475566Y708930D01*
Y693096D01*
X-464100Y689001D01*
Y683705D01*
X-501883Y698119D01*
Y703579D01*
X-464100Y719031D01*
Y713352D01*
D02*
G37*
G36*
X-482063Y680920D02*
X-481627D01*
X-480589Y680865D01*
X-479388Y680702D01*
X-478132Y680538D01*
X-476822Y680265D01*
X-475511Y679937D01*
X-475457D01*
X-475348Y679883D01*
X-475184Y679828D01*
X-474965Y679774D01*
X-474365Y679555D01*
X-473600Y679227D01*
X-472727Y678900D01*
X-471853Y678463D01*
X-470925Y677917D01*
X-470051Y677371D01*
X-469942Y677317D01*
X-469669Y677098D01*
X-469287Y676770D01*
X-468796Y676334D01*
X-468250Y675842D01*
X-467704Y675242D01*
X-467103Y674641D01*
X-466612Y673931D01*
X-466557Y673822D01*
X-466393Y673604D01*
X-466175Y673221D01*
X-465902Y672676D01*
X-465574Y672020D01*
X-465301Y671256D01*
X-464974Y670382D01*
X-464701Y669399D01*
Y669290D01*
X-464646Y669126D01*
X-464591Y668963D01*
X-464537Y668417D01*
X-464428Y667652D01*
X-464318Y666779D01*
X-464209Y665741D01*
X-464155Y664595D01*
X-464100Y663339D01*
Y649744D01*
X-501883D01*
Y664267D01*
X-501829Y665250D01*
X-501774Y666342D01*
X-501665Y667434D01*
X-501501Y668526D01*
X-501337Y669454D01*
Y669509D01*
X-501283Y669618D01*
Y669782D01*
X-501173Y670000D01*
X-501010Y670601D01*
X-500737Y671365D01*
X-500354Y672239D01*
X-499863Y673167D01*
X-499317Y674095D01*
X-498607Y674969D01*
X-498553Y675023D01*
X-498498Y675078D01*
X-498334Y675242D01*
X-498170Y675460D01*
X-497624Y676006D01*
X-496860Y676661D01*
X-495932Y677371D01*
X-494840Y678135D01*
X-493584Y678845D01*
X-492164Y679446D01*
X-492110D01*
X-492001Y679500D01*
X-491782Y679610D01*
X-491455Y679664D01*
X-491072Y679828D01*
X-490636Y679937D01*
X-490144Y680047D01*
X-489544Y680210D01*
X-488943Y680374D01*
X-488233Y680483D01*
X-486704Y680756D01*
X-485012Y680920D01*
X-483155Y680975D01*
X-483101D01*
X-482992D01*
X-482719D01*
X-482446D01*
X-482063Y680920D01*
D02*
G37*
%LPC*%
G36*
X134567Y251655D02*
X134236D01*
Y251324D01*
X134567D01*
Y250993D01*
X134898D01*
Y251324D01*
X134567D01*
Y251655D01*
D02*
G37*
G36*
Y250993D02*
X134236D01*
Y250662D01*
X134567D01*
Y250993D01*
D02*
G37*
G36*
X134236Y250662D02*
X133905D01*
Y250331D01*
X134236D01*
Y250662D01*
D02*
G37*
G36*
X133574D02*
X132581D01*
Y250331D01*
X133574D01*
Y250662D01*
D02*
G37*
G36*
X132581Y250331D02*
X131587D01*
Y250000D01*
X130925D01*
Y249669D01*
X130263D01*
Y249338D01*
X129932D01*
Y249007D01*
X129601D01*
Y248676D01*
X129270D01*
Y248345D01*
Y248014D01*
Y247683D01*
Y247351D01*
Y247020D01*
Y246689D01*
Y246358D01*
Y246027D01*
Y245696D01*
X129601D01*
Y245365D01*
Y245034D01*
Y244703D01*
Y244372D01*
X129932D01*
Y244041D01*
Y243710D01*
Y243379D01*
X130263D01*
Y243710D01*
Y244041D01*
Y244372D01*
X129932D01*
Y244703D01*
Y245034D01*
Y245365D01*
Y245696D01*
Y246027D01*
X129601D01*
Y246358D01*
Y246689D01*
Y247020D01*
Y247351D01*
Y247683D01*
Y248014D01*
Y248345D01*
X129932D01*
Y248676D01*
X130263D01*
Y248345D01*
X130594D01*
Y248676D01*
X130263D01*
Y249007D01*
X130925D01*
Y249338D01*
X131256D01*
Y249669D01*
X131918D01*
Y250000D01*
X132581D01*
Y250331D01*
D02*
G37*
G36*
X105102Y247020D02*
X104771D01*
Y246689D01*
X105102D01*
Y247020D01*
D02*
G37*
G36*
X147148Y246689D02*
X146817D01*
Y246358D01*
X147148D01*
Y246027D01*
X148141D01*
Y245696D01*
X148472D01*
Y246027D01*
X148803D01*
Y246358D01*
X147148D01*
Y246689D01*
D02*
G37*
G36*
X148472Y247351D02*
X147479D01*
Y247020D01*
X148472D01*
Y246689D01*
X148803D01*
Y246358D01*
X149134D01*
Y246027D01*
Y245696D01*
Y245365D01*
X149465D01*
Y245696D01*
Y246027D01*
Y246358D01*
X149134D01*
Y246689D01*
X148803D01*
Y247020D01*
X148472D01*
Y247351D01*
D02*
G37*
G36*
X128939Y246027D02*
X128608D01*
Y245696D01*
Y245365D01*
X129270D01*
Y245696D01*
X128939D01*
Y246027D01*
D02*
G37*
G36*
X130594Y243048D02*
X130263D01*
Y242716D01*
X130594D01*
Y243048D01*
D02*
G37*
G36*
X131587Y242054D02*
X131256D01*
Y241723D01*
X131587D01*
Y242054D01*
D02*
G37*
G36*
X145823Y241723D02*
X145492D01*
Y241392D01*
X145823D01*
Y241723D01*
D02*
G37*
G36*
X146154Y240730D02*
X145823D01*
Y240399D01*
Y240068D01*
Y239737D01*
X146154D01*
Y240068D01*
Y240399D01*
Y240730D01*
D02*
G37*
G36*
X145161Y238412D02*
X144830D01*
Y238082D01*
X145161D01*
Y238412D01*
D02*
G37*
G36*
X145823Y239075D02*
X145492D01*
Y238744D01*
Y238412D01*
Y238082D01*
X145823D01*
Y237750D01*
X146154D01*
Y238082D01*
X145823D01*
Y238412D01*
Y238744D01*
Y239075D01*
D02*
G37*
G36*
X145492Y237750D02*
X145161D01*
Y237419D01*
Y237088D01*
X145492D01*
Y237419D01*
Y237750D01*
D02*
G37*
G36*
X145161Y237088D02*
X144830D01*
Y236757D01*
Y236426D01*
X145161D01*
Y236757D01*
Y237088D01*
D02*
G37*
G36*
X148803Y235102D02*
X148472D01*
Y234771D01*
X148803D01*
Y235102D01*
D02*
G37*
G36*
X136553D02*
X136222D01*
Y234771D01*
X136553D01*
Y235102D01*
D02*
G37*
G36*
X141851Y234771D02*
X141519D01*
Y234440D01*
X141851D01*
Y234771D01*
D02*
G37*
G36*
X107750Y230467D02*
X107419D01*
Y230136D01*
X107750D01*
Y230467D01*
D02*
G37*
G36*
X127946Y229474D02*
X127615D01*
Y229143D01*
X127946D01*
Y229474D01*
D02*
G37*
G36*
X128277Y228480D02*
X127946D01*
Y228149D01*
X128277D01*
Y228480D01*
D02*
G37*
G36*
X107750Y229143D02*
X107419D01*
Y228811D01*
Y228480D01*
Y228149D01*
X107750D01*
Y228480D01*
Y228811D01*
Y229143D01*
D02*
G37*
G36*
X149465Y227156D02*
X148803D01*
Y226825D01*
X149465D01*
Y227156D01*
D02*
G37*
G36*
X107088Y228149D02*
X106757D01*
Y227818D01*
X107088D01*
Y227487D01*
Y227156D01*
Y226825D01*
X107419D01*
Y227156D01*
Y227487D01*
Y227818D01*
X107088D01*
Y228149D01*
D02*
G37*
G36*
X149465Y226163D02*
X149134D01*
Y225832D01*
X149465D01*
Y226163D01*
D02*
G37*
G36*
X139864Y225170D02*
X139533D01*
Y224839D01*
X139864D01*
Y225170D01*
D02*
G37*
G36*
X107088Y226825D02*
X106757D01*
Y226494D01*
Y226163D01*
X106426D01*
Y225832D01*
Y225501D01*
X106095D01*
Y225170D01*
Y224839D01*
X105764D01*
Y224508D01*
Y224177D01*
X106095D01*
Y224508D01*
X106426D01*
Y224839D01*
Y225170D01*
X106757D01*
Y225501D01*
Y225832D01*
X107088D01*
Y226163D01*
Y226494D01*
Y226825D01*
D02*
G37*
G36*
X149134Y224177D02*
X148803D01*
Y223846D01*
X149134D01*
Y224177D01*
D02*
G37*
G36*
X137547Y216562D02*
X137216D01*
Y216231D01*
X137547D01*
Y216562D01*
D02*
G37*
G36*
X142513Y215900D02*
X142182D01*
Y215569D01*
X142513D01*
Y215900D01*
D02*
G37*
G36*
X98811Y215238D02*
X98480D01*
Y214907D01*
X98811D01*
Y215238D01*
D02*
G37*
G36*
X95832Y214576D02*
X95501D01*
Y214244D01*
X95832D01*
Y214576D01*
D02*
G37*
G36*
X97487Y210272D02*
X97156D01*
Y209941D01*
X97487D01*
Y210272D01*
D02*
G37*
G36*
X94839Y206630D02*
X94507D01*
Y206299D01*
X94839D01*
Y206630D01*
D02*
G37*
G36*
X497406Y1274367D02*
X468578D01*
Y1265413D01*
X468632Y1265031D01*
X468687Y1264212D01*
X468741Y1263283D01*
X468851Y1262301D01*
X469014Y1261318D01*
X469233Y1260499D01*
X469287Y1260390D01*
X469342Y1260117D01*
X469506Y1259734D01*
X469724Y1259243D01*
X470052Y1258697D01*
X470379Y1258151D01*
X470762Y1257605D01*
X471198Y1257059D01*
X471308Y1257004D01*
X471526Y1256786D01*
X471908Y1256458D01*
X472454Y1256076D01*
X473164Y1255639D01*
X473983Y1255148D01*
X474911Y1254711D01*
X475949Y1254329D01*
X476003D01*
X476112Y1254274D01*
X476276Y1254220D01*
X476495Y1254165D01*
X476768Y1254111D01*
X477150Y1254001D01*
X477532Y1253892D01*
X477969Y1253783D01*
X479061Y1253619D01*
X480317Y1253455D01*
X481736Y1253346D01*
X483265Y1253292D01*
X483320D01*
X483538D01*
X483811D01*
X484248Y1253346D01*
X484739D01*
X485285Y1253401D01*
X485940Y1253455D01*
X486596Y1253510D01*
X488070Y1253783D01*
X489599Y1254111D01*
X491018Y1254602D01*
X491728Y1254930D01*
X492329Y1255257D01*
X492383D01*
X492492Y1255366D01*
X492656Y1255476D01*
X492875Y1255585D01*
X493421Y1256022D01*
X494076Y1256568D01*
X494786Y1257277D01*
X495495Y1258096D01*
X496096Y1259025D01*
X496587Y1260007D01*
X496642Y1260117D01*
X496697Y1260390D01*
X496860Y1260881D01*
X497024Y1261591D01*
X497133Y1262464D01*
X497297Y1263556D01*
X497352Y1264212D01*
Y1264921D01*
X497406Y1265631D01*
Y1274367D01*
D02*
G37*
G36*
X479661Y1234564D02*
Y1221787D01*
X490035Y1225719D01*
X490090D01*
X490254Y1225773D01*
X490527Y1225882D01*
X490854Y1225992D01*
X491237Y1226155D01*
X491728Y1226319D01*
X492274Y1226483D01*
X492820Y1226701D01*
X494076Y1227138D01*
X495386Y1227575D01*
X496697Y1228012D01*
X497952Y1228394D01*
X497898D01*
X497789Y1228449D01*
X497570D01*
X497352Y1228558D01*
X496970Y1228612D01*
X496587Y1228722D01*
X495659Y1228940D01*
X494567Y1229213D01*
X493366Y1229595D01*
X492056Y1229977D01*
X490691Y1230469D01*
X479661Y1234564D01*
D02*
G37*
G36*
X497679Y1086598D02*
X485176D01*
Y1075350D01*
X485231Y1074695D01*
X485285Y1073931D01*
X485340Y1073057D01*
X485449Y1072183D01*
X485613Y1071310D01*
X485831Y1070545D01*
X485886Y1070436D01*
X485995Y1070218D01*
X486159Y1069890D01*
X486377Y1069453D01*
X486705Y1068962D01*
X487087Y1068471D01*
X487578Y1067979D01*
X488124Y1067597D01*
X488179Y1067542D01*
X488397Y1067433D01*
X488725Y1067269D01*
X489162Y1067051D01*
X489653Y1066887D01*
X490199Y1066723D01*
X490854Y1066614D01*
X491510Y1066560D01*
X491564D01*
X491619D01*
X491946Y1066614D01*
X492438Y1066669D01*
X493093Y1066778D01*
X493748Y1067051D01*
X494513Y1067379D01*
X495222Y1067870D01*
X495932Y1068525D01*
X495987Y1068634D01*
X496205Y1068907D01*
X496478Y1069344D01*
X496806Y1070054D01*
X497133Y1070873D01*
X497406Y1071965D01*
X497625Y1073221D01*
X497679Y1074695D01*
Y1086598D01*
D02*
G37*
G36*
X482391Y853401D02*
X482337D01*
X482118D01*
X481736D01*
X481245Y853347D01*
X480699Y853292D01*
X480044Y853183D01*
X479279Y853074D01*
X478515Y852964D01*
X476768Y852528D01*
X475894Y852200D01*
X474966Y851872D01*
X474092Y851436D01*
X473219Y850944D01*
X472400Y850398D01*
X471635Y849743D01*
X471581Y849688D01*
X471471Y849579D01*
X471253Y849361D01*
X471035Y849088D01*
X470707Y848706D01*
X470379Y848269D01*
X470052Y847777D01*
X469670Y847231D01*
X469287Y846576D01*
X468960Y845866D01*
X468632Y845102D01*
X468305Y844283D01*
X468086Y843409D01*
X467868Y842536D01*
X467759Y841553D01*
X467704Y840516D01*
Y840243D01*
X467759Y839970D01*
Y839587D01*
X467813Y839096D01*
X467922Y838550D01*
X468032Y837895D01*
X468195Y837240D01*
X468414Y836475D01*
X468687Y835765D01*
X468960Y834946D01*
X469342Y834182D01*
X469833Y833418D01*
X470325Y832653D01*
X470925Y831889D01*
X471635Y831179D01*
X471690Y831124D01*
X471799Y831015D01*
X472072Y830851D01*
X472400Y830578D01*
X472782Y830305D01*
X473273Y830032D01*
X473874Y829705D01*
X474529Y829323D01*
X475293Y828995D01*
X476167Y828667D01*
X477095Y828394D01*
X478078Y828067D01*
X479170Y827848D01*
X480371Y827685D01*
X481627Y827575D01*
X482937Y827521D01*
X482992D01*
X483156D01*
X483374D01*
X483702D01*
X484084Y827575D01*
X484575D01*
X485067Y827630D01*
X485667Y827739D01*
X486923Y827903D01*
X488234Y828176D01*
X489653Y828558D01*
X490964Y829104D01*
X491018D01*
X491127Y829159D01*
X491291Y829268D01*
X491510Y829377D01*
X492165Y829759D01*
X492929Y830251D01*
X493803Y830906D01*
X494676Y831725D01*
X495550Y832653D01*
X496314Y833691D01*
Y833745D01*
X496424Y833800D01*
X496478Y833964D01*
X496642Y834237D01*
X496751Y834510D01*
X496915Y834837D01*
X497297Y835656D01*
X497625Y836639D01*
X497952Y837786D01*
X498171Y839096D01*
X498225Y840461D01*
Y840952D01*
X498171Y841335D01*
X498116Y841826D01*
X498007Y842317D01*
X497898Y842918D01*
X497789Y843573D01*
X497352Y844993D01*
X497024Y845757D01*
X496697Y846522D01*
X496260Y847341D01*
X495768Y848105D01*
X495222Y848869D01*
X494567Y849579D01*
X494513Y849634D01*
X494403Y849743D01*
X494185Y849907D01*
X493857Y850180D01*
X493475Y850453D01*
X492984Y850780D01*
X492383Y851108D01*
X491673Y851490D01*
X490909Y851818D01*
X489981Y852200D01*
X488998Y852528D01*
X487906Y852801D01*
X486705Y853074D01*
X485340Y853237D01*
X483920Y853347D01*
X482391Y853401D01*
D02*
G37*
G36*
X479661Y747586D02*
Y734810D01*
X490035Y738741D01*
X490090D01*
X490254Y738796D01*
X490527Y738905D01*
X490854Y739014D01*
X491237Y739178D01*
X491728Y739342D01*
X492274Y739506D01*
X492820Y739724D01*
X494076Y740161D01*
X495386Y740598D01*
X496697Y741034D01*
X497952Y741417D01*
X497898D01*
X497789Y741471D01*
X497570D01*
X497352Y741580D01*
X496970Y741635D01*
X496587Y741744D01*
X495659Y741963D01*
X494567Y742236D01*
X493366Y742618D01*
X492056Y743000D01*
X490691Y743491D01*
X479661Y747586D01*
D02*
G37*
G36*
X-479661Y1194324D02*
X-490035Y1190393D01*
X-490090D01*
X-490253Y1190338D01*
X-490526Y1190229D01*
X-490854Y1190120D01*
X-491236Y1189956D01*
X-491728Y1189792D01*
X-492274Y1189628D01*
X-492820Y1189410D01*
X-494075Y1188973D01*
X-495386Y1188536D01*
X-496696Y1188100D01*
X-497952Y1187717D01*
X-497897D01*
X-497788Y1187663D01*
X-497570D01*
X-497351Y1187553D01*
X-496969Y1187499D01*
X-496587Y1187390D01*
X-495659Y1187171D01*
X-494567Y1186898D01*
X-493366Y1186516D01*
X-492055Y1186134D01*
X-490690Y1185642D01*
X-479661Y1181547D01*
Y1194324D01*
D02*
G37*
G36*
X-482937Y1101613D02*
X-482992D01*
X-483155D01*
X-483374D01*
X-483701D01*
X-484084Y1101559D01*
X-484575D01*
X-485066Y1101504D01*
X-485667Y1101395D01*
X-486923Y1101231D01*
X-488233Y1100958D01*
X-489653Y1100576D01*
X-490963Y1100030D01*
X-491018D01*
X-491127Y1099975D01*
X-491291Y1099866D01*
X-491509Y1099757D01*
X-492164Y1099374D01*
X-492929Y1098883D01*
X-493802Y1098228D01*
X-494676Y1097409D01*
X-495550Y1096481D01*
X-496314Y1095443D01*
Y1095389D01*
X-496423Y1095334D01*
X-496478Y1095170D01*
X-496642Y1094897D01*
X-496751Y1094624D01*
X-496915Y1094297D01*
X-497297Y1093478D01*
X-497624Y1092495D01*
X-497952Y1091348D01*
X-498170Y1090038D01*
X-498225Y1088673D01*
Y1088181D01*
X-498170Y1087799D01*
X-498116Y1087308D01*
X-498007Y1086816D01*
X-497897Y1086216D01*
X-497788Y1085561D01*
X-497351Y1084141D01*
X-497024Y1083377D01*
X-496696Y1082612D01*
X-496259Y1081793D01*
X-495768Y1081029D01*
X-495222Y1080264D01*
X-494567Y1079555D01*
X-494512Y1079500D01*
X-494403Y1079391D01*
X-494185Y1079227D01*
X-493857Y1078954D01*
X-493475Y1078681D01*
X-492983Y1078353D01*
X-492383Y1078026D01*
X-491673Y1077644D01*
X-490909Y1077316D01*
X-489980Y1076934D01*
X-488998Y1076606D01*
X-487906Y1076333D01*
X-486704Y1076060D01*
X-485339Y1075897D01*
X-483920Y1075787D01*
X-482391Y1075733D01*
X-482336D01*
X-482118D01*
X-481736D01*
X-481244Y1075787D01*
X-480698Y1075842D01*
X-480043Y1075951D01*
X-479279Y1076060D01*
X-478514Y1076169D01*
X-476767Y1076606D01*
X-475894Y1076934D01*
X-474965Y1077262D01*
X-474092Y1077698D01*
X-473218Y1078190D01*
X-472399Y1078736D01*
X-471635Y1079391D01*
X-471580Y1079446D01*
X-471471Y1079555D01*
X-471253Y1079773D01*
X-471034Y1080046D01*
X-470707Y1080428D01*
X-470379Y1080865D01*
X-470051Y1081357D01*
X-469669Y1081902D01*
X-469287Y1082558D01*
X-468959Y1083267D01*
X-468632Y1084032D01*
X-468304Y1084851D01*
X-468086Y1085725D01*
X-467867Y1086598D01*
X-467758Y1087581D01*
X-467704Y1088618D01*
Y1088891D01*
X-467758Y1089164D01*
Y1089546D01*
X-467813Y1090038D01*
X-467922Y1090584D01*
X-468031Y1091239D01*
X-468195Y1091894D01*
X-468413Y1092659D01*
X-468686Y1093369D01*
X-468959Y1094188D01*
X-469342Y1094952D01*
X-469833Y1095716D01*
X-470324Y1096481D01*
X-470925Y1097245D01*
X-471635Y1097955D01*
X-471689Y1098009D01*
X-471799Y1098119D01*
X-472072Y1098283D01*
X-472399Y1098555D01*
X-472781Y1098829D01*
X-473273Y1099101D01*
X-473873Y1099429D01*
X-474529Y1099811D01*
X-475293Y1100139D01*
X-476167Y1100466D01*
X-477095Y1100739D01*
X-478078Y1101067D01*
X-479170Y1101285D01*
X-480371Y1101449D01*
X-481627Y1101559D01*
X-482937Y1101613D01*
D02*
G37*
G36*
X-491509Y862574D02*
X-491564D01*
X-491618D01*
X-491946Y862520D01*
X-492437Y862465D01*
X-493093Y862356D01*
X-493748Y862083D01*
X-494512Y861755D01*
X-495222Y861264D01*
X-495932Y860609D01*
X-495986Y860500D01*
X-496205Y860226D01*
X-496478Y859790D01*
X-496805Y859080D01*
X-497133Y858261D01*
X-497406Y857169D01*
X-497624Y855913D01*
X-497679Y854439D01*
Y842536D01*
X-485176D01*
Y853784D01*
X-485230Y854439D01*
X-485285Y855203D01*
X-485339Y856077D01*
X-485449Y856951D01*
X-485612Y857824D01*
X-485831Y858588D01*
X-485885Y858698D01*
X-485995Y858916D01*
X-486158Y859244D01*
X-486377Y859681D01*
X-486704Y860172D01*
X-487087Y860663D01*
X-487578Y861155D01*
X-488124Y861537D01*
X-488179Y861591D01*
X-488397Y861701D01*
X-488725Y861865D01*
X-489161Y862083D01*
X-489653Y862247D01*
X-490199Y862410D01*
X-490854Y862520D01*
X-491509Y862574D01*
D02*
G37*
G36*
X-479661Y707346D02*
X-490035Y703415D01*
X-490090D01*
X-490253Y703361D01*
X-490526Y703251D01*
X-490854Y703142D01*
X-491236Y702979D01*
X-491728Y702815D01*
X-492274Y702651D01*
X-492820Y702433D01*
X-494075Y701996D01*
X-495386Y701559D01*
X-496696Y701122D01*
X-497952Y700740D01*
X-497897D01*
X-497788Y700685D01*
X-497570D01*
X-497351Y700576D01*
X-496969Y700521D01*
X-496587Y700412D01*
X-495659Y700194D01*
X-494567Y699921D01*
X-493366Y699539D01*
X-492055Y699157D01*
X-490690Y698665D01*
X-479661Y694570D01*
Y707346D01*
D02*
G37*
G36*
X-483265Y675842D02*
X-483319D01*
X-483538D01*
X-483811D01*
X-484247Y675788D01*
X-484739D01*
X-485285Y675733D01*
X-485940Y675678D01*
X-486595Y675624D01*
X-488069Y675351D01*
X-489598Y675023D01*
X-491018Y674532D01*
X-491728Y674204D01*
X-492328Y673877D01*
X-492383D01*
X-492492Y673768D01*
X-492656Y673658D01*
X-492874Y673549D01*
X-493420Y673112D01*
X-494075Y672566D01*
X-494785Y671856D01*
X-495495Y671038D01*
X-496096Y670109D01*
X-496587Y669126D01*
X-496642Y669017D01*
X-496696Y668744D01*
X-496860Y668253D01*
X-497024Y667543D01*
X-497133Y666669D01*
X-497297Y665577D01*
X-497351Y664922D01*
Y664212D01*
X-497406Y663503D01*
Y654767D01*
X-468577D01*
Y663721D01*
X-468632Y664103D01*
X-468686Y664922D01*
X-468741Y665851D01*
X-468850Y666833D01*
X-469014Y667816D01*
X-469232Y668635D01*
X-469287Y668744D01*
X-469342Y669017D01*
X-469505Y669399D01*
X-469724Y669891D01*
X-470051Y670437D01*
X-470379Y670983D01*
X-470761Y671529D01*
X-471198Y672075D01*
X-471307Y672130D01*
X-471526Y672348D01*
X-471908Y672676D01*
X-472454Y673058D01*
X-473164Y673495D01*
X-473983Y673986D01*
X-474911Y674423D01*
X-475948Y674805D01*
X-476003D01*
X-476112Y674860D01*
X-476276Y674914D01*
X-476494Y674969D01*
X-476767Y675023D01*
X-477149Y675133D01*
X-477532Y675242D01*
X-477968Y675351D01*
X-479060Y675515D01*
X-480316Y675678D01*
X-481736Y675788D01*
X-483265Y675842D01*
D02*
G37*
%LPD*%
D37*
X0Y47736D02*
D03*
D38*
X-0Y53147D02*
D03*
D40*
X220669Y641732D02*
D03*
X186811D02*
D03*
X220669Y322835D02*
D03*
X186811D02*
D03*
X301535Y964567D02*
D03*
X267677D02*
D03*
X81496Y521654D02*
D03*
X115354D02*
D03*
X81496Y561024D02*
D03*
X115354D02*
D03*
X-337795Y521654D02*
D03*
X-303937D02*
D03*
X-337795Y561024D02*
D03*
X-303937D02*
D03*
X301535Y1163386D02*
D03*
X267677D02*
D03*
D41*
X-65866Y912598D02*
D03*
Y878740D02*
D03*
X-215866D02*
D03*
Y912598D02*
D03*
X-115866Y878740D02*
D03*
Y912598D02*
D03*
X-265866Y878740D02*
D03*
Y912598D02*
D03*
X-165866D02*
D03*
Y878740D02*
D03*
X-315866Y912598D02*
D03*
Y878740D02*
D03*
X-15866D02*
D03*
Y912598D02*
D03*
X34134D02*
D03*
Y878740D02*
D03*
D46*
X448819Y55118D02*
D03*
X417323D02*
D03*
X385827D02*
D03*
X354331D02*
D03*
X322835D02*
D03*
X291339D02*
D03*
X259843D02*
D03*
X228347D02*
D03*
X196850D02*
D03*
X165354D02*
D03*
X133858D02*
D03*
X102362D02*
D03*
X70866D02*
D03*
X39370D02*
D03*
X7874D02*
D03*
X-23622D02*
D03*
X-55118D02*
D03*
X-86614D02*
D03*
X-244095D02*
D03*
X-275591D02*
D03*
X-307087D02*
D03*
X-338583D02*
D03*
X-370079D02*
D03*
X-401575D02*
D03*
X-433071D02*
D03*
X-464567D02*
D03*
D47*
X-476378Y1891732D02*
D03*
X476378D02*
D03*
D48*
X295276Y1663386D02*
D03*
D49*
X196850D02*
D03*
X98425D02*
D03*
X0D02*
D03*
X-98425D02*
D03*
X-196850D02*
D03*
X-295276D02*
D03*
D50*
X211638D02*
G03*
X211638Y1663386I-14787J0D01*
G01*
X113213D02*
G03*
X113213Y1663386I-14787J0D01*
G01*
X14787D02*
G03*
X14787Y1663386I-14787J0D01*
G01*
X-83638D02*
G03*
X-83638Y1663386I-14787J0D01*
G01*
X-182063D02*
G03*
X-182063Y1663386I-14787J0D01*
G01*
X-280488D02*
G03*
X-280488Y1663386I-14787J0D01*
G01*
D51*
X332087Y1446850D02*
D03*
X258465D02*
D03*
X-36811Y1446851D02*
D03*
X36811D02*
D03*
X-332087Y1446850D02*
D03*
X-258465D02*
D03*
D52*
X-65866Y954724D02*
D03*
X-115866D02*
D03*
X-165866D02*
D03*
X-215866D02*
D03*
Y1230315D02*
D03*
X-165866D02*
D03*
X-115866D02*
D03*
X-65866D02*
D03*
X-15866D02*
D03*
X-265866D02*
D03*
Y954724D02*
D03*
X-15866D02*
D03*
X34134Y1230315D02*
D03*
Y954724D02*
D03*
X-315866Y1230315D02*
D03*
Y954724D02*
D03*
D53*
X186811Y375984D02*
D03*
X236811D02*
D03*
X286811D02*
D03*
X336811D02*
D03*
Y588583D02*
D03*
X286811D02*
D03*
X236811D02*
D03*
X186811D02*
D03*
D54*
X223583Y964567D02*
D03*
X188150D02*
D03*
X277559Y1387795D02*
D03*
X312992D02*
D03*
X-17716Y1387795D02*
D03*
X17716D02*
D03*
X-312992Y1387795D02*
D03*
X-277559D02*
D03*
X188150Y1163386D02*
D03*
X223583D02*
D03*
D55*
X-320866Y332284D02*
D03*
Y632284D02*
D03*
X96457D02*
D03*
Y432284D02*
D03*
Y332284D02*
D03*
%TF.MD5,03b0ad0d5f11a7ea248224f5434d8671*%
M02*
