M48
;Layer_Color=9474304
;FILE_FORMAT=2:5
INCH,LZ
;TYPE=PLATED
T1F00S00C0.00787
%
T01
X001437Y0
X0019193Y0021457
X0014193Y0028543
X0036122Y0019409
X0041122
Y0055394
Y005878
X0036122Y0055394
X0031122
X0019193
Y005878
X001811Y007933
X0025984
X0012205Y0088976
X0028543Y0109252
X0040158Y0105315
X0001772Y0107283
Y0095472
X0008268Y0088976
X0009055Y0070276
X0009193Y005878
Y0055394
X-0000807
Y005878
X-0010807
Y0055394
X-0009843Y008563
X-0018504
X-0018504Y0109252
X-0009843Y0105315
Y0101378
X-0005807Y0028543
X0004193
X-0000807Y0021457
X-0010807
X0009193
X001122Y0
M30
